<svg class="marks" width="930" height="381" viewBox="0 0 930 381" version="1.1" xmlns="http://www.w3.org/2000/svg" xmlns:xlink="http://www.w3.org/1999/xlink"><g transform="translate(68,22)"><g class="mark-group role-frame root"><g transform="translate(0,0)"><path class="background" d="M0.5,0.5h800v200h-800Z" style="fill: none; stroke: #ddd;"></path><g><g class="mark-symbol role-mark marks"><path transform="translate(12.121212121212125,75)" d="M-2.7386127875258306,-2.7386127875258306h5.477225575051661v5.477225575051661h-5.477225575051661Z" style="fill: rgb(116, 178, 215); stroke-width: 2; opacity: 0.7;"></path><path transform="translate(12.121212121212125,175)" d="M-2.7386127875258306,-2.7386127875258306h5.477225575051661v5.477225575051661h-5.477225575051661Z" style="fill: rgb(116, 178, 215); stroke-width: 2; opacity: 0.7;"></path><path transform="translate(12.121212121212125,175)" d="M-2.7386127875258306,-2.7386127875258306h5.477225575051661v5.477225575051661h-5.477225575051661Z" style="fill: rgb(116, 178, 215); stroke-width: 2; opacity: 0.7;"></path><path transform="translate(12.121212121212125,175)" d="M-2.7386127875258306,-2.7386127875258306h5.477225575051661v5.477225575051661h-5.477225575051661Z" style="fill: rgb(116, 178, 215); stroke-width: 2; opacity: 0.7;"></path><path transform="translate(36.36363636363637,75)" d="M-2.7386127875258306,-2.7386127875258306h5.477225575051661v5.477225575051661h-5.477225575051661Z" style="fill: rgb(91, 163, 207); stroke-width: 2; opacity: 0.7;"></path><path transform="translate(36.36363636363637,175)" d="M-2.7386127875258306,-2.7386127875258306h5.477225575051661v5.477225575051661h-5.477225575051661Z" style="fill: rgb(91, 163, 207); stroke-width: 2; opacity: 0.7;"></path><path transform="translate(60.60606060606061,75)" d="M-2.7386127875258306,-2.7386127875258306h5.477225575051661v5.477225575051661h-5.477225575051661Z" style="fill: rgb(190, 216, 236); stroke-width: 2; opacity: 0.7;"></path><path transform="translate(60.60606060606061,175)" d="M-2.7386127875258306,-2.7386127875258306h5.477225575051661v5.477225575051661h-5.477225575051661Z" style="fill: rgb(190, 216, 236); stroke-width: 2; opacity: 0.7;"></path><path transform="translate(60.60606060606061,25)" d="M-2.7386127875258306,-2.7386127875258306h5.477225575051661v5.477225575051661h-5.477225575051661Z" style="fill: rgb(190, 216, 236); stroke-width: 2; opacity: 0.7;"></path><path transform="translate(84.84848484848484,75)" d="M-2.7386127875258306,-2.7386127875258306h5.477225575051661v5.477225575051661h-5.477225575051661Z" style="fill: rgb(69, 146, 198); stroke-width: 2; opacity: 0.7;"></path><path transform="translate(109.0909090909091,75)" d="M-2.7386127875258306,-2.7386127875258306h5.477225575051661v5.477225575051661h-5.477225575051661Z" style="fill: rgb(69, 146, 198); stroke-width: 2; opacity: 0.7;"></path><path transform="translate(109.0909090909091,175)" d="M-2.7386127875258306,-2.7386127875258306h5.477225575051661v5.477225575051661h-5.477225575051661Z" style="fill: rgb(69, 146, 198); stroke-width: 2; opacity: 0.7;"></path><path transform="translate(133.33333333333334,75)" d="M-2.7386127875258306,-2.7386127875258306h5.477225575051661v5.477225575051661h-5.477225575051661Z" style="fill: rgb(69, 146, 198); stroke-width: 2; opacity: 0.7;"></path><path transform="translate(157.57575757575756,75)" d="M-2.7386127875258306,-2.7386127875258306h5.477225575051661v5.477225575051661h-5.477225575051661Z" style="fill: rgb(49, 129, 189); stroke-width: 2; opacity: 0.7;"></path><path transform="translate(157.57575757575756,175)" d="M-2.7386127875258306,-2.7386127875258306h5.477225575051661v5.477225575051661h-5.477225575051661Z" style="fill: rgb(49, 129, 189); stroke-width: 2; opacity: 0.7;"></path><path transform="translate(787.8787878787879,75)" d="M-2.7386127875258306,-2.7386127875258306h5.477225575051661v5.477225575051661h-5.477225575051661Z" style="fill: rgb(69, 146, 198); stroke-width: 2; opacity: 0.7;"></path><path transform="translate(787.8787878787879,175)" d="M-2.7386127875258306,-2.7386127875258306h5.477225575051661v5.477225575051661h-5.477225575051661Z" style="fill: rgb(69, 146, 198); stroke-width: 2; opacity: 0.7;"></path><path transform="translate(181.8181818181818,75)" d="M-2.7386127875258306,-2.7386127875258306h5.477225575051661v5.477225575051661h-5.477225575051661Z" style="fill: rgb(69, 146, 198); stroke-width: 2; opacity: 0.7;"></path><path transform="translate(181.8181818181818,175)" d="M-2.7386127875258306,-2.7386127875258306h5.477225575051661v5.477225575051661h-5.477225575051661Z" style="fill: rgb(69, 146, 198); stroke-width: 2; opacity: 0.7;"></path><path transform="translate(181.8181818181818,175)" d="M-2.7386127875258306,-2.7386127875258306h5.477225575051661v5.477225575051661h-5.477225575051661Z" style="fill: rgb(49, 129, 189); stroke-width: 2; opacity: 0.7;"></path><path transform="translate(206.06060606060606,75)" d="M-2.7386127875258306,-2.7386127875258306h5.477225575051661v5.477225575051661h-5.477225575051661Z" style="fill: rgb(69, 146, 198); stroke-width: 2; opacity: 0.7;"></path><path transform="translate(206.06060606060606,175)" d="M-2.7386127875258306,-2.7386127875258306h5.477225575051661v5.477225575051661h-5.477225575051661Z" style="fill: rgb(69, 146, 198); stroke-width: 2; opacity: 0.7;"></path><path transform="translate(206.06060606060606,175)" d="M-2.7386127875258306,-2.7386127875258306h5.477225575051661v5.477225575051661h-5.477225575051661Z" style="fill: rgb(69, 146, 198); stroke-width: 2; opacity: 0.7;"></path><path transform="translate(230.3030303030303,75)" d="M-2.7386127875258306,-2.7386127875258306h5.477225575051661v5.477225575051661h-5.477225575051661Z" style="fill: rgb(69, 146, 198); stroke-width: 2; opacity: 0.7;"></path><path transform="translate(230.3030303030303,175)" d="M-2.7386127875258306,-2.7386127875258306h5.477225575051661v5.477225575051661h-5.477225575051661Z" style="fill: rgb(69, 146, 198); stroke-width: 2; opacity: 0.7;"></path><path transform="translate(230.3030303030303,175)" d="M-2.7386127875258306,-2.7386127875258306h5.477225575051661v5.477225575051661h-5.477225575051661Z" style="fill: rgb(49, 129, 189); stroke-width: 2; opacity: 0.7;"></path><path transform="translate(254.54545454545456,75)" d="M-2.7386127875258306,-2.7386127875258306h5.477225575051661v5.477225575051661h-5.477225575051661Z" style="fill: rgb(69, 146, 198); stroke-width: 2; opacity: 0.7;"></path><path transform="translate(254.54545454545456,175)" d="M-2.7386127875258306,-2.7386127875258306h5.477225575051661v5.477225575051661h-5.477225575051661Z" style="fill: rgb(69, 146, 198); stroke-width: 2; opacity: 0.7;"></path><path transform="translate(278.7878787878788,75)" d="M-2.7386127875258306,-2.7386127875258306h5.477225575051661v5.477225575051661h-5.477225575051661Z" style="fill: rgb(49, 129, 189); stroke-width: 2; opacity: 0.7;"></path><path transform="translate(206.06060606060606,175)" d="M-2.7386127875258306,-2.7386127875258306h5.477225575051661v5.477225575051661h-5.477225575051661Z" style="fill: rgb(49, 129, 189); stroke-width: 2; opacity: 0.7;"></path><path transform="translate(133.33333333333334,175)" d="M-2.7386127875258306,-2.7386127875258306h5.477225575051661v5.477225575051661h-5.477225575051661Z" style="fill: rgb(69, 146, 198); stroke-width: 2; opacity: 0.7;"></path><path transform="translate(84.84848484848484,175)" d="M-2.7386127875258306,-2.7386127875258306h5.477225575051661v5.477225575051661h-5.477225575051661Z" style="fill: rgb(69, 146, 198); stroke-width: 2; opacity: 0.7;"></path><path transform="translate(84.84848484848484,175)" d="M-2.7386127875258306,-2.7386127875258306h5.477225575051661v5.477225575051661h-5.477225575051661Z" style="fill: rgb(32, 111, 178); stroke-width: 2; opacity: 0.7;"></path><path transform="translate(303.030303030303,75)" d="M-2.7386127875258306,-2.7386127875258306h5.477225575051661v5.477225575051661h-5.477225575051661Z" style="fill: rgb(69, 146, 198); stroke-width: 2; opacity: 0.7;"></path><path transform="translate(327.27272727272725,75)" d="M-2.7386127875258306,-2.7386127875258306h5.477225575051661v5.477225575051661h-5.477225575051661Z" style="fill: rgb(69, 146, 198); stroke-width: 2; opacity: 0.7;"></path><path transform="translate(327.27272727272725,175)" d="M-2.7386127875258306,-2.7386127875258306h5.477225575051661v5.477225575051661h-5.477225575051661Z" style="fill: rgb(69, 146, 198); stroke-width: 2; opacity: 0.7;"></path><path transform="translate(327.27272727272725,175)" d="M-2.7386127875258306,-2.7386127875258306h5.477225575051661v5.477225575051661h-5.477225575051661Z" style="fill: rgb(49, 129, 189); stroke-width: 2; opacity: 0.7;"></path><path transform="translate(327.27272727272725,175)" d="M-2.7386127875258306,-2.7386127875258306h5.477225575051661v5.477225575051661h-5.477225575051661Z" style="fill: rgb(49, 129, 189); stroke-width: 2; opacity: 0.7;"></path><path transform="translate(278.7878787878788,175)" d="M-2.7386127875258306,-2.7386127875258306h5.477225575051661v5.477225575051661h-5.477225575051661Z" style="fill: rgb(49, 129, 189); stroke-width: 2; opacity: 0.7;"></path><path transform="translate(278.7878787878788,175)" d="M-2.7386127875258306,-2.7386127875258306h5.477225575051661v5.477225575051661h-5.477225575051661Z" style="fill: rgb(49, 129, 189); stroke-width: 2; opacity: 0.7;"></path><path transform="translate(278.7878787878788,175)" d="M-2.7386127875258306,-2.7386127875258306h5.477225575051661v5.477225575051661h-5.477225575051661Z" style="fill: rgb(49, 129, 189); stroke-width: 2; opacity: 0.7;"></path><path transform="translate(278.7878787878788,175)" d="M-2.7386127875258306,-2.7386127875258306h5.477225575051661v5.477225575051661h-5.477225575051661Z" style="fill: rgb(49, 129, 189); stroke-width: 2; opacity: 0.7;"></path><path transform="translate(157.57575757575756,175)" d="M-2.7386127875258306,-2.7386127875258306h5.477225575051661v5.477225575051661h-5.477225575051661Z" style="fill: rgb(49, 129, 189); stroke-width: 2; opacity: 0.7;"></path><path transform="translate(157.57575757575756,25)" d="M-2.7386127875258306,-2.7386127875258306h5.477225575051661v5.477225575051661h-5.477225575051661Z" style="fill: rgb(49, 129, 189); stroke-width: 2; opacity: 0.7;"></path><path transform="translate(157.57575757575756,175)" d="M-2.7386127875258306,-2.7386127875258306h5.477225575051661v5.477225575051661h-5.477225575051661Z" style="fill: rgb(49, 129, 189); stroke-width: 2; opacity: 0.7;"></path><path transform="translate(351.5151515151515,75)" d="M-2.7386127875258306,-2.7386127875258306h5.477225575051661v5.477225575051661h-5.477225575051661Z" style="fill: rgb(18, 92, 164); stroke-width: 2; opacity: 0.7;"></path><path transform="translate(375.75757575757575,25)" d="M-2.7386127875258306,-2.7386127875258306h5.477225575051661v5.477225575051661h-5.477225575051661Z" style="fill: rgb(18, 92, 164); stroke-width: 2; opacity: 0.7;"></path><path transform="translate(400,75)" d="M-2.7386127875258306,-2.7386127875258306h5.477225575051661v5.477225575051661h-5.477225575051661Z" style="fill: rgb(18, 92, 164); stroke-width: 2; opacity: 0.7;"></path><path transform="translate(400,175)" d="M-2.7386127875258306,-2.7386127875258306h5.477225575051661v5.477225575051661h-5.477225575051661Z" style="fill: rgb(18, 92, 164); stroke-width: 2; opacity: 0.7;"></path><path transform="translate(400,175)" d="M-2.7386127875258306,-2.7386127875258306h5.477225575051661v5.477225575051661h-5.477225575051661Z" style="fill: rgb(18, 92, 164); stroke-width: 2; opacity: 0.7;"></path><path transform="translate(400,25)" d="M-2.7386127875258306,-2.7386127875258306h5.477225575051661v5.477225575051661h-5.477225575051661Z" style="fill: rgb(18, 92, 164); stroke-width: 2; opacity: 0.7;"></path><path transform="translate(400,175)" d="M-2.7386127875258306,-2.7386127875258306h5.477225575051661v5.477225575051661h-5.477225575051661Z" style="fill: rgb(18, 92, 164); stroke-width: 2; opacity: 0.7;"></path><path transform="translate(424.24242424242425,75)" d="M-2.7386127875258306,-2.7386127875258306h5.477225575051661v5.477225575051661h-5.477225575051661Z" style="fill: rgb(18, 92, 164); stroke-width: 2; opacity: 0.7;"></path><path transform="translate(424.24242424242425,25)" d="M-2.7386127875258306,-2.7386127875258306h5.477225575051661v5.477225575051661h-5.477225575051661Z" style="fill: rgb(18, 92, 164); stroke-width: 2; opacity: 0.7;"></path><path transform="translate(424.24242424242425,175)" d="M-2.7386127875258306,-2.7386127875258306h5.477225575051661v5.477225575051661h-5.477225575051661Z" style="fill: rgb(18, 92, 164); stroke-width: 2; opacity: 0.7;"></path><path transform="translate(424.24242424242425,175)" d="M-2.7386127875258306,-2.7386127875258306h5.477225575051661v5.477225575051661h-5.477225575051661Z" style="fill: rgb(18, 92, 164); stroke-width: 2; opacity: 0.7;"></path><path transform="translate(424.24242424242425,175)" d="M-2.7386127875258306,-2.7386127875258306h5.477225575051661v5.477225575051661h-5.477225575051661Z" style="fill: rgb(18, 92, 164); stroke-width: 2; opacity: 0.7;"></path><path transform="translate(424.24242424242425,175)" d="M-2.7386127875258306,-2.7386127875258306h5.477225575051661v5.477225575051661h-5.477225575051661Z" style="fill: rgb(18, 92, 164); stroke-width: 2; opacity: 0.7;"></path><path transform="translate(424.24242424242425,175)" d="M-2.7386127875258306,-2.7386127875258306h5.477225575051661v5.477225575051661h-5.477225575051661Z" style="fill: rgb(18, 92, 164); stroke-width: 2; opacity: 0.7;"></path><path transform="translate(375.75757575757575,75)" d="M-2.7386127875258306,-2.7386127875258306h5.477225575051661v5.477225575051661h-5.477225575051661Z" style="fill: rgb(18, 92, 164); stroke-width: 2; opacity: 0.7;"></path><path transform="translate(424.24242424242425,175)" d="M-2.7386127875258306,-2.7386127875258306h5.477225575051661v5.477225575051661h-5.477225575051661Z" style="fill: rgb(18, 92, 164); stroke-width: 2; opacity: 0.7;"></path><path transform="translate(400,175)" d="M-2.7386127875258306,-2.7386127875258306h5.477225575051661v5.477225575051661h-5.477225575051661Z" style="fill: rgb(18, 92, 164); stroke-width: 2; opacity: 0.7;"></path><path transform="translate(424.24242424242425,175)" d="M-2.7386127875258306,-2.7386127875258306h5.477225575051661v5.477225575051661h-5.477225575051661Z" style="fill: rgb(18, 92, 164); stroke-width: 2; opacity: 0.7;"></path><path transform="translate(424.24242424242425,175)" d="M-2.7386127875258306,-2.7386127875258306h5.477225575051661v5.477225575051661h-5.477225575051661Z" style="fill: rgb(18, 92, 164); stroke-width: 2; opacity: 0.7;"></path><path transform="translate(448.4848484848485,75)" d="M-2.7386127875258306,-2.7386127875258306h5.477225575051661v5.477225575051661h-5.477225575051661Z" style="fill: rgb(49, 129, 189); stroke-width: 2; opacity: 0.7;"></path><path transform="translate(472.72727272727275,75)" d="M-2.7386127875258306,-2.7386127875258306h5.477225575051661v5.477225575051661h-5.477225575051661Z" style="fill: rgb(32, 111, 178); stroke-width: 2; opacity: 0.7;"></path><path transform="translate(472.72727272727275,25)" d="M-2.7386127875258306,-2.7386127875258306h5.477225575051661v5.477225575051661h-5.477225575051661Z" style="fill: rgb(32, 111, 178); stroke-width: 2; opacity: 0.7;"></path><path transform="translate(472.72727272727275,175)" d="M-2.7386127875258306,-2.7386127875258306h5.477225575051661v5.477225575051661h-5.477225575051661Z" style="fill: rgb(32, 111, 178); stroke-width: 2; opacity: 0.7;"></path><path transform="translate(472.72727272727275,175)" d="M-2.7386127875258306,-2.7386127875258306h5.477225575051661v5.477225575051661h-5.477225575051661Z" style="fill: rgb(32, 111, 178); stroke-width: 2; opacity: 0.7;"></path><path transform="translate(472.72727272727275,175)" d="M-2.7386127875258306,-2.7386127875258306h5.477225575051661v5.477225575051661h-5.477225575051661Z" style="fill: rgb(32, 111, 178); stroke-width: 2; opacity: 0.7;"></path><path transform="translate(472.72727272727275,175)" d="M-2.7386127875258306,-2.7386127875258306h5.477225575051661v5.477225575051661h-5.477225575051661Z" style="fill: rgb(32, 111, 178); stroke-width: 2; opacity: 0.7;"></path><path transform="translate(448.4848484848485,175)" d="M-2.7386127875258306,-2.7386127875258306h5.477225575051661v5.477225575051661h-5.477225575051661Z" style="fill: rgb(32, 111, 178); stroke-width: 2; opacity: 0.7;"></path><path transform="translate(496.969696969697,75)" d="M-2.7386127875258306,-2.7386127875258306h5.477225575051661v5.477225575051661h-5.477225575051661Z" style="fill: rgb(32, 111, 178); stroke-width: 2; opacity: 0.7;"></path><path transform="translate(496.969696969697,25)" d="M-2.7386127875258306,-2.7386127875258306h5.477225575051661v5.477225575051661h-5.477225575051661Z" style="fill: rgb(32, 111, 178); stroke-width: 2; opacity: 0.7;"></path><path transform="translate(496.969696969697,175)" d="M-2.7386127875258306,-2.7386127875258306h5.477225575051661v5.477225575051661h-5.477225575051661Z" style="fill: rgb(32, 111, 178); stroke-width: 2; opacity: 0.7;"></path><path transform="translate(496.969696969697,175)" d="M-2.7386127875258306,-2.7386127875258306h5.477225575051661v5.477225575051661h-5.477225575051661Z" style="fill: rgb(32, 111, 178); stroke-width: 2; opacity: 0.7;"></path><path transform="translate(521.2121212121212,75)" d="M-2.7386127875258306,-2.7386127875258306h5.477225575051661v5.477225575051661h-5.477225575051661Z" style="fill: rgb(18, 92, 164); stroke-width: 2; opacity: 0.7;"></path><path transform="translate(521.2121212121212,25)" d="M-2.7386127875258306,-2.7386127875258306h5.477225575051661v5.477225575051661h-5.477225575051661Z" style="fill: rgb(18, 92, 164); stroke-width: 2; opacity: 0.7;"></path><path transform="translate(521.2121212121212,175)" d="M-2.7386127875258306,-2.7386127875258306h5.477225575051661v5.477225575051661h-5.477225575051661Z" style="fill: rgb(49, 129, 189); stroke-width: 2; opacity: 0.7;"></path><path transform="translate(545.4545454545455,175)" d="M-2.7386127875258306,-2.7386127875258306h5.477225575051661v5.477225575051661h-5.477225575051661Z" style="fill: rgb(168, 206, 229); stroke-width: 2; opacity: 0.7;"></path><path transform="translate(569.6969696969697,175)" d="M-2.7386127875258306,-2.7386127875258306h5.477225575051661v5.477225575051661h-5.477225575051661Z" style="fill: rgb(143, 193, 222); stroke-width: 2; opacity: 0.7;"></path><path transform="translate(593.9393939393939,175)" d="M-2.7386127875258306,-2.7386127875258306h5.477225575051661v5.477225575051661h-5.477225575051661Z" style="fill: rgb(49, 129, 189); stroke-width: 2; opacity: 0.7;"></path><path transform="translate(618.1818181818181,175)" d="M-2.7386127875258306,-2.7386127875258306h5.477225575051661v5.477225575051661h-5.477225575051661Z" style="fill: rgb(143, 193, 222); stroke-width: 2; opacity: 0.7;"></path><path transform="translate(642.4242424242424,175)" d="M-2.7386127875258306,-2.7386127875258306h5.477225575051661v5.477225575051661h-5.477225575051661Z" style="fill: rgb(143, 193, 222); stroke-width: 2; opacity: 0.7;"></path><path transform="translate(666.6666666666666,175)" d="M-2.7386127875258306,-2.7386127875258306h5.477225575051661v5.477225575051661h-5.477225575051661Z" style="fill: rgb(49, 129, 189); stroke-width: 2; opacity: 0.7;"></path><path transform="translate(690.9090909090909,75)" d="M-2.7386127875258306,-2.7386127875258306h5.477225575051661v5.477225575051661h-5.477225575051661Z" style="fill: rgb(91, 163, 207); stroke-width: 2; opacity: 0.7;"></path><path transform="translate(690.9090909090909,25)" d="M-2.7386127875258306,-2.7386127875258306h5.477225575051661v5.477225575051661h-5.477225575051661Z" style="fill: rgb(91, 163, 207); stroke-width: 2; opacity: 0.7;"></path><path transform="translate(690.9090909090909,175)" d="M-2.7386127875258306,-2.7386127875258306h5.477225575051661v5.477225575051661h-5.477225575051661Z" style="fill: rgb(91, 163, 207); stroke-width: 2; opacity: 0.7;"></path><path transform="translate(715.1515151515151,75)" d="M-2.7386127875258306,-2.7386127875258306h5.477225575051661v5.477225575051661h-5.477225575051661Z" style="fill: rgb(18, 92, 164); stroke-width: 2; opacity: 0.7;"></path><path transform="translate(715.1515151515151,75)" d="M-2.7386127875258306,-2.7386127875258306h5.477225575051661v5.477225575051661h-5.477225575051661Z" style="fill: rgb(18, 92, 164); stroke-width: 2; opacity: 0.7;"></path><path transform="translate(739.3939393939394,25)" d="M-2.7386127875258306,-2.7386127875258306h5.477225575051661v5.477225575051661h-5.477225575051661Z" style="fill: rgb(18, 92, 164); stroke-width: 2; opacity: 0.7;"></path><path transform="translate(739.3939393939394,175)" d="M-2.7386127875258306,-2.7386127875258306h5.477225575051661v5.477225575051661h-5.477225575051661Z" style="fill: rgb(18, 92, 164); stroke-width: 2; opacity: 0.7;"></path><path transform="translate(739.3939393939394,75)" d="M-2.7386127875258306,-2.7386127875258306h5.477225575051661v5.477225575051661h-5.477225575051661Z" style="fill: rgb(18, 92, 164); stroke-width: 2; opacity: 0.7;"></path><path transform="translate(763.6363636363636,125)" d="M-2.7386127875258306,-2.7386127875258306h5.477225575051661v5.477225575051661h-5.477225575051661Z" style="fill: rgb(69, 146, 198); stroke-width: 2; opacity: 0.7;"></path></g><g class="mark-group role-legend"><g transform="translate(818,0)"><path class="background" d="M0,0h39v131h-39Z" style="pointer-events: none; fill: none;"></path><g><g class="mark-group role-legend-entry"><g transform="translate(0,16)"><path class="background" d="M0,0h0v0h0Z" style="pointer-events: none; fill: none;"></path><g><g class="mark-group role-scope"><g transform="translate(0,0)"><path class="background" d="M0,0h38.24609375v11h-38.24609375Z" style="pointer-events: none; fill: none; opacity: 1;"></path><g><g class="mark-symbol role-legend-symbol" style="pointer-events: none;"><path transform="translate(6,6)" d="M-5,-5h10v10h-10Z" style="fill: rgb(190, 216, 236); stroke-width: 1.5; opacity: 0.7;"></path></g><g class="mark-text role-legend-label" style="pointer-events: none;"><text text-anchor="start" transform="translate(16,9)" style="font-family: sans-serif; font-size: 10px; fill: #000; opacity: 1;">1910</text></g></g><path class="foreground" d="" style="pointer-events: none; display: none; fill: none;"></path></g><g transform="translate(0,13)"><path class="background" d="M0,0h38.24609375v11h-38.24609375Z" style="pointer-events: none; fill: none; opacity: 1;"></path><g><g class="mark-symbol role-legend-symbol" style="pointer-events: none;"><path transform="translate(6,6)" d="M-5,-5h10v10h-10Z" style="fill: rgb(168, 206, 229); stroke-width: 1.5; opacity: 0.7;"></path></g><g class="mark-text role-legend-label" style="pointer-events: none;"><text text-anchor="start" transform="translate(16,9)" style="font-family: sans-serif; font-size: 10px; fill: #000; opacity: 1;">1959</text></g></g><path class="foreground" d="" style="pointer-events: none; display: none; fill: none;"></path></g><g transform="translate(0,26)"><path class="background" d="M0,0h38.24609375v11h-38.24609375Z" style="pointer-events: none; fill: none; opacity: 1;"></path><g><g class="mark-symbol role-legend-symbol" style="pointer-events: none;"><path transform="translate(6,6)" d="M-5,-5h10v10h-10Z" style="fill: rgb(143, 193, 222); stroke-width: 1.5; opacity: 0.7;"></path></g><g class="mark-text role-legend-label" style="pointer-events: none;"><text text-anchor="start" transform="translate(16,9)" style="font-family: sans-serif; font-size: 10px; fill: #000; opacity: 1;">1975</text></g></g><path class="foreground" d="" style="pointer-events: none; display: none; fill: none;"></path></g><g transform="translate(0,39)"><path class="background" d="M0,0h38.24609375v11h-38.24609375Z" style="pointer-events: none; fill: none; opacity: 1;"></path><g><g class="mark-symbol role-legend-symbol" style="pointer-events: none;"><path transform="translate(6,6)" d="M-5,-5h10v10h-10Z" style="fill: rgb(116, 178, 215); stroke-width: 1.5; opacity: 0.7;"></path></g><g class="mark-text role-legend-label" style="pointer-events: none;"><text text-anchor="start" transform="translate(16,9)" style="font-family: sans-serif; font-size: 10px; fill: #000; opacity: 1;">1991</text></g></g><path class="foreground" d="" style="pointer-events: none; display: none; fill: none;"></path></g><g transform="translate(0,52)"><path class="background" d="M0,0h38.24609375v11h-38.24609375Z" style="pointer-events: none; fill: none; opacity: 1;"></path><g><g class="mark-symbol role-legend-symbol" style="pointer-events: none;"><path transform="translate(6,6)" d="M-5,-5h10v10h-10Z" style="fill: rgb(91, 163, 207); stroke-width: 1.5; opacity: 0.7;"></path></g><g class="mark-text role-legend-label" style="pointer-events: none;"><text text-anchor="start" transform="translate(16,9)" style="font-family: sans-serif; font-size: 10px; fill: #000; opacity: 1;">1992</text></g></g><path class="foreground" d="" style="pointer-events: none; display: none; fill: none;"></path></g><g transform="translate(0,65)"><path class="background" d="M0,0h38.24609375v11h-38.24609375Z" style="pointer-events: none; fill: none; opacity: 1;"></path><g><g class="mark-symbol role-legend-symbol" style="pointer-events: none;"><path transform="translate(6,6)" d="M-5,-5h10v10h-10Z" style="fill: rgb(69, 146, 198); stroke-width: 1.5; opacity: 0.7;"></path></g><g class="mark-text role-legend-label" style="pointer-events: none;"><text text-anchor="start" transform="translate(16,9)" style="font-family: sans-serif; font-size: 10px; fill: #000; opacity: 1;">1994</text></g></g><path class="foreground" d="" style="pointer-events: none; display: none; fill: none;"></path></g><g transform="translate(0,78)"><path class="background" d="M0,0h38.24609375v11h-38.24609375Z" style="pointer-events: none; fill: none; opacity: 1;"></path><g><g class="mark-symbol role-legend-symbol" style="pointer-events: none;"><path transform="translate(6,6)" d="M-5,-5h10v10h-10Z" style="fill: rgb(49, 129, 189); stroke-width: 1.5; opacity: 0.7;"></path></g><g class="mark-text role-legend-label" style="pointer-events: none;"><text text-anchor="start" transform="translate(16,9)" style="font-family: sans-serif; font-size: 10px; fill: #000; opacity: 1;">1995</text></g></g><path class="foreground" d="" style="pointer-events: none; display: none; fill: none;"></path></g><g transform="translate(0,91)"><path class="background" d="M0,0h38.24609375v11h-38.24609375Z" style="pointer-events: none; fill: none; opacity: 1;"></path><g><g class="mark-symbol role-legend-symbol" style="pointer-events: none;"><path transform="translate(6,6)" d="M-5,-5h10v10h-10Z" style="fill: rgb(32, 111, 178); stroke-width: 1.5; opacity: 0.7;"></path></g><g class="mark-text role-legend-label" style="pointer-events: none;"><text text-anchor="start" transform="translate(16,9)" style="font-family: sans-serif; font-size: 10px; fill: #000; opacity: 1;">1996</text></g></g><path class="foreground" d="" style="pointer-events: none; display: none; fill: none;"></path></g><g transform="translate(0,104)"><path class="background" d="M0,0h38.24609375v11h-38.24609375Z" style="pointer-events: none; fill: none; opacity: 1;"></path><g><g class="mark-symbol role-legend-symbol" style="pointer-events: none;"><path transform="translate(6,6)" d="M-5,-5h10v10h-10Z" style="fill: rgb(18, 92, 164); stroke-width: 1.5; opacity: 0.7;"></path></g><g class="mark-text role-legend-label" style="pointer-events: none;"><text text-anchor="start" transform="translate(16,9)" style="font-family: sans-serif; font-size: 10px; fill: #000; opacity: 1;">1997</text></g></g><path class="foreground" d="" style="pointer-events: none; display: none; fill: none;"></path></g></g></g><path class="foreground" d="" style="pointer-events: none; display: none; fill: none;"></path></g></g><g class="mark-text role-legend-title" style="pointer-events: none;"><text text-anchor="start" transform="translate(0,9)" style="font-family: sans-serif; font-size: 11px; font-weight: bold; fill: #000; opacity: 1;">Year</text></g></g><path class="foreground" d="" style="pointer-events: none; display: none; fill: none;"></path></g></g><g class="mark-group role-title"><g transform="translate(400,-17)"><path class="background" d="M0,0h0v0h0Z" style="pointer-events: none; fill: none;"></path><g><g class="mark-text role-title-text" style="pointer-events: none;"><text text-anchor="middle" transform="translate(0,10)" style="font-family: sans-serif; font-size: 13px; font-weight: bold; fill: #000; opacity: 1;">Order: Siphonostomatoida</text></g></g><path class="foreground" d="" style="pointer-events: none; display: none; fill: none;"></path></g></g><g class="mark-group role-axis"><g transform="translate(0.5,200.5)"><path class="background" d="M0,0h0v0h0Z" style="pointer-events: none; fill: none;"></path><g><g class="mark-rule role-axis-tick" style="pointer-events: none;"><line transform="translate(12,0)" x2="0" y2="5" style="fill: none; stroke: #888; stroke-width: 1; opacity: 1;"></line><line transform="translate(36,0)" x2="0" y2="5" style="fill: none; stroke: #888; stroke-width: 1; opacity: 1;"></line><line transform="translate(61,0)" x2="0" y2="5" style="fill: none; stroke: #888; stroke-width: 1; opacity: 1;"></line><line transform="translate(85,0)" x2="0" y2="5" style="fill: none; stroke: #888; stroke-width: 1; opacity: 1;"></line><line transform="translate(109,0)" x2="0" y2="5" style="fill: none; stroke: #888; stroke-width: 1; opacity: 1;"></line><line transform="translate(133,0)" x2="0" y2="5" style="fill: none; stroke: #888; stroke-width: 1; opacity: 1;"></line><line transform="translate(158,0)" x2="0" y2="5" style="fill: none; stroke: #888; stroke-width: 1; opacity: 1;"></line><line transform="translate(182,0)" x2="0" y2="5" style="fill: none; stroke: #888; stroke-width: 1; opacity: 1;"></line><line transform="translate(206,0)" x2="0" y2="5" style="fill: none; stroke: #888; stroke-width: 1; opacity: 1;"></line><line transform="translate(230,0)" x2="0" y2="5" style="fill: none; stroke: #888; stroke-width: 1; opacity: 1;"></line><line transform="translate(255,0)" x2="0" y2="5" style="fill: none; stroke: #888; stroke-width: 1; opacity: 1;"></line><line transform="translate(279,0)" x2="0" y2="5" style="fill: none; stroke: #888; stroke-width: 1; opacity: 1;"></line><line transform="translate(303,0)" x2="0" y2="5" style="fill: none; stroke: #888; stroke-width: 1; opacity: 1;"></line><line transform="translate(327,0)" x2="0" y2="5" style="fill: none; stroke: #888; stroke-width: 1; opacity: 1;"></line><line transform="translate(352,0)" x2="0" y2="5" style="fill: none; stroke: #888; stroke-width: 1; opacity: 1;"></line><line transform="translate(376,0)" x2="0" y2="5" style="fill: none; stroke: #888; stroke-width: 1; opacity: 1;"></line><line transform="translate(400,0)" x2="0" y2="5" style="fill: none; stroke: #888; stroke-width: 1; opacity: 1;"></line><line transform="translate(424,0)" x2="0" y2="5" style="fill: none; stroke: #888; stroke-width: 1; opacity: 1;"></line><line transform="translate(448,0)" x2="0" y2="5" style="fill: none; stroke: #888; stroke-width: 1; opacity: 1;"></line><line transform="translate(473,0)" x2="0" y2="5" style="fill: none; stroke: #888; stroke-width: 1; opacity: 1;"></line><line transform="translate(497,0)" x2="0" y2="5" style="fill: none; stroke: #888; stroke-width: 1; opacity: 1;"></line><line transform="translate(521,0)" x2="0" y2="5" style="fill: none; stroke: #888; stroke-width: 1; opacity: 1;"></line><line transform="translate(545,0)" x2="0" y2="5" style="fill: none; stroke: #888; stroke-width: 1; opacity: 1;"></line><line transform="translate(570,0)" x2="0" y2="5" style="fill: none; stroke: #888; stroke-width: 1; opacity: 1;"></line><line transform="translate(594,0)" x2="0" y2="5" style="fill: none; stroke: #888; stroke-width: 1; opacity: 1;"></line><line transform="translate(618,0)" x2="0" y2="5" style="fill: none; stroke: #888; stroke-width: 1; opacity: 1;"></line><line transform="translate(642,0)" x2="0" y2="5" style="fill: none; stroke: #888; stroke-width: 1; opacity: 1;"></line><line transform="translate(667,0)" x2="0" y2="5" style="fill: none; stroke: #888; stroke-width: 1; opacity: 1;"></line><line transform="translate(691,0)" x2="0" y2="5" style="fill: none; stroke: #888; stroke-width: 1; opacity: 1;"></line><line transform="translate(715,0)" x2="0" y2="5" style="fill: none; stroke: #888; stroke-width: 1; opacity: 1;"></line><line transform="translate(739,0)" x2="0" y2="5" style="fill: none; stroke: #888; stroke-width: 1; opacity: 1;"></line><line transform="translate(764,0)" x2="0" y2="5" style="fill: none; stroke: #888; stroke-width: 1; opacity: 1;"></line><line transform="translate(788,0)" x2="0" y2="5" style="fill: none; stroke: #888; stroke-width: 1; opacity: 1;"></line></g><g class="mark-text role-axis-label" style="pointer-events: none;"><text text-anchor="end" transform="translate(12.121212121212125,7) rotate(270) translate(0,3)" style="font-family: sans-serif; font-size: 10px; fill: #000; opacity: 1;">Caligus sepetibensis</text><text text-anchor="end" transform="translate(36.36363636363637,7) rotate(270) translate(0,3)" style="font-family: sans-serif; font-size: 10px; fill: #000; opacity: 1;">Caligus littoralis</text><text text-anchor="end" transform="translate(60.60606060606061,7) rotate(270) translate(0,3)" style="font-family: sans-serif; font-size: 10px; fill: #000; opacity: 1;">Lepeophtheirus rhinobati</text><text text-anchor="end" transform="translate(84.84848484848484,7) rotate(270) translate(0,3)" style="font-family: sans-serif; font-size: 10px; fill: #000; opacity: 1;">Asterocheres abrolhensis</text><text text-anchor="end" transform="translate(109.0909090909091,7) rotate(270) translate(0,3)" style="font-family: sans-serif; font-size: 10px; fill: #000; opacity: 1;">Monocheres cagarrensis</text><text text-anchor="end" transform="translate(133.33333333333334,7) rotate(270) translate(0,3)" style="font-family: sans-serif; font-size: 10px; fill: #000; opacity: 1;">Asterocheres paraboecki</text><text text-anchor="end" transform="translate(157.57575757575756,7) rotate(270) translate(0,3)" style="font-family: sans-serif; font-size: 10px; fill: #000; opacity: 1;">Orecturus bahiensis</text><text text-anchor="end" transform="translate(181.8181818181818,7) rotate(270) translate(0,3)" style="font-family: sans-serif; font-size: 10px; fill: #000; opacity: 1;">Cletopontius titanus</text><text text-anchor="end" transform="translate(206.06060606060606,7) rotate(270) translate(0,3)" style="font-family: sans-serif; font-size: 10px; fill: #000; opacity: 1;">Asterocheres lunatus</text><text text-anchor="end" transform="translate(230.3030303030303,7) rotate(270) translate(0,3)" style="font-family: sans-serif; font-size: 10px; fill: #000; opacity: 1;">Asterocheres spinopaulus</text><text text-anchor="end" transform="translate(254.54545454545456,7) rotate(270) translate(0,3)" style="font-family: sans-serif; font-size: 10px; fill: #000; opacity: 1;">Asterocheres crenulatus</text><text text-anchor="end" transform="translate(278.7878787878788,7) rotate(270) translate(0,3)" style="font-family: sans-serif; font-size: 10px; fill: #000; opacity: 1;">Spongiopsyllus adventicius</text><text text-anchor="end" transform="translate(303.030303030303,7) rotate(270) translate(0,3)" style="font-family: sans-serif; font-size: 10px; fill: #000; opacity: 1;">Asterocheres tetrasetosus</text><text text-anchor="end" transform="translate(327.27272727272725,7) rotate(270) translate(0,3)" style="font-family: sans-serif; font-size: 10px; fill: #000; opacity: 1;">Kolocheres angustus</text><text text-anchor="end" transform="translate(351.5151515151515,7) rotate(270) translate(0,3)" style="font-family: sans-serif; font-size: 10px; fill: #000; opacity: 1;">Scottocheres youngi</text><text text-anchor="end" transform="translate(375.75757575757575,7) rotate(270) translate(0,3)" style="font-family: sans-serif; font-size: 10px; fill: #000; opacity: 1;">Acontiophorus monanchorae</text><text text-anchor="end" transform="translate(400,7) rotate(270) translate(0,3)" style="font-family: sans-serif; font-size: 10px; fill: #000; opacity: 1;">Asterocheres aplysinus</text><text text-anchor="end" transform="translate(424.24242424242425,7) rotate(270) translate(0,3)" style="font-family: sans-serif; font-size: 10px; fill: #000; opacity: 1;">Asterocheres spongus</text><text text-anchor="end" transform="translate(448.4848484848485,7) rotate(270) translate(0,3)" style="font-family: sans-serif; font-size: 10px; fill: #000; opacity: 1;">Asterocheres picinguabensis</text><text text-anchor="end" transform="translate(472.72727272727275,7) rotate(270) translate(0,3)" style="font-family: sans-serif; font-size: 10px; fill: #000; opacity: 1;">Asterocheres unicus</text><text text-anchor="end" transform="translate(496.969696969697,7) rotate(270) translate(0,3)" style="font-family: sans-serif; font-size: 10px; fill: #000; opacity: 1;">Asterocheres neptunei</text><text text-anchor="end" transform="translate(521.2121212121212,7) rotate(270) translate(0,3)" style="font-family: sans-serif; font-size: 10px; fill: #000; opacity: 1;">Asteropontius elizabethae</text><text text-anchor="end" transform="translate(545.4545454545455,7) rotate(270) translate(0,3)" style="font-family: sans-serif; font-size: 10px; fill: #000; opacity: 1;">Chelacheres longipalpus</text><text text-anchor="end" transform="translate(569.6969696969697,7) rotate(270) translate(0,3)" style="font-family: sans-serif; font-size: 10px; fill: #000; opacity: 1;">Parasterocheres cristatus</text><text text-anchor="end" transform="translate(593.9393939393939,7) rotate(270) translate(0,3)" style="font-family: sans-serif; font-size: 10px; fill: #000; opacity: 1;">Gomumucheres angularis</text><text text-anchor="end" transform="translate(618.1818181818181,7) rotate(270) translate(0,3)" style="font-family: sans-serif; font-size: 10px; fill: #000; opacity: 1;">Asteropontius latus</text><text text-anchor="end" transform="translate(642.4242424242424,7) rotate(270) translate(0,3)" style="font-family: sans-serif; font-size: 10px; fill: #000; opacity: 1;">Glyptocheres extrusus</text><text text-anchor="end" transform="translate(666.6666666666666,7) rotate(270) translate(0,3)" style="font-family: sans-serif; font-size: 10px; fill: #000; opacity: 1;">Ascidiopontius concavus</text><text text-anchor="end" transform="translate(690.9090909090909,7) rotate(270) translate(0,3)" style="font-family: sans-serif; font-size: 10px; fill: #000; opacity: 1;">Caligus itacurussensis</text><text text-anchor="end" transform="translate(715.1515151515151,7) rotate(270) translate(0,3)" style="font-family: sans-serif; font-size: 10px; fill: #000; opacity: 1;">Cryptopontius madeirensis</text><text text-anchor="end" transform="translate(739.3939393939394,7) rotate(270) translate(0,3)" style="font-family: sans-serif; font-size: 10px; fill: #000; opacity: 1;">Dyspontius gerardius</text><text text-anchor="end" transform="translate(763.6363636363636,7) rotate(270) translate(0,3)" style="font-family: sans-serif; font-size: 10px; fill: #000; opacity: 1;">Asterocheres sp</text><text text-anchor="end" transform="translate(787.8787878787879,7) rotate(270) translate(0,3)" style="font-family: sans-serif; font-size: 10px; fill: #000; opacity: 1;">Asteropontoides elephantinus</text></g><g class="mark-rule role-axis-domain" style="pointer-events: none;"><line transform="translate(0,0)" x2="800" y2="0" style="fill: none; stroke: #888; stroke-width: 1; opacity: 1;"></line></g><g class="mark-text role-axis-title" style="pointer-events: none;"><text text-anchor="middle" transform="translate(400,151.7626953125)" style="font-family: sans-serif; font-size: 11px; font-weight: bold; fill: #000; opacity: 1;">Species</text></g></g><path class="foreground" d="" style="pointer-events: none; display: none; fill: none;"></path></g></g><g class="mark-group role-axis"><g transform="translate(0.5,0.5)"><path class="background" d="M0,0h0v0h0Z" style="pointer-events: none; fill: none;"></path><g><g class="mark-rule role-axis-tick" style="pointer-events: none;"><line transform="translate(0,25)" x2="-5" y2="0" style="fill: none; stroke: #888; stroke-width: 1; opacity: 1;"></line><line transform="translate(0,75)" x2="-5" y2="0" style="fill: none; stroke: #888; stroke-width: 1; opacity: 1;"></line><line transform="translate(0,125)" x2="-5" y2="0" style="fill: none; stroke: #888; stroke-width: 1; opacity: 1;"></line><line transform="translate(0,175)" x2="-5" y2="0" style="fill: none; stroke: #888; stroke-width: 1; opacity: 1;"></line></g><g class="mark-text role-axis-label" style="pointer-events: none;"><text text-anchor="end" transform="translate(-7,28)" style="font-family: sans-serif; font-size: 10px; fill: #000; opacity: 1;">Alotipo</text><text text-anchor="end" transform="translate(-7,78)" style="font-family: sans-serif; font-size: 10px; fill: #000; opacity: 1;">Holotipo</text><text text-anchor="end" transform="translate(-7,128)" style="font-family: sans-serif; font-size: 10px; fill: #000; opacity: 1;">Lectotipo</text><text text-anchor="end" transform="translate(-7,178)" style="font-family: sans-serif; font-size: 10px; fill: #000; opacity: 1;">Paratipo</text></g><g class="mark-rule role-axis-domain" style="pointer-events: none;"><line transform="translate(0,0)" x2="0" y2="200" style="fill: none; stroke: #888; stroke-width: 1; opacity: 1;"></line></g><g class="mark-text role-axis-title" style="pointer-events: none;"><text text-anchor="middle" transform="translate(-51.5859375,100) rotate(-90) translate(0,-2)" style="font-family: sans-serif; font-size: 11px; font-weight: bold; fill: #000; opacity: 1;">Type</text></g></g><path class="foreground" d="" style="pointer-events: none; display: none; fill: none;"></path></g></g></g><path class="foreground" d="" style="display: none; fill: none;"></path></g></g></g></svg>