<?xml version="1.0" encoding="utf-8" standalone="no"?>
<!DOCTYPE svg PUBLIC "-//W3C//DTD SVG 1.1//EN"
  "http://www.w3.org/Graphics/SVG/1.1/DTD/svg11.dtd">
<!-- Created with matplotlib (https://matplotlib.org/) -->
<svg height="432pt" version="1.1" viewBox="0 0 720 432" width="720pt" xmlns="http://www.w3.org/2000/svg" xmlns:xlink="http://www.w3.org/1999/xlink">
 <defs>
  <style type="text/css">
*{stroke-linecap:butt;stroke-linejoin:round;}
  </style>
 </defs>
 <g id="figure_1">
  <g id="patch_1">
   <path d="M 0 432 
L 720 432 
L 720 0 
L 0 0 
z
" style="fill:#ffffff;"/>
  </g>
  <g id="axes_1">
   <g id="patch_2">
    <path clip-path="url(#p0bf7b191d1)" d="M 10.8 421.2 
L 43.912103 421.2 
L 43.912103 388.087897 
L 10.8 388.087897 
z
" style="fill:#826745;stroke:#826745;stroke-linejoin:miter;"/>
   </g>
   <g id="patch_3">
    <path clip-path="url(#p0bf7b191d1)" d="M 50.534523 421.2 
L 83.646626 421.2 
L 83.646626 388.087897 
L 50.534523 388.087897 
z
" style="fill:#826745;stroke:#826745;stroke-linejoin:miter;"/>
   </g>
   <g id="patch_4">
    <path clip-path="url(#p0bf7b191d1)" d="M 90.269047 421.2 
L 123.381149 421.2 
L 123.381149 388.087897 
L 90.269047 388.087897 
z
" style="fill:#826745;stroke:#826745;stroke-linejoin:miter;"/>
   </g>
   <g id="patch_5">
    <path clip-path="url(#p0bf7b191d1)" d="M 130.00357 421.2 
L 163.115673 421.2 
L 163.115673 388.087897 
L 130.00357 388.087897 
z
" style="fill:#826745;stroke:#826745;stroke-linejoin:miter;"/>
   </g>
   <g id="patch_6">
    <path clip-path="url(#p0bf7b191d1)" d="M 169.738093 421.2 
L 202.850196 421.2 
L 202.850196 388.087897 
L 169.738093 388.087897 
z
" style="fill:#826745;stroke:#826745;stroke-linejoin:miter;"/>
   </g>
   <g id="patch_7">
    <path clip-path="url(#p0bf7b191d1)" d="M 209.472617 421.2 
L 242.584719 421.2 
L 242.584719 388.087897 
L 209.472617 388.087897 
z
" style="fill:#826745;stroke:#826745;stroke-linejoin:miter;"/>
   </g>
   <g id="patch_8">
    <path clip-path="url(#p0bf7b191d1)" d="M 249.20714 421.2 
L 282.319243 421.2 
L 282.319243 388.087897 
L 249.20714 388.087897 
z
" style="fill:#826745;stroke:#826745;stroke-linejoin:miter;"/>
   </g>
   <g id="patch_9">
    <path clip-path="url(#p0bf7b191d1)" d="M 288.941663 421.2 
L 322.053766 421.2 
L 322.053766 388.087897 
L 288.941663 388.087897 
z
" style="fill:#826745;stroke:#826745;stroke-linejoin:miter;"/>
   </g>
   <g id="patch_10">
    <path clip-path="url(#p0bf7b191d1)" d="M 328.676186 421.2 
L 361.788289 421.2 
L 361.788289 388.087897 
L 328.676186 388.087897 
z
" style="fill:#826745;stroke:#826745;stroke-linejoin:miter;"/>
   </g>
   <g id="patch_11">
    <path clip-path="url(#p0bf7b191d1)" d="M 368.41071 421.2 
L 401.522812 421.2 
L 401.522812 388.087897 
L 368.41071 388.087897 
z
" style="fill:#826745;stroke:#826745;stroke-linejoin:miter;"/>
   </g>
   <g id="patch_12">
    <path clip-path="url(#p0bf7b191d1)" d="M 10.8 381.465477 
L 43.912103 381.465477 
L 43.912103 348.353374 
L 10.8 348.353374 
z
" style="fill:#826745;stroke:#826745;stroke-linejoin:miter;"/>
   </g>
   <g id="patch_13">
    <path clip-path="url(#p0bf7b191d1)" d="M 50.534523 381.465477 
L 83.646626 381.465477 
L 83.646626 348.353374 
L 50.534523 348.353374 
z
" style="fill:#826745;stroke:#826745;stroke-linejoin:miter;"/>
   </g>
   <g id="patch_14">
    <path clip-path="url(#p0bf7b191d1)" d="M 90.269047 381.465477 
L 123.381149 381.465477 
L 123.381149 348.353374 
L 90.269047 348.353374 
z
" style="fill:#826745;stroke:#826745;stroke-linejoin:miter;"/>
   </g>
   <g id="patch_15">
    <path clip-path="url(#p0bf7b191d1)" d="M 130.00357 381.465477 
L 163.115673 381.465477 
L 163.115673 348.353374 
L 130.00357 348.353374 
z
" style="fill:#826745;stroke:#826745;stroke-linejoin:miter;"/>
   </g>
   <g id="patch_16">
    <path clip-path="url(#p0bf7b191d1)" d="M 169.738093 381.465477 
L 202.850196 381.465477 
L 202.850196 348.353374 
L 169.738093 348.353374 
z
" style="fill:#826745;stroke:#826745;stroke-linejoin:miter;"/>
   </g>
   <g id="patch_17">
    <path clip-path="url(#p0bf7b191d1)" d="M 209.472617 381.465477 
L 242.584719 381.465477 
L 242.584719 348.353374 
L 209.472617 348.353374 
z
" style="fill:#826745;stroke:#826745;stroke-linejoin:miter;"/>
   </g>
   <g id="patch_18">
    <path clip-path="url(#p0bf7b191d1)" d="M 249.20714 381.465477 
L 282.319243 381.465477 
L 282.319243 348.353374 
L 249.20714 348.353374 
z
" style="fill:#826745;stroke:#826745;stroke-linejoin:miter;"/>
   </g>
   <g id="patch_19">
    <path clip-path="url(#p0bf7b191d1)" d="M 288.941663 381.465477 
L 322.053766 381.465477 
L 322.053766 348.353374 
L 288.941663 348.353374 
z
" style="fill:#826745;stroke:#826745;stroke-linejoin:miter;"/>
   </g>
   <g id="patch_20">
    <path clip-path="url(#p0bf7b191d1)" d="M 328.676186 381.465477 
L 361.788289 381.465477 
L 361.788289 348.353374 
L 328.676186 348.353374 
z
" style="fill:#826745;stroke:#826745;stroke-linejoin:miter;"/>
   </g>
   <g id="patch_21">
    <path clip-path="url(#p0bf7b191d1)" d="M 368.41071 381.465477 
L 401.522812 381.465477 
L 401.522812 348.353374 
L 368.41071 348.353374 
z
" style="fill:#826745;stroke:#826745;stroke-linejoin:miter;"/>
   </g>
   <g id="patch_22">
    <path clip-path="url(#p0bf7b191d1)" d="M 10.8 341.730953 
L 43.912103 341.730953 
L 43.912103 308.618851 
L 10.8 308.618851 
z
" style="fill:#826745;stroke:#826745;stroke-linejoin:miter;"/>
   </g>
   <g id="patch_23">
    <path clip-path="url(#p0bf7b191d1)" d="M 50.534523 341.730953 
L 83.646626 341.730953 
L 83.646626 308.618851 
L 50.534523 308.618851 
z
" style="fill:#826745;stroke:#826745;stroke-linejoin:miter;"/>
   </g>
   <g id="patch_24">
    <path clip-path="url(#p0bf7b191d1)" d="M 90.269047 341.730953 
L 123.381149 341.730953 
L 123.381149 308.618851 
L 90.269047 308.618851 
z
" style="fill:#826745;stroke:#826745;stroke-linejoin:miter;"/>
   </g>
   <g id="patch_25">
    <path clip-path="url(#p0bf7b191d1)" d="M 130.00357 341.730953 
L 163.115673 341.730953 
L 163.115673 308.618851 
L 130.00357 308.618851 
z
" style="fill:#826745;stroke:#826745;stroke-linejoin:miter;"/>
   </g>
   <g id="patch_26">
    <path clip-path="url(#p0bf7b191d1)" d="M 169.738093 341.730953 
L 202.850196 341.730953 
L 202.850196 308.618851 
L 169.738093 308.618851 
z
" style="fill:#826745;stroke:#826745;stroke-linejoin:miter;"/>
   </g>
   <g id="patch_27">
    <path clip-path="url(#p0bf7b191d1)" d="M 209.472617 341.730953 
L 242.584719 341.730953 
L 242.584719 308.618851 
L 209.472617 308.618851 
z
" style="fill:#826745;stroke:#826745;stroke-linejoin:miter;"/>
   </g>
   <g id="patch_28">
    <path clip-path="url(#p0bf7b191d1)" d="M 249.20714 341.730953 
L 282.319243 341.730953 
L 282.319243 308.618851 
L 249.20714 308.618851 
z
" style="fill:#826745;stroke:#826745;stroke-linejoin:miter;"/>
   </g>
   <g id="patch_29">
    <path clip-path="url(#p0bf7b191d1)" d="M 288.941663 341.730953 
L 322.053766 341.730953 
L 322.053766 308.618851 
L 288.941663 308.618851 
z
" style="fill:#826745;stroke:#826745;stroke-linejoin:miter;"/>
   </g>
   <g id="patch_30">
    <path clip-path="url(#p0bf7b191d1)" d="M 328.676186 341.730953 
L 361.788289 341.730953 
L 361.788289 308.618851 
L 328.676186 308.618851 
z
" style="fill:#826745;stroke:#826745;stroke-linejoin:miter;"/>
   </g>
   <g id="patch_31">
    <path clip-path="url(#p0bf7b191d1)" d="M 368.41071 341.730953 
L 401.522812 341.730953 
L 401.522812 308.618851 
L 368.41071 308.618851 
z
" style="fill:#826745;stroke:#826745;stroke-linejoin:miter;"/>
   </g>
   <g id="patch_32">
    <path clip-path="url(#p0bf7b191d1)" d="M 10.8 301.99643 
L 43.912103 301.99643 
L 43.912103 268.884327 
L 10.8 268.884327 
z
" style="fill:#826745;stroke:#826745;stroke-linejoin:miter;"/>
   </g>
   <g id="patch_33">
    <path clip-path="url(#p0bf7b191d1)" d="M 50.534523 301.99643 
L 83.646626 301.99643 
L 83.646626 268.884327 
L 50.534523 268.884327 
z
" style="fill:#826745;stroke:#826745;stroke-linejoin:miter;"/>
   </g>
   <g id="patch_34">
    <path clip-path="url(#p0bf7b191d1)" d="M 90.269047 301.99643 
L 123.381149 301.99643 
L 123.381149 268.884327 
L 90.269047 268.884327 
z
" style="fill:#826745;stroke:#826745;stroke-linejoin:miter;"/>
   </g>
   <g id="patch_35">
    <path clip-path="url(#p0bf7b191d1)" d="M 130.00357 301.99643 
L 163.115673 301.99643 
L 163.115673 268.884327 
L 130.00357 268.884327 
z
" style="fill:#826745;stroke:#826745;stroke-linejoin:miter;"/>
   </g>
   <g id="patch_36">
    <path clip-path="url(#p0bf7b191d1)" d="M 169.738093 301.99643 
L 202.850196 301.99643 
L 202.850196 268.884327 
L 169.738093 268.884327 
z
" style="fill:#826745;stroke:#826745;stroke-linejoin:miter;"/>
   </g>
   <g id="patch_37">
    <path clip-path="url(#p0bf7b191d1)" d="M 209.472617 301.99643 
L 242.584719 301.99643 
L 242.584719 268.884327 
L 209.472617 268.884327 
z
" style="fill:#826745;stroke:#826745;stroke-linejoin:miter;"/>
   </g>
   <g id="patch_38">
    <path clip-path="url(#p0bf7b191d1)" d="M 249.20714 301.99643 
L 282.319243 301.99643 
L 282.319243 268.884327 
L 249.20714 268.884327 
z
" style="fill:#826745;stroke:#826745;stroke-linejoin:miter;"/>
   </g>
   <g id="patch_39">
    <path clip-path="url(#p0bf7b191d1)" d="M 288.941663 301.99643 
L 322.053766 301.99643 
L 322.053766 268.884327 
L 288.941663 268.884327 
z
" style="fill:#826745;stroke:#826745;stroke-linejoin:miter;"/>
   </g>
   <g id="patch_40">
    <path clip-path="url(#p0bf7b191d1)" d="M 328.676186 301.99643 
L 361.788289 301.99643 
L 361.788289 268.884327 
L 328.676186 268.884327 
z
" style="fill:#826745;stroke:#826745;stroke-linejoin:miter;"/>
   </g>
   <g id="patch_41">
    <path clip-path="url(#p0bf7b191d1)" d="M 368.41071 301.99643 
L 401.522812 301.99643 
L 401.522812 268.884327 
L 368.41071 268.884327 
z
" style="fill:#826745;stroke:#826745;stroke-linejoin:miter;"/>
   </g>
   <g id="patch_42">
    <path clip-path="url(#p0bf7b191d1)" d="M 10.8 262.261907 
L 43.912103 262.261907 
L 43.912103 229.149804 
L 10.8 229.149804 
z
" style="fill:#826745;stroke:#826745;stroke-linejoin:miter;"/>
   </g>
   <g id="patch_43">
    <path clip-path="url(#p0bf7b191d1)" d="M 50.534523 262.261907 
L 83.646626 262.261907 
L 83.646626 229.149804 
L 50.534523 229.149804 
z
" style="fill:#826745;stroke:#826745;stroke-linejoin:miter;"/>
   </g>
   <g id="patch_44">
    <path clip-path="url(#p0bf7b191d1)" d="M 90.269047 262.261907 
L 123.381149 262.261907 
L 123.381149 229.149804 
L 90.269047 229.149804 
z
" style="fill:#826745;stroke:#826745;stroke-linejoin:miter;"/>
   </g>
   <g id="patch_45">
    <path clip-path="url(#p0bf7b191d1)" d="M 130.00357 262.261907 
L 163.115673 262.261907 
L 163.115673 229.149804 
L 130.00357 229.149804 
z
" style="fill:#826745;stroke:#826745;stroke-linejoin:miter;"/>
   </g>
   <g id="patch_46">
    <path clip-path="url(#p0bf7b191d1)" d="M 169.738093 262.261907 
L 202.850196 262.261907 
L 202.850196 229.149804 
L 169.738093 229.149804 
z
" style="fill:#826745;stroke:#826745;stroke-linejoin:miter;"/>
   </g>
   <g id="patch_47">
    <path clip-path="url(#p0bf7b191d1)" d="M 209.472617 262.261907 
L 242.584719 262.261907 
L 242.584719 229.149804 
L 209.472617 229.149804 
z
" style="fill:#826745;stroke:#826745;stroke-linejoin:miter;"/>
   </g>
   <g id="patch_48">
    <path clip-path="url(#p0bf7b191d1)" d="M 249.20714 262.261907 
L 282.319243 262.261907 
L 282.319243 229.149804 
L 249.20714 229.149804 
z
" style="fill:#826745;stroke:#826745;stroke-linejoin:miter;"/>
   </g>
   <g id="patch_49">
    <path clip-path="url(#p0bf7b191d1)" d="M 288.941663 262.261907 
L 322.053766 262.261907 
L 322.053766 229.149804 
L 288.941663 229.149804 
z
" style="fill:#826745;stroke:#826745;stroke-linejoin:miter;"/>
   </g>
   <g id="patch_50">
    <path clip-path="url(#p0bf7b191d1)" d="M 328.676186 262.261907 
L 361.788289 262.261907 
L 361.788289 229.149804 
L 328.676186 229.149804 
z
" style="fill:#826745;stroke:#826745;stroke-linejoin:miter;"/>
   </g>
   <g id="patch_51">
    <path clip-path="url(#p0bf7b191d1)" d="M 368.41071 262.261907 
L 401.522812 262.261907 
L 401.522812 229.149804 
L 368.41071 229.149804 
z
" style="fill:#826745;stroke:#826745;stroke-linejoin:miter;"/>
   </g>
   <g id="patch_52">
    <path clip-path="url(#p0bf7b191d1)" d="M 10.8 222.527383 
L 43.912103 222.527383 
L 43.912103 189.415281 
L 10.8 189.415281 
z
" style="fill:#826745;stroke:#826745;stroke-linejoin:miter;"/>
   </g>
   <g id="patch_53">
    <path clip-path="url(#p0bf7b191d1)" d="M 50.534523 222.527383 
L 83.646626 222.527383 
L 83.646626 189.415281 
L 50.534523 189.415281 
z
" style="fill:#826745;stroke:#826745;stroke-linejoin:miter;"/>
   </g>
   <g id="patch_54">
    <path clip-path="url(#p0bf7b191d1)" d="M 90.269047 222.527383 
L 123.381149 222.527383 
L 123.381149 189.415281 
L 90.269047 189.415281 
z
" style="fill:#826745;stroke:#826745;stroke-linejoin:miter;"/>
   </g>
   <g id="patch_55">
    <path clip-path="url(#p0bf7b191d1)" d="M 130.00357 222.527383 
L 163.115673 222.527383 
L 163.115673 189.415281 
L 130.00357 189.415281 
z
" style="fill:#826745;stroke:#826745;stroke-linejoin:miter;"/>
   </g>
   <g id="patch_56">
    <path clip-path="url(#p0bf7b191d1)" d="M 169.738093 222.527383 
L 202.850196 222.527383 
L 202.850196 189.415281 
L 169.738093 189.415281 
z
" style="fill:#826745;stroke:#826745;stroke-linejoin:miter;"/>
   </g>
   <g id="patch_57">
    <path clip-path="url(#p0bf7b191d1)" d="M 209.472617 222.527383 
L 242.584719 222.527383 
L 242.584719 189.415281 
L 209.472617 189.415281 
z
" style="fill:#826745;stroke:#826745;stroke-linejoin:miter;"/>
   </g>
   <g id="patch_58">
    <path clip-path="url(#p0bf7b191d1)" d="M 249.20714 222.527383 
L 282.319243 222.527383 
L 282.319243 189.415281 
L 249.20714 189.415281 
z
" style="fill:#826745;stroke:#826745;stroke-linejoin:miter;"/>
   </g>
   <g id="patch_59">
    <path clip-path="url(#p0bf7b191d1)" d="M 288.941663 222.527383 
L 322.053766 222.527383 
L 322.053766 189.415281 
L 288.941663 189.415281 
z
" style="fill:#826745;stroke:#826745;stroke-linejoin:miter;"/>
   </g>
   <g id="patch_60">
    <path clip-path="url(#p0bf7b191d1)" d="M 328.676186 222.527383 
L 361.788289 222.527383 
L 361.788289 189.415281 
L 328.676186 189.415281 
z
" style="fill:#826745;stroke:#826745;stroke-linejoin:miter;"/>
   </g>
   <g id="patch_61">
    <path clip-path="url(#p0bf7b191d1)" d="M 368.41071 222.527383 
L 401.522812 222.527383 
L 401.522812 189.415281 
L 368.41071 189.415281 
z
" style="fill:#826745;stroke:#826745;stroke-linejoin:miter;"/>
   </g>
   <g id="patch_62">
    <path clip-path="url(#p0bf7b191d1)" d="M 10.8 182.79286 
L 43.912103 182.79286 
L 43.912103 149.680757 
L 10.8 149.680757 
z
" style="fill:#826745;stroke:#826745;stroke-linejoin:miter;"/>
   </g>
   <g id="patch_63">
    <path clip-path="url(#p0bf7b191d1)" d="M 50.534523 182.79286 
L 83.646626 182.79286 
L 83.646626 149.680757 
L 50.534523 149.680757 
z
" style="fill:#826745;stroke:#826745;stroke-linejoin:miter;"/>
   </g>
   <g id="patch_64">
    <path clip-path="url(#p0bf7b191d1)" d="M 90.269047 182.79286 
L 123.381149 182.79286 
L 123.381149 149.680757 
L 90.269047 149.680757 
z
" style="fill:#826745;stroke:#826745;stroke-linejoin:miter;"/>
   </g>
   <g id="patch_65">
    <path clip-path="url(#p0bf7b191d1)" d="M 130.00357 182.79286 
L 163.115673 182.79286 
L 163.115673 149.680757 
L 130.00357 149.680757 
z
" style="fill:#826745;stroke:#826745;stroke-linejoin:miter;"/>
   </g>
   <g id="patch_66">
    <path clip-path="url(#p0bf7b191d1)" d="M 169.738093 182.79286 
L 202.850196 182.79286 
L 202.850196 149.680757 
L 169.738093 149.680757 
z
" style="fill:#826745;stroke:#826745;stroke-linejoin:miter;"/>
   </g>
   <g id="patch_67">
    <path clip-path="url(#p0bf7b191d1)" d="M 209.472617 182.79286 
L 242.584719 182.79286 
L 242.584719 149.680757 
L 209.472617 149.680757 
z
" style="fill:#826745;stroke:#826745;stroke-linejoin:miter;"/>
   </g>
   <g id="patch_68">
    <path clip-path="url(#p0bf7b191d1)" d="M 249.20714 182.79286 
L 282.319243 182.79286 
L 282.319243 149.680757 
L 249.20714 149.680757 
z
" style="fill:#826745;stroke:#826745;stroke-linejoin:miter;"/>
   </g>
   <g id="patch_69">
    <path clip-path="url(#p0bf7b191d1)" d="M 288.941663 182.79286 
L 322.053766 182.79286 
L 322.053766 149.680757 
L 288.941663 149.680757 
z
" style="fill:#826745;stroke:#826745;stroke-linejoin:miter;"/>
   </g>
   <g id="patch_70">
    <path clip-path="url(#p0bf7b191d1)" d="M 328.676186 182.79286 
L 361.788289 182.79286 
L 361.788289 149.680757 
L 328.676186 149.680757 
z
" style="fill:#826745;stroke:#826745;stroke-linejoin:miter;"/>
   </g>
   <g id="patch_71">
    <path clip-path="url(#p0bf7b191d1)" d="M 368.41071 182.79286 
L 401.522812 182.79286 
L 401.522812 149.680757 
L 368.41071 149.680757 
z
" style="fill:#826745;stroke:#826745;stroke-linejoin:miter;"/>
   </g>
   <g id="patch_72">
    <path clip-path="url(#p0bf7b191d1)" d="M 10.8 143.058337 
L 43.912103 143.058337 
L 43.912103 109.946234 
L 10.8 109.946234 
z
" style="fill:#826745;stroke:#826745;stroke-linejoin:miter;"/>
   </g>
   <g id="patch_73">
    <path clip-path="url(#p0bf7b191d1)" d="M 50.534523 143.058337 
L 83.646626 143.058337 
L 83.646626 109.946234 
L 50.534523 109.946234 
z
" style="fill:#826745;stroke:#826745;stroke-linejoin:miter;"/>
   </g>
   <g id="patch_74">
    <path clip-path="url(#p0bf7b191d1)" d="M 90.269047 143.058337 
L 123.381149 143.058337 
L 123.381149 109.946234 
L 90.269047 109.946234 
z
" style="fill:#826745;stroke:#826745;stroke-linejoin:miter;"/>
   </g>
   <g id="patch_75">
    <path clip-path="url(#p0bf7b191d1)" d="M 130.00357 143.058337 
L 163.115673 143.058337 
L 163.115673 109.946234 
L 130.00357 109.946234 
z
" style="fill:#826745;stroke:#826745;stroke-linejoin:miter;"/>
   </g>
   <g id="patch_76">
    <path clip-path="url(#p0bf7b191d1)" d="M 169.738093 143.058337 
L 202.850196 143.058337 
L 202.850196 109.946234 
L 169.738093 109.946234 
z
" style="fill:#826745;stroke:#826745;stroke-linejoin:miter;"/>
   </g>
   <g id="patch_77">
    <path clip-path="url(#p0bf7b191d1)" d="M 209.472617 143.058337 
L 242.584719 143.058337 
L 242.584719 109.946234 
L 209.472617 109.946234 
z
" style="fill:#826745;stroke:#826745;stroke-linejoin:miter;"/>
   </g>
   <g id="patch_78">
    <path clip-path="url(#p0bf7b191d1)" d="M 249.20714 143.058337 
L 282.319243 143.058337 
L 282.319243 109.946234 
L 249.20714 109.946234 
z
" style="fill:#826745;stroke:#826745;stroke-linejoin:miter;"/>
   </g>
   <g id="patch_79">
    <path clip-path="url(#p0bf7b191d1)" d="M 288.941663 143.058337 
L 322.053766 143.058337 
L 322.053766 109.946234 
L 288.941663 109.946234 
z
" style="fill:#826745;stroke:#826745;stroke-linejoin:miter;"/>
   </g>
   <g id="patch_80">
    <path clip-path="url(#p0bf7b191d1)" d="M 328.676186 143.058337 
L 361.788289 143.058337 
L 361.788289 109.946234 
L 328.676186 109.946234 
z
" style="fill:#826745;stroke:#826745;stroke-linejoin:miter;"/>
   </g>
   <g id="patch_81">
    <path clip-path="url(#p0bf7b191d1)" d="M 368.41071 143.058337 
L 401.522812 143.058337 
L 401.522812 109.946234 
L 368.41071 109.946234 
z
" style="fill:#826745;stroke:#826745;stroke-linejoin:miter;"/>
   </g>
   <g id="patch_82">
    <path clip-path="url(#p0bf7b191d1)" d="M 10.8 103.323814 
L 43.912103 103.323814 
L 43.912103 70.211711 
L 10.8 70.211711 
z
" style="fill:#826745;stroke:#826745;stroke-linejoin:miter;"/>
   </g>
   <g id="patch_83">
    <path clip-path="url(#p0bf7b191d1)" d="M 50.534523 103.323814 
L 83.646626 103.323814 
L 83.646626 70.211711 
L 50.534523 70.211711 
z
" style="fill:#826745;stroke:#826745;stroke-linejoin:miter;"/>
   </g>
   <g id="patch_84">
    <path clip-path="url(#p0bf7b191d1)" d="M 90.269047 103.323814 
L 123.381149 103.323814 
L 123.381149 70.211711 
L 90.269047 70.211711 
z
" style="fill:#826745;stroke:#826745;stroke-linejoin:miter;"/>
   </g>
   <g id="patch_85">
    <path clip-path="url(#p0bf7b191d1)" d="M 130.00357 103.323814 
L 163.115673 103.323814 
L 163.115673 70.211711 
L 130.00357 70.211711 
z
" style="fill:#826745;stroke:#826745;stroke-linejoin:miter;"/>
   </g>
   <g id="patch_86">
    <path clip-path="url(#p0bf7b191d1)" d="M 169.738093 103.323814 
L 202.850196 103.323814 
L 202.850196 70.211711 
L 169.738093 70.211711 
z
" style="fill:#826745;stroke:#826745;stroke-linejoin:miter;"/>
   </g>
   <g id="patch_87">
    <path clip-path="url(#p0bf7b191d1)" d="M 209.472617 103.323814 
L 242.584719 103.323814 
L 242.584719 70.211711 
L 209.472617 70.211711 
z
" style="fill:#3ea447;stroke:#3ea447;stroke-linejoin:miter;"/>
   </g>
   <g id="patch_88">
    <path clip-path="url(#p0bf7b191d1)" d="M 249.20714 103.323814 
L 282.319243 103.323814 
L 282.319243 70.211711 
L 249.20714 70.211711 
z
" style="fill:#3ea447;stroke:#3ea447;stroke-linejoin:miter;"/>
   </g>
   <g id="patch_89">
    <path clip-path="url(#p0bf7b191d1)" d="M 288.941663 103.323814 
L 322.053766 103.323814 
L 322.053766 70.211711 
L 288.941663 70.211711 
z
" style="fill:#3ea447;stroke:#3ea447;stroke-linejoin:miter;"/>
   </g>
   <g id="patch_90">
    <path clip-path="url(#p0bf7b191d1)" d="M 328.676186 103.323814 
L 361.788289 103.323814 
L 361.788289 70.211711 
L 328.676186 70.211711 
z
" style="fill:#3ea447;stroke:#3ea447;stroke-linejoin:miter;"/>
   </g>
   <g id="patch_91">
    <path clip-path="url(#p0bf7b191d1)" d="M 368.41071 103.323814 
L 401.522812 103.323814 
L 401.522812 70.211711 
L 368.41071 70.211711 
z
" style="fill:#3ea447;stroke:#3ea447;stroke-linejoin:miter;"/>
   </g>
   <g id="patch_92">
    <path clip-path="url(#p0bf7b191d1)" d="M 10.8 63.58929 
L 43.912103 63.58929 
L 43.912103 30.477188 
L 10.8 30.477188 
z
" style="fill:#3ea447;stroke:#3ea447;stroke-linejoin:miter;"/>
   </g>
   <g id="patch_93">
    <path clip-path="url(#p0bf7b191d1)" d="M 50.534523 63.58929 
L 83.646626 63.58929 
L 83.646626 30.477188 
L 50.534523 30.477188 
z
" style="fill:#3ea447;stroke:#3ea447;stroke-linejoin:miter;"/>
   </g>
   <g id="patch_94">
    <path clip-path="url(#p0bf7b191d1)" d="M 90.269047 63.58929 
L 123.381149 63.58929 
L 123.381149 30.477188 
L 90.269047 30.477188 
z
" style="fill:#3ea447;stroke:#3ea447;stroke-linejoin:miter;"/>
   </g>
   <g id="patch_95">
    <path clip-path="url(#p0bf7b191d1)" d="M 130.00357 63.58929 
L 163.115673 63.58929 
L 163.115673 30.477188 
L 130.00357 30.477188 
z
" style="fill:#3ea447;stroke:#3ea447;stroke-linejoin:miter;"/>
   </g>
   <g id="patch_96">
    <path clip-path="url(#p0bf7b191d1)" d="M 169.738093 63.58929 
L 202.850196 63.58929 
L 202.850196 30.477188 
L 169.738093 30.477188 
z
" style="fill:#3ea447;stroke:#3ea447;stroke-linejoin:miter;"/>
   </g>
   <g id="patch_97">
    <path clip-path="url(#p0bf7b191d1)" d="M 209.472617 63.58929 
L 242.584719 63.58929 
L 242.584719 30.477188 
L 209.472617 30.477188 
z
" style="fill:#3ea447;stroke:#3ea447;stroke-linejoin:miter;"/>
   </g>
   <g id="patch_98">
    <path clip-path="url(#p0bf7b191d1)" d="M 249.20714 63.58929 
L 282.319243 63.58929 
L 282.319243 30.477188 
L 249.20714 30.477188 
z
" style="fill:#3ea447;stroke:#3ea447;stroke-linejoin:miter;"/>
   </g>
   <g id="patch_99">
    <path clip-path="url(#p0bf7b191d1)" d="M 288.941663 63.58929 
L 322.053766 63.58929 
L 322.053766 30.477188 
L 288.941663 30.477188 
z
" style="fill:#3ea447;stroke:#3ea447;stroke-linejoin:miter;"/>
   </g>
   <g id="patch_100">
    <path clip-path="url(#p0bf7b191d1)" d="M 328.676186 63.58929 
L 361.788289 63.58929 
L 361.788289 30.477188 
L 328.676186 30.477188 
z
" style="fill:#3ea447;stroke:#3ea447;stroke-linejoin:miter;"/>
   </g>
   <g id="patch_101">
    <path clip-path="url(#p0bf7b191d1)" d="M 368.41071 63.58929 
L 401.522812 63.58929 
L 401.522812 30.477188 
L 368.41071 30.477188 
z
" style="fill:#3ea447;stroke:#3ea447;stroke-linejoin:miter;"/>
   </g>
   <g id="text_1">
    <!-- Total -->
    <defs>
     <path d="M -0.296875 72.90625 
L 61.375 72.90625 
L 61.375 64.59375 
L 35.5 64.59375 
L 35.5 0 
L 25.59375 0 
L 25.59375 64.59375 
L -0.296875 64.59375 
z
" id="DejaVuSans-84"/>
     <path d="M 30.609375 48.390625 
Q 23.390625 48.390625 19.1875 42.75 
Q 14.984375 37.109375 14.984375 27.296875 
Q 14.984375 17.484375 19.15625 11.84375 
Q 23.34375 6.203125 30.609375 6.203125 
Q 37.796875 6.203125 41.984375 11.859375 
Q 46.1875 17.53125 46.1875 27.296875 
Q 46.1875 37.015625 41.984375 42.703125 
Q 37.796875 48.390625 30.609375 48.390625 
z
M 30.609375 56 
Q 42.328125 56 49.015625 48.375 
Q 55.71875 40.765625 55.71875 27.296875 
Q 55.71875 13.875 49.015625 6.21875 
Q 42.328125 -1.421875 30.609375 -1.421875 
Q 18.84375 -1.421875 12.171875 6.21875 
Q 5.515625 13.875 5.515625 27.296875 
Q 5.515625 40.765625 12.171875 48.375 
Q 18.84375 56 30.609375 56 
z
" id="DejaVuSans-111"/>
     <path d="M 18.3125 70.21875 
L 18.3125 54.6875 
L 36.8125 54.6875 
L 36.8125 47.703125 
L 18.3125 47.703125 
L 18.3125 18.015625 
Q 18.3125 11.328125 20.140625 9.421875 
Q 21.96875 7.515625 27.59375 7.515625 
L 36.8125 7.515625 
L 36.8125 0 
L 27.59375 0 
Q 17.1875 0 13.234375 3.875 
Q 9.28125 7.765625 9.28125 18.015625 
L 9.28125 47.703125 
L 2.6875 47.703125 
L 2.6875 54.6875 
L 9.28125 54.6875 
L 9.28125 70.21875 
z
" id="DejaVuSans-116"/>
     <path d="M 34.28125 27.484375 
Q 23.390625 27.484375 19.1875 25 
Q 14.984375 22.515625 14.984375 16.5 
Q 14.984375 11.71875 18.140625 8.90625 
Q 21.296875 6.109375 26.703125 6.109375 
Q 34.1875 6.109375 38.703125 11.40625 
Q 43.21875 16.703125 43.21875 25.484375 
L 43.21875 27.484375 
z
M 52.203125 31.203125 
L 52.203125 0 
L 43.21875 0 
L 43.21875 8.296875 
Q 40.140625 3.328125 35.546875 0.953125 
Q 30.953125 -1.421875 24.3125 -1.421875 
Q 15.921875 -1.421875 10.953125 3.296875 
Q 6 8.015625 6 15.921875 
Q 6 25.140625 12.171875 29.828125 
Q 18.359375 34.515625 30.609375 34.515625 
L 43.21875 34.515625 
L 43.21875 35.40625 
Q 43.21875 41.609375 39.140625 45 
Q 35.0625 48.390625 27.6875 48.390625 
Q 23 48.390625 18.546875 47.265625 
Q 14.109375 46.140625 10.015625 43.890625 
L 10.015625 52.203125 
Q 14.9375 54.109375 19.578125 55.046875 
Q 24.21875 56 28.609375 56 
Q 40.484375 56 46.34375 49.84375 
Q 52.203125 43.703125 52.203125 31.203125 
z
" id="DejaVuSans-97"/>
     <path d="M 9.421875 75.984375 
L 18.40625 75.984375 
L 18.40625 0 
L 9.421875 0 
z
" id="DejaVuSans-108"/>
    </defs>
    <g transform="translate(183.6375 24.477188)scale(0.18 -0.18)">
     <use xlink:href="#DejaVuSans-84"/>
     <use x="60.818359" xlink:href="#DejaVuSans-111"/>
     <use x="122" xlink:href="#DejaVuSans-116"/>
     <use x="161.208984" xlink:href="#DejaVuSans-97"/>
     <use x="222.488281" xlink:href="#DejaVuSans-108"/>
    </g>
   </g>
   <g id="legend_1">
    <g id="patch_102">
     <path d="M 408.522812 67.833438 
L 606.768125 67.833438 
Q 608.768125 67.833438 608.768125 65.833438 
L 608.768125 37.477188 
Q 608.768125 35.477188 606.768125 35.477188 
L 408.522812 35.477188 
Q 406.522812 35.477188 406.522812 37.477188 
L 406.522812 65.833438 
Q 406.522812 67.833438 408.522812 67.833438 
z
" style="fill:#ffffff;opacity:0.8;stroke:#cccccc;stroke-linejoin:miter;"/>
    </g>
    <g id="patch_103">
     <path d="M 410.522812 47.075625 
L 430.522812 47.075625 
L 430.522812 40.075625 
L 410.522812 40.075625 
z
" style="fill:#826745;stroke:#826745;stroke-linejoin:miter;"/>
    </g>
    <g id="text_2">
     <!-- Consumido no incendio (84.55%) -->
     <defs>
      <path d="M 64.40625 67.28125 
L 64.40625 56.890625 
Q 59.421875 61.53125 53.78125 63.8125 
Q 48.140625 66.109375 41.796875 66.109375 
Q 29.296875 66.109375 22.65625 58.46875 
Q 16.015625 50.828125 16.015625 36.375 
Q 16.015625 21.96875 22.65625 14.328125 
Q 29.296875 6.6875 41.796875 6.6875 
Q 48.140625 6.6875 53.78125 8.984375 
Q 59.421875 11.28125 64.40625 15.921875 
L 64.40625 5.609375 
Q 59.234375 2.09375 53.4375 0.328125 
Q 47.65625 -1.421875 41.21875 -1.421875 
Q 24.65625 -1.421875 15.125 8.703125 
Q 5.609375 18.84375 5.609375 36.375 
Q 5.609375 53.953125 15.125 64.078125 
Q 24.65625 74.21875 41.21875 74.21875 
Q 47.75 74.21875 53.53125 72.484375 
Q 59.328125 70.75 64.40625 67.28125 
z
" id="DejaVuSans-67"/>
      <path d="M 54.890625 33.015625 
L 54.890625 0 
L 45.90625 0 
L 45.90625 32.71875 
Q 45.90625 40.484375 42.875 44.328125 
Q 39.84375 48.1875 33.796875 48.1875 
Q 26.515625 48.1875 22.3125 43.546875 
Q 18.109375 38.921875 18.109375 30.90625 
L 18.109375 0 
L 9.078125 0 
L 9.078125 54.6875 
L 18.109375 54.6875 
L 18.109375 46.1875 
Q 21.34375 51.125 25.703125 53.5625 
Q 30.078125 56 35.796875 56 
Q 45.21875 56 50.046875 50.171875 
Q 54.890625 44.34375 54.890625 33.015625 
z
" id="DejaVuSans-110"/>
      <path d="M 44.28125 53.078125 
L 44.28125 44.578125 
Q 40.484375 46.53125 36.375 47.5 
Q 32.28125 48.484375 27.875 48.484375 
Q 21.1875 48.484375 17.84375 46.4375 
Q 14.5 44.390625 14.5 40.28125 
Q 14.5 37.15625 16.890625 35.375 
Q 19.28125 33.59375 26.515625 31.984375 
L 29.59375 31.296875 
Q 39.15625 29.25 43.1875 25.515625 
Q 47.21875 21.78125 47.21875 15.09375 
Q 47.21875 7.46875 41.1875 3.015625 
Q 35.15625 -1.421875 24.609375 -1.421875 
Q 20.21875 -1.421875 15.453125 -0.5625 
Q 10.6875 0.296875 5.421875 2 
L 5.421875 11.28125 
Q 10.40625 8.6875 15.234375 7.390625 
Q 20.0625 6.109375 24.8125 6.109375 
Q 31.15625 6.109375 34.5625 8.28125 
Q 37.984375 10.453125 37.984375 14.40625 
Q 37.984375 18.0625 35.515625 20.015625 
Q 33.0625 21.96875 24.703125 23.78125 
L 21.578125 24.515625 
Q 13.234375 26.265625 9.515625 29.90625 
Q 5.8125 33.546875 5.8125 39.890625 
Q 5.8125 47.609375 11.28125 51.796875 
Q 16.75 56 26.8125 56 
Q 31.78125 56 36.171875 55.265625 
Q 40.578125 54.546875 44.28125 53.078125 
z
" id="DejaVuSans-115"/>
      <path d="M 8.5 21.578125 
L 8.5 54.6875 
L 17.484375 54.6875 
L 17.484375 21.921875 
Q 17.484375 14.15625 20.5 10.265625 
Q 23.53125 6.390625 29.59375 6.390625 
Q 36.859375 6.390625 41.078125 11.03125 
Q 45.3125 15.671875 45.3125 23.6875 
L 45.3125 54.6875 
L 54.296875 54.6875 
L 54.296875 0 
L 45.3125 0 
L 45.3125 8.40625 
Q 42.046875 3.421875 37.71875 1 
Q 33.40625 -1.421875 27.6875 -1.421875 
Q 18.265625 -1.421875 13.375 4.4375 
Q 8.5 10.296875 8.5 21.578125 
z
M 31.109375 56 
z
" id="DejaVuSans-117"/>
      <path d="M 52 44.1875 
Q 55.375 50.25 60.0625 53.125 
Q 64.75 56 71.09375 56 
Q 79.640625 56 84.28125 50.015625 
Q 88.921875 44.046875 88.921875 33.015625 
L 88.921875 0 
L 79.890625 0 
L 79.890625 32.71875 
Q 79.890625 40.578125 77.09375 44.375 
Q 74.3125 48.1875 68.609375 48.1875 
Q 61.625 48.1875 57.5625 43.546875 
Q 53.515625 38.921875 53.515625 30.90625 
L 53.515625 0 
L 44.484375 0 
L 44.484375 32.71875 
Q 44.484375 40.625 41.703125 44.40625 
Q 38.921875 48.1875 33.109375 48.1875 
Q 26.21875 48.1875 22.15625 43.53125 
Q 18.109375 38.875 18.109375 30.90625 
L 18.109375 0 
L 9.078125 0 
L 9.078125 54.6875 
L 18.109375 54.6875 
L 18.109375 46.1875 
Q 21.1875 51.21875 25.484375 53.609375 
Q 29.78125 56 35.6875 56 
Q 41.65625 56 45.828125 52.96875 
Q 50 49.953125 52 44.1875 
z
" id="DejaVuSans-109"/>
      <path d="M 9.421875 54.6875 
L 18.40625 54.6875 
L 18.40625 0 
L 9.421875 0 
z
M 9.421875 75.984375 
L 18.40625 75.984375 
L 18.40625 64.59375 
L 9.421875 64.59375 
z
" id="DejaVuSans-105"/>
      <path d="M 45.40625 46.390625 
L 45.40625 75.984375 
L 54.390625 75.984375 
L 54.390625 0 
L 45.40625 0 
L 45.40625 8.203125 
Q 42.578125 3.328125 38.25 0.953125 
Q 33.9375 -1.421875 27.875 -1.421875 
Q 17.96875 -1.421875 11.734375 6.484375 
Q 5.515625 14.40625 5.515625 27.296875 
Q 5.515625 40.1875 11.734375 48.09375 
Q 17.96875 56 27.875 56 
Q 33.9375 56 38.25 53.625 
Q 42.578125 51.265625 45.40625 46.390625 
z
M 14.796875 27.296875 
Q 14.796875 17.390625 18.875 11.75 
Q 22.953125 6.109375 30.078125 6.109375 
Q 37.203125 6.109375 41.296875 11.75 
Q 45.40625 17.390625 45.40625 27.296875 
Q 45.40625 37.203125 41.296875 42.84375 
Q 37.203125 48.484375 30.078125 48.484375 
Q 22.953125 48.484375 18.875 42.84375 
Q 14.796875 37.203125 14.796875 27.296875 
z
" id="DejaVuSans-100"/>
      <path id="DejaVuSans-32"/>
      <path d="M 48.78125 52.59375 
L 48.78125 44.1875 
Q 44.96875 46.296875 41.140625 47.34375 
Q 37.3125 48.390625 33.40625 48.390625 
Q 24.65625 48.390625 19.8125 42.84375 
Q 14.984375 37.3125 14.984375 27.296875 
Q 14.984375 17.28125 19.8125 11.734375 
Q 24.65625 6.203125 33.40625 6.203125 
Q 37.3125 6.203125 41.140625 7.25 
Q 44.96875 8.296875 48.78125 10.40625 
L 48.78125 2.09375 
Q 45.015625 0.34375 40.984375 -0.53125 
Q 36.96875 -1.421875 32.421875 -1.421875 
Q 20.0625 -1.421875 12.78125 6.34375 
Q 5.515625 14.109375 5.515625 27.296875 
Q 5.515625 40.671875 12.859375 48.328125 
Q 20.21875 56 33.015625 56 
Q 37.15625 56 41.109375 55.140625 
Q 45.0625 54.296875 48.78125 52.59375 
z
" id="DejaVuSans-99"/>
      <path d="M 56.203125 29.59375 
L 56.203125 25.203125 
L 14.890625 25.203125 
Q 15.484375 15.921875 20.484375 11.0625 
Q 25.484375 6.203125 34.421875 6.203125 
Q 39.59375 6.203125 44.453125 7.46875 
Q 49.3125 8.734375 54.109375 11.28125 
L 54.109375 2.78125 
Q 49.265625 0.734375 44.1875 -0.34375 
Q 39.109375 -1.421875 33.890625 -1.421875 
Q 20.796875 -1.421875 13.15625 6.1875 
Q 5.515625 13.8125 5.515625 26.8125 
Q 5.515625 40.234375 12.765625 48.109375 
Q 20.015625 56 32.328125 56 
Q 43.359375 56 49.78125 48.890625 
Q 56.203125 41.796875 56.203125 29.59375 
z
M 47.21875 32.234375 
Q 47.125 39.59375 43.09375 43.984375 
Q 39.0625 48.390625 32.421875 48.390625 
Q 24.90625 48.390625 20.390625 44.140625 
Q 15.875 39.890625 15.1875 32.171875 
z
" id="DejaVuSans-101"/>
      <path d="M 31 75.875 
Q 24.46875 64.65625 21.28125 53.65625 
Q 18.109375 42.671875 18.109375 31.390625 
Q 18.109375 20.125 21.3125 9.0625 
Q 24.515625 -2 31 -13.1875 
L 23.1875 -13.1875 
Q 15.875 -1.703125 12.234375 9.375 
Q 8.59375 20.453125 8.59375 31.390625 
Q 8.59375 42.28125 12.203125 53.3125 
Q 15.828125 64.359375 23.1875 75.875 
z
" id="DejaVuSans-40"/>
      <path d="M 31.78125 34.625 
Q 24.75 34.625 20.71875 30.859375 
Q 16.703125 27.09375 16.703125 20.515625 
Q 16.703125 13.921875 20.71875 10.15625 
Q 24.75 6.390625 31.78125 6.390625 
Q 38.8125 6.390625 42.859375 10.171875 
Q 46.921875 13.96875 46.921875 20.515625 
Q 46.921875 27.09375 42.890625 30.859375 
Q 38.875 34.625 31.78125 34.625 
z
M 21.921875 38.8125 
Q 15.578125 40.375 12.03125 44.71875 
Q 8.5 49.078125 8.5 55.328125 
Q 8.5 64.0625 14.71875 69.140625 
Q 20.953125 74.21875 31.78125 74.21875 
Q 42.671875 74.21875 48.875 69.140625 
Q 55.078125 64.0625 55.078125 55.328125 
Q 55.078125 49.078125 51.53125 44.71875 
Q 48 40.375 41.703125 38.8125 
Q 48.828125 37.15625 52.796875 32.3125 
Q 56.78125 27.484375 56.78125 20.515625 
Q 56.78125 9.90625 50.3125 4.234375 
Q 43.84375 -1.421875 31.78125 -1.421875 
Q 19.734375 -1.421875 13.25 4.234375 
Q 6.78125 9.90625 6.78125 20.515625 
Q 6.78125 27.484375 10.78125 32.3125 
Q 14.796875 37.15625 21.921875 38.8125 
z
M 18.3125 54.390625 
Q 18.3125 48.734375 21.84375 45.5625 
Q 25.390625 42.390625 31.78125 42.390625 
Q 38.140625 42.390625 41.71875 45.5625 
Q 45.3125 48.734375 45.3125 54.390625 
Q 45.3125 60.0625 41.71875 63.234375 
Q 38.140625 66.40625 31.78125 66.40625 
Q 25.390625 66.40625 21.84375 63.234375 
Q 18.3125 60.0625 18.3125 54.390625 
z
" id="DejaVuSans-56"/>
      <path d="M 37.796875 64.3125 
L 12.890625 25.390625 
L 37.796875 25.390625 
z
M 35.203125 72.90625 
L 47.609375 72.90625 
L 47.609375 25.390625 
L 58.015625 25.390625 
L 58.015625 17.1875 
L 47.609375 17.1875 
L 47.609375 0 
L 37.796875 0 
L 37.796875 17.1875 
L 4.890625 17.1875 
L 4.890625 26.703125 
z
" id="DejaVuSans-52"/>
      <path d="M 10.6875 12.40625 
L 21 12.40625 
L 21 0 
L 10.6875 0 
z
" id="DejaVuSans-46"/>
      <path d="M 10.796875 72.90625 
L 49.515625 72.90625 
L 49.515625 64.59375 
L 19.828125 64.59375 
L 19.828125 46.734375 
Q 21.96875 47.46875 24.109375 47.828125 
Q 26.265625 48.1875 28.421875 48.1875 
Q 40.625 48.1875 47.75 41.5 
Q 54.890625 34.8125 54.890625 23.390625 
Q 54.890625 11.625 47.5625 5.09375 
Q 40.234375 -1.421875 26.90625 -1.421875 
Q 22.3125 -1.421875 17.546875 -0.640625 
Q 12.796875 0.140625 7.71875 1.703125 
L 7.71875 11.625 
Q 12.109375 9.234375 16.796875 8.0625 
Q 21.484375 6.890625 26.703125 6.890625 
Q 35.15625 6.890625 40.078125 11.328125 
Q 45.015625 15.765625 45.015625 23.390625 
Q 45.015625 31 40.078125 35.4375 
Q 35.15625 39.890625 26.703125 39.890625 
Q 22.75 39.890625 18.8125 39.015625 
Q 14.890625 38.140625 10.796875 36.28125 
z
" id="DejaVuSans-53"/>
      <path d="M 72.703125 32.078125 
Q 68.453125 32.078125 66.03125 28.46875 
Q 63.625 24.859375 63.625 18.40625 
Q 63.625 12.0625 66.03125 8.421875 
Q 68.453125 4.78125 72.703125 4.78125 
Q 76.859375 4.78125 79.265625 8.421875 
Q 81.6875 12.0625 81.6875 18.40625 
Q 81.6875 24.8125 79.265625 28.4375 
Q 76.859375 32.078125 72.703125 32.078125 
z
M 72.703125 38.28125 
Q 80.421875 38.28125 84.953125 32.90625 
Q 89.5 27.546875 89.5 18.40625 
Q 89.5 9.28125 84.9375 3.921875 
Q 80.375 -1.421875 72.703125 -1.421875 
Q 64.890625 -1.421875 60.34375 3.921875 
Q 55.8125 9.28125 55.8125 18.40625 
Q 55.8125 27.59375 60.375 32.9375 
Q 64.9375 38.28125 72.703125 38.28125 
z
M 22.3125 68.015625 
Q 18.109375 68.015625 15.6875 64.375 
Q 13.28125 60.75 13.28125 54.390625 
Q 13.28125 47.953125 15.671875 44.328125 
Q 18.0625 40.71875 22.3125 40.71875 
Q 26.5625 40.71875 28.96875 44.328125 
Q 31.390625 47.953125 31.390625 54.390625 
Q 31.390625 60.6875 28.953125 64.34375 
Q 26.515625 68.015625 22.3125 68.015625 
z
M 66.40625 74.21875 
L 74.21875 74.21875 
L 28.609375 -1.421875 
L 20.796875 -1.421875 
z
M 22.3125 74.21875 
Q 30.03125 74.21875 34.609375 68.875 
Q 39.203125 63.53125 39.203125 54.390625 
Q 39.203125 45.171875 34.640625 39.84375 
Q 30.078125 34.515625 22.3125 34.515625 
Q 14.546875 34.515625 10.03125 39.859375 
Q 5.515625 45.21875 5.515625 54.390625 
Q 5.515625 63.484375 10.046875 68.84375 
Q 14.59375 74.21875 22.3125 74.21875 
z
" id="DejaVuSans-37"/>
      <path d="M 8.015625 75.875 
L 15.828125 75.875 
Q 23.140625 64.359375 26.78125 53.3125 
Q 30.421875 42.28125 30.421875 31.390625 
Q 30.421875 20.453125 26.78125 9.375 
Q 23.140625 -1.703125 15.828125 -13.1875 
L 8.015625 -13.1875 
Q 14.5 -2 17.703125 9.0625 
Q 20.90625 20.125 20.90625 31.390625 
Q 20.90625 42.671875 17.703125 53.65625 
Q 14.5 64.65625 8.015625 75.875 
z
" id="DejaVuSans-41"/>
     </defs>
     <g transform="translate(438.522812 47.075625)scale(0.1 -0.1)">
      <use xlink:href="#DejaVuSans-67"/>
      <use x="69.824219" xlink:href="#DejaVuSans-111"/>
      <use x="131.005859" xlink:href="#DejaVuSans-110"/>
      <use x="194.384766" xlink:href="#DejaVuSans-115"/>
      <use x="246.484375" xlink:href="#DejaVuSans-117"/>
      <use x="309.863281" xlink:href="#DejaVuSans-109"/>
      <use x="407.275391" xlink:href="#DejaVuSans-105"/>
      <use x="435.058594" xlink:href="#DejaVuSans-100"/>
      <use x="498.535156" xlink:href="#DejaVuSans-111"/>
      <use x="559.716797" xlink:href="#DejaVuSans-32"/>
      <use x="591.503906" xlink:href="#DejaVuSans-110"/>
      <use x="654.882812" xlink:href="#DejaVuSans-111"/>
      <use x="716.064453" xlink:href="#DejaVuSans-32"/>
      <use x="747.851562" xlink:href="#DejaVuSans-105"/>
      <use x="775.634766" xlink:href="#DejaVuSans-110"/>
      <use x="839.013672" xlink:href="#DejaVuSans-99"/>
      <use x="893.994141" xlink:href="#DejaVuSans-101"/>
      <use x="955.517578" xlink:href="#DejaVuSans-110"/>
      <use x="1018.896484" xlink:href="#DejaVuSans-100"/>
      <use x="1082.373047" xlink:href="#DejaVuSans-105"/>
      <use x="1110.15625" xlink:href="#DejaVuSans-111"/>
      <use x="1171.337891" xlink:href="#DejaVuSans-32"/>
      <use x="1203.125" xlink:href="#DejaVuSans-40"/>
      <use x="1242.138672" xlink:href="#DejaVuSans-56"/>
      <use x="1305.761719" xlink:href="#DejaVuSans-52"/>
      <use x="1369.384766" xlink:href="#DejaVuSans-46"/>
      <use x="1401.171875" xlink:href="#DejaVuSans-53"/>
      <use x="1464.794922" xlink:href="#DejaVuSans-53"/>
      <use x="1528.417969" xlink:href="#DejaVuSans-37"/>
      <use x="1623.4375" xlink:href="#DejaVuSans-41"/>
     </g>
    </g>
    <g id="patch_104">
     <path d="M 410.522812 61.75375 
L 430.522812 61.75375 
L 430.522812 54.75375 
L 410.522812 54.75375 
z
" style="fill:#3ea447;stroke:#3ea447;stroke-linejoin:miter;"/>
    </g>
    <g id="text_3">
     <!-- Remanescente (15.45%) -->
     <defs>
      <path d="M 44.390625 34.1875 
Q 47.5625 33.109375 50.5625 29.59375 
Q 53.5625 26.078125 56.59375 19.921875 
L 66.609375 0 
L 56 0 
L 46.6875 18.703125 
Q 43.0625 26.03125 39.671875 28.421875 
Q 36.28125 30.8125 30.421875 30.8125 
L 19.671875 30.8125 
L 19.671875 0 
L 9.8125 0 
L 9.8125 72.90625 
L 32.078125 72.90625 
Q 44.578125 72.90625 50.734375 67.671875 
Q 56.890625 62.453125 56.890625 51.90625 
Q 56.890625 45.015625 53.6875 40.46875 
Q 50.484375 35.9375 44.390625 34.1875 
z
M 19.671875 64.796875 
L 19.671875 38.921875 
L 32.078125 38.921875 
Q 39.203125 38.921875 42.84375 42.21875 
Q 46.484375 45.515625 46.484375 51.90625 
Q 46.484375 58.296875 42.84375 61.546875 
Q 39.203125 64.796875 32.078125 64.796875 
z
" id="DejaVuSans-82"/>
      <path d="M 12.40625 8.296875 
L 28.515625 8.296875 
L 28.515625 63.921875 
L 10.984375 60.40625 
L 10.984375 69.390625 
L 28.421875 72.90625 
L 38.28125 72.90625 
L 38.28125 8.296875 
L 54.390625 8.296875 
L 54.390625 0 
L 12.40625 0 
z
" id="DejaVuSans-49"/>
     </defs>
     <g transform="translate(438.522812 61.75375)scale(0.1 -0.1)">
      <use xlink:href="#DejaVuSans-82"/>
      <use x="69.419922" xlink:href="#DejaVuSans-101"/>
      <use x="130.943359" xlink:href="#DejaVuSans-109"/>
      <use x="228.355469" xlink:href="#DejaVuSans-97"/>
      <use x="289.634766" xlink:href="#DejaVuSans-110"/>
      <use x="353.013672" xlink:href="#DejaVuSans-101"/>
      <use x="414.537109" xlink:href="#DejaVuSans-115"/>
      <use x="466.636719" xlink:href="#DejaVuSans-99"/>
      <use x="521.617188" xlink:href="#DejaVuSans-101"/>
      <use x="583.140625" xlink:href="#DejaVuSans-110"/>
      <use x="646.519531" xlink:href="#DejaVuSans-116"/>
      <use x="685.728516" xlink:href="#DejaVuSans-101"/>
      <use x="747.251953" xlink:href="#DejaVuSans-32"/>
      <use x="779.039062" xlink:href="#DejaVuSans-40"/>
      <use x="818.052734" xlink:href="#DejaVuSans-49"/>
      <use x="881.675781" xlink:href="#DejaVuSans-53"/>
      <use x="945.298828" xlink:href="#DejaVuSans-46"/>
      <use x="977.085938" xlink:href="#DejaVuSans-52"/>
      <use x="1040.708984" xlink:href="#DejaVuSans-53"/>
      <use x="1104.332031" xlink:href="#DejaVuSans-37"/>
      <use x="1199.351562" xlink:href="#DejaVuSans-41"/>
     </g>
    </g>
   </g>
  </g>
 </g>
 <defs>
  <clipPath id="p0bf7b191d1">
   <rect height="390.722812" width="390.722812" x="10.8" y="30.477188"/>
  </clipPath>
 </defs>
</svg>
