<svg class="marks" width="865" height="572" viewBox="0 0 865 572" version="1.1" xmlns="http://www.w3.org/2000/svg" xmlns:xlink="http://www.w3.org/1999/xlink"><g transform="translate(87,22)"><g class="mark-group role-frame root"><g transform="translate(0,0)"><path class="background" d="M0.5,0.5h680v500h-680Z" style="fill: none; stroke: #ddd;"></path><g><g class="mark-symbol role-mark marks"><path transform="translate(549.2307692307693,312.5)" d="M6.7175144212722016,0A6.7175144212722016,6.7175144212722016,0,1,1,-6.7175144212722016,0A6.7175144212722016,6.7175144212722016,0,1,1,6.7175144212722016,0" style="fill: #8c6d31; stroke-width: 2; opacity: 0.7;"></path><path transform="translate(601.5384615384615,312.5)" d="M6.7175144212722016,0A6.7175144212722016,6.7175144212722016,0,1,1,-6.7175144212722016,0A6.7175144212722016,6.7175144212722016,0,1,1,6.7175144212722016,0" style="fill: #d8b5a5; stroke-width: 2; opacity: 0.7;"></path><path transform="translate(26.15384615384619,62.5)" d="M6.7175144212722016,0A6.7175144212722016,6.7175144212722016,0,1,1,-6.7175144212722016,0A6.7175144212722016,6.7175144212722016,0,1,1,6.7175144212722016,0" style="fill: #d62729; stroke-width: 2; opacity: 0.7;"></path><path transform="translate(130.7692307692308,62.5)" d="M6.7175144212722016,0A6.7175144212722016,6.7175144212722016,0,1,1,-6.7175144212722016,0A6.7175144212722016,6.7175144212722016,0,1,1,6.7175144212722016,0" style="fill: #f58519; stroke-width: 2; opacity: 0.7;"></path><path transform="translate(130.7692307692308,62.5)" d="M6.7175144212722016,0A6.7175144212722016,6.7175144212722016,0,1,1,-6.7175144212722016,0A6.7175144212722016,6.7175144212722016,0,1,1,6.7175144212722016,0" style="fill: #d62729; stroke-width: 2; opacity: 0.7;"></path><path transform="translate(235.38461538461542,62.5)" d="M6.7175144212722016,0A6.7175144212722016,6.7175144212722016,0,1,1,-6.7175144212722016,0A6.7175144212722016,6.7175144212722016,0,1,1,6.7175144212722016,0" style="fill: #d95f03; stroke-width: 2; opacity: 0.7;"></path><path transform="translate(287.69230769230774,62.5)" d="M6.7175144212722016,0A6.7175144212722016,6.7175144212722016,0,1,1,-6.7175144212722016,0A6.7175144212722016,6.7175144212722016,0,1,1,6.7175144212722016,0" style="fill: #d8b5a5; stroke-width: 2; opacity: 0.7;"></path><path transform="translate(340,62.5)" d="M6.7175144212722016,0A6.7175144212722016,6.7175144212722016,0,1,1,-6.7175144212722016,0A6.7175144212722016,6.7175144212722016,0,1,1,6.7175144212722016,0" style="fill: #d95f03; stroke-width: 2; opacity: 0.7;"></path><path transform="translate(392.3076923076923,62.5)" d="M9.5,0A9.5,9.5,0,1,1,-9.5,0A9.5,9.5,0,1,1,9.5,0" style="fill: #d95f03; stroke-width: 2; opacity: 0.7;"></path><path transform="translate(26.15384615384619,187.5)" d="M6.7175144212722016,0A6.7175144212722016,6.7175144212722016,0,1,1,-6.7175144212722016,0A6.7175144212722016,6.7175144212722016,0,1,1,6.7175144212722016,0" style="fill: #79706e; stroke-width: 2; opacity: 0.7;"></path><path transform="translate(78.4615384615385,187.5)" d="M9.5,0A9.5,9.5,0,1,1,-9.5,0A9.5,9.5,0,1,1,9.5,0" style="fill: #d95f02; stroke-width: 2; opacity: 0.7;"></path><path transform="translate(130.7692307692308,187.5)" d="M6.7175144212722016,0A6.7175144212722016,6.7175144212722016,0,1,1,-6.7175144212722016,0A6.7175144212722016,6.7175144212722016,0,1,1,6.7175144212722016,0" style="fill: #d62729; stroke-width: 2; opacity: 0.7;"></path><path transform="translate(183.0769230769231,187.5)" d="M6.7175144212722016,0A6.7175144212722016,6.7175144212722016,0,1,1,-6.7175144212722016,0A6.7175144212722016,6.7175144212722016,0,1,1,6.7175144212722016,0" style="fill: #d95f02; stroke-width: 2; opacity: 0.7;"></path><path transform="translate(496.92307692307696,187.5)" d="M6.7175144212722016,0A6.7175144212722016,6.7175144212722016,0,1,1,-6.7175144212722016,0A6.7175144212722016,6.7175144212722016,0,1,1,6.7175144212722016,0" style="fill: #f58519; stroke-width: 2; opacity: 0.7;"></path><path transform="translate(653.8461538461538,187.5)" d="M6.7175144212722016,0A6.7175144212722016,6.7175144212722016,0,1,1,-6.7175144212722016,0A6.7175144212722016,6.7175144212722016,0,1,1,6.7175144212722016,0" style="fill: #79706e; stroke-width: 2; opacity: 0.7;"></path><path transform="translate(26.15384615384619,437.5)" d="M6.7175144212722016,0A6.7175144212722016,6.7175144212722016,0,1,1,-6.7175144212722016,0A6.7175144212722016,6.7175144212722016,0,1,1,6.7175144212722016,0" style="fill: #bab0ac; stroke-width: 2; opacity: 0.7;"></path><path transform="translate(444.61538461538464,437.5)" d="M6.7175144212722016,0A6.7175144212722016,6.7175144212722016,0,1,1,-6.7175144212722016,0A6.7175144212722016,6.7175144212722016,0,1,1,6.7175144212722016,0" style="fill: #d95f02; stroke-width: 2; opacity: 0.7;"></path></g><g class="mark-group role-legend"><g transform="translate(698,0)"><path class="background" d="M0,0h75v118h-75Z" style="pointer-events: none; fill: none;"></path><g><g class="mark-group role-legend-entry"><g transform="translate(0,16)"><path class="background" d="M0,0h0v0h0Z" style="pointer-events: none; fill: none;"></path><g><g class="mark-group role-scope"><g transform="translate(0,0)"><path class="background" d="M0,0h74.369140625v11h-74.369140625Z" style="pointer-events: none; fill: none; opacity: 1;"></path><g><g class="mark-symbol role-legend-symbol" style="pointer-events: none;"><path transform="translate(6,6)" d="M5,0A5,5,0,1,1,-5,0A5,5,0,1,1,5,0" style="fill: #8c6d31; stroke-width: 1.5; opacity: 0.7;"></path></g><g class="mark-text role-legend-label" style="pointer-events: none;"><text text-anchor="start" transform="translate(16,9)" style="font-family: sans-serif; font-size: 10px; fill: #000; opacity: 1;">Topotipo</text></g></g><path class="foreground" d="" style="pointer-events: none; display: none; fill: none;"></path></g><g transform="translate(0,13)"><path class="background" d="M0,0h74.369140625v11h-74.369140625Z" style="pointer-events: none; fill: none; opacity: 1;"></path><g><g class="mark-symbol role-legend-symbol" style="pointer-events: none;"><path transform="translate(6,6)" d="M5,0A5,5,0,1,1,-5,0A5,5,0,1,1,5,0" style="fill: #d95f02; stroke-width: 1.5; opacity: 0.7;"></path></g><g class="mark-text role-legend-label" style="pointer-events: none;"><text text-anchor="start" transform="translate(16,9)" style="font-family: sans-serif; font-size: 10px; fill: #000; opacity: 1;">Neotipo</text></g></g><path class="foreground" d="" style="pointer-events: none; display: none; fill: none;"></path></g><g transform="translate(0,26)"><path class="background" d="M0,0h74.369140625v11h-74.369140625Z" style="pointer-events: none; fill: none; opacity: 1;"></path><g><g class="mark-symbol role-legend-symbol" style="pointer-events: none;"><path transform="translate(6,6)" d="M5,0A5,5,0,1,1,-5,0A5,5,0,1,1,5,0" style="fill: #79706e; stroke-width: 1.5; opacity: 0.7;"></path></g><g class="mark-text role-legend-label" style="pointer-events: none;"><text text-anchor="start" transform="translate(16,9)" style="font-family: sans-serif; font-size: 10px; fill: #000; opacity: 1;">Tipo</text></g></g><path class="foreground" d="" style="pointer-events: none; display: none; fill: none;"></path></g><g transform="translate(0,39)"><path class="background" d="M0,0h74.369140625v11h-74.369140625Z" style="pointer-events: none; fill: none; opacity: 1;"></path><g><g class="mark-symbol role-legend-symbol" style="pointer-events: none;"><path transform="translate(6,6)" d="M5,0A5,5,0,1,1,-5,0A5,5,0,1,1,5,0" style="fill: #d95f03; stroke-width: 1.5; opacity: 0.7;"></path></g><g class="mark-text role-legend-label" style="pointer-events: none;"><text text-anchor="start" transform="translate(16,9)" style="font-family: sans-serif; font-size: 10px; fill: #000; opacity: 1;">Paralectotipo</text></g></g><path class="foreground" d="" style="pointer-events: none; display: none; fill: none;"></path></g><g transform="translate(0,52)"><path class="background" d="M0,0h74.369140625v11h-74.369140625Z" style="pointer-events: none; fill: none; opacity: 1;"></path><g><g class="mark-symbol role-legend-symbol" style="pointer-events: none;"><path transform="translate(6,6)" d="M5,0A5,5,0,1,1,-5,0A5,5,0,1,1,5,0" style="fill: #bab0ac; stroke-width: 1.5; opacity: 0.7;"></path></g><g class="mark-text role-legend-label" style="pointer-events: none;"><text text-anchor="start" transform="translate(16,9)" style="font-family: sans-serif; font-size: 10px; fill: #000; opacity: 1;">Co-tipo</text></g></g><path class="foreground" d="" style="pointer-events: none; display: none; fill: none;"></path></g><g transform="translate(0,65)"><path class="background" d="M0,0h74.369140625v11h-74.369140625Z" style="pointer-events: none; fill: none; opacity: 1;"></path><g><g class="mark-symbol role-legend-symbol" style="pointer-events: none;"><path transform="translate(6,6)" d="M5,0A5,5,0,1,1,-5,0A5,5,0,1,1,5,0" style="fill: #f58519; stroke-width: 1.5; opacity: 0.7;"></path></g><g class="mark-text role-legend-label" style="pointer-events: none;"><text text-anchor="start" transform="translate(16,9)" style="font-family: sans-serif; font-size: 10px; fill: #000; opacity: 1;">Lectotipo</text></g></g><path class="foreground" d="" style="pointer-events: none; display: none; fill: none;"></path></g><g transform="translate(0,78)"><path class="background" d="M0,0h74.369140625v11h-74.369140625Z" style="pointer-events: none; fill: none; opacity: 1;"></path><g><g class="mark-symbol role-legend-symbol" style="pointer-events: none;"><path transform="translate(6,6)" d="M5,0A5,5,0,1,1,-5,0A5,5,0,1,1,5,0" style="fill: #d62729; stroke-width: 1.5; opacity: 0.7;"></path></g><g class="mark-text role-legend-label" style="pointer-events: none;"><text text-anchor="start" transform="translate(16,9)" style="font-family: sans-serif; font-size: 10px; fill: #000; opacity: 1;">Sintipo</text></g></g><path class="foreground" d="" style="pointer-events: none; display: none; fill: none;"></path></g><g transform="translate(0,91)"><path class="background" d="M0,0h74.369140625v11h-74.369140625Z" style="pointer-events: none; fill: none; opacity: 1;"></path><g><g class="mark-symbol role-legend-symbol" style="pointer-events: none;"><path transform="translate(6,6)" d="M5,0A5,5,0,1,1,-5,0A5,5,0,1,1,5,0" style="fill: #d8b5a5; stroke-width: 1.5; opacity: 0.7;"></path></g><g class="mark-text role-legend-label" style="pointer-events: none;"><text text-anchor="start" transform="translate(16,9)" style="font-family: sans-serif; font-size: 10px; fill: #000; opacity: 1;">Material tipo</text></g></g><path class="foreground" d="" style="pointer-events: none; display: none; fill: none;"></path></g></g></g><path class="foreground" d="" style="pointer-events: none; display: none; fill: none;"></path></g></g><g class="mark-text role-legend-title" style="pointer-events: none;"><text text-anchor="start" transform="translate(0,9)" style="font-family: sans-serif; font-size: 11px; font-weight: bold; fill: #000; opacity: 1;">type</text></g></g><path class="foreground" d="" style="pointer-events: none; display: none; fill: none;"></path></g></g><g class="mark-group role-legend"><g transform="translate(698,126)"><path class="background" d="M0,0h39v94h-39Z" style="pointer-events: none; fill: none;"></path><g><g class="mark-group role-legend-entry"><g transform="translate(0,16)"><path class="background" d="M0,0h0v0h0Z" style="pointer-events: none; fill: none;"></path><g><g class="mark-group role-scope"><g transform="translate(0,0)"><path class="background" d="M0,0h38.9013671875v11.75h-38.9013671875Z" style="pointer-events: none; fill: none; opacity: 1;"></path><g><g class="mark-symbol role-legend-symbol" style="pointer-events: none;"><path transform="translate(10.5,5.5)" d="M4.75,0A4.75,4.75,0,1,1,-4.75,0A4.75,4.75,0,1,1,4.75,0" style="fill: black; fill-opacity: 0.7; stroke: none; stroke-width: 1.5; opacity: 0.7;"></path></g><g class="mark-text role-legend-label" style="pointer-events: none;"><text text-anchor="start" transform="translate(25,8.5)" style="font-family: sans-serif; font-size: 10px; fill: #000; opacity: 1;">0.5</text></g></g><path class="foreground" d="" style="pointer-events: none; display: none; fill: none;"></path></g><g transform="translate(0,15)"><path class="background" d="M0,0h38.9013671875v15.717514421272202h-38.9013671875Z" style="pointer-events: none; fill: none; opacity: 1;"></path><g><g class="mark-symbol role-legend-symbol" style="pointer-events: none;"><path transform="translate(10.5,7.5)" d="M6.7175144212722016,0A6.7175144212722016,6.7175144212722016,0,1,1,-6.7175144212722016,0A6.7175144212722016,6.7175144212722016,0,1,1,6.7175144212722016,0" style="fill: black; fill-opacity: 0.7; stroke: none; stroke-width: 1.5; opacity: 0.7;"></path></g><g class="mark-text role-legend-label" style="pointer-events: none;"><text text-anchor="start" transform="translate(25,10.5)" style="font-family: sans-serif; font-size: 10px; fill: #000; opacity: 1;">1.0</text></g></g><path class="foreground" d="" style="pointer-events: none; display: none; fill: none;"></path></g><g transform="translate(0,34)"><path class="background" d="M0,0h38.9013671875v18.727241335952165h-38.9013671875Z" style="pointer-events: none; fill: none; opacity: 1;"></path><g><g class="mark-symbol role-legend-symbol" style="pointer-events: none;"><path transform="translate(10.5,9)" d="M8.227241335952167,0A8.227241335952167,8.227241335952167,0,1,1,-8.227241335952167,0A8.227241335952167,8.227241335952167,0,1,1,8.227241335952167,0" style="fill: black; fill-opacity: 0.7; stroke: none; stroke-width: 1.5; opacity: 0.7;"></path></g><g class="mark-text role-legend-label" style="pointer-events: none;"><text text-anchor="start" transform="translate(25,12)" style="font-family: sans-serif; font-size: 10px; fill: #000; opacity: 1;">1.5</text></g></g><path class="foreground" d="" style="pointer-events: none; display: none; fill: none;"></path></g><g transform="translate(0,56)"><path class="background" d="M0,0h38.9013671875v21.5h-38.9013671875Z" style="pointer-events: none; fill: none; opacity: 1;"></path><g><g class="mark-symbol role-legend-symbol" style="pointer-events: none;"><path transform="translate(10.5,10.5)" d="M9.5,0A9.5,9.5,0,1,1,-9.5,0A9.5,9.5,0,1,1,9.5,0" style="fill: black; fill-opacity: 0.7; stroke: none; stroke-width: 1.5; opacity: 0.7;"></path></g><g class="mark-text role-legend-label" style="pointer-events: none;"><text text-anchor="start" transform="translate(25,13.5)" style="font-family: sans-serif; font-size: 10px; fill: #000; opacity: 1;">2.0</text></g></g><path class="foreground" d="" style="pointer-events: none; display: none; fill: none;"></path></g></g></g><path class="foreground" d="" style="pointer-events: none; display: none; fill: none;"></path></g></g><g class="mark-text role-legend-title" style="pointer-events: none;"><text text-anchor="start" transform="translate(0,9)" style="font-family: sans-serif; font-size: 11px; font-weight: bold; fill: #000; opacity: 1;">count</text></g></g><path class="foreground" d="" style="pointer-events: none; display: none; fill: none;"></path></g></g><g class="mark-group role-title"><g transform="translate(340,-17)"><path class="background" d="M0,0h0v0h0Z" style="pointer-events: none; fill: none;"></path><g><g class="mark-text role-title-text" style="pointer-events: none;"><text text-anchor="middle" transform="translate(0,10)" style="font-family: sans-serif; font-size: 13px; font-weight: bold; fill: #000; opacity: 1;">Number of types of each order per year</text></g></g><path class="foreground" d="" style="pointer-events: none; display: none; fill: none;"></path></g></g><g class="mark-group role-axis"><g transform="translate(0.5,500.5)"><path class="background" d="M0,0h0v0h0Z" style="pointer-events: none; fill: none;"></path><g><g class="mark-rule role-axis-tick" style="pointer-events: none;"><line transform="translate(26,0)" x2="0" y2="5" style="fill: none; stroke: #888; stroke-width: 1; opacity: 1;"></line><line transform="translate(78,0)" x2="0" y2="5" style="fill: none; stroke: #888; stroke-width: 1; opacity: 1;"></line><line transform="translate(131,0)" x2="0" y2="5" style="fill: none; stroke: #888; stroke-width: 1; opacity: 1;"></line><line transform="translate(183,0)" x2="0" y2="5" style="fill: none; stroke: #888; stroke-width: 1; opacity: 1;"></line><line transform="translate(235,0)" x2="0" y2="5" style="fill: none; stroke: #888; stroke-width: 1; opacity: 1;"></line><line transform="translate(288,0)" x2="0" y2="5" style="fill: none; stroke: #888; stroke-width: 1; opacity: 1;"></line><line transform="translate(340,0)" x2="0" y2="5" style="fill: none; stroke: #888; stroke-width: 1; opacity: 1;"></line><line transform="translate(392,0)" x2="0" y2="5" style="fill: none; stroke: #888; stroke-width: 1; opacity: 1;"></line><line transform="translate(445,0)" x2="0" y2="5" style="fill: none; stroke: #888; stroke-width: 1; opacity: 1;"></line><line transform="translate(497,0)" x2="0" y2="5" style="fill: none; stroke: #888; stroke-width: 1; opacity: 1;"></line><line transform="translate(549,0)" x2="0" y2="5" style="fill: none; stroke: #888; stroke-width: 1; opacity: 1;"></line><line transform="translate(602,0)" x2="0" y2="5" style="fill: none; stroke: #888; stroke-width: 1; opacity: 1;"></line><line transform="translate(654,0)" x2="0" y2="5" style="fill: none; stroke: #888; stroke-width: 1; opacity: 1;"></line></g><g class="mark-text role-axis-label" style="pointer-events: none;"><text text-anchor="end" transform="translate(26.15384615384619,7) rotate(270) translate(0,3)" style="font-family: sans-serif; font-size: 10px; fill: #000; opacity: 1;">1903</text><text text-anchor="end" transform="translate(78.4615384615385,7) rotate(270) translate(0,3)" style="font-family: sans-serif; font-size: 10px; fill: #000; opacity: 1;">1955</text><text text-anchor="end" transform="translate(130.7692307692308,7) rotate(270) translate(0,3)" style="font-family: sans-serif; font-size: 10px; fill: #000; opacity: 1;">1966</text><text text-anchor="end" transform="translate(183.0769230769231,7) rotate(270) translate(0,3)" style="font-family: sans-serif; font-size: 10px; fill: #000; opacity: 1;">1971</text><text text-anchor="end" transform="translate(235.38461538461542,7) rotate(270) translate(0,3)" style="font-family: sans-serif; font-size: 10px; fill: #000; opacity: 1;">1979</text><text text-anchor="end" transform="translate(287.69230769230774,7) rotate(270) translate(0,3)" style="font-family: sans-serif; font-size: 10px; fill: #000; opacity: 1;">1986</text><text text-anchor="end" transform="translate(340,7) rotate(270) translate(0,3)" style="font-family: sans-serif; font-size: 10px; fill: #000; opacity: 1;">1991</text><text text-anchor="end" transform="translate(392.3076923076923,7) rotate(270) translate(0,3)" style="font-family: sans-serif; font-size: 10px; fill: #000; opacity: 1;">1995</text><text text-anchor="end" transform="translate(444.61538461538464,7) rotate(270) translate(0,3)" style="font-family: sans-serif; font-size: 10px; fill: #000; opacity: 1;">2002</text><text text-anchor="end" transform="translate(496.92307692307696,7) rotate(270) translate(0,3)" style="font-family: sans-serif; font-size: 10px; fill: #000; opacity: 1;">2006</text><text text-anchor="end" transform="translate(549.2307692307693,7) rotate(270) translate(0,3)" style="font-family: sans-serif; font-size: 10px; fill: #000; opacity: 1;">2008</text><text text-anchor="end" transform="translate(601.5384615384615,7) rotate(270) translate(0,3)" style="font-family: sans-serif; font-size: 10px; fill: #000; opacity: 1;">2012</text><text text-anchor="end" transform="translate(653.8461538461538,7) rotate(270) translate(0,3)" style="font-family: sans-serif; font-size: 10px; fill: #000; opacity: 1;">2013</text></g><g class="mark-rule role-axis-domain" style="pointer-events: none;"><line transform="translate(0,0)" x2="680" y2="0" style="fill: none; stroke: #888; stroke-width: 1; opacity: 1;"></line></g><g class="mark-text role-axis-title" style="pointer-events: none;"><text text-anchor="middle" transform="translate(340,42.24609375)" style="font-family: sans-serif; font-size: 11px; font-weight: bold; fill: #000; opacity: 1;">Year</text></g></g><path class="foreground" d="" style="pointer-events: none; display: none; fill: none;"></path></g></g><g class="mark-group role-axis"><g transform="translate(0.5,0.5)"><path class="background" d="M0,0h0v0h0Z" style="pointer-events: none; fill: none;"></path><g><g class="mark-rule role-axis-tick" style="pointer-events: none;"><line transform="translate(0,63)" x2="-5" y2="0" style="fill: none; stroke: #888; stroke-width: 1; opacity: 1;"></line><line transform="translate(0,188)" x2="-5" y2="0" style="fill: none; stroke: #888; stroke-width: 1; opacity: 1;"></line><line transform="translate(0,313)" x2="-5" y2="0" style="fill: none; stroke: #888; stroke-width: 1; opacity: 1;"></line><line transform="translate(0,438)" x2="-5" y2="0" style="fill: none; stroke: #888; stroke-width: 1; opacity: 1;"></line></g><g class="mark-text role-axis-label" style="pointer-events: none;"><text text-anchor="end" transform="translate(-7,65.5)" style="font-family: sans-serif; font-size: 10px; fill: #000; opacity: 1;">Decapoda</text><text text-anchor="end" transform="translate(-7,190.5)" style="font-family: sans-serif; font-size: 10px; fill: #000; opacity: 1;">Isopoda</text><text text-anchor="end" transform="translate(-7,315.5)" style="font-family: sans-serif; font-size: 10px; fill: #000; opacity: 1;">Amphipoda</text><text text-anchor="end" transform="translate(-7,440.5)" style="font-family: sans-serif; font-size: 10px; fill: #000; opacity: 1;">Stomatopoda</text></g><g class="mark-rule role-axis-domain" style="pointer-events: none;"><line transform="translate(0,0)" x2="0" y2="500" style="fill: none; stroke: #888; stroke-width: 1; opacity: 1;"></line></g><g class="mark-text role-axis-title" style="pointer-events: none;"><text text-anchor="middle" transform="translate(-70.4873046875,250) rotate(-90) translate(0,-2)" style="font-family: sans-serif; font-size: 11px; font-weight: bold; fill: #000; opacity: 1;">Order</text></g></g><path class="foreground" d="" style="pointer-events: none; display: none; fill: none;"></path></g></g></g><path class="foreground" d="" style="display: none; fill: none;"></path></g></g></g></svg>