<svg class="marks" width="921" height="482" viewBox="0 0 921 482" version="1.1" xmlns="http://www.w3.org/2000/svg" xmlns:xlink="http://www.w3.org/1999/xlink"><g transform="translate(53,32)"><g class="mark-group role-frame root"><g transform="translate(0,0)"><path class="background" d="M0.5,0.5h800v400h-800Z" style="fill: none; stroke: #ddd;"></path><g><g class="mark-group role-axis"><g transform="translate(0.5,0.5)"><path class="background" d="M0,0h0v0h0Z" style="pointer-events: none; fill: none;"></path><g><g class="mark-rule role-axis-grid" style="pointer-events: none;"><line transform="translate(0,400)" x2="800" y2="0" style="fill: none; stroke: #ddd; stroke-width: 1; opacity: 1;"></line><line transform="translate(0,364)" x2="800" y2="0" style="fill: none; stroke: #ddd; stroke-width: 1; opacity: 1;"></line><line transform="translate(0,327)" x2="800" y2="0" style="fill: none; stroke: #ddd; stroke-width: 1; opacity: 1;"></line><line transform="translate(0,291)" x2="800" y2="0" style="fill: none; stroke: #ddd; stroke-width: 1; opacity: 1;"></line><line transform="translate(0,255)" x2="800" y2="0" style="fill: none; stroke: #ddd; stroke-width: 1; opacity: 1;"></line><line transform="translate(0,218)" x2="800" y2="0" style="fill: none; stroke: #ddd; stroke-width: 1; opacity: 1;"></line><line transform="translate(0,182)" x2="800" y2="0" style="fill: none; stroke: #ddd; stroke-width: 1; opacity: 1;"></line><line transform="translate(0,145)" x2="800" y2="0" style="fill: none; stroke: #ddd; stroke-width: 1; opacity: 1;"></line><line transform="translate(0,109)" x2="800" y2="0" style="fill: none; stroke: #ddd; stroke-width: 1; opacity: 1;"></line><line transform="translate(0,73)" x2="800" y2="0" style="fill: none; stroke: #ddd; stroke-width: 1; opacity: 1;"></line><line transform="translate(0,36)" x2="800" y2="0" style="fill: none; stroke: #ddd; stroke-width: 1; opacity: 1;"></line><line transform="translate(0,0)" x2="800" y2="0" style="fill: none; stroke: #ddd; stroke-width: 1; opacity: 1;"></line></g></g><path class="foreground" d="" style="pointer-events: none; display: none; fill: none;"></path></g></g><g class="mark-symbol role-mark marks"><path transform="translate(5.263157894736821,0)" d="M1.828275852433815,0A1.828275852433815,1.828275852433815,0,1,1,-1.828275852433815,0A1.828275852433815,1.828275852433815,0,1,1,1.828275852433815,0" style="fill: #4daf4a; stroke-width: 2; opacity: 0.7;"></path><path transform="translate(15.789473684210506,0)" d="M1.828275852433815,0A1.828275852433815,1.828275852433815,0,1,1,-1.828275852433815,0A1.828275852433815,1.828275852433815,0,1,1,1.828275852433815,0" style="fill: #4daf4a; stroke-width: 2; opacity: 0.7;"></path><path transform="translate(26.31578947368419,0)" d="M1.828275852433815,0A1.828275852433815,1.828275852433815,0,1,1,-1.828275852433815,0A1.828275852433815,1.828275852433815,0,1,1,1.828275852433815,0" style="fill: #4daf4a; stroke-width: 2; opacity: 0.7;"></path><path transform="translate(36.842105263157876,0)" d="M1.828275852433815,0A1.828275852433815,1.828275852433815,0,1,1,-1.828275852433815,0A1.828275852433815,1.828275852433815,0,1,1,1.828275852433815,0" style="fill: #4daf4a; stroke-width: 2; opacity: 0.7;"></path><path transform="translate(47.36842105263156,0)" d="M1.828275852433815,0A1.828275852433815,1.828275852433815,0,1,1,-1.828275852433815,0A1.828275852433815,1.828275852433815,0,1,1,1.828275852433815,0" style="fill: #4daf4a; stroke-width: 2; opacity: 0.7;"></path><path transform="translate(57.894736842105246,0)" d="M2.5855725062711326,0A2.5855725062711326,2.5855725062711326,0,1,1,-2.5855725062711326,0A2.5855725062711326,2.5855725062711326,0,1,1,2.5855725062711326,0" style="fill: #4daf4a; stroke-width: 2; opacity: 0.7;"></path><path transform="translate(68.42105263157893,0)" d="M1.828275852433815,0A1.828275852433815,1.828275852433815,0,1,1,-1.828275852433815,0A1.828275852433815,1.828275852433815,0,1,1,1.828275852433815,0" style="fill: #4daf4a; stroke-width: 2; opacity: 0.7;"></path><path transform="translate(78.94736842105262,0)" d="M1.828275852433815,0A1.828275852433815,1.828275852433815,0,1,1,-1.828275852433815,0A1.828275852433815,1.828275852433815,0,1,1,1.828275852433815,0" style="fill: #4daf4a; stroke-width: 2; opacity: 0.7;"></path><path transform="translate(89.4736842105263,0)" d="M1.828275852433815,0A1.828275852433815,1.828275852433815,0,1,1,-1.828275852433815,0A1.828275852433815,1.828275852433815,0,1,1,1.828275852433815,0" style="fill: #4daf4a; stroke-width: 2; opacity: 0.7;"></path><path transform="translate(99.99999999999999,0)" d="M2.5855725062711326,0A2.5855725062711326,2.5855725062711326,0,1,1,-2.5855725062711326,0A2.5855725062711326,2.5855725062711326,0,1,1,2.5855725062711326,0" style="fill: #4daf4a; stroke-width: 2; opacity: 0.7;"></path><path transform="translate(110.52631578947367,0)" d="M1.828275852433815,0A1.828275852433815,1.828275852433815,0,1,1,-1.828275852433815,0A1.828275852433815,1.828275852433815,0,1,1,1.828275852433815,0" style="fill: #4daf4a; stroke-width: 2; opacity: 0.7;"></path><path transform="translate(121.05263157894736,0)" d="M1.828275852433815,0A1.828275852433815,1.828275852433815,0,1,1,-1.828275852433815,0A1.828275852433815,1.828275852433815,0,1,1,1.828275852433815,0" style="fill: #4daf4a; stroke-width: 2; opacity: 0.7;"></path><path transform="translate(131.57894736842104,0)" d="M2.5855725062711326,0A2.5855725062711326,2.5855725062711326,0,1,1,-2.5855725062711326,0A2.5855725062711326,2.5855725062711326,0,1,1,2.5855725062711326,0" style="fill: #4daf4a; stroke-width: 2; opacity: 0.7;"></path><path transform="translate(142.10526315789474,0)" d="M4.4783429475148,0A4.4783429475148,4.4783429475148,0,1,1,-4.4783429475148,0A4.4783429475148,4.4783429475148,0,1,1,4.4783429475148,0" style="fill: #4daf4a; stroke-width: 2; opacity: 0.7;"></path><path transform="translate(142.10526315789474,365.74545454545455)" d="M1.828275852433815,0A1.828275852433815,1.828275852433815,0,1,1,-1.828275852433815,0A1.828275852433815,1.828275852433815,0,1,1,1.828275852433815,0" style="fill: #4daf4a; stroke-width: 2; opacity: 0.7;"></path><path transform="translate(152.6315789473684,0)" d="M3.1666666666666665,0A3.1666666666666665,3.1666666666666665,0,1,1,-3.1666666666666665,0A3.1666666666666665,3.1666666666666665,0,1,1,3.1666666666666665,0" style="fill: #4daf4a; stroke-width: 2; opacity: 0.7;"></path><path transform="translate(152.6315789473684,359.27272727272725)" d="M1.828275852433815,0A1.828275852433815,1.828275852433815,0,1,1,-1.828275852433815,0A1.828275852433815,1.828275852433815,0,1,1,1.828275852433815,0" style="fill: #4daf4a; stroke-width: 2; opacity: 0.7;"></path><path transform="translate(163.15789473684208,0)" d="M3.65655170486763,0A3.65655170486763,3.65655170486763,0,1,1,-3.65655170486763,0A3.65655170486763,3.65655170486763,0,1,1,3.65655170486763,0" style="fill: #4daf4a; stroke-width: 2; opacity: 0.7;"></path><path transform="translate(163.15789473684208,184)" d="M1.828275852433815,0A1.828275852433815,1.828275852433815,0,1,1,-1.828275852433815,0A1.828275852433815,1.828275852433815,0,1,1,1.828275852433815,0" style="fill: #4daf4a; stroke-width: 2; opacity: 0.7;"></path><path transform="translate(173.68421052631578,0)" d="M2.5855725062711326,0A2.5855725062711326,2.5855725062711326,0,1,1,-2.5855725062711326,0A2.5855725062711326,2.5855725062711326,0,1,1,2.5855725062711326,0" style="fill: #4daf4a; stroke-width: 2; opacity: 0.7;"></path><path transform="translate(184.21052631578948,0)" d="M3.1666666666666665,0A3.1666666666666665,3.1666666666666665,0,1,1,-3.1666666666666665,0A3.1666666666666665,3.1666666666666665,0,1,1,3.1666666666666665,0" style="fill: #4daf4a; stroke-width: 2; opacity: 0.7;"></path><path transform="translate(194.73684210526315,0)" d="M3.1666666666666665,0A3.1666666666666665,3.1666666666666665,0,1,1,-3.1666666666666665,0A3.1666666666666665,3.1666666666666665,0,1,1,3.1666666666666665,0" style="fill: #4daf4a; stroke-width: 2; opacity: 0.7;"></path><path transform="translate(205.26315789473682,0)" d="M2.5855725062711326,0A2.5855725062711326,2.5855725062711326,0,1,1,-2.5855725062711326,0A2.5855725062711326,2.5855725062711326,0,1,1,2.5855725062711326,0" style="fill: #4daf4a; stroke-width: 2; opacity: 0.7;"></path><path transform="translate(215.78947368421052,0)" d="M2.5855725062711326,0A2.5855725062711326,2.5855725062711326,0,1,1,-2.5855725062711326,0A2.5855725062711326,2.5855725062711326,0,1,1,2.5855725062711326,0" style="fill: #4daf4a; stroke-width: 2; opacity: 0.7;"></path><path transform="translate(226.31578947368422,0)" d="M4.837163233564498,0A4.837163233564498,4.837163233564498,0,1,1,-4.837163233564498,0A4.837163233564498,4.837163233564498,0,1,1,4.837163233564498,0" style="fill: #4daf4a; stroke-width: 2; opacity: 0.7;"></path><path transform="translate(236.8421052631579,0)" d="M2.5855725062711326,0A2.5855725062711326,2.5855725062711326,0,1,1,-2.5855725062711326,0A2.5855725062711326,2.5855725062711326,0,1,1,2.5855725062711326,0" style="fill: #4daf4a; stroke-width: 2; opacity: 0.7;"></path><path transform="translate(247.36842105263156,0)" d="M2.5855725062711326,0A2.5855725062711326,2.5855725062711326,0,1,1,-2.5855725062711326,0A2.5855725062711326,2.5855725062711326,0,1,1,2.5855725062711326,0" style="fill: #4daf4a; stroke-width: 2; opacity: 0.7;"></path><path transform="translate(247.36842105263156,0.8727272727272728)" d="M1.828275852433815,0A1.828275852433815,1.828275852433815,0,1,1,-1.828275852433815,0A1.828275852433815,1.828275852433815,0,1,1,1.828275852433815,0" style="fill: #4daf4a; stroke-width: 2; opacity: 0.7;"></path><path transform="translate(247.36842105263156,1.309090909090909)" d="M1.828275852433815,0A1.828275852433815,1.828275852433815,0,1,1,-1.828275852433815,0A1.828275852433815,1.828275852433815,0,1,1,1.828275852433815,0" style="fill: #4daf4a; stroke-width: 2; opacity: 0.7;"></path><path transform="translate(247.36842105263156,1.4545454545454546)" d="M1.828275852433815,0A1.828275852433815,1.828275852433815,0,1,1,-1.828275852433815,0A1.828275852433815,1.828275852433815,0,1,1,1.828275852433815,0" style="fill: #4daf4a; stroke-width: 2; opacity: 0.7;"></path><path transform="translate(247.36842105263156,0.2181818181818182)" d="M1.828275852433815,0A1.828275852433815,1.828275852433815,0,1,1,-1.828275852433815,0A1.828275852433815,1.828275852433815,0,1,1,1.828275852433815,0" style="fill: #4daf4a; stroke-width: 2; opacity: 0.7;"></path><path transform="translate(247.36842105263156,0.4363636363636364)" d="M1.828275852433815,0A1.828275852433815,1.828275852433815,0,1,1,-1.828275852433815,0A1.828275852433815,1.828275852433815,0,1,1,1.828275852433815,0" style="fill: #4daf4a; stroke-width: 2; opacity: 0.7;"></path><path transform="translate(257.89473684210526,0)" d="M1.828275852433815,0A1.828275852433815,1.828275852433815,0,1,1,-1.828275852433815,0A1.828275852433815,1.828275852433815,0,1,1,1.828275852433815,0" style="fill: #4daf4a; stroke-width: 2; opacity: 0.7;"></path><path transform="translate(257.89473684210526,0.07272727272727272)" d="M1.828275852433815,0A1.828275852433815,1.828275852433815,0,1,1,-1.828275852433815,0A1.828275852433815,1.828275852433815,0,1,1,1.828275852433815,0" style="fill: #4daf4a; stroke-width: 2; opacity: 0.7;"></path><path transform="translate(257.89473684210526,1.4545454545454546)" d="M1.828275852433815,0A1.828275852433815,1.828275852433815,0,1,1,-1.828275852433815,0A1.828275852433815,1.828275852433815,0,1,1,1.828275852433815,0" style="fill: #4daf4a; stroke-width: 2; opacity: 0.7;"></path><path transform="translate(257.89473684210526,0.2181818181818182)" d="M1.828275852433815,0A1.828275852433815,1.828275852433815,0,1,1,-1.828275852433815,0A1.828275852433815,1.828275852433815,0,1,1,1.828275852433815,0" style="fill: #4daf4a; stroke-width: 2; opacity: 0.7;"></path><path transform="translate(257.89473684210526,0.4363636363636364)" d="M2.5855725062711326,0A2.5855725062711326,2.5855725062711326,0,1,1,-2.5855725062711326,0A2.5855725062711326,2.5855725062711326,0,1,1,2.5855725062711326,0" style="fill: #4daf4a; stroke-width: 2; opacity: 0.7;"></path><path transform="translate(257.89473684210526,0.4727272727272728)" d="M1.828275852433815,0A1.828275852433815,1.828275852433815,0,1,1,-1.828275852433815,0A1.828275852433815,1.828275852433815,0,1,1,1.828275852433815,0" style="fill: #4daf4a; stroke-width: 2; opacity: 0.7;"></path><path transform="translate(268.42105263157896,0)" d="M3.65655170486763,0A3.65655170486763,3.65655170486763,0,1,1,-3.65655170486763,0A3.65655170486763,3.65655170486763,0,1,1,3.65655170486763,0" style="fill: #4daf4a; stroke-width: 2; opacity: 0.7;"></path><path transform="translate(278.94736842105266,0)" d="M6.333333333333333,0A6.333333333333333,6.333333333333333,0,1,1,-6.333333333333333,0A6.333333333333333,6.333333333333333,0,1,1,6.333333333333333,0" style="fill: #4daf4a; stroke-width: 2; opacity: 0.7;"></path><path transform="translate(289.4736842105263,0)" d="M4.837163233564498,0A4.837163233564498,4.837163233564498,0,1,1,-4.837163233564498,0A4.837163233564498,4.837163233564498,0,1,1,4.837163233564498,0" style="fill: #4daf4a; stroke-width: 2; opacity: 0.7;"></path><path transform="translate(300,0)" d="M4.4783429475148,0A4.4783429475148,4.4783429475148,0,1,1,-4.4783429475148,0A4.4783429475148,4.4783429475148,0,1,1,4.4783429475148,0" style="fill: #4daf4a; stroke-width: 2; opacity: 0.7;"></path><path transform="translate(310.5263157894737,0)" d="M5.781515884776753,0A5.781515884776753,5.781515884776753,0,1,1,-5.781515884776753,0A5.781515884776753,5.781515884776753,0,1,1,5.781515884776753,0" style="fill: #4daf4a; stroke-width: 2; opacity: 0.7;"></path><path transform="translate(321.05263157894734,0)" d="M4.4783429475148,0A4.4783429475148,4.4783429475148,0,1,1,-4.4783429475148,0A4.4783429475148,4.4783429475148,0,1,1,4.4783429475148,0" style="fill: #4daf4a; stroke-width: 2; opacity: 0.7;"></path><path transform="translate(331.57894736842104,0)" d="M4.837163233564498,0A4.837163233564498,4.837163233564498,0,1,1,-4.837163233564498,0A4.837163233564498,4.837163233564498,0,1,1,4.837163233564498,0" style="fill: #4daf4a; stroke-width: 2; opacity: 0.7;"></path><path transform="translate(331.57894736842104,2.2545454545454544)" d="M1.828275852433815,0A1.828275852433815,1.828275852433815,0,1,1,-1.828275852433815,0A1.828275852433815,1.828275852433815,0,1,1,1.828275852433815,0" style="fill: #4daf4a; stroke-width: 2; opacity: 0.7;"></path><path transform="translate(342.10526315789474,0)" d="M2.5855725062711326,0A2.5855725062711326,2.5855725062711326,0,1,1,-2.5855725062711326,0A2.5855725062711326,2.5855725062711326,0,1,1,2.5855725062711326,0" style="fill: #4daf4a; stroke-width: 2; opacity: 0.7;"></path><path transform="translate(342.10526315789474,8.218181818181817)" d="M1.828275852433815,0A1.828275852433815,1.828275852433815,0,1,1,-1.828275852433815,0A1.828275852433815,1.828275852433815,0,1,1,1.828275852433815,0" style="fill: #4daf4a; stroke-width: 2; opacity: 0.7;"></path><path transform="translate(342.10526315789474,8.581818181818182)" d="M1.828275852433815,0A1.828275852433815,1.828275852433815,0,1,1,-1.828275852433815,0A1.828275852433815,1.828275852433815,0,1,1,1.828275852433815,0" style="fill: #4daf4a; stroke-width: 2; opacity: 0.7;"></path><path transform="translate(342.10526315789474,9.309090909090909)" d="M1.828275852433815,0A1.828275852433815,1.828275852433815,0,1,1,-1.828275852433815,0A1.828275852433815,1.828275852433815,0,1,1,1.828275852433815,0" style="fill: #4daf4a; stroke-width: 2; opacity: 0.7;"></path><path transform="translate(342.10526315789474,9.818181818181818)" d="M1.828275852433815,0A1.828275852433815,1.828275852433815,0,1,1,-1.828275852433815,0A1.828275852433815,1.828275852433815,0,1,1,1.828275852433815,0" style="fill: #4daf4a; stroke-width: 2; opacity: 0.7;"></path><path transform="translate(342.10526315789474,2.109090909090909)" d="M1.828275852433815,0A1.828275852433815,1.828275852433815,0,1,1,-1.828275852433815,0A1.828275852433815,1.828275852433815,0,1,1,1.828275852433815,0" style="fill: #4daf4a; stroke-width: 2; opacity: 0.7;"></path><path transform="translate(342.10526315789474,2.4727272727272727)" d="M1.828275852433815,0A1.828275852433815,1.828275852433815,0,1,1,-1.828275852433815,0A1.828275852433815,1.828275852433815,0,1,1,1.828275852433815,0" style="fill: #4daf4a; stroke-width: 2; opacity: 0.7;"></path><path transform="translate(342.10526315789474,4.218181818181818)" d="M1.828275852433815,0A1.828275852433815,1.828275852433815,0,1,1,-1.828275852433815,0A1.828275852433815,1.828275852433815,0,1,1,1.828275852433815,0" style="fill: #4daf4a; stroke-width: 2; opacity: 0.7;"></path><path transform="translate(352.63157894736844,0)" d="M3.1666666666666665,0A3.1666666666666665,3.1666666666666665,0,1,1,-3.1666666666666665,0A3.1666666666666665,3.1666666666666665,0,1,1,3.1666666666666665,0" style="fill: #4daf4a; stroke-width: 2; opacity: 0.7;"></path><path transform="translate(352.63157894736844,1.6)" d="M1.828275852433815,0A1.828275852433815,1.828275852433815,0,1,1,-1.828275852433815,0A1.828275852433815,1.828275852433815,0,1,1,1.828275852433815,0" style="fill: #4daf4a; stroke-width: 2; opacity: 0.7;"></path><path transform="translate(352.63157894736844,3.781818181818182)" d="M1.828275852433815,0A1.828275852433815,1.828275852433815,0,1,1,-1.828275852433815,0A1.828275852433815,1.828275852433815,0,1,1,1.828275852433815,0" style="fill: #4daf4a; stroke-width: 2; opacity: 0.7;"></path><path transform="translate(363.15789473684214,0)" d="M1.828275852433815,0A1.828275852433815,1.828275852433815,0,1,1,-1.828275852433815,0A1.828275852433815,1.828275852433815,0,1,1,1.828275852433815,0" style="fill: #4daf4a; stroke-width: 2; opacity: 0.7;"></path><path transform="translate(373.6842105263158,0)" d="M4.088149087663385,0A4.088149087663385,4.088149087663385,0,1,1,-4.088149087663385,0A4.088149087663385,4.088149087663385,0,1,1,4.088149087663385,0" style="fill: #4daf4a; stroke-width: 2; opacity: 0.7;"></path><path transform="translate(373.6842105263158,20.363636363636363)" d="M1.828275852433815,0A1.828275852433815,1.828275852433815,0,1,1,-1.828275852433815,0A1.828275852433815,1.828275852433815,0,1,1,1.828275852433815,0" style="fill: #4daf4a; stroke-width: 2; opacity: 0.7;"></path><path transform="translate(384.2105263157895,0)" d="M2.5855725062711326,0A2.5855725062711326,2.5855725062711326,0,1,1,-2.5855725062711326,0A2.5855725062711326,2.5855725062711326,0,1,1,2.5855725062711326,0" style="fill: #4daf4a; stroke-width: 2; opacity: 0.7;"></path><path transform="translate(394.7368421052632,0)" d="M3.65655170486763,0A3.65655170486763,3.65655170486763,0,1,1,-3.65655170486763,0A3.65655170486763,3.65655170486763,0,1,1,3.65655170486763,0" style="fill: #4daf4a; stroke-width: 2; opacity: 0.7;"></path><path transform="translate(405.2631578947368,0)" d="M1.828275852433815,0A1.828275852433815,1.828275852433815,0,1,1,-1.828275852433815,0A1.828275852433815,1.828275852433815,0,1,1,1.828275852433815,0" style="fill: #4daf4a; stroke-width: 2; opacity: 0.7;"></path><path transform="translate(415.7894736842105,0)" d="M1.828275852433815,0A1.828275852433815,1.828275852433815,0,1,1,-1.828275852433815,0A1.828275852433815,1.828275852433815,0,1,1,1.828275852433815,0" style="fill: #4daf4a; stroke-width: 2; opacity: 0.7;"></path><path transform="translate(426.3157894736842,0)" d="M1.828275852433815,0A1.828275852433815,1.828275852433815,0,1,1,-1.828275852433815,0A1.828275852433815,1.828275852433815,0,1,1,1.828275852433815,0" style="fill: #4daf4a; stroke-width: 2; opacity: 0.7;"></path><path transform="translate(436.8421052631579,0)" d="M4.4783429475148,0A4.4783429475148,4.4783429475148,0,1,1,-4.4783429475148,0A4.4783429475148,4.4783429475148,0,1,1,4.4783429475148,0" style="fill: #4daf4a; stroke-width: 2; opacity: 0.7;"></path><path transform="translate(447.3684210526316,0)" d="M1.828275852433815,0A1.828275852433815,1.828275852433815,0,1,1,-1.828275852433815,0A1.828275852433815,1.828275852433815,0,1,1,1.828275852433815,0" style="fill: #4daf4a; stroke-width: 2; opacity: 0.7;"></path><path transform="translate(457.89473684210526,0)" d="M4.837163233564498,0A4.837163233564498,4.837163233564498,0,1,1,-4.837163233564498,0A4.837163233564498,4.837163233564498,0,1,1,4.837163233564498,0" style="fill: #4daf4a; stroke-width: 2; opacity: 0.7;"></path><path transform="translate(468.42105263157896,0)" d="M2.5855725062711326,0A2.5855725062711326,2.5855725062711326,0,1,1,-2.5855725062711326,0A2.5855725062711326,2.5855725062711326,0,1,1,2.5855725062711326,0" style="fill: #4daf4a; stroke-width: 2; opacity: 0.7;"></path><path transform="translate(478.94736842105266,0)" d="M4.088149087663385,0A4.088149087663385,4.088149087663385,0,1,1,-4.088149087663385,0A4.088149087663385,4.088149087663385,0,1,1,4.088149087663385,0" style="fill: #4daf4a; stroke-width: 2; opacity: 0.7;"></path><path transform="translate(478.94736842105266,136.36363636363635)" d="M2.5855725062711326,0A2.5855725062711326,2.5855725062711326,0,1,1,-2.5855725062711326,0A2.5855725062711326,2.5855725062711326,0,1,1,2.5855725062711326,0" style="fill: #4daf4a; stroke-width: 2; opacity: 0.7;"></path><path transform="translate(489.4736842105263,0)" d="M3.1666666666666665,0A3.1666666666666665,3.1666666666666665,0,1,1,-3.1666666666666665,0A3.1666666666666665,3.1666666666666665,0,1,1,3.1666666666666665,0" style="fill: #4daf4a; stroke-width: 2; opacity: 0.7;"></path><path transform="translate(500,0)" d="M4.837163233564498,0A4.837163233564498,4.837163233564498,0,1,1,-4.837163233564498,0A4.837163233564498,4.837163233564498,0,1,1,4.837163233564498,0" style="fill: #4daf4a; stroke-width: 2; opacity: 0.7;"></path><path transform="translate(510.5263157894737,0)" d="M3.1666666666666665,0A3.1666666666666665,3.1666666666666665,0,1,1,-3.1666666666666665,0A3.1666666666666665,3.1666666666666665,0,1,1,3.1666666666666665,0" style="fill: #4daf4a; stroke-width: 2; opacity: 0.7;"></path><path transform="translate(510.5263157894737,1.4545454545454546)" d="M2.5855725062711326,0A2.5855725062711326,2.5855725062711326,0,1,1,-2.5855725062711326,0A2.5855725062711326,2.5855725062711326,0,1,1,2.5855725062711326,0" style="fill: #4daf4a; stroke-width: 2; opacity: 0.7;"></path><path transform="translate(521.0526315789473,0)" d="M3.65655170486763,0A3.65655170486763,3.65655170486763,0,1,1,-3.65655170486763,0A3.65655170486763,3.65655170486763,0,1,1,3.65655170486763,0" style="fill: #4daf4a; stroke-width: 2; opacity: 0.7;"></path><path transform="translate(521.0526315789473,0.7272727272727273)" d="M1.828275852433815,0A1.828275852433815,1.828275852433815,0,1,1,-1.828275852433815,0A1.828275852433815,1.828275852433815,0,1,1,1.828275852433815,0" style="fill: #4daf4a; stroke-width: 2; opacity: 0.7;"></path><path transform="translate(521.0526315789473,0.36363636363636365)" d="M1.828275852433815,0A1.828275852433815,1.828275852433815,0,1,1,-1.828275852433815,0A1.828275852433815,1.828275852433815,0,1,1,1.828275852433815,0" style="fill: #4daf4a; stroke-width: 2; opacity: 0.7;"></path><path transform="translate(531.578947368421,0)" d="M1.828275852433815,0A1.828275852433815,1.828275852433815,0,1,1,-1.828275852433815,0A1.828275852433815,1.828275852433815,0,1,1,1.828275852433815,0" style="fill: #4daf4a; stroke-width: 2; opacity: 0.7;"></path><path transform="translate(542.1052631578948,0)" d="M2.5855725062711326,0A2.5855725062711326,2.5855725062711326,0,1,1,-2.5855725062711326,0A2.5855725062711326,2.5855725062711326,0,1,1,2.5855725062711326,0" style="fill: #4daf4a; stroke-width: 2; opacity: 0.7;"></path><path transform="translate(552.6315789473686,0)" d="M4.837163233564498,0A4.837163233564498,4.837163233564498,0,1,1,-4.837163233564498,0A4.837163233564498,4.837163233564498,0,1,1,4.837163233564498,0" style="fill: #4daf4a; stroke-width: 2; opacity: 0.7;"></path><path transform="translate(552.6315789473686,1.1636363636363636)" d="M1.828275852433815,0A1.828275852433815,1.828275852433815,0,1,1,-1.828275852433815,0A1.828275852433815,1.828275852433815,0,1,1,1.828275852433815,0" style="fill: #4daf4a; stroke-width: 2; opacity: 0.7;"></path><path transform="translate(552.6315789473686,1.6727272727272726)" d="M1.828275852433815,0A1.828275852433815,1.828275852433815,0,1,1,-1.828275852433815,0A1.828275852433815,1.828275852433815,0,1,1,1.828275852433815,0" style="fill: #4daf4a; stroke-width: 2; opacity: 0.7;"></path><path transform="translate(552.6315789473686,2.4)" d="M1.828275852433815,0A1.828275852433815,1.828275852433815,0,1,1,-1.828275852433815,0A1.828275852433815,1.828275852433815,0,1,1,1.828275852433815,0" style="fill: #4daf4a; stroke-width: 2; opacity: 0.7;"></path><path transform="translate(552.6315789473686,2.7636363636363637)" d="M1.828275852433815,0A1.828275852433815,1.828275852433815,0,1,1,-1.828275852433815,0A1.828275852433815,1.828275852433815,0,1,1,1.828275852433815,0" style="fill: #4daf4a; stroke-width: 2; opacity: 0.7;"></path><path transform="translate(552.6315789473686,54.54545454545454)" d="M1.828275852433815,0A1.828275852433815,1.828275852433815,0,1,1,-1.828275852433815,0A1.828275852433815,1.828275852433815,0,1,1,1.828275852433815,0" style="fill: #4daf4a; stroke-width: 2; opacity: 0.7;"></path><path transform="translate(563.1578947368421,0)" d="M4.4783429475148,0A4.4783429475148,4.4783429475148,0,1,1,-4.4783429475148,0A4.4783429475148,4.4783429475148,0,1,1,4.4783429475148,0" style="fill: #4daf4a; stroke-width: 2; opacity: 0.7;"></path><path transform="translate(573.6842105263158,0)" d="M8.9566858950296,0A8.9566858950296,8.9566858950296,0,1,1,-8.9566858950296,0A8.9566858950296,8.9566858950296,0,1,1,8.9566858950296,0" style="fill: #4daf4a; stroke-width: 2; opacity: 0.7;"></path><path transform="translate(573.6842105263158,0.5090909090909091)" d="M1.828275852433815,0A1.828275852433815,1.828275852433815,0,1,1,-1.828275852433815,0A1.828275852433815,1.828275852433815,0,1,1,1.828275852433815,0" style="fill: #4daf4a; stroke-width: 2; opacity: 0.7;"></path><path transform="translate(584.2105263157896,0)" d="M9.5,0A9.5,9.5,0,1,1,-9.5,0A9.5,9.5,0,1,1,9.5,0" style="fill: #4daf4a; stroke-width: 2; opacity: 0.7;"></path><path transform="translate(584.2105263157896,1.090909090909091)" d="M2.5855725062711326,0A2.5855725062711326,2.5855725062711326,0,1,1,-2.5855725062711326,0A2.5855725062711326,2.5855725062711326,0,1,1,2.5855725062711326,0" style="fill: #4daf4a; stroke-width: 2; opacity: 0.7;"></path><path transform="translate(584.2105263157896,2.181818181818182)" d="M5.484827557301444,0A5.484827557301444,5.484827557301444,0,1,1,-5.484827557301444,0A5.484827557301444,5.484827557301444,0,1,1,5.484827557301444,0" style="fill: #4daf4a; stroke-width: 2; opacity: 0.7;"></path><path transform="translate(594.7368421052631,0)" d="M6.591942331642754,0A6.591942331642754,6.591942331642754,0,1,1,-6.591942331642754,0A6.591942331642754,6.591942331642754,0,1,1,6.591942331642754,0" style="fill: #4daf4a; stroke-width: 2; opacity: 0.7;"></path><path transform="translate(605.2631578947369,0)" d="M8.768102966413524,0A8.768102966413524,8.768102966413524,0,1,1,-8.768102966413524,0A8.768102966413524,8.768102966413524,0,1,1,8.768102966413524,0" style="fill: #4daf4a; stroke-width: 2; opacity: 0.7;"></path><path transform="translate(605.2631578947369,0.2181818181818182)" d="M1.828275852433815,0A1.828275852433815,1.828275852433815,0,1,1,-1.828275852433815,0A1.828275852433815,1.828275852433815,0,1,1,1.828275852433815,0" style="fill: #4daf4a; stroke-width: 2; opacity: 0.7;"></path><path transform="translate(605.2631578947369,4.218181818181818)" d="M1.828275852433815,0A1.828275852433815,1.828275852433815,0,1,1,-1.828275852433815,0A1.828275852433815,1.828275852433815,0,1,1,1.828275852433815,0" style="fill: #4daf4a; stroke-width: 2; opacity: 0.7;"></path><path transform="translate(615.7894736842106,0)" d="M3.1666666666666665,0A3.1666666666666665,3.1666666666666665,0,1,1,-3.1666666666666665,0A3.1666666666666665,3.1666666666666665,0,1,1,3.1666666666666665,0" style="fill: #4daf4a; stroke-width: 2; opacity: 0.7;"></path><path transform="translate(615.7894736842106,1.6)" d="M2.5855725062711326,0A2.5855725062711326,2.5855725062711326,0,1,1,-2.5855725062711326,0A2.5855725062711326,2.5855725062711326,0,1,1,2.5855725062711326,0" style="fill: #4daf4a; stroke-width: 2; opacity: 0.7;"></path><path transform="translate(615.7894736842106,3.9272727272727272)" d="M1.828275852433815,0A1.828275852433815,1.828275852433815,0,1,1,-1.828275852433815,0A1.828275852433815,1.828275852433815,0,1,1,1.828275852433815,0" style="fill: #4daf4a; stroke-width: 2; opacity: 0.7;"></path><path transform="translate(615.7894736842106,4.494545454545454)" d="M1.828275852433815,0A1.828275852433815,1.828275852433815,0,1,1,-1.828275852433815,0A1.828275852433815,1.828275852433815,0,1,1,1.828275852433815,0" style="fill: #4daf4a; stroke-width: 2; opacity: 0.7;"></path><path transform="translate(626.3157894736842,0)" d="M4.088149087663385,0A4.088149087663385,4.088149087663385,0,1,1,-4.088149087663385,0A4.088149087663385,4.088149087663385,0,1,1,4.088149087663385,0" style="fill: #4daf4a; stroke-width: 2; opacity: 0.7;"></path><path transform="translate(626.3157894736842,32.72727272727273)" d="M1.828275852433815,0A1.828275852433815,1.828275852433815,0,1,1,-1.828275852433815,0A1.828275852433815,1.828275852433815,0,1,1,1.828275852433815,0" style="fill: #4daf4a; stroke-width: 2; opacity: 0.7;"></path><path transform="translate(626.3157894736842,34.54545454545455)" d="M1.828275852433815,0A1.828275852433815,1.828275852433815,0,1,1,-1.828275852433815,0A1.828275852433815,1.828275852433815,0,1,1,1.828275852433815,0" style="fill: #4daf4a; stroke-width: 2; opacity: 0.7;"></path><path transform="translate(626.3157894736842,43.054545454545455)" d="M1.828275852433815,0A1.828275852433815,1.828275852433815,0,1,1,-1.828275852433815,0A1.828275852433815,1.828275852433815,0,1,1,1.828275852433815,0" style="fill: #4daf4a; stroke-width: 2; opacity: 0.7;"></path><path transform="translate(636.8421052631579,0)" d="M8.9566858950296,0A8.9566858950296,8.9566858950296,0,1,1,-8.9566858950296,0A8.9566858950296,8.9566858950296,0,1,1,8.9566858950296,0" style="fill: #4daf4a; stroke-width: 2; opacity: 0.7;"></path><path transform="translate(636.8421052631579,74.61818181818181)" d="M1.828275852433815,0A1.828275852433815,1.828275852433815,0,1,1,-1.828275852433815,0A1.828275852433815,1.828275852433815,0,1,1,1.828275852433815,0" style="fill: #4daf4a; stroke-width: 2; opacity: 0.7;"></path><path transform="translate(636.8421052631579,1.0181818181818183)" d="M1.828275852433815,0A1.828275852433815,1.828275852433815,0,1,1,-1.828275852433815,0A1.828275852433815,1.828275852433815,0,1,1,1.828275852433815,0" style="fill: #4daf4a; stroke-width: 2; opacity: 0.7;"></path><path transform="translate(636.8421052631579,1.1636363636363636)" d="M3.1666666666666665,0A3.1666666666666665,3.1666666666666665,0,1,1,-3.1666666666666665,0A3.1666666666666665,3.1666666666666665,0,1,1,3.1666666666666665,0" style="fill: #4daf4a; stroke-width: 2; opacity: 0.7;"></path><path transform="translate(636.8421052631579,124.94545454545454)" d="M1.828275852433815,0A1.828275852433815,1.828275852433815,0,1,1,-1.828275852433815,0A1.828275852433815,1.828275852433815,0,1,1,1.828275852433815,0" style="fill: #4daf4a; stroke-width: 2; opacity: 0.7;"></path><path transform="translate(636.8421052631579,1.3818181818181818)" d="M3.65655170486763,0A3.65655170486763,3.65655170486763,0,1,1,-3.65655170486763,0A3.65655170486763,3.65655170486763,0,1,1,3.65655170486763,0" style="fill: #4daf4a; stroke-width: 2; opacity: 0.7;"></path><path transform="translate(636.8421052631579,1.4545454545454546)" d="M2.5855725062711326,0A2.5855725062711326,2.5855725062711326,0,1,1,-2.5855725062711326,0A2.5855725062711326,2.5855725062711326,0,1,1,2.5855725062711326,0" style="fill: #4daf4a; stroke-width: 2; opacity: 0.7;"></path><path transform="translate(636.8421052631579,1.8181818181818181)" d="M1.828275852433815,0A1.828275852433815,1.828275852433815,0,1,1,-1.828275852433815,0A1.828275852433815,1.828275852433815,0,1,1,1.828275852433815,0" style="fill: #4daf4a; stroke-width: 2; opacity: 0.7;"></path><path transform="translate(636.8421052631579,28.654545454545456)" d="M1.828275852433815,0A1.828275852433815,1.828275852433815,0,1,1,-1.828275852433815,0A1.828275852433815,1.828275852433815,0,1,1,1.828275852433815,0" style="fill: #4daf4a; stroke-width: 2; opacity: 0.7;"></path><path transform="translate(636.8421052631579,2.909090909090909)" d="M1.828275852433815,0A1.828275852433815,1.828275852433815,0,1,1,-1.828275852433815,0A1.828275852433815,1.828275852433815,0,1,1,1.828275852433815,0" style="fill: #4daf4a; stroke-width: 2; opacity: 0.7;"></path><path transform="translate(636.8421052631579,3.0545454545454547)" d="M1.828275852433815,0A1.828275852433815,1.828275852433815,0,1,1,-1.828275852433815,0A1.828275852433815,1.828275852433815,0,1,1,1.828275852433815,0" style="fill: #4daf4a; stroke-width: 2; opacity: 0.7;"></path><path transform="translate(636.8421052631579,41.67272727272727)" d="M1.828275852433815,0A1.828275852433815,1.828275852433815,0,1,1,-1.828275852433815,0A1.828275852433815,1.828275852433815,0,1,1,1.828275852433815,0" style="fill: #4daf4a; stroke-width: 2; opacity: 0.7;"></path><path transform="translate(636.8421052631579,45.30909090909091)" d="M1.828275852433815,0A1.828275852433815,1.828275852433815,0,1,1,-1.828275852433815,0A1.828275852433815,1.828275852433815,0,1,1,1.828275852433815,0" style="fill: #4daf4a; stroke-width: 2; opacity: 0.7;"></path><path transform="translate(636.8421052631579,48.43636363636364)" d="M1.828275852433815,0A1.828275852433815,1.828275852433815,0,1,1,-1.828275852433815,0A1.828275852433815,1.828275852433815,0,1,1,1.828275852433815,0" style="fill: #4daf4a; stroke-width: 2; opacity: 0.7;"></path><path transform="translate(636.8421052631579,5.1418181818181825)" d="M1.828275852433815,0A1.828275852433815,1.828275852433815,0,1,1,-1.828275852433815,0A1.828275852433815,1.828275852433815,0,1,1,1.828275852433815,0" style="fill: #4daf4a; stroke-width: 2; opacity: 0.7;"></path><path transform="translate(636.8421052631579,53.81818181818182)" d="M1.828275852433815,0A1.828275852433815,1.828275852433815,0,1,1,-1.828275852433815,0A1.828275852433815,1.828275852433815,0,1,1,1.828275852433815,0" style="fill: #4daf4a; stroke-width: 2; opacity: 0.7;"></path><path transform="translate(636.8421052631579,54.10909090909091)" d="M1.828275852433815,0A1.828275852433815,1.828275852433815,0,1,1,-1.828275852433815,0A1.828275852433815,1.828275852433815,0,1,1,1.828275852433815,0" style="fill: #4daf4a; stroke-width: 2; opacity: 0.7;"></path><path transform="translate(647.3684210526317,0)" d="M7.31310340973526,0A7.31310340973526,7.31310340973526,0,1,1,-7.31310340973526,0A7.31310340973526,7.31310340973526,0,1,1,7.31310340973526,0" style="fill: #4daf4a; stroke-width: 2; opacity: 0.7;"></path><path transform="translate(647.3684210526317,0.07272727272727272)" d="M1.828275852433815,0A1.828275852433815,1.828275852433815,0,1,1,-1.828275852433815,0A1.828275852433815,1.828275852433815,0,1,1,1.828275852433815,0" style="fill: #4daf4a; stroke-width: 2; opacity: 0.7;"></path><path transform="translate(647.3684210526317,7.2727272727272725)" d="M1.828275852433815,0A1.828275852433815,1.828275852433815,0,1,1,-1.828275852433815,0A1.828275852433815,1.828275852433815,0,1,1,1.828275852433815,0" style="fill: #4daf4a; stroke-width: 2; opacity: 0.7;"></path><path transform="translate(647.3684210526317,7.8545454545454545)" d="M1.828275852433815,0A1.828275852433815,1.828275852433815,0,1,1,-1.828275852433815,0A1.828275852433815,1.828275852433815,0,1,1,1.828275852433815,0" style="fill: #4daf4a; stroke-width: 2; opacity: 0.7;"></path><path transform="translate(647.3684210526317,10.181818181818182)" d="M1.828275852433815,0A1.828275852433815,1.828275852433815,0,1,1,-1.828275852433815,0A1.828275852433815,1.828275852433815,0,1,1,1.828275852433815,0" style="fill: #4daf4a; stroke-width: 2; opacity: 0.7;"></path><path transform="translate(647.3684210526317,113.89090909090909)" d="M1.828275852433815,0A1.828275852433815,1.828275852433815,0,1,1,-1.828275852433815,0A1.828275852433815,1.828275852433815,0,1,1,1.828275852433815,0" style="fill: #4daf4a; stroke-width: 2; opacity: 0.7;"></path><path transform="translate(647.3684210526317,123.63636363636363)" d="M2.5855725062711326,0A2.5855725062711326,2.5855725062711326,0,1,1,-2.5855725062711326,0A2.5855725062711326,2.5855725062711326,0,1,1,2.5855725062711326,0" style="fill: #4daf4a; stroke-width: 2; opacity: 0.7;"></path><path transform="translate(647.3684210526317,1.4545454545454546)" d="M3.1666666666666665,0A3.1666666666666665,3.1666666666666665,0,1,1,-3.1666666666666665,0A3.1666666666666665,3.1666666666666665,0,1,1,3.1666666666666665,0" style="fill: #4daf4a; stroke-width: 2; opacity: 0.7;"></path><path transform="translate(647.3684210526317,3.6363636363636362)" d="M4.088149087663385,0A4.088149087663385,4.088149087663385,0,1,1,-4.088149087663385,0A4.088149087663385,4.088149087663385,0,1,1,4.088149087663385,0" style="fill: #4daf4a; stroke-width: 2; opacity: 0.7;"></path><path transform="translate(647.3684210526317,3.781818181818182)" d="M1.828275852433815,0A1.828275852433815,1.828275852433815,0,1,1,-1.828275852433815,0A1.828275852433815,1.828275852433815,0,1,1,1.828275852433815,0" style="fill: #4daf4a; stroke-width: 2; opacity: 0.7;"></path><path transform="translate(647.3684210526317,4)" d="M3.65655170486763,0A3.65655170486763,3.65655170486763,0,1,1,-3.65655170486763,0A3.65655170486763,3.65655170486763,0,1,1,3.65655170486763,0" style="fill: #4daf4a; stroke-width: 2; opacity: 0.7;"></path><path transform="translate(647.3684210526317,4.363636363636364)" d="M1.828275852433815,0A1.828275852433815,1.828275852433815,0,1,1,-1.828275852433815,0A1.828275852433815,1.828275852433815,0,1,1,1.828275852433815,0" style="fill: #4daf4a; stroke-width: 2; opacity: 0.7;"></path><path transform="translate(647.3684210526317,43.92727272727272)" d="M1.828275852433815,0A1.828275852433815,1.828275852433815,0,1,1,-1.828275852433815,0A1.828275852433815,1.828275852433815,0,1,1,1.828275852433815,0" style="fill: #4daf4a; stroke-width: 2; opacity: 0.7;"></path><path transform="translate(647.3684210526317,4.7272727272727275)" d="M5.171145012542265,0A5.171145012542265,5.171145012542265,0,1,1,-5.171145012542265,0A5.171145012542265,5.171145012542265,0,1,1,5.171145012542265,0" style="fill: #4daf4a; stroke-width: 2; opacity: 0.7;"></path><path transform="translate(647.3684210526317,4.872727272727273)" d="M2.5855725062711326,0A2.5855725062711326,2.5855725062711326,0,1,1,-2.5855725062711326,0A2.5855725062711326,2.5855725062711326,0,1,1,2.5855725062711326,0" style="fill: #4daf4a; stroke-width: 2; opacity: 0.7;"></path><path transform="translate(647.3684210526317,55.054545454545455)" d="M1.828275852433815,0A1.828275852433815,1.828275852433815,0,1,1,-1.828275852433815,0A1.828275852433815,1.828275852433815,0,1,1,1.828275852433815,0" style="fill: #4daf4a; stroke-width: 2; opacity: 0.7;"></path><path transform="translate(647.3684210526317,0.6545454545454545)" d="M1.828275852433815,0A1.828275852433815,1.828275852433815,0,1,1,-1.828275852433815,0A1.828275852433815,1.828275852433815,0,1,1,1.828275852433815,0" style="fill: #4daf4a; stroke-width: 2; opacity: 0.7;"></path><path transform="translate(657.8947368421052,0)" d="M4.088149087663385,0A4.088149087663385,4.088149087663385,0,1,1,-4.088149087663385,0A4.088149087663385,4.088149087663385,0,1,1,4.088149087663385,0" style="fill: #4daf4a; stroke-width: 2; opacity: 0.7;"></path><path transform="translate(657.8947368421052,76)" d="M1.828275852433815,0A1.828275852433815,1.828275852433815,0,1,1,-1.828275852433815,0A1.828275852433815,1.828275852433815,0,1,1,1.828275852433815,0" style="fill: #4daf4a; stroke-width: 2; opacity: 0.7;"></path><path transform="translate(657.8947368421052,76.36363636363637)" d="M5.781515884776753,0A5.781515884776753,5.781515884776753,0,1,1,-5.781515884776753,0A5.781515884776753,5.781515884776753,0,1,1,5.781515884776753,0" style="fill: #4daf4a; stroke-width: 2; opacity: 0.7;"></path><path transform="translate(657.8947368421052,80)" d="M2.5855725062711326,0A2.5855725062711326,2.5855725062711326,0,1,1,-2.5855725062711326,0A2.5855725062711326,2.5855725062711326,0,1,1,2.5855725062711326,0" style="fill: #4daf4a; stroke-width: 2; opacity: 0.7;"></path><path transform="translate(657.8947368421052,98.18181818181819)" d="M4.837163233564498,0A4.837163233564498,4.837163233564498,0,1,1,-4.837163233564498,0A4.837163233564498,4.837163233564498,0,1,1,4.837163233564498,0" style="fill: #4daf4a; stroke-width: 2; opacity: 0.7;"></path><path transform="translate(657.8947368421052,120)" d="M2.5855725062711326,0A2.5855725062711326,2.5855725062711326,0,1,1,-2.5855725062711326,0A2.5855725062711326,2.5855725062711326,0,1,1,2.5855725062711326,0" style="fill: #4daf4a; stroke-width: 2; opacity: 0.7;"></path><path transform="translate(657.8947368421052,1.7454545454545456)" d="M1.828275852433815,0A1.828275852433815,1.828275852433815,0,1,1,-1.828275852433815,0A1.828275852433815,1.828275852433815,0,1,1,1.828275852433815,0" style="fill: #4daf4a; stroke-width: 2; opacity: 0.7;"></path><path transform="translate(657.8947368421052,1.890909090909091)" d="M1.828275852433815,0A1.828275852433815,1.828275852433815,0,1,1,-1.828275852433815,0A1.828275852433815,1.828275852433815,0,1,1,1.828275852433815,0" style="fill: #4daf4a; stroke-width: 2; opacity: 0.7;"></path><path transform="translate(657.8947368421052,4.7272727272727275)" d="M1.828275852433815,0A1.828275852433815,1.828275852433815,0,1,1,-1.828275852433815,0A1.828275852433815,1.828275852433815,0,1,1,1.828275852433815,0" style="fill: #4daf4a; stroke-width: 2; opacity: 0.7;"></path><path transform="translate(657.8947368421052,54.54545454545454)" d="M6.333333333333333,0A6.333333333333333,6.333333333333333,0,1,1,-6.333333333333333,0A6.333333333333333,6.333333333333333,0,1,1,6.333333333333333,0" style="fill: #4daf4a; stroke-width: 2; opacity: 0.7;"></path><path transform="translate(657.8947368421052,5.6000000000000005)" d="M4.4783429475148,0A4.4783429475148,4.4783429475148,0,1,1,-4.4783429475148,0A4.4783429475148,4.4783429475148,0,1,1,4.4783429475148,0" style="fill: #4daf4a; stroke-width: 2; opacity: 0.7;"></path><path transform="translate(657.8947368421052,56.36363636363636)" d="M3.1666666666666665,0A3.1666666666666665,3.1666666666666665,0,1,1,-3.1666666666666665,0A3.1666666666666665,3.1666666666666665,0,1,1,3.1666666666666665,0" style="fill: #4daf4a; stroke-width: 2; opacity: 0.7;"></path><path transform="translate(657.8947368421052,6.036363636363636)" d="M1.828275852433815,0A1.828275852433815,1.828275852433815,0,1,1,-1.828275852433815,0A1.828275852433815,1.828275852433815,0,1,1,1.828275852433815,0" style="fill: #4daf4a; stroke-width: 2; opacity: 0.7;"></path><path transform="translate(657.8947368421052,6.181818181818182)" d="M1.828275852433815,0A1.828275852433815,1.828275852433815,0,1,1,-1.828275852433815,0A1.828275852433815,1.828275852433815,0,1,1,1.828275852433815,0" style="fill: #4daf4a; stroke-width: 2; opacity: 0.7;"></path><path transform="translate(657.8947368421052,65.45454545454545)" d="M2.5855725062711326,0A2.5855725062711326,2.5855725062711326,0,1,1,-2.5855725062711326,0A2.5855725062711326,2.5855725062711326,0,1,1,2.5855725062711326,0" style="fill: #4daf4a; stroke-width: 2; opacity: 0.7;"></path><path transform="translate(657.8947368421052,6.618181818181817)" d="M2.5855725062711326,0A2.5855725062711326,2.5855725062711326,0,1,1,-2.5855725062711326,0A2.5855725062711326,2.5855725062711326,0,1,1,2.5855725062711326,0" style="fill: #4daf4a; stroke-width: 2; opacity: 0.7;"></path><path transform="translate(657.8947368421052,6.6909090909090905)" d="M1.828275852433815,0A1.828275852433815,1.828275852433815,0,1,1,-1.828275852433815,0A1.828275852433815,1.828275852433815,0,1,1,1.828275852433815,0" style="fill: #4daf4a; stroke-width: 2; opacity: 0.7;"></path><path transform="translate(668.421052631579,0)" d="M3.1666666666666665,0A3.1666666666666665,3.1666666666666665,0,1,1,-3.1666666666666665,0A3.1666666666666665,3.1666666666666665,0,1,1,3.1666666666666665,0" style="fill: #4daf4a; stroke-width: 2; opacity: 0.7;"></path><path transform="translate(668.421052631579,0.07272727272727272)" d="M2.5855725062711326,0A2.5855725062711326,2.5855725062711326,0,1,1,-2.5855725062711326,0A2.5855725062711326,2.5855725062711326,0,1,1,2.5855725062711326,0" style="fill: #4daf4a; stroke-width: 2; opacity: 0.7;"></path><path transform="translate(668.421052631579,76.36363636363637)" d="M5.484827557301444,0A5.484827557301444,5.484827557301444,0,1,1,-5.484827557301444,0A5.484827557301444,5.484827557301444,0,1,1,5.484827557301444,0" style="fill: #4daf4a; stroke-width: 2; opacity: 0.7;"></path><path transform="translate(668.421052631579,83.2)" d="M1.828275852433815,0A1.828275852433815,1.828275852433815,0,1,1,-1.828275852433815,0A1.828275852433815,1.828275852433815,0,1,1,1.828275852433815,0" style="fill: #4daf4a; stroke-width: 2; opacity: 0.7;"></path><path transform="translate(668.421052631579,118.39999999999999)" d="M1.828275852433815,0A1.828275852433815,1.828275852433815,0,1,1,-1.828275852433815,0A1.828275852433815,1.828275852433815,0,1,1,1.828275852433815,0" style="fill: #4daf4a; stroke-width: 2; opacity: 0.7;"></path><path transform="translate(668.421052631579,120)" d="M2.5855725062711326,0A2.5855725062711326,2.5855725062711326,0,1,1,-2.5855725062711326,0A2.5855725062711326,2.5855725062711326,0,1,1,2.5855725062711326,0" style="fill: #4daf4a; stroke-width: 2; opacity: 0.7;"></path><path transform="translate(668.421052631579,141.8181818181818)" d="M2.5855725062711326,0A2.5855725062711326,2.5855725062711326,0,1,1,-2.5855725062711326,0A2.5855725062711326,2.5855725062711326,0,1,1,2.5855725062711326,0" style="fill: #4daf4a; stroke-width: 2; opacity: 0.7;"></path><path transform="translate(668.421052631579,2.2545454545454544)" d="M1.828275852433815,0A1.828275852433815,1.828275852433815,0,1,1,-1.828275852433815,0A1.828275852433815,1.828275852433815,0,1,1,1.828275852433815,0" style="fill: #4daf4a; stroke-width: 2; opacity: 0.7;"></path><path transform="translate(668.421052631579,2.618181818181818)" d="M1.828275852433815,0A1.828275852433815,1.828275852433815,0,1,1,-1.828275852433815,0A1.828275852433815,1.828275852433815,0,1,1,1.828275852433815,0" style="fill: #4daf4a; stroke-width: 2; opacity: 0.7;"></path><path transform="translate(668.421052631579,54.54545454545454)" d="M6.840781848319407,0A6.840781848319407,6.840781848319407,0,1,1,-6.840781848319407,0A6.840781848319407,6.840781848319407,0,1,1,6.840781848319407,0" style="fill: #4daf4a; stroke-width: 2; opacity: 0.7;"></path><path transform="translate(678.9473684210527,0)" d="M1.828275852433815,0A1.828275852433815,1.828275852433815,0,1,1,-1.828275852433815,0A1.828275852433815,1.828275852433815,0,1,1,1.828275852433815,0" style="fill: #4daf4a; stroke-width: 2; opacity: 0.7;"></path><path transform="translate(678.9473684210527,3.6363636363636362)" d="M2.5855725062711326,0A2.5855725062711326,2.5855725062711326,0,1,1,-2.5855725062711326,0A2.5855725062711326,2.5855725062711326,0,1,1,2.5855725062711326,0" style="fill: #4daf4a; stroke-width: 2; opacity: 0.7;"></path><path transform="translate(689.4736842105262,0)" d="M3.65655170486763,0A3.65655170486763,3.65655170486763,0,1,1,-3.65655170486763,0A3.65655170486763,3.65655170486763,0,1,1,3.65655170486763,0" style="fill: #4daf4a; stroke-width: 2; opacity: 0.7;"></path><path transform="translate(689.4736842105262,0.14545454545454545)" d="M2.5855725062711326,0A2.5855725062711326,2.5855725062711326,0,1,1,-2.5855725062711326,0A2.5855725062711326,2.5855725062711326,0,1,1,2.5855725062711326,0" style="fill: #4daf4a; stroke-width: 2; opacity: 0.7;"></path><path transform="translate(700,0)" d="M2.5855725062711326,0A2.5855725062711326,2.5855725062711326,0,1,1,-2.5855725062711326,0A2.5855725062711326,2.5855725062711326,0,1,1,2.5855725062711326,0" style="fill: #4daf4a; stroke-width: 2; opacity: 0.7;"></path><path transform="translate(700,4.218181818181818)" d="M1.828275852433815,0A1.828275852433815,1.828275852433815,0,1,1,-1.828275852433815,0A1.828275852433815,1.828275852433815,0,1,1,1.828275852433815,0" style="fill: #4daf4a; stroke-width: 2; opacity: 0.7;"></path><path transform="translate(710.5263157894738,0)" d="M3.65655170486763,0A3.65655170486763,3.65655170486763,0,1,1,-3.65655170486763,0A3.65655170486763,3.65655170486763,0,1,1,3.65655170486763,0" style="fill: #4daf4a; stroke-width: 2; opacity: 0.7;"></path><path transform="translate(721.0526315789475,0)" d="M4.4783429475148,0A4.4783429475148,4.4783429475148,0,1,1,-4.4783429475148,0A4.4783429475148,4.4783429475148,0,1,1,4.4783429475148,0" style="fill: #4daf4a; stroke-width: 2; opacity: 0.7;"></path><path transform="translate(721.0526315789475,83.41818181818181)" d="M2.5855725062711326,0A2.5855725062711326,2.5855725062711326,0,1,1,-2.5855725062711326,0A2.5855725062711326,2.5855725062711326,0,1,1,2.5855725062711326,0" style="fill: #4daf4a; stroke-width: 2; opacity: 0.7;"></path><path transform="translate(721.0526315789475,94.03636363636365)" d="M1.828275852433815,0A1.828275852433815,1.828275852433815,0,1,1,-1.828275852433815,0A1.828275852433815,1.828275852433815,0,1,1,1.828275852433815,0" style="fill: #4daf4a; stroke-width: 2; opacity: 0.7;"></path><path transform="translate(721.0526315789475,0.14545454545454545)" d="M1.828275852433815,0A1.828275852433815,1.828275852433815,0,1,1,-1.828275852433815,0A1.828275852433815,1.828275852433815,0,1,1,1.828275852433815,0" style="fill: #4daf4a; stroke-width: 2; opacity: 0.7;"></path><path transform="translate(721.0526315789475,28.363636363636363)" d="M1.828275852433815,0A1.828275852433815,1.828275852433815,0,1,1,-1.828275852433815,0A1.828275852433815,1.828275852433815,0,1,1,1.828275852433815,0" style="fill: #4daf4a; stroke-width: 2; opacity: 0.7;"></path><path transform="translate(721.0526315789475,28.581818181818182)" d="M1.828275852433815,0A1.828275852433815,1.828275852433815,0,1,1,-1.828275852433815,0A1.828275852433815,1.828275852433815,0,1,1,1.828275852433815,0" style="fill: #4daf4a; stroke-width: 2; opacity: 0.7;"></path><path transform="translate(721.0526315789475,29.236363636363638)" d="M1.828275852433815,0A1.828275852433815,1.828275852433815,0,1,1,-1.828275852433815,0A1.828275852433815,1.828275852433815,0,1,1,1.828275852433815,0" style="fill: #4daf4a; stroke-width: 2; opacity: 0.7;"></path><path transform="translate(721.0526315789475,3.6363636363636362)" d="M1.828275852433815,0A1.828275852433815,1.828275852433815,0,1,1,-1.828275852433815,0A1.828275852433815,1.828275852433815,0,1,1,1.828275852433815,0" style="fill: #4daf4a; stroke-width: 2; opacity: 0.7;"></path><path transform="translate(721.0526315789475,4.363636363636364)" d="M1.828275852433815,0A1.828275852433815,1.828275852433815,0,1,1,-1.828275852433815,0A1.828275852433815,1.828275852433815,0,1,1,1.828275852433815,0" style="fill: #4daf4a; stroke-width: 2; opacity: 0.7;"></path><path transform="translate(721.0526315789475,51.272727272727266)" d="M1.828275852433815,0A1.828275852433815,1.828275852433815,0,1,1,-1.828275852433815,0A1.828275852433815,1.828275852433815,0,1,1,1.828275852433815,0" style="fill: #4daf4a; stroke-width: 2; opacity: 0.7;"></path><path transform="translate(721.0526315789475,72.14545454545454)" d="M1.828275852433815,0A1.828275852433815,1.828275852433815,0,1,1,-1.828275852433815,0A1.828275852433815,1.828275852433815,0,1,1,1.828275852433815,0" style="fill: #4daf4a; stroke-width: 2; opacity: 0.7;"></path><path transform="translate(731.578947368421,0)" d="M2.5855725062711326,0A2.5855725062711326,2.5855725062711326,0,1,1,-2.5855725062711326,0A2.5855725062711326,2.5855725062711326,0,1,1,2.5855725062711326,0" style="fill: #4daf4a; stroke-width: 2; opacity: 0.7;"></path><path transform="translate(731.578947368421,8.50909090909091)" d="M1.828275852433815,0A1.828275852433815,1.828275852433815,0,1,1,-1.828275852433815,0A1.828275852433815,1.828275852433815,0,1,1,1.828275852433815,0" style="fill: #4daf4a; stroke-width: 2; opacity: 0.7;"></path><path transform="translate(731.578947368421,9.090909090909092)" d="M1.828275852433815,0A1.828275852433815,1.828275852433815,0,1,1,-1.828275852433815,0A1.828275852433815,1.828275852433815,0,1,1,1.828275852433815,0" style="fill: #4daf4a; stroke-width: 2; opacity: 0.7;"></path><path transform="translate(731.578947368421,1.4545454545454546)" d="M1.828275852433815,0A1.828275852433815,1.828275852433815,0,1,1,-1.828275852433815,0A1.828275852433815,1.828275852433815,0,1,1,1.828275852433815,0" style="fill: #4daf4a; stroke-width: 2; opacity: 0.7;"></path><path transform="translate(731.578947368421,1.5272727272727273)" d="M2.5855725062711326,0A2.5855725062711326,2.5855725062711326,0,1,1,-2.5855725062711326,0A2.5855725062711326,2.5855725062711326,0,1,1,2.5855725062711326,0" style="fill: #4daf4a; stroke-width: 2; opacity: 0.7;"></path><path transform="translate(731.578947368421,1.6)" d="M1.828275852433815,0A1.828275852433815,1.828275852433815,0,1,1,-1.828275852433815,0A1.828275852433815,1.828275852433815,0,1,1,1.828275852433815,0" style="fill: #4daf4a; stroke-width: 2; opacity: 0.7;"></path><path transform="translate(731.578947368421,2.109090909090909)" d="M1.828275852433815,0A1.828275852433815,1.828275852433815,0,1,1,-1.828275852433815,0A1.828275852433815,1.828275852433815,0,1,1,1.828275852433815,0" style="fill: #4daf4a; stroke-width: 2; opacity: 0.7;"></path><path transform="translate(742.1052631578948,0)" d="M3.1666666666666665,0A3.1666666666666665,3.1666666666666665,0,1,1,-3.1666666666666665,0A3.1666666666666665,3.1666666666666665,0,1,1,3.1666666666666665,0" style="fill: #4daf4a; stroke-width: 2; opacity: 0.7;"></path><path transform="translate(752.6315789473686,0)" d="M3.65655170486763,0A3.65655170486763,3.65655170486763,0,1,1,-3.65655170486763,0A3.65655170486763,3.65655170486763,0,1,1,3.65655170486763,0" style="fill: #4daf4a; stroke-width: 2; opacity: 0.7;"></path><path transform="translate(752.6315789473686,146.47272727272727)" d="M1.828275852433815,0A1.828275852433815,1.828275852433815,0,1,1,-1.828275852433815,0A1.828275852433815,1.828275852433815,0,1,1,1.828275852433815,0" style="fill: #4daf4a; stroke-width: 2; opacity: 0.7;"></path><path transform="translate(763.1578947368421,0)" d="M2.5855725062711326,0A2.5855725062711326,2.5855725062711326,0,1,1,-2.5855725062711326,0A2.5855725062711326,2.5855725062711326,0,1,1,2.5855725062711326,0" style="fill: #4daf4a; stroke-width: 2; opacity: 0.7;"></path><path transform="translate(763.1578947368421,0.4363636363636364)" d="M1.828275852433815,0A1.828275852433815,1.828275852433815,0,1,1,-1.828275852433815,0A1.828275852433815,1.828275852433815,0,1,1,1.828275852433815,0" style="fill: #4daf4a; stroke-width: 2; opacity: 0.7;"></path><path transform="translate(773.6842105263158,0)" d="M2.5855725062711326,0A2.5855725062711326,2.5855725062711326,0,1,1,-2.5855725062711326,0A2.5855725062711326,2.5855725062711326,0,1,1,2.5855725062711326,0" style="fill: #4daf4a; stroke-width: 2; opacity: 0.7;"></path><path transform="translate(773.6842105263158,0.2181818181818182)" d="M2.5855725062711326,0A2.5855725062711326,2.5855725062711326,0,1,1,-2.5855725062711326,0A2.5855725062711326,2.5855725062711326,0,1,1,2.5855725062711326,0" style="fill: #4daf4a; stroke-width: 2; opacity: 0.7;"></path><path transform="translate(784.2105263157896,0)" d="M1.828275852433815,0A1.828275852433815,1.828275852433815,0,1,1,-1.828275852433815,0A1.828275852433815,1.828275852433815,0,1,1,1.828275852433815,0" style="fill: #4daf4a; stroke-width: 2; opacity: 0.7;"></path><path transform="translate(794.7368421052631,0)" d="M1.828275852433815,0A1.828275852433815,1.828275852433815,0,1,1,-1.828275852433815,0A1.828275852433815,1.828275852433815,0,1,1,1.828275852433815,0" style="fill: #4daf4a; stroke-width: 2; opacity: 0.7;"></path><path transform="translate(794.7368421052631,0.07272727272727272)" d="M1.828275852433815,0A1.828275852433815,1.828275852433815,0,1,1,-1.828275852433815,0A1.828275852433815,1.828275852433815,0,1,1,1.828275852433815,0" style="fill: #4daf4a; stroke-width: 2; opacity: 0.7;"></path></g><g class="mark-group role-legend"><g transform="translate(818,0)"><path class="background" d="M0,0h45v111h-45Z" style="pointer-events: none; fill: none;"></path><g><g class="mark-group role-legend-entry"><g transform="translate(0,16)"><path class="background" d="M0,0h0v0h0Z" style="pointer-events: none; fill: none;"></path><g><g class="mark-group role-scope"><g transform="translate(0,0)"><path class="background" d="M0,0h35.123046875v10.588149087663385h-35.123046875Z" style="pointer-events: none; fill: none; opacity: 1;"></path><g><g class="mark-symbol role-legend-symbol" style="pointer-events: none;"><path transform="translate(10,5)" d="M4.088149087663385,0A4.088149087663385,4.088149087663385,0,1,1,-4.088149087663385,0A4.088149087663385,4.088149087663385,0,1,1,4.088149087663385,0" style="fill: #4daf4a; stroke: none; stroke-width: 1.5; opacity: 0.7;"></path></g><g class="mark-text role-legend-label" style="pointer-events: none;"><text text-anchor="start" transform="translate(24,8)" style="font-family: sans-serif; font-size: 10px; fill: #000; opacity: 1;">5</text></g></g><path class="foreground" d="" style="pointer-events: none; display: none; fill: none;"></path></g><g transform="translate(0,14)"><path class="background" d="M0,0h35.123046875v14.281515884776752h-35.123046875Z" style="pointer-events: none; fill: none; opacity: 1;"></path><g><g class="mark-symbol role-legend-symbol" style="pointer-events: none;"><path transform="translate(10,7)" d="M5.781515884776753,0A5.781515884776753,5.781515884776753,0,1,1,-5.781515884776753,0A5.781515884776753,5.781515884776753,0,1,1,5.781515884776753,0" style="fill: #4daf4a; stroke: none; stroke-width: 1.5; opacity: 0.7;"></path></g><g class="mark-text role-legend-label" style="pointer-events: none;"><text text-anchor="start" transform="translate(24,10)" style="font-family: sans-serif; font-size: 10px; fill: #000; opacity: 1;">10</text></g></g><path class="foreground" d="" style="pointer-events: none; display: none; fill: none;"></path></g><g transform="translate(0,32)"><path class="background" d="M0,0h35.123046875v16.580881928749335h-35.123046875Z" style="pointer-events: none; fill: none; opacity: 1;"></path><g><g class="mark-symbol role-legend-symbol" style="pointer-events: none;"><path transform="translate(10,8)" d="M7.080881928749334,0A7.080881928749334,7.080881928749334,0,1,1,-7.080881928749334,0A7.080881928749334,7.080881928749334,0,1,1,7.080881928749334,0" style="fill: #4daf4a; stroke: none; stroke-width: 1.5; opacity: 0.7;"></path></g><g class="mark-text role-legend-label" style="pointer-events: none;"><text text-anchor="start" transform="translate(24,11)" style="font-family: sans-serif; font-size: 10px; fill: #000; opacity: 1;">15</text></g></g><path class="foreground" d="" style="pointer-events: none; display: none; fill: none;"></path></g><g transform="translate(0,52)"><path class="background" d="M0,0h35.123046875v18.676298175326764h-35.123046875Z" style="pointer-events: none; fill: none; opacity: 1;"></path><g><g class="mark-symbol role-legend-symbol" style="pointer-events: none;"><path transform="translate(10,9)" d="M8.17629817532677,0A8.17629817532677,8.17629817532677,0,1,1,-8.17629817532677,0A8.17629817532677,8.17629817532677,0,1,1,8.17629817532677,0" style="fill: #4daf4a; stroke: none; stroke-width: 1.5; opacity: 0.7;"></path></g><g class="mark-text role-legend-label" style="pointer-events: none;"><text text-anchor="start" transform="translate(24,12)" style="font-family: sans-serif; font-size: 10px; fill: #000; opacity: 1;">20</text></g></g><path class="foreground" d="" style="pointer-events: none; display: none; fill: none;"></path></g><g transform="translate(0,74)"><path class="background" d="M0,0h35.123046875v20.641379262169067h-35.123046875Z" style="pointer-events: none; fill: none; opacity: 1;"></path><g><g class="mark-symbol role-legend-symbol" style="pointer-events: none;"><path transform="translate(10,10)" d="M9.141379262169075,0A9.141379262169075,9.141379262169075,0,1,1,-9.141379262169075,0A9.141379262169075,9.141379262169075,0,1,1,9.141379262169075,0" style="fill: #4daf4a; stroke: none; stroke-width: 1.5; opacity: 0.7;"></path></g><g class="mark-text role-legend-label" style="pointer-events: none;"><text text-anchor="start" transform="translate(24,13)" style="font-family: sans-serif; font-size: 10px; fill: #000; opacity: 1;">25</text></g></g><path class="foreground" d="" style="pointer-events: none; display: none; fill: none;"></path></g></g></g><path class="foreground" d="" style="pointer-events: none; display: none; fill: none;"></path></g></g><g class="mark-text role-legend-title" style="pointer-events: none;"><text text-anchor="start" transform="translate(0,9)" style="font-family: sans-serif; font-size: 11px; font-weight: bold; fill: #000; opacity: 1;">Quantity</text></g></g><path class="foreground" d="" style="pointer-events: none; display: none; fill: none;"></path></g></g><g class="mark-group role-title"><g transform="translate(400,-26.5)"><path class="background" d="M0,0h0v0h0Z" style="pointer-events: none; fill: none;"></path><g><g class="mark-text role-title-text" style="pointer-events: none;"><text text-anchor="middle" transform="translate(0,10)" style="font-family: sans-serif; font-size: 13px; font-weight: bold; fill: #000; opacity: 1;">Depth of cataloged paratypes per year</text></g></g><path class="foreground" d="" style="pointer-events: none; display: none; fill: none;"></path></g></g><g class="mark-group role-axis"><g transform="translate(0.5,400.5)"><path class="background" d="M0,0h0v0h0Z" style="pointer-events: none; fill: none;"></path><g><g class="mark-rule role-axis-tick" style="pointer-events: none;"><line transform="translate(5,0)" x2="0" y2="5" style="fill: none; stroke: #888; stroke-width: 1; opacity: 1;"></line><line transform="translate(16,0)" x2="0" y2="5" style="fill: none; stroke: #888; stroke-width: 1; opacity: 1;"></line><line transform="translate(26,0)" x2="0" y2="5" style="fill: none; stroke: #888; stroke-width: 1; opacity: 1;"></line><line transform="translate(37,0)" x2="0" y2="5" style="fill: none; stroke: #888; stroke-width: 1; opacity: 1;"></line><line transform="translate(47,0)" x2="0" y2="5" style="fill: none; stroke: #888; stroke-width: 1; opacity: 1;"></line><line transform="translate(58,0)" x2="0" y2="5" style="fill: none; stroke: #888; stroke-width: 1; opacity: 1;"></line><line transform="translate(68,0)" x2="0" y2="5" style="fill: none; stroke: #888; stroke-width: 1; opacity: 1;"></line><line transform="translate(79,0)" x2="0" y2="5" style="fill: none; stroke: #888; stroke-width: 1; opacity: 1;"></line><line transform="translate(89,0)" x2="0" y2="5" style="fill: none; stroke: #888; stroke-width: 1; opacity: 1;"></line><line transform="translate(100,0)" x2="0" y2="5" style="fill: none; stroke: #888; stroke-width: 1; opacity: 1;"></line><line transform="translate(111,0)" x2="0" y2="5" style="fill: none; stroke: #888; stroke-width: 1; opacity: 1;"></line><line transform="translate(121,0)" x2="0" y2="5" style="fill: none; stroke: #888; stroke-width: 1; opacity: 1;"></line><line transform="translate(132,0)" x2="0" y2="5" style="fill: none; stroke: #888; stroke-width: 1; opacity: 1;"></line><line transform="translate(142,0)" x2="0" y2="5" style="fill: none; stroke: #888; stroke-width: 1; opacity: 1;"></line><line transform="translate(153,0)" x2="0" y2="5" style="fill: none; stroke: #888; stroke-width: 1; opacity: 1;"></line><line transform="translate(163,0)" x2="0" y2="5" style="fill: none; stroke: #888; stroke-width: 1; opacity: 1;"></line><line transform="translate(174,0)" x2="0" y2="5" style="fill: none; stroke: #888; stroke-width: 1; opacity: 1;"></line><line transform="translate(184,0)" x2="0" y2="5" style="fill: none; stroke: #888; stroke-width: 1; opacity: 1;"></line><line transform="translate(195,0)" x2="0" y2="5" style="fill: none; stroke: #888; stroke-width: 1; opacity: 1;"></line><line transform="translate(205,0)" x2="0" y2="5" style="fill: none; stroke: #888; stroke-width: 1; opacity: 1;"></line><line transform="translate(216,0)" x2="0" y2="5" style="fill: none; stroke: #888; stroke-width: 1; opacity: 1;"></line><line transform="translate(226,0)" x2="0" y2="5" style="fill: none; stroke: #888; stroke-width: 1; opacity: 1;"></line><line transform="translate(237,0)" x2="0" y2="5" style="fill: none; stroke: #888; stroke-width: 1; opacity: 1;"></line><line transform="translate(247,0)" x2="0" y2="5" style="fill: none; stroke: #888; stroke-width: 1; opacity: 1;"></line><line transform="translate(258,0)" x2="0" y2="5" style="fill: none; stroke: #888; stroke-width: 1; opacity: 1;"></line><line transform="translate(268,0)" x2="0" y2="5" style="fill: none; stroke: #888; stroke-width: 1; opacity: 1;"></line><line transform="translate(279,0)" x2="0" y2="5" style="fill: none; stroke: #888; stroke-width: 1; opacity: 1;"></line><line transform="translate(289,0)" x2="0" y2="5" style="fill: none; stroke: #888; stroke-width: 1; opacity: 1;"></line><line transform="translate(300,0)" x2="0" y2="5" style="fill: none; stroke: #888; stroke-width: 1; opacity: 1;"></line><line transform="translate(311,0)" x2="0" y2="5" style="fill: none; stroke: #888; stroke-width: 1; opacity: 1;"></line><line transform="translate(321,0)" x2="0" y2="5" style="fill: none; stroke: #888; stroke-width: 1; opacity: 1;"></line><line transform="translate(332,0)" x2="0" y2="5" style="fill: none; stroke: #888; stroke-width: 1; opacity: 1;"></line><line transform="translate(342,0)" x2="0" y2="5" style="fill: none; stroke: #888; stroke-width: 1; opacity: 1;"></line><line transform="translate(353,0)" x2="0" y2="5" style="fill: none; stroke: #888; stroke-width: 1; opacity: 1;"></line><line transform="translate(363,0)" x2="0" y2="5" style="fill: none; stroke: #888; stroke-width: 1; opacity: 1;"></line><line transform="translate(374,0)" x2="0" y2="5" style="fill: none; stroke: #888; stroke-width: 1; opacity: 1;"></line><line transform="translate(384,0)" x2="0" y2="5" style="fill: none; stroke: #888; stroke-width: 1; opacity: 1;"></line><line transform="translate(395,0)" x2="0" y2="5" style="fill: none; stroke: #888; stroke-width: 1; opacity: 1;"></line><line transform="translate(405,0)" x2="0" y2="5" style="fill: none; stroke: #888; stroke-width: 1; opacity: 1;"></line><line transform="translate(416,0)" x2="0" y2="5" style="fill: none; stroke: #888; stroke-width: 1; opacity: 1;"></line><line transform="translate(426,0)" x2="0" y2="5" style="fill: none; stroke: #888; stroke-width: 1; opacity: 1;"></line><line transform="translate(437,0)" x2="0" y2="5" style="fill: none; stroke: #888; stroke-width: 1; opacity: 1;"></line><line transform="translate(447,0)" x2="0" y2="5" style="fill: none; stroke: #888; stroke-width: 1; opacity: 1;"></line><line transform="translate(458,0)" x2="0" y2="5" style="fill: none; stroke: #888; stroke-width: 1; opacity: 1;"></line><line transform="translate(468,0)" x2="0" y2="5" style="fill: none; stroke: #888; stroke-width: 1; opacity: 1;"></line><line transform="translate(479,0)" x2="0" y2="5" style="fill: none; stroke: #888; stroke-width: 1; opacity: 1;"></line><line transform="translate(489,0)" x2="0" y2="5" style="fill: none; stroke: #888; stroke-width: 1; opacity: 1;"></line><line transform="translate(500,0)" x2="0" y2="5" style="fill: none; stroke: #888; stroke-width: 1; opacity: 1;"></line><line transform="translate(511,0)" x2="0" y2="5" style="fill: none; stroke: #888; stroke-width: 1; opacity: 1;"></line><line transform="translate(521,0)" x2="0" y2="5" style="fill: none; stroke: #888; stroke-width: 1; opacity: 1;"></line><line transform="translate(532,0)" x2="0" y2="5" style="fill: none; stroke: #888; stroke-width: 1; opacity: 1;"></line><line transform="translate(542,0)" x2="0" y2="5" style="fill: none; stroke: #888; stroke-width: 1; opacity: 1;"></line><line transform="translate(553,0)" x2="0" y2="5" style="fill: none; stroke: #888; stroke-width: 1; opacity: 1;"></line><line transform="translate(563,0)" x2="0" y2="5" style="fill: none; stroke: #888; stroke-width: 1; opacity: 1;"></line><line transform="translate(574,0)" x2="0" y2="5" style="fill: none; stroke: #888; stroke-width: 1; opacity: 1;"></line><line transform="translate(584,0)" x2="0" y2="5" style="fill: none; stroke: #888; stroke-width: 1; opacity: 1;"></line><line transform="translate(595,0)" x2="0" y2="5" style="fill: none; stroke: #888; stroke-width: 1; opacity: 1;"></line><line transform="translate(605,0)" x2="0" y2="5" style="fill: none; stroke: #888; stroke-width: 1; opacity: 1;"></line><line transform="translate(616,0)" x2="0" y2="5" style="fill: none; stroke: #888; stroke-width: 1; opacity: 1;"></line><line transform="translate(626,0)" x2="0" y2="5" style="fill: none; stroke: #888; stroke-width: 1; opacity: 1;"></line><line transform="translate(637,0)" x2="0" y2="5" style="fill: none; stroke: #888; stroke-width: 1; opacity: 1;"></line><line transform="translate(647,0)" x2="0" y2="5" style="fill: none; stroke: #888; stroke-width: 1; opacity: 1;"></line><line transform="translate(658,0)" x2="0" y2="5" style="fill: none; stroke: #888; stroke-width: 1; opacity: 1;"></line><line transform="translate(668,0)" x2="0" y2="5" style="fill: none; stroke: #888; stroke-width: 1; opacity: 1;"></line><line transform="translate(679,0)" x2="0" y2="5" style="fill: none; stroke: #888; stroke-width: 1; opacity: 1;"></line><line transform="translate(689,0)" x2="0" y2="5" style="fill: none; stroke: #888; stroke-width: 1; opacity: 1;"></line><line transform="translate(700,0)" x2="0" y2="5" style="fill: none; stroke: #888; stroke-width: 1; opacity: 1;"></line><line transform="translate(711,0)" x2="0" y2="5" style="fill: none; stroke: #888; stroke-width: 1; opacity: 1;"></line><line transform="translate(721,0)" x2="0" y2="5" style="fill: none; stroke: #888; stroke-width: 1; opacity: 1;"></line><line transform="translate(732,0)" x2="0" y2="5" style="fill: none; stroke: #888; stroke-width: 1; opacity: 1;"></line><line transform="translate(742,0)" x2="0" y2="5" style="fill: none; stroke: #888; stroke-width: 1; opacity: 1;"></line><line transform="translate(753,0)" x2="0" y2="5" style="fill: none; stroke: #888; stroke-width: 1; opacity: 1;"></line><line transform="translate(763,0)" x2="0" y2="5" style="fill: none; stroke: #888; stroke-width: 1; opacity: 1;"></line><line transform="translate(774,0)" x2="0" y2="5" style="fill: none; stroke: #888; stroke-width: 1; opacity: 1;"></line><line transform="translate(784,0)" x2="0" y2="5" style="fill: none; stroke: #888; stroke-width: 1; opacity: 1;"></line><line transform="translate(795,0)" x2="0" y2="5" style="fill: none; stroke: #888; stroke-width: 1; opacity: 1;"></line></g><g class="mark-text role-axis-label" style="pointer-events: none;"><text text-anchor="end" transform="translate(5.263157894736821,7) rotate(270) translate(0,3)" style="font-family: sans-serif; font-size: 10px; fill: #000; opacity: 1;">1910</text><text text-anchor="end" transform="translate(15.789473684210506,7) rotate(270) translate(0,3)" style="font-family: sans-serif; font-size: 10px; fill: #000; opacity: 1;">1927</text><text text-anchor="end" transform="translate(26.31578947368419,7) rotate(270) translate(0,3)" style="font-family: sans-serif; font-size: 10px; fill: #000; opacity: 1;">1938</text><text text-anchor="end" transform="translate(36.842105263157876,7) rotate(270) translate(0,3)" style="font-family: sans-serif; font-size: 10px; fill: #000; opacity: 1;">1939</text><text text-anchor="end" transform="translate(47.36842105263156,7) rotate(270) translate(0,3)" style="font-family: sans-serif; font-size: 10px; fill: #000; opacity: 1;">1940</text><text text-anchor="end" transform="translate(57.894736842105246,7) rotate(270) translate(0,3)" style="font-family: sans-serif; font-size: 10px; fill: #000; opacity: 1;">1941</text><text text-anchor="end" transform="translate(68.42105263157893,7) rotate(270) translate(0,3)" style="font-family: sans-serif; font-size: 10px; fill: #000; opacity: 1;">1942</text><text text-anchor="end" transform="translate(78.94736842105262,7) rotate(270) translate(0,3)" style="font-family: sans-serif; font-size: 10px; fill: #000; opacity: 1;">1943</text><text text-anchor="end" transform="translate(89.4736842105263,7) rotate(270) translate(0,3)" style="font-family: sans-serif; font-size: 10px; fill: #000; opacity: 1;">1944</text><text text-anchor="end" transform="translate(99.99999999999999,7) rotate(270) translate(0,3)" style="font-family: sans-serif; font-size: 10px; fill: #000; opacity: 1;">1945</text><text text-anchor="end" transform="translate(110.52631578947367,7) rotate(270) translate(0,3)" style="font-family: sans-serif; font-size: 10px; fill: #000; opacity: 1;">1946</text><text text-anchor="end" transform="translate(121.05263157894736,7) rotate(270) translate(0,3)" style="font-family: sans-serif; font-size: 10px; fill: #000; opacity: 1;">1947</text><text text-anchor="end" transform="translate(131.57894736842104,7) rotate(270) translate(0,3)" style="font-family: sans-serif; font-size: 10px; fill: #000; opacity: 1;">1948</text><text text-anchor="end" transform="translate(142.10526315789474,7) rotate(270) translate(0,3)" style="font-family: sans-serif; font-size: 10px; fill: #000; opacity: 1;">1950</text><text text-anchor="end" transform="translate(152.6315789473684,7) rotate(270) translate(0,3)" style="font-family: sans-serif; font-size: 10px; fill: #000; opacity: 1;">1951</text><text text-anchor="end" transform="translate(163.15789473684208,7) rotate(270) translate(0,3)" style="font-family: sans-serif; font-size: 10px; fill: #000; opacity: 1;">1952</text><text text-anchor="end" transform="translate(173.68421052631578,7) rotate(270) translate(0,3)" style="font-family: sans-serif; font-size: 10px; fill: #000; opacity: 1;">1953</text><text text-anchor="end" transform="translate(184.21052631578948,7) rotate(270) translate(0,3)" style="font-family: sans-serif; font-size: 10px; fill: #000; opacity: 1;">1955</text><text text-anchor="end" transform="translate(194.73684210526315,7) rotate(270) translate(0,3)" style="font-family: sans-serif; font-size: 10px; fill: #000; opacity: 1;">1956</text><text text-anchor="end" transform="translate(205.26315789473682,7) rotate(270) translate(0,3)" style="font-family: sans-serif; font-size: 10px; fill: #000; opacity: 1;">1957</text><text text-anchor="end" transform="translate(215.78947368421052,7) rotate(270) translate(0,3)" style="font-family: sans-serif; font-size: 10px; fill: #000; opacity: 1;">1958</text><text text-anchor="end" transform="translate(226.31578947368422,7) rotate(270) translate(0,3)" style="font-family: sans-serif; font-size: 10px; fill: #000; opacity: 1;">1959</text><text text-anchor="end" transform="translate(236.8421052631579,7) rotate(270) translate(0,3)" style="font-family: sans-serif; font-size: 10px; fill: #000; opacity: 1;">1960</text><text text-anchor="end" transform="translate(247.36842105263156,7) rotate(270) translate(0,3)" style="font-family: sans-serif; font-size: 10px; fill: #000; opacity: 1;">1961</text><text text-anchor="end" transform="translate(257.89473684210526,7) rotate(270) translate(0,3)" style="font-family: sans-serif; font-size: 10px; fill: #000; opacity: 1;">1962</text><text text-anchor="end" transform="translate(268.42105263157896,7) rotate(270) translate(0,3)" style="font-family: sans-serif; font-size: 10px; fill: #000; opacity: 1;">1963</text><text text-anchor="end" transform="translate(278.94736842105266,7) rotate(270) translate(0,3)" style="font-family: sans-serif; font-size: 10px; fill: #000; opacity: 1;">1964</text><text text-anchor="end" transform="translate(289.4736842105263,7) rotate(270) translate(0,3)" style="font-family: sans-serif; font-size: 10px; fill: #000; opacity: 1;">1965</text><text text-anchor="end" transform="translate(300,7) rotate(270) translate(0,3)" style="font-family: sans-serif; font-size: 10px; fill: #000; opacity: 1;">1966</text><text text-anchor="end" transform="translate(310.5263157894737,7) rotate(270) translate(0,3)" style="font-family: sans-serif; font-size: 10px; fill: #000; opacity: 1;">1967</text><text text-anchor="end" transform="translate(321.05263157894734,7) rotate(270) translate(0,3)" style="font-family: sans-serif; font-size: 10px; fill: #000; opacity: 1;">1968</text><text text-anchor="end" transform="translate(331.57894736842104,7) rotate(270) translate(0,3)" style="font-family: sans-serif; font-size: 10px; fill: #000; opacity: 1;">1969</text><text text-anchor="end" transform="translate(342.10526315789474,7) rotate(270) translate(0,3)" style="font-family: sans-serif; font-size: 10px; fill: #000; opacity: 1;">1970</text><text text-anchor="end" transform="translate(352.63157894736844,7) rotate(270) translate(0,3)" style="font-family: sans-serif; font-size: 10px; fill: #000; opacity: 1;">1971</text><text text-anchor="end" transform="translate(363.15789473684214,7) rotate(270) translate(0,3)" style="font-family: sans-serif; font-size: 10px; fill: #000; opacity: 1;">1972</text><text text-anchor="end" transform="translate(373.6842105263158,7) rotate(270) translate(0,3)" style="font-family: sans-serif; font-size: 10px; fill: #000; opacity: 1;">1973</text><text text-anchor="end" transform="translate(384.2105263157895,7) rotate(270) translate(0,3)" style="font-family: sans-serif; font-size: 10px; fill: #000; opacity: 1;">1974</text><text text-anchor="end" transform="translate(394.7368421052632,7) rotate(270) translate(0,3)" style="font-family: sans-serif; font-size: 10px; fill: #000; opacity: 1;">1975</text><text text-anchor="end" transform="translate(405.2631578947368,7) rotate(270) translate(0,3)" style="font-family: sans-serif; font-size: 10px; fill: #000; opacity: 1;">1976</text><text text-anchor="end" transform="translate(415.7894736842105,7) rotate(270) translate(0,3)" style="font-family: sans-serif; font-size: 10px; fill: #000; opacity: 1;">1978</text><text text-anchor="end" transform="translate(426.3157894736842,7) rotate(270) translate(0,3)" style="font-family: sans-serif; font-size: 10px; fill: #000; opacity: 1;">1979</text><text text-anchor="end" transform="translate(436.8421052631579,7) rotate(270) translate(0,3)" style="font-family: sans-serif; font-size: 10px; fill: #000; opacity: 1;">1980</text><text text-anchor="end" transform="translate(447.3684210526316,7) rotate(270) translate(0,3)" style="font-family: sans-serif; font-size: 10px; fill: #000; opacity: 1;">1982</text><text text-anchor="end" transform="translate(457.89473684210526,7) rotate(270) translate(0,3)" style="font-family: sans-serif; font-size: 10px; fill: #000; opacity: 1;">1983</text><text text-anchor="end" transform="translate(468.42105263157896,7) rotate(270) translate(0,3)" style="font-family: sans-serif; font-size: 10px; fill: #000; opacity: 1;">1984</text><text text-anchor="end" transform="translate(478.94736842105266,7) rotate(270) translate(0,3)" style="font-family: sans-serif; font-size: 10px; fill: #000; opacity: 1;">1985</text><text text-anchor="end" transform="translate(489.4736842105263,7) rotate(270) translate(0,3)" style="font-family: sans-serif; font-size: 10px; fill: #000; opacity: 1;">1986</text><text text-anchor="end" transform="translate(500,7) rotate(270) translate(0,3)" style="font-family: sans-serif; font-size: 10px; fill: #000; opacity: 1;">1987</text><text text-anchor="end" transform="translate(510.5263157894737,7) rotate(270) translate(0,3)" style="font-family: sans-serif; font-size: 10px; fill: #000; opacity: 1;">1988</text><text text-anchor="end" transform="translate(521.0526315789473,7) rotate(270) translate(0,3)" style="font-family: sans-serif; font-size: 10px; fill: #000; opacity: 1;">1989</text><text text-anchor="end" transform="translate(531.578947368421,7) rotate(270) translate(0,3)" style="font-family: sans-serif; font-size: 10px; fill: #000; opacity: 1;">1990</text><text text-anchor="end" transform="translate(542.1052631578948,7) rotate(270) translate(0,3)" style="font-family: sans-serif; font-size: 10px; fill: #000; opacity: 1;">1991</text><text text-anchor="end" transform="translate(552.6315789473686,7) rotate(270) translate(0,3)" style="font-family: sans-serif; font-size: 10px; fill: #000; opacity: 1;">1992</text><text text-anchor="end" transform="translate(563.1578947368421,7) rotate(270) translate(0,3)" style="font-family: sans-serif; font-size: 10px; fill: #000; opacity: 1;">1993</text><text text-anchor="end" transform="translate(573.6842105263158,7) rotate(270) translate(0,3)" style="font-family: sans-serif; font-size: 10px; fill: #000; opacity: 1;">1994</text><text text-anchor="end" transform="translate(584.2105263157896,7) rotate(270) translate(0,3)" style="font-family: sans-serif; font-size: 10px; fill: #000; opacity: 1;">1995</text><text text-anchor="end" transform="translate(594.7368421052631,7) rotate(270) translate(0,3)" style="font-family: sans-serif; font-size: 10px; fill: #000; opacity: 1;">1996</text><text text-anchor="end" transform="translate(605.2631578947369,7) rotate(270) translate(0,3)" style="font-family: sans-serif; font-size: 10px; fill: #000; opacity: 1;">1997</text><text text-anchor="end" transform="translate(615.7894736842106,7) rotate(270) translate(0,3)" style="font-family: sans-serif; font-size: 10px; fill: #000; opacity: 1;">1998</text><text text-anchor="end" transform="translate(626.3157894736842,7) rotate(270) translate(0,3)" style="font-family: sans-serif; font-size: 10px; fill: #000; opacity: 1;">1999</text><text text-anchor="end" transform="translate(636.8421052631579,7) rotate(270) translate(0,3)" style="font-family: sans-serif; font-size: 10px; fill: #000; opacity: 1;">2000</text><text text-anchor="end" transform="translate(647.3684210526317,7) rotate(270) translate(0,3)" style="font-family: sans-serif; font-size: 10px; fill: #000; opacity: 1;">2001</text><text text-anchor="end" transform="translate(657.8947368421052,7) rotate(270) translate(0,3)" style="font-family: sans-serif; font-size: 10px; fill: #000; opacity: 1;">2002</text><text text-anchor="end" transform="translate(668.421052631579,7) rotate(270) translate(0,3)" style="font-family: sans-serif; font-size: 10px; fill: #000; opacity: 1;">2003</text><text text-anchor="end" transform="translate(678.9473684210527,7) rotate(270) translate(0,3)" style="font-family: sans-serif; font-size: 10px; fill: #000; opacity: 1;">2004</text><text text-anchor="end" transform="translate(689.4736842105262,7) rotate(270) translate(0,3)" style="font-family: sans-serif; font-size: 10px; fill: #000; opacity: 1;">2005</text><text text-anchor="end" transform="translate(700,7) rotate(270) translate(0,3)" style="font-family: sans-serif; font-size: 10px; fill: #000; opacity: 1;">2006</text><text text-anchor="end" transform="translate(710.5263157894738,7) rotate(270) translate(0,3)" style="font-family: sans-serif; font-size: 10px; fill: #000; opacity: 1;">2007</text><text text-anchor="end" transform="translate(721.0526315789475,7) rotate(270) translate(0,3)" style="font-family: sans-serif; font-size: 10px; fill: #000; opacity: 1;">2008</text><text text-anchor="end" transform="translate(731.578947368421,7) rotate(270) translate(0,3)" style="font-family: sans-serif; font-size: 10px; fill: #000; opacity: 1;">2009</text><text text-anchor="end" transform="translate(742.1052631578948,7) rotate(270) translate(0,3)" style="font-family: sans-serif; font-size: 10px; fill: #000; opacity: 1;">2010</text><text text-anchor="end" transform="translate(752.6315789473686,7) rotate(270) translate(0,3)" style="font-family: sans-serif; font-size: 10px; fill: #000; opacity: 1;">2011</text><text text-anchor="end" transform="translate(763.1578947368421,7) rotate(270) translate(0,3)" style="font-family: sans-serif; font-size: 10px; fill: #000; opacity: 1;">2012</text><text text-anchor="end" transform="translate(773.6842105263158,7) rotate(270) translate(0,3)" style="font-family: sans-serif; font-size: 10px; fill: #000; opacity: 1;">2013</text><text text-anchor="end" transform="translate(784.2105263157896,7) rotate(270) translate(0,3)" style="font-family: sans-serif; font-size: 10px; fill: #000; opacity: 1;">2014</text><text text-anchor="end" transform="translate(794.7368421052631,7) rotate(270) translate(0,3)" style="font-family: sans-serif; font-size: 10px; fill: #000; opacity: 1;">2015</text></g><g class="mark-rule role-axis-domain" style="pointer-events: none;"><line transform="translate(0,0)" x2="800" y2="0" style="fill: none; stroke: #888; stroke-width: 1; opacity: 1;"></line></g><g class="mark-text role-axis-title" style="pointer-events: none;"><text text-anchor="middle" transform="translate(400,42.24609375000006)" style="font-family: sans-serif; font-size: 11px; font-weight: bold; fill: #000; opacity: 1;">Year</text></g></g><path class="foreground" d="" style="pointer-events: none; display: none; fill: none;"></path></g></g><g class="mark-group role-axis"><g transform="translate(0.5,0.5)"><path class="background" d="M0,0h0v0h0Z" style="pointer-events: none; fill: none;"></path><g><g class="mark-rule role-axis-tick" style="pointer-events: none;"><line transform="translate(0,400)" x2="-5" y2="0" style="fill: none; stroke: #888; stroke-width: 1; opacity: 1;"></line><line transform="translate(0,364)" x2="-5" y2="0" style="fill: none; stroke: #888; stroke-width: 1; opacity: 1;"></line><line transform="translate(0,327)" x2="-5" y2="0" style="fill: none; stroke: #888; stroke-width: 1; opacity: 1;"></line><line transform="translate(0,291)" x2="-5" y2="0" style="fill: none; stroke: #888; stroke-width: 1; opacity: 1;"></line><line transform="translate(0,255)" x2="-5" y2="0" style="fill: none; stroke: #888; stroke-width: 1; opacity: 1;"></line><line transform="translate(0,218)" x2="-5" y2="0" style="fill: none; stroke: #888; stroke-width: 1; opacity: 1;"></line><line transform="translate(0,182)" x2="-5" y2="0" style="fill: none; stroke: #888; stroke-width: 1; opacity: 1;"></line><line transform="translate(0,145)" x2="-5" y2="0" style="fill: none; stroke: #888; stroke-width: 1; opacity: 1;"></line><line transform="translate(0,109)" x2="-5" y2="0" style="fill: none; stroke: #888; stroke-width: 1; opacity: 1;"></line><line transform="translate(0,73)" x2="-5" y2="0" style="fill: none; stroke: #888; stroke-width: 1; opacity: 1;"></line><line transform="translate(0,36)" x2="-5" y2="0" style="fill: none; stroke: #888; stroke-width: 1; opacity: 1;"></line><line transform="translate(0,0)" x2="-5" y2="0" style="fill: none; stroke: #888; stroke-width: 1; opacity: 1;"></line></g><g class="mark-text role-axis-label" style="pointer-events: none;"><text text-anchor="end" transform="translate(-7,403)" style="font-family: sans-serif; font-size: 10px; fill: #000; opacity: 1;">5,500</text><text text-anchor="end" transform="translate(-7,366.6363636363636)" style="font-family: sans-serif; font-size: 10px; fill: #000; opacity: 1;">5,000</text><text text-anchor="end" transform="translate(-7,330.2727272727273)" style="font-family: sans-serif; font-size: 10px; fill: #000; opacity: 1;">4,500</text><text text-anchor="end" transform="translate(-7,293.90909090909093)" style="font-family: sans-serif; font-size: 10px; fill: #000; opacity: 1;">4,000</text><text text-anchor="end" transform="translate(-7,257.5454545454545)" style="font-family: sans-serif; font-size: 10px; fill: #000; opacity: 1;">3,500</text><text text-anchor="end" transform="translate(-7,221.18181818181816)" style="font-family: sans-serif; font-size: 10px; fill: #000; opacity: 1;">3,000</text><text text-anchor="end" transform="translate(-7,184.8181818181818)" style="font-family: sans-serif; font-size: 10px; fill: #000; opacity: 1;">2,500</text><text text-anchor="end" transform="translate(-7,148.45454545454547)" style="font-family: sans-serif; font-size: 10px; fill: #000; opacity: 1;">2,000</text><text text-anchor="end" transform="translate(-7,112.09090909090908)" style="font-family: sans-serif; font-size: 10px; fill: #000; opacity: 1;">1,500</text><text text-anchor="end" transform="translate(-7,75.72727272727273)" style="font-family: sans-serif; font-size: 10px; fill: #000; opacity: 1;">1,000</text><text text-anchor="end" transform="translate(-7,39.36363636363637)" style="font-family: sans-serif; font-size: 10px; fill: #000; opacity: 1;">500</text><text text-anchor="end" transform="translate(-7,3)" style="font-family: sans-serif; font-size: 10px; fill: #000; opacity: 1;">0</text></g><g class="mark-rule role-axis-domain" style="pointer-events: none;"><line transform="translate(0,400)" x2="0" y2="-400" style="fill: none; stroke: #888; stroke-width: 1; opacity: 1;"></line></g><g class="mark-text role-axis-title" style="pointer-events: none;"><text text-anchor="middle" transform="translate(-36.0244140625,200) rotate(-90) translate(0,-2)" style="font-family: sans-serif; font-size: 11px; font-weight: bold; fill: #000; opacity: 1;">Depth</text></g></g><path class="foreground" d="" style="pointer-events: none; display: none; fill: none;"></path></g></g></g><path class="foreground" d="" style="display: none; fill: none;"></path></g></g></g></svg>