<svg class="marks" width="921" height="482" viewBox="0 0 921 482" version="1.1" xmlns="http://www.w3.org/2000/svg" xmlns:xlink="http://www.w3.org/1999/xlink"><g transform="translate(53,32)"><g class="mark-group role-frame root"><g transform="translate(0,0)"><path class="background" d="M0.5,0.5h800v400h-800Z" style="fill: none; stroke: #ddd;"></path><g><g class="mark-group role-axis"><g transform="translate(0.5,0.5)"><path class="background" d="M0,0h0v0h0Z" style="pointer-events: none; fill: none;"></path><g><g class="mark-rule role-axis-grid" style="pointer-events: none;"><line transform="translate(0,400)" x2="800" y2="0" style="fill: none; stroke: #ddd; stroke-width: 1; opacity: 1;"></line><line transform="translate(0,364)" x2="800" y2="0" style="fill: none; stroke: #ddd; stroke-width: 1; opacity: 1;"></line><line transform="translate(0,327)" x2="800" y2="0" style="fill: none; stroke: #ddd; stroke-width: 1; opacity: 1;"></line><line transform="translate(0,291)" x2="800" y2="0" style="fill: none; stroke: #ddd; stroke-width: 1; opacity: 1;"></line><line transform="translate(0,255)" x2="800" y2="0" style="fill: none; stroke: #ddd; stroke-width: 1; opacity: 1;"></line><line transform="translate(0,218)" x2="800" y2="0" style="fill: none; stroke: #ddd; stroke-width: 1; opacity: 1;"></line><line transform="translate(0,182)" x2="800" y2="0" style="fill: none; stroke: #ddd; stroke-width: 1; opacity: 1;"></line><line transform="translate(0,145)" x2="800" y2="0" style="fill: none; stroke: #ddd; stroke-width: 1; opacity: 1;"></line><line transform="translate(0,109)" x2="800" y2="0" style="fill: none; stroke: #ddd; stroke-width: 1; opacity: 1;"></line><line transform="translate(0,73)" x2="800" y2="0" style="fill: none; stroke: #ddd; stroke-width: 1; opacity: 1;"></line><line transform="translate(0,36)" x2="800" y2="0" style="fill: none; stroke: #ddd; stroke-width: 1; opacity: 1;"></line><line transform="translate(0,0)" x2="800" y2="0" style="fill: none; stroke: #ddd; stroke-width: 1; opacity: 1;"></line></g></g><path class="foreground" d="" style="pointer-events: none; display: none; fill: none;"></path></g></g><g class="mark-symbol role-mark marks"><path transform="translate(4.938271604938279,0)" d="M3.082207001484488,0A3.082207001484488,3.082207001484488,0,1,1,-3.082207001484488,0A3.082207001484488,3.082207001484488,0,1,1,3.082207001484488,0" style="fill: red; stroke-width: 2; opacity: 0.7;"></path><path transform="translate(4.938271604938279,7.2727272727272725)" d="M1.541103500742244,0A1.541103500742244,1.541103500742244,0,1,1,-1.541103500742244,0A1.541103500742244,1.541103500742244,0,1,1,1.541103500742244,0" style="fill: red; stroke-width: 2; opacity: 0.7;"></path><path transform="translate(14.814814814814822,0)" d="M2.669269563007828,0A2.669269563007828,2.669269563007828,0,1,1,-2.669269563007828,0A2.669269563007828,2.669269563007828,0,1,1,2.669269563007828,0" style="fill: red; stroke-width: 2; opacity: 0.7;"></path><path transform="translate(24.691358024691365,0)" d="M1.541103500742244,0A1.541103500742244,1.541103500742244,0,1,1,-1.541103500742244,0A1.541103500742244,1.541103500742244,0,1,1,1.541103500742244,0" style="fill: red; stroke-width: 2; opacity: 0.7;"></path><path transform="translate(34.567901234567906,0)" d="M1.541103500742244,0A1.541103500742244,1.541103500742244,0,1,1,-1.541103500742244,0A1.541103500742244,1.541103500742244,0,1,1,1.541103500742244,0" style="fill: red; stroke-width: 2; opacity: 0.7;"></path><path transform="translate(44.44444444444445,0)" d="M1.541103500742244,0A1.541103500742244,1.541103500742244,0,1,1,-1.541103500742244,0A1.541103500742244,1.541103500742244,0,1,1,1.541103500742244,0" style="fill: red; stroke-width: 2; opacity: 0.7;"></path><path transform="translate(54.320987654320994,0)" d="M1.541103500742244,0A1.541103500742244,1.541103500742244,0,1,1,-1.541103500742244,0A1.541103500742244,1.541103500742244,0,1,1,1.541103500742244,0" style="fill: red; stroke-width: 2; opacity: 0.7;"></path><path transform="translate(64.19753086419753,0)" d="M2.179449471770337,0A2.179449471770337,2.179449471770337,0,1,1,-2.179449471770337,0A2.179449471770337,2.179449471770337,0,1,1,2.179449471770337,0" style="fill: red; stroke-width: 2; opacity: 0.7;"></path><path transform="translate(74.07407407407408,0)" d="M1.541103500742244,0A1.541103500742244,1.541103500742244,0,1,1,-1.541103500742244,0A1.541103500742244,1.541103500742244,0,1,1,1.541103500742244,0" style="fill: red; stroke-width: 2; opacity: 0.7;"></path><path transform="translate(83.95061728395062,0)" d="M2.179449471770337,0A2.179449471770337,2.179449471770337,0,1,1,-2.179449471770337,0A2.179449471770337,2.179449471770337,0,1,1,2.179449471770337,0" style="fill: red; stroke-width: 2; opacity: 0.7;"></path><path transform="translate(93.82716049382717,0)" d="M1.541103500742244,0A1.541103500742244,1.541103500742244,0,1,1,-1.541103500742244,0A1.541103500742244,1.541103500742244,0,1,1,1.541103500742244,0" style="fill: red; stroke-width: 2; opacity: 0.7;"></path><path transform="translate(103.70370370370371,0)" d="M1.541103500742244,0A1.541103500742244,1.541103500742244,0,1,1,-1.541103500742244,0A1.541103500742244,1.541103500742244,0,1,1,1.541103500742244,0" style="fill: red; stroke-width: 2; opacity: 0.7;"></path><path transform="translate(113.58024691358025,0)" d="M3.082207001484488,0A3.082207001484488,3.082207001484488,0,1,1,-3.082207001484488,0A3.082207001484488,3.082207001484488,0,1,1,3.082207001484488,0" style="fill: red; stroke-width: 2; opacity: 0.7;"></path><path transform="translate(123.45679012345678,0)" d="M2.179449471770337,0A2.179449471770337,2.179449471770337,0,1,1,-2.179449471770337,0A2.179449471770337,2.179449471770337,0,1,1,2.179449471770337,0" style="fill: red; stroke-width: 2; opacity: 0.7;"></path><path transform="translate(133.33333333333334,0)" d="M1.541103500742244,0A1.541103500742244,1.541103500742244,0,1,1,-1.541103500742244,0A1.541103500742244,1.541103500742244,0,1,1,1.541103500742244,0" style="fill: red; stroke-width: 2; opacity: 0.7;"></path><path transform="translate(143.20987654320987,0)" d="M2.669269563007828,0A2.669269563007828,2.669269563007828,0,1,1,-2.669269563007828,0A2.669269563007828,2.669269563007828,0,1,1,2.669269563007828,0" style="fill: red; stroke-width: 2; opacity: 0.7;"></path><path transform="translate(153.08641975308643,0)" d="M3.4460121880225554,0A3.4460121880225554,3.4460121880225554,0,1,1,-3.4460121880225554,0A3.4460121880225554,3.4460121880225554,0,1,1,3.4460121880225554,0" style="fill: red; stroke-width: 2; opacity: 0.7;"></path><path transform="translate(162.96296296296296,0)" d="M4.873397172404482,0A4.873397172404482,4.873397172404482,0,1,1,-4.873397172404482,0A4.873397172404482,4.873397172404482,0,1,1,4.873397172404482,0" style="fill: red; stroke-width: 2; opacity: 0.7;"></path><path transform="translate(162.96296296296296,365.74545454545455)" d="M1.541103500742244,0A1.541103500742244,1.541103500742244,0,1,1,-1.541103500742244,0A1.541103500742244,1.541103500742244,0,1,1,1.541103500742244,0" style="fill: red; stroke-width: 2; opacity: 0.7;"></path><path transform="translate(172.8395061728395,0)" d="M4.077376607575022,0A4.077376607575022,4.077376607575022,0,1,1,-4.077376607575022,0A4.077376607575022,4.077376607575022,0,1,1,4.077376607575022,0" style="fill: red; stroke-width: 2; opacity: 0.7;"></path><path transform="translate(172.8395061728395,359.27272727272725)" d="M1.541103500742244,0A1.541103500742244,1.541103500742244,0,1,1,-1.541103500742244,0A1.541103500742244,1.541103500742244,0,1,1,1.541103500742244,0" style="fill: red; stroke-width: 2; opacity: 0.7;"></path><path transform="translate(182.71604938271605,0)" d="M4.358898943540674,0A4.358898943540674,4.358898943540674,0,1,1,-4.358898943540674,0A4.358898943540674,4.358898943540674,0,1,1,4.358898943540674,0" style="fill: red; stroke-width: 2; opacity: 0.7;"></path><path transform="translate(182.71604938271605,184)" d="M1.541103500742244,0A1.541103500742244,1.541103500742244,0,1,1,-1.541103500742244,0A1.541103500742244,1.541103500742244,0,1,1,1.541103500742244,0" style="fill: red; stroke-width: 2; opacity: 0.7;"></path><path transform="translate(192.59259259259258,0)" d="M3.4460121880225554,0A3.4460121880225554,3.4460121880225554,0,1,1,-3.4460121880225554,0A3.4460121880225554,3.4460121880225554,0,1,1,3.4460121880225554,0" style="fill: red; stroke-width: 2; opacity: 0.7;"></path><path transform="translate(202.46913580246914,0)" d="M3.774917217635375,0A3.774917217635375,3.774917217635375,0,1,1,-3.774917217635375,0A3.774917217635375,3.774917217635375,0,1,1,3.774917217635375,0" style="fill: red; stroke-width: 2; opacity: 0.7;"></path><path transform="translate(212.34567901234567,0)" d="M3.4460121880225554,0A3.4460121880225554,3.4460121880225554,0,1,1,-3.4460121880225554,0A3.4460121880225554,3.4460121880225554,0,1,1,3.4460121880225554,0" style="fill: red; stroke-width: 2; opacity: 0.7;"></path><path transform="translate(222.22222222222223,0)" d="M3.4460121880225554,0A3.4460121880225554,3.4460121880225554,0,1,1,-3.4460121880225554,0A3.4460121880225554,3.4460121880225554,0,1,1,3.4460121880225554,0" style="fill: red; stroke-width: 2; opacity: 0.7;"></path><path transform="translate(232.09876543209876,0)" d="M3.082207001484488,0A3.082207001484488,3.082207001484488,0,1,1,-3.082207001484488,0A3.082207001484488,3.082207001484488,0,1,1,3.082207001484488,0" style="fill: red; stroke-width: 2; opacity: 0.7;"></path><path transform="translate(241.9753086419753,0)" d="M5.338539126015656,0A5.338539126015656,5.338539126015656,0,1,1,-5.338539126015656,0A5.338539126015656,5.338539126015656,0,1,1,5.338539126015656,0" style="fill: red; stroke-width: 2; opacity: 0.7;"></path><path transform="translate(241.9753086419753,0.1090909090909091)" d="M2.179449471770337,0A2.179449471770337,2.179449471770337,0,1,1,-2.179449471770337,0A2.179449471770337,2.179449471770337,0,1,1,2.179449471770337,0" style="fill: red; stroke-width: 2; opacity: 0.7;"></path><path transform="translate(251.85185185185185,0)" d="M2.669269563007828,0A2.669269563007828,2.669269563007828,0,1,1,-2.669269563007828,0A2.669269563007828,2.669269563007828,0,1,1,2.669269563007828,0" style="fill: red; stroke-width: 2; opacity: 0.7;"></path><path transform="translate(261.7283950617284,0)" d="M3.4460121880225554,0A3.4460121880225554,3.4460121880225554,0,1,1,-3.4460121880225554,0A3.4460121880225554,3.4460121880225554,0,1,1,3.4460121880225554,0" style="fill: red; stroke-width: 2; opacity: 0.7;"></path><path transform="translate(261.7283950617284,0.8727272727272728)" d="M1.541103500742244,0A1.541103500742244,1.541103500742244,0,1,1,-1.541103500742244,0A1.541103500742244,1.541103500742244,0,1,1,1.541103500742244,0" style="fill: red; stroke-width: 2; opacity: 0.7;"></path><path transform="translate(261.7283950617284,1.309090909090909)" d="M1.541103500742244,0A1.541103500742244,1.541103500742244,0,1,1,-1.541103500742244,0A1.541103500742244,1.541103500742244,0,1,1,1.541103500742244,0" style="fill: red; stroke-width: 2; opacity: 0.7;"></path><path transform="translate(261.7283950617284,1.4545454545454546)" d="M1.541103500742244,0A1.541103500742244,1.541103500742244,0,1,1,-1.541103500742244,0A1.541103500742244,1.541103500742244,0,1,1,1.541103500742244,0" style="fill: red; stroke-width: 2; opacity: 0.7;"></path><path transform="translate(261.7283950617284,0.2181818181818182)" d="M1.541103500742244,0A1.541103500742244,1.541103500742244,0,1,1,-1.541103500742244,0A1.541103500742244,1.541103500742244,0,1,1,1.541103500742244,0" style="fill: red; stroke-width: 2; opacity: 0.7;"></path><path transform="translate(261.7283950617284,0.4363636363636364)" d="M1.541103500742244,0A1.541103500742244,1.541103500742244,0,1,1,-1.541103500742244,0A1.541103500742244,1.541103500742244,0,1,1,1.541103500742244,0" style="fill: red; stroke-width: 2; opacity: 0.7;"></path><path transform="translate(271.6049382716049,0)" d="M2.669269563007828,0A2.669269563007828,2.669269563007828,0,1,1,-2.669269563007828,0A2.669269563007828,2.669269563007828,0,1,1,2.669269563007828,0" style="fill: red; stroke-width: 2; opacity: 0.7;"></path><path transform="translate(271.6049382716049,0.07272727272727272)" d="M1.541103500742244,0A1.541103500742244,1.541103500742244,0,1,1,-1.541103500742244,0A1.541103500742244,1.541103500742244,0,1,1,1.541103500742244,0" style="fill: red; stroke-width: 2; opacity: 0.7;"></path><path transform="translate(271.6049382716049,1.4545454545454546)" d="M1.541103500742244,0A1.541103500742244,1.541103500742244,0,1,1,-1.541103500742244,0A1.541103500742244,1.541103500742244,0,1,1,1.541103500742244,0" style="fill: red; stroke-width: 2; opacity: 0.7;"></path><path transform="translate(271.6049382716049,0.2181818181818182)" d="M1.541103500742244,0A1.541103500742244,1.541103500742244,0,1,1,-1.541103500742244,0A1.541103500742244,1.541103500742244,0,1,1,1.541103500742244,0" style="fill: red; stroke-width: 2; opacity: 0.7;"></path><path transform="translate(271.6049382716049,0.4363636363636364)" d="M3.082207001484488,0A3.082207001484488,3.082207001484488,0,1,1,-3.082207001484488,0A3.082207001484488,3.082207001484488,0,1,1,3.082207001484488,0" style="fill: red; stroke-width: 2; opacity: 0.7;"></path><path transform="translate(271.6049382716049,0.4727272727272728)" d="M1.541103500742244,0A1.541103500742244,1.541103500742244,0,1,1,-1.541103500742244,0A1.541103500742244,1.541103500742244,0,1,1,1.541103500742244,0" style="fill: red; stroke-width: 2; opacity: 0.7;"></path><path transform="translate(281.48148148148147,0)" d="M4.358898943540674,0A4.358898943540674,4.358898943540674,0,1,1,-4.358898943540674,0A4.358898943540674,4.358898943540674,0,1,1,4.358898943540674,0" style="fill: red; stroke-width: 2; opacity: 0.7;"></path><path transform="translate(281.48148148148147,1.309090909090909)" d="M2.179449471770337,0A2.179449471770337,2.179449471770337,0,1,1,-2.179449471770337,0A2.179449471770337,2.179449471770337,0,1,1,2.179449471770337,0" style="fill: red; stroke-width: 2; opacity: 0.7;"></path><path transform="translate(291.358024691358,0)" d="M7.705517503711221,0A7.705517503711221,7.705517503711221,0,1,1,-7.705517503711221,0A7.705517503711221,7.705517503711221,0,1,1,7.705517503711221,0" style="fill: red; stroke-width: 2; opacity: 0.7;"></path><path transform="translate(301.2345679012346,0)" d="M6.164414002968976,0A6.164414002968976,6.164414002968976,0,1,1,-6.164414002968976,0A6.164414002968976,6.164414002968976,0,1,1,6.164414002968976,0" style="fill: red; stroke-width: 2; opacity: 0.7;"></path><path transform="translate(311.1111111111111,0)" d="M4.358898943540674,0A4.358898943540674,4.358898943540674,0,1,1,-4.358898943540674,0A4.358898943540674,4.358898943540674,0,1,1,4.358898943540674,0" style="fill: red; stroke-width: 2; opacity: 0.7;"></path><path transform="translate(311.1111111111111,9.672727272727274)" d="M2.179449471770337,0A2.179449471770337,2.179449471770337,0,1,1,-2.179449471770337,0A2.179449471770337,2.179449471770337,0,1,1,2.179449471770337,0" style="fill: red; stroke-width: 2; opacity: 0.7;"></path><path transform="translate(320.98765432098764,0)" d="M6.164414002968976,0A6.164414002968976,6.164414002968976,0,1,1,-6.164414002968976,0A6.164414002968976,6.164414002968976,0,1,1,6.164414002968976,0" style="fill: red; stroke-width: 2; opacity: 0.7;"></path><path transform="translate(330.8641975308642,0)" d="M3.774917217635375,0A3.774917217635375,3.774917217635375,0,1,1,-3.774917217635375,0A3.774917217635375,3.774917217635375,0,1,1,3.774917217635375,0" style="fill: red; stroke-width: 2; opacity: 0.7;"></path><path transform="translate(330.8641975308642,9.6)" d="M1.541103500742244,0A1.541103500742244,1.541103500742244,0,1,1,-1.541103500742244,0A1.541103500742244,1.541103500742244,0,1,1,1.541103500742244,0" style="fill: red; stroke-width: 2; opacity: 0.7;"></path><path transform="translate(340.7407407407407,0)" d="M4.873397172404482,0A4.873397172404482,4.873397172404482,0,1,1,-4.873397172404482,0A4.873397172404482,4.873397172404482,0,1,1,4.873397172404482,0" style="fill: red; stroke-width: 2; opacity: 0.7;"></path><path transform="translate(340.7407407407407,0.8727272727272728)" d="M1.541103500742244,0A1.541103500742244,1.541103500742244,0,1,1,-1.541103500742244,0A1.541103500742244,1.541103500742244,0,1,1,1.541103500742244,0" style="fill: red; stroke-width: 2; opacity: 0.7;"></path><path transform="translate(340.7407407407407,2.2545454545454544)" d="M1.541103500742244,0A1.541103500742244,1.541103500742244,0,1,1,-1.541103500742244,0A1.541103500742244,1.541103500742244,0,1,1,1.541103500742244,0" style="fill: red; stroke-width: 2; opacity: 0.7;"></path><path transform="translate(350.61728395061726,0)" d="M3.082207001484488,0A3.082207001484488,3.082207001484488,0,1,1,-3.082207001484488,0A3.082207001484488,3.082207001484488,0,1,1,3.082207001484488,0" style="fill: red; stroke-width: 2; opacity: 0.7;"></path><path transform="translate(350.61728395061726,8.218181818181817)" d="M1.541103500742244,0A1.541103500742244,1.541103500742244,0,1,1,-1.541103500742244,0A1.541103500742244,1.541103500742244,0,1,1,1.541103500742244,0" style="fill: red; stroke-width: 2; opacity: 0.7;"></path><path transform="translate(350.61728395061726,8.581818181818182)" d="M1.541103500742244,0A1.541103500742244,1.541103500742244,0,1,1,-1.541103500742244,0A1.541103500742244,1.541103500742244,0,1,1,1.541103500742244,0" style="fill: red; stroke-width: 2; opacity: 0.7;"></path><path transform="translate(350.61728395061726,9.309090909090909)" d="M1.541103500742244,0A1.541103500742244,1.541103500742244,0,1,1,-1.541103500742244,0A1.541103500742244,1.541103500742244,0,1,1,1.541103500742244,0" style="fill: red; stroke-width: 2; opacity: 0.7;"></path><path transform="translate(350.61728395061726,9.818181818181818)" d="M1.541103500742244,0A1.541103500742244,1.541103500742244,0,1,1,-1.541103500742244,0A1.541103500742244,1.541103500742244,0,1,1,1.541103500742244,0" style="fill: red; stroke-width: 2; opacity: 0.7;"></path><path transform="translate(350.61728395061726,2.109090909090909)" d="M1.541103500742244,0A1.541103500742244,1.541103500742244,0,1,1,-1.541103500742244,0A1.541103500742244,1.541103500742244,0,1,1,1.541103500742244,0" style="fill: red; stroke-width: 2; opacity: 0.7;"></path><path transform="translate(350.61728395061726,2.4727272727272727)" d="M1.541103500742244,0A1.541103500742244,1.541103500742244,0,1,1,-1.541103500742244,0A1.541103500742244,1.541103500742244,0,1,1,1.541103500742244,0" style="fill: red; stroke-width: 2; opacity: 0.7;"></path><path transform="translate(350.61728395061726,4.218181818181818)" d="M1.541103500742244,0A1.541103500742244,1.541103500742244,0,1,1,-1.541103500742244,0A1.541103500742244,1.541103500742244,0,1,1,1.541103500742244,0" style="fill: red; stroke-width: 2; opacity: 0.7;"></path><path transform="translate(360.4938271604938,0)" d="M3.082207001484488,0A3.082207001484488,3.082207001484488,0,1,1,-3.082207001484488,0A3.082207001484488,3.082207001484488,0,1,1,3.082207001484488,0" style="fill: red; stroke-width: 2; opacity: 0.7;"></path><path transform="translate(360.4938271604938,1.6)" d="M1.541103500742244,0A1.541103500742244,1.541103500742244,0,1,1,-1.541103500742244,0A1.541103500742244,1.541103500742244,0,1,1,1.541103500742244,0" style="fill: red; stroke-width: 2; opacity: 0.7;"></path><path transform="translate(360.4938271604938,3.781818181818182)" d="M1.541103500742244,0A1.541103500742244,1.541103500742244,0,1,1,-1.541103500742244,0A1.541103500742244,1.541103500742244,0,1,1,1.541103500742244,0" style="fill: red; stroke-width: 2; opacity: 0.7;"></path><path transform="translate(370.3703703703704,0)" d="M2.179449471770337,0A2.179449471770337,2.179449471770337,0,1,1,-2.179449471770337,0A2.179449471770337,2.179449471770337,0,1,1,2.179449471770337,0" style="fill: red; stroke-width: 2; opacity: 0.7;"></path><path transform="translate(380.2469135802469,0)" d="M4.873397172404482,0A4.873397172404482,4.873397172404482,0,1,1,-4.873397172404482,0A4.873397172404482,4.873397172404482,0,1,1,4.873397172404482,0" style="fill: red; stroke-width: 2; opacity: 0.7;"></path><path transform="translate(380.2469135802469,20.363636363636363)" d="M2.179449471770337,0A2.179449471770337,2.179449471770337,0,1,1,-2.179449471770337,0A2.179449471770337,2.179449471770337,0,1,1,2.179449471770337,0" style="fill: red; stroke-width: 2; opacity: 0.7;"></path><path transform="translate(390.12345679012344,0)" d="M2.669269563007828,0A2.669269563007828,2.669269563007828,0,1,1,-2.669269563007828,0A2.669269563007828,2.669269563007828,0,1,1,2.669269563007828,0" style="fill: red; stroke-width: 2; opacity: 0.7;"></path><path transform="translate(400,0)" d="M3.082207001484488,0A3.082207001484488,3.082207001484488,0,1,1,-3.082207001484488,0A3.082207001484488,3.082207001484488,0,1,1,3.082207001484488,0" style="fill: red; stroke-width: 2; opacity: 0.7;"></path><path transform="translate(409.8765432098765,0)" d="M3.4460121880225554,0A3.4460121880225554,3.4460121880225554,0,1,1,-3.4460121880225554,0A3.4460121880225554,3.4460121880225554,0,1,1,3.4460121880225554,0" style="fill: red; stroke-width: 2; opacity: 0.7;"></path><path transform="translate(419.75308641975306,0)" d="M1.541103500742244,0A1.541103500742244,1.541103500742244,0,1,1,-1.541103500742244,0A1.541103500742244,1.541103500742244,0,1,1,1.541103500742244,0" style="fill: red; stroke-width: 2; opacity: 0.7;"></path><path transform="translate(429.6296296296296,0)" d="M1.541103500742244,0A1.541103500742244,1.541103500742244,0,1,1,-1.541103500742244,0A1.541103500742244,1.541103500742244,0,1,1,1.541103500742244,0" style="fill: red; stroke-width: 2; opacity: 0.7;"></path><path transform="translate(439.5061728395062,0)" d="M2.179449471770337,0A2.179449471770337,2.179449471770337,0,1,1,-2.179449471770337,0A2.179449471770337,2.179449471770337,0,1,1,2.179449471770337,0" style="fill: red; stroke-width: 2; opacity: 0.7;"></path><path transform="translate(449.3827160493827,0)" d="M4.077376607575022,0A4.077376607575022,4.077376607575022,0,1,1,-4.077376607575022,0A4.077376607575022,4.077376607575022,0,1,1,4.077376607575022,0" style="fill: red; stroke-width: 2; opacity: 0.7;"></path><path transform="translate(459.25925925925924,0)" d="M1.541103500742244,0A1.541103500742244,1.541103500742244,0,1,1,-1.541103500742244,0A1.541103500742244,1.541103500742244,0,1,1,1.541103500742244,0" style="fill: red; stroke-width: 2; opacity: 0.7;"></path><path transform="translate(469.1358024691358,0)" d="M1.541103500742244,0A1.541103500742244,1.541103500742244,0,1,1,-1.541103500742244,0A1.541103500742244,1.541103500742244,0,1,1,1.541103500742244,0" style="fill: red; stroke-width: 2; opacity: 0.7;"></path><path transform="translate(479.0123456790123,0)" d="M4.623310502226732,0A4.623310502226732,4.623310502226732,0,1,1,-4.623310502226732,0A4.623310502226732,4.623310502226732,0,1,1,4.623310502226732,0" style="fill: red; stroke-width: 2; opacity: 0.7;"></path><path transform="translate(488.88888888888886,0)" d="M2.179449471770337,0A2.179449471770337,2.179449471770337,0,1,1,-2.179449471770337,0A2.179449471770337,2.179449471770337,0,1,1,2.179449471770337,0" style="fill: red; stroke-width: 2; opacity: 0.7;"></path><path transform="translate(498.7654320987654,0)" d="M3.774917217635375,0A3.774917217635375,3.774917217635375,0,1,1,-3.774917217635375,0A3.774917217635375,3.774917217635375,0,1,1,3.774917217635375,0" style="fill: red; stroke-width: 2; opacity: 0.7;"></path><path transform="translate(498.7654320987654,136.36363636363635)" d="M2.179449471770337,0A2.179449471770337,2.179449471770337,0,1,1,-2.179449471770337,0A2.179449471770337,2.179449471770337,0,1,1,2.179449471770337,0" style="fill: red; stroke-width: 2; opacity: 0.7;"></path><path transform="translate(508.641975308642,0)" d="M3.4460121880225554,0A3.4460121880225554,3.4460121880225554,0,1,1,-3.4460121880225554,0A3.4460121880225554,3.4460121880225554,0,1,1,3.4460121880225554,0" style="fill: red; stroke-width: 2; opacity: 0.7;"></path><path transform="translate(518.5185185185185,0)" d="M6.5383484153110105,0A6.5383484153110105,6.5383484153110105,0,1,1,-6.5383484153110105,0A6.5383484153110105,6.5383484153110105,0,1,1,6.5383484153110105,0" style="fill: red; stroke-width: 2; opacity: 0.7;"></path><path transform="translate(518.5185185185185,21.454545454545453)" d="M1.541103500742244,0A1.541103500742244,1.541103500742244,0,1,1,-1.541103500742244,0A1.541103500742244,1.541103500742244,0,1,1,1.541103500742244,0" style="fill: red; stroke-width: 2; opacity: 0.7;"></path><path transform="translate(528.3950617283951,0)" d="M3.082207001484488,0A3.082207001484488,3.082207001484488,0,1,1,-3.082207001484488,0A3.082207001484488,3.082207001484488,0,1,1,3.082207001484488,0" style="fill: red; stroke-width: 2; opacity: 0.7;"></path><path transform="translate(528.3950617283951,1.4545454545454546)" d="M2.669269563007828,0A2.669269563007828,2.669269563007828,0,1,1,-2.669269563007828,0A2.669269563007828,2.669269563007828,0,1,1,2.669269563007828,0" style="fill: red; stroke-width: 2; opacity: 0.7;"></path><path transform="translate(538.2716049382716,0)" d="M4.358898943540674,0A4.358898943540674,4.358898943540674,0,1,1,-4.358898943540674,0A4.358898943540674,4.358898943540674,0,1,1,4.358898943540674,0" style="fill: red; stroke-width: 2; opacity: 0.7;"></path><path transform="translate(538.2716049382716,0.7272727272727273)" d="M1.541103500742244,0A1.541103500742244,1.541103500742244,0,1,1,-1.541103500742244,0A1.541103500742244,1.541103500742244,0,1,1,1.541103500742244,0" style="fill: red; stroke-width: 2; opacity: 0.7;"></path><path transform="translate(538.2716049382716,0.36363636363636365)" d="M2.179449471770337,0A2.179449471770337,2.179449471770337,0,1,1,-2.179449471770337,0A2.179449471770337,2.179449471770337,0,1,1,2.179449471770337,0" style="fill: red; stroke-width: 2; opacity: 0.7;"></path><path transform="translate(548.148148148148,0)" d="M1.541103500742244,0A1.541103500742244,1.541103500742244,0,1,1,-1.541103500742244,0A1.541103500742244,1.541103500742244,0,1,1,1.541103500742244,0" style="fill: red; stroke-width: 2; opacity: 0.7;"></path><path transform="translate(558.0246913580247,0)" d="M2.669269563007828,0A2.669269563007828,2.669269563007828,0,1,1,-2.669269563007828,0A2.669269563007828,2.669269563007828,0,1,1,2.669269563007828,0" style="fill: red; stroke-width: 2; opacity: 0.7;"></path><path transform="translate(567.9012345679012,0)" d="M5.5565276927232174,0A5.5565276927232174,5.5565276927232174,0,1,1,-5.5565276927232174,0A5.5565276927232174,5.5565276927232174,0,1,1,5.5565276927232174,0" style="fill: red; stroke-width: 2; opacity: 0.7;"></path><path transform="translate(567.9012345679012,1.1636363636363636)" d="M1.541103500742244,0A1.541103500742244,1.541103500742244,0,1,1,-1.541103500742244,0A1.541103500742244,1.541103500742244,0,1,1,1.541103500742244,0" style="fill: red; stroke-width: 2; opacity: 0.7;"></path><path transform="translate(567.9012345679012,1.6727272727272726)" d="M1.541103500742244,0A1.541103500742244,1.541103500742244,0,1,1,-1.541103500742244,0A1.541103500742244,1.541103500742244,0,1,1,1.541103500742244,0" style="fill: red; stroke-width: 2; opacity: 0.7;"></path><path transform="translate(567.9012345679012,2.4)" d="M1.541103500742244,0A1.541103500742244,1.541103500742244,0,1,1,-1.541103500742244,0A1.541103500742244,1.541103500742244,0,1,1,1.541103500742244,0" style="fill: red; stroke-width: 2; opacity: 0.7;"></path><path transform="translate(567.9012345679012,2.7636363636363637)" d="M1.541103500742244,0A1.541103500742244,1.541103500742244,0,1,1,-1.541103500742244,0A1.541103500742244,1.541103500742244,0,1,1,1.541103500742244,0" style="fill: red; stroke-width: 2; opacity: 0.7;"></path><path transform="translate(567.9012345679012,54.54545454545454)" d="M1.541103500742244,0A1.541103500742244,1.541103500742244,0,1,1,-1.541103500742244,0A1.541103500742244,1.541103500742244,0,1,1,1.541103500742244,0" style="fill: red; stroke-width: 2; opacity: 0.7;"></path><path transform="translate(577.7777777777778,0)" d="M5.111262075065218,0A5.111262075065218,5.111262075065218,0,1,1,-5.111262075065218,0A5.111262075065218,5.111262075065218,0,1,1,5.111262075065218,0" style="fill: red; stroke-width: 2; opacity: 0.7;"></path><path transform="translate(587.6543209876543,0)" d="M9.374166629626338,0A9.374166629626338,9.374166629626338,0,1,1,-9.374166629626338,0A9.374166629626338,9.374166629626338,0,1,1,9.374166629626338,0" style="fill: red; stroke-width: 2; opacity: 0.7;"></path><path transform="translate(587.6543209876543,0.5090909090909091)" d="M2.179449471770337,0A2.179449471770337,2.179449471770337,0,1,1,-2.179449471770337,0A2.179449471770337,2.179449471770337,0,1,1,2.179449471770337,0" style="fill: red; stroke-width: 2; opacity: 0.7;"></path><path transform="translate(597.530864197531,0)" d="M9.246621004453464,0A9.246621004453464,9.246621004453464,0,1,1,-9.246621004453464,0A9.246621004453464,9.246621004453464,0,1,1,9.246621004453464,0" style="fill: red; stroke-width: 2; opacity: 0.7;"></path><path transform="translate(597.530864197531,1.090909090909091)" d="M2.179449471770337,0A2.179449471770337,2.179449471770337,0,1,1,-2.179449471770337,0A2.179449471770337,2.179449471770337,0,1,1,2.179449471770337,0" style="fill: red; stroke-width: 2; opacity: 0.7;"></path><path transform="translate(597.530864197531,2.181818181818182)" d="M4.873397172404482,0A4.873397172404482,4.873397172404482,0,1,1,-4.873397172404482,0A4.873397172404482,4.873397172404482,0,1,1,4.873397172404482,0" style="fill: red; stroke-width: 2; opacity: 0.7;"></path><path transform="translate(607.4074074074074,0)" d="M6.5383484153110105,0A6.5383484153110105,6.5383484153110105,0,1,1,-6.5383484153110105,0A6.5383484153110105,6.5383484153110105,0,1,1,6.5383484153110105,0" style="fill: red; stroke-width: 2; opacity: 0.7;"></path><path transform="translate(617.2839506172838,0)" d="M9.5,0A9.5,9.5,0,1,1,-9.5,0A9.5,9.5,0,1,1,9.5,0" style="fill: red; stroke-width: 2; opacity: 0.7;"></path><path transform="translate(617.2839506172838,1.1636363636363636)" d="M1.541103500742244,0A1.541103500742244,1.541103500742244,0,1,1,-1.541103500742244,0A1.541103500742244,1.541103500742244,0,1,1,1.541103500742244,0" style="fill: red; stroke-width: 2; opacity: 0.7;"></path><path transform="translate(617.2839506172838,0.2181818181818182)" d="M1.541103500742244,0A1.541103500742244,1.541103500742244,0,1,1,-1.541103500742244,0A1.541103500742244,1.541103500742244,0,1,1,1.541103500742244,0" style="fill: red; stroke-width: 2; opacity: 0.7;"></path><path transform="translate(617.2839506172838,2.181818181818182)" d="M1.541103500742244,0A1.541103500742244,1.541103500742244,0,1,1,-1.541103500742244,0A1.541103500742244,1.541103500742244,0,1,1,1.541103500742244,0" style="fill: red; stroke-width: 2; opacity: 0.7;"></path><path transform="translate(617.2839506172838,4.218181818181818)" d="M1.541103500742244,0A1.541103500742244,1.541103500742244,0,1,1,-1.541103500742244,0A1.541103500742244,1.541103500742244,0,1,1,1.541103500742244,0" style="fill: red; stroke-width: 2; opacity: 0.7;"></path><path transform="translate(627.1604938271605,0)" d="M5.5565276927232174,0A5.5565276927232174,5.5565276927232174,0,1,1,-5.5565276927232174,0A5.5565276927232174,5.5565276927232174,0,1,1,5.5565276927232174,0" style="fill: red; stroke-width: 2; opacity: 0.7;"></path><path transform="translate(627.1604938271605,1.6)" d="M3.082207001484488,0A3.082207001484488,3.082207001484488,0,1,1,-3.082207001484488,0A3.082207001484488,3.082207001484488,0,1,1,3.082207001484488,0" style="fill: red; stroke-width: 2; opacity: 0.7;"></path><path transform="translate(627.1604938271605,3.9272727272727272)" d="M1.541103500742244,0A1.541103500742244,1.541103500742244,0,1,1,-1.541103500742244,0A1.541103500742244,1.541103500742244,0,1,1,1.541103500742244,0" style="fill: red; stroke-width: 2; opacity: 0.7;"></path><path transform="translate(627.1604938271605,4.494545454545454)" d="M1.541103500742244,0A1.541103500742244,1.541103500742244,0,1,1,-1.541103500742244,0A1.541103500742244,1.541103500742244,0,1,1,1.541103500742244,0" style="fill: red; stroke-width: 2; opacity: 0.7;"></path><path transform="translate(637.037037037037,0)" d="M4.873397172404482,0A4.873397172404482,4.873397172404482,0,1,1,-4.873397172404482,0A4.873397172404482,4.873397172404482,0,1,1,4.873397172404482,0" style="fill: red; stroke-width: 2; opacity: 0.7;"></path><path transform="translate(637.037037037037,32.72727272727273)" d="M1.541103500742244,0A1.541103500742244,1.541103500742244,0,1,1,-1.541103500742244,0A1.541103500742244,1.541103500742244,0,1,1,1.541103500742244,0" style="fill: red; stroke-width: 2; opacity: 0.7;"></path><path transform="translate(637.037037037037,34.54545454545455)" d="M1.541103500742244,0A1.541103500742244,1.541103500742244,0,1,1,-1.541103500742244,0A1.541103500742244,1.541103500742244,0,1,1,1.541103500742244,0" style="fill: red; stroke-width: 2; opacity: 0.7;"></path><path transform="translate(637.037037037037,43.054545454545455)" d="M1.541103500742244,0A1.541103500742244,1.541103500742244,0,1,1,-1.541103500742244,0A1.541103500742244,1.541103500742244,0,1,1,1.541103500742244,0" style="fill: red; stroke-width: 2; opacity: 0.7;"></path><path transform="translate(646.9135802469136,0)" d="M9.117291264405235,0A9.117291264405235,9.117291264405235,0,1,1,-9.117291264405235,0A9.117291264405235,9.117291264405235,0,1,1,9.117291264405235,0" style="fill: red; stroke-width: 2; opacity: 0.7;"></path><path transform="translate(646.9135802469136,0.07272727272727272)" d="M1.541103500742244,0A1.541103500742244,1.541103500742244,0,1,1,-1.541103500742244,0A1.541103500742244,1.541103500742244,0,1,1,1.541103500742244,0" style="fill: red; stroke-width: 2; opacity: 0.7;"></path><path transform="translate(646.9135802469136,74.61818181818181)" d="M1.541103500742244,0A1.541103500742244,1.541103500742244,0,1,1,-1.541103500742244,0A1.541103500742244,1.541103500742244,0,1,1,1.541103500742244,0" style="fill: red; stroke-width: 2; opacity: 0.7;"></path><path transform="translate(646.9135802469136,99.2)" d="M1.541103500742244,0A1.541103500742244,1.541103500742244,0,1,1,-1.541103500742244,0A1.541103500742244,1.541103500742244,0,1,1,1.541103500742244,0" style="fill: red; stroke-width: 2; opacity: 0.7;"></path><path transform="translate(646.9135802469136,1.0181818181818183)" d="M1.541103500742244,0A1.541103500742244,1.541103500742244,0,1,1,-1.541103500742244,0A1.541103500742244,1.541103500742244,0,1,1,1.541103500742244,0" style="fill: red; stroke-width: 2; opacity: 0.7;"></path><path transform="translate(646.9135802469136,1.1636363636363636)" d="M3.082207001484488,0A3.082207001484488,3.082207001484488,0,1,1,-3.082207001484488,0A3.082207001484488,3.082207001484488,0,1,1,3.082207001484488,0" style="fill: red; stroke-width: 2; opacity: 0.7;"></path><path transform="translate(646.9135802469136,124.94545454545454)" d="M1.541103500742244,0A1.541103500742244,1.541103500742244,0,1,1,-1.541103500742244,0A1.541103500742244,1.541103500742244,0,1,1,1.541103500742244,0" style="fill: red; stroke-width: 2; opacity: 0.7;"></path><path transform="translate(646.9135802469136,1.3818181818181818)" d="M3.774917217635375,0A3.774917217635375,3.774917217635375,0,1,1,-3.774917217635375,0A3.774917217635375,3.774917217635375,0,1,1,3.774917217635375,0" style="fill: red; stroke-width: 2; opacity: 0.7;"></path><path transform="translate(646.9135802469136,1.4545454545454546)" d="M3.082207001484488,0A3.082207001484488,3.082207001484488,0,1,1,-3.082207001484488,0A3.082207001484488,3.082207001484488,0,1,1,3.082207001484488,0" style="fill: red; stroke-width: 2; opacity: 0.7;"></path><path transform="translate(646.9135802469136,1.8181818181818181)" d="M1.541103500742244,0A1.541103500742244,1.541103500742244,0,1,1,-1.541103500742244,0A1.541103500742244,1.541103500742244,0,1,1,1.541103500742244,0" style="fill: red; stroke-width: 2; opacity: 0.7;"></path><path transform="translate(646.9135802469136,28.654545454545456)" d="M1.541103500742244,0A1.541103500742244,1.541103500742244,0,1,1,-1.541103500742244,0A1.541103500742244,1.541103500742244,0,1,1,1.541103500742244,0" style="fill: red; stroke-width: 2; opacity: 0.7;"></path><path transform="translate(646.9135802469136,2.909090909090909)" d="M1.541103500742244,0A1.541103500742244,1.541103500742244,0,1,1,-1.541103500742244,0A1.541103500742244,1.541103500742244,0,1,1,1.541103500742244,0" style="fill: red; stroke-width: 2; opacity: 0.7;"></path><path transform="translate(646.9135802469136,3.0545454545454547)" d="M1.541103500742244,0A1.541103500742244,1.541103500742244,0,1,1,-1.541103500742244,0A1.541103500742244,1.541103500742244,0,1,1,1.541103500742244,0" style="fill: red; stroke-width: 2; opacity: 0.7;"></path><path transform="translate(646.9135802469136,41.67272727272727)" d="M2.179449471770337,0A2.179449471770337,2.179449471770337,0,1,1,-2.179449471770337,0A2.179449471770337,2.179449471770337,0,1,1,2.179449471770337,0" style="fill: red; stroke-width: 2; opacity: 0.7;"></path><path transform="translate(646.9135802469136,45.30909090909091)" d="M1.541103500742244,0A1.541103500742244,1.541103500742244,0,1,1,-1.541103500742244,0A1.541103500742244,1.541103500742244,0,1,1,1.541103500742244,0" style="fill: red; stroke-width: 2; opacity: 0.7;"></path><path transform="translate(646.9135802469136,48.43636363636364)" d="M1.541103500742244,0A1.541103500742244,1.541103500742244,0,1,1,-1.541103500742244,0A1.541103500742244,1.541103500742244,0,1,1,1.541103500742244,0" style="fill: red; stroke-width: 2; opacity: 0.7;"></path><path transform="translate(646.9135802469136,5.1418181818181825)" d="M2.179449471770337,0A2.179449471770337,2.179449471770337,0,1,1,-2.179449471770337,0A2.179449471770337,2.179449471770337,0,1,1,2.179449471770337,0" style="fill: red; stroke-width: 2; opacity: 0.7;"></path><path transform="translate(646.9135802469136,53.81818181818182)" d="M1.541103500742244,0A1.541103500742244,1.541103500742244,0,1,1,-1.541103500742244,0A1.541103500742244,1.541103500742244,0,1,1,1.541103500742244,0" style="fill: red; stroke-width: 2; opacity: 0.7;"></path><path transform="translate(646.9135802469136,54.10909090909091)" d="M1.541103500742244,0A1.541103500742244,1.541103500742244,0,1,1,-1.541103500742244,0A1.541103500742244,1.541103500742244,0,1,1,1.541103500742244,0" style="fill: red; stroke-width: 2; opacity: 0.7;"></path><path transform="translate(656.7901234567901,0)" d="M7.858116822750856,0A7.858116822750856,7.858116822750856,0,1,1,-7.858116822750856,0A7.858116822750856,7.858116822750856,0,1,1,7.858116822750856,0" style="fill: red; stroke-width: 2; opacity: 0.7;"></path><path transform="translate(656.7901234567901,0.07272727272727272)" d="M1.541103500742244,0A1.541103500742244,1.541103500742244,0,1,1,-1.541103500742244,0A1.541103500742244,1.541103500742244,0,1,1,1.541103500742244,0" style="fill: red; stroke-width: 2; opacity: 0.7;"></path><path transform="translate(656.7901234567901,7.2727272727272725)" d="M2.179449471770337,0A2.179449471770337,2.179449471770337,0,1,1,-2.179449471770337,0A2.179449471770337,2.179449471770337,0,1,1,2.179449471770337,0" style="fill: red; stroke-width: 2; opacity: 0.7;"></path><path transform="translate(656.7901234567901,7.8545454545454545)" d="M1.541103500742244,0A1.541103500742244,1.541103500742244,0,1,1,-1.541103500742244,0A1.541103500742244,1.541103500742244,0,1,1,1.541103500742244,0" style="fill: red; stroke-width: 2; opacity: 0.7;"></path><path transform="translate(656.7901234567901,94.54545454545455)" d="M1.541103500742244,0A1.541103500742244,1.541103500742244,0,1,1,-1.541103500742244,0A1.541103500742244,1.541103500742244,0,1,1,1.541103500742244,0" style="fill: red; stroke-width: 2; opacity: 0.7;"></path><path transform="translate(656.7901234567901,10.181818181818182)" d="M1.541103500742244,0A1.541103500742244,1.541103500742244,0,1,1,-1.541103500742244,0A1.541103500742244,1.541103500742244,0,1,1,1.541103500742244,0" style="fill: red; stroke-width: 2; opacity: 0.7;"></path><path transform="translate(656.7901234567901,113.89090909090909)" d="M1.541103500742244,0A1.541103500742244,1.541103500742244,0,1,1,-1.541103500742244,0A1.541103500742244,1.541103500742244,0,1,1,1.541103500742244,0" style="fill: red; stroke-width: 2; opacity: 0.7;"></path><path transform="translate(656.7901234567901,123.63636363636363)" d="M2.179449471770337,0A2.179449471770337,2.179449471770337,0,1,1,-2.179449471770337,0A2.179449471770337,2.179449471770337,0,1,1,2.179449471770337,0" style="fill: red; stroke-width: 2; opacity: 0.7;"></path><path transform="translate(656.7901234567901,1.4545454545454546)" d="M3.4460121880225554,0A3.4460121880225554,3.4460121880225554,0,1,1,-3.4460121880225554,0A3.4460121880225554,3.4460121880225554,0,1,1,3.4460121880225554,0" style="fill: red; stroke-width: 2; opacity: 0.7;"></path><path transform="translate(656.7901234567901,3.6363636363636362)" d="M4.077376607575022,0A4.077376607575022,4.077376607575022,0,1,1,-4.077376607575022,0A4.077376607575022,4.077376607575022,0,1,1,4.077376607575022,0" style="fill: red; stroke-width: 2; opacity: 0.7;"></path><path transform="translate(656.7901234567901,3.781818181818182)" d="M1.541103500742244,0A1.541103500742244,1.541103500742244,0,1,1,-1.541103500742244,0A1.541103500742244,1.541103500742244,0,1,1,1.541103500742244,0" style="fill: red; stroke-width: 2; opacity: 0.7;"></path><path transform="translate(656.7901234567901,4)" d="M3.4460121880225554,0A3.4460121880225554,3.4460121880225554,0,1,1,-3.4460121880225554,0A3.4460121880225554,3.4460121880225554,0,1,1,3.4460121880225554,0" style="fill: red; stroke-width: 2; opacity: 0.7;"></path><path transform="translate(656.7901234567901,4.363636363636364)" d="M2.179449471770337,0A2.179449471770337,2.179449471770337,0,1,1,-2.179449471770337,0A2.179449471770337,2.179449471770337,0,1,1,2.179449471770337,0" style="fill: red; stroke-width: 2; opacity: 0.7;"></path><path transform="translate(656.7901234567901,43.92727272727272)" d="M1.541103500742244,0A1.541103500742244,1.541103500742244,0,1,1,-1.541103500742244,0A1.541103500742244,1.541103500742244,0,1,1,1.541103500742244,0" style="fill: red; stroke-width: 2; opacity: 0.7;"></path><path transform="translate(656.7901234567901,4.7272727272727275)" d="M4.623310502226732,0A4.623310502226732,4.623310502226732,0,1,1,-4.623310502226732,0A4.623310502226732,4.623310502226732,0,1,1,4.623310502226732,0" style="fill: red; stroke-width: 2; opacity: 0.7;"></path><path transform="translate(656.7901234567901,4.872727272727273)" d="M2.179449471770337,0A2.179449471770337,2.179449471770337,0,1,1,-2.179449471770337,0A2.179449471770337,2.179449471770337,0,1,1,2.179449471770337,0" style="fill: red; stroke-width: 2; opacity: 0.7;"></path><path transform="translate(656.7901234567901,55.054545454545455)" d="M1.541103500742244,0A1.541103500742244,1.541103500742244,0,1,1,-1.541103500742244,0A1.541103500742244,1.541103500742244,0,1,1,1.541103500742244,0" style="fill: red; stroke-width: 2; opacity: 0.7;"></path><path transform="translate(656.7901234567901,0.6545454545454545)" d="M1.541103500742244,0A1.541103500742244,1.541103500742244,0,1,1,-1.541103500742244,0A1.541103500742244,1.541103500742244,0,1,1,1.541103500742244,0" style="fill: red; stroke-width: 2; opacity: 0.7;"></path><path transform="translate(666.6666666666667,0)" d="M4.358898943540674,0A4.358898943540674,4.358898943540674,0,1,1,-4.358898943540674,0A4.358898943540674,4.358898943540674,0,1,1,4.358898943540674,0" style="fill: red; stroke-width: 2; opacity: 0.7;"></path><path transform="translate(666.6666666666667,76)" d="M1.541103500742244,0A1.541103500742244,1.541103500742244,0,1,1,-1.541103500742244,0A1.541103500742244,1.541103500742244,0,1,1,1.541103500742244,0" style="fill: red; stroke-width: 2; opacity: 0.7;"></path><path transform="translate(666.6666666666667,76.36363636363637)" d="M5.968668193156661,0A5.968668193156661,5.968668193156661,0,1,1,-5.968668193156661,0A5.968668193156661,5.968668193156661,0,1,1,5.968668193156661,0" style="fill: red; stroke-width: 2; opacity: 0.7;"></path><path transform="translate(666.6666666666667,80)" d="M2.669269563007828,0A2.669269563007828,2.669269563007828,0,1,1,-2.669269563007828,0A2.669269563007828,2.669269563007828,0,1,1,2.669269563007828,0" style="fill: red; stroke-width: 2; opacity: 0.7;"></path><path transform="translate(666.6666666666667,98.18181818181819)" d="M4.873397172404482,0A4.873397172404482,4.873397172404482,0,1,1,-4.873397172404482,0A4.873397172404482,4.873397172404482,0,1,1,4.873397172404482,0" style="fill: red; stroke-width: 2; opacity: 0.7;"></path><path transform="translate(666.6666666666667,120)" d="M2.179449471770337,0A2.179449471770337,2.179449471770337,0,1,1,-2.179449471770337,0A2.179449471770337,2.179449471770337,0,1,1,2.179449471770337,0" style="fill: red; stroke-width: 2; opacity: 0.7;"></path><path transform="translate(666.6666666666667,141.8181818181818)" d="M2.179449471770337,0A2.179449471770337,2.179449471770337,0,1,1,-2.179449471770337,0A2.179449471770337,2.179449471770337,0,1,1,2.179449471770337,0" style="fill: red; stroke-width: 2; opacity: 0.7;"></path><path transform="translate(666.6666666666667,1.7454545454545456)" d="M1.541103500742244,0A1.541103500742244,1.541103500742244,0,1,1,-1.541103500742244,0A1.541103500742244,1.541103500742244,0,1,1,1.541103500742244,0" style="fill: red; stroke-width: 2; opacity: 0.7;"></path><path transform="translate(666.6666666666667,1.890909090909091)" d="M2.669269563007828,0A2.669269563007828,2.669269563007828,0,1,1,-2.669269563007828,0A2.669269563007828,2.669269563007828,0,1,1,2.669269563007828,0" style="fill: red; stroke-width: 2; opacity: 0.7;"></path><path transform="translate(666.6666666666667,43.63636363636363)" d="M1.541103500742244,0A1.541103500742244,1.541103500742244,0,1,1,-1.541103500742244,0A1.541103500742244,1.541103500742244,0,1,1,1.541103500742244,0" style="fill: red; stroke-width: 2; opacity: 0.7;"></path><path transform="translate(666.6666666666667,4.7272727272727275)" d="M1.541103500742244,0A1.541103500742244,1.541103500742244,0,1,1,-1.541103500742244,0A1.541103500742244,1.541103500742244,0,1,1,1.541103500742244,0" style="fill: red; stroke-width: 2; opacity: 0.7;"></path><path transform="translate(666.6666666666667,54.54545454545454)" d="M6.164414002968976,0A6.164414002968976,6.164414002968976,0,1,1,-6.164414002968976,0A6.164414002968976,6.164414002968976,0,1,1,6.164414002968976,0" style="fill: red; stroke-width: 2; opacity: 0.7;"></path><path transform="translate(666.6666666666667,5.6000000000000005)" d="M4.358898943540674,0A4.358898943540674,4.358898943540674,0,1,1,-4.358898943540674,0A4.358898943540674,4.358898943540674,0,1,1,4.358898943540674,0" style="fill: red; stroke-width: 2; opacity: 0.7;"></path><path transform="translate(666.6666666666667,56.36363636363636)" d="M3.082207001484488,0A3.082207001484488,3.082207001484488,0,1,1,-3.082207001484488,0A3.082207001484488,3.082207001484488,0,1,1,3.082207001484488,0" style="fill: red; stroke-width: 2; opacity: 0.7;"></path><path transform="translate(666.6666666666667,6.036363636363636)" d="M1.541103500742244,0A1.541103500742244,1.541103500742244,0,1,1,-1.541103500742244,0A1.541103500742244,1.541103500742244,0,1,1,1.541103500742244,0" style="fill: red; stroke-width: 2; opacity: 0.7;"></path><path transform="translate(666.6666666666667,6.181818181818182)" d="M1.541103500742244,0A1.541103500742244,1.541103500742244,0,1,1,-1.541103500742244,0A1.541103500742244,1.541103500742244,0,1,1,1.541103500742244,0" style="fill: red; stroke-width: 2; opacity: 0.7;"></path><path transform="translate(666.6666666666667,65.45454545454545)" d="M2.669269563007828,0A2.669269563007828,2.669269563007828,0,1,1,-2.669269563007828,0A2.669269563007828,2.669269563007828,0,1,1,2.669269563007828,0" style="fill: red; stroke-width: 2; opacity: 0.7;"></path><path transform="translate(666.6666666666667,6.618181818181817)" d="M2.179449471770337,0A2.179449471770337,2.179449471770337,0,1,1,-2.179449471770337,0A2.179449471770337,2.179449471770337,0,1,1,2.179449471770337,0" style="fill: red; stroke-width: 2; opacity: 0.7;"></path><path transform="translate(666.6666666666667,6.6909090909090905)" d="M1.541103500742244,0A1.541103500742244,1.541103500742244,0,1,1,-1.541103500742244,0A1.541103500742244,1.541103500742244,0,1,1,1.541103500742244,0" style="fill: red; stroke-width: 2; opacity: 0.7;"></path><path transform="translate(676.5432098765432,0)" d="M2.669269563007828,0A2.669269563007828,2.669269563007828,0,1,1,-2.669269563007828,0A2.669269563007828,2.669269563007828,0,1,1,2.669269563007828,0" style="fill: red; stroke-width: 2; opacity: 0.7;"></path><path transform="translate(676.5432098765432,0.07272727272727272)" d="M2.669269563007828,0A2.669269563007828,2.669269563007828,0,1,1,-2.669269563007828,0A2.669269563007828,2.669269563007828,0,1,1,2.669269563007828,0" style="fill: red; stroke-width: 2; opacity: 0.7;"></path><path transform="translate(676.5432098765432,76.36363636363637)" d="M5.766281297335398,0A5.766281297335398,5.766281297335398,0,1,1,-5.766281297335398,0A5.766281297335398,5.766281297335398,0,1,1,5.766281297335398,0" style="fill: red; stroke-width: 2; opacity: 0.7;"></path><path transform="translate(676.5432098765432,81.96363636363635)" d="M1.541103500742244,0A1.541103500742244,1.541103500742244,0,1,1,-1.541103500742244,0A1.541103500742244,1.541103500742244,0,1,1,1.541103500742244,0" style="fill: red; stroke-width: 2; opacity: 0.7;"></path><path transform="translate(676.5432098765432,83.2)" d="M1.541103500742244,0A1.541103500742244,1.541103500742244,0,1,1,-1.541103500742244,0A1.541103500742244,1.541103500742244,0,1,1,1.541103500742244,0" style="fill: red; stroke-width: 2; opacity: 0.7;"></path><path transform="translate(676.5432098765432,118.39999999999999)" d="M1.541103500742244,0A1.541103500742244,1.541103500742244,0,1,1,-1.541103500742244,0A1.541103500742244,1.541103500742244,0,1,1,1.541103500742244,0" style="fill: red; stroke-width: 2; opacity: 0.7;"></path><path transform="translate(676.5432098765432,120)" d="M2.669269563007828,0A2.669269563007828,2.669269563007828,0,1,1,-2.669269563007828,0A2.669269563007828,2.669269563007828,0,1,1,2.669269563007828,0" style="fill: red; stroke-width: 2; opacity: 0.7;"></path><path transform="translate(676.5432098765432,141.8181818181818)" d="M2.669269563007828,0A2.669269563007828,2.669269563007828,0,1,1,-2.669269563007828,0A2.669269563007828,2.669269563007828,0,1,1,2.669269563007828,0" style="fill: red; stroke-width: 2; opacity: 0.7;"></path><path transform="translate(676.5432098765432,2.2545454545454544)" d="M1.541103500742244,0A1.541103500742244,1.541103500742244,0,1,1,-1.541103500742244,0A1.541103500742244,1.541103500742244,0,1,1,1.541103500742244,0" style="fill: red; stroke-width: 2; opacity: 0.7;"></path><path transform="translate(676.5432098765432,2.618181818181818)" d="M1.541103500742244,0A1.541103500742244,1.541103500742244,0,1,1,-1.541103500742244,0A1.541103500742244,1.541103500742244,0,1,1,1.541103500742244,0" style="fill: red; stroke-width: 2; opacity: 0.7;"></path><path transform="translate(676.5432098765432,54.54545454545454)" d="M7.22841614740048,0A7.22841614740048,7.22841614740048,0,1,1,-7.22841614740048,0A7.22841614740048,7.22841614740048,0,1,1,7.22841614740048,0" style="fill: red; stroke-width: 2; opacity: 0.7;"></path><path transform="translate(686.4197530864196,0)" d="M2.179449471770337,0A2.179449471770337,2.179449471770337,0,1,1,-2.179449471770337,0A2.179449471770337,2.179449471770337,0,1,1,2.179449471770337,0" style="fill: red; stroke-width: 2; opacity: 0.7;"></path><path transform="translate(686.4197530864196,3.6363636363636362)" d="M2.669269563007828,0A2.669269563007828,2.669269563007828,0,1,1,-2.669269563007828,0A2.669269563007828,2.669269563007828,0,1,1,2.669269563007828,0" style="fill: red; stroke-width: 2; opacity: 0.7;"></path><path transform="translate(686.4197530864196,4.363636363636364)" d="M1.541103500742244,0A1.541103500742244,1.541103500742244,0,1,1,-1.541103500742244,0A1.541103500742244,1.541103500742244,0,1,1,1.541103500742244,0" style="fill: red; stroke-width: 2; opacity: 0.7;"></path><path transform="translate(696.2962962962963,0)" d="M3.4460121880225554,0A3.4460121880225554,3.4460121880225554,0,1,1,-3.4460121880225554,0A3.4460121880225554,3.4460121880225554,0,1,1,3.4460121880225554,0" style="fill: red; stroke-width: 2; opacity: 0.7;"></path><path transform="translate(696.2962962962963,0.14545454545454545)" d="M2.669269563007828,0A2.669269563007828,2.669269563007828,0,1,1,-2.669269563007828,0A2.669269563007828,2.669269563007828,0,1,1,2.669269563007828,0" style="fill: red; stroke-width: 2; opacity: 0.7;"></path><path transform="translate(706.1728395061727,0)" d="M2.179449471770337,0A2.179449471770337,2.179449471770337,0,1,1,-2.179449471770337,0A2.179449471770337,2.179449471770337,0,1,1,2.179449471770337,0" style="fill: red; stroke-width: 2; opacity: 0.7;"></path><path transform="translate(706.1728395061727,76.94545454545455)" d="M1.541103500742244,0A1.541103500742244,1.541103500742244,0,1,1,-1.541103500742244,0A1.541103500742244,1.541103500742244,0,1,1,1.541103500742244,0" style="fill: red; stroke-width: 2; opacity: 0.7;"></path><path transform="translate(706.1728395061727,4.218181818181818)" d="M2.179449471770337,0A2.179449471770337,2.179449471770337,0,1,1,-2.179449471770337,0A2.179449471770337,2.179449471770337,0,1,1,2.179449471770337,0" style="fill: red; stroke-width: 2; opacity: 0.7;"></path><path transform="translate(716.0493827160494,0)" d="M3.774917217635375,0A3.774917217635375,3.774917217635375,0,1,1,-3.774917217635375,0A3.774917217635375,3.774917217635375,0,1,1,3.774917217635375,0" style="fill: red; stroke-width: 2; opacity: 0.7;"></path><path transform="translate(725.9259259259259,0)" d="M3.774917217635375,0A3.774917217635375,3.774917217635375,0,1,1,-3.774917217635375,0A3.774917217635375,3.774917217635375,0,1,1,3.774917217635375,0" style="fill: red; stroke-width: 2; opacity: 0.7;"></path><path transform="translate(725.9259259259259,83.41818181818181)" d="M2.179449471770337,0A2.179449471770337,2.179449471770337,0,1,1,-2.179449471770337,0A2.179449471770337,2.179449471770337,0,1,1,2.179449471770337,0" style="fill: red; stroke-width: 2; opacity: 0.7;"></path><path transform="translate(725.9259259259259,94.03636363636365)" d="M1.541103500742244,0A1.541103500742244,1.541103500742244,0,1,1,-1.541103500742244,0A1.541103500742244,1.541103500742244,0,1,1,1.541103500742244,0" style="fill: red; stroke-width: 2; opacity: 0.7;"></path><path transform="translate(725.9259259259259,0.14545454545454545)" d="M1.541103500742244,0A1.541103500742244,1.541103500742244,0,1,1,-1.541103500742244,0A1.541103500742244,1.541103500742244,0,1,1,1.541103500742244,0" style="fill: red; stroke-width: 2; opacity: 0.7;"></path><path transform="translate(725.9259259259259,28.363636363636363)" d="M1.541103500742244,0A1.541103500742244,1.541103500742244,0,1,1,-1.541103500742244,0A1.541103500742244,1.541103500742244,0,1,1,1.541103500742244,0" style="fill: red; stroke-width: 2; opacity: 0.7;"></path><path transform="translate(725.9259259259259,28.581818181818182)" d="M1.541103500742244,0A1.541103500742244,1.541103500742244,0,1,1,-1.541103500742244,0A1.541103500742244,1.541103500742244,0,1,1,1.541103500742244,0" style="fill: red; stroke-width: 2; opacity: 0.7;"></path><path transform="translate(725.9259259259259,29.236363636363638)" d="M1.541103500742244,0A1.541103500742244,1.541103500742244,0,1,1,-1.541103500742244,0A1.541103500742244,1.541103500742244,0,1,1,1.541103500742244,0" style="fill: red; stroke-width: 2; opacity: 0.7;"></path><path transform="translate(725.9259259259259,3.6363636363636362)" d="M2.179449471770337,0A2.179449471770337,2.179449471770337,0,1,1,-2.179449471770337,0A2.179449471770337,2.179449471770337,0,1,1,2.179449471770337,0" style="fill: red; stroke-width: 2; opacity: 0.7;"></path><path transform="translate(725.9259259259259,4.363636363636364)" d="M1.541103500742244,0A1.541103500742244,1.541103500742244,0,1,1,-1.541103500742244,0A1.541103500742244,1.541103500742244,0,1,1,1.541103500742244,0" style="fill: red; stroke-width: 2; opacity: 0.7;"></path><path transform="translate(725.9259259259259,44.36363636363637)" d="M1.541103500742244,0A1.541103500742244,1.541103500742244,0,1,1,-1.541103500742244,0A1.541103500742244,1.541103500742244,0,1,1,1.541103500742244,0" style="fill: red; stroke-width: 2; opacity: 0.7;"></path><path transform="translate(725.9259259259259,51.272727272727266)" d="M1.541103500742244,0A1.541103500742244,1.541103500742244,0,1,1,-1.541103500742244,0A1.541103500742244,1.541103500742244,0,1,1,1.541103500742244,0" style="fill: red; stroke-width: 2; opacity: 0.7;"></path><path transform="translate(725.9259259259259,71.70909090909092)" d="M1.541103500742244,0A1.541103500742244,1.541103500742244,0,1,1,-1.541103500742244,0A1.541103500742244,1.541103500742244,0,1,1,1.541103500742244,0" style="fill: red; stroke-width: 2; opacity: 0.7;"></path><path transform="translate(725.9259259259259,72.14545454545454)" d="M1.541103500742244,0A1.541103500742244,1.541103500742244,0,1,1,-1.541103500742244,0A1.541103500742244,1.541103500742244,0,1,1,1.541103500742244,0" style="fill: red; stroke-width: 2; opacity: 0.7;"></path><path transform="translate(735.8024691358025,0)" d="M3.4460121880225554,0A3.4460121880225554,3.4460121880225554,0,1,1,-3.4460121880225554,0A3.4460121880225554,3.4460121880225554,0,1,1,3.4460121880225554,0" style="fill: red; stroke-width: 2; opacity: 0.7;"></path><path transform="translate(735.8024691358025,7.636363636363637)" d="M1.541103500742244,0A1.541103500742244,1.541103500742244,0,1,1,-1.541103500742244,0A1.541103500742244,1.541103500742244,0,1,1,1.541103500742244,0" style="fill: red; stroke-width: 2; opacity: 0.7;"></path><path transform="translate(735.8024691358025,83.85454545454546)" d="M2.179449471770337,0A2.179449471770337,2.179449471770337,0,1,1,-2.179449471770337,0A2.179449471770337,2.179449471770337,0,1,1,2.179449471770337,0" style="fill: red; stroke-width: 2; opacity: 0.7;"></path><path transform="translate(735.8024691358025,8.50909090909091)" d="M1.541103500742244,0A1.541103500742244,1.541103500742244,0,1,1,-1.541103500742244,0A1.541103500742244,1.541103500742244,0,1,1,1.541103500742244,0" style="fill: red; stroke-width: 2; opacity: 0.7;"></path><path transform="translate(735.8024691358025,8.727272727272728)" d="M2.179449471770337,0A2.179449471770337,2.179449471770337,0,1,1,-2.179449471770337,0A2.179449471770337,2.179449471770337,0,1,1,2.179449471770337,0" style="fill: red; stroke-width: 2; opacity: 0.7;"></path><path transform="translate(735.8024691358025,9.090909090909092)" d="M2.179449471770337,0A2.179449471770337,2.179449471770337,0,1,1,-2.179449471770337,0A2.179449471770337,2.179449471770337,0,1,1,2.179449471770337,0" style="fill: red; stroke-width: 2; opacity: 0.7;"></path><path transform="translate(735.8024691358025,10.909090909090908)" d="M1.541103500742244,0A1.541103500742244,1.541103500742244,0,1,1,-1.541103500742244,0A1.541103500742244,1.541103500742244,0,1,1,1.541103500742244,0" style="fill: red; stroke-width: 2; opacity: 0.7;"></path><path transform="translate(735.8024691358025,1.4545454545454546)" d="M2.179449471770337,0A2.179449471770337,2.179449471770337,0,1,1,-2.179449471770337,0A2.179449471770337,2.179449471770337,0,1,1,2.179449471770337,0" style="fill: red; stroke-width: 2; opacity: 0.7;"></path><path transform="translate(735.8024691358025,1.5272727272727273)" d="M2.179449471770337,0A2.179449471770337,2.179449471770337,0,1,1,-2.179449471770337,0A2.179449471770337,2.179449471770337,0,1,1,2.179449471770337,0" style="fill: red; stroke-width: 2; opacity: 0.7;"></path><path transform="translate(735.8024691358025,1.6)" d="M2.179449471770337,0A2.179449471770337,2.179449471770337,0,1,1,-2.179449471770337,0A2.179449471770337,2.179449471770337,0,1,1,2.179449471770337,0" style="fill: red; stroke-width: 2; opacity: 0.7;"></path><path transform="translate(735.8024691358025,1.890909090909091)" d="M2.179449471770337,0A2.179449471770337,2.179449471770337,0,1,1,-2.179449471770337,0A2.179449471770337,2.179449471770337,0,1,1,2.179449471770337,0" style="fill: red; stroke-width: 2; opacity: 0.7;"></path><path transform="translate(735.8024691358025,2.109090909090909)" d="M1.541103500742244,0A1.541103500742244,1.541103500742244,0,1,1,-1.541103500742244,0A1.541103500742244,1.541103500742244,0,1,1,1.541103500742244,0" style="fill: red; stroke-width: 2; opacity: 0.7;"></path><path transform="translate(735.8024691358025,45.163636363636364)" d="M1.541103500742244,0A1.541103500742244,1.541103500742244,0,1,1,-1.541103500742244,0A1.541103500742244,1.541103500742244,0,1,1,1.541103500742244,0" style="fill: red; stroke-width: 2; opacity: 0.7;"></path><path transform="translate(735.8024691358025,51.054545454545455)" d="M1.541103500742244,0A1.541103500742244,1.541103500742244,0,1,1,-1.541103500742244,0A1.541103500742244,1.541103500742244,0,1,1,1.541103500742244,0" style="fill: red; stroke-width: 2; opacity: 0.7;"></path><path transform="translate(735.8024691358025,6.6909090909090905)" d="M1.541103500742244,0A1.541103500742244,1.541103500742244,0,1,1,-1.541103500742244,0A1.541103500742244,1.541103500742244,0,1,1,1.541103500742244,0" style="fill: red; stroke-width: 2; opacity: 0.7;"></path><path transform="translate(745.679012345679,0)" d="M2.669269563007828,0A2.669269563007828,2.669269563007828,0,1,1,-2.669269563007828,0A2.669269563007828,2.669269563007828,0,1,1,2.669269563007828,0" style="fill: red; stroke-width: 2; opacity: 0.7;"></path><path transform="translate(755.5555555555554,0)" d="M3.4460121880225554,0A3.4460121880225554,3.4460121880225554,0,1,1,-3.4460121880225554,0A3.4460121880225554,3.4460121880225554,0,1,1,3.4460121880225554,0" style="fill: red; stroke-width: 2; opacity: 0.7;"></path><path transform="translate(755.5555555555554,146.47272727272727)" d="M1.541103500742244,0A1.541103500742244,1.541103500742244,0,1,1,-1.541103500742244,0A1.541103500742244,1.541103500742244,0,1,1,1.541103500742244,0" style="fill: red; stroke-width: 2; opacity: 0.7;"></path><path transform="translate(765.4320987654321,0)" d="M2.179449471770337,0A2.179449471770337,2.179449471770337,0,1,1,-2.179449471770337,0A2.179449471770337,2.179449471770337,0,1,1,2.179449471770337,0" style="fill: red; stroke-width: 2; opacity: 0.7;"></path><path transform="translate(765.4320987654321,0.4363636363636364)" d="M1.541103500742244,0A1.541103500742244,1.541103500742244,0,1,1,-1.541103500742244,0A1.541103500742244,1.541103500742244,0,1,1,1.541103500742244,0" style="fill: red; stroke-width: 2; opacity: 0.7;"></path><path transform="translate(775.3086419753085,0)" d="M2.179449471770337,0A2.179449471770337,2.179449471770337,0,1,1,-2.179449471770337,0A2.179449471770337,2.179449471770337,0,1,1,2.179449471770337,0" style="fill: red; stroke-width: 2; opacity: 0.7;"></path><path transform="translate(775.3086419753085,0.2181818181818182)" d="M2.669269563007828,0A2.669269563007828,2.669269563007828,0,1,1,-2.669269563007828,0A2.669269563007828,2.669269563007828,0,1,1,2.669269563007828,0" style="fill: red; stroke-width: 2; opacity: 0.7;"></path><path transform="translate(785.1851851851852,0)" d="M2.179449471770337,0A2.179449471770337,2.179449471770337,0,1,1,-2.179449471770337,0A2.179449471770337,2.179449471770337,0,1,1,2.179449471770337,0" style="fill: red; stroke-width: 2; opacity: 0.7;"></path><path transform="translate(795.0617283950617,0)" d="M1.541103500742244,0A1.541103500742244,1.541103500742244,0,1,1,-1.541103500742244,0A1.541103500742244,1.541103500742244,0,1,1,1.541103500742244,0" style="fill: red; stroke-width: 2; opacity: 0.7;"></path><path transform="translate(795.0617283950617,0.07272727272727272)" d="M2.669269563007828,0A2.669269563007828,2.669269563007828,0,1,1,-2.669269563007828,0A2.669269563007828,2.669269563007828,0,1,1,2.669269563007828,0" style="fill: red; stroke-width: 2; opacity: 0.7;"></path></g><g class="mark-group role-legend"><g transform="translate(818,0)"><path class="background" d="M0,0h45v72h-45Z" style="pointer-events: none; fill: none;"></path><g><g class="mark-group role-legend-entry"><g transform="translate(0,16)"><path class="background" d="M0,0h0v0h0Z" style="pointer-events: none; fill: none;"></path><g><g class="mark-group role-scope"><g transform="translate(0,0)"><path class="background" d="M0,0h34.123046875v12.37339717240448h-34.123046875Z" style="pointer-events: none; fill: none; opacity: 1;"></path><g><g class="mark-symbol role-legend-symbol" style="pointer-events: none;"><path transform="translate(9.5,6)" d="M4.873397172404482,0A4.873397172404482,4.873397172404482,0,1,1,-4.873397172404482,0A4.873397172404482,4.873397172404482,0,1,1,4.873397172404482,0" style="fill: red; stroke: none; stroke-width: 1.5; opacity: 0.7;"></path></g><g class="mark-text role-legend-label" style="pointer-events: none;"><text text-anchor="start" transform="translate(23,9)" style="font-family: sans-serif; font-size: 10px; fill: #000; opacity: 1;">10</text></g></g><path class="foreground" d="" style="pointer-events: none; display: none; fill: none;"></path></g><g transform="translate(0,16)"><path class="background" d="M0,0h34.123046875v16.392024376045114h-34.123046875Z" style="pointer-events: none; fill: none; opacity: 1;"></path><g><g class="mark-symbol role-legend-symbol" style="pointer-events: none;"><path transform="translate(9.5,8)" d="M6.892024376045111,0A6.892024376045111,6.892024376045111,0,1,1,-6.892024376045111,0A6.892024376045111,6.892024376045111,0,1,1,6.892024376045111,0" style="fill: red; stroke: none; stroke-width: 1.5; opacity: 0.7;"></path></g><g class="mark-text role-legend-label" style="pointer-events: none;"><text text-anchor="start" transform="translate(23,11)" style="font-family: sans-serif; font-size: 10px; fill: #000; opacity: 1;">20</text></g></g><path class="foreground" d="" style="pointer-events: none; display: none; fill: none;"></path></g><g transform="translate(0,36)"><path class="background" d="M0,0h34.123046875v19.440971508067065h-34.123046875Z" style="pointer-events: none; fill: none; opacity: 1;"></path><g><g class="mark-symbol role-legend-symbol" style="pointer-events: none;"><path transform="translate(9.5,9.5)" d="M8.440971508067067,0A8.440971508067067,8.440971508067067,0,1,1,-8.440971508067067,0A8.440971508067067,8.440971508067067,0,1,1,8.440971508067067,0" style="fill: red; stroke: none; stroke-width: 1.5; opacity: 0.7;"></path></g><g class="mark-text role-legend-label" style="pointer-events: none;"><text text-anchor="start" transform="translate(23,12.5)" style="font-family: sans-serif; font-size: 10px; fill: #000; opacity: 1;">30</text></g></g><path class="foreground" d="" style="pointer-events: none; display: none; fill: none;"></path></g></g></g><path class="foreground" d="" style="pointer-events: none; display: none; fill: none;"></path></g></g><g class="mark-text role-legend-title" style="pointer-events: none;"><text text-anchor="start" transform="translate(0,9)" style="font-family: sans-serif; font-size: 11px; font-weight: bold; fill: #000; opacity: 1;">Quantity</text></g></g><path class="foreground" d="" style="pointer-events: none; display: none; fill: none;"></path></g></g><g class="mark-group role-title"><g transform="translate(400,-26.5)"><path class="background" d="M0,0h0v0h0Z" style="pointer-events: none; fill: none;"></path><g><g class="mark-text role-title-text" style="pointer-events: none;"><text text-anchor="middle" transform="translate(0,10)" style="font-family: sans-serif; font-size: 13px; font-weight: bold; fill: #000; opacity: 1;">Depth of cataloged types per year</text></g></g><path class="foreground" d="" style="pointer-events: none; display: none; fill: none;"></path></g></g><g class="mark-group role-axis"><g transform="translate(0.5,400.5)"><path class="background" d="M0,0h0v0h0Z" style="pointer-events: none; fill: none;"></path><g><g class="mark-rule role-axis-tick" style="pointer-events: none;"><line transform="translate(5,0)" x2="0" y2="5" style="fill: none; stroke: #888; stroke-width: 1; opacity: 1;"></line><line transform="translate(15,0)" x2="0" y2="5" style="fill: none; stroke: #888; stroke-width: 1; opacity: 1;"></line><line transform="translate(25,0)" x2="0" y2="5" style="fill: none; stroke: #888; stroke-width: 1; opacity: 1;"></line><line transform="translate(35,0)" x2="0" y2="5" style="fill: none; stroke: #888; stroke-width: 1; opacity: 1;"></line><line transform="translate(44,0)" x2="0" y2="5" style="fill: none; stroke: #888; stroke-width: 1; opacity: 1;"></line><line transform="translate(54,0)" x2="0" y2="5" style="fill: none; stroke: #888; stroke-width: 1; opacity: 1;"></line><line transform="translate(64,0)" x2="0" y2="5" style="fill: none; stroke: #888; stroke-width: 1; opacity: 1;"></line><line transform="translate(74,0)" x2="0" y2="5" style="fill: none; stroke: #888; stroke-width: 1; opacity: 1;"></line><line transform="translate(84,0)" x2="0" y2="5" style="fill: none; stroke: #888; stroke-width: 1; opacity: 1;"></line><line transform="translate(94,0)" x2="0" y2="5" style="fill: none; stroke: #888; stroke-width: 1; opacity: 1;"></line><line transform="translate(104,0)" x2="0" y2="5" style="fill: none; stroke: #888; stroke-width: 1; opacity: 1;"></line><line transform="translate(114,0)" x2="0" y2="5" style="fill: none; stroke: #888; stroke-width: 1; opacity: 1;"></line><line transform="translate(123,0)" x2="0" y2="5" style="fill: none; stroke: #888; stroke-width: 1; opacity: 1;"></line><line transform="translate(133,0)" x2="0" y2="5" style="fill: none; stroke: #888; stroke-width: 1; opacity: 1;"></line><line transform="translate(143,0)" x2="0" y2="5" style="fill: none; stroke: #888; stroke-width: 1; opacity: 1;"></line><line transform="translate(153,0)" x2="0" y2="5" style="fill: none; stroke: #888; stroke-width: 1; opacity: 1;"></line><line transform="translate(163,0)" x2="0" y2="5" style="fill: none; stroke: #888; stroke-width: 1; opacity: 1;"></line><line transform="translate(173,0)" x2="0" y2="5" style="fill: none; stroke: #888; stroke-width: 1; opacity: 1;"></line><line transform="translate(183,0)" x2="0" y2="5" style="fill: none; stroke: #888; stroke-width: 1; opacity: 1;"></line><line transform="translate(193,0)" x2="0" y2="5" style="fill: none; stroke: #888; stroke-width: 1; opacity: 1;"></line><line transform="translate(202,0)" x2="0" y2="5" style="fill: none; stroke: #888; stroke-width: 1; opacity: 1;"></line><line transform="translate(212,0)" x2="0" y2="5" style="fill: none; stroke: #888; stroke-width: 1; opacity: 1;"></line><line transform="translate(222,0)" x2="0" y2="5" style="fill: none; stroke: #888; stroke-width: 1; opacity: 1;"></line><line transform="translate(232,0)" x2="0" y2="5" style="fill: none; stroke: #888; stroke-width: 1; opacity: 1;"></line><line transform="translate(242,0)" x2="0" y2="5" style="fill: none; stroke: #888; stroke-width: 1; opacity: 1;"></line><line transform="translate(252,0)" x2="0" y2="5" style="fill: none; stroke: #888; stroke-width: 1; opacity: 1;"></line><line transform="translate(262,0)" x2="0" y2="5" style="fill: none; stroke: #888; stroke-width: 1; opacity: 1;"></line><line transform="translate(272,0)" x2="0" y2="5" style="fill: none; stroke: #888; stroke-width: 1; opacity: 1;"></line><line transform="translate(281,0)" x2="0" y2="5" style="fill: none; stroke: #888; stroke-width: 1; opacity: 1;"></line><line transform="translate(291,0)" x2="0" y2="5" style="fill: none; stroke: #888; stroke-width: 1; opacity: 1;"></line><line transform="translate(301,0)" x2="0" y2="5" style="fill: none; stroke: #888; stroke-width: 1; opacity: 1;"></line><line transform="translate(311,0)" x2="0" y2="5" style="fill: none; stroke: #888; stroke-width: 1; opacity: 1;"></line><line transform="translate(321,0)" x2="0" y2="5" style="fill: none; stroke: #888; stroke-width: 1; opacity: 1;"></line><line transform="translate(331,0)" x2="0" y2="5" style="fill: none; stroke: #888; stroke-width: 1; opacity: 1;"></line><line transform="translate(341,0)" x2="0" y2="5" style="fill: none; stroke: #888; stroke-width: 1; opacity: 1;"></line><line transform="translate(351,0)" x2="0" y2="5" style="fill: none; stroke: #888; stroke-width: 1; opacity: 1;"></line><line transform="translate(360,0)" x2="0" y2="5" style="fill: none; stroke: #888; stroke-width: 1; opacity: 1;"></line><line transform="translate(370,0)" x2="0" y2="5" style="fill: none; stroke: #888; stroke-width: 1; opacity: 1;"></line><line transform="translate(380,0)" x2="0" y2="5" style="fill: none; stroke: #888; stroke-width: 1; opacity: 1;"></line><line transform="translate(390,0)" x2="0" y2="5" style="fill: none; stroke: #888; stroke-width: 1; opacity: 1;"></line><line transform="translate(400,0)" x2="0" y2="5" style="fill: none; stroke: #888; stroke-width: 1; opacity: 1;"></line><line transform="translate(410,0)" x2="0" y2="5" style="fill: none; stroke: #888; stroke-width: 1; opacity: 1;"></line><line transform="translate(420,0)" x2="0" y2="5" style="fill: none; stroke: #888; stroke-width: 1; opacity: 1;"></line><line transform="translate(430,0)" x2="0" y2="5" style="fill: none; stroke: #888; stroke-width: 1; opacity: 1;"></line><line transform="translate(440,0)" x2="0" y2="5" style="fill: none; stroke: #888; stroke-width: 1; opacity: 1;"></line><line transform="translate(449,0)" x2="0" y2="5" style="fill: none; stroke: #888; stroke-width: 1; opacity: 1;"></line><line transform="translate(459,0)" x2="0" y2="5" style="fill: none; stroke: #888; stroke-width: 1; opacity: 1;"></line><line transform="translate(469,0)" x2="0" y2="5" style="fill: none; stroke: #888; stroke-width: 1; opacity: 1;"></line><line transform="translate(479,0)" x2="0" y2="5" style="fill: none; stroke: #888; stroke-width: 1; opacity: 1;"></line><line transform="translate(489,0)" x2="0" y2="5" style="fill: none; stroke: #888; stroke-width: 1; opacity: 1;"></line><line transform="translate(499,0)" x2="0" y2="5" style="fill: none; stroke: #888; stroke-width: 1; opacity: 1;"></line><line transform="translate(509,0)" x2="0" y2="5" style="fill: none; stroke: #888; stroke-width: 1; opacity: 1;"></line><line transform="translate(519,0)" x2="0" y2="5" style="fill: none; stroke: #888; stroke-width: 1; opacity: 1;"></line><line transform="translate(528,0)" x2="0" y2="5" style="fill: none; stroke: #888; stroke-width: 1; opacity: 1;"></line><line transform="translate(538,0)" x2="0" y2="5" style="fill: none; stroke: #888; stroke-width: 1; opacity: 1;"></line><line transform="translate(548,0)" x2="0" y2="5" style="fill: none; stroke: #888; stroke-width: 1; opacity: 1;"></line><line transform="translate(558,0)" x2="0" y2="5" style="fill: none; stroke: #888; stroke-width: 1; opacity: 1;"></line><line transform="translate(568,0)" x2="0" y2="5" style="fill: none; stroke: #888; stroke-width: 1; opacity: 1;"></line><line transform="translate(578,0)" x2="0" y2="5" style="fill: none; stroke: #888; stroke-width: 1; opacity: 1;"></line><line transform="translate(588,0)" x2="0" y2="5" style="fill: none; stroke: #888; stroke-width: 1; opacity: 1;"></line><line transform="translate(598,0)" x2="0" y2="5" style="fill: none; stroke: #888; stroke-width: 1; opacity: 1;"></line><line transform="translate(607,0)" x2="0" y2="5" style="fill: none; stroke: #888; stroke-width: 1; opacity: 1;"></line><line transform="translate(617,0)" x2="0" y2="5" style="fill: none; stroke: #888; stroke-width: 1; opacity: 1;"></line><line transform="translate(627,0)" x2="0" y2="5" style="fill: none; stroke: #888; stroke-width: 1; opacity: 1;"></line><line transform="translate(637,0)" x2="0" y2="5" style="fill: none; stroke: #888; stroke-width: 1; opacity: 1;"></line><line transform="translate(647,0)" x2="0" y2="5" style="fill: none; stroke: #888; stroke-width: 1; opacity: 1;"></line><line transform="translate(657,0)" x2="0" y2="5" style="fill: none; stroke: #888; stroke-width: 1; opacity: 1;"></line><line transform="translate(667,0)" x2="0" y2="5" style="fill: none; stroke: #888; stroke-width: 1; opacity: 1;"></line><line transform="translate(677,0)" x2="0" y2="5" style="fill: none; stroke: #888; stroke-width: 1; opacity: 1;"></line><line transform="translate(686,0)" x2="0" y2="5" style="fill: none; stroke: #888; stroke-width: 1; opacity: 1;"></line><line transform="translate(696,0)" x2="0" y2="5" style="fill: none; stroke: #888; stroke-width: 1; opacity: 1;"></line><line transform="translate(706,0)" x2="0" y2="5" style="fill: none; stroke: #888; stroke-width: 1; opacity: 1;"></line><line transform="translate(716,0)" x2="0" y2="5" style="fill: none; stroke: #888; stroke-width: 1; opacity: 1;"></line><line transform="translate(726,0)" x2="0" y2="5" style="fill: none; stroke: #888; stroke-width: 1; opacity: 1;"></line><line transform="translate(736,0)" x2="0" y2="5" style="fill: none; stroke: #888; stroke-width: 1; opacity: 1;"></line><line transform="translate(746,0)" x2="0" y2="5" style="fill: none; stroke: #888; stroke-width: 1; opacity: 1;"></line><line transform="translate(756,0)" x2="0" y2="5" style="fill: none; stroke: #888; stroke-width: 1; opacity: 1;"></line><line transform="translate(765,0)" x2="0" y2="5" style="fill: none; stroke: #888; stroke-width: 1; opacity: 1;"></line><line transform="translate(775,0)" x2="0" y2="5" style="fill: none; stroke: #888; stroke-width: 1; opacity: 1;"></line><line transform="translate(785,0)" x2="0" y2="5" style="fill: none; stroke: #888; stroke-width: 1; opacity: 1;"></line><line transform="translate(795,0)" x2="0" y2="5" style="fill: none; stroke: #888; stroke-width: 1; opacity: 1;"></line></g><g class="mark-text role-axis-label" style="pointer-events: none;"><text text-anchor="end" transform="translate(4.938271604938279,7) rotate(270) translate(0,3)" style="font-family: sans-serif; font-size: 10px; fill: #000; opacity: 1;">1903</text><text text-anchor="end" transform="translate(14.814814814814822,7) rotate(270) translate(0,3)" style="font-family: sans-serif; font-size: 10px; fill: #000; opacity: 0;">1910</text><text text-anchor="end" transform="translate(24.691358024691365,7) rotate(270) translate(0,3)" style="font-family: sans-serif; font-size: 10px; fill: #000; opacity: 1;">1911</text><text text-anchor="end" transform="translate(34.567901234567906,7) rotate(270) translate(0,3)" style="font-family: sans-serif; font-size: 10px; fill: #000; opacity: 0;">1914</text><text text-anchor="end" transform="translate(44.44444444444445,7) rotate(270) translate(0,3)" style="font-family: sans-serif; font-size: 10px; fill: #000; opacity: 1;">1927</text><text text-anchor="end" transform="translate(54.320987654320994,7) rotate(270) translate(0,3)" style="font-family: sans-serif; font-size: 10px; fill: #000; opacity: 0;">1938</text><text text-anchor="end" transform="translate(64.19753086419753,7) rotate(270) translate(0,3)" style="font-family: sans-serif; font-size: 10px; fill: #000; opacity: 1;">1939</text><text text-anchor="end" transform="translate(74.07407407407408,7) rotate(270) translate(0,3)" style="font-family: sans-serif; font-size: 10px; fill: #000; opacity: 0;">1940</text><text text-anchor="end" transform="translate(83.95061728395062,7) rotate(270) translate(0,3)" style="font-family: sans-serif; font-size: 10px; fill: #000; opacity: 1;">1941</text><text text-anchor="end" transform="translate(93.82716049382717,7) rotate(270) translate(0,3)" style="font-family: sans-serif; font-size: 10px; fill: #000; opacity: 0;">1942</text><text text-anchor="end" transform="translate(103.70370370370371,7) rotate(270) translate(0,3)" style="font-family: sans-serif; font-size: 10px; fill: #000; opacity: 1;">1943</text><text text-anchor="end" transform="translate(113.58024691358025,7) rotate(270) translate(0,3)" style="font-family: sans-serif; font-size: 10px; fill: #000; opacity: 0;">1944</text><text text-anchor="end" transform="translate(123.45679012345678,7) rotate(270) translate(0,3)" style="font-family: sans-serif; font-size: 10px; fill: #000; opacity: 1;">1945</text><text text-anchor="end" transform="translate(133.33333333333334,7) rotate(270) translate(0,3)" style="font-family: sans-serif; font-size: 10px; fill: #000; opacity: 0;">1946</text><text text-anchor="end" transform="translate(143.20987654320987,7) rotate(270) translate(0,3)" style="font-family: sans-serif; font-size: 10px; fill: #000; opacity: 1;">1947</text><text text-anchor="end" transform="translate(153.08641975308643,7) rotate(270) translate(0,3)" style="font-family: sans-serif; font-size: 10px; fill: #000; opacity: 0;">1948</text><text text-anchor="end" transform="translate(162.96296296296296,7) rotate(270) translate(0,3)" style="font-family: sans-serif; font-size: 10px; fill: #000; opacity: 1;">1950</text><text text-anchor="end" transform="translate(172.8395061728395,7) rotate(270) translate(0,3)" style="font-family: sans-serif; font-size: 10px; fill: #000; opacity: 0;">1951</text><text text-anchor="end" transform="translate(182.71604938271605,7) rotate(270) translate(0,3)" style="font-family: sans-serif; font-size: 10px; fill: #000; opacity: 1;">1952</text><text text-anchor="end" transform="translate(192.59259259259258,7) rotate(270) translate(0,3)" style="font-family: sans-serif; font-size: 10px; fill: #000; opacity: 0;">1953</text><text text-anchor="end" transform="translate(202.46913580246914,7) rotate(270) translate(0,3)" style="font-family: sans-serif; font-size: 10px; fill: #000; opacity: 1;">1955</text><text text-anchor="end" transform="translate(212.34567901234567,7) rotate(270) translate(0,3)" style="font-family: sans-serif; font-size: 10px; fill: #000; opacity: 0;">1956</text><text text-anchor="end" transform="translate(222.22222222222223,7) rotate(270) translate(0,3)" style="font-family: sans-serif; font-size: 10px; fill: #000; opacity: 1;">1957</text><text text-anchor="end" transform="translate(232.09876543209876,7) rotate(270) translate(0,3)" style="font-family: sans-serif; font-size: 10px; fill: #000; opacity: 0;">1958</text><text text-anchor="end" transform="translate(241.9753086419753,7) rotate(270) translate(0,3)" style="font-family: sans-serif; font-size: 10px; fill: #000; opacity: 1;">1959</text><text text-anchor="end" transform="translate(251.85185185185185,7) rotate(270) translate(0,3)" style="font-family: sans-serif; font-size: 10px; fill: #000; opacity: 0;">1960</text><text text-anchor="end" transform="translate(261.7283950617284,7) rotate(270) translate(0,3)" style="font-family: sans-serif; font-size: 10px; fill: #000; opacity: 1;">1961</text><text text-anchor="end" transform="translate(271.6049382716049,7) rotate(270) translate(0,3)" style="font-family: sans-serif; font-size: 10px; fill: #000; opacity: 0;">1962</text><text text-anchor="end" transform="translate(281.48148148148147,7) rotate(270) translate(0,3)" style="font-family: sans-serif; font-size: 10px; fill: #000; opacity: 1;">1963</text><text text-anchor="end" transform="translate(291.358024691358,7) rotate(270) translate(0,3)" style="font-family: sans-serif; font-size: 10px; fill: #000; opacity: 0;">1964</text><text text-anchor="end" transform="translate(301.2345679012346,7) rotate(270) translate(0,3)" style="font-family: sans-serif; font-size: 10px; fill: #000; opacity: 1;">1965</text><text text-anchor="end" transform="translate(311.1111111111111,7) rotate(270) translate(0,3)" style="font-family: sans-serif; font-size: 10px; fill: #000; opacity: 0;">1966</text><text text-anchor="end" transform="translate(320.98765432098764,7) rotate(270) translate(0,3)" style="font-family: sans-serif; font-size: 10px; fill: #000; opacity: 1;">1967</text><text text-anchor="end" transform="translate(330.8641975308642,7) rotate(270) translate(0,3)" style="font-family: sans-serif; font-size: 10px; fill: #000; opacity: 0;">1968</text><text text-anchor="end" transform="translate(340.7407407407407,7) rotate(270) translate(0,3)" style="font-family: sans-serif; font-size: 10px; fill: #000; opacity: 1;">1969</text><text text-anchor="end" transform="translate(350.61728395061726,7) rotate(270) translate(0,3)" style="font-family: sans-serif; font-size: 10px; fill: #000; opacity: 0;">1970</text><text text-anchor="end" transform="translate(360.4938271604938,7) rotate(270) translate(0,3)" style="font-family: sans-serif; font-size: 10px; fill: #000; opacity: 1;">1971</text><text text-anchor="end" transform="translate(370.3703703703704,7) rotate(270) translate(0,3)" style="font-family: sans-serif; font-size: 10px; fill: #000; opacity: 0;">1972</text><text text-anchor="end" transform="translate(380.2469135802469,7) rotate(270) translate(0,3)" style="font-family: sans-serif; font-size: 10px; fill: #000; opacity: 1;">1973</text><text text-anchor="end" transform="translate(390.12345679012344,7) rotate(270) translate(0,3)" style="font-family: sans-serif; font-size: 10px; fill: #000; opacity: 0;">1974</text><text text-anchor="end" transform="translate(400,7) rotate(270) translate(0,3)" style="font-family: sans-serif; font-size: 10px; fill: #000; opacity: 1;">1975</text><text text-anchor="end" transform="translate(409.8765432098765,7) rotate(270) translate(0,3)" style="font-family: sans-serif; font-size: 10px; fill: #000; opacity: 0;">1976</text><text text-anchor="end" transform="translate(419.75308641975306,7) rotate(270) translate(0,3)" style="font-family: sans-serif; font-size: 10px; fill: #000; opacity: 1;">1977</text><text text-anchor="end" transform="translate(429.6296296296296,7) rotate(270) translate(0,3)" style="font-family: sans-serif; font-size: 10px; fill: #000; opacity: 0;">1978</text><text text-anchor="end" transform="translate(439.5061728395062,7) rotate(270) translate(0,3)" style="font-family: sans-serif; font-size: 10px; fill: #000; opacity: 1;">1979</text><text text-anchor="end" transform="translate(449.3827160493827,7) rotate(270) translate(0,3)" style="font-family: sans-serif; font-size: 10px; fill: #000; opacity: 0;">1980</text><text text-anchor="end" transform="translate(459.25925925925924,7) rotate(270) translate(0,3)" style="font-family: sans-serif; font-size: 10px; fill: #000; opacity: 1;">1981</text><text text-anchor="end" transform="translate(469.1358024691358,7) rotate(270) translate(0,3)" style="font-family: sans-serif; font-size: 10px; fill: #000; opacity: 0;">1982</text><text text-anchor="end" transform="translate(479.0123456790123,7) rotate(270) translate(0,3)" style="font-family: sans-serif; font-size: 10px; fill: #000; opacity: 1;">1983</text><text text-anchor="end" transform="translate(488.88888888888886,7) rotate(270) translate(0,3)" style="font-family: sans-serif; font-size: 10px; fill: #000; opacity: 0;">1984</text><text text-anchor="end" transform="translate(498.7654320987654,7) rotate(270) translate(0,3)" style="font-family: sans-serif; font-size: 10px; fill: #000; opacity: 1;">1985</text><text text-anchor="end" transform="translate(508.641975308642,7) rotate(270) translate(0,3)" style="font-family: sans-serif; font-size: 10px; fill: #000; opacity: 0;">1986</text><text text-anchor="end" transform="translate(518.5185185185185,7) rotate(270) translate(0,3)" style="font-family: sans-serif; font-size: 10px; fill: #000; opacity: 1;">1987</text><text text-anchor="end" transform="translate(528.3950617283951,7) rotate(270) translate(0,3)" style="font-family: sans-serif; font-size: 10px; fill: #000; opacity: 0;">1988</text><text text-anchor="end" transform="translate(538.2716049382716,7) rotate(270) translate(0,3)" style="font-family: sans-serif; font-size: 10px; fill: #000; opacity: 1;">1989</text><text text-anchor="end" transform="translate(548.148148148148,7) rotate(270) translate(0,3)" style="font-family: sans-serif; font-size: 10px; fill: #000; opacity: 0;">1990</text><text text-anchor="end" transform="translate(558.0246913580247,7) rotate(270) translate(0,3)" style="font-family: sans-serif; font-size: 10px; fill: #000; opacity: 1;">1991</text><text text-anchor="end" transform="translate(567.9012345679012,7) rotate(270) translate(0,3)" style="font-family: sans-serif; font-size: 10px; fill: #000; opacity: 0;">1992</text><text text-anchor="end" transform="translate(577.7777777777778,7) rotate(270) translate(0,3)" style="font-family: sans-serif; font-size: 10px; fill: #000; opacity: 1;">1993</text><text text-anchor="end" transform="translate(587.6543209876543,7) rotate(270) translate(0,3)" style="font-family: sans-serif; font-size: 10px; fill: #000; opacity: 0;">1994</text><text text-anchor="end" transform="translate(597.530864197531,7) rotate(270) translate(0,3)" style="font-family: sans-serif; font-size: 10px; fill: #000; opacity: 1;">1995</text><text text-anchor="end" transform="translate(607.4074074074074,7) rotate(270) translate(0,3)" style="font-family: sans-serif; font-size: 10px; fill: #000; opacity: 0;">1996</text><text text-anchor="end" transform="translate(617.2839506172838,7) rotate(270) translate(0,3)" style="font-family: sans-serif; font-size: 10px; fill: #000; opacity: 1;">1997</text><text text-anchor="end" transform="translate(627.1604938271605,7) rotate(270) translate(0,3)" style="font-family: sans-serif; font-size: 10px; fill: #000; opacity: 0;">1998</text><text text-anchor="end" transform="translate(637.037037037037,7) rotate(270) translate(0,3)" style="font-family: sans-serif; font-size: 10px; fill: #000; opacity: 1;">1999</text><text text-anchor="end" transform="translate(646.9135802469136,7) rotate(270) translate(0,3)" style="font-family: sans-serif; font-size: 10px; fill: #000; opacity: 0;">2000</text><text text-anchor="end" transform="translate(656.7901234567901,7) rotate(270) translate(0,3)" style="font-family: sans-serif; font-size: 10px; fill: #000; opacity: 1;">2001</text><text text-anchor="end" transform="translate(666.6666666666667,7) rotate(270) translate(0,3)" style="font-family: sans-serif; font-size: 10px; fill: #000; opacity: 0;">2002</text><text text-anchor="end" transform="translate(676.5432098765432,7) rotate(270) translate(0,3)" style="font-family: sans-serif; font-size: 10px; fill: #000; opacity: 1;">2003</text><text text-anchor="end" transform="translate(686.4197530864196,7) rotate(270) translate(0,3)" style="font-family: sans-serif; font-size: 10px; fill: #000; opacity: 0;">2004</text><text text-anchor="end" transform="translate(696.2962962962963,7) rotate(270) translate(0,3)" style="font-family: sans-serif; font-size: 10px; fill: #000; opacity: 1;">2005</text><text text-anchor="end" transform="translate(706.1728395061727,7) rotate(270) translate(0,3)" style="font-family: sans-serif; font-size: 10px; fill: #000; opacity: 0;">2006</text><text text-anchor="end" transform="translate(716.0493827160494,7) rotate(270) translate(0,3)" style="font-family: sans-serif; font-size: 10px; fill: #000; opacity: 1;">2007</text><text text-anchor="end" transform="translate(725.9259259259259,7) rotate(270) translate(0,3)" style="font-family: sans-serif; font-size: 10px; fill: #000; opacity: 0;">2008</text><text text-anchor="end" transform="translate(735.8024691358025,7) rotate(270) translate(0,3)" style="font-family: sans-serif; font-size: 10px; fill: #000; opacity: 1;">2009</text><text text-anchor="end" transform="translate(745.679012345679,7) rotate(270) translate(0,3)" style="font-family: sans-serif; font-size: 10px; fill: #000; opacity: 0;">2010</text><text text-anchor="end" transform="translate(755.5555555555554,7) rotate(270) translate(0,3)" style="font-family: sans-serif; font-size: 10px; fill: #000; opacity: 1;">2011</text><text text-anchor="end" transform="translate(765.4320987654321,7) rotate(270) translate(0,3)" style="font-family: sans-serif; font-size: 10px; fill: #000; opacity: 0;">2012</text><text text-anchor="end" transform="translate(775.3086419753085,7) rotate(270) translate(0,3)" style="font-family: sans-serif; font-size: 10px; fill: #000; opacity: 1;">2013</text><text text-anchor="end" transform="translate(785.1851851851852,7) rotate(270) translate(0,3)" style="font-family: sans-serif; font-size: 10px; fill: #000; opacity: 0;">2014</text><text text-anchor="end" transform="translate(795.0617283950617,7) rotate(270) translate(0,3)" style="font-family: sans-serif; font-size: 10px; fill: #000; opacity: 1;">2015</text></g><g class="mark-rule role-axis-domain" style="pointer-events: none;"><line transform="translate(0,0)" x2="800" y2="0" style="fill: none; stroke: #888; stroke-width: 1; opacity: 1;"></line></g><g class="mark-text role-axis-title" style="pointer-events: none;"><text text-anchor="middle" transform="translate(400,42.24609375)" style="font-family: sans-serif; font-size: 11px; font-weight: bold; fill: #000; opacity: 1;">Year</text></g></g><path class="foreground" d="" style="pointer-events: none; display: none; fill: none;"></path></g></g><g class="mark-group role-axis"><g transform="translate(0.5,0.5)"><path class="background" d="M0,0h0v0h0Z" style="pointer-events: none; fill: none;"></path><g><g class="mark-rule role-axis-tick" style="pointer-events: none;"><line transform="translate(0,400)" x2="-5" y2="0" style="fill: none; stroke: #888; stroke-width: 1; opacity: 1;"></line><line transform="translate(0,364)" x2="-5" y2="0" style="fill: none; stroke: #888; stroke-width: 1; opacity: 1;"></line><line transform="translate(0,327)" x2="-5" y2="0" style="fill: none; stroke: #888; stroke-width: 1; opacity: 1;"></line><line transform="translate(0,291)" x2="-5" y2="0" style="fill: none; stroke: #888; stroke-width: 1; opacity: 1;"></line><line transform="translate(0,255)" x2="-5" y2="0" style="fill: none; stroke: #888; stroke-width: 1; opacity: 1;"></line><line transform="translate(0,218)" x2="-5" y2="0" style="fill: none; stroke: #888; stroke-width: 1; opacity: 1;"></line><line transform="translate(0,182)" x2="-5" y2="0" style="fill: none; stroke: #888; stroke-width: 1; opacity: 1;"></line><line transform="translate(0,145)" x2="-5" y2="0" style="fill: none; stroke: #888; stroke-width: 1; opacity: 1;"></line><line transform="translate(0,109)" x2="-5" y2="0" style="fill: none; stroke: #888; stroke-width: 1; opacity: 1;"></line><line transform="translate(0,73)" x2="-5" y2="0" style="fill: none; stroke: #888; stroke-width: 1; opacity: 1;"></line><line transform="translate(0,36)" x2="-5" y2="0" style="fill: none; stroke: #888; stroke-width: 1; opacity: 1;"></line><line transform="translate(0,0)" x2="-5" y2="0" style="fill: none; stroke: #888; stroke-width: 1; opacity: 1;"></line></g><g class="mark-text role-axis-label" style="pointer-events: none;"><text text-anchor="end" transform="translate(-7,403)" style="font-family: sans-serif; font-size: 10px; fill: #000; opacity: 1;">5,500</text><text text-anchor="end" transform="translate(-7,366.6363636363636)" style="font-family: sans-serif; font-size: 10px; fill: #000; opacity: 1;">5,000</text><text text-anchor="end" transform="translate(-7,330.2727272727273)" style="font-family: sans-serif; font-size: 10px; fill: #000; opacity: 1;">4,500</text><text text-anchor="end" transform="translate(-7,293.90909090909093)" style="font-family: sans-serif; font-size: 10px; fill: #000; opacity: 1;">4,000</text><text text-anchor="end" transform="translate(-7,257.5454545454545)" style="font-family: sans-serif; font-size: 10px; fill: #000; opacity: 1;">3,500</text><text text-anchor="end" transform="translate(-7,221.18181818181816)" style="font-family: sans-serif; font-size: 10px; fill: #000; opacity: 1;">3,000</text><text text-anchor="end" transform="translate(-7,184.8181818181818)" style="font-family: sans-serif; font-size: 10px; fill: #000; opacity: 1;">2,500</text><text text-anchor="end" transform="translate(-7,148.45454545454547)" style="font-family: sans-serif; font-size: 10px; fill: #000; opacity: 1;">2,000</text><text text-anchor="end" transform="translate(-7,112.09090909090908)" style="font-family: sans-serif; font-size: 10px; fill: #000; opacity: 1;">1,500</text><text text-anchor="end" transform="translate(-7,75.72727272727273)" style="font-family: sans-serif; font-size: 10px; fill: #000; opacity: 1;">1,000</text><text text-anchor="end" transform="translate(-7,39.36363636363637)" style="font-family: sans-serif; font-size: 10px; fill: #000; opacity: 1;">500</text><text text-anchor="end" transform="translate(-7,3)" style="font-family: sans-serif; font-size: 10px; fill: #000; opacity: 1;">0</text></g><g class="mark-rule role-axis-domain" style="pointer-events: none;"><line transform="translate(0,400)" x2="0" y2="-400" style="fill: none; stroke: #888; stroke-width: 1; opacity: 1;"></line></g><g class="mark-text role-axis-title" style="pointer-events: none;"><text text-anchor="middle" transform="translate(-36.0244140625,200) rotate(-90) translate(0,-2)" style="font-family: sans-serif; font-size: 11px; font-weight: bold; fill: #000; opacity: 1;">Depth</text></g></g><path class="foreground" d="" style="pointer-events: none; display: none; fill: none;"></path></g></g></g><path class="foreground" d="" style="display: none; fill: none;"></path></g></g></g></svg>