<svg class="marks" width="853" height="572" viewBox="0 0 853 572" version="1.1" xmlns="http://www.w3.org/2000/svg" xmlns:xlink="http://www.w3.org/1999/xlink"><g transform="translate(113,22)"><g class="mark-group role-frame root"><g transform="translate(0,0)"><path class="background" d="M0.5,0.5h680v500h-680Z" style="fill: none; stroke: #ddd;"></path><g><g class="mark-symbol role-mark marks"><path transform="translate(501.90476190476187,113.63636363636365)" d="M2.742413778650722,0A2.742413778650722,2.742413778650722,0,1,1,-2.742413778650722,0A2.742413778650722,2.742413778650722,0,1,1,2.742413778650722,0" style="fill: #f58518; stroke-width: 2; opacity: 0.7;"></path><path transform="translate(599.047619047619,113.63636363636365)" d="M2.742413778650722,0A2.742413778650722,2.742413778650722,0,1,1,-2.742413778650722,0A2.742413778650722,2.742413778650722,0,1,1,2.742413778650722,0" style="fill: #f58518; stroke-width: 2; opacity: 0.7;"></path><path transform="translate(631.4285714285713,113.63636363636365)" d="M2.742413778650722,0A2.742413778650722,2.742413778650722,0,1,1,-2.742413778650722,0A2.742413778650722,2.742413778650722,0,1,1,2.742413778650722,0" style="fill: #f58518; stroke-width: 2; opacity: 0.7;"></path><path transform="translate(663.8095238095239,113.63636363636365)" d="M2.742413778650722,0A2.742413778650722,2.742413778650722,0,1,1,-2.742413778650722,0A2.742413778650722,2.742413778650722,0,1,1,2.742413778650722,0" style="fill: #f58518; stroke-width: 2; opacity: 0.7;"></path><path transform="translate(534.2857142857142,386.3636363636364)" d="M2.742413778650722,0A2.742413778650722,2.742413778650722,0,1,1,-2.742413778650722,0A2.742413778650722,2.742413778650722,0,1,1,2.742413778650722,0" style="fill: #f58518; stroke-width: 2; opacity: 0.7;"></path><path transform="translate(307.61904761904765,431.8181818181818)" d="M3.8783587594066984,0A3.8783587594066984,3.8783587594066984,0,1,1,-3.8783587594066984,0A3.8783587594066984,3.8783587594066984,0,1,1,3.8783587594066984,0" style="fill: #f58518; stroke-width: 2; opacity: 0.7;"></path><path transform="translate(242.85714285714286,159.09090909090912)" d="M2.742413778650722,0A2.742413778650722,2.742413778650722,0,1,1,-2.742413778650722,0A2.742413778650722,2.742413778650722,0,1,1,2.742413778650722,0" style="fill: #f58518; stroke-width: 2; opacity: 0.7;"></path><path transform="translate(340,159.09090909090912)" d="M2.742413778650722,0A2.742413778650722,2.742413778650722,0,1,1,-2.742413778650722,0A2.742413778650722,2.742413778650722,0,1,1,2.742413778650722,0" style="fill: #f58518; stroke-width: 2; opacity: 0.7;"></path><path transform="translate(631.4285714285713,159.09090909090912)" d="M2.742413778650722,0A2.742413778650722,2.742413778650722,0,1,1,-2.742413778650722,0A2.742413778650722,2.742413778650722,0,1,1,2.742413778650722,0" style="fill: #f58518; stroke-width: 2; opacity: 0.7;"></path><path transform="translate(242.85714285714286,477.27272727272725)" d="M2.742413778650722,0A2.742413778650722,2.742413778650722,0,1,1,-2.742413778650722,0A2.742413778650722,2.742413778650722,0,1,1,2.742413778650722,0" style="fill: #f58518; stroke-width: 2; opacity: 0.7;"></path><path transform="translate(113.33333333333334,295.4545454545455)" d="M2.742413778650722,0A2.742413778650722,2.742413778650722,0,1,1,-2.742413778650722,0A2.742413778650722,2.742413778650722,0,1,1,2.742413778650722,0" style="fill: #f58518; stroke-width: 2; opacity: 0.7;"></path><path transform="translate(178.0952380952381,295.4545454545455)" d="M2.742413778650722,0A2.742413778650722,2.742413778650722,0,1,1,-2.742413778650722,0A2.742413778650722,2.742413778650722,0,1,1,2.742413778650722,0" style="fill: #f58518; stroke-width: 2; opacity: 0.7;"></path><path transform="translate(242.85714285714286,204.54545454545456)" d="M2.742413778650722,0A2.742413778650722,2.742413778650722,0,1,1,-2.742413778650722,0A2.742413778650722,2.742413778650722,0,1,1,2.742413778650722,0" style="fill: #f58518; stroke-width: 2; opacity: 0.7;"></path><path transform="translate(469.5238095238095,204.54545454545456)" d="M2.742413778650722,0A2.742413778650722,2.742413778650722,0,1,1,-2.742413778650722,0A2.742413778650722,2.742413778650722,0,1,1,2.742413778650722,0" style="fill: #f58518; stroke-width: 2; opacity: 0.7;"></path><path transform="translate(631.4285714285713,204.54545454545456)" d="M2.742413778650722,0A2.742413778650722,2.742413778650722,0,1,1,-2.742413778650722,0A2.742413778650722,2.742413778650722,0,1,1,2.742413778650722,0" style="fill: #f58518; stroke-width: 2; opacity: 0.7;"></path><path transform="translate(16.190476190476204,22.727272727272748)" d="M2.742413778650722,0A2.742413778650722,2.742413778650722,0,1,1,-2.742413778650722,0A2.742413778650722,2.742413778650722,0,1,1,2.742413778650722,0" style="fill: #f58518; stroke-width: 2; opacity: 0.7;"></path><path transform="translate(48.571428571428584,22.727272727272748)" d="M9.5,0A9.5,9.5,0,1,1,-9.5,0A9.5,9.5,0,1,1,9.5,0" style="fill: #f58518; stroke-width: 2; opacity: 0.7;"></path><path transform="translate(80.95238095238096,22.727272727272748)" d="M6.132223631495077,0A6.132223631495077,6.132223631495077,0,1,1,-6.132223631495077,0A6.132223631495077,6.132223631495077,0,1,1,6.132223631495077,0" style="fill: #f58518; stroke-width: 2; opacity: 0.7;"></path><path transform="translate(145.71428571428572,22.727272727272748)" d="M6.132223631495077,0A6.132223631495077,6.132223631495077,0,1,1,-6.132223631495077,0A6.132223631495077,6.132223631495077,0,1,1,6.132223631495077,0" style="fill: #f58518; stroke-width: 2; opacity: 0.7;"></path><path transform="translate(178.0952380952381,22.727272727272748)" d="M2.742413778650722,0A2.742413778650722,2.742413778650722,0,1,1,-2.742413778650722,0A2.742413778650722,2.742413778650722,0,1,1,2.742413778650722,0" style="fill: #f58518; stroke-width: 2; opacity: 0.7;"></path><path transform="translate(210.47619047619048,22.727272727272748)" d="M2.742413778650722,0A2.742413778650722,2.742413778650722,0,1,1,-2.742413778650722,0A2.742413778650722,2.742413778650722,0,1,1,2.742413778650722,0" style="fill: #f58518; stroke-width: 2; opacity: 0.7;"></path><path transform="translate(340,22.727272727272748)" d="M7.255744850346747,0A7.255744850346747,7.255744850346747,0,1,1,-7.255744850346747,0A7.255744850346747,7.255744850346747,0,1,1,7.255744850346747,0" style="fill: #f58518; stroke-width: 2; opacity: 0.7;"></path><path transform="translate(275.23809523809524,340.90909090909093)" d="M2.742413778650722,0A2.742413778650722,2.742413778650722,0,1,1,-2.742413778650722,0A2.742413778650722,2.742413778650722,0,1,1,2.742413778650722,0" style="fill: #f58518; stroke-width: 2; opacity: 0.7;"></path><path transform="translate(663.8095238095239,340.90909090909093)" d="M2.742413778650722,0A2.742413778650722,2.742413778650722,0,1,1,-2.742413778650722,0A2.742413778650722,2.742413778650722,0,1,1,2.742413778650722,0" style="fill: #f58518; stroke-width: 2; opacity: 0.7;"></path><path transform="translate(340,68.1818181818182)" d="M2.742413778650722,0A2.742413778650722,2.742413778650722,0,1,1,-2.742413778650722,0A2.742413778650722,2.742413778650722,0,1,1,2.742413778650722,0" style="fill: #f58518; stroke-width: 2; opacity: 0.7;"></path><path transform="translate(372.38095238095235,68.1818181818182)" d="M2.742413778650722,0A2.742413778650722,2.742413778650722,0,1,1,-2.742413778650722,0A2.742413778650722,2.742413778650722,0,1,1,2.742413778650722,0" style="fill: #f58518; stroke-width: 2; opacity: 0.7;"></path><path transform="translate(404.76190476190476,68.1818181818182)" d="M5.484827557301444,0A5.484827557301444,5.484827557301444,0,1,1,-5.484827557301444,0A5.484827557301444,5.484827557301444,0,1,1,5.484827557301444,0" style="fill: #f58518; stroke-width: 2; opacity: 0.7;"></path><path transform="translate(437.14285714285717,68.1818181818182)" d="M2.742413778650722,0A2.742413778650722,2.742413778650722,0,1,1,-2.742413778650722,0A2.742413778650722,2.742413778650722,0,1,1,2.742413778650722,0" style="fill: #f58518; stroke-width: 2; opacity: 0.7;"></path><path transform="translate(631.4285714285713,68.1818181818182)" d="M4.75,0A4.75,4.75,0,1,1,-4.75,0A4.75,4.75,0,1,1,4.75,0" style="fill: #f58518; stroke-width: 2; opacity: 0.7;"></path><path transform="translate(178.0952380952381,250)" d="M2.742413778650722,0A2.742413778650722,2.742413778650722,0,1,1,-2.742413778650722,0A2.742413778650722,2.742413778650722,0,1,1,2.742413778650722,0" style="fill: #f58518; stroke-width: 2; opacity: 0.7;"></path><path transform="translate(566.6666666666667,250)" d="M2.742413778650722,0A2.742413778650722,2.742413778650722,0,1,1,-2.742413778650722,0A2.742413778650722,2.742413778650722,0,1,1,2.742413778650722,0" style="fill: #f58518; stroke-width: 2; opacity: 0.7;"></path><path transform="translate(663.8095238095239,250)" d="M2.742413778650722,0A2.742413778650722,2.742413778650722,0,1,1,-2.742413778650722,0A2.742413778650722,2.742413778650722,0,1,1,2.742413778650722,0" style="fill: #f58518; stroke-width: 2; opacity: 0.7;"></path></g><g class="mark-group role-legend"><g transform="translate(698,0)"><path class="background" d="M0,0h37v133h-37Z" style="pointer-events: none; fill: none;"></path><g><g class="mark-group role-legend-entry"><g transform="translate(0,16)"><path class="background" d="M0,0h0v0h0Z" style="pointer-events: none; fill: none;"></path><g><g class="mark-group role-scope"><g transform="translate(0,0)"><path class="background" d="M0,0h36.123046875v10.378358759406698h-36.123046875Z" style="pointer-events: none; fill: none; opacity: 1;"></path><g><g class="mark-symbol role-legend-symbol" style="pointer-events: none;"><path transform="translate(10.5,5)" d="M3.8783587594066984,0A3.8783587594066984,3.8783587594066984,0,1,1,-3.8783587594066984,0A3.8783587594066984,3.8783587594066984,0,1,1,3.8783587594066984,0" style="fill: #f58518; stroke: none; stroke-width: 1.5; opacity: 0.7;"></path></g><g class="mark-text role-legend-label" style="pointer-events: none;"><text text-anchor="start" transform="translate(25,8)" style="font-family: sans-serif; font-size: 10px; fill: #000; opacity: 1;">2</text></g></g><path class="foreground" d="" style="pointer-events: none; display: none; fill: none;"></path></g><g transform="translate(0,14)"><path class="background" d="M0,0h36.123046875v13.484827557301443h-36.123046875Z" style="pointer-events: none; fill: none; opacity: 1;"></path><g><g class="mark-symbol role-legend-symbol" style="pointer-events: none;"><path transform="translate(10.5,6.5)" d="M5.484827557301444,0A5.484827557301444,5.484827557301444,0,1,1,-5.484827557301444,0A5.484827557301444,5.484827557301444,0,1,1,5.484827557301444,0" style="fill: #f58518; stroke: none; stroke-width: 1.5; opacity: 0.7;"></path></g><g class="mark-text role-legend-label" style="pointer-events: none;"><text text-anchor="start" transform="translate(25,9.5)" style="font-family: sans-serif; font-size: 10px; fill: #000; opacity: 1;">4</text></g></g><path class="foreground" d="" style="pointer-events: none; display: none; fill: none;"></path></g><g transform="translate(0,31)"><path class="background" d="M0,0h36.123046875v15.717514421272199h-36.123046875Z" style="pointer-events: none; fill: none; opacity: 1;"></path><g><g class="mark-symbol role-legend-symbol" style="pointer-events: none;"><path transform="translate(10.5,7.5)" d="M6.7175144212722016,0A6.7175144212722016,6.7175144212722016,0,1,1,-6.7175144212722016,0A6.7175144212722016,6.7175144212722016,0,1,1,6.7175144212722016,0" style="fill: #f58518; stroke: none; stroke-width: 1.5; opacity: 0.7;"></path></g><g class="mark-text role-legend-label" style="pointer-events: none;"><text text-anchor="start" transform="translate(25,10.5)" style="font-family: sans-serif; font-size: 10px; fill: #000; opacity: 1;">6</text></g></g><path class="foreground" d="" style="pointer-events: none; display: none; fill: none;"></path></g><g transform="translate(0,50)"><path class="background" d="M0,0h36.123046875v18.25671751881339h-36.123046875Z" style="pointer-events: none; fill: none; opacity: 1;"></path><g><g class="mark-symbol role-legend-symbol" style="pointer-events: none;"><path transform="translate(10.5,9)" d="M7.756717518813397,0A7.756717518813397,7.756717518813397,0,1,1,-7.756717518813397,0A7.756717518813397,7.756717518813397,0,1,1,7.756717518813397,0" style="fill: #f58518; stroke: none; stroke-width: 1.5; opacity: 0.7;"></path></g><g class="mark-text role-legend-label" style="pointer-events: none;"><text text-anchor="start" transform="translate(25,12)" style="font-family: sans-serif; font-size: 10px; fill: #000; opacity: 1;">8</text></g></g><path class="foreground" d="" style="pointer-events: none; display: none; fill: none;"></path></g><g transform="translate(0,72)"><path class="background" d="M0,0h36.123046875v19.672273827165128h-36.123046875Z" style="pointer-events: none; fill: none; opacity: 1;"></path><g><g class="mark-symbol role-legend-symbol" style="pointer-events: none;"><path transform="translate(10.5,9.5)" d="M8.67227382716513,0A8.67227382716513,8.67227382716513,0,1,1,-8.67227382716513,0A8.67227382716513,8.67227382716513,0,1,1,8.67227382716513,0" style="fill: #f58518; stroke: none; stroke-width: 1.5; opacity: 0.7;"></path></g><g class="mark-text role-legend-label" style="pointer-events: none;"><text text-anchor="start" transform="translate(25,12.5)" style="font-family: sans-serif; font-size: 10px; fill: #000; opacity: 1;">10</text></g></g><path class="foreground" d="" style="pointer-events: none; display: none; fill: none;"></path></g><g transform="translate(0,95)"><path class="background" d="M0,0h36.123046875v21.5h-36.123046875Z" style="pointer-events: none; fill: none; opacity: 1;"></path><g><g class="mark-symbol role-legend-symbol" style="pointer-events: none;"><path transform="translate(10.5,10.5)" d="M9.5,0A9.5,9.5,0,1,1,-9.5,0A9.5,9.5,0,1,1,9.5,0" style="fill: #f58518; stroke: none; stroke-width: 1.5; opacity: 0.7;"></path></g><g class="mark-text role-legend-label" style="pointer-events: none;"><text text-anchor="start" transform="translate(25,13.5)" style="font-family: sans-serif; font-size: 10px; fill: #000; opacity: 1;">12</text></g></g><path class="foreground" d="" style="pointer-events: none; display: none; fill: none;"></path></g></g></g><path class="foreground" d="" style="pointer-events: none; display: none; fill: none;"></path></g></g><g class="mark-text role-legend-title" style="pointer-events: none;"><text text-anchor="start" transform="translate(0,9)" style="font-family: sans-serif; font-size: 11px; font-weight: bold; fill: #000; opacity: 1;">count</text></g></g><path class="foreground" d="" style="pointer-events: none; display: none; fill: none;"></path></g></g><g class="mark-group role-title"><g transform="translate(340,-17)"><path class="background" d="M0,0h0v0h0Z" style="pointer-events: none; fill: none;"></path><g><g class="mark-text role-title-text" style="pointer-events: none;"><text text-anchor="middle" transform="translate(0,10)" style="font-family: sans-serif; font-size: 13px; font-weight: bold; fill: #000; opacity: 1;">Number of Alotipo of each order per year</text></g></g><path class="foreground" d="" style="pointer-events: none; display: none; fill: none;"></path></g></g><g class="mark-group role-axis"><g transform="translate(0.5,500.5)"><path class="background" d="M0,0h0v0h0Z" style="pointer-events: none; fill: none;"></path><g><g class="mark-rule role-axis-tick" style="pointer-events: none;"><line transform="translate(16,0)" x2="0" y2="5" style="fill: none; stroke: #888; stroke-width: 1; opacity: 1;"></line><line transform="translate(49,0)" x2="0" y2="5" style="fill: none; stroke: #888; stroke-width: 1; opacity: 1;"></line><line transform="translate(81,0)" x2="0" y2="5" style="fill: none; stroke: #888; stroke-width: 1; opacity: 1;"></line><line transform="translate(113,0)" x2="0" y2="5" style="fill: none; stroke: #888; stroke-width: 1; opacity: 1;"></line><line transform="translate(146,0)" x2="0" y2="5" style="fill: none; stroke: #888; stroke-width: 1; opacity: 1;"></line><line transform="translate(178,0)" x2="0" y2="5" style="fill: none; stroke: #888; stroke-width: 1; opacity: 1;"></line><line transform="translate(210,0)" x2="0" y2="5" style="fill: none; stroke: #888; stroke-width: 1; opacity: 1;"></line><line transform="translate(243,0)" x2="0" y2="5" style="fill: none; stroke: #888; stroke-width: 1; opacity: 1;"></line><line transform="translate(275,0)" x2="0" y2="5" style="fill: none; stroke: #888; stroke-width: 1; opacity: 1;"></line><line transform="translate(308,0)" x2="0" y2="5" style="fill: none; stroke: #888; stroke-width: 1; opacity: 1;"></line><line transform="translate(340,0)" x2="0" y2="5" style="fill: none; stroke: #888; stroke-width: 1; opacity: 1;"></line><line transform="translate(372,0)" x2="0" y2="5" style="fill: none; stroke: #888; stroke-width: 1; opacity: 1;"></line><line transform="translate(405,0)" x2="0" y2="5" style="fill: none; stroke: #888; stroke-width: 1; opacity: 1;"></line><line transform="translate(437,0)" x2="0" y2="5" style="fill: none; stroke: #888; stroke-width: 1; opacity: 1;"></line><line transform="translate(470,0)" x2="0" y2="5" style="fill: none; stroke: #888; stroke-width: 1; opacity: 1;"></line><line transform="translate(502,0)" x2="0" y2="5" style="fill: none; stroke: #888; stroke-width: 1; opacity: 1;"></line><line transform="translate(534,0)" x2="0" y2="5" style="fill: none; stroke: #888; stroke-width: 1; opacity: 1;"></line><line transform="translate(567,0)" x2="0" y2="5" style="fill: none; stroke: #888; stroke-width: 1; opacity: 1;"></line><line transform="translate(599,0)" x2="0" y2="5" style="fill: none; stroke: #888; stroke-width: 1; opacity: 1;"></line><line transform="translate(631,0)" x2="0" y2="5" style="fill: none; stroke: #888; stroke-width: 1; opacity: 1;"></line><line transform="translate(664,0)" x2="0" y2="5" style="fill: none; stroke: #888; stroke-width: 1; opacity: 1;"></line></g><g class="mark-text role-axis-label" style="pointer-events: none;"><text text-anchor="end" transform="translate(16.190476190476204,7) rotate(270) translate(0,3)" style="font-family: sans-serif; font-size: 10px; fill: #000; opacity: 1;">1955</text><text text-anchor="end" transform="translate(48.571428571428584,7) rotate(270) translate(0,3)" style="font-family: sans-serif; font-size: 10px; fill: #000; opacity: 1;">1958</text><text text-anchor="end" transform="translate(80.95238095238096,7) rotate(270) translate(0,3)" style="font-family: sans-serif; font-size: 10px; fill: #000; opacity: 1;">1965</text><text text-anchor="end" transform="translate(113.33333333333334,7) rotate(270) translate(0,3)" style="font-family: sans-serif; font-size: 10px; fill: #000; opacity: 1;">1966</text><text text-anchor="end" transform="translate(145.71428571428572,7) rotate(270) translate(0,3)" style="font-family: sans-serif; font-size: 10px; fill: #000; opacity: 1;">1967</text><text text-anchor="end" transform="translate(178.0952380952381,7) rotate(270) translate(0,3)" style="font-family: sans-serif; font-size: 10px; fill: #000; opacity: 1;">1971</text><text text-anchor="end" transform="translate(210.47619047619048,7) rotate(270) translate(0,3)" style="font-family: sans-serif; font-size: 10px; fill: #000; opacity: 1;">1972</text><text text-anchor="end" transform="translate(242.85714285714286,7) rotate(270) translate(0,3)" style="font-family: sans-serif; font-size: 10px; fill: #000; opacity: 1;">1978</text><text text-anchor="end" transform="translate(275.23809523809524,7) rotate(270) translate(0,3)" style="font-family: sans-serif; font-size: 10px; fill: #000; opacity: 1;">1987</text><text text-anchor="end" transform="translate(307.61904761904765,7) rotate(270) translate(0,3)" style="font-family: sans-serif; font-size: 10px; fill: #000; opacity: 1;">1993</text><text text-anchor="end" transform="translate(340,7) rotate(270) translate(0,3)" style="font-family: sans-serif; font-size: 10px; fill: #000; opacity: 1;">1995</text><text text-anchor="end" transform="translate(372.38095238095235,7) rotate(270) translate(0,3)" style="font-family: sans-serif; font-size: 10px; fill: #000; opacity: 1;">1997</text><text text-anchor="end" transform="translate(404.76190476190476,7) rotate(270) translate(0,3)" style="font-family: sans-serif; font-size: 10px; fill: #000; opacity: 1;">1998</text><text text-anchor="end" transform="translate(437.14285714285717,7) rotate(270) translate(0,3)" style="font-family: sans-serif; font-size: 10px; fill: #000; opacity: 1;">1999</text><text text-anchor="end" transform="translate(469.5238095238095,7) rotate(270) translate(0,3)" style="font-family: sans-serif; font-size: 10px; fill: #000; opacity: 1;">2001</text><text text-anchor="end" transform="translate(501.90476190476187,7) rotate(270) translate(0,3)" style="font-family: sans-serif; font-size: 10px; fill: #000; opacity: 1;">2003</text><text text-anchor="end" transform="translate(534.2857142857142,7) rotate(270) translate(0,3)" style="font-family: sans-serif; font-size: 10px; fill: #000; opacity: 1;">2005</text><text text-anchor="end" transform="translate(566.6666666666667,7) rotate(270) translate(0,3)" style="font-family: sans-serif; font-size: 10px; fill: #000; opacity: 1;">2010</text><text text-anchor="end" transform="translate(599.047619047619,7) rotate(270) translate(0,3)" style="font-family: sans-serif; font-size: 10px; fill: #000; opacity: 1;">2011</text><text text-anchor="end" transform="translate(631.4285714285713,7) rotate(270) translate(0,3)" style="font-family: sans-serif; font-size: 10px; fill: #000; opacity: 1;">2013</text><text text-anchor="end" transform="translate(663.8095238095239,7) rotate(270) translate(0,3)" style="font-family: sans-serif; font-size: 10px; fill: #000; opacity: 1;">2015</text></g><g class="mark-rule role-axis-domain" style="pointer-events: none;"><line transform="translate(0,0)" x2="680" y2="0" style="fill: none; stroke: #888; stroke-width: 1; opacity: 1;"></line></g><g class="mark-text role-axis-title" style="pointer-events: none;"><text text-anchor="middle" transform="translate(340,42.24609375)" style="font-family: sans-serif; font-size: 11px; font-weight: bold; fill: #000; opacity: 1;">Year</text></g></g><path class="foreground" d="" style="pointer-events: none; display: none; fill: none;"></path></g></g><g class="mark-group role-axis"><g transform="translate(0.5,0.5)"><path class="background" d="M0,0h0v0h0Z" style="pointer-events: none; fill: none;"></path><g><g class="mark-rule role-axis-tick" style="pointer-events: none;"><line transform="translate(0,23)" x2="-5" y2="0" style="fill: none; stroke: #888; stroke-width: 1; opacity: 1;"></line><line transform="translate(0,68)" x2="-5" y2="0" style="fill: none; stroke: #888; stroke-width: 1; opacity: 1;"></line><line transform="translate(0,114)" x2="-5" y2="0" style="fill: none; stroke: #888; stroke-width: 1; opacity: 1;"></line><line transform="translate(0,159)" x2="-5" y2="0" style="fill: none; stroke: #888; stroke-width: 1; opacity: 1;"></line><line transform="translate(0,205)" x2="-5" y2="0" style="fill: none; stroke: #888; stroke-width: 1; opacity: 1;"></line><line transform="translate(0,250)" x2="-5" y2="0" style="fill: none; stroke: #888; stroke-width: 1; opacity: 1;"></line><line transform="translate(0,295)" x2="-5" y2="0" style="fill: none; stroke: #888; stroke-width: 1; opacity: 1;"></line><line transform="translate(0,341)" x2="-5" y2="0" style="fill: none; stroke: #888; stroke-width: 1; opacity: 1;"></line><line transform="translate(0,386)" x2="-5" y2="0" style="fill: none; stroke: #888; stroke-width: 1; opacity: 1;"></line><line transform="translate(0,432)" x2="-5" y2="0" style="fill: none; stroke: #888; stroke-width: 1; opacity: 1;"></line><line transform="translate(0,477)" x2="-5" y2="0" style="fill: none; stroke: #888; stroke-width: 1; opacity: 1;"></line></g><g class="mark-text role-axis-label" style="pointer-events: none;"><text text-anchor="end" transform="translate(-7,25.727272727272748)" style="font-family: sans-serif; font-size: 10px; fill: #000; opacity: 1;">Isopoda</text><text text-anchor="end" transform="translate(-7,71.1818181818182)" style="font-family: sans-serif; font-size: 10px; fill: #000; opacity: 1;">Siphonostomatoida</text><text text-anchor="end" transform="translate(-7,116.63636363636365)" style="font-family: sans-serif; font-size: 10px; fill: #000; opacity: 1;">Amphipoda</text><text text-anchor="end" transform="translate(-7,162.09090909090912)" style="font-family: sans-serif; font-size: 10px; fill: #000; opacity: 1;">Arguloida</text><text text-anchor="end" transform="translate(-7,207.54545454545456)" style="font-family: sans-serif; font-size: 10px; fill: #000; opacity: 1;">Decapoda</text><text text-anchor="end" transform="translate(-7,253)" style="font-family: sans-serif; font-size: 10px; fill: #000; opacity: 1;">Tanaidacea</text><text text-anchor="end" transform="translate(-7,298.4545454545455)" style="font-family: sans-serif; font-size: 10px; fill: #000; opacity: 1;">Cumacea</text><text text-anchor="end" transform="translate(-7,343.90909090909093)" style="font-family: sans-serif; font-size: 10px; fill: #000; opacity: 1;">Poecilostomatoida</text><text text-anchor="end" transform="translate(-7,389.3636363636364)" style="font-family: sans-serif; font-size: 10px; fill: #000; opacity: 1;">Anomopoda</text><text text-anchor="end" transform="translate(-7,434.8181818181818)" style="font-family: sans-serif; font-size: 10px; fill: #000; opacity: 1;">Anostraca</text><text text-anchor="end" transform="translate(-7,480.27272727272725)" style="font-family: sans-serif; font-size: 10px; fill: #000; opacity: 1;">Bathynellacea</text></g><g class="mark-rule role-axis-domain" style="pointer-events: none;"><line transform="translate(0,0)" x2="0" y2="500" style="fill: none; stroke: #888; stroke-width: 1; opacity: 1;"></line></g><g class="mark-text role-axis-title" style="pointer-events: none;"><text text-anchor="middle" transform="translate(-96.615234375,250) rotate(-90) translate(0,-2)" style="font-family: sans-serif; font-size: 11px; font-weight: bold; fill: #000; opacity: 1;">Order</text></g></g><path class="foreground" d="" style="pointer-events: none; display: none; fill: none;"></path></g></g></g><path class="foreground" d="" style="display: none; fill: none;"></path></g></g></g></svg>