<svg class="marks" width="852" height="572" viewBox="0 0 852 572" version="1.1" xmlns="http://www.w3.org/2000/svg" xmlns:xlink="http://www.w3.org/1999/xlink"><g transform="translate(113,22)"><g class="mark-group role-frame root"><g transform="translate(0,0)"><path class="background" d="M0.5,0.5h680v500h-680Z" style="fill: none; stroke: #ddd;"></path><g><g class="mark-symbol role-mark marks"><path transform="translate(198.33333333333334,16.666666666666657)" d="M2.3040884378451634,0A2.3040884378451634,2.3040884378451634,0,1,1,-2.3040884378451634,0A2.3040884378451634,2.3040884378451634,0,1,1,2.3040884378451634,0" style="fill: #d62728; stroke-width: 2; opacity: 0.7;"></path><path transform="translate(236.11111111111114,16.666666666666657)" d="M2.3040884378451634,0A2.3040884378451634,2.3040884378451634,0,1,1,-2.3040884378451634,0A2.3040884378451634,2.3040884378451634,0,1,1,2.3040884378451634,0" style="fill: #d62728; stroke-width: 2; opacity: 0.7;"></path><path transform="translate(255.00000000000003,16.666666666666657)" d="M3.258473117707668,0A3.258473117707668,3.258473117707668,0,1,1,-3.258473117707668,0A3.258473117707668,3.258473117707668,0,1,1,3.258473117707668,0" style="fill: #d62728; stroke-width: 2; opacity: 0.7;"></path><path transform="translate(349.44444444444446,16.666666666666657)" d="M2.3040884378451634,0A2.3040884378451634,2.3040884378451634,0,1,1,-2.3040884378451634,0A2.3040884378451634,2.3040884378451634,0,1,1,2.3040884378451634,0" style="fill: #d62728; stroke-width: 2; opacity: 0.7;"></path><path transform="translate(368.33333333333337,16.666666666666657)" d="M2.3040884378451634,0A2.3040884378451634,2.3040884378451634,0,1,1,-2.3040884378451634,0A2.3040884378451634,2.3040884378451634,0,1,1,2.3040884378451634,0" style="fill: #d62728; stroke-width: 2; opacity: 0.7;"></path><path transform="translate(387.22222222222223,16.666666666666657)" d="M5.643840994967044,0A5.643840994967044,5.643840994967044,0,1,1,-5.643840994967044,0A5.643840994967044,5.643840994967044,0,1,1,5.643840994967044,0" style="fill: #d62728; stroke-width: 2; opacity: 0.7;"></path><path transform="translate(406.11111111111114,16.666666666666657)" d="M2.3040884378451634,0A2.3040884378451634,2.3040884378451634,0,1,1,-2.3040884378451634,0A2.3040884378451634,2.3040884378451634,0,1,1,2.3040884378451634,0" style="fill: #d62728; stroke-width: 2; opacity: 0.7;"></path><path transform="translate(425,16.666666666666657)" d="M2.3040884378451634,0A2.3040884378451634,2.3040884378451634,0,1,1,-2.3040884378451634,0A2.3040884378451634,2.3040884378451634,0,1,1,2.3040884378451634,0" style="fill: #d62728; stroke-width: 2; opacity: 0.7;"></path><path transform="translate(443.8888888888889,16.666666666666657)" d="M4.608176875690327,0A4.608176875690327,4.608176875690327,0,1,1,-4.608176875690327,0A4.608176875690327,4.608176875690327,0,1,1,4.608176875690327,0" style="fill: #d62728; stroke-width: 2; opacity: 0.7;"></path><path transform="translate(462.7777777777778,16.666666666666657)" d="M5.643840994967044,0A5.643840994967044,5.643840994967044,0,1,1,-5.643840994967044,0A5.643840994967044,5.643840994967044,0,1,1,5.643840994967044,0" style="fill: #d62728; stroke-width: 2; opacity: 0.7;"></path><path transform="translate(481.6666666666667,16.666666666666657)" d="M3.258473117707668,0A3.258473117707668,3.258473117707668,0,1,1,-3.258473117707668,0A3.258473117707668,3.258473117707668,0,1,1,3.258473117707668,0" style="fill: #d62728; stroke-width: 2; opacity: 0.7;"></path><path transform="translate(500.5555555555556,16.666666666666657)" d="M6.516946235415336,0A6.516946235415336,6.516946235415336,0,1,1,-6.516946235415336,0A6.516946235415336,6.516946235415336,0,1,1,6.516946235415336,0" style="fill: #d62728; stroke-width: 2; opacity: 0.7;"></path><path transform="translate(519.4444444444445,16.666666666666657)" d="M3.258473117707668,0A3.258473117707668,3.258473117707668,0,1,1,-3.258473117707668,0A3.258473117707668,3.258473117707668,0,1,1,3.258473117707668,0" style="fill: #d62728; stroke-width: 2; opacity: 0.7;"></path><path transform="translate(538.3333333333334,16.666666666666657)" d="M3.258473117707668,0A3.258473117707668,3.258473117707668,0,1,1,-3.258473117707668,0A3.258473117707668,3.258473117707668,0,1,1,3.258473117707668,0" style="fill: #d62728; stroke-width: 2; opacity: 0.7;"></path><path transform="translate(557.2222222222223,16.666666666666657)" d="M9.5,0A9.5,9.5,0,1,1,-9.5,0A9.5,9.5,0,1,1,9.5,0" style="fill: #d62728; stroke-width: 2; opacity: 0.7;"></path><path transform="translate(576.1111111111111,16.666666666666657)" d="M6.516946235415336,0A6.516946235415336,6.516946235415336,0,1,1,-6.516946235415336,0A6.516946235415336,6.516946235415336,0,1,1,6.516946235415336,0" style="fill: #d62728; stroke-width: 2; opacity: 0.7;"></path><path transform="translate(595,16.666666666666657)" d="M4.608176875690327,0A4.608176875690327,4.608176875690327,0,1,1,-4.608176875690327,0A4.608176875690327,4.608176875690327,0,1,1,4.608176875690327,0" style="fill: #d62728; stroke-width: 2; opacity: 0.7;"></path><path transform="translate(613.8888888888889,16.666666666666657)" d="M3.9907982394798283,0A3.9907982394798283,3.9907982394798283,0,1,1,-3.9907982394798283,0A3.9907982394798283,3.9907982394798283,0,1,1,3.9907982394798283,0" style="fill: #d62728; stroke-width: 2; opacity: 0.7;"></path><path transform="translate(651.6666666666667,16.666666666666657)" d="M2.3040884378451634,0A2.3040884378451634,2.3040884378451634,0,1,1,-2.3040884378451634,0A2.3040884378451634,2.3040884378451634,0,1,1,2.3040884378451634,0" style="fill: #d62728; stroke-width: 2; opacity: 0.7;"></path><path transform="translate(670.5555555555555,16.666666666666657)" d="M3.258473117707668,0A3.258473117707668,3.258473117707668,0,1,1,-3.258473117707668,0A3.258473117707668,3.258473117707668,0,1,1,3.258473117707668,0" style="fill: #d62728; stroke-width: 2; opacity: 0.7;"></path><path transform="translate(538.3333333333334,250)" d="M2.3040884378451634,0A2.3040884378451634,2.3040884378451634,0,1,1,-2.3040884378451634,0A2.3040884378451634,2.3040884378451634,0,1,1,2.3040884378451634,0" style="fill: #d62728; stroke-width: 2; opacity: 0.7;"></path><path transform="translate(557.2222222222223,250)" d="M2.3040884378451634,0A2.3040884378451634,2.3040884378451634,0,1,1,-2.3040884378451634,0A2.3040884378451634,2.3040884378451634,0,1,1,2.3040884378451634,0" style="fill: #d62728; stroke-width: 2; opacity: 0.7;"></path><path transform="translate(311.6666666666667,416.66666666666663)" d="M3.258473117707668,0A3.258473117707668,3.258473117707668,0,1,1,-3.258473117707668,0A3.258473117707668,3.258473117707668,0,1,1,3.258473117707668,0" style="fill: #d62728; stroke-width: 2; opacity: 0.7;"></path><path transform="translate(217.22222222222223,283.33333333333337)" d="M2.3040884378451634,0A2.3040884378451634,2.3040884378451634,0,1,1,-2.3040884378451634,0A2.3040884378451634,2.3040884378451634,0,1,1,2.3040884378451634,0" style="fill: #d62728; stroke-width: 2; opacity: 0.7;"></path><path transform="translate(349.44444444444446,283.33333333333337)" d="M2.3040884378451634,0A2.3040884378451634,2.3040884378451634,0,1,1,-2.3040884378451634,0A2.3040884378451634,2.3040884378451634,0,1,1,2.3040884378451634,0" style="fill: #d62728; stroke-width: 2; opacity: 0.7;"></path><path transform="translate(66.11111111111113,316.66666666666663)" d="M2.3040884378451634,0A2.3040884378451634,2.3040884378451634,0,1,1,-2.3040884378451634,0A2.3040884378451634,2.3040884378451634,0,1,1,2.3040884378451634,0" style="fill: #d62728; stroke-width: 2; opacity: 0.7;"></path><path transform="translate(141.66666666666669,316.66666666666663)" d="M2.3040884378451634,0A2.3040884378451634,2.3040884378451634,0,1,1,-2.3040884378451634,0A2.3040884378451634,2.3040884378451634,0,1,1,2.3040884378451634,0" style="fill: #d62728; stroke-width: 2; opacity: 0.7;"></path><path transform="translate(557.2222222222223,350)" d="M2.3040884378451634,0A2.3040884378451634,2.3040884378451634,0,1,1,-2.3040884378451634,0A2.3040884378451634,2.3040884378451634,0,1,1,2.3040884378451634,0" style="fill: #d62728; stroke-width: 2; opacity: 0.7;"></path><path transform="translate(670.5555555555555,350)" d="M3.258473117707668,0A3.258473117707668,3.258473117707668,0,1,1,-3.258473117707668,0A3.258473117707668,3.258473117707668,0,1,1,3.258473117707668,0" style="fill: #d62728; stroke-width: 2; opacity: 0.7;"></path><path transform="translate(66.11111111111113,83.33333333333333)" d="M3.258473117707668,0A3.258473117707668,3.258473117707668,0,1,1,-3.258473117707668,0A3.258473117707668,3.258473117707668,0,1,1,3.258473117707668,0" style="fill: #d62728; stroke-width: 2; opacity: 0.7;"></path><path transform="translate(103.8888888888889,83.33333333333333)" d="M2.3040884378451634,0A2.3040884378451634,2.3040884378451634,0,1,1,-2.3040884378451634,0A2.3040884378451634,2.3040884378451634,0,1,1,2.3040884378451634,0" style="fill: #d62728; stroke-width: 2; opacity: 0.7;"></path><path transform="translate(122.7777777777778,83.33333333333333)" d="M2.3040884378451634,0A2.3040884378451634,2.3040884378451634,0,1,1,-2.3040884378451634,0A2.3040884378451634,2.3040884378451634,0,1,1,2.3040884378451634,0" style="fill: #d62728; stroke-width: 2; opacity: 0.7;"></path><path transform="translate(217.22222222222223,83.33333333333333)" d="M3.258473117707668,0A3.258473117707668,3.258473117707668,0,1,1,-3.258473117707668,0A3.258473117707668,3.258473117707668,0,1,1,3.258473117707668,0" style="fill: #d62728; stroke-width: 2; opacity: 0.7;"></path><path transform="translate(236.11111111111114,83.33333333333333)" d="M2.3040884378451634,0A2.3040884378451634,2.3040884378451634,0,1,1,-2.3040884378451634,0A2.3040884378451634,2.3040884378451634,0,1,1,2.3040884378451634,0" style="fill: #d62728; stroke-width: 2; opacity: 0.7;"></path><path transform="translate(273.8888888888889,83.33333333333333)" d="M2.3040884378451634,0A2.3040884378451634,2.3040884378451634,0,1,1,-2.3040884378451634,0A2.3040884378451634,2.3040884378451634,0,1,1,2.3040884378451634,0" style="fill: #d62728; stroke-width: 2; opacity: 0.7;"></path><path transform="translate(387.22222222222223,83.33333333333333)" d="M2.3040884378451634,0A2.3040884378451634,2.3040884378451634,0,1,1,-2.3040884378451634,0A2.3040884378451634,2.3040884378451634,0,1,1,2.3040884378451634,0" style="fill: #d62728; stroke-width: 2; opacity: 0.7;"></path><path transform="translate(500.5555555555556,83.33333333333333)" d="M3.258473117707668,0A3.258473117707668,3.258473117707668,0,1,1,-3.258473117707668,0A3.258473117707668,3.258473117707668,0,1,1,3.258473117707668,0" style="fill: #d62728; stroke-width: 2; opacity: 0.7;"></path><path transform="translate(538.3333333333334,83.33333333333333)" d="M4.608176875690327,0A4.608176875690327,4.608176875690327,0,1,1,-4.608176875690327,0A4.608176875690327,4.608176875690327,0,1,1,4.608176875690327,0" style="fill: #d62728; stroke-width: 2; opacity: 0.7;"></path><path transform="translate(557.2222222222223,83.33333333333333)" d="M2.3040884378451634,0A2.3040884378451634,2.3040884378451634,0,1,1,-2.3040884378451634,0A2.3040884378451634,2.3040884378451634,0,1,1,2.3040884378451634,0" style="fill: #d62728; stroke-width: 2; opacity: 0.7;"></path><path transform="translate(576.1111111111111,83.33333333333333)" d="M3.258473117707668,0A3.258473117707668,3.258473117707668,0,1,1,-3.258473117707668,0A3.258473117707668,3.258473117707668,0,1,1,3.258473117707668,0" style="fill: #d62728; stroke-width: 2; opacity: 0.7;"></path><path transform="translate(595,83.33333333333333)" d="M2.3040884378451634,0A2.3040884378451634,2.3040884378451634,0,1,1,-2.3040884378451634,0A2.3040884378451634,2.3040884378451634,0,1,1,2.3040884378451634,0" style="fill: #d62728; stroke-width: 2; opacity: 0.7;"></path><path transform="translate(9.444444444444457,49.99999999999999)" d="M2.3040884378451634,0A2.3040884378451634,2.3040884378451634,0,1,1,-2.3040884378451634,0A2.3040884378451634,2.3040884378451634,0,1,1,2.3040884378451634,0" style="fill: #d62728; stroke-width: 2; opacity: 0.7;"></path><path transform="translate(28.333333333333346,49.99999999999999)" d="M8.621109523243787,0A8.621109523243787,8.621109523243787,0,1,1,-8.621109523243787,0A8.621109523243787,8.621109523243787,0,1,1,8.621109523243787,0" style="fill: #d62728; stroke-width: 2; opacity: 0.7;"></path><path transform="translate(47.222222222222236,49.99999999999999)" d="M5.152098373193084,0A5.152098373193084,5.152098373193084,0,1,1,-5.152098373193084,0A5.152098373193084,5.152098373193084,0,1,1,5.152098373193084,0" style="fill: #d62728; stroke-width: 2; opacity: 0.7;"></path><path transform="translate(85.00000000000001,49.99999999999999)" d="M6.096045005237604,0A6.096045005237604,6.096045005237604,0,1,1,-6.096045005237604,0A6.096045005237604,6.096045005237604,0,1,1,6.096045005237604,0" style="fill: #d62728; stroke-width: 2; opacity: 0.7;"></path><path transform="translate(122.7777777777778,49.99999999999999)" d="M3.258473117707668,0A3.258473117707668,3.258473117707668,0,1,1,-3.258473117707668,0A3.258473117707668,3.258473117707668,0,1,1,3.258473117707668,0" style="fill: #d62728; stroke-width: 2; opacity: 0.7;"></path><path transform="translate(141.66666666666669,49.99999999999999)" d="M5.152098373193084,0A5.152098373193084,5.152098373193084,0,1,1,-5.152098373193084,0A5.152098373193084,5.152098373193084,0,1,1,5.152098373193084,0" style="fill: #d62728; stroke-width: 2; opacity: 0.7;"></path><path transform="translate(160.55555555555557,49.99999999999999)" d="M4.608176875690327,0A4.608176875690327,4.608176875690327,0,1,1,-4.608176875690327,0A4.608176875690327,4.608176875690327,0,1,1,4.608176875690327,0" style="fill: #d62728; stroke-width: 2; opacity: 0.7;"></path><path transform="translate(217.22222222222223,49.99999999999999)" d="M2.3040884378451634,0A2.3040884378451634,2.3040884378451634,0,1,1,-2.3040884378451634,0A2.3040884378451634,2.3040884378451634,0,1,1,2.3040884378451634,0" style="fill: #d62728; stroke-width: 2; opacity: 0.7;"></path><path transform="translate(292.77777777777777,49.99999999999999)" d="M6.91226531353549,0A6.91226531353549,6.91226531353549,0,1,1,-6.91226531353549,0A6.91226531353549,6.91226531353549,0,1,1,6.91226531353549,0" style="fill: #d62728; stroke-width: 2; opacity: 0.7;"></path><path transform="translate(349.44444444444446,49.99999999999999)" d="M6.516946235415336,0A6.516946235415336,6.516946235415336,0,1,1,-6.516946235415336,0A6.516946235415336,6.516946235415336,0,1,1,6.516946235415336,0" style="fill: #d62728; stroke-width: 2; opacity: 0.7;"></path><path transform="translate(406.11111111111114,49.99999999999999)" d="M2.3040884378451634,0A2.3040884378451634,2.3040884378451634,0,1,1,-2.3040884378451634,0A2.3040884378451634,2.3040884378451634,0,1,1,2.3040884378451634,0" style="fill: #d62728; stroke-width: 2; opacity: 0.7;"></path><path transform="translate(462.7777777777778,49.99999999999999)" d="M2.3040884378451634,0A2.3040884378451634,2.3040884378451634,0,1,1,-2.3040884378451634,0A2.3040884378451634,2.3040884378451634,0,1,1,2.3040884378451634,0" style="fill: #d62728; stroke-width: 2; opacity: 0.7;"></path><path transform="translate(481.6666666666667,49.99999999999999)" d="M2.3040884378451634,0A2.3040884378451634,2.3040884378451634,0,1,1,-2.3040884378451634,0A2.3040884378451634,2.3040884378451634,0,1,1,2.3040884378451634,0" style="fill: #d62728; stroke-width: 2; opacity: 0.7;"></path><path transform="translate(500.5555555555556,49.99999999999999)" d="M2.3040884378451634,0A2.3040884378451634,2.3040884378451634,0,1,1,-2.3040884378451634,0A2.3040884378451634,2.3040884378451634,0,1,1,2.3040884378451634,0" style="fill: #d62728; stroke-width: 2; opacity: 0.7;"></path><path transform="translate(519.4444444444445,49.99999999999999)" d="M2.3040884378451634,0A2.3040884378451634,2.3040884378451634,0,1,1,-2.3040884378451634,0A2.3040884378451634,2.3040884378451634,0,1,1,2.3040884378451634,0" style="fill: #d62728; stroke-width: 2; opacity: 0.7;"></path><path transform="translate(557.2222222222223,49.99999999999999)" d="M2.3040884378451634,0A2.3040884378451634,2.3040884378451634,0,1,1,-2.3040884378451634,0A2.3040884378451634,2.3040884378451634,0,1,1,2.3040884378451634,0" style="fill: #d62728; stroke-width: 2; opacity: 0.7;"></path><path transform="translate(670.5555555555555,49.99999999999999)" d="M3.9907982394798283,0A3.9907982394798283,3.9907982394798283,0,1,1,-3.9907982394798283,0A3.9907982394798283,3.9907982394798283,0,1,1,3.9907982394798283,0" style="fill: #d62728; stroke-width: 2; opacity: 0.7;"></path><path transform="translate(443.8888888888889,450)" d="M4.608176875690327,0A4.608176875690327,4.608176875690327,0,1,1,-4.608176875690327,0A4.608176875690327,4.608176875690327,0,1,1,4.608176875690327,0" style="fill: #d62728; stroke-width: 2; opacity: 0.7;"></path><path transform="translate(443.8888888888889,383.33333333333337)" d="M2.3040884378451634,0A2.3040884378451634,2.3040884378451634,0,1,1,-2.3040884378451634,0A2.3040884378451634,2.3040884378451634,0,1,1,2.3040884378451634,0" style="fill: #d62728; stroke-width: 2; opacity: 0.7;"></path><path transform="translate(462.7777777777778,383.33333333333337)" d="M3.258473117707668,0A3.258473117707668,3.258473117707668,0,1,1,-3.258473117707668,0A3.258473117707668,3.258473117707668,0,1,1,3.258473117707668,0" style="fill: #d62728; stroke-width: 2; opacity: 0.7;"></path><path transform="translate(236.11111111111114,183.33333333333334)" d="M3.258473117707668,0A3.258473117707668,3.258473117707668,0,1,1,-3.258473117707668,0A3.258473117707668,3.258473117707668,0,1,1,3.258473117707668,0" style="fill: #d62728; stroke-width: 2; opacity: 0.7;"></path><path transform="translate(632.7777777777778,183.33333333333334)" d="M2.3040884378451634,0A2.3040884378451634,2.3040884378451634,0,1,1,-2.3040884378451634,0A2.3040884378451634,2.3040884378451634,0,1,1,2.3040884378451634,0" style="fill: #d62728; stroke-width: 2; opacity: 0.7;"></path><path transform="translate(670.5555555555555,183.33333333333334)" d="M2.3040884378451634,0A2.3040884378451634,2.3040884378451634,0,1,1,-2.3040884378451634,0A2.3040884378451634,2.3040884378451634,0,1,1,2.3040884378451634,0" style="fill: #d62728; stroke-width: 2; opacity: 0.7;"></path><path transform="translate(330.5555555555556,116.66666666666666)" d="M2.3040884378451634,0A2.3040884378451634,2.3040884378451634,0,1,1,-2.3040884378451634,0A2.3040884378451634,2.3040884378451634,0,1,1,2.3040884378451634,0" style="fill: #d62728; stroke-width: 2; opacity: 0.7;"></path><path transform="translate(349.44444444444446,116.66666666666666)" d="M3.258473117707668,0A3.258473117707668,3.258473117707668,0,1,1,-3.258473117707668,0A3.258473117707668,3.258473117707668,0,1,1,3.258473117707668,0" style="fill: #d62728; stroke-width: 2; opacity: 0.7;"></path><path transform="translate(368.33333333333337,116.66666666666666)" d="M4.608176875690327,0A4.608176875690327,4.608176875690327,0,1,1,-4.608176875690327,0A4.608176875690327,4.608176875690327,0,1,1,4.608176875690327,0" style="fill: #d62728; stroke-width: 2; opacity: 0.7;"></path><path transform="translate(387.22222222222223,116.66666666666666)" d="M5.152098373193084,0A5.152098373193084,5.152098373193084,0,1,1,-5.152098373193084,0A5.152098373193084,5.152098373193084,0,1,1,5.152098373193084,0" style="fill: #d62728; stroke-width: 2; opacity: 0.7;"></path><path transform="translate(406.11111111111114,116.66666666666666)" d="M5.643840994967044,0A5.643840994967044,5.643840994967044,0,1,1,-5.643840994967044,0A5.643840994967044,5.643840994967044,0,1,1,5.643840994967044,0" style="fill: #d62728; stroke-width: 2; opacity: 0.7;"></path><path transform="translate(425,116.66666666666666)" d="M2.3040884378451634,0A2.3040884378451634,2.3040884378451634,0,1,1,-2.3040884378451634,0A2.3040884378451634,2.3040884378451634,0,1,1,2.3040884378451634,0" style="fill: #d62728; stroke-width: 2; opacity: 0.7;"></path><path transform="translate(651.6666666666667,116.66666666666666)" d="M3.258473117707668,0A3.258473117707668,3.258473117707668,0,1,1,-3.258473117707668,0A3.258473117707668,3.258473117707668,0,1,1,3.258473117707668,0" style="fill: #d62728; stroke-width: 2; opacity: 0.7;"></path><path transform="translate(670.5555555555555,116.66666666666666)" d="M5.152098373193084,0A5.152098373193084,5.152098373193084,0,1,1,-5.152098373193084,0A5.152098373193084,5.152098373193084,0,1,1,5.152098373193084,0" style="fill: #d62728; stroke-width: 2; opacity: 0.7;"></path><path transform="translate(217.22222222222223,483.33333333333337)" d="M2.3040884378451634,0A2.3040884378451634,2.3040884378451634,0,1,1,-2.3040884378451634,0A2.3040884378451634,2.3040884378451634,0,1,1,2.3040884378451634,0" style="fill: #d62728; stroke-width: 2; opacity: 0.7;"></path><path transform="translate(141.66666666666669,150)" d="M2.3040884378451634,0A2.3040884378451634,2.3040884378451634,0,1,1,-2.3040884378451634,0A2.3040884378451634,2.3040884378451634,0,1,1,2.3040884378451634,0" style="fill: #d62728; stroke-width: 2; opacity: 0.7;"></path><path transform="translate(179.44444444444446,150)" d="M3.9907982394798283,0A3.9907982394798283,3.9907982394798283,0,1,1,-3.9907982394798283,0A3.9907982394798283,3.9907982394798283,0,1,1,3.9907982394798283,0" style="fill: #d62728; stroke-width: 2; opacity: 0.7;"></path><path transform="translate(217.22222222222223,150)" d="M2.3040884378451634,0A2.3040884378451634,2.3040884378451634,0,1,1,-2.3040884378451634,0A2.3040884378451634,2.3040884378451634,0,1,1,2.3040884378451634,0" style="fill: #d62728; stroke-width: 2; opacity: 0.7;"></path><path transform="translate(595,150)" d="M2.3040884378451634,0A2.3040884378451634,2.3040884378451634,0,1,1,-2.3040884378451634,0A2.3040884378451634,2.3040884378451634,0,1,1,2.3040884378451634,0" style="fill: #d62728; stroke-width: 2; opacity: 0.7;"></path><path transform="translate(651.6666666666667,150)" d="M3.9907982394798283,0A3.9907982394798283,3.9907982394798283,0,1,1,-3.9907982394798283,0A3.9907982394798283,3.9907982394798283,0,1,1,3.9907982394798283,0" style="fill: #d62728; stroke-width: 2; opacity: 0.7;"></path><path transform="translate(670.5555555555555,150)" d="M3.258473117707668,0A3.258473117707668,3.258473117707668,0,1,1,-3.258473117707668,0A3.258473117707668,3.258473117707668,0,1,1,3.258473117707668,0" style="fill: #d62728; stroke-width: 2; opacity: 0.7;"></path><path transform="translate(387.22222222222223,216.66666666666666)" d="M2.3040884378451634,0A2.3040884378451634,2.3040884378451634,0,1,1,-2.3040884378451634,0A2.3040884378451634,2.3040884378451634,0,1,1,2.3040884378451634,0" style="fill: #d62728; stroke-width: 2; opacity: 0.7;"></path><path transform="translate(481.6666666666667,216.66666666666666)" d="M3.258473117707668,0A3.258473117707668,3.258473117707668,0,1,1,-3.258473117707668,0A3.258473117707668,3.258473117707668,0,1,1,3.258473117707668,0" style="fill: #d62728; stroke-width: 2; opacity: 0.7;"></path><path transform="translate(538.3333333333334,216.66666666666666)" d="M3.258473117707668,0A3.258473117707668,3.258473117707668,0,1,1,-3.258473117707668,0A3.258473117707668,3.258473117707668,0,1,1,3.258473117707668,0" style="fill: #d62728; stroke-width: 2; opacity: 0.7;"></path></g><g class="mark-group role-legend"><g transform="translate(698,0)"><path class="background" d="M0,0h36v74h-36Z" style="pointer-events: none; fill: none;"></path><g><g class="mark-group role-legend-entry"><g transform="translate(0,16)"><path class="background" d="M0,0h0v0h0Z" style="pointer-events: none; fill: none;"></path><g><g class="mark-group role-scope"><g transform="translate(0,0)"><path class="background" d="M0,0h35.123046875v12.652098373193084h-35.123046875Z" style="pointer-events: none; fill: none; opacity: 1;"></path><g><g class="mark-symbol role-legend-symbol" style="pointer-events: none;"><path transform="translate(10,6)" d="M5.152098373193084,0A5.152098373193084,5.152098373193084,0,1,1,-5.152098373193084,0A5.152098373193084,5.152098373193084,0,1,1,5.152098373193084,0" style="fill: #d62728; stroke: none; stroke-width: 1.5; opacity: 0.7;"></path></g><g class="mark-text role-legend-label" style="pointer-events: none;"><text text-anchor="start" transform="translate(24,9)" style="font-family: sans-serif; font-size: 10px; fill: #000; opacity: 1;">5</text></g></g><path class="foreground" d="" style="pointer-events: none; display: none; fill: none;"></path></g><g transform="translate(0,16)"><path class="background" d="M0,0h35.123046875v17.28616739405002h-35.123046875Z" style="pointer-events: none; fill: none; opacity: 1;"></path><g><g class="mark-symbol role-legend-symbol" style="pointer-events: none;"><path transform="translate(10,8.5)" d="M7.286167394050019,0A7.286167394050019,7.286167394050019,0,1,1,-7.286167394050019,0A7.286167394050019,7.286167394050019,0,1,1,7.286167394050019,0" style="fill: #d62728; stroke: none; stroke-width: 1.5; opacity: 0.7;"></path></g><g class="mark-text role-legend-label" style="pointer-events: none;"><text text-anchor="start" transform="translate(24,11.5)" style="font-family: sans-serif; font-size: 10px; fill: #000; opacity: 1;">10</text></g></g><path class="foreground" d="" style="pointer-events: none; display: none; fill: none;"></path></g><g transform="translate(0,37)"><path class="background" d="M0,0h35.123046875v20.423696147963383h-35.123046875Z" style="pointer-events: none; fill: none; opacity: 1;"></path><g><g class="mark-symbol role-legend-symbol" style="pointer-events: none;"><path transform="translate(10,10)" d="M8.92369614796338,0A8.92369614796338,8.92369614796338,0,1,1,-8.92369614796338,0A8.92369614796338,8.92369614796338,0,1,1,8.92369614796338,0" style="fill: #d62728; stroke: none; stroke-width: 1.5; opacity: 0.7;"></path></g><g class="mark-text role-legend-label" style="pointer-events: none;"><text text-anchor="start" transform="translate(24,13)" style="font-family: sans-serif; font-size: 10px; fill: #000; opacity: 1;">15</text></g></g><path class="foreground" d="" style="pointer-events: none; display: none; fill: none;"></path></g></g></g><path class="foreground" d="" style="pointer-events: none; display: none; fill: none;"></path></g></g><g class="mark-text role-legend-title" style="pointer-events: none;"><text text-anchor="start" transform="translate(0,9)" style="font-family: sans-serif; font-size: 11px; font-weight: bold; fill: #000; opacity: 1;">count</text></g></g><path class="foreground" d="" style="pointer-events: none; display: none; fill: none;"></path></g></g><g class="mark-group role-title"><g transform="translate(340,-17)"><path class="background" d="M0,0h0v0h0Z" style="pointer-events: none; fill: none;"></path><g><g class="mark-text role-title-text" style="pointer-events: none;"><text text-anchor="middle" transform="translate(0,10)" style="font-family: sans-serif; font-size: 13px; font-weight: bold; fill: #000; opacity: 1;">Number of Holotipo of each order per year</text></g></g><path class="foreground" d="" style="pointer-events: none; display: none; fill: none;"></path></g></g><g class="mark-group role-axis"><g transform="translate(0.5,500.5)"><path class="background" d="M0,0h0v0h0Z" style="pointer-events: none; fill: none;"></path><g><g class="mark-rule role-axis-tick" style="pointer-events: none;"><line transform="translate(9,0)" x2="0" y2="5" style="fill: none; stroke: #888; stroke-width: 1; opacity: 1;"></line><line transform="translate(28,0)" x2="0" y2="5" style="fill: none; stroke: #888; stroke-width: 1; opacity: 1;"></line><line transform="translate(47,0)" x2="0" y2="5" style="fill: none; stroke: #888; stroke-width: 1; opacity: 1;"></line><line transform="translate(66,0)" x2="0" y2="5" style="fill: none; stroke: #888; stroke-width: 1; opacity: 1;"></line><line transform="translate(85,0)" x2="0" y2="5" style="fill: none; stroke: #888; stroke-width: 1; opacity: 1;"></line><line transform="translate(104,0)" x2="0" y2="5" style="fill: none; stroke: #888; stroke-width: 1; opacity: 1;"></line><line transform="translate(123,0)" x2="0" y2="5" style="fill: none; stroke: #888; stroke-width: 1; opacity: 1;"></line><line transform="translate(142,0)" x2="0" y2="5" style="fill: none; stroke: #888; stroke-width: 1; opacity: 1;"></line><line transform="translate(161,0)" x2="0" y2="5" style="fill: none; stroke: #888; stroke-width: 1; opacity: 1;"></line><line transform="translate(179,0)" x2="0" y2="5" style="fill: none; stroke: #888; stroke-width: 1; opacity: 1;"></line><line transform="translate(198,0)" x2="0" y2="5" style="fill: none; stroke: #888; stroke-width: 1; opacity: 1;"></line><line transform="translate(217,0)" x2="0" y2="5" style="fill: none; stroke: #888; stroke-width: 1; opacity: 1;"></line><line transform="translate(236,0)" x2="0" y2="5" style="fill: none; stroke: #888; stroke-width: 1; opacity: 1;"></line><line transform="translate(255,0)" x2="0" y2="5" style="fill: none; stroke: #888; stroke-width: 1; opacity: 1;"></line><line transform="translate(274,0)" x2="0" y2="5" style="fill: none; stroke: #888; stroke-width: 1; opacity: 1;"></line><line transform="translate(293,0)" x2="0" y2="5" style="fill: none; stroke: #888; stroke-width: 1; opacity: 1;"></line><line transform="translate(312,0)" x2="0" y2="5" style="fill: none; stroke: #888; stroke-width: 1; opacity: 1;"></line><line transform="translate(331,0)" x2="0" y2="5" style="fill: none; stroke: #888; stroke-width: 1; opacity: 1;"></line><line transform="translate(349,0)" x2="0" y2="5" style="fill: none; stroke: #888; stroke-width: 1; opacity: 1;"></line><line transform="translate(368,0)" x2="0" y2="5" style="fill: none; stroke: #888; stroke-width: 1; opacity: 1;"></line><line transform="translate(387,0)" x2="0" y2="5" style="fill: none; stroke: #888; stroke-width: 1; opacity: 1;"></line><line transform="translate(406,0)" x2="0" y2="5" style="fill: none; stroke: #888; stroke-width: 1; opacity: 1;"></line><line transform="translate(425,0)" x2="0" y2="5" style="fill: none; stroke: #888; stroke-width: 1; opacity: 1;"></line><line transform="translate(444,0)" x2="0" y2="5" style="fill: none; stroke: #888; stroke-width: 1; opacity: 1;"></line><line transform="translate(463,0)" x2="0" y2="5" style="fill: none; stroke: #888; stroke-width: 1; opacity: 1;"></line><line transform="translate(482,0)" x2="0" y2="5" style="fill: none; stroke: #888; stroke-width: 1; opacity: 1;"></line><line transform="translate(501,0)" x2="0" y2="5" style="fill: none; stroke: #888; stroke-width: 1; opacity: 1;"></line><line transform="translate(519,0)" x2="0" y2="5" style="fill: none; stroke: #888; stroke-width: 1; opacity: 1;"></line><line transform="translate(538,0)" x2="0" y2="5" style="fill: none; stroke: #888; stroke-width: 1; opacity: 1;"></line><line transform="translate(557,0)" x2="0" y2="5" style="fill: none; stroke: #888; stroke-width: 1; opacity: 1;"></line><line transform="translate(576,0)" x2="0" y2="5" style="fill: none; stroke: #888; stroke-width: 1; opacity: 1;"></line><line transform="translate(595,0)" x2="0" y2="5" style="fill: none; stroke: #888; stroke-width: 1; opacity: 1;"></line><line transform="translate(614,0)" x2="0" y2="5" style="fill: none; stroke: #888; stroke-width: 1; opacity: 1;"></line><line transform="translate(633,0)" x2="0" y2="5" style="fill: none; stroke: #888; stroke-width: 1; opacity: 1;"></line><line transform="translate(652,0)" x2="0" y2="5" style="fill: none; stroke: #888; stroke-width: 1; opacity: 1;"></line><line transform="translate(671,0)" x2="0" y2="5" style="fill: none; stroke: #888; stroke-width: 1; opacity: 1;"></line></g><g class="mark-text role-axis-label" style="pointer-events: none;"><text text-anchor="end" transform="translate(9.444444444444457,7) rotate(270) translate(0,3)" style="font-family: sans-serif; font-size: 10px; fill: #000; opacity: 1;">1955</text><text text-anchor="end" transform="translate(28.333333333333346,7) rotate(270) translate(0,3)" style="font-family: sans-serif; font-size: 10px; fill: #000; opacity: 1;">1958</text><text text-anchor="end" transform="translate(47.222222222222236,7) rotate(270) translate(0,3)" style="font-family: sans-serif; font-size: 10px; fill: #000; opacity: 1;">1965</text><text text-anchor="end" transform="translate(66.11111111111113,7) rotate(270) translate(0,3)" style="font-family: sans-serif; font-size: 10px; fill: #000; opacity: 1;">1966</text><text text-anchor="end" transform="translate(85.00000000000001,7) rotate(270) translate(0,3)" style="font-family: sans-serif; font-size: 10px; fill: #000; opacity: 1;">1967</text><text text-anchor="end" transform="translate(103.8888888888889,7) rotate(270) translate(0,3)" style="font-family: sans-serif; font-size: 10px; fill: #000; opacity: 1;">1968</text><text text-anchor="end" transform="translate(122.7777777777778,7) rotate(270) translate(0,3)" style="font-family: sans-serif; font-size: 10px; fill: #000; opacity: 1;">1969</text><text text-anchor="end" transform="translate(141.66666666666669,7) rotate(270) translate(0,3)" style="font-family: sans-serif; font-size: 10px; fill: #000; opacity: 1;">1971</text><text text-anchor="end" transform="translate(160.55555555555557,7) rotate(270) translate(0,3)" style="font-family: sans-serif; font-size: 10px; fill: #000; opacity: 1;">1972</text><text text-anchor="end" transform="translate(179.44444444444446,7) rotate(270) translate(0,3)" style="font-family: sans-serif; font-size: 10px; fill: #000; opacity: 1;">1973</text><text text-anchor="end" transform="translate(198.33333333333334,7) rotate(270) translate(0,3)" style="font-family: sans-serif; font-size: 10px; fill: #000; opacity: 1;">1975</text><text text-anchor="end" transform="translate(217.22222222222223,7) rotate(270) translate(0,3)" style="font-family: sans-serif; font-size: 10px; fill: #000; opacity: 1;">1978</text><text text-anchor="end" transform="translate(236.11111111111114,7) rotate(270) translate(0,3)" style="font-family: sans-serif; font-size: 10px; fill: #000; opacity: 1;">1987</text><text text-anchor="end" transform="translate(255.00000000000003,7) rotate(270) translate(0,3)" style="font-family: sans-serif; font-size: 10px; fill: #000; opacity: 1;">1988</text><text text-anchor="end" transform="translate(273.8888888888889,7) rotate(270) translate(0,3)" style="font-family: sans-serif; font-size: 10px; fill: #000; opacity: 1;">1989</text><text text-anchor="end" transform="translate(292.77777777777777,7) rotate(270) translate(0,3)" style="font-family: sans-serif; font-size: 10px; fill: #000; opacity: 1;">1991</text><text text-anchor="end" transform="translate(311.6666666666667,7) rotate(270) translate(0,3)" style="font-family: sans-serif; font-size: 10px; fill: #000; opacity: 1;">1993</text><text text-anchor="end" transform="translate(330.5555555555556,7) rotate(270) translate(0,3)" style="font-family: sans-serif; font-size: 10px; fill: #000; opacity: 1;">1994</text><text text-anchor="end" transform="translate(349.44444444444446,7) rotate(270) translate(0,3)" style="font-family: sans-serif; font-size: 10px; fill: #000; opacity: 1;">1995</text><text text-anchor="end" transform="translate(368.33333333333337,7) rotate(270) translate(0,3)" style="font-family: sans-serif; font-size: 10px; fill: #000; opacity: 1;">1996</text><text text-anchor="end" transform="translate(387.22222222222223,7) rotate(270) translate(0,3)" style="font-family: sans-serif; font-size: 10px; fill: #000; opacity: 1;">1997</text><text text-anchor="end" transform="translate(406.11111111111114,7) rotate(270) translate(0,3)" style="font-family: sans-serif; font-size: 10px; fill: #000; opacity: 1;">1998</text><text text-anchor="end" transform="translate(425,7) rotate(270) translate(0,3)" style="font-family: sans-serif; font-size: 10px; fill: #000; opacity: 1;">1999</text><text text-anchor="end" transform="translate(443.8888888888889,7) rotate(270) translate(0,3)" style="font-family: sans-serif; font-size: 10px; fill: #000; opacity: 1;">2000</text><text text-anchor="end" transform="translate(462.7777777777778,7) rotate(270) translate(0,3)" style="font-family: sans-serif; font-size: 10px; fill: #000; opacity: 1;">2001</text><text text-anchor="end" transform="translate(481.6666666666667,7) rotate(270) translate(0,3)" style="font-family: sans-serif; font-size: 10px; fill: #000; opacity: 1;">2002</text><text text-anchor="end" transform="translate(500.5555555555556,7) rotate(270) translate(0,3)" style="font-family: sans-serif; font-size: 10px; fill: #000; opacity: 1;">2003</text><text text-anchor="end" transform="translate(519.4444444444445,7) rotate(270) translate(0,3)" style="font-family: sans-serif; font-size: 10px; fill: #000; opacity: 1;">2004</text><text text-anchor="end" transform="translate(538.3333333333334,7) rotate(270) translate(0,3)" style="font-family: sans-serif; font-size: 10px; fill: #000; opacity: 1;">2005</text><text text-anchor="end" transform="translate(557.2222222222223,7) rotate(270) translate(0,3)" style="font-family: sans-serif; font-size: 10px; fill: #000; opacity: 1;">2007</text><text text-anchor="end" transform="translate(576.1111111111111,7) rotate(270) translate(0,3)" style="font-family: sans-serif; font-size: 10px; fill: #000; opacity: 1;">2008</text><text text-anchor="end" transform="translate(595,7) rotate(270) translate(0,3)" style="font-family: sans-serif; font-size: 10px; fill: #000; opacity: 1;">2010</text><text text-anchor="end" transform="translate(613.8888888888889,7) rotate(270) translate(0,3)" style="font-family: sans-serif; font-size: 10px; fill: #000; opacity: 1;">2011</text><text text-anchor="end" transform="translate(632.7777777777778,7) rotate(270) translate(0,3)" style="font-family: sans-serif; font-size: 10px; fill: #000; opacity: 1;">2012</text><text text-anchor="end" transform="translate(651.6666666666667,7) rotate(270) translate(0,3)" style="font-family: sans-serif; font-size: 10px; fill: #000; opacity: 1;">2013</text><text text-anchor="end" transform="translate(670.5555555555555,7) rotate(270) translate(0,3)" style="font-family: sans-serif; font-size: 10px; fill: #000; opacity: 1;">2015</text></g><g class="mark-rule role-axis-domain" style="pointer-events: none;"><line transform="translate(0,0)" x2="680" y2="0" style="fill: none; stroke: #888; stroke-width: 1; opacity: 1;"></line></g><g class="mark-text role-axis-title" style="pointer-events: none;"><text text-anchor="middle" transform="translate(340,42.24609375)" style="font-family: sans-serif; font-size: 11px; font-weight: bold; fill: #000; opacity: 1;">Year</text></g></g><path class="foreground" d="" style="pointer-events: none; display: none; fill: none;"></path></g></g><g class="mark-group role-axis"><g transform="translate(0.5,0.5)"><path class="background" d="M0,0h0v0h0Z" style="pointer-events: none; fill: none;"></path><g><g class="mark-rule role-axis-tick" style="pointer-events: none;"><line transform="translate(0,17)" x2="-5" y2="0" style="fill: none; stroke: #888; stroke-width: 1; opacity: 1;"></line><line transform="translate(0,50)" x2="-5" y2="0" style="fill: none; stroke: #888; stroke-width: 1; opacity: 1;"></line><line transform="translate(0,83)" x2="-5" y2="0" style="fill: none; stroke: #888; stroke-width: 1; opacity: 1;"></line><line transform="translate(0,117)" x2="-5" y2="0" style="fill: none; stroke: #888; stroke-width: 1; opacity: 1;"></line><line transform="translate(0,150)" x2="-5" y2="0" style="fill: none; stroke: #888; stroke-width: 1; opacity: 1;"></line><line transform="translate(0,183)" x2="-5" y2="0" style="fill: none; stroke: #888; stroke-width: 1; opacity: 1;"></line><line transform="translate(0,217)" x2="-5" y2="0" style="fill: none; stroke: #888; stroke-width: 1; opacity: 1;"></line><line transform="translate(0,250)" x2="-5" y2="0" style="fill: none; stroke: #888; stroke-width: 1; opacity: 1;"></line><line transform="translate(0,283)" x2="-5" y2="0" style="fill: none; stroke: #888; stroke-width: 1; opacity: 1;"></line><line transform="translate(0,317)" x2="-5" y2="0" style="fill: none; stroke: #888; stroke-width: 1; opacity: 1;"></line><line transform="translate(0,350)" x2="-5" y2="0" style="fill: none; stroke: #888; stroke-width: 1; opacity: 1;"></line><line transform="translate(0,383)" x2="-5" y2="0" style="fill: none; stroke: #888; stroke-width: 1; opacity: 1;"></line><line transform="translate(0,417)" x2="-5" y2="0" style="fill: none; stroke: #888; stroke-width: 1; opacity: 1;"></line><line transform="translate(0,450)" x2="-5" y2="0" style="fill: none; stroke: #888; stroke-width: 1; opacity: 1;"></line><line transform="translate(0,483)" x2="-5" y2="0" style="fill: none; stroke: #888; stroke-width: 1; opacity: 1;"></line></g><g class="mark-text role-axis-label" style="pointer-events: none;"><text text-anchor="end" transform="translate(-7,19.666666666666657)" style="font-family: sans-serif; font-size: 10px; fill: #000; opacity: 1;">Amphipoda</text><text text-anchor="end" transform="translate(-7,52.99999999999999)" style="font-family: sans-serif; font-size: 10px; fill: #000; opacity: 1;">Isopoda</text><text text-anchor="end" transform="translate(-7,86.33333333333333)" style="font-family: sans-serif; font-size: 10px; fill: #000; opacity: 1;">Decapoda</text><text text-anchor="end" transform="translate(-7,119.66666666666666)" style="font-family: sans-serif; font-size: 10px; fill: #000; opacity: 1;">Siphonostomatoida</text><text text-anchor="end" transform="translate(-7,153)" style="font-family: sans-serif; font-size: 10px; fill: #000; opacity: 1;">Tanaidacea</text><text text-anchor="end" transform="translate(-7,186.33333333333334)" style="font-family: sans-serif; font-size: 10px; fill: #000; opacity: 1;">Poecilostomatoida</text><text text-anchor="end" transform="translate(-7,219.66666666666666)" style="font-family: sans-serif; font-size: 10px; fill: #000; opacity: 1;">Thoracica</text><text text-anchor="end" transform="translate(-7,253)" style="font-family: sans-serif; font-size: 10px; fill: #000; opacity: 1;">Anomopoda</text><text text-anchor="end" transform="translate(-7,286.33333333333337)" style="font-family: sans-serif; font-size: 10px; fill: #000; opacity: 1;">Arguloida</text><text text-anchor="end" transform="translate(-7,319.66666666666663)" style="font-family: sans-serif; font-size: 10px; fill: #000; opacity: 1;">Cumacea</text><text text-anchor="end" transform="translate(-7,353)" style="font-family: sans-serif; font-size: 10px; fill: #000; opacity: 1;">Cyclopoida</text><text text-anchor="end" transform="translate(-7,386.33333333333337)" style="font-family: sans-serif; font-size: 10px; fill: #000; opacity: 1;">Podocopida</text><text text-anchor="end" transform="translate(-7,419.66666666666663)" style="font-family: sans-serif; font-size: 10px; fill: #000; opacity: 1;">Anostraca</text><text text-anchor="end" transform="translate(-7,453)" style="font-family: sans-serif; font-size: 10px; fill: #000; opacity: 1;">Monstrilloida</text><text text-anchor="end" transform="translate(-7,486.33333333333337)" style="font-family: sans-serif; font-size: 10px; fill: #000; opacity: 1;">Stomatopoda</text></g><g class="mark-rule role-axis-domain" style="pointer-events: none;"><line transform="translate(0,0)" x2="0" y2="500" style="fill: none; stroke: #888; stroke-width: 1; opacity: 1;"></line></g><g class="mark-text role-axis-title" style="pointer-events: none;"><text text-anchor="middle" transform="translate(-96.615234375,250) rotate(-90) translate(0,-2)" style="font-family: sans-serif; font-size: 11px; font-weight: bold; fill: #000; opacity: 1;">Order</text></g></g><path class="foreground" d="" style="pointer-events: none; display: none; fill: none;"></path></g></g></g><path class="foreground" d="" style="display: none; fill: none;"></path></g></g></g></svg>