<svg class="marks" width="853" height="572" viewBox="0 0 853 572" version="1.1" xmlns="http://www.w3.org/2000/svg" xmlns:xlink="http://www.w3.org/1999/xlink"><g transform="translate(113,22)"><g class="mark-group role-frame root"><g transform="translate(0,0)"><path class="background" d="M0.5,0.5h680v500h-680Z" style="fill: none; stroke: #ddd;"></path><g><g class="mark-symbol role-mark marks"><path transform="translate(180.85106382978725,78.125)" d="M1.6057930839841814,0A1.6057930839841814,1.6057930839841814,0,1,1,-1.6057930839841814,0A1.6057930839841814,1.6057930839841814,0,1,1,1.6057930839841814,0" style="fill: #4daf4a; stroke-width: 2; opacity: 0.7;"></path><path transform="translate(282.1276595744681,78.125)" d="M1.6057930839841814,0A1.6057930839841814,1.6057930839841814,0,1,1,-1.6057930839841814,0A1.6057930839841814,1.6057930839841814,0,1,1,1.6057930839841814,0" style="fill: #4daf4a; stroke-width: 2; opacity: 0.7;"></path><path transform="translate(368.936170212766,78.125)" d="M3.5906624935876588,0A3.5906624935876588,3.5906624935876588,0,1,1,-3.5906624935876588,0A3.5906624935876588,3.5906624935876588,0,1,1,3.5906624935876588,0" style="fill: #4daf4a; stroke-width: 2; opacity: 0.7;"></path><path transform="translate(397.87234042553195,78.125)" d="M7.358668357794092,0A7.358668357794092,7.358668357794092,0,1,1,-7.358668357794092,0A7.358668357794092,7.358668357794092,0,1,1,7.358668357794092,0" style="fill: #4daf4a; stroke-width: 2; opacity: 0.7;"></path><path transform="translate(412.34042553191495,78.125)" d="M3.211586167968363,0A3.211586167968363,3.211586167968363,0,1,1,-3.211586167968363,0A3.211586167968363,3.211586167968363,0,1,1,3.211586167968363,0" style="fill: #4daf4a; stroke-width: 2; opacity: 0.7;"></path><path transform="translate(426.8085106382979,78.125)" d="M1.6057930839841814,0A1.6057930839841814,1.6057930839841814,0,1,1,-1.6057930839841814,0A1.6057930839841814,1.6057930839841814,0,1,1,1.6057930839841814,0" style="fill: #4daf4a; stroke-width: 2; opacity: 0.7;"></path><path transform="translate(441.2765957446809,78.125)" d="M4.541868715470695,0A4.541868715470695,4.541868715470695,0,1,1,-4.541868715470695,0A4.541868715470695,4.541868715470695,0,1,1,4.541868715470695,0" style="fill: #4daf4a; stroke-width: 2; opacity: 0.7;"></path><path transform="translate(455.74468085106383,78.125)" d="M6.008327554319921,0A6.008327554319921,6.008327554319921,0,1,1,-6.008327554319921,0A6.008327554319921,6.008327554319921,0,1,1,6.008327554319921,0" style="fill: #4daf4a; stroke-width: 2; opacity: 0.7;"></path><path transform="translate(470.21276595744683,78.125)" d="M2.7813152079033197,0A2.7813152079033197,2.7813152079033197,0,1,1,-2.7813152079033197,0A2.7813152079033197,2.7813152079033197,0,1,1,2.7813152079033197,0" style="fill: #4daf4a; stroke-width: 2; opacity: 0.7;"></path><path transform="translate(484.68085106382983,78.125)" d="M6.620854498153111,0A6.620854498153111,6.620854498153111,0,1,1,-6.620854498153111,0A6.620854498153111,6.620854498153111,0,1,1,6.620854498153111,0" style="fill: #4daf4a; stroke-width: 2; opacity: 0.7;"></path><path transform="translate(499.1489361702128,78.125)" d="M9.5,0A9.5,9.5,0,1,1,-9.5,0A9.5,9.5,0,1,1,9.5,0" style="fill: #4daf4a; stroke-width: 2; opacity: 0.7;"></path><path transform="translate(513.6170212765958,78.125)" d="M1.6057930839841814,0A1.6057930839841814,1.6057930839841814,0,1,1,-1.6057930839841814,0A1.6057930839841814,1.6057930839841814,0,1,1,1.6057930839841814,0" style="fill: #4daf4a; stroke-width: 2; opacity: 0.7;"></path><path transform="translate(528.0851063829787,78.125)" d="M8.940677507086042,0A8.940677507086042,8.940677507086042,0,1,1,-8.940677507086042,0A8.940677507086042,8.940677507086042,0,1,1,8.940677507086042,0" style="fill: #4daf4a; stroke-width: 2; opacity: 0.7;"></path><path transform="translate(542.5531914893618,78.125)" d="M9.5,0A9.5,9.5,0,1,1,-9.5,0A9.5,9.5,0,1,1,9.5,0" style="fill: #4daf4a; stroke-width: 2; opacity: 0.7;"></path><path transform="translate(571.4893617021278,78.125)" d="M5.325813150523187,0A5.325813150523187,5.325813150523187,0,1,1,-5.325813150523187,0A5.325813150523187,5.325813150523187,0,1,1,5.325813150523187,0" style="fill: #4daf4a; stroke-width: 2; opacity: 0.7;"></path><path transform="translate(585.9574468085107,78.125)" d="M3.5906624935876588,0A3.5906624935876588,3.5906624935876588,0,1,1,-3.5906624935876588,0A3.5906624935876588,3.5906624935876588,0,1,1,3.5906624935876588,0" style="fill: #4daf4a; stroke-width: 2; opacity: 0.7;"></path><path transform="translate(600.4255319148936,78.125)" d="M1.6057930839841814,0A1.6057930839841814,1.6057930839841814,0,1,1,-1.6057930839841814,0A1.6057930839841814,1.6057930839841814,0,1,1,1.6057930839841814,0" style="fill: #4daf4a; stroke-width: 2; opacity: 0.7;"></path><path transform="translate(614.8936170212767,78.125)" d="M3.933373688251419,0A3.933373688251419,3.933373688251419,0,1,1,-3.933373688251419,0A3.933373688251419,3.933373688251419,0,1,1,3.933373688251419,0" style="fill: #4daf4a; stroke-width: 2; opacity: 0.7;"></path><path transform="translate(629.3617021276596,78.125)" d="M1.6057930839841814,0A1.6057930839841814,1.6057930839841814,0,1,1,-1.6057930839841814,0A1.6057930839841814,1.6057930839841814,0,1,1,1.6057930839841814,0" style="fill: #4daf4a; stroke-width: 2; opacity: 0.7;"></path><path transform="translate(643.8297872340427,78.125)" d="M3.933373688251419,0A3.933373688251419,3.933373688251419,0,1,1,-3.933373688251419,0A3.933373688251419,3.933373688251419,0,1,1,3.933373688251419,0" style="fill: #4daf4a; stroke-width: 2; opacity: 0.7;"></path><path transform="translate(397.87234042553195,421.875)" d="M1.6057930839841814,0A1.6057930839841814,1.6057930839841814,0,1,1,-1.6057930839841814,0A1.6057930839841814,1.6057930839841814,0,1,1,1.6057930839841814,0" style="fill: #4daf4a; stroke-width: 2; opacity: 0.7;"></path><path transform="translate(340,234.375)" d="M2.2709343577353476,0A2.2709343577353476,2.2709343577353476,0,1,1,-2.2709343577353476,0A2.2709343577353476,2.2709343577353476,0,1,1,2.2709343577353476,0" style="fill: #4daf4a; stroke-width: 2; opacity: 0.7;"></path><path transform="translate(354.468085106383,234.375)" d="M1.6057930839841814,0A1.6057930839841814,1.6057930839841814,0,1,1,-1.6057930839841814,0A1.6057930839841814,1.6057930839841814,0,1,1,1.6057930839841814,0" style="fill: #4daf4a; stroke-width: 2; opacity: 0.7;"></path><path transform="translate(368.936170212766,234.375)" d="M1.6057930839841814,0A1.6057930839841814,1.6057930839841814,0,1,1,-1.6057930839841814,0A1.6057930839841814,1.6057930839841814,0,1,1,1.6057930839841814,0" style="fill: #4daf4a; stroke-width: 2; opacity: 0.7;"></path><path transform="translate(195.31914893617022,453.125)" d="M1.6057930839841814,0A1.6057930839841814,1.6057930839841814,0,1,1,-1.6057930839841814,0A1.6057930839841814,1.6057930839841814,0,1,1,1.6057930839841814,0" style="fill: #4daf4a; stroke-width: 2; opacity: 0.7;"></path><path transform="translate(412.34042553191495,484.375)" d="M1.6057930839841814,0A1.6057930839841814,1.6057930839841814,0,1,1,-1.6057930839841814,0A1.6057930839841814,1.6057930839841814,0,1,1,1.6057930839841814,0" style="fill: #4daf4a; stroke-width: 2; opacity: 0.7;"></path><path transform="translate(79.57446808510639,328.125)" d="M4.2485291572496005,0A4.2485291572496005,4.2485291572496005,0,1,1,-4.2485291572496005,0A4.2485291572496005,4.2485291572496005,0,1,1,4.2485291572496005,0" style="fill: #4daf4a; stroke-width: 2; opacity: 0.7;"></path><path transform="translate(137.4468085106383,328.125)" d="M1.6057930839841814,0A1.6057930839841814,1.6057930839841814,0,1,1,-1.6057930839841814,0A1.6057930839841814,1.6057930839841814,0,1,1,1.6057930839841814,0" style="fill: #4daf4a; stroke-width: 2; opacity: 0.7;"></path><path transform="translate(528.0851063829787,265.625)" d="M1.6057930839841814,0A1.6057930839841814,1.6057930839841814,0,1,1,-1.6057930839841814,0A1.6057930839841814,1.6057930839841814,0,1,1,1.6057930839841814,0" style="fill: #4daf4a; stroke-width: 2; opacity: 0.7;"></path><path transform="translate(629.3617021276596,265.625)" d="M1.6057930839841814,0A1.6057930839841814,1.6057930839841814,0,1,1,-1.6057930839841814,0A1.6057930839841814,1.6057930839841814,0,1,1,1.6057930839841814,0" style="fill: #4daf4a; stroke-width: 2; opacity: 0.7;"></path><path transform="translate(643.8297872340427,265.625)" d="M3.211586167968363,0A3.211586167968363,3.211586167968363,0,1,1,-3.211586167968363,0A3.211586167968363,3.211586167968363,0,1,1,3.211586167968363,0" style="fill: #4daf4a; stroke-width: 2; opacity: 0.7;"></path><path transform="translate(50.63829787234044,15.625)" d="M1.6057930839841814,0A1.6057930839841814,1.6057930839841814,0,1,1,-1.6057930839841814,0A1.6057930839841814,1.6057930839841814,0,1,1,1.6057930839841814,0" style="fill: #4daf4a; stroke-width: 2; opacity: 0.7;"></path><path transform="translate(108.51063829787236,15.625)" d="M2.7813152079033197,0A2.7813152079033197,2.7813152079033197,0,1,1,-2.7813152079033197,0A2.7813152079033197,2.7813152079033197,0,1,1,2.7813152079033197,0" style="fill: #4daf4a; stroke-width: 2; opacity: 0.7;"></path><path transform="translate(122.97872340425533,15.625)" d="M2.7813152079033197,0A2.7813152079033197,2.7813152079033197,0,1,1,-2.7813152079033197,0A2.7813152079033197,2.7813152079033197,0,1,1,2.7813152079033197,0" style="fill: #4daf4a; stroke-width: 2; opacity: 0.7;"></path><path transform="translate(166.38297872340428,15.625)" d="M1.6057930839841814,0A1.6057930839841814,1.6057930839841814,0,1,1,-1.6057930839841814,0A1.6057930839841814,1.6057930839841814,0,1,1,1.6057930839841814,0" style="fill: #4daf4a; stroke-width: 2; opacity: 0.7;"></path><path transform="translate(195.31914893617022,15.625)" d="M2.2709343577353476,0A2.2709343577353476,2.2709343577353476,0,1,1,-2.2709343577353476,0A2.2709343577353476,2.2709343577353476,0,1,1,2.2709343577353476,0" style="fill: #4daf4a; stroke-width: 2; opacity: 0.7;"></path><path transform="translate(209.78723404255322,15.625)" d="M2.2709343577353476,0A2.2709343577353476,2.2709343577353476,0,1,1,-2.2709343577353476,0A2.2709343577353476,2.2709343577353476,0,1,1,2.2709343577353476,0" style="fill: #4daf4a; stroke-width: 2; opacity: 0.7;"></path><path transform="translate(253.19148936170214,15.625)" d="M1.6057930839841814,0A1.6057930839841814,1.6057930839841814,0,1,1,-1.6057930839841814,0A1.6057930839841814,1.6057930839841814,0,1,1,1.6057930839841814,0" style="fill: #4daf4a; stroke-width: 2; opacity: 0.7;"></path><path transform="translate(296.59574468085106,15.625)" d="M3.211586167968363,0A3.211586167968363,3.211586167968363,0,1,1,-3.211586167968363,0A3.211586167968363,3.211586167968363,0,1,1,3.211586167968363,0" style="fill: #4daf4a; stroke-width: 2; opacity: 0.7;"></path><path transform="translate(311.06382978723406,15.625)" d="M3.211586167968363,0A3.211586167968363,3.211586167968363,0,1,1,-3.211586167968363,0A3.211586167968363,3.211586167968363,0,1,1,3.211586167968363,0" style="fill: #4daf4a; stroke-width: 2; opacity: 0.7;"></path><path transform="translate(354.468085106383,15.625)" d="M2.2709343577353476,0A2.2709343577353476,2.2709343577353476,0,1,1,-2.2709343577353476,0A2.2709343577353476,2.2709343577353476,0,1,1,2.2709343577353476,0" style="fill: #4daf4a; stroke-width: 2; opacity: 0.7;"></path><path transform="translate(368.936170212766,15.625)" d="M2.7813152079033197,0A2.7813152079033197,2.7813152079033197,0,1,1,-2.7813152079033197,0A2.7813152079033197,2.7813152079033197,0,1,1,2.7813152079033197,0" style="fill: #4daf4a; stroke-width: 2; opacity: 0.7;"></path><path transform="translate(455.74468085106383,15.625)" d="M1.6057930839841814,0A1.6057930839841814,1.6057930839841814,0,1,1,-1.6057930839841814,0A1.6057930839841814,1.6057930839841814,0,1,1,1.6057930839841814,0" style="fill: #4daf4a; stroke-width: 2; opacity: 0.7;"></path><path transform="translate(470.21276595744683,15.625)" d="M1.6057930839841814,0A1.6057930839841814,1.6057930839841814,0,1,1,-1.6057930839841814,0A1.6057930839841814,1.6057930839841814,0,1,1,1.6057930839841814,0" style="fill: #4daf4a; stroke-width: 2; opacity: 0.7;"></path><path transform="translate(484.68085106382983,15.625)" d="M2.7813152079033197,0A2.7813152079033197,2.7813152079033197,0,1,1,-2.7813152079033197,0A2.7813152079033197,2.7813152079033197,0,1,1,2.7813152079033197,0" style="fill: #4daf4a; stroke-width: 2; opacity: 0.7;"></path><path transform="translate(499.1489361702128,15.625)" d="M2.2709343577353476,0A2.2709343577353476,2.2709343577353476,0,1,1,-2.2709343577353476,0A2.2709343577353476,2.2709343577353476,0,1,1,2.2709343577353476,0" style="fill: #4daf4a; stroke-width: 2; opacity: 0.7;"></path><path transform="translate(528.0851063829787,15.625)" d="M3.933373688251419,0A3.933373688251419,3.933373688251419,0,1,1,-3.933373688251419,0A3.933373688251419,3.933373688251419,0,1,1,3.933373688251419,0" style="fill: #4daf4a; stroke-width: 2; opacity: 0.7;"></path><path transform="translate(542.5531914893618,15.625)" d="M1.6057930839841814,0A1.6057930839841814,1.6057930839841814,0,1,1,-1.6057930839841814,0A1.6057930839841814,1.6057930839841814,0,1,1,1.6057930839841814,0" style="fill: #4daf4a; stroke-width: 2; opacity: 0.7;"></path><path transform="translate(557.0212765957447,15.625)" d="M2.2709343577353476,0A2.2709343577353476,2.2709343577353476,0,1,1,-2.2709343577353476,0A2.2709343577353476,2.2709343577353476,0,1,1,2.2709343577353476,0" style="fill: #4daf4a; stroke-width: 2; opacity: 0.7;"></path><path transform="translate(571.4893617021278,15.625)" d="M1.6057930839841814,0A1.6057930839841814,1.6057930839841814,0,1,1,-1.6057930839841814,0A1.6057930839841814,1.6057930839841814,0,1,1,1.6057930839841814,0" style="fill: #4daf4a; stroke-width: 2; opacity: 0.7;"></path><path transform="translate(585.9574468085107,15.625)" d="M1.6057930839841814,0A1.6057930839841814,1.6057930839841814,0,1,1,-1.6057930839841814,0A1.6057930839841814,1.6057930839841814,0,1,1,1.6057930839841814,0" style="fill: #4daf4a; stroke-width: 2; opacity: 0.7;"></path><path transform="translate(629.3617021276596,15.625)" d="M1.6057930839841814,0A1.6057930839841814,1.6057930839841814,0,1,1,-1.6057930839841814,0A1.6057930839841814,1.6057930839841814,0,1,1,1.6057930839841814,0" style="fill: #4daf4a; stroke-width: 2; opacity: 0.7;"></path><path transform="translate(643.8297872340427,15.625)" d="M2.2709343577353476,0A2.2709343577353476,2.2709343577353476,0,1,1,-2.2709343577353476,0A2.2709343577353476,2.2709343577353476,0,1,1,2.2709343577353476,0" style="fill: #4daf4a; stroke-width: 2; opacity: 0.7;"></path><path transform="translate(658.2978723404256,15.625)" d="M1.6057930839841814,0A1.6057930839841814,1.6057930839841814,0,1,1,-1.6057930839841814,0A1.6057930839841814,1.6057930839841814,0,1,1,1.6057930839841814,0" style="fill: #4daf4a; stroke-width: 2; opacity: 0.7;"></path><path transform="translate(672.7659574468084,15.625)" d="M1.6057930839841814,0A1.6057930839841814,1.6057930839841814,0,1,1,-1.6057930839841814,0A1.6057930839841814,1.6057930839841814,0,1,1,1.6057930839841814,0" style="fill: #4daf4a; stroke-width: 2; opacity: 0.7;"></path><path transform="translate(21.70212765957448,46.875)" d="M1.6057930839841814,0A1.6057930839841814,1.6057930839841814,0,1,1,-1.6057930839841814,0A1.6057930839841814,1.6057930839841814,0,1,1,1.6057930839841814,0" style="fill: #4daf4a; stroke-width: 2; opacity: 0.7;"></path><path transform="translate(36.17021276595746,46.875)" d="M5.789769302090418,0A5.789769302090418,5.789769302090418,0,1,1,-5.789769302090418,0A5.789769302090418,5.789769302090418,0,1,1,5.789769302090418,0" style="fill: #4daf4a; stroke-width: 2; opacity: 0.7;"></path><path transform="translate(65.10638297872342,46.875)" d="M2.2709343577353476,0A2.2709343577353476,2.2709343577353476,0,1,1,-2.2709343577353476,0A2.2709343577353476,2.2709343577353476,0,1,1,2.2709343577353476,0" style="fill: #4daf4a; stroke-width: 2; opacity: 0.7;"></path><path transform="translate(94.04255319148938,46.875)" d="M4.817379251952544,0A4.817379251952544,4.817379251952544,0,1,1,-4.817379251952544,0A4.817379251952544,4.817379251952544,0,1,1,4.817379251952544,0" style="fill: #4daf4a; stroke-width: 2; opacity: 0.7;"></path><path transform="translate(122.97872340425533,46.875)" d="M2.7813152079033197,0A2.7813152079033197,2.7813152079033197,0,1,1,-2.7813152079033197,0A2.7813152079033197,2.7813152079033197,0,1,1,2.7813152079033197,0" style="fill: #4daf4a; stroke-width: 2; opacity: 0.7;"></path><path transform="translate(137.4468085106383,46.875)" d="M1.6057930839841814,0A1.6057930839841814,1.6057930839841814,0,1,1,-1.6057930839841814,0A1.6057930839841814,1.6057930839841814,0,1,1,1.6057930839841814,0" style="fill: #4daf4a; stroke-width: 2; opacity: 0.7;"></path><path transform="translate(151.91489361702128,46.875)" d="M3.211586167968363,0A3.211586167968363,3.211586167968363,0,1,1,-3.211586167968363,0A3.211586167968363,3.211586167968363,0,1,1,3.211586167968363,0" style="fill: #4daf4a; stroke-width: 2; opacity: 0.7;"></path><path transform="translate(195.31914893617022,46.875)" d="M1.6057930839841814,0A1.6057930839841814,1.6057930839841814,0,1,1,-1.6057930839841814,0A1.6057930839841814,1.6057930839841814,0,1,1,1.6057930839841814,0" style="fill: #4daf4a; stroke-width: 2; opacity: 0.7;"></path><path transform="translate(238.72340425531917,46.875)" d="M2.2709343577353476,0A2.2709343577353476,2.2709343577353476,0,1,1,-2.2709343577353476,0A2.2709343577353476,2.2709343577353476,0,1,1,2.2709343577353476,0" style="fill: #4daf4a; stroke-width: 2; opacity: 0.7;"></path><path transform="translate(311.06382978723406,46.875)" d="M4.817379251952544,0A4.817379251952544,4.817379251952544,0,1,1,-4.817379251952544,0A4.817379251952544,4.817379251952544,0,1,1,4.817379251952544,0" style="fill: #4daf4a; stroke-width: 2; opacity: 0.7;"></path><path transform="translate(325.53191489361706,46.875)" d="M3.5906624935876588,0A3.5906624935876588,3.5906624935876588,0,1,1,-3.5906624935876588,0A3.5906624935876588,3.5906624935876588,0,1,1,3.5906624935876588,0" style="fill: #4daf4a; stroke-width: 2; opacity: 0.7;"></path><path transform="translate(340,46.875)" d="M2.2709343577353476,0A2.2709343577353476,2.2709343577353476,0,1,1,-2.2709343577353476,0A2.2709343577353476,2.2709343577353476,0,1,1,2.2709343577353476,0" style="fill: #4daf4a; stroke-width: 2; opacity: 0.7;"></path><path transform="translate(368.936170212766,46.875)" d="M5.077963596336064,0A5.077963596336064,5.077963596336064,0,1,1,-5.077963596336064,0A5.077963596336064,5.077963596336064,0,1,1,5.077963596336064,0" style="fill: #4daf4a; stroke-width: 2; opacity: 0.7;"></path><path transform="translate(412.34042553191495,46.875)" d="M2.2709343577353476,0A2.2709343577353476,2.2709343577353476,0,1,1,-2.2709343577353476,0A2.2709343577353476,2.2709343577353476,0,1,1,2.2709343577353476,0" style="fill: #4daf4a; stroke-width: 2; opacity: 0.7;"></path><path transform="translate(455.74468085106383,46.875)" d="M1.6057930839841814,0A1.6057930839841814,1.6057930839841814,0,1,1,-1.6057930839841814,0A1.6057930839841814,1.6057930839841814,0,1,1,1.6057930839841814,0" style="fill: #4daf4a; stroke-width: 2; opacity: 0.7;"></path><path transform="translate(470.21276595744683,46.875)" d="M2.7813152079033197,0A2.7813152079033197,2.7813152079033197,0,1,1,-2.7813152079033197,0A2.7813152079033197,2.7813152079033197,0,1,1,2.7813152079033197,0" style="fill: #4daf4a; stroke-width: 2; opacity: 0.7;"></path><path transform="translate(513.6170212765958,46.875)" d="M1.6057930839841814,0A1.6057930839841814,1.6057930839841814,0,1,1,-1.6057930839841814,0A1.6057930839841814,1.6057930839841814,0,1,1,1.6057930839841814,0" style="fill: #4daf4a; stroke-width: 2; opacity: 0.7;"></path><path transform="translate(528.0851063829787,46.875)" d="M1.6057930839841814,0A1.6057930839841814,1.6057930839841814,0,1,1,-1.6057930839841814,0A1.6057930839841814,1.6057930839841814,0,1,1,1.6057930839841814,0" style="fill: #4daf4a; stroke-width: 2; opacity: 0.7;"></path><path transform="translate(600.4255319148936,46.875)" d="M1.6057930839841814,0A1.6057930839841814,1.6057930839841814,0,1,1,-1.6057930839841814,0A1.6057930839841814,1.6057930839841814,0,1,1,1.6057930839841814,0" style="fill: #4daf4a; stroke-width: 2; opacity: 0.7;"></path><path transform="translate(614.8936170212767,46.875)" d="M1.6057930839841814,0A1.6057930839841814,1.6057930839841814,0,1,1,-1.6057930839841814,0A1.6057930839841814,1.6057930839841814,0,1,1,1.6057930839841814,0" style="fill: #4daf4a; stroke-width: 2; opacity: 0.7;"></path><path transform="translate(643.8297872340427,46.875)" d="M3.5906624935876588,0A3.5906624935876588,3.5906624935876588,0,1,1,-3.5906624935876588,0A3.5906624935876588,3.5906624935876588,0,1,1,3.5906624935876588,0" style="fill: #4daf4a; stroke-width: 2; opacity: 0.7;"></path><path transform="translate(441.2765957446809,359.375)" d="M1.6057930839841814,0A1.6057930839841814,1.6057930839841814,0,1,1,-1.6057930839841814,0A1.6057930839841814,1.6057930839841814,0,1,1,1.6057930839841814,0" style="fill: #4daf4a; stroke-width: 2; opacity: 0.7;"></path><path transform="translate(614.8936170212767,359.375)" d="M1.6057930839841814,0A1.6057930839841814,1.6057930839841814,0,1,1,-1.6057930839841814,0A1.6057930839841814,1.6057930839841814,0,1,1,1.6057930839841814,0" style="fill: #4daf4a; stroke-width: 2; opacity: 0.7;"></path><path transform="translate(441.2765957446809,203.125)" d="M2.7813152079033197,0A2.7813152079033197,2.7813152079033197,0,1,1,-2.7813152079033197,0A2.7813152079033197,2.7813152079033197,0,1,1,2.7813152079033197,0" style="fill: #4daf4a; stroke-width: 2; opacity: 0.7;"></path><path transform="translate(470.21276595744683,203.125)" d="M4.2485291572496005,0A4.2485291572496005,4.2485291572496005,0,1,1,-4.2485291572496005,0A4.2485291572496005,4.2485291572496005,0,1,1,4.2485291572496005,0" style="fill: #4daf4a; stroke-width: 2; opacity: 0.7;"></path><path transform="translate(484.68085106382983,203.125)" d="M2.2709343577353476,0A2.2709343577353476,2.2709343577353476,0,1,1,-2.2709343577353476,0A2.2709343577353476,2.2709343577353476,0,1,1,2.2709343577353476,0" style="fill: #4daf4a; stroke-width: 2; opacity: 0.7;"></path><path transform="translate(499.1489361702128,203.125)" d="M1.6057930839841814,0A1.6057930839841814,1.6057930839841814,0,1,1,-1.6057930839841814,0A1.6057930839841814,1.6057930839841814,0,1,1,1.6057930839841814,0" style="fill: #4daf4a; stroke-width: 2; opacity: 0.7;"></path><path transform="translate(267.6595744680851,296.875)" d="M3.211586167968363,0A3.211586167968363,3.211586167968363,0,1,1,-3.211586167968363,0A3.211586167968363,3.211586167968363,0,1,1,3.211586167968363,0" style="fill: #4daf4a; stroke-width: 2; opacity: 0.7;"></path><path transform="translate(600.4255319148936,296.875)" d="M2.2709343577353476,0A2.2709343577353476,2.2709343577353476,0,1,1,-2.2709343577353476,0A2.2709343577353476,2.2709343577353476,0,1,1,2.2709343577353476,0" style="fill: #4daf4a; stroke-width: 2; opacity: 0.7;"></path><path transform="translate(643.8297872340427,296.875)" d="M1.6057930839841814,0A1.6057930839841814,1.6057930839841814,0,1,1,-1.6057930839841814,0A1.6057930839841814,1.6057930839841814,0,1,1,1.6057930839841814,0" style="fill: #4daf4a; stroke-width: 2; opacity: 0.7;"></path><path transform="translate(354.468085106383,109.375)" d="M1.6057930839841814,0A1.6057930839841814,1.6057930839841814,0,1,1,-1.6057930839841814,0A1.6057930839841814,1.6057930839841814,0,1,1,1.6057930839841814,0" style="fill: #4daf4a; stroke-width: 2; opacity: 0.7;"></path><path transform="translate(368.936170212766,109.375)" d="M2.2709343577353476,0A2.2709343577353476,2.2709343577353476,0,1,1,-2.2709343577353476,0A2.2709343577353476,2.2709343577353476,0,1,1,2.2709343577353476,0" style="fill: #4daf4a; stroke-width: 2; opacity: 0.7;"></path><path transform="translate(383.40425531914894,109.375)" d="M2.7813152079033197,0A2.7813152079033197,2.7813152079033197,0,1,1,-2.7813152079033197,0A2.7813152079033197,2.7813152079033197,0,1,1,2.7813152079033197,0" style="fill: #4daf4a; stroke-width: 2; opacity: 0.7;"></path><path transform="translate(397.87234042553195,109.375)" d="M2.2709343577353476,0A2.2709343577353476,2.2709343577353476,0,1,1,-2.2709343577353476,0A2.2709343577353476,2.2709343577353476,0,1,1,2.2709343577353476,0" style="fill: #4daf4a; stroke-width: 2; opacity: 0.7;"></path><path transform="translate(412.34042553191495,109.375)" d="M5.077963596336064,0A5.077963596336064,5.077963596336064,0,1,1,-5.077963596336064,0A5.077963596336064,5.077963596336064,0,1,1,5.077963596336064,0" style="fill: #4daf4a; stroke-width: 2; opacity: 0.7;"></path><path transform="translate(426.8085106382979,109.375)" d="M1.6057930839841814,0A1.6057930839841814,1.6057930839841814,0,1,1,-1.6057930839841814,0A1.6057930839841814,1.6057930839841814,0,1,1,1.6057930839841814,0" style="fill: #4daf4a; stroke-width: 2; opacity: 0.7;"></path><path transform="translate(470.21276595744683,109.375)" d="M3.933373688251419,0A3.933373688251419,3.933373688251419,0,1,1,-3.933373688251419,0A3.933373688251419,3.933373688251419,0,1,1,3.933373688251419,0" style="fill: #4daf4a; stroke-width: 2; opacity: 0.7;"></path><path transform="translate(484.68085106382983,109.375)" d="M2.2709343577353476,0A2.2709343577353476,2.2709343577353476,0,1,1,-2.2709343577353476,0A2.2709343577353476,2.2709343577353476,0,1,1,2.2709343577353476,0" style="fill: #4daf4a; stroke-width: 2; opacity: 0.7;"></path><path transform="translate(614.8936170212767,109.375)" d="M4.817379251952544,0A4.817379251952544,4.817379251952544,0,1,1,-4.817379251952544,0A4.817379251952544,4.817379251952544,0,1,1,4.817379251952544,0" style="fill: #4daf4a; stroke-width: 2; opacity: 0.7;"></path><path transform="translate(643.8297872340427,109.375)" d="M4.817379251952544,0A4.817379251952544,4.817379251952544,0,1,1,-4.817379251952544,0A4.817379251952544,4.817379251952544,0,1,1,4.817379251952544,0" style="fill: #4daf4a; stroke-width: 2; opacity: 0.7;"></path><path transform="translate(7.2340425531915,390.625)" d="M1.6057930839841814,0A1.6057930839841814,1.6057930839841814,0,1,1,-1.6057930839841814,0A1.6057930839841814,1.6057930839841814,0,1,1,1.6057930839841814,0" style="fill: #4daf4a; stroke-width: 2; opacity: 0.7;"></path><path transform="translate(441.2765957446809,390.625)" d="M1.6057930839841814,0A1.6057930839841814,1.6057930839841814,0,1,1,-1.6057930839841814,0A1.6057930839841814,1.6057930839841814,0,1,1,1.6057930839841814,0" style="fill: #4daf4a; stroke-width: 2; opacity: 0.7;"></path><path transform="translate(137.4468085106383,171.875)" d="M1.6057930839841814,0A1.6057930839841814,1.6057930839841814,0,1,1,-1.6057930839841814,0A1.6057930839841814,1.6057930839841814,0,1,1,1.6057930839841814,0" style="fill: #4daf4a; stroke-width: 2; opacity: 0.7;"></path><path transform="translate(166.38297872340428,171.875)" d="M2.7813152079033197,0A2.7813152079033197,2.7813152079033197,0,1,1,-2.7813152079033197,0A2.7813152079033197,2.7813152079033197,0,1,1,2.7813152079033197,0" style="fill: #4daf4a; stroke-width: 2; opacity: 0.7;"></path><path transform="translate(224.2553191489362,171.875)" d="M1.6057930839841814,0A1.6057930839841814,1.6057930839841814,0,1,1,-1.6057930839841814,0A1.6057930839841814,1.6057930839841814,0,1,1,1.6057930839841814,0" style="fill: #4daf4a; stroke-width: 2; opacity: 0.7;"></path><path transform="translate(470.21276595744683,171.875)" d="M1.6057930839841814,0A1.6057930839841814,1.6057930839841814,0,1,1,-1.6057930839841814,0A1.6057930839841814,1.6057930839841814,0,1,1,1.6057930839841814,0" style="fill: #4daf4a; stroke-width: 2; opacity: 0.7;"></path><path transform="translate(600.4255319148936,171.875)" d="M2.7813152079033197,0A2.7813152079033197,2.7813152079033197,0,1,1,-2.7813152079033197,0A2.7813152079033197,2.7813152079033197,0,1,1,2.7813152079033197,0" style="fill: #4daf4a; stroke-width: 2; opacity: 0.7;"></path><path transform="translate(643.8297872340427,171.875)" d="M1.6057930839841814,0A1.6057930839841814,1.6057930839841814,0,1,1,-1.6057930839841814,0A1.6057930839841814,1.6057930839841814,0,1,1,1.6057930839841814,0" style="fill: #4daf4a; stroke-width: 2; opacity: 0.7;"></path><path transform="translate(50.63829787234044,140.625)" d="M1.6057930839841814,0A1.6057930839841814,1.6057930839841814,0,1,1,-1.6057930839841814,0A1.6057930839841814,1.6057930839841814,0,1,1,1.6057930839841814,0" style="fill: #4daf4a; stroke-width: 2; opacity: 0.7;"></path><path transform="translate(253.19148936170214,140.625)" d="M1.6057930839841814,0A1.6057930839841814,1.6057930839841814,0,1,1,-1.6057930839841814,0A1.6057930839841814,1.6057930839841814,0,1,1,1.6057930839841814,0" style="fill: #4daf4a; stroke-width: 2; opacity: 0.7;"></path><path transform="translate(311.06382978723406,140.625)" d="M1.6057930839841814,0A1.6057930839841814,1.6057930839841814,0,1,1,-1.6057930839841814,0A1.6057930839841814,1.6057930839841814,0,1,1,1.6057930839841814,0" style="fill: #4daf4a; stroke-width: 2; opacity: 0.7;"></path><path transform="translate(383.40425531914894,140.625)" d="M3.5906624935876588,0A3.5906624935876588,3.5906624935876588,0,1,1,-3.5906624935876588,0A3.5906624935876588,3.5906624935876588,0,1,1,3.5906624935876588,0" style="fill: #4daf4a; stroke-width: 2; opacity: 0.7;"></path><path transform="translate(397.87234042553195,140.625)" d="M2.7813152079033197,0A2.7813152079033197,2.7813152079033197,0,1,1,-2.7813152079033197,0A2.7813152079033197,2.7813152079033197,0,1,1,2.7813152079033197,0" style="fill: #4daf4a; stroke-width: 2; opacity: 0.7;"></path><path transform="translate(441.2765957446809,140.625)" d="M2.7813152079033197,0A2.7813152079033197,2.7813152079033197,0,1,1,-2.7813152079033197,0A2.7813152079033197,2.7813152079033197,0,1,1,2.7813152079033197,0" style="fill: #4daf4a; stroke-width: 2; opacity: 0.7;"></path><path transform="translate(455.74468085106383,140.625)" d="M2.7813152079033197,0A2.7813152079033197,2.7813152079033197,0,1,1,-2.7813152079033197,0A2.7813152079033197,2.7813152079033197,0,1,1,2.7813152079033197,0" style="fill: #4daf4a; stroke-width: 2; opacity: 0.7;"></path><path transform="translate(470.21276595744683,140.625)" d="M2.2709343577353476,0A2.2709343577353476,2.2709343577353476,0,1,1,-2.2709343577353476,0A2.2709343577353476,2.2709343577353476,0,1,1,2.2709343577353476,0" style="fill: #4daf4a; stroke-width: 2; opacity: 0.7;"></path><path transform="translate(484.68085106382983,140.625)" d="M2.7813152079033197,0A2.7813152079033197,2.7813152079033197,0,1,1,-2.7813152079033197,0A2.7813152079033197,2.7813152079033197,0,1,1,2.7813152079033197,0" style="fill: #4daf4a; stroke-width: 2; opacity: 0.7;"></path></g><g class="mark-group role-legend"><g transform="translate(698,0)"><path class="background" d="M0,0h37v152h-37Z" style="pointer-events: none; fill: none;"></path><g><g class="mark-group role-legend-entry"><g transform="translate(0,16)"><path class="background" d="M0,0h0v0h0Z" style="pointer-events: none; fill: none;"></path><g><g class="mark-group role-scope"><g transform="translate(0,0)"><path class="background" d="M0,0h36.123046875v10.090662493587658h-36.123046875Z" style="pointer-events: none; fill: none; opacity: 1;"></path><g><g class="mark-symbol role-legend-symbol" style="pointer-events: none;"><path transform="translate(10.5,5)" d="M3.5906624935876588,0A3.5906624935876588,3.5906624935876588,0,1,1,-3.5906624935876588,0A3.5906624935876588,3.5906624935876588,0,1,1,3.5906624935876588,0" style="fill: #4daf4a; stroke: none; stroke-width: 1.5; opacity: 0.7;"></path></g><g class="mark-text role-legend-label" style="pointer-events: none;"><text text-anchor="start" transform="translate(25,8)" style="font-family: sans-serif; font-size: 10px; fill: #000; opacity: 1;">5</text></g></g><path class="foreground" d="" style="pointer-events: none; display: none; fill: none;"></path></g><g transform="translate(0,14)"><path class="background" d="M0,0h36.123046875v12.577963596336062h-36.123046875Z" style="pointer-events: none; fill: none; opacity: 1;"></path><g><g class="mark-symbol role-legend-symbol" style="pointer-events: none;"><path transform="translate(10.5,6)" d="M5.077963596336064,0A5.077963596336064,5.077963596336064,0,1,1,-5.077963596336064,0A5.077963596336064,5.077963596336064,0,1,1,5.077963596336064,0" style="fill: #4daf4a; stroke: none; stroke-width: 1.5; opacity: 0.7;"></path></g><g class="mark-text role-legend-label" style="pointer-events: none;"><text text-anchor="start" transform="translate(25,9)" style="font-family: sans-serif; font-size: 10px; fill: #000; opacity: 1;">10</text></g></g><path class="foreground" d="" style="pointer-events: none; display: none; fill: none;"></path></g><g transform="translate(0,30)"><path class="background" d="M0,0h36.123046875v14.71920987172578h-36.123046875Z" style="pointer-events: none; fill: none; opacity: 1;"></path><g><g class="mark-symbol role-legend-symbol" style="pointer-events: none;"><path transform="translate(10.5,7)" d="M6.219209871725782,0A6.219209871725782,6.219209871725782,0,1,1,-6.219209871725782,0A6.219209871725782,6.219209871725782,0,1,1,6.219209871725782,0" style="fill: #4daf4a; stroke: none; stroke-width: 1.5; opacity: 0.7;"></path></g><g class="mark-text role-legend-label" style="pointer-events: none;"><text text-anchor="start" transform="translate(25,10)" style="font-family: sans-serif; font-size: 10px; fill: #000; opacity: 1;">15</text></g></g><path class="foreground" d="" style="pointer-events: none; display: none; fill: none;"></path></g><g transform="translate(0,48)"><path class="background" d="M0,0h36.123046875v16.681324987175316h-36.123046875Z" style="pointer-events: none; fill: none; opacity: 1;"></path><g><g class="mark-symbol role-legend-symbol" style="pointer-events: none;"><path transform="translate(10.5,8)" d="M7.1813249871753175,0A7.1813249871753175,7.1813249871753175,0,1,1,-7.1813249871753175,0A7.1813249871753175,7.1813249871753175,0,1,1,7.1813249871753175,0" style="fill: #4daf4a; stroke: none; stroke-width: 1.5; opacity: 0.7;"></path></g><g class="mark-text role-legend-label" style="pointer-events: none;"><text text-anchor="start" transform="translate(25,11)" style="font-family: sans-serif; font-size: 10px; fill: #000; opacity: 1;">20</text></g></g><path class="foreground" d="" style="pointer-events: none; display: none; fill: none;"></path></g><g transform="translate(0,68)"><path class="background" d="M0,0h36.123046875v18.528965419920908h-36.123046875Z" style="pointer-events: none; fill: none; opacity: 1;"></path><g><g class="mark-symbol role-legend-symbol" style="pointer-events: none;"><path transform="translate(10.5,9)" d="M8.028965419920908,0A8.028965419920908,8.028965419920908,0,1,1,-8.028965419920908,0A8.028965419920908,8.028965419920908,0,1,1,8.028965419920908,0" style="fill: #4daf4a; stroke: none; stroke-width: 1.5; opacity: 0.7;"></path></g><g class="mark-text role-legend-label" style="pointer-events: none;"><text text-anchor="start" transform="translate(25,12)" style="font-family: sans-serif; font-size: 10px; fill: #000; opacity: 1;">25</text></g></g><path class="foreground" d="" style="pointer-events: none; display: none; fill: none;"></path></g><g transform="translate(0,90)"><path class="background" d="M0,0h36.123046875v20.295290947839234h-36.123046875Z" style="pointer-events: none; fill: none; opacity: 1;"></path><g><g class="mark-symbol role-legend-symbol" style="pointer-events: none;"><path transform="translate(10.5,10)" d="M8.795290947839238,0A8.795290947839238,8.795290947839238,0,1,1,-8.795290947839238,0A8.795290947839238,8.795290947839238,0,1,1,8.795290947839238,0" style="fill: #4daf4a; stroke: none; stroke-width: 1.5; opacity: 0.7;"></path></g><g class="mark-text role-legend-label" style="pointer-events: none;"><text text-anchor="start" transform="translate(25,13)" style="font-family: sans-serif; font-size: 10px; fill: #000; opacity: 1;">30</text></g></g><path class="foreground" d="" style="pointer-events: none; display: none; fill: none;"></path></g><g transform="translate(0,114)"><path class="background" d="M0,0h36.123046875v21.5h-36.123046875Z" style="pointer-events: none; fill: none; opacity: 1;"></path><g><g class="mark-symbol role-legend-symbol" style="pointer-events: none;"><path transform="translate(10.5,10.5)" d="M9.5,0A9.5,9.5,0,1,1,-9.5,0A9.5,9.5,0,1,1,9.5,0" style="fill: #4daf4a; stroke: none; stroke-width: 1.5; opacity: 0.7;"></path></g><g class="mark-text role-legend-label" style="pointer-events: none;"><text text-anchor="start" transform="translate(25,13.5)" style="font-family: sans-serif; font-size: 10px; fill: #000; opacity: 1;">35</text></g></g><path class="foreground" d="" style="pointer-events: none; display: none; fill: none;"></path></g></g></g><path class="foreground" d="" style="pointer-events: none; display: none; fill: none;"></path></g></g><g class="mark-text role-legend-title" style="pointer-events: none;"><text text-anchor="start" transform="translate(0,9)" style="font-family: sans-serif; font-size: 11px; font-weight: bold; fill: #000; opacity: 1;">count</text></g></g><path class="foreground" d="" style="pointer-events: none; display: none; fill: none;"></path></g></g><g class="mark-group role-title"><g transform="translate(340,-17)"><path class="background" d="M0,0h0v0h0Z" style="pointer-events: none; fill: none;"></path><g><g class="mark-text role-title-text" style="pointer-events: none;"><text text-anchor="middle" transform="translate(0,10)" style="font-family: sans-serif; font-size: 13px; font-weight: bold; fill: #000; opacity: 1;">Number of Paratipo of each order per year</text></g></g><path class="foreground" d="" style="pointer-events: none; display: none; fill: none;"></path></g></g><g class="mark-group role-axis"><g transform="translate(0.5,500.5)"><path class="background" d="M0,0h0v0h0Z" style="pointer-events: none; fill: none;"></path><g><g class="mark-rule role-axis-tick" style="pointer-events: none;"><line transform="translate(7,0)" x2="0" y2="5" style="fill: none; stroke: #888; stroke-width: 1; opacity: 1;"></line><line transform="translate(22,0)" x2="0" y2="5" style="fill: none; stroke: #888; stroke-width: 1; opacity: 1;"></line><line transform="translate(36,0)" x2="0" y2="5" style="fill: none; stroke: #888; stroke-width: 1; opacity: 1;"></line><line transform="translate(51,0)" x2="0" y2="5" style="fill: none; stroke: #888; stroke-width: 1; opacity: 1;"></line><line transform="translate(65,0)" x2="0" y2="5" style="fill: none; stroke: #888; stroke-width: 1; opacity: 1;"></line><line transform="translate(80,0)" x2="0" y2="5" style="fill: none; stroke: #888; stroke-width: 1; opacity: 1;"></line><line transform="translate(94,0)" x2="0" y2="5" style="fill: none; stroke: #888; stroke-width: 1; opacity: 1;"></line><line transform="translate(109,0)" x2="0" y2="5" style="fill: none; stroke: #888; stroke-width: 1; opacity: 1;"></line><line transform="translate(123,0)" x2="0" y2="5" style="fill: none; stroke: #888; stroke-width: 1; opacity: 1;"></line><line transform="translate(137,0)" x2="0" y2="5" style="fill: none; stroke: #888; stroke-width: 1; opacity: 1;"></line><line transform="translate(152,0)" x2="0" y2="5" style="fill: none; stroke: #888; stroke-width: 1; opacity: 1;"></line><line transform="translate(166,0)" x2="0" y2="5" style="fill: none; stroke: #888; stroke-width: 1; opacity: 1;"></line><line transform="translate(181,0)" x2="0" y2="5" style="fill: none; stroke: #888; stroke-width: 1; opacity: 1;"></line><line transform="translate(195,0)" x2="0" y2="5" style="fill: none; stroke: #888; stroke-width: 1; opacity: 1;"></line><line transform="translate(210,0)" x2="0" y2="5" style="fill: none; stroke: #888; stroke-width: 1; opacity: 1;"></line><line transform="translate(224,0)" x2="0" y2="5" style="fill: none; stroke: #888; stroke-width: 1; opacity: 1;"></line><line transform="translate(239,0)" x2="0" y2="5" style="fill: none; stroke: #888; stroke-width: 1; opacity: 1;"></line><line transform="translate(253,0)" x2="0" y2="5" style="fill: none; stroke: #888; stroke-width: 1; opacity: 1;"></line><line transform="translate(268,0)" x2="0" y2="5" style="fill: none; stroke: #888; stroke-width: 1; opacity: 1;"></line><line transform="translate(282,0)" x2="0" y2="5" style="fill: none; stroke: #888; stroke-width: 1; opacity: 1;"></line><line transform="translate(297,0)" x2="0" y2="5" style="fill: none; stroke: #888; stroke-width: 1; opacity: 1;"></line><line transform="translate(311,0)" x2="0" y2="5" style="fill: none; stroke: #888; stroke-width: 1; opacity: 1;"></line><line transform="translate(326,0)" x2="0" y2="5" style="fill: none; stroke: #888; stroke-width: 1; opacity: 1;"></line><line transform="translate(340,0)" x2="0" y2="5" style="fill: none; stroke: #888; stroke-width: 1; opacity: 1;"></line><line transform="translate(354,0)" x2="0" y2="5" style="fill: none; stroke: #888; stroke-width: 1; opacity: 1;"></line><line transform="translate(369,0)" x2="0" y2="5" style="fill: none; stroke: #888; stroke-width: 1; opacity: 1;"></line><line transform="translate(383,0)" x2="0" y2="5" style="fill: none; stroke: #888; stroke-width: 1; opacity: 1;"></line><line transform="translate(398,0)" x2="0" y2="5" style="fill: none; stroke: #888; stroke-width: 1; opacity: 1;"></line><line transform="translate(412,0)" x2="0" y2="5" style="fill: none; stroke: #888; stroke-width: 1; opacity: 1;"></line><line transform="translate(427,0)" x2="0" y2="5" style="fill: none; stroke: #888; stroke-width: 1; opacity: 1;"></line><line transform="translate(441,0)" x2="0" y2="5" style="fill: none; stroke: #888; stroke-width: 1; opacity: 1;"></line><line transform="translate(456,0)" x2="0" y2="5" style="fill: none; stroke: #888; stroke-width: 1; opacity: 1;"></line><line transform="translate(470,0)" x2="0" y2="5" style="fill: none; stroke: #888; stroke-width: 1; opacity: 1;"></line><line transform="translate(485,0)" x2="0" y2="5" style="fill: none; stroke: #888; stroke-width: 1; opacity: 1;"></line><line transform="translate(499,0)" x2="0" y2="5" style="fill: none; stroke: #888; stroke-width: 1; opacity: 1;"></line><line transform="translate(514,0)" x2="0" y2="5" style="fill: none; stroke: #888; stroke-width: 1; opacity: 1;"></line><line transform="translate(528,0)" x2="0" y2="5" style="fill: none; stroke: #888; stroke-width: 1; opacity: 1;"></line><line transform="translate(543,0)" x2="0" y2="5" style="fill: none; stroke: #888; stroke-width: 1; opacity: 1;"></line><line transform="translate(557,0)" x2="0" y2="5" style="fill: none; stroke: #888; stroke-width: 1; opacity: 1;"></line><line transform="translate(571,0)" x2="0" y2="5" style="fill: none; stroke: #888; stroke-width: 1; opacity: 1;"></line><line transform="translate(586,0)" x2="0" y2="5" style="fill: none; stroke: #888; stroke-width: 1; opacity: 1;"></line><line transform="translate(600,0)" x2="0" y2="5" style="fill: none; stroke: #888; stroke-width: 1; opacity: 1;"></line><line transform="translate(615,0)" x2="0" y2="5" style="fill: none; stroke: #888; stroke-width: 1; opacity: 1;"></line><line transform="translate(629,0)" x2="0" y2="5" style="fill: none; stroke: #888; stroke-width: 1; opacity: 1;"></line><line transform="translate(644,0)" x2="0" y2="5" style="fill: none; stroke: #888; stroke-width: 1; opacity: 1;"></line><line transform="translate(658,0)" x2="0" y2="5" style="fill: none; stroke: #888; stroke-width: 1; opacity: 1;"></line><line transform="translate(673,0)" x2="0" y2="5" style="fill: none; stroke: #888; stroke-width: 1; opacity: 1;"></line></g><g class="mark-text role-axis-label" style="pointer-events: none;"><text text-anchor="end" transform="translate(7.2340425531915,7) rotate(270) translate(0,3)" style="font-family: sans-serif; font-size: 10px; fill: #000; opacity: 1;">1903</text><text text-anchor="end" transform="translate(21.70212765957448,7) rotate(270) translate(0,3)" style="font-family: sans-serif; font-size: 10px; fill: #000; opacity: 1;">1955</text><text text-anchor="end" transform="translate(36.17021276595746,7) rotate(270) translate(0,3)" style="font-family: sans-serif; font-size: 10px; fill: #000; opacity: 1;">1958</text><text text-anchor="end" transform="translate(50.63829787234044,7) rotate(270) translate(0,3)" style="font-family: sans-serif; font-size: 10px; fill: #000; opacity: 1;">1960</text><text text-anchor="end" transform="translate(65.10638297872342,7) rotate(270) translate(0,3)" style="font-family: sans-serif; font-size: 10px; fill: #000; opacity: 1;">1965</text><text text-anchor="end" transform="translate(79.57446808510639,7) rotate(270) translate(0,3)" style="font-family: sans-serif; font-size: 10px; fill: #000; opacity: 1;">1966</text><text text-anchor="end" transform="translate(94.04255319148938,7) rotate(270) translate(0,3)" style="font-family: sans-serif; font-size: 10px; fill: #000; opacity: 1;">1967</text><text text-anchor="end" transform="translate(108.51063829787236,7) rotate(270) translate(0,3)" style="font-family: sans-serif; font-size: 10px; fill: #000; opacity: 1;">1968</text><text text-anchor="end" transform="translate(122.97872340425533,7) rotate(270) translate(0,3)" style="font-family: sans-serif; font-size: 10px; fill: #000; opacity: 1;">1969</text><text text-anchor="end" transform="translate(137.4468085106383,7) rotate(270) translate(0,3)" style="font-family: sans-serif; font-size: 10px; fill: #000; opacity: 1;">1971</text><text text-anchor="end" transform="translate(151.91489361702128,7) rotate(270) translate(0,3)" style="font-family: sans-serif; font-size: 10px; fill: #000; opacity: 1;">1972</text><text text-anchor="end" transform="translate(166.38297872340428,7) rotate(270) translate(0,3)" style="font-family: sans-serif; font-size: 10px; fill: #000; opacity: 1;">1973</text><text text-anchor="end" transform="translate(180.85106382978725,7) rotate(270) translate(0,3)" style="font-family: sans-serif; font-size: 10px; fill: #000; opacity: 1;">1975</text><text text-anchor="end" transform="translate(195.31914893617022,7) rotate(270) translate(0,3)" style="font-family: sans-serif; font-size: 10px; fill: #000; opacity: 1;">1978</text><text text-anchor="end" transform="translate(209.78723404255322,7) rotate(270) translate(0,3)" style="font-family: sans-serif; font-size: 10px; fill: #000; opacity: 1;">1979</text><text text-anchor="end" transform="translate(224.2553191489362,7) rotate(270) translate(0,3)" style="font-family: sans-serif; font-size: 10px; fill: #000; opacity: 1;">1980</text><text text-anchor="end" transform="translate(238.72340425531917,7) rotate(270) translate(0,3)" style="font-family: sans-serif; font-size: 10px; fill: #000; opacity: 1;">1981</text><text text-anchor="end" transform="translate(253.19148936170214,7) rotate(270) translate(0,3)" style="font-family: sans-serif; font-size: 10px; fill: #000; opacity: 1;">1986</text><text text-anchor="end" transform="translate(267.6595744680851,7) rotate(270) translate(0,3)" style="font-family: sans-serif; font-size: 10px; fill: #000; opacity: 1;">1987</text><text text-anchor="end" transform="translate(282.1276595744681,7) rotate(270) translate(0,3)" style="font-family: sans-serif; font-size: 10px; fill: #000; opacity: 1;">1988</text><text text-anchor="end" transform="translate(296.59574468085106,7) rotate(270) translate(0,3)" style="font-family: sans-serif; font-size: 10px; fill: #000; opacity: 1;">1989</text><text text-anchor="end" transform="translate(311.06382978723406,7) rotate(270) translate(0,3)" style="font-family: sans-serif; font-size: 10px; fill: #000; opacity: 1;">1991</text><text text-anchor="end" transform="translate(325.53191489361706,7) rotate(270) translate(0,3)" style="font-family: sans-serif; font-size: 10px; fill: #000; opacity: 1;">1992</text><text text-anchor="end" transform="translate(340,7) rotate(270) translate(0,3)" style="font-family: sans-serif; font-size: 10px; fill: #000; opacity: 1;">1993</text><text text-anchor="end" transform="translate(354.468085106383,7) rotate(270) translate(0,3)" style="font-family: sans-serif; font-size: 10px; fill: #000; opacity: 1;">1994</text><text text-anchor="end" transform="translate(368.936170212766,7) rotate(270) translate(0,3)" style="font-family: sans-serif; font-size: 10px; fill: #000; opacity: 1;">1995</text><text text-anchor="end" transform="translate(383.40425531914894,7) rotate(270) translate(0,3)" style="font-family: sans-serif; font-size: 10px; fill: #000; opacity: 1;">1996</text><text text-anchor="end" transform="translate(397.87234042553195,7) rotate(270) translate(0,3)" style="font-family: sans-serif; font-size: 10px; fill: #000; opacity: 1;">1997</text><text text-anchor="end" transform="translate(412.34042553191495,7) rotate(270) translate(0,3)" style="font-family: sans-serif; font-size: 10px; fill: #000; opacity: 1;">1998</text><text text-anchor="end" transform="translate(426.8085106382979,7) rotate(270) translate(0,3)" style="font-family: sans-serif; font-size: 10px; fill: #000; opacity: 1;">1999</text><text text-anchor="end" transform="translate(441.2765957446809,7) rotate(270) translate(0,3)" style="font-family: sans-serif; font-size: 10px; fill: #000; opacity: 1;">2000</text><text text-anchor="end" transform="translate(455.74468085106383,7) rotate(270) translate(0,3)" style="font-family: sans-serif; font-size: 10px; fill: #000; opacity: 1;">2001</text><text text-anchor="end" transform="translate(470.21276595744683,7) rotate(270) translate(0,3)" style="font-family: sans-serif; font-size: 10px; fill: #000; opacity: 1;">2002</text><text text-anchor="end" transform="translate(484.68085106382983,7) rotate(270) translate(0,3)" style="font-family: sans-serif; font-size: 10px; fill: #000; opacity: 1;">2003</text><text text-anchor="end" transform="translate(499.1489361702128,7) rotate(270) translate(0,3)" style="font-family: sans-serif; font-size: 10px; fill: #000; opacity: 1;">2005</text><text text-anchor="end" transform="translate(513.6170212765958,7) rotate(270) translate(0,3)" style="font-family: sans-serif; font-size: 10px; fill: #000; opacity: 1;">2006</text><text text-anchor="end" transform="translate(528.0851063829787,7) rotate(270) translate(0,3)" style="font-family: sans-serif; font-size: 10px; fill: #000; opacity: 1;">2007</text><text text-anchor="end" transform="translate(542.5531914893618,7) rotate(270) translate(0,3)" style="font-family: sans-serif; font-size: 10px; fill: #000; opacity: 1;">2008</text><text text-anchor="end" transform="translate(557.0212765957447,7) rotate(270) translate(0,3)" style="font-family: sans-serif; font-size: 10px; fill: #000; opacity: 1;">2009</text><text text-anchor="end" transform="translate(571.4893617021278,7) rotate(270) translate(0,3)" style="font-family: sans-serif; font-size: 10px; fill: #000; opacity: 1;">2010</text><text text-anchor="end" transform="translate(585.9574468085107,7) rotate(270) translate(0,3)" style="font-family: sans-serif; font-size: 10px; fill: #000; opacity: 1;">2011</text><text text-anchor="end" transform="translate(600.4255319148936,7) rotate(270) translate(0,3)" style="font-family: sans-serif; font-size: 10px; fill: #000; opacity: 1;">2012</text><text text-anchor="end" transform="translate(614.8936170212767,7) rotate(270) translate(0,3)" style="font-family: sans-serif; font-size: 10px; fill: #000; opacity: 1;">2013</text><text text-anchor="end" transform="translate(629.3617021276596,7) rotate(270) translate(0,3)" style="font-family: sans-serif; font-size: 10px; fill: #000; opacity: 1;">2014</text><text text-anchor="end" transform="translate(643.8297872340427,7) rotate(270) translate(0,3)" style="font-family: sans-serif; font-size: 10px; fill: #000; opacity: 1;">2015</text><text text-anchor="end" transform="translate(658.2978723404256,7) rotate(270) translate(0,3)" style="font-family: sans-serif; font-size: 10px; fill: #000; opacity: 1;">2016</text><text text-anchor="end" transform="translate(672.7659574468084,7) rotate(270) translate(0,3)" style="font-family: sans-serif; font-size: 10px; fill: #000; opacity: 1;">2017</text></g><g class="mark-rule role-axis-domain" style="pointer-events: none;"><line transform="translate(0,0)" x2="680" y2="0" style="fill: none; stroke: #888; stroke-width: 1; opacity: 1;"></line></g><g class="mark-text role-axis-title" style="pointer-events: none;"><text text-anchor="middle" transform="translate(340,42.24609375)" style="font-family: sans-serif; font-size: 11px; font-weight: bold; fill: #000; opacity: 1;">Year</text></g></g><path class="foreground" d="" style="pointer-events: none; display: none; fill: none;"></path></g></g><g class="mark-group role-axis"><g transform="translate(0.5,0.5)"><path class="background" d="M0,0h0v0h0Z" style="pointer-events: none; fill: none;"></path><g><g class="mark-rule role-axis-tick" style="pointer-events: none;"><line transform="translate(0,16)" x2="-5" y2="0" style="fill: none; stroke: #888; stroke-width: 1; opacity: 1;"></line><line transform="translate(0,47)" x2="-5" y2="0" style="fill: none; stroke: #888; stroke-width: 1; opacity: 1;"></line><line transform="translate(0,78)" x2="-5" y2="0" style="fill: none; stroke: #888; stroke-width: 1; opacity: 1;"></line><line transform="translate(0,109)" x2="-5" y2="0" style="fill: none; stroke: #888; stroke-width: 1; opacity: 1;"></line><line transform="translate(0,141)" x2="-5" y2="0" style="fill: none; stroke: #888; stroke-width: 1; opacity: 1;"></line><line transform="translate(0,172)" x2="-5" y2="0" style="fill: none; stroke: #888; stroke-width: 1; opacity: 1;"></line><line transform="translate(0,203)" x2="-5" y2="0" style="fill: none; stroke: #888; stroke-width: 1; opacity: 1;"></line><line transform="translate(0,234)" x2="-5" y2="0" style="fill: none; stroke: #888; stroke-width: 1; opacity: 1;"></line><line transform="translate(0,266)" x2="-5" y2="0" style="fill: none; stroke: #888; stroke-width: 1; opacity: 1;"></line><line transform="translate(0,297)" x2="-5" y2="0" style="fill: none; stroke: #888; stroke-width: 1; opacity: 1;"></line><line transform="translate(0,328)" x2="-5" y2="0" style="fill: none; stroke: #888; stroke-width: 1; opacity: 1;"></line><line transform="translate(0,359)" x2="-5" y2="0" style="fill: none; stroke: #888; stroke-width: 1; opacity: 1;"></line><line transform="translate(0,391)" x2="-5" y2="0" style="fill: none; stroke: #888; stroke-width: 1; opacity: 1;"></line><line transform="translate(0,422)" x2="-5" y2="0" style="fill: none; stroke: #888; stroke-width: 1; opacity: 1;"></line><line transform="translate(0,453)" x2="-5" y2="0" style="fill: none; stroke: #888; stroke-width: 1; opacity: 1;"></line><line transform="translate(0,484)" x2="-5" y2="0" style="fill: none; stroke: #888; stroke-width: 1; opacity: 1;"></line></g><g class="mark-text role-axis-label" style="pointer-events: none;"><text text-anchor="end" transform="translate(-7,18.625)" style="font-family: sans-serif; font-size: 10px; fill: #000; opacity: 1;">Decapoda</text><text text-anchor="end" transform="translate(-7,49.875)" style="font-family: sans-serif; font-size: 10px; fill: #000; opacity: 1;">Isopoda</text><text text-anchor="end" transform="translate(-7,81.125)" style="font-family: sans-serif; font-size: 10px; fill: #000; opacity: 1;">Amphipoda</text><text text-anchor="end" transform="translate(-7,112.375)" style="font-family: sans-serif; font-size: 10px; fill: #000; opacity: 1;">Siphonostomatoida</text><text text-anchor="end" transform="translate(-7,143.625)" style="font-family: sans-serif; font-size: 10px; fill: #000; opacity: 1;">Thoracica</text><text text-anchor="end" transform="translate(-7,174.875)" style="font-family: sans-serif; font-size: 10px; fill: #000; opacity: 1;">Tanaidacea</text><text text-anchor="end" transform="translate(-7,206.125)" style="font-family: sans-serif; font-size: 10px; fill: #000; opacity: 1;">Podocopida</text><text text-anchor="end" transform="translate(-7,237.375)" style="font-family: sans-serif; font-size: 10px; fill: #000; opacity: 1;">Anostraca</text><text text-anchor="end" transform="translate(-7,268.625)" style="font-family: sans-serif; font-size: 10px; fill: #000; opacity: 1;">Cyclopoida</text><text text-anchor="end" transform="translate(-7,299.875)" style="font-family: sans-serif; font-size: 10px; fill: #000; opacity: 1;">Poecilostomatoida</text><text text-anchor="end" transform="translate(-7,331.125)" style="font-family: sans-serif; font-size: 10px; fill: #000; opacity: 1;">Cumacea</text><text text-anchor="end" transform="translate(-7,362.375)" style="font-family: sans-serif; font-size: 10px; fill: #000; opacity: 1;">Monstrilloida</text><text text-anchor="end" transform="translate(-7,393.625)" style="font-family: sans-serif; font-size: 10px; fill: #000; opacity: 1;">Stomatopoda</text><text text-anchor="end" transform="translate(-7,424.875)" style="font-family: sans-serif; font-size: 10px; fill: #000; opacity: 1;">Anomopoda</text><text text-anchor="end" transform="translate(-7,456.125)" style="font-family: sans-serif; font-size: 10px; fill: #000; opacity: 1;">Arguloida</text><text text-anchor="end" transform="translate(-7,487.375)" style="font-family: sans-serif; font-size: 10px; fill: #000; opacity: 1;">Brachypoda</text></g><g class="mark-rule role-axis-domain" style="pointer-events: none;"><line transform="translate(0,0)" x2="0" y2="500" style="fill: none; stroke: #888; stroke-width: 1; opacity: 1;"></line></g><g class="mark-text role-axis-title" style="pointer-events: none;"><text text-anchor="middle" transform="translate(-96.615234375,250) rotate(-90) translate(0,-2)" style="font-family: sans-serif; font-size: 11px; font-weight: bold; fill: #000; opacity: 1;">Order</text></g></g><path class="foreground" d="" style="pointer-events: none; display: none; fill: none;"></path></g></g></g><path class="foreground" d="" style="display: none; fill: none;"></path></g></g></g></svg>