<?xml version="1.0" encoding="utf-8" standalone="no"?>
<!DOCTYPE svg PUBLIC "-//W3C//DTD SVG 1.1//EN"
  "http://www.w3.org/Graphics/SVG/1.1/DTD/svg11.dtd">
<!-- Created with matplotlib (https://matplotlib.org/) -->
<svg height="432pt" version="1.1" viewBox="0 0 720 432" width="720pt" xmlns="http://www.w3.org/2000/svg" xmlns:xlink="http://www.w3.org/1999/xlink">
 <metadata>
  <rdf:RDF xmlns:cc="http://creativecommons.org/ns#" xmlns:dc="http://purl.org/dc/elements/1.1/" xmlns:rdf="http://www.w3.org/1999/02/22-rdf-syntax-ns#">
   <cc:Work>
    <dc:type rdf:resource="http://purl.org/dc/dcmitype/StillImage"/>
    <dc:date>2021-02-08T12:53:39.738514</dc:date>
    <dc:format>image/svg+xml</dc:format>
    <dc:creator>
     <cc:Agent>
      <dc:title>Matplotlib v3.3.3, https://matplotlib.org/</dc:title>
     </cc:Agent>
    </dc:creator>
   </cc:Work>
  </rdf:RDF>
 </metadata>
 <defs>
  <style type="text/css">*{stroke-linecap:butt;stroke-linejoin:round;}</style>
 </defs>
 <g id="figure_1">
  <g id="patch_1">
   <path d="M 0 432 
L 720 432 
L 720 0 
L 0 0 
z
" style="fill:none;"/>
  </g>
  <g id="axes_1">
   <g id="patch_2">
    <path clip-path="url(#p5abe3ae44a)" d="M 10.8 421.2 
L 43.783316 421.2 
L 43.783316 388.216684 
L 10.8 388.216684 
z
" style="fill:#284021;stroke:#284021;stroke-linejoin:miter;"/>
   </g>
   <g id="patch_3">
    <path clip-path="url(#p5abe3ae44a)" d="M 50.379979 421.2 
L 83.363294 421.2 
L 83.363294 388.216684 
L 50.379979 388.216684 
z
" style="fill:#d9cb0b;stroke:#d9cb0b;stroke-linejoin:miter;"/>
   </g>
   <g id="patch_4">
    <path clip-path="url(#p5abe3ae44a)" d="M 89.959958 421.2 
L 122.943273 421.2 
L 122.943273 388.216684 
L 89.959958 388.216684 
z
" style="fill:#d9cb0b;stroke:#d9cb0b;stroke-linejoin:miter;"/>
   </g>
   <g id="patch_5">
    <path clip-path="url(#p5abe3ae44a)" d="M 129.539936 421.2 
L 162.523252 421.2 
L 162.523252 388.216684 
L 129.539936 388.216684 
z
" style="fill:#d9cb0b;stroke:#d9cb0b;stroke-linejoin:miter;"/>
   </g>
   <g id="patch_6">
    <path clip-path="url(#p5abe3ae44a)" d="M 169.119915 421.2 
L 202.103231 421.2 
L 202.103231 388.216684 
L 169.119915 388.216684 
z
" style="fill:#d9cb0b;stroke:#d9cb0b;stroke-linejoin:miter;"/>
   </g>
   <g id="patch_7">
    <path clip-path="url(#p5abe3ae44a)" d="M 208.699894 421.2 
L 241.68321 421.2 
L 241.68321 388.216684 
L 208.699894 388.216684 
z
" style="fill:#bf4417;stroke:#bf4417;stroke-linejoin:miter;"/>
   </g>
   <g id="patch_8">
    <path clip-path="url(#p5abe3ae44a)" d="M 248.279873 421.2 
L 281.263189 421.2 
L 281.263189 388.216684 
L 248.279873 388.216684 
z
" style="fill:#bf4417;stroke:#bf4417;stroke-linejoin:miter;"/>
   </g>
   <g id="patch_9">
    <path clip-path="url(#p5abe3ae44a)" d="M 287.859852 421.2 
L 320.843167 421.2 
L 320.843167 388.216684 
L 287.859852 388.216684 
z
" style="fill:#bf4417;stroke:#bf4417;stroke-linejoin:miter;"/>
   </g>
   <g id="patch_10">
    <path clip-path="url(#p5abe3ae44a)" d="M 327.439831 421.2 
L 360.423146 421.2 
L 360.423146 388.216684 
L 327.439831 388.216684 
z
" style="fill:#bf4417;stroke:#bf4417;stroke-linejoin:miter;"/>
   </g>
   <g id="patch_11">
    <path clip-path="url(#p5abe3ae44a)" d="M 367.019809 421.2 
L 400.003125 421.2 
L 400.003125 388.216684 
L 367.019809 388.216684 
z
" style="fill:#bf4417;stroke:#bf4417;stroke-linejoin:miter;"/>
   </g>
   <g id="patch_12">
    <path clip-path="url(#p5abe3ae44a)" d="M 10.8 381.620021 
L 43.783316 381.620021 
L 43.783316 348.636706 
L 10.8 348.636706 
z
" style="fill:#bf4417;stroke:#bf4417;stroke-linejoin:miter;"/>
   </g>
   <g id="patch_13">
    <path clip-path="url(#p5abe3ae44a)" d="M 50.379979 381.620021 
L 83.363294 381.620021 
L 83.363294 348.636706 
L 50.379979 348.636706 
z
" style="fill:#bf4417;stroke:#bf4417;stroke-linejoin:miter;"/>
   </g>
   <g id="patch_14">
    <path clip-path="url(#p5abe3ae44a)" d="M 89.959958 381.620021 
L 122.943273 381.620021 
L 122.943273 348.636706 
L 89.959958 348.636706 
z
" style="fill:#bf4417;stroke:#bf4417;stroke-linejoin:miter;"/>
   </g>
   <g id="patch_15">
    <path clip-path="url(#p5abe3ae44a)" d="M 129.539936 381.620021 
L 162.523252 381.620021 
L 162.523252 348.636706 
L 129.539936 348.636706 
z
" style="fill:#bf4417;stroke:#bf4417;stroke-linejoin:miter;"/>
   </g>
   <g id="patch_16">
    <path clip-path="url(#p5abe3ae44a)" d="M 169.119915 381.620021 
L 202.103231 381.620021 
L 202.103231 348.636706 
L 169.119915 348.636706 
z
" style="fill:#bf4417;stroke:#bf4417;stroke-linejoin:miter;"/>
   </g>
   <g id="patch_17">
    <path clip-path="url(#p5abe3ae44a)" d="M 208.699894 381.620021 
L 241.68321 381.620021 
L 241.68321 348.636706 
L 208.699894 348.636706 
z
" style="fill:#bf4417;stroke:#bf4417;stroke-linejoin:miter;"/>
   </g>
   <g id="patch_18">
    <path clip-path="url(#p5abe3ae44a)" d="M 248.279873 381.620021 
L 281.263189 381.620021 
L 281.263189 348.636706 
L 248.279873 348.636706 
z
" style="fill:#bf4417;stroke:#bf4417;stroke-linejoin:miter;"/>
   </g>
   <g id="patch_19">
    <path clip-path="url(#p5abe3ae44a)" d="M 287.859852 381.620021 
L 320.843167 381.620021 
L 320.843167 348.636706 
L 287.859852 348.636706 
z
" style="fill:#bf4417;stroke:#bf4417;stroke-linejoin:miter;"/>
   </g>
   <g id="patch_20">
    <path clip-path="url(#p5abe3ae44a)" d="M 327.439831 381.620021 
L 360.423146 381.620021 
L 360.423146 348.636706 
L 327.439831 348.636706 
z
" style="fill:#bf4417;stroke:#bf4417;stroke-linejoin:miter;"/>
   </g>
   <g id="patch_21">
    <path clip-path="url(#p5abe3ae44a)" d="M 367.019809 381.620021 
L 400.003125 381.620021 
L 400.003125 348.636706 
L 367.019809 348.636706 
z
" style="fill:#bf4417;stroke:#bf4417;stroke-linejoin:miter;"/>
   </g>
   <g id="patch_22">
    <path clip-path="url(#p5abe3ae44a)" d="M 10.8 342.040042 
L 43.783316 342.040042 
L 43.783316 309.056727 
L 10.8 309.056727 
z
" style="fill:#bf4417;stroke:#bf4417;stroke-linejoin:miter;"/>
   </g>
   <g id="patch_23">
    <path clip-path="url(#p5abe3ae44a)" d="M 50.379979 342.040042 
L 83.363294 342.040042 
L 83.363294 309.056727 
L 50.379979 309.056727 
z
" style="fill:#bf4417;stroke:#bf4417;stroke-linejoin:miter;"/>
   </g>
   <g id="patch_24">
    <path clip-path="url(#p5abe3ae44a)" d="M 89.959958 342.040042 
L 122.943273 342.040042 
L 122.943273 309.056727 
L 89.959958 309.056727 
z
" style="fill:#bf4417;stroke:#bf4417;stroke-linejoin:miter;"/>
   </g>
   <g id="patch_25">
    <path clip-path="url(#p5abe3ae44a)" d="M 129.539936 342.040042 
L 162.523252 342.040042 
L 162.523252 309.056727 
L 129.539936 309.056727 
z
" style="fill:#bf4417;stroke:#bf4417;stroke-linejoin:miter;"/>
   </g>
   <g id="patch_26">
    <path clip-path="url(#p5abe3ae44a)" d="M 169.119915 342.040042 
L 202.103231 342.040042 
L 202.103231 309.056727 
L 169.119915 309.056727 
z
" style="fill:#bf4417;stroke:#bf4417;stroke-linejoin:miter;"/>
   </g>
   <g id="patch_27">
    <path clip-path="url(#p5abe3ae44a)" d="M 208.699894 342.040042 
L 241.68321 342.040042 
L 241.68321 309.056727 
L 208.699894 309.056727 
z
" style="fill:#bf4417;stroke:#bf4417;stroke-linejoin:miter;"/>
   </g>
   <g id="patch_28">
    <path clip-path="url(#p5abe3ae44a)" d="M 248.279873 342.040042 
L 281.263189 342.040042 
L 281.263189 309.056727 
L 248.279873 309.056727 
z
" style="fill:#bf4417;stroke:#bf4417;stroke-linejoin:miter;"/>
   </g>
   <g id="patch_29">
    <path clip-path="url(#p5abe3ae44a)" d="M 287.859852 342.040042 
L 320.843167 342.040042 
L 320.843167 309.056727 
L 287.859852 309.056727 
z
" style="fill:#bf4417;stroke:#bf4417;stroke-linejoin:miter;"/>
   </g>
   <g id="patch_30">
    <path clip-path="url(#p5abe3ae44a)" d="M 327.439831 342.040042 
L 360.423146 342.040042 
L 360.423146 309.056727 
L 327.439831 309.056727 
z
" style="fill:#bf4417;stroke:#bf4417;stroke-linejoin:miter;"/>
   </g>
   <g id="patch_31">
    <path clip-path="url(#p5abe3ae44a)" d="M 367.019809 342.040042 
L 400.003125 342.040042 
L 400.003125 309.056727 
L 367.019809 309.056727 
z
" style="fill:#bf4417;stroke:#bf4417;stroke-linejoin:miter;"/>
   </g>
   <g id="patch_32">
    <path clip-path="url(#p5abe3ae44a)" d="M 10.8 302.460064 
L 43.783316 302.460064 
L 43.783316 269.476748 
L 10.8 269.476748 
z
" style="fill:#bf4417;stroke:#bf4417;stroke-linejoin:miter;"/>
   </g>
   <g id="patch_33">
    <path clip-path="url(#p5abe3ae44a)" d="M 50.379979 302.460064 
L 83.363294 302.460064 
L 83.363294 269.476748 
L 50.379979 269.476748 
z
" style="fill:#bf4417;stroke:#bf4417;stroke-linejoin:miter;"/>
   </g>
   <g id="patch_34">
    <path clip-path="url(#p5abe3ae44a)" d="M 89.959958 302.460064 
L 122.943273 302.460064 
L 122.943273 269.476748 
L 89.959958 269.476748 
z
" style="fill:#bf4417;stroke:#bf4417;stroke-linejoin:miter;"/>
   </g>
   <g id="patch_35">
    <path clip-path="url(#p5abe3ae44a)" d="M 129.539936 302.460064 
L 162.523252 302.460064 
L 162.523252 269.476748 
L 129.539936 269.476748 
z
" style="fill:#bf4417;stroke:#bf4417;stroke-linejoin:miter;"/>
   </g>
   <g id="patch_36">
    <path clip-path="url(#p5abe3ae44a)" d="M 169.119915 302.460064 
L 202.103231 302.460064 
L 202.103231 269.476748 
L 169.119915 269.476748 
z
" style="fill:#bf4417;stroke:#bf4417;stroke-linejoin:miter;"/>
   </g>
   <g id="patch_37">
    <path clip-path="url(#p5abe3ae44a)" d="M 208.699894 302.460064 
L 241.68321 302.460064 
L 241.68321 269.476748 
L 208.699894 269.476748 
z
" style="fill:#bf4417;stroke:#bf4417;stroke-linejoin:miter;"/>
   </g>
   <g id="patch_38">
    <path clip-path="url(#p5abe3ae44a)" d="M 248.279873 302.460064 
L 281.263189 302.460064 
L 281.263189 269.476748 
L 248.279873 269.476748 
z
" style="fill:#bf4417;stroke:#bf4417;stroke-linejoin:miter;"/>
   </g>
   <g id="patch_39">
    <path clip-path="url(#p5abe3ae44a)" d="M 287.859852 302.460064 
L 320.843167 302.460064 
L 320.843167 269.476748 
L 287.859852 269.476748 
z
" style="fill:#bf4417;stroke:#bf4417;stroke-linejoin:miter;"/>
   </g>
   <g id="patch_40">
    <path clip-path="url(#p5abe3ae44a)" d="M 327.439831 302.460064 
L 360.423146 302.460064 
L 360.423146 269.476748 
L 327.439831 269.476748 
z
" style="fill:#bf4417;stroke:#bf4417;stroke-linejoin:miter;"/>
   </g>
   <g id="patch_41">
    <path clip-path="url(#p5abe3ae44a)" d="M 367.019809 302.460064 
L 400.003125 302.460064 
L 400.003125 269.476748 
L 367.019809 269.476748 
z
" style="fill:#bf4417;stroke:#bf4417;stroke-linejoin:miter;"/>
   </g>
   <g id="patch_42">
    <path clip-path="url(#p5abe3ae44a)" d="M 10.8 262.880085 
L 43.783316 262.880085 
L 43.783316 229.896769 
L 10.8 229.896769 
z
" style="fill:#bf4417;stroke:#bf4417;stroke-linejoin:miter;"/>
   </g>
   <g id="patch_43">
    <path clip-path="url(#p5abe3ae44a)" d="M 50.379979 262.880085 
L 83.363294 262.880085 
L 83.363294 229.896769 
L 50.379979 229.896769 
z
" style="fill:#bf4417;stroke:#bf4417;stroke-linejoin:miter;"/>
   </g>
   <g id="patch_44">
    <path clip-path="url(#p5abe3ae44a)" d="M 89.959958 262.880085 
L 122.943273 262.880085 
L 122.943273 229.896769 
L 89.959958 229.896769 
z
" style="fill:#bf4417;stroke:#bf4417;stroke-linejoin:miter;"/>
   </g>
   <g id="patch_45">
    <path clip-path="url(#p5abe3ae44a)" d="M 129.539936 262.880085 
L 162.523252 262.880085 
L 162.523252 229.896769 
L 129.539936 229.896769 
z
" style="fill:#bf4417;stroke:#bf4417;stroke-linejoin:miter;"/>
   </g>
   <g id="patch_46">
    <path clip-path="url(#p5abe3ae44a)" d="M 169.119915 262.880085 
L 202.103231 262.880085 
L 202.103231 229.896769 
L 169.119915 229.896769 
z
" style="fill:#bf4417;stroke:#bf4417;stroke-linejoin:miter;"/>
   </g>
   <g id="patch_47">
    <path clip-path="url(#p5abe3ae44a)" d="M 208.699894 262.880085 
L 241.68321 262.880085 
L 241.68321 229.896769 
L 208.699894 229.896769 
z
" style="fill:#bf4417;stroke:#bf4417;stroke-linejoin:miter;"/>
   </g>
   <g id="patch_48">
    <path clip-path="url(#p5abe3ae44a)" d="M 248.279873 262.880085 
L 281.263189 262.880085 
L 281.263189 229.896769 
L 248.279873 229.896769 
z
" style="fill:#bf4417;stroke:#bf4417;stroke-linejoin:miter;"/>
   </g>
   <g id="patch_49">
    <path clip-path="url(#p5abe3ae44a)" d="M 287.859852 262.880085 
L 320.843167 262.880085 
L 320.843167 229.896769 
L 287.859852 229.896769 
z
" style="fill:#bf4417;stroke:#bf4417;stroke-linejoin:miter;"/>
   </g>
   <g id="patch_50">
    <path clip-path="url(#p5abe3ae44a)" d="M 327.439831 262.880085 
L 360.423146 262.880085 
L 360.423146 229.896769 
L 327.439831 229.896769 
z
" style="fill:#bf4417;stroke:#bf4417;stroke-linejoin:miter;"/>
   </g>
   <g id="patch_51">
    <path clip-path="url(#p5abe3ae44a)" d="M 367.019809 262.880085 
L 400.003125 262.880085 
L 400.003125 229.896769 
L 367.019809 229.896769 
z
" style="fill:#bf4417;stroke:#bf4417;stroke-linejoin:miter;"/>
   </g>
   <g id="patch_52">
    <path clip-path="url(#p5abe3ae44a)" d="M 10.8 223.300106 
L 43.783316 223.300106 
L 43.783316 190.31679 
L 10.8 190.31679 
z
" style="fill:#bf4417;stroke:#bf4417;stroke-linejoin:miter;"/>
   </g>
   <g id="patch_53">
    <path clip-path="url(#p5abe3ae44a)" d="M 50.379979 223.300106 
L 83.363294 223.300106 
L 83.363294 190.31679 
L 50.379979 190.31679 
z
" style="fill:#bf4417;stroke:#bf4417;stroke-linejoin:miter;"/>
   </g>
   <g id="patch_54">
    <path clip-path="url(#p5abe3ae44a)" d="M 89.959958 223.300106 
L 122.943273 223.300106 
L 122.943273 190.31679 
L 89.959958 190.31679 
z
" style="fill:#bf4417;stroke:#bf4417;stroke-linejoin:miter;"/>
   </g>
   <g id="patch_55">
    <path clip-path="url(#p5abe3ae44a)" d="M 129.539936 223.300106 
L 162.523252 223.300106 
L 162.523252 190.31679 
L 129.539936 190.31679 
z
" style="fill:#bf4417;stroke:#bf4417;stroke-linejoin:miter;"/>
   </g>
   <g id="patch_56">
    <path clip-path="url(#p5abe3ae44a)" d="M 169.119915 223.300106 
L 202.103231 223.300106 
L 202.103231 190.31679 
L 169.119915 190.31679 
z
" style="fill:#bf4417;stroke:#bf4417;stroke-linejoin:miter;"/>
   </g>
   <g id="patch_57">
    <path clip-path="url(#p5abe3ae44a)" d="M 208.699894 223.300106 
L 241.68321 223.300106 
L 241.68321 190.31679 
L 208.699894 190.31679 
z
" style="fill:#bf4417;stroke:#bf4417;stroke-linejoin:miter;"/>
   </g>
   <g id="patch_58">
    <path clip-path="url(#p5abe3ae44a)" d="M 248.279873 223.300106 
L 281.263189 223.300106 
L 281.263189 190.31679 
L 248.279873 190.31679 
z
" style="fill:#bf4417;stroke:#bf4417;stroke-linejoin:miter;"/>
   </g>
   <g id="patch_59">
    <path clip-path="url(#p5abe3ae44a)" d="M 287.859852 223.300106 
L 320.843167 223.300106 
L 320.843167 190.31679 
L 287.859852 190.31679 
z
" style="fill:#bf4417;stroke:#bf4417;stroke-linejoin:miter;"/>
   </g>
   <g id="patch_60">
    <path clip-path="url(#p5abe3ae44a)" d="M 327.439831 223.300106 
L 360.423146 223.300106 
L 360.423146 190.31679 
L 327.439831 190.31679 
z
" style="fill:#bf4417;stroke:#bf4417;stroke-linejoin:miter;"/>
   </g>
   <g id="patch_61">
    <path clip-path="url(#p5abe3ae44a)" d="M 367.019809 223.300106 
L 400.003125 223.300106 
L 400.003125 190.31679 
L 367.019809 190.31679 
z
" style="fill:#bf4417;stroke:#bf4417;stroke-linejoin:miter;"/>
   </g>
   <g id="patch_62">
    <path clip-path="url(#p5abe3ae44a)" d="M 10.8 183.720127 
L 43.783316 183.720127 
L 43.783316 150.736811 
L 10.8 150.736811 
z
" style="fill:#bf4417;stroke:#bf4417;stroke-linejoin:miter;"/>
   </g>
   <g id="patch_63">
    <path clip-path="url(#p5abe3ae44a)" d="M 50.379979 183.720127 
L 83.363294 183.720127 
L 83.363294 150.736811 
L 50.379979 150.736811 
z
" style="fill:#bf4417;stroke:#bf4417;stroke-linejoin:miter;"/>
   </g>
   <g id="patch_64">
    <path clip-path="url(#p5abe3ae44a)" d="M 89.959958 183.720127 
L 122.943273 183.720127 
L 122.943273 150.736811 
L 89.959958 150.736811 
z
" style="fill:#bf4417;stroke:#bf4417;stroke-linejoin:miter;"/>
   </g>
   <g id="patch_65">
    <path clip-path="url(#p5abe3ae44a)" d="M 129.539936 183.720127 
L 162.523252 183.720127 
L 162.523252 150.736811 
L 129.539936 150.736811 
z
" style="fill:#bf4417;stroke:#bf4417;stroke-linejoin:miter;"/>
   </g>
   <g id="patch_66">
    <path clip-path="url(#p5abe3ae44a)" d="M 169.119915 183.720127 
L 202.103231 183.720127 
L 202.103231 150.736811 
L 169.119915 150.736811 
z
" style="fill:#bf4417;stroke:#bf4417;stroke-linejoin:miter;"/>
   </g>
   <g id="patch_67">
    <path clip-path="url(#p5abe3ae44a)" d="M 208.699894 183.720127 
L 241.68321 183.720127 
L 241.68321 150.736811 
L 208.699894 150.736811 
z
" style="fill:#bf4417;stroke:#bf4417;stroke-linejoin:miter;"/>
   </g>
   <g id="patch_68">
    <path clip-path="url(#p5abe3ae44a)" d="M 248.279873 183.720127 
L 281.263189 183.720127 
L 281.263189 150.736811 
L 248.279873 150.736811 
z
" style="fill:#bf4417;stroke:#bf4417;stroke-linejoin:miter;"/>
   </g>
   <g id="patch_69">
    <path clip-path="url(#p5abe3ae44a)" d="M 287.859852 183.720127 
L 320.843167 183.720127 
L 320.843167 150.736811 
L 287.859852 150.736811 
z
" style="fill:#bf4417;stroke:#bf4417;stroke-linejoin:miter;"/>
   </g>
   <g id="patch_70">
    <path clip-path="url(#p5abe3ae44a)" d="M 327.439831 183.720127 
L 360.423146 183.720127 
L 360.423146 150.736811 
L 327.439831 150.736811 
z
" style="fill:#bf4417;stroke:#bf4417;stroke-linejoin:miter;"/>
   </g>
   <g id="patch_71">
    <path clip-path="url(#p5abe3ae44a)" d="M 367.019809 183.720127 
L 400.003125 183.720127 
L 400.003125 150.736811 
L 367.019809 150.736811 
z
" style="fill:#bf4417;stroke:#bf4417;stroke-linejoin:miter;"/>
   </g>
   <g id="patch_72">
    <path clip-path="url(#p5abe3ae44a)" d="M 10.8 144.140148 
L 43.783316 144.140148 
L 43.783316 111.156833 
L 10.8 111.156833 
z
" style="fill:#bf4417;stroke:#bf4417;stroke-linejoin:miter;"/>
   </g>
   <g id="patch_73">
    <path clip-path="url(#p5abe3ae44a)" d="M 50.379979 144.140148 
L 83.363294 144.140148 
L 83.363294 111.156833 
L 50.379979 111.156833 
z
" style="fill:#bf4417;stroke:#bf4417;stroke-linejoin:miter;"/>
   </g>
   <g id="patch_74">
    <path clip-path="url(#p5abe3ae44a)" d="M 89.959958 144.140148 
L 122.943273 144.140148 
L 122.943273 111.156833 
L 89.959958 111.156833 
z
" style="fill:#bf4417;stroke:#bf4417;stroke-linejoin:miter;"/>
   </g>
   <g id="patch_75">
    <path clip-path="url(#p5abe3ae44a)" d="M 129.539936 144.140148 
L 162.523252 144.140148 
L 162.523252 111.156833 
L 129.539936 111.156833 
z
" style="fill:#bf4417;stroke:#bf4417;stroke-linejoin:miter;"/>
   </g>
   <g id="patch_76">
    <path clip-path="url(#p5abe3ae44a)" d="M 169.119915 144.140148 
L 202.103231 144.140148 
L 202.103231 111.156833 
L 169.119915 111.156833 
z
" style="fill:#bf4417;stroke:#bf4417;stroke-linejoin:miter;"/>
   </g>
   <g id="patch_77">
    <path clip-path="url(#p5abe3ae44a)" d="M 208.699894 144.140148 
L 241.68321 144.140148 
L 241.68321 111.156833 
L 208.699894 111.156833 
z
" style="fill:#bf4417;stroke:#bf4417;stroke-linejoin:miter;"/>
   </g>
   <g id="patch_78">
    <path clip-path="url(#p5abe3ae44a)" d="M 248.279873 144.140148 
L 281.263189 144.140148 
L 281.263189 111.156833 
L 248.279873 111.156833 
z
" style="fill:#bf4417;stroke:#bf4417;stroke-linejoin:miter;"/>
   </g>
   <g id="patch_79">
    <path clip-path="url(#p5abe3ae44a)" d="M 287.859852 144.140148 
L 320.843167 144.140148 
L 320.843167 111.156833 
L 287.859852 111.156833 
z
" style="fill:#bf4417;stroke:#bf4417;stroke-linejoin:miter;"/>
   </g>
   <g id="patch_80">
    <path clip-path="url(#p5abe3ae44a)" d="M 327.439831 144.140148 
L 360.423146 144.140148 
L 360.423146 111.156833 
L 327.439831 111.156833 
z
" style="fill:#bf4417;stroke:#bf4417;stroke-linejoin:miter;"/>
   </g>
   <g id="patch_81">
    <path clip-path="url(#p5abe3ae44a)" d="M 367.019809 144.140148 
L 400.003125 144.140148 
L 400.003125 111.156833 
L 367.019809 111.156833 
z
" style="fill:#bf4417;stroke:#bf4417;stroke-linejoin:miter;"/>
   </g>
   <g id="patch_82">
    <path clip-path="url(#p5abe3ae44a)" d="M 10.8 104.560169 
L 43.783316 104.560169 
L 43.783316 71.576854 
L 10.8 71.576854 
z
" style="fill:#bf4417;stroke:#bf4417;stroke-linejoin:miter;"/>
   </g>
   <g id="patch_83">
    <path clip-path="url(#p5abe3ae44a)" d="M 50.379979 104.560169 
L 83.363294 104.560169 
L 83.363294 71.576854 
L 50.379979 71.576854 
z
" style="fill:#bf4417;stroke:#bf4417;stroke-linejoin:miter;"/>
   </g>
   <g id="patch_84">
    <path clip-path="url(#p5abe3ae44a)" d="M 89.959958 104.560169 
L 122.943273 104.560169 
L 122.943273 71.576854 
L 89.959958 71.576854 
z
" style="fill:#bf4417;stroke:#bf4417;stroke-linejoin:miter;"/>
   </g>
   <g id="patch_85">
    <path clip-path="url(#p5abe3ae44a)" d="M 129.539936 104.560169 
L 162.523252 104.560169 
L 162.523252 71.576854 
L 129.539936 71.576854 
z
" style="fill:#bf4417;stroke:#bf4417;stroke-linejoin:miter;"/>
   </g>
   <g id="patch_86">
    <path clip-path="url(#p5abe3ae44a)" d="M 169.119915 104.560169 
L 202.103231 104.560169 
L 202.103231 71.576854 
L 169.119915 71.576854 
z
" style="fill:#bf4417;stroke:#bf4417;stroke-linejoin:miter;"/>
   </g>
   <g id="patch_87">
    <path clip-path="url(#p5abe3ae44a)" d="M 208.699894 104.560169 
L 241.68321 104.560169 
L 241.68321 71.576854 
L 208.699894 71.576854 
z
" style="fill:#bf4417;stroke:#bf4417;stroke-linejoin:miter;"/>
   </g>
   <g id="patch_88">
    <path clip-path="url(#p5abe3ae44a)" d="M 248.279873 104.560169 
L 281.263189 104.560169 
L 281.263189 71.576854 
L 248.279873 71.576854 
z
" style="fill:#bf4417;stroke:#bf4417;stroke-linejoin:miter;"/>
   </g>
   <g id="patch_89">
    <path clip-path="url(#p5abe3ae44a)" d="M 287.859852 104.560169 
L 320.843167 104.560169 
L 320.843167 71.576854 
L 287.859852 71.576854 
z
" style="fill:#bf4417;stroke:#bf4417;stroke-linejoin:miter;"/>
   </g>
   <g id="patch_90">
    <path clip-path="url(#p5abe3ae44a)" d="M 327.439831 104.560169 
L 360.423146 104.560169 
L 360.423146 71.576854 
L 327.439831 71.576854 
z
" style="fill:#bf4417;stroke:#bf4417;stroke-linejoin:miter;"/>
   </g>
   <g id="patch_91">
    <path clip-path="url(#p5abe3ae44a)" d="M 367.019809 104.560169 
L 400.003125 104.560169 
L 400.003125 71.576854 
L 367.019809 71.576854 
z
" style="fill:#bf4417;stroke:#bf4417;stroke-linejoin:miter;"/>
   </g>
   <g id="patch_92">
    <path clip-path="url(#p5abe3ae44a)" d="M 10.8 64.980191 
L 43.783316 64.980191 
L 43.783316 31.996875 
L 10.8 31.996875 
z
" style="fill:#bf4417;stroke:#bf4417;stroke-linejoin:miter;"/>
   </g>
   <g id="patch_93">
    <path clip-path="url(#p5abe3ae44a)" d="M 50.379979 64.980191 
L 83.363294 64.980191 
L 83.363294 31.996875 
L 50.379979 31.996875 
z
" style="fill:#bf4417;stroke:#bf4417;stroke-linejoin:miter;"/>
   </g>
   <g id="patch_94">
    <path clip-path="url(#p5abe3ae44a)" d="M 89.959958 64.980191 
L 122.943273 64.980191 
L 122.943273 31.996875 
L 89.959958 31.996875 
z
" style="fill:#bf4417;stroke:#bf4417;stroke-linejoin:miter;"/>
   </g>
   <g id="patch_95">
    <path clip-path="url(#p5abe3ae44a)" d="M 129.539936 64.980191 
L 162.523252 64.980191 
L 162.523252 31.996875 
L 129.539936 31.996875 
z
" style="fill:#bf4417;stroke:#bf4417;stroke-linejoin:miter;"/>
   </g>
   <g id="patch_96">
    <path clip-path="url(#p5abe3ae44a)" d="M 169.119915 64.980191 
L 202.103231 64.980191 
L 202.103231 31.996875 
L 169.119915 31.996875 
z
" style="fill:#bf4417;stroke:#bf4417;stroke-linejoin:miter;"/>
   </g>
   <g id="patch_97">
    <path clip-path="url(#p5abe3ae44a)" d="M 208.699894 64.980191 
L 241.68321 64.980191 
L 241.68321 31.996875 
L 208.699894 31.996875 
z
" style="fill:#bf4417;stroke:#bf4417;stroke-linejoin:miter;"/>
   </g>
   <g id="patch_98">
    <path clip-path="url(#p5abe3ae44a)" d="M 248.279873 64.980191 
L 281.263189 64.980191 
L 281.263189 31.996875 
L 248.279873 31.996875 
z
" style="fill:#bf4417;stroke:#bf4417;stroke-linejoin:miter;"/>
   </g>
   <g id="patch_99">
    <path clip-path="url(#p5abe3ae44a)" d="M 287.859852 64.980191 
L 320.843167 64.980191 
L 320.843167 31.996875 
L 287.859852 31.996875 
z
" style="fill:#bf4417;stroke:#bf4417;stroke-linejoin:miter;"/>
   </g>
   <g id="patch_100">
    <path clip-path="url(#p5abe3ae44a)" d="M 327.439831 64.980191 
L 360.423146 64.980191 
L 360.423146 31.996875 
L 327.439831 31.996875 
z
" style="fill:#bf4417;stroke:#bf4417;stroke-linejoin:miter;"/>
   </g>
   <g id="patch_101">
    <path clip-path="url(#p5abe3ae44a)" d="M 367.019809 64.980191 
L 400.003125 64.980191 
L 400.003125 31.996875 
L 367.019809 31.996875 
z
" style="fill:#bf4417;stroke:#bf4417;stroke-linejoin:miter;"/>
   </g>
   <g id="text_1">
    <!-- Ordens -->
    <g transform="translate(169.545313 25.996875)scale(0.2 -0.2)">
     <defs>
      <path d="M 39.40625 66.21875 
Q 28.65625 66.21875 22.328125 58.203125 
Q 16.015625 50.203125 16.015625 36.375 
Q 16.015625 22.609375 22.328125 14.59375 
Q 28.65625 6.59375 39.40625 6.59375 
Q 50.140625 6.59375 56.421875 14.59375 
Q 62.703125 22.609375 62.703125 36.375 
Q 62.703125 50.203125 56.421875 58.203125 
Q 50.140625 66.21875 39.40625 66.21875 
z
M 39.40625 74.21875 
Q 54.734375 74.21875 63.90625 63.9375 
Q 73.09375 53.65625 73.09375 36.375 
Q 73.09375 19.140625 63.90625 8.859375 
Q 54.734375 -1.421875 39.40625 -1.421875 
Q 24.03125 -1.421875 14.8125 8.828125 
Q 5.609375 19.09375 5.609375 36.375 
Q 5.609375 53.65625 14.8125 63.9375 
Q 24.03125 74.21875 39.40625 74.21875 
z
" id="DejaVuSans-79"/>
      <path d="M 41.109375 46.296875 
Q 39.59375 47.171875 37.8125 47.578125 
Q 36.03125 48 33.890625 48 
Q 26.265625 48 22.1875 43.046875 
Q 18.109375 38.09375 18.109375 28.8125 
L 18.109375 0 
L 9.078125 0 
L 9.078125 54.6875 
L 18.109375 54.6875 
L 18.109375 46.1875 
Q 20.953125 51.171875 25.484375 53.578125 
Q 30.03125 56 36.53125 56 
Q 37.453125 56 38.578125 55.875 
Q 39.703125 55.765625 41.0625 55.515625 
z
" id="DejaVuSans-114"/>
      <path d="M 45.40625 46.390625 
L 45.40625 75.984375 
L 54.390625 75.984375 
L 54.390625 0 
L 45.40625 0 
L 45.40625 8.203125 
Q 42.578125 3.328125 38.25 0.953125 
Q 33.9375 -1.421875 27.875 -1.421875 
Q 17.96875 -1.421875 11.734375 6.484375 
Q 5.515625 14.40625 5.515625 27.296875 
Q 5.515625 40.1875 11.734375 48.09375 
Q 17.96875 56 27.875 56 
Q 33.9375 56 38.25 53.625 
Q 42.578125 51.265625 45.40625 46.390625 
z
M 14.796875 27.296875 
Q 14.796875 17.390625 18.875 11.75 
Q 22.953125 6.109375 30.078125 6.109375 
Q 37.203125 6.109375 41.296875 11.75 
Q 45.40625 17.390625 45.40625 27.296875 
Q 45.40625 37.203125 41.296875 42.84375 
Q 37.203125 48.484375 30.078125 48.484375 
Q 22.953125 48.484375 18.875 42.84375 
Q 14.796875 37.203125 14.796875 27.296875 
z
" id="DejaVuSans-100"/>
      <path d="M 56.203125 29.59375 
L 56.203125 25.203125 
L 14.890625 25.203125 
Q 15.484375 15.921875 20.484375 11.0625 
Q 25.484375 6.203125 34.421875 6.203125 
Q 39.59375 6.203125 44.453125 7.46875 
Q 49.3125 8.734375 54.109375 11.28125 
L 54.109375 2.78125 
Q 49.265625 0.734375 44.1875 -0.34375 
Q 39.109375 -1.421875 33.890625 -1.421875 
Q 20.796875 -1.421875 13.15625 6.1875 
Q 5.515625 13.8125 5.515625 26.8125 
Q 5.515625 40.234375 12.765625 48.109375 
Q 20.015625 56 32.328125 56 
Q 43.359375 56 49.78125 48.890625 
Q 56.203125 41.796875 56.203125 29.59375 
z
M 47.21875 32.234375 
Q 47.125 39.59375 43.09375 43.984375 
Q 39.0625 48.390625 32.421875 48.390625 
Q 24.90625 48.390625 20.390625 44.140625 
Q 15.875 39.890625 15.1875 32.171875 
z
" id="DejaVuSans-101"/>
      <path d="M 54.890625 33.015625 
L 54.890625 0 
L 45.90625 0 
L 45.90625 32.71875 
Q 45.90625 40.484375 42.875 44.328125 
Q 39.84375 48.1875 33.796875 48.1875 
Q 26.515625 48.1875 22.3125 43.546875 
Q 18.109375 38.921875 18.109375 30.90625 
L 18.109375 0 
L 9.078125 0 
L 9.078125 54.6875 
L 18.109375 54.6875 
L 18.109375 46.1875 
Q 21.34375 51.125 25.703125 53.5625 
Q 30.078125 56 35.796875 56 
Q 45.21875 56 50.046875 50.171875 
Q 54.890625 44.34375 54.890625 33.015625 
z
" id="DejaVuSans-110"/>
      <path d="M 44.28125 53.078125 
L 44.28125 44.578125 
Q 40.484375 46.53125 36.375 47.5 
Q 32.28125 48.484375 27.875 48.484375 
Q 21.1875 48.484375 17.84375 46.4375 
Q 14.5 44.390625 14.5 40.28125 
Q 14.5 37.15625 16.890625 35.375 
Q 19.28125 33.59375 26.515625 31.984375 
L 29.59375 31.296875 
Q 39.15625 29.25 43.1875 25.515625 
Q 47.21875 21.78125 47.21875 15.09375 
Q 47.21875 7.46875 41.1875 3.015625 
Q 35.15625 -1.421875 24.609375 -1.421875 
Q 20.21875 -1.421875 15.453125 -0.5625 
Q 10.6875 0.296875 5.421875 2 
L 5.421875 11.28125 
Q 10.40625 8.6875 15.234375 7.390625 
Q 20.0625 6.109375 24.8125 6.109375 
Q 31.15625 6.109375 34.5625 8.28125 
Q 37.984375 10.453125 37.984375 14.40625 
Q 37.984375 18.0625 35.515625 20.015625 
Q 33.0625 21.96875 24.703125 23.78125 
L 21.578125 24.515625 
Q 13.234375 26.265625 9.515625 29.90625 
Q 5.8125 33.546875 5.8125 39.890625 
Q 5.8125 47.609375 11.28125 51.796875 
Q 16.75 56 26.8125 56 
Q 31.78125 56 36.171875 55.265625 
Q 40.578125 54.546875 44.28125 53.078125 
z
" id="DejaVuSans-115"/>
     </defs>
     <use xlink:href="#DejaVuSans-79"/>
     <use x="78.710938" xlink:href="#DejaVuSans-114"/>
     <use x="118.074219" xlink:href="#DejaVuSans-100"/>
     <use x="181.550781" xlink:href="#DejaVuSans-101"/>
     <use x="243.074219" xlink:href="#DejaVuSans-110"/>
     <use x="306.453125" xlink:href="#DejaVuSans-115"/>
    </g>
   </g>
   <g id="legend_1">
    <g id="patch_102">
     <path d="M 408.403125 94.438125 
L 567.031875 94.438125 
Q 569.431875 94.438125 569.431875 92.038125 
L 569.431875 40.396875 
Q 569.431875 37.996875 567.031875 37.996875 
L 408.403125 37.996875 
Q 406.003125 37.996875 406.003125 40.396875 
L 406.003125 92.038125 
Q 406.003125 94.438125 408.403125 94.438125 
z
" style="fill:#ffffff;opacity:0.8;stroke:#cccccc;stroke-linejoin:miter;"/>
    </g>
    <g id="patch_103">
     <path d="M 410.803125 51.915 
L 434.803125 51.915 
L 434.803125 43.515 
L 410.803125 43.515 
z
" style="fill:#284021;stroke:#284021;stroke-linejoin:miter;"/>
    </g>
    <g id="text_2">
     <!-- Crocodylia (1.11%) -->
     <g transform="translate(444.403125 51.915)scale(0.12 -0.12)">
      <defs>
       <path d="M 64.40625 67.28125 
L 64.40625 56.890625 
Q 59.421875 61.53125 53.78125 63.8125 
Q 48.140625 66.109375 41.796875 66.109375 
Q 29.296875 66.109375 22.65625 58.46875 
Q 16.015625 50.828125 16.015625 36.375 
Q 16.015625 21.96875 22.65625 14.328125 
Q 29.296875 6.6875 41.796875 6.6875 
Q 48.140625 6.6875 53.78125 8.984375 
Q 59.421875 11.28125 64.40625 15.921875 
L 64.40625 5.609375 
Q 59.234375 2.09375 53.4375 0.328125 
Q 47.65625 -1.421875 41.21875 -1.421875 
Q 24.65625 -1.421875 15.125 8.703125 
Q 5.609375 18.84375 5.609375 36.375 
Q 5.609375 53.953125 15.125 64.078125 
Q 24.65625 74.21875 41.21875 74.21875 
Q 47.75 74.21875 53.53125 72.484375 
Q 59.328125 70.75 64.40625 67.28125 
z
" id="DejaVuSans-67"/>
       <path d="M 30.609375 48.390625 
Q 23.390625 48.390625 19.1875 42.75 
Q 14.984375 37.109375 14.984375 27.296875 
Q 14.984375 17.484375 19.15625 11.84375 
Q 23.34375 6.203125 30.609375 6.203125 
Q 37.796875 6.203125 41.984375 11.859375 
Q 46.1875 17.53125 46.1875 27.296875 
Q 46.1875 37.015625 41.984375 42.703125 
Q 37.796875 48.390625 30.609375 48.390625 
z
M 30.609375 56 
Q 42.328125 56 49.015625 48.375 
Q 55.71875 40.765625 55.71875 27.296875 
Q 55.71875 13.875 49.015625 6.21875 
Q 42.328125 -1.421875 30.609375 -1.421875 
Q 18.84375 -1.421875 12.171875 6.21875 
Q 5.515625 13.875 5.515625 27.296875 
Q 5.515625 40.765625 12.171875 48.375 
Q 18.84375 56 30.609375 56 
z
" id="DejaVuSans-111"/>
       <path d="M 48.78125 52.59375 
L 48.78125 44.1875 
Q 44.96875 46.296875 41.140625 47.34375 
Q 37.3125 48.390625 33.40625 48.390625 
Q 24.65625 48.390625 19.8125 42.84375 
Q 14.984375 37.3125 14.984375 27.296875 
Q 14.984375 17.28125 19.8125 11.734375 
Q 24.65625 6.203125 33.40625 6.203125 
Q 37.3125 6.203125 41.140625 7.25 
Q 44.96875 8.296875 48.78125 10.40625 
L 48.78125 2.09375 
Q 45.015625 0.34375 40.984375 -0.53125 
Q 36.96875 -1.421875 32.421875 -1.421875 
Q 20.0625 -1.421875 12.78125 6.34375 
Q 5.515625 14.109375 5.515625 27.296875 
Q 5.515625 40.671875 12.859375 48.328125 
Q 20.21875 56 33.015625 56 
Q 37.15625 56 41.109375 55.140625 
Q 45.0625 54.296875 48.78125 52.59375 
z
" id="DejaVuSans-99"/>
       <path d="M 32.171875 -5.078125 
Q 28.375 -14.84375 24.75 -17.8125 
Q 21.140625 -20.796875 15.09375 -20.796875 
L 7.90625 -20.796875 
L 7.90625 -13.28125 
L 13.1875 -13.28125 
Q 16.890625 -13.28125 18.9375 -11.515625 
Q 21 -9.765625 23.484375 -3.21875 
L 25.09375 0.875 
L 2.984375 54.6875 
L 12.5 54.6875 
L 29.59375 11.921875 
L 46.6875 54.6875 
L 56.203125 54.6875 
z
" id="DejaVuSans-121"/>
       <path d="M 9.421875 75.984375 
L 18.40625 75.984375 
L 18.40625 0 
L 9.421875 0 
z
" id="DejaVuSans-108"/>
       <path d="M 9.421875 54.6875 
L 18.40625 54.6875 
L 18.40625 0 
L 9.421875 0 
z
M 9.421875 75.984375 
L 18.40625 75.984375 
L 18.40625 64.59375 
L 9.421875 64.59375 
z
" id="DejaVuSans-105"/>
       <path d="M 34.28125 27.484375 
Q 23.390625 27.484375 19.1875 25 
Q 14.984375 22.515625 14.984375 16.5 
Q 14.984375 11.71875 18.140625 8.90625 
Q 21.296875 6.109375 26.703125 6.109375 
Q 34.1875 6.109375 38.703125 11.40625 
Q 43.21875 16.703125 43.21875 25.484375 
L 43.21875 27.484375 
z
M 52.203125 31.203125 
L 52.203125 0 
L 43.21875 0 
L 43.21875 8.296875 
Q 40.140625 3.328125 35.546875 0.953125 
Q 30.953125 -1.421875 24.3125 -1.421875 
Q 15.921875 -1.421875 10.953125 3.296875 
Q 6 8.015625 6 15.921875 
Q 6 25.140625 12.171875 29.828125 
Q 18.359375 34.515625 30.609375 34.515625 
L 43.21875 34.515625 
L 43.21875 35.40625 
Q 43.21875 41.609375 39.140625 45 
Q 35.0625 48.390625 27.6875 48.390625 
Q 23 48.390625 18.546875 47.265625 
Q 14.109375 46.140625 10.015625 43.890625 
L 10.015625 52.203125 
Q 14.9375 54.109375 19.578125 55.046875 
Q 24.21875 56 28.609375 56 
Q 40.484375 56 46.34375 49.84375 
Q 52.203125 43.703125 52.203125 31.203125 
z
" id="DejaVuSans-97"/>
       <path id="DejaVuSans-32"/>
       <path d="M 31 75.875 
Q 24.46875 64.65625 21.28125 53.65625 
Q 18.109375 42.671875 18.109375 31.390625 
Q 18.109375 20.125 21.3125 9.0625 
Q 24.515625 -2 31 -13.1875 
L 23.1875 -13.1875 
Q 15.875 -1.703125 12.234375 9.375 
Q 8.59375 20.453125 8.59375 31.390625 
Q 8.59375 42.28125 12.203125 53.3125 
Q 15.828125 64.359375 23.1875 75.875 
z
" id="DejaVuSans-40"/>
       <path d="M 12.40625 8.296875 
L 28.515625 8.296875 
L 28.515625 63.921875 
L 10.984375 60.40625 
L 10.984375 69.390625 
L 28.421875 72.90625 
L 38.28125 72.90625 
L 38.28125 8.296875 
L 54.390625 8.296875 
L 54.390625 0 
L 12.40625 0 
z
" id="DejaVuSans-49"/>
       <path d="M 10.6875 12.40625 
L 21 12.40625 
L 21 0 
L 10.6875 0 
z
" id="DejaVuSans-46"/>
       <path d="M 72.703125 32.078125 
Q 68.453125 32.078125 66.03125 28.46875 
Q 63.625 24.859375 63.625 18.40625 
Q 63.625 12.0625 66.03125 8.421875 
Q 68.453125 4.78125 72.703125 4.78125 
Q 76.859375 4.78125 79.265625 8.421875 
Q 81.6875 12.0625 81.6875 18.40625 
Q 81.6875 24.8125 79.265625 28.4375 
Q 76.859375 32.078125 72.703125 32.078125 
z
M 72.703125 38.28125 
Q 80.421875 38.28125 84.953125 32.90625 
Q 89.5 27.546875 89.5 18.40625 
Q 89.5 9.28125 84.9375 3.921875 
Q 80.375 -1.421875 72.703125 -1.421875 
Q 64.890625 -1.421875 60.34375 3.921875 
Q 55.8125 9.28125 55.8125 18.40625 
Q 55.8125 27.59375 60.375 32.9375 
Q 64.9375 38.28125 72.703125 38.28125 
z
M 22.3125 68.015625 
Q 18.109375 68.015625 15.6875 64.375 
Q 13.28125 60.75 13.28125 54.390625 
Q 13.28125 47.953125 15.671875 44.328125 
Q 18.0625 40.71875 22.3125 40.71875 
Q 26.5625 40.71875 28.96875 44.328125 
Q 31.390625 47.953125 31.390625 54.390625 
Q 31.390625 60.6875 28.953125 64.34375 
Q 26.515625 68.015625 22.3125 68.015625 
z
M 66.40625 74.21875 
L 74.21875 74.21875 
L 28.609375 -1.421875 
L 20.796875 -1.421875 
z
M 22.3125 74.21875 
Q 30.03125 74.21875 34.609375 68.875 
Q 39.203125 63.53125 39.203125 54.390625 
Q 39.203125 45.171875 34.640625 39.84375 
Q 30.078125 34.515625 22.3125 34.515625 
Q 14.546875 34.515625 10.03125 39.859375 
Q 5.515625 45.21875 5.515625 54.390625 
Q 5.515625 63.484375 10.046875 68.84375 
Q 14.59375 74.21875 22.3125 74.21875 
z
" id="DejaVuSans-37"/>
       <path d="M 8.015625 75.875 
L 15.828125 75.875 
Q 23.140625 64.359375 26.78125 53.3125 
Q 30.421875 42.28125 30.421875 31.390625 
Q 30.421875 20.453125 26.78125 9.375 
Q 23.140625 -1.703125 15.828125 -13.1875 
L 8.015625 -13.1875 
Q 14.5 -2 17.703125 9.0625 
Q 20.90625 20.125 20.90625 31.390625 
Q 20.90625 42.671875 17.703125 53.65625 
Q 14.5 64.65625 8.015625 75.875 
z
" id="DejaVuSans-41"/>
      </defs>
      <use xlink:href="#DejaVuSans-67"/>
      <use x="69.824219" xlink:href="#DejaVuSans-114"/>
      <use x="108.6875" xlink:href="#DejaVuSans-111"/>
      <use x="169.869141" xlink:href="#DejaVuSans-99"/>
      <use x="224.849609" xlink:href="#DejaVuSans-111"/>
      <use x="286.03125" xlink:href="#DejaVuSans-100"/>
      <use x="349.507812" xlink:href="#DejaVuSans-121"/>
      <use x="408.6875" xlink:href="#DejaVuSans-108"/>
      <use x="436.470703" xlink:href="#DejaVuSans-105"/>
      <use x="464.253906" xlink:href="#DejaVuSans-97"/>
      <use x="525.533203" xlink:href="#DejaVuSans-32"/>
      <use x="557.320312" xlink:href="#DejaVuSans-40"/>
      <use x="596.333984" xlink:href="#DejaVuSans-49"/>
      <use x="659.957031" xlink:href="#DejaVuSans-46"/>
      <use x="691.744141" xlink:href="#DejaVuSans-49"/>
      <use x="755.367188" xlink:href="#DejaVuSans-49"/>
      <use x="818.990234" xlink:href="#DejaVuSans-37"/>
      <use x="914.009766" xlink:href="#DejaVuSans-41"/>
     </g>
    </g>
    <g id="patch_104">
     <path d="M 410.803125 69.52875 
L 434.803125 69.52875 
L 434.803125 61.12875 
L 410.803125 61.12875 
z
" style="fill:#d9cb0b;stroke:#d9cb0b;stroke-linejoin:miter;"/>
    </g>
    <g id="text_3">
     <!-- Testudines (3.66%) -->
     <g transform="translate(444.403125 69.52875)scale(0.12 -0.12)">
      <defs>
       <path d="M -0.296875 72.90625 
L 61.375 72.90625 
L 61.375 64.59375 
L 35.5 64.59375 
L 35.5 0 
L 25.59375 0 
L 25.59375 64.59375 
L -0.296875 64.59375 
z
" id="DejaVuSans-84"/>
       <path d="M 18.3125 70.21875 
L 18.3125 54.6875 
L 36.8125 54.6875 
L 36.8125 47.703125 
L 18.3125 47.703125 
L 18.3125 18.015625 
Q 18.3125 11.328125 20.140625 9.421875 
Q 21.96875 7.515625 27.59375 7.515625 
L 36.8125 7.515625 
L 36.8125 0 
L 27.59375 0 
Q 17.1875 0 13.234375 3.875 
Q 9.28125 7.765625 9.28125 18.015625 
L 9.28125 47.703125 
L 2.6875 47.703125 
L 2.6875 54.6875 
L 9.28125 54.6875 
L 9.28125 70.21875 
z
" id="DejaVuSans-116"/>
       <path d="M 8.5 21.578125 
L 8.5 54.6875 
L 17.484375 54.6875 
L 17.484375 21.921875 
Q 17.484375 14.15625 20.5 10.265625 
Q 23.53125 6.390625 29.59375 6.390625 
Q 36.859375 6.390625 41.078125 11.03125 
Q 45.3125 15.671875 45.3125 23.6875 
L 45.3125 54.6875 
L 54.296875 54.6875 
L 54.296875 0 
L 45.3125 0 
L 45.3125 8.40625 
Q 42.046875 3.421875 37.71875 1 
Q 33.40625 -1.421875 27.6875 -1.421875 
Q 18.265625 -1.421875 13.375 4.4375 
Q 8.5 10.296875 8.5 21.578125 
z
M 31.109375 56 
z
" id="DejaVuSans-117"/>
       <path d="M 40.578125 39.3125 
Q 47.65625 37.796875 51.625 33 
Q 55.609375 28.21875 55.609375 21.1875 
Q 55.609375 10.40625 48.1875 4.484375 
Q 40.765625 -1.421875 27.09375 -1.421875 
Q 22.515625 -1.421875 17.65625 -0.515625 
Q 12.796875 0.390625 7.625 2.203125 
L 7.625 11.71875 
Q 11.71875 9.328125 16.59375 8.109375 
Q 21.484375 6.890625 26.8125 6.890625 
Q 36.078125 6.890625 40.9375 10.546875 
Q 45.796875 14.203125 45.796875 21.1875 
Q 45.796875 27.640625 41.28125 31.265625 
Q 36.765625 34.90625 28.71875 34.90625 
L 20.21875 34.90625 
L 20.21875 43.015625 
L 29.109375 43.015625 
Q 36.375 43.015625 40.234375 45.921875 
Q 44.09375 48.828125 44.09375 54.296875 
Q 44.09375 59.90625 40.109375 62.90625 
Q 36.140625 65.921875 28.71875 65.921875 
Q 24.65625 65.921875 20.015625 65.03125 
Q 15.375 64.15625 9.8125 62.3125 
L 9.8125 71.09375 
Q 15.4375 72.65625 20.34375 73.4375 
Q 25.25 74.21875 29.59375 74.21875 
Q 40.828125 74.21875 47.359375 69.109375 
Q 53.90625 64.015625 53.90625 55.328125 
Q 53.90625 49.265625 50.4375 45.09375 
Q 46.96875 40.921875 40.578125 39.3125 
z
" id="DejaVuSans-51"/>
       <path d="M 33.015625 40.375 
Q 26.375 40.375 22.484375 35.828125 
Q 18.609375 31.296875 18.609375 23.390625 
Q 18.609375 15.53125 22.484375 10.953125 
Q 26.375 6.390625 33.015625 6.390625 
Q 39.65625 6.390625 43.53125 10.953125 
Q 47.40625 15.53125 47.40625 23.390625 
Q 47.40625 31.296875 43.53125 35.828125 
Q 39.65625 40.375 33.015625 40.375 
z
M 52.59375 71.296875 
L 52.59375 62.3125 
Q 48.875 64.0625 45.09375 64.984375 
Q 41.3125 65.921875 37.59375 65.921875 
Q 27.828125 65.921875 22.671875 59.328125 
Q 17.53125 52.734375 16.796875 39.40625 
Q 19.671875 43.65625 24.015625 45.921875 
Q 28.375 48.1875 33.59375 48.1875 
Q 44.578125 48.1875 50.953125 41.515625 
Q 57.328125 34.859375 57.328125 23.390625 
Q 57.328125 12.15625 50.6875 5.359375 
Q 44.046875 -1.421875 33.015625 -1.421875 
Q 20.359375 -1.421875 13.671875 8.265625 
Q 6.984375 17.96875 6.984375 36.375 
Q 6.984375 53.65625 15.1875 63.9375 
Q 23.390625 74.21875 37.203125 74.21875 
Q 40.921875 74.21875 44.703125 73.484375 
Q 48.484375 72.75 52.59375 71.296875 
z
" id="DejaVuSans-54"/>
      </defs>
      <use xlink:href="#DejaVuSans-84"/>
      <use x="44.083984" xlink:href="#DejaVuSans-101"/>
      <use x="105.607422" xlink:href="#DejaVuSans-115"/>
      <use x="157.707031" xlink:href="#DejaVuSans-116"/>
      <use x="196.916016" xlink:href="#DejaVuSans-117"/>
      <use x="260.294922" xlink:href="#DejaVuSans-100"/>
      <use x="323.771484" xlink:href="#DejaVuSans-105"/>
      <use x="351.554688" xlink:href="#DejaVuSans-110"/>
      <use x="414.933594" xlink:href="#DejaVuSans-101"/>
      <use x="476.457031" xlink:href="#DejaVuSans-115"/>
      <use x="528.556641" xlink:href="#DejaVuSans-32"/>
      <use x="560.34375" xlink:href="#DejaVuSans-40"/>
      <use x="599.357422" xlink:href="#DejaVuSans-51"/>
      <use x="662.980469" xlink:href="#DejaVuSans-46"/>
      <use x="694.767578" xlink:href="#DejaVuSans-54"/>
      <use x="758.390625" xlink:href="#DejaVuSans-54"/>
      <use x="822.013672" xlink:href="#DejaVuSans-37"/>
      <use x="917.033203" xlink:href="#DejaVuSans-41"/>
     </g>
    </g>
    <g id="patch_105">
     <path d="M 410.803125 87.1425 
L 434.803125 87.1425 
L 434.803125 78.7425 
L 410.803125 78.7425 
z
" style="fill:#bf4417;stroke:#bf4417;stroke-linejoin:miter;"/>
    </g>
    <g id="text_4">
     <!-- Squamata (95.21%) -->
     <g transform="translate(444.403125 87.1425)scale(0.12 -0.12)">
      <defs>
       <path d="M 53.515625 70.515625 
L 53.515625 60.890625 
Q 47.90625 63.578125 42.921875 64.890625 
Q 37.9375 66.21875 33.296875 66.21875 
Q 25.25 66.21875 20.875 63.09375 
Q 16.5 59.96875 16.5 54.203125 
Q 16.5 49.359375 19.40625 46.890625 
Q 22.3125 44.4375 30.421875 42.921875 
L 36.375 41.703125 
Q 47.40625 39.59375 52.65625 34.296875 
Q 57.90625 29 57.90625 20.125 
Q 57.90625 9.515625 50.796875 4.046875 
Q 43.703125 -1.421875 29.984375 -1.421875 
Q 24.8125 -1.421875 18.96875 -0.25 
Q 13.140625 0.921875 6.890625 3.21875 
L 6.890625 13.375 
Q 12.890625 10.015625 18.65625 8.296875 
Q 24.421875 6.59375 29.984375 6.59375 
Q 38.421875 6.59375 43.015625 9.90625 
Q 47.609375 13.234375 47.609375 19.390625 
Q 47.609375 24.75 44.3125 27.78125 
Q 41.015625 30.8125 33.5 32.328125 
L 27.484375 33.5 
Q 16.453125 35.6875 11.515625 40.375 
Q 6.59375 45.0625 6.59375 53.421875 
Q 6.59375 63.09375 13.40625 68.65625 
Q 20.21875 74.21875 32.171875 74.21875 
Q 37.3125 74.21875 42.625 73.28125 
Q 47.953125 72.359375 53.515625 70.515625 
z
" id="DejaVuSans-83"/>
       <path d="M 14.796875 27.296875 
Q 14.796875 17.390625 18.875 11.75 
Q 22.953125 6.109375 30.078125 6.109375 
Q 37.203125 6.109375 41.296875 11.75 
Q 45.40625 17.390625 45.40625 27.296875 
Q 45.40625 37.203125 41.296875 42.84375 
Q 37.203125 48.484375 30.078125 48.484375 
Q 22.953125 48.484375 18.875 42.84375 
Q 14.796875 37.203125 14.796875 27.296875 
z
M 45.40625 8.203125 
Q 42.578125 3.328125 38.25 0.953125 
Q 33.9375 -1.421875 27.875 -1.421875 
Q 17.96875 -1.421875 11.734375 6.484375 
Q 5.515625 14.40625 5.515625 27.296875 
Q 5.515625 40.1875 11.734375 48.09375 
Q 17.96875 56 27.875 56 
Q 33.9375 56 38.25 53.625 
Q 42.578125 51.265625 45.40625 46.390625 
L 45.40625 54.6875 
L 54.390625 54.6875 
L 54.390625 -20.796875 
L 45.40625 -20.796875 
z
" id="DejaVuSans-113"/>
       <path d="M 52 44.1875 
Q 55.375 50.25 60.0625 53.125 
Q 64.75 56 71.09375 56 
Q 79.640625 56 84.28125 50.015625 
Q 88.921875 44.046875 88.921875 33.015625 
L 88.921875 0 
L 79.890625 0 
L 79.890625 32.71875 
Q 79.890625 40.578125 77.09375 44.375 
Q 74.3125 48.1875 68.609375 48.1875 
Q 61.625 48.1875 57.5625 43.546875 
Q 53.515625 38.921875 53.515625 30.90625 
L 53.515625 0 
L 44.484375 0 
L 44.484375 32.71875 
Q 44.484375 40.625 41.703125 44.40625 
Q 38.921875 48.1875 33.109375 48.1875 
Q 26.21875 48.1875 22.15625 43.53125 
Q 18.109375 38.875 18.109375 30.90625 
L 18.109375 0 
L 9.078125 0 
L 9.078125 54.6875 
L 18.109375 54.6875 
L 18.109375 46.1875 
Q 21.1875 51.21875 25.484375 53.609375 
Q 29.78125 56 35.6875 56 
Q 41.65625 56 45.828125 52.96875 
Q 50 49.953125 52 44.1875 
z
" id="DejaVuSans-109"/>
       <path d="M 10.984375 1.515625 
L 10.984375 10.5 
Q 14.703125 8.734375 18.5 7.8125 
Q 22.3125 6.890625 25.984375 6.890625 
Q 35.75 6.890625 40.890625 13.453125 
Q 46.046875 20.015625 46.78125 33.40625 
Q 43.953125 29.203125 39.59375 26.953125 
Q 35.25 24.703125 29.984375 24.703125 
Q 19.046875 24.703125 12.671875 31.3125 
Q 6.296875 37.9375 6.296875 49.421875 
Q 6.296875 60.640625 12.9375 67.421875 
Q 19.578125 74.21875 30.609375 74.21875 
Q 43.265625 74.21875 49.921875 64.515625 
Q 56.59375 54.828125 56.59375 36.375 
Q 56.59375 19.140625 48.40625 8.859375 
Q 40.234375 -1.421875 26.421875 -1.421875 
Q 22.703125 -1.421875 18.890625 -0.6875 
Q 15.09375 0.046875 10.984375 1.515625 
z
M 30.609375 32.421875 
Q 37.25 32.421875 41.125 36.953125 
Q 45.015625 41.5 45.015625 49.421875 
Q 45.015625 57.28125 41.125 61.84375 
Q 37.25 66.40625 30.609375 66.40625 
Q 23.96875 66.40625 20.09375 61.84375 
Q 16.21875 57.28125 16.21875 49.421875 
Q 16.21875 41.5 20.09375 36.953125 
Q 23.96875 32.421875 30.609375 32.421875 
z
" id="DejaVuSans-57"/>
       <path d="M 10.796875 72.90625 
L 49.515625 72.90625 
L 49.515625 64.59375 
L 19.828125 64.59375 
L 19.828125 46.734375 
Q 21.96875 47.46875 24.109375 47.828125 
Q 26.265625 48.1875 28.421875 48.1875 
Q 40.625 48.1875 47.75 41.5 
Q 54.890625 34.8125 54.890625 23.390625 
Q 54.890625 11.625 47.5625 5.09375 
Q 40.234375 -1.421875 26.90625 -1.421875 
Q 22.3125 -1.421875 17.546875 -0.640625 
Q 12.796875 0.140625 7.71875 1.703125 
L 7.71875 11.625 
Q 12.109375 9.234375 16.796875 8.0625 
Q 21.484375 6.890625 26.703125 6.890625 
Q 35.15625 6.890625 40.078125 11.328125 
Q 45.015625 15.765625 45.015625 23.390625 
Q 45.015625 31 40.078125 35.4375 
Q 35.15625 39.890625 26.703125 39.890625 
Q 22.75 39.890625 18.8125 39.015625 
Q 14.890625 38.140625 10.796875 36.28125 
z
" id="DejaVuSans-53"/>
       <path d="M 19.1875 8.296875 
L 53.609375 8.296875 
L 53.609375 0 
L 7.328125 0 
L 7.328125 8.296875 
Q 12.9375 14.109375 22.625 23.890625 
Q 32.328125 33.6875 34.8125 36.53125 
Q 39.546875 41.84375 41.421875 45.53125 
Q 43.3125 49.21875 43.3125 52.78125 
Q 43.3125 58.59375 39.234375 62.25 
Q 35.15625 65.921875 28.609375 65.921875 
Q 23.96875 65.921875 18.8125 64.3125 
Q 13.671875 62.703125 7.8125 59.421875 
L 7.8125 69.390625 
Q 13.765625 71.78125 18.9375 73 
Q 24.125 74.21875 28.421875 74.21875 
Q 39.75 74.21875 46.484375 68.546875 
Q 53.21875 62.890625 53.21875 53.421875 
Q 53.21875 48.921875 51.53125 44.890625 
Q 49.859375 40.875 45.40625 35.40625 
Q 44.1875 33.984375 37.640625 27.21875 
Q 31.109375 20.453125 19.1875 8.296875 
z
" id="DejaVuSans-50"/>
      </defs>
      <use xlink:href="#DejaVuSans-83"/>
      <use x="63.476562" xlink:href="#DejaVuSans-113"/>
      <use x="126.953125" xlink:href="#DejaVuSans-117"/>
      <use x="190.332031" xlink:href="#DejaVuSans-97"/>
      <use x="251.611328" xlink:href="#DejaVuSans-109"/>
      <use x="349.023438" xlink:href="#DejaVuSans-97"/>
      <use x="410.302734" xlink:href="#DejaVuSans-116"/>
      <use x="449.511719" xlink:href="#DejaVuSans-97"/>
      <use x="510.791016" xlink:href="#DejaVuSans-32"/>
      <use x="542.578125" xlink:href="#DejaVuSans-40"/>
      <use x="581.591797" xlink:href="#DejaVuSans-57"/>
      <use x="645.214844" xlink:href="#DejaVuSans-53"/>
      <use x="708.837891" xlink:href="#DejaVuSans-46"/>
      <use x="740.625" xlink:href="#DejaVuSans-50"/>
      <use x="804.248047" xlink:href="#DejaVuSans-49"/>
      <use x="867.871094" xlink:href="#DejaVuSans-37"/>
      <use x="962.890625" xlink:href="#DejaVuSans-41"/>
     </g>
    </g>
   </g>
  </g>
 </g>
 <defs>
  <clipPath id="p5abe3ae44a">
   <rect height="389.203125" width="389.203125" x="10.8" y="31.996875"/>
  </clipPath>
 </defs>
</svg>
