<svg class="marks" width="921" height="482" viewBox="0 0 921 482" version="1.1" xmlns="http://www.w3.org/2000/svg" xmlns:xlink="http://www.w3.org/1999/xlink"><g transform="translate(53,32)"><g class="mark-group role-frame root"><g transform="translate(0,0)"><path class="background" d="M0.5,0.5h800v400h-800Z" style="fill: none; stroke: #ddd;"></path><g><g class="mark-group role-axis"><g transform="translate(0.5,0.5)"><path class="background" d="M0,0h0v0h0Z" style="pointer-events: none; fill: none;"></path><g><g class="mark-rule role-axis-grid" style="pointer-events: none;"><line transform="translate(0,400)" x2="800" y2="0" style="fill: none; stroke: #ddd; stroke-width: 1; opacity: 1;"></line><line transform="translate(0,360)" x2="800" y2="0" style="fill: none; stroke: #ddd; stroke-width: 1; opacity: 1;"></line><line transform="translate(0,320)" x2="800" y2="0" style="fill: none; stroke: #ddd; stroke-width: 1; opacity: 1;"></line><line transform="translate(0,280)" x2="800" y2="0" style="fill: none; stroke: #ddd; stroke-width: 1; opacity: 1;"></line><line transform="translate(0,240)" x2="800" y2="0" style="fill: none; stroke: #ddd; stroke-width: 1; opacity: 1;"></line><line transform="translate(0,200)" x2="800" y2="0" style="fill: none; stroke: #ddd; stroke-width: 1; opacity: 1;"></line><line transform="translate(0,160)" x2="800" y2="0" style="fill: none; stroke: #ddd; stroke-width: 1; opacity: 1;"></line><line transform="translate(0,120)" x2="800" y2="0" style="fill: none; stroke: #ddd; stroke-width: 1; opacity: 1;"></line><line transform="translate(0,80)" x2="800" y2="0" style="fill: none; stroke: #ddd; stroke-width: 1; opacity: 1;"></line><line transform="translate(0,40)" x2="800" y2="0" style="fill: none; stroke: #ddd; stroke-width: 1; opacity: 1;"></line><line transform="translate(0,0)" x2="800" y2="0" style="fill: none; stroke: #ddd; stroke-width: 1; opacity: 1;"></line></g></g><path class="foreground" d="" style="pointer-events: none; display: none; fill: none;"></path></g></g><g class="mark-symbol role-mark marks"><path transform="translate(10.526315789473642,0)" d="M4.2485291572496005,0A4.2485291572496005,4.2485291572496005,0,1,1,-4.2485291572496005,0A4.2485291572496005,4.2485291572496005,0,1,1,4.2485291572496005,0" style="fill: #f58518; stroke-width: 2; opacity: 0.7;"></path><path transform="translate(31.578947368421012,0)" d="M4.2485291572496005,0A4.2485291572496005,4.2485291572496005,0,1,1,-4.2485291572496005,0A4.2485291572496005,4.2485291572496005,0,1,1,4.2485291572496005,0" style="fill: #f58518; stroke-width: 2; opacity: 0.7;"></path><path transform="translate(52.63157894736838,0)" d="M4.2485291572496005,0A4.2485291572496005,4.2485291572496005,0,1,1,-4.2485291572496005,0A4.2485291572496005,4.2485291572496005,0,1,1,4.2485291572496005,0" style="fill: #f58518; stroke-width: 2; opacity: 0.7;"></path><path transform="translate(73.68421052631575,0)" d="M4.2485291572496005,0A4.2485291572496005,4.2485291572496005,0,1,1,-4.2485291572496005,0A4.2485291572496005,4.2485291572496005,0,1,1,4.2485291572496005,0" style="fill: #f58518; stroke-width: 2; opacity: 0.7;"></path><path transform="translate(94.73684210526312,0)" d="M4.2485291572496005,0A4.2485291572496005,4.2485291572496005,0,1,1,-4.2485291572496005,0A4.2485291572496005,4.2485291572496005,0,1,1,4.2485291572496005,0" style="fill: #f58518; stroke-width: 2; opacity: 0.7;"></path><path transform="translate(115.78947368421049,0)" d="M6.008327554319921,0A6.008327554319921,6.008327554319921,0,1,1,-6.008327554319921,0A6.008327554319921,6.008327554319921,0,1,1,6.008327554319921,0" style="fill: #f58518; stroke-width: 2; opacity: 0.7;"></path><path transform="translate(136.84210526315786,0)" d="M6.008327554319921,0A6.008327554319921,6.008327554319921,0,1,1,-6.008327554319921,0A6.008327554319921,6.008327554319921,0,1,1,6.008327554319921,0" style="fill: #f58518; stroke-width: 2; opacity: 0.7;"></path><path transform="translate(157.89473684210523,0)" d="M4.2485291572496005,0A4.2485291572496005,4.2485291572496005,0,1,1,-4.2485291572496005,0A4.2485291572496005,4.2485291572496005,0,1,1,4.2485291572496005,0" style="fill: #f58518; stroke-width: 2; opacity: 0.7;"></path><path transform="translate(178.9473684210526,0)" d="M4.2485291572496005,0A4.2485291572496005,4.2485291572496005,0,1,1,-4.2485291572496005,0A4.2485291572496005,4.2485291572496005,0,1,1,4.2485291572496005,0" style="fill: #f58518; stroke-width: 2; opacity: 0.7;"></path><path transform="translate(199.99999999999997,0)" d="M6.008327554319921,0A6.008327554319921,6.008327554319921,0,1,1,-6.008327554319921,0A6.008327554319921,6.008327554319921,0,1,1,6.008327554319921,0" style="fill: #f58518; stroke-width: 2; opacity: 0.7;"></path><path transform="translate(221.05263157894734,0)" d="M4.2485291572496005,0A4.2485291572496005,4.2485291572496005,0,1,1,-4.2485291572496005,0A4.2485291572496005,4.2485291572496005,0,1,1,4.2485291572496005,0" style="fill: #f58518; stroke-width: 2; opacity: 0.7;"></path><path transform="translate(242.1052631578947,0)" d="M4.2485291572496005,0A4.2485291572496005,4.2485291572496005,0,1,1,-4.2485291572496005,0A4.2485291572496005,4.2485291572496005,0,1,1,4.2485291572496005,0" style="fill: #f58518; stroke-width: 2; opacity: 0.7;"></path><path transform="translate(263.1578947368421,0)" d="M6.008327554319921,0A6.008327554319921,6.008327554319921,0,1,1,-6.008327554319921,0A6.008327554319921,6.008327554319921,0,1,1,6.008327554319921,0" style="fill: #f58518; stroke-width: 2; opacity: 0.7;"></path><path transform="translate(263.1578947368421,0.3)" d="M4.2485291572496005,0A4.2485291572496005,4.2485291572496005,0,1,1,-4.2485291572496005,0A4.2485291572496005,4.2485291572496005,0,1,1,4.2485291572496005,0" style="fill: #f58518; stroke-width: 2; opacity: 0.7;"></path><path transform="translate(284.2105263157895,0)" d="M4.2485291572496005,0A4.2485291572496005,4.2485291572496005,0,1,1,-4.2485291572496005,0A4.2485291572496005,4.2485291572496005,0,1,1,4.2485291572496005,0" style="fill: #f58518; stroke-width: 2; opacity: 0.7;"></path><path transform="translate(305.2631578947368,0)" d="M4.2485291572496005,0A4.2485291572496005,4.2485291572496005,0,1,1,-4.2485291572496005,0A4.2485291572496005,4.2485291572496005,0,1,1,4.2485291572496005,0" style="fill: #f58518; stroke-width: 2; opacity: 0.7;"></path><path transform="translate(326.31578947368416,0)" d="M4.2485291572496005,0A4.2485291572496005,4.2485291572496005,0,1,1,-4.2485291572496005,0A4.2485291572496005,4.2485291572496005,0,1,1,4.2485291572496005,0" style="fill: #f58518; stroke-width: 2; opacity: 0.7;"></path><path transform="translate(326.31578947368416,1.2)" d="M4.2485291572496005,0A4.2485291572496005,4.2485291572496005,0,1,1,-4.2485291572496005,0A4.2485291572496005,4.2485291572496005,0,1,1,4.2485291572496005,0" style="fill: #f58518; stroke-width: 2; opacity: 0.7;"></path><path transform="translate(347.36842105263156,0)" d="M4.2485291572496005,0A4.2485291572496005,4.2485291572496005,0,1,1,-4.2485291572496005,0A4.2485291572496005,4.2485291572496005,0,1,1,4.2485291572496005,0" style="fill: #f58518; stroke-width: 2; opacity: 0.7;"></path><path transform="translate(347.36842105263156,3.5999999999999996)" d="M4.2485291572496005,0A4.2485291572496005,4.2485291572496005,0,1,1,-4.2485291572496005,0A4.2485291572496005,4.2485291572496005,0,1,1,4.2485291572496005,0" style="fill: #f58518; stroke-width: 2; opacity: 0.7;"></path><path transform="translate(368.42105263157896,0)" d="M9.5,0A9.5,9.5,0,1,1,-9.5,0A9.5,9.5,0,1,1,9.5,0" style="fill: #f58518; stroke-width: 2; opacity: 0.7;"></path><path transform="translate(389.4736842105263,0)" d="M7.358668357794092,0A7.358668357794092,7.358668357794092,0,1,1,-7.358668357794092,0A7.358668357794092,7.358668357794092,0,1,1,7.358668357794092,0" style="fill: #f58518; stroke-width: 2; opacity: 0.7;"></path><path transform="translate(410.52631578947364,26.6)" d="M4.2485291572496005,0A4.2485291572496005,4.2485291572496005,0,1,1,-4.2485291572496005,0A4.2485291572496005,4.2485291572496005,0,1,1,4.2485291572496005,0" style="fill: #f58518; stroke-width: 2; opacity: 0.7;"></path><path transform="translate(431.57894736842104,0)" d="M4.2485291572496005,0A4.2485291572496005,4.2485291572496005,0,1,1,-4.2485291572496005,0A4.2485291572496005,4.2485291572496005,0,1,1,4.2485291572496005,0" style="fill: #f58518; stroke-width: 2; opacity: 0.7;"></path><path transform="translate(452.63157894736844,0)" d="M4.2485291572496005,0A4.2485291572496005,4.2485291572496005,0,1,1,-4.2485291572496005,0A4.2485291572496005,4.2485291572496005,0,1,1,4.2485291572496005,0" style="fill: #f58518; stroke-width: 2; opacity: 0.7;"></path><path transform="translate(473.6842105263158,0)" d="M4.2485291572496005,0A4.2485291572496005,4.2485291572496005,0,1,1,-4.2485291572496005,0A4.2485291572496005,4.2485291572496005,0,1,1,4.2485291572496005,0" style="fill: #f58518; stroke-width: 2; opacity: 0.7;"></path><path transform="translate(494.7368421052631,0)" d="M6.008327554319921,0A6.008327554319921,6.008327554319921,0,1,1,-6.008327554319921,0A6.008327554319921,6.008327554319921,0,1,1,6.008327554319921,0" style="fill: #f58518; stroke-width: 2; opacity: 0.7;"></path><path transform="translate(515.7894736842105,0)" d="M4.2485291572496005,0A4.2485291572496005,4.2485291572496005,0,1,1,-4.2485291572496005,0A4.2485291572496005,4.2485291572496005,0,1,1,4.2485291572496005,0" style="fill: #f58518; stroke-width: 2; opacity: 0.7;"></path><path transform="translate(536.8421052631579,0)" d="M4.2485291572496005,0A4.2485291572496005,4.2485291572496005,0,1,1,-4.2485291572496005,0A4.2485291572496005,4.2485291572496005,0,1,1,4.2485291572496005,0" style="fill: #f58518; stroke-width: 2; opacity: 0.7;"></path><path transform="translate(557.8947368421053,0)" d="M6.008327554319921,0A6.008327554319921,6.008327554319921,0,1,1,-6.008327554319921,0A6.008327554319921,6.008327554319921,0,1,1,6.008327554319921,0" style="fill: #f58518; stroke-width: 2; opacity: 0.7;"></path><path transform="translate(578.9473684210526,0)" d="M9.5,0A9.5,9.5,0,1,1,-9.5,0A9.5,9.5,0,1,1,9.5,0" style="fill: #f58518; stroke-width: 2; opacity: 0.7;"></path><path transform="translate(600,0)" d="M6.008327554319921,0A6.008327554319921,6.008327554319921,0,1,1,-6.008327554319921,0A6.008327554319921,6.008327554319921,0,1,1,6.008327554319921,0" style="fill: #f58518; stroke-width: 2; opacity: 0.7;"></path><path transform="translate(621.0526315789474,0)" d="M4.2485291572496005,0A4.2485291572496005,4.2485291572496005,0,1,1,-4.2485291572496005,0A4.2485291572496005,4.2485291572496005,0,1,1,4.2485291572496005,0" style="fill: #f58518; stroke-width: 2; opacity: 0.7;"></path><path transform="translate(642.1052631578947,0)" d="M7.358668357794092,0A7.358668357794092,7.358668357794092,0,1,1,-7.358668357794092,0A7.358668357794092,7.358668357794092,0,1,1,7.358668357794092,0" style="fill: #f58518; stroke-width: 2; opacity: 0.7;"></path><path transform="translate(663.1578947368421,210)" d="M4.2485291572496005,0A4.2485291572496005,4.2485291572496005,0,1,1,-4.2485291572496005,0A4.2485291572496005,4.2485291572496005,0,1,1,4.2485291572496005,0" style="fill: #f58518; stroke-width: 2; opacity: 0.7;"></path><path transform="translate(663.1578947368421,270)" d="M4.2485291572496005,0A4.2485291572496005,4.2485291572496005,0,1,1,-4.2485291572496005,0A4.2485291572496005,4.2485291572496005,0,1,1,4.2485291572496005,0" style="fill: #f58518; stroke-width: 2; opacity: 0.7;"></path><path transform="translate(663.1578947368421,390)" d="M4.2485291572496005,0A4.2485291572496005,4.2485291572496005,0,1,1,-4.2485291572496005,0A4.2485291572496005,4.2485291572496005,0,1,1,4.2485291572496005,0" style="fill: #f58518; stroke-width: 2; opacity: 0.7;"></path><path transform="translate(663.1578947368421,5.2)" d="M4.2485291572496005,0A4.2485291572496005,4.2485291572496005,0,1,1,-4.2485291572496005,0A4.2485291572496005,4.2485291572496005,0,1,1,4.2485291572496005,0" style="fill: #f58518; stroke-width: 2; opacity: 0.7;"></path><path transform="translate(684.2105263157895,12)" d="M4.2485291572496005,0A4.2485291572496005,4.2485291572496005,0,1,1,-4.2485291572496005,0A4.2485291572496005,4.2485291572496005,0,1,1,4.2485291572496005,0" style="fill: #f58518; stroke-width: 2; opacity: 0.7;"></path><path transform="translate(705.2631578947369,0)" d="M4.2485291572496005,0A4.2485291572496005,4.2485291572496005,0,1,1,-4.2485291572496005,0A4.2485291572496005,4.2485291572496005,0,1,1,4.2485291572496005,0" style="fill: #f58518; stroke-width: 2; opacity: 0.7;"></path><path transform="translate(726.3157894736843,197.2)" d="M4.2485291572496005,0A4.2485291572496005,4.2485291572496005,0,1,1,-4.2485291572496005,0A4.2485291572496005,4.2485291572496005,0,1,1,4.2485291572496005,0" style="fill: #f58518; stroke-width: 2; opacity: 0.7;"></path><path transform="translate(747.3684210526316,30)" d="M4.2485291572496005,0A4.2485291572496005,4.2485291572496005,0,1,1,-4.2485291572496005,0A4.2485291572496005,4.2485291572496005,0,1,1,4.2485291572496005,0" style="fill: #f58518; stroke-width: 2; opacity: 0.7;"></path><path transform="translate(747.3684210526316,5.2)" d="M6.008327554319921,0A6.008327554319921,6.008327554319921,0,1,1,-6.008327554319921,0A6.008327554319921,6.008327554319921,0,1,1,6.008327554319921,0" style="fill: #f58518; stroke-width: 2; opacity: 0.7;"></path><path transform="translate(768.421052631579,0)" d="M4.2485291572496005,0A4.2485291572496005,4.2485291572496005,0,1,1,-4.2485291572496005,0A4.2485291572496005,4.2485291572496005,0,1,1,4.2485291572496005,0" style="fill: #f58518; stroke-width: 2; opacity: 0.7;"></path><path transform="translate(789.4736842105264,0.2)" d="M4.2485291572496005,0A4.2485291572496005,4.2485291572496005,0,1,1,-4.2485291572496005,0A4.2485291572496005,4.2485291572496005,0,1,1,4.2485291572496005,0" style="fill: #f58518; stroke-width: 2; opacity: 0.7;"></path></g><g class="mark-group role-legend"><g transform="translate(818,0)"><path class="background" d="M0,0h45v114h-45Z" style="pointer-events: none; fill: none;"></path><g><g class="mark-group role-legend-entry"><g transform="translate(0,16)"><path class="background" d="M0,0h0v0h0Z" style="pointer-events: none; fill: none;"></path><g><g class="mark-group role-scope"><g transform="translate(0,0)"><path class="background" d="M0,0h30.5615234375v10.7485291572496h-30.5615234375Z" style="pointer-events: none; fill: none; opacity: 1;"></path><g><g class="mark-symbol role-legend-symbol" style="pointer-events: none;"><path transform="translate(10.5,5)" d="M4.2485291572496005,0A4.2485291572496005,4.2485291572496005,0,1,1,-4.2485291572496005,0A4.2485291572496005,4.2485291572496005,0,1,1,4.2485291572496005,0" style="fill: #f58518; stroke: none; stroke-width: 1.5; opacity: 0.7;"></path></g><g class="mark-text role-legend-label" style="pointer-events: none;"><text text-anchor="start" transform="translate(25,8)" style="font-family: sans-serif; font-size: 10px; fill: #000; opacity: 1;">1</text></g></g><path class="foreground" d="" style="pointer-events: none; display: none; fill: none;"></path></g><g transform="translate(0,14)"><path class="background" d="M0,0h30.5615234375v14.50832755431992h-30.5615234375Z" style="pointer-events: none; fill: none; opacity: 1;"></path><g><g class="mark-symbol role-legend-symbol" style="pointer-events: none;"><path transform="translate(10.5,7)" d="M6.008327554319921,0A6.008327554319921,6.008327554319921,0,1,1,-6.008327554319921,0A6.008327554319921,6.008327554319921,0,1,1,6.008327554319921,0" style="fill: #f58518; stroke: none; stroke-width: 1.5; opacity: 0.7;"></path></g><g class="mark-text role-legend-label" style="pointer-events: none;"><text text-anchor="start" transform="translate(25,10)" style="font-family: sans-serif; font-size: 10px; fill: #000; opacity: 1;">2</text></g></g><path class="foreground" d="" style="pointer-events: none; display: none; fill: none;"></path></g><g transform="translate(0,32)"><path class="background" d="M0,0h30.5615234375v17.358668357794087h-30.5615234375Z" style="pointer-events: none; fill: none; opacity: 1;"></path><g><g class="mark-symbol role-legend-symbol" style="pointer-events: none;"><path transform="translate(10.5,8.5)" d="M7.358668357794092,0A7.358668357794092,7.358668357794092,0,1,1,-7.358668357794092,0A7.358668357794092,7.358668357794092,0,1,1,7.358668357794092,0" style="fill: #f58518; stroke: none; stroke-width: 1.5; opacity: 0.7;"></path></g><g class="mark-text role-legend-label" style="pointer-events: none;"><text text-anchor="start" transform="translate(25,11.5)" style="font-family: sans-serif; font-size: 10px; fill: #000; opacity: 1;">3</text></g></g><path class="foreground" d="" style="pointer-events: none; display: none; fill: none;"></path></g><g transform="translate(0,53)"><path class="background" d="M0,0h30.5615234375v19.4970583144992h-30.5615234375Z" style="pointer-events: none; fill: none; opacity: 1;"></path><g><g class="mark-symbol role-legend-symbol" style="pointer-events: none;"><path transform="translate(10.5,9.5)" d="M8.497058314499201,0A8.497058314499201,8.497058314499201,0,1,1,-8.497058314499201,0A8.497058314499201,8.497058314499201,0,1,1,8.497058314499201,0" style="fill: #f58518; stroke: none; stroke-width: 1.5; opacity: 0.7;"></path></g><g class="mark-text role-legend-label" style="pointer-events: none;"><text text-anchor="start" transform="translate(25,12.5)" style="font-family: sans-serif; font-size: 10px; fill: #000; opacity: 1;">4</text></g></g><path class="foreground" d="" style="pointer-events: none; display: none; fill: none;"></path></g><g transform="translate(0,76)"><path class="background" d="M0,0h30.5615234375v21.5h-30.5615234375Z" style="pointer-events: none; fill: none; opacity: 1;"></path><g><g class="mark-symbol role-legend-symbol" style="pointer-events: none;"><path transform="translate(10.5,10.5)" d="M9.5,0A9.5,9.5,0,1,1,-9.5,0A9.5,9.5,0,1,1,9.5,0" style="fill: #f58518; stroke: none; stroke-width: 1.5; opacity: 0.7;"></path></g><g class="mark-text role-legend-label" style="pointer-events: none;"><text text-anchor="start" transform="translate(25,13.5)" style="font-family: sans-serif; font-size: 10px; fill: #000; opacity: 1;">5</text></g></g><path class="foreground" d="" style="pointer-events: none; display: none; fill: none;"></path></g></g></g><path class="foreground" d="" style="pointer-events: none; display: none; fill: none;"></path></g></g><g class="mark-text role-legend-title" style="pointer-events: none;"><text text-anchor="start" transform="translate(0,9)" style="font-family: sans-serif; font-size: 11px; font-weight: bold; fill: #000; opacity: 1;">Quantity</text></g></g><path class="foreground" d="" style="pointer-events: none; display: none; fill: none;"></path></g></g><g class="mark-group role-title"><g transform="translate(400,-26.5)"><path class="background" d="M0,0h0v0h0Z" style="pointer-events: none; fill: none;"></path><g><g class="mark-text role-title-text" style="pointer-events: none;"><text text-anchor="middle" transform="translate(0,10)" style="font-family: sans-serif; font-size: 13px; font-weight: bold; fill: #000; opacity: 1;">Depth of cataloged alotypes per year</text></g></g><path class="foreground" d="" style="pointer-events: none; display: none; fill: none;"></path></g></g><g class="mark-group role-axis"><g transform="translate(0.5,400.5)"><path class="background" d="M0,0h0v0h0Z" style="pointer-events: none; fill: none;"></path><g><g class="mark-rule role-axis-tick" style="pointer-events: none;"><line transform="translate(11,0)" x2="0" y2="5" style="fill: none; stroke: #888; stroke-width: 1; opacity: 1;"></line><line transform="translate(32,0)" x2="0" y2="5" style="fill: none; stroke: #888; stroke-width: 1; opacity: 1;"></line><line transform="translate(53,0)" x2="0" y2="5" style="fill: none; stroke: #888; stroke-width: 1; opacity: 1;"></line><line transform="translate(74,0)" x2="0" y2="5" style="fill: none; stroke: #888; stroke-width: 1; opacity: 1;"></line><line transform="translate(95,0)" x2="0" y2="5" style="fill: none; stroke: #888; stroke-width: 1; opacity: 1;"></line><line transform="translate(116,0)" x2="0" y2="5" style="fill: none; stroke: #888; stroke-width: 1; opacity: 1;"></line><line transform="translate(137,0)" x2="0" y2="5" style="fill: none; stroke: #888; stroke-width: 1; opacity: 1;"></line><line transform="translate(158,0)" x2="0" y2="5" style="fill: none; stroke: #888; stroke-width: 1; opacity: 1;"></line><line transform="translate(179,0)" x2="0" y2="5" style="fill: none; stroke: #888; stroke-width: 1; opacity: 1;"></line><line transform="translate(200,0)" x2="0" y2="5" style="fill: none; stroke: #888; stroke-width: 1; opacity: 1;"></line><line transform="translate(221,0)" x2="0" y2="5" style="fill: none; stroke: #888; stroke-width: 1; opacity: 1;"></line><line transform="translate(242,0)" x2="0" y2="5" style="fill: none; stroke: #888; stroke-width: 1; opacity: 1;"></line><line transform="translate(263,0)" x2="0" y2="5" style="fill: none; stroke: #888; stroke-width: 1; opacity: 1;"></line><line transform="translate(284,0)" x2="0" y2="5" style="fill: none; stroke: #888; stroke-width: 1; opacity: 1;"></line><line transform="translate(305,0)" x2="0" y2="5" style="fill: none; stroke: #888; stroke-width: 1; opacity: 1;"></line><line transform="translate(326,0)" x2="0" y2="5" style="fill: none; stroke: #888; stroke-width: 1; opacity: 1;"></line><line transform="translate(347,0)" x2="0" y2="5" style="fill: none; stroke: #888; stroke-width: 1; opacity: 1;"></line><line transform="translate(368,0)" x2="0" y2="5" style="fill: none; stroke: #888; stroke-width: 1; opacity: 1;"></line><line transform="translate(389,0)" x2="0" y2="5" style="fill: none; stroke: #888; stroke-width: 1; opacity: 1;"></line><line transform="translate(411,0)" x2="0" y2="5" style="fill: none; stroke: #888; stroke-width: 1; opacity: 1;"></line><line transform="translate(432,0)" x2="0" y2="5" style="fill: none; stroke: #888; stroke-width: 1; opacity: 1;"></line><line transform="translate(453,0)" x2="0" y2="5" style="fill: none; stroke: #888; stroke-width: 1; opacity: 1;"></line><line transform="translate(474,0)" x2="0" y2="5" style="fill: none; stroke: #888; stroke-width: 1; opacity: 1;"></line><line transform="translate(495,0)" x2="0" y2="5" style="fill: none; stroke: #888; stroke-width: 1; opacity: 1;"></line><line transform="translate(516,0)" x2="0" y2="5" style="fill: none; stroke: #888; stroke-width: 1; opacity: 1;"></line><line transform="translate(537,0)" x2="0" y2="5" style="fill: none; stroke: #888; stroke-width: 1; opacity: 1;"></line><line transform="translate(558,0)" x2="0" y2="5" style="fill: none; stroke: #888; stroke-width: 1; opacity: 1;"></line><line transform="translate(579,0)" x2="0" y2="5" style="fill: none; stroke: #888; stroke-width: 1; opacity: 1;"></line><line transform="translate(600,0)" x2="0" y2="5" style="fill: none; stroke: #888; stroke-width: 1; opacity: 1;"></line><line transform="translate(621,0)" x2="0" y2="5" style="fill: none; stroke: #888; stroke-width: 1; opacity: 1;"></line><line transform="translate(642,0)" x2="0" y2="5" style="fill: none; stroke: #888; stroke-width: 1; opacity: 1;"></line><line transform="translate(663,0)" x2="0" y2="5" style="fill: none; stroke: #888; stroke-width: 1; opacity: 1;"></line><line transform="translate(684,0)" x2="0" y2="5" style="fill: none; stroke: #888; stroke-width: 1; opacity: 1;"></line><line transform="translate(705,0)" x2="0" y2="5" style="fill: none; stroke: #888; stroke-width: 1; opacity: 1;"></line><line transform="translate(726,0)" x2="0" y2="5" style="fill: none; stroke: #888; stroke-width: 1; opacity: 1;"></line><line transform="translate(747,0)" x2="0" y2="5" style="fill: none; stroke: #888; stroke-width: 1; opacity: 1;"></line><line transform="translate(768,0)" x2="0" y2="5" style="fill: none; stroke: #888; stroke-width: 1; opacity: 1;"></line><line transform="translate(789,0)" x2="0" y2="5" style="fill: none; stroke: #888; stroke-width: 1; opacity: 1;"></line></g><g class="mark-text role-axis-label" style="pointer-events: none;"><text text-anchor="end" transform="translate(10.526315789473642,7) rotate(270) translate(0,3)" style="font-family: sans-serif; font-size: 10px; fill: #000; opacity: 1;">1910</text><text text-anchor="end" transform="translate(31.578947368421012,7) rotate(270) translate(0,3)" style="font-family: sans-serif; font-size: 10px; fill: #000; opacity: 1;">1911</text><text text-anchor="end" transform="translate(52.63157894736838,7) rotate(270) translate(0,3)" style="font-family: sans-serif; font-size: 10px; fill: #000; opacity: 1;">1944</text><text text-anchor="end" transform="translate(73.68421052631575,7) rotate(270) translate(0,3)" style="font-family: sans-serif; font-size: 10px; fill: #000; opacity: 1;">1947</text><text text-anchor="end" transform="translate(94.73684210526312,7) rotate(270) translate(0,3)" style="font-family: sans-serif; font-size: 10px; fill: #000; opacity: 1;">1948</text><text text-anchor="end" transform="translate(115.78947368421049,7) rotate(270) translate(0,3)" style="font-family: sans-serif; font-size: 10px; fill: #000; opacity: 1;">1950</text><text text-anchor="end" transform="translate(136.84210526315786,7) rotate(270) translate(0,3)" style="font-family: sans-serif; font-size: 10px; fill: #000; opacity: 1;">1951</text><text text-anchor="end" transform="translate(157.89473684210523,7) rotate(270) translate(0,3)" style="font-family: sans-serif; font-size: 10px; fill: #000; opacity: 1;">1952</text><text text-anchor="end" transform="translate(178.9473684210526,7) rotate(270) translate(0,3)" style="font-family: sans-serif; font-size: 10px; fill: #000; opacity: 1;">1953</text><text text-anchor="end" transform="translate(199.99999999999997,7) rotate(270) translate(0,3)" style="font-family: sans-serif; font-size: 10px; fill: #000; opacity: 1;">1955</text><text text-anchor="end" transform="translate(221.05263157894734,7) rotate(270) translate(0,3)" style="font-family: sans-serif; font-size: 10px; fill: #000; opacity: 1;">1957</text><text text-anchor="end" transform="translate(242.1052631578947,7) rotate(270) translate(0,3)" style="font-family: sans-serif; font-size: 10px; fill: #000; opacity: 1;">1958</text><text text-anchor="end" transform="translate(263.1578947368421,7) rotate(270) translate(0,3)" style="font-family: sans-serif; font-size: 10px; fill: #000; opacity: 1;">1959</text><text text-anchor="end" transform="translate(284.2105263157895,7) rotate(270) translate(0,3)" style="font-family: sans-serif; font-size: 10px; fill: #000; opacity: 1;">1960</text><text text-anchor="end" transform="translate(305.2631578947368,7) rotate(270) translate(0,3)" style="font-family: sans-serif; font-size: 10px; fill: #000; opacity: 1;">1961</text><text text-anchor="end" transform="translate(326.31578947368416,7) rotate(270) translate(0,3)" style="font-family: sans-serif; font-size: 10px; fill: #000; opacity: 1;">1962</text><text text-anchor="end" transform="translate(347.36842105263156,7) rotate(270) translate(0,3)" style="font-family: sans-serif; font-size: 10px; fill: #000; opacity: 1;">1963</text><text text-anchor="end" transform="translate(368.42105263157896,7) rotate(270) translate(0,3)" style="font-family: sans-serif; font-size: 10px; fill: #000; opacity: 1;">1964</text><text text-anchor="end" transform="translate(389.4736842105263,7) rotate(270) translate(0,3)" style="font-family: sans-serif; font-size: 10px; fill: #000; opacity: 1;">1965</text><text text-anchor="end" transform="translate(410.52631578947364,7) rotate(270) translate(0,3)" style="font-family: sans-serif; font-size: 10px; fill: #000; opacity: 1;">1966</text><text text-anchor="end" transform="translate(431.57894736842104,7) rotate(270) translate(0,3)" style="font-family: sans-serif; font-size: 10px; fill: #000; opacity: 1;">1967</text><text text-anchor="end" transform="translate(452.63157894736844,7) rotate(270) translate(0,3)" style="font-family: sans-serif; font-size: 10px; fill: #000; opacity: 1;">1973</text><text text-anchor="end" transform="translate(473.6842105263158,7) rotate(270) translate(0,3)" style="font-family: sans-serif; font-size: 10px; fill: #000; opacity: 1;">1989</text><text text-anchor="end" transform="translate(494.7368421052631,7) rotate(270) translate(0,3)" style="font-family: sans-serif; font-size: 10px; fill: #000; opacity: 1;">1992</text><text text-anchor="end" transform="translate(515.7894736842105,7) rotate(270) translate(0,3)" style="font-family: sans-serif; font-size: 10px; fill: #000; opacity: 1;">1993</text><text text-anchor="end" transform="translate(536.8421052631579,7) rotate(270) translate(0,3)" style="font-family: sans-serif; font-size: 10px; fill: #000; opacity: 1;">1995</text><text text-anchor="end" transform="translate(557.8947368421053,7) rotate(270) translate(0,3)" style="font-family: sans-serif; font-size: 10px; fill: #000; opacity: 1;">1996</text><text text-anchor="end" transform="translate(578.9473684210526,7) rotate(270) translate(0,3)" style="font-family: sans-serif; font-size: 10px; fill: #000; opacity: 1;">1997</text><text text-anchor="end" transform="translate(600,7) rotate(270) translate(0,3)" style="font-family: sans-serif; font-size: 10px; fill: #000; opacity: 1;">1998</text><text text-anchor="end" transform="translate(621.0526315789474,7) rotate(270) translate(0,3)" style="font-family: sans-serif; font-size: 10px; fill: #000; opacity: 1;">1999</text><text text-anchor="end" transform="translate(642.1052631578947,7) rotate(270) translate(0,3)" style="font-family: sans-serif; font-size: 10px; fill: #000; opacity: 1;">2001</text><text text-anchor="end" transform="translate(663.1578947368421,7) rotate(270) translate(0,3)" style="font-family: sans-serif; font-size: 10px; fill: #000; opacity: 1;">2002</text><text text-anchor="end" transform="translate(684.2105263157895,7) rotate(270) translate(0,3)" style="font-family: sans-serif; font-size: 10px; fill: #000; opacity: 1;">2004</text><text text-anchor="end" transform="translate(705.2631578947369,7) rotate(270) translate(0,3)" style="font-family: sans-serif; font-size: 10px; fill: #000; opacity: 1;">2007</text><text text-anchor="end" transform="translate(726.3157894736843,7) rotate(270) translate(0,3)" style="font-family: sans-serif; font-size: 10px; fill: #000; opacity: 1;">2008</text><text text-anchor="end" transform="translate(747.3684210526316,7) rotate(270) translate(0,3)" style="font-family: sans-serif; font-size: 10px; fill: #000; opacity: 1;">2009</text><text text-anchor="end" transform="translate(768.421052631579,7) rotate(270) translate(0,3)" style="font-family: sans-serif; font-size: 10px; fill: #000; opacity: 1;">2011</text><text text-anchor="end" transform="translate(789.4736842105264,7) rotate(270) translate(0,3)" style="font-family: sans-serif; font-size: 10px; fill: #000; opacity: 1;">2015</text></g><g class="mark-rule role-axis-domain" style="pointer-events: none;"><line transform="translate(0,0)" x2="800" y2="0" style="fill: none; stroke: #888; stroke-width: 1; opacity: 1;"></line></g><g class="mark-text role-axis-title" style="pointer-events: none;"><text text-anchor="middle" transform="translate(400,42.24609375)" style="font-family: sans-serif; font-size: 11px; font-weight: bold; fill: #000; opacity: 1;">Year</text></g></g><path class="foreground" d="" style="pointer-events: none; display: none; fill: none;"></path></g></g><g class="mark-group role-axis"><g transform="translate(0.5,0.5)"><path class="background" d="M0,0h0v0h0Z" style="pointer-events: none; fill: none;"></path><g><g class="mark-rule role-axis-tick" style="pointer-events: none;"><line transform="translate(0,400)" x2="-5" y2="0" style="fill: none; stroke: #888; stroke-width: 1; opacity: 1;"></line><line transform="translate(0,360)" x2="-5" y2="0" style="fill: none; stroke: #888; stroke-width: 1; opacity: 1;"></line><line transform="translate(0,320)" x2="-5" y2="0" style="fill: none; stroke: #888; stroke-width: 1; opacity: 1;"></line><line transform="translate(0,280)" x2="-5" y2="0" style="fill: none; stroke: #888; stroke-width: 1; opacity: 1;"></line><line transform="translate(0,240)" x2="-5" y2="0" style="fill: none; stroke: #888; stroke-width: 1; opacity: 1;"></line><line transform="translate(0,200)" x2="-5" y2="0" style="fill: none; stroke: #888; stroke-width: 1; opacity: 1;"></line><line transform="translate(0,160)" x2="-5" y2="0" style="fill: none; stroke: #888; stroke-width: 1; opacity: 1;"></line><line transform="translate(0,120)" x2="-5" y2="0" style="fill: none; stroke: #888; stroke-width: 1; opacity: 1;"></line><line transform="translate(0,80)" x2="-5" y2="0" style="fill: none; stroke: #888; stroke-width: 1; opacity: 1;"></line><line transform="translate(0,40)" x2="-5" y2="0" style="fill: none; stroke: #888; stroke-width: 1; opacity: 1;"></line><line transform="translate(0,0)" x2="-5" y2="0" style="fill: none; stroke: #888; stroke-width: 1; opacity: 1;"></line></g><g class="mark-text role-axis-label" style="pointer-events: none;"><text text-anchor="end" transform="translate(-7,403)" style="font-family: sans-serif; font-size: 10px; fill: #000; opacity: 1;">2,000</text><text text-anchor="end" transform="translate(-7,363)" style="font-family: sans-serif; font-size: 10px; fill: #000; opacity: 1;">1,800</text><text text-anchor="end" transform="translate(-7,323)" style="font-family: sans-serif; font-size: 10px; fill: #000; opacity: 1;">1,600</text><text text-anchor="end" transform="translate(-7,283)" style="font-family: sans-serif; font-size: 10px; fill: #000; opacity: 1;">1,400</text><text text-anchor="end" transform="translate(-7,243)" style="font-family: sans-serif; font-size: 10px; fill: #000; opacity: 1;">1,200</text><text text-anchor="end" transform="translate(-7,203)" style="font-family: sans-serif; font-size: 10px; fill: #000; opacity: 1;">1,000</text><text text-anchor="end" transform="translate(-7,163)" style="font-family: sans-serif; font-size: 10px; fill: #000; opacity: 1;">800</text><text text-anchor="end" transform="translate(-7,123)" style="font-family: sans-serif; font-size: 10px; fill: #000; opacity: 1;">600</text><text text-anchor="end" transform="translate(-7,83)" style="font-family: sans-serif; font-size: 10px; fill: #000; opacity: 1;">400</text><text text-anchor="end" transform="translate(-7,43)" style="font-family: sans-serif; font-size: 10px; fill: #000; opacity: 1;">200</text><text text-anchor="end" transform="translate(-7,3)" style="font-family: sans-serif; font-size: 10px; fill: #000; opacity: 1;">0</text></g><g class="mark-rule role-axis-domain" style="pointer-events: none;"><line transform="translate(0,400)" x2="0" y2="-400" style="fill: none; stroke: #888; stroke-width: 1; opacity: 1;"></line></g><g class="mark-text role-axis-title" style="pointer-events: none;"><text text-anchor="middle" transform="translate(-36.0244140625,200) rotate(-90) translate(0,-2)" style="font-family: sans-serif; font-size: 11px; font-weight: bold; fill: #000; opacity: 1;">Depth</text></g></g><path class="foreground" d="" style="pointer-events: none; display: none; fill: none;"></path></g></g></g><path class="foreground" d="" style="display: none; fill: none;"></path></g></g></g></svg>