<svg class="marks" width="921" height="482" viewBox="0 0 921 482" version="1.1" xmlns="http://www.w3.org/2000/svg" xmlns:xlink="http://www.w3.org/1999/xlink"><g transform="translate(53,32)"><g class="mark-group role-frame root"><g transform="translate(0,0)"><path class="background" d="M0.5,0.5h800v400h-800Z" style="fill: none; stroke: #ddd;"></path><g><g class="mark-group role-axis"><g transform="translate(0.5,0.5)"><path class="background" d="M0,0h0v0h0Z" style="pointer-events: none; fill: none;"></path><g><g class="mark-rule role-axis-grid" style="pointer-events: none;"><line transform="translate(0,400)" x2="800" y2="0" style="fill: none; stroke: #ddd; stroke-width: 1; opacity: 1;"></line><line transform="translate(0,360)" x2="800" y2="0" style="fill: none; stroke: #ddd; stroke-width: 1; opacity: 1;"></line><line transform="translate(0,320)" x2="800" y2="0" style="fill: none; stroke: #ddd; stroke-width: 1; opacity: 1;"></line><line transform="translate(0,280)" x2="800" y2="0" style="fill: none; stroke: #ddd; stroke-width: 1; opacity: 1;"></line><line transform="translate(0,240)" x2="800" y2="0" style="fill: none; stroke: #ddd; stroke-width: 1; opacity: 1;"></line><line transform="translate(0,200)" x2="800" y2="0" style="fill: none; stroke: #ddd; stroke-width: 1; opacity: 1;"></line><line transform="translate(0,160)" x2="800" y2="0" style="fill: none; stroke: #ddd; stroke-width: 1; opacity: 1;"></line><line transform="translate(0,120)" x2="800" y2="0" style="fill: none; stroke: #ddd; stroke-width: 1; opacity: 1;"></line><line transform="translate(0,80)" x2="800" y2="0" style="fill: none; stroke: #ddd; stroke-width: 1; opacity: 1;"></line><line transform="translate(0,40)" x2="800" y2="0" style="fill: none; stroke: #ddd; stroke-width: 1; opacity: 1;"></line><line transform="translate(0,0)" x2="800" y2="0" style="fill: none; stroke: #ddd; stroke-width: 1; opacity: 1;"></line></g></g><path class="foreground" d="" style="pointer-events: none; display: none; fill: none;"></path></g></g><g class="mark-symbol role-mark marks"><path transform="translate(6.666666666666629,0)" d="M2.742413778650722,0A2.742413778650722,2.742413778650722,0,1,1,-2.742413778650722,0A2.742413778650722,2.742413778650722,0,1,1,2.742413778650722,0" style="fill: #d62728; stroke-width: 2; opacity: 0.7;"></path><path transform="translate(19.999999999999964,0)" d="M2.742413778650722,0A2.742413778650722,2.742413778650722,0,1,1,-2.742413778650722,0A2.742413778650722,2.742413778650722,0,1,1,2.742413778650722,0" style="fill: #d62728; stroke-width: 2; opacity: 0.7;"></path><path transform="translate(33.3333333333333,0)" d="M3.8783587594066984,0A3.8783587594066984,3.8783587594066984,0,1,1,-3.8783587594066984,0A3.8783587594066984,3.8783587594066984,0,1,1,3.8783587594066984,0" style="fill: #d62728; stroke-width: 2; opacity: 0.7;"></path><path transform="translate(46.66666666666663,0)" d="M2.742413778650722,0A2.742413778650722,2.742413778650722,0,1,1,-2.742413778650722,0A2.742413778650722,2.742413778650722,0,1,1,2.742413778650722,0" style="fill: #d62728; stroke-width: 2; opacity: 0.7;"></path><path transform="translate(59.999999999999964,0)" d="M2.742413778650722,0A2.742413778650722,2.742413778650722,0,1,1,-2.742413778650722,0A2.742413778650722,2.742413778650722,0,1,1,2.742413778650722,0" style="fill: #d62728; stroke-width: 2; opacity: 0.7;"></path><path transform="translate(73.3333333333333,0)" d="M3.8783587594066984,0A3.8783587594066984,3.8783587594066984,0,1,1,-3.8783587594066984,0A3.8783587594066984,3.8783587594066984,0,1,1,3.8783587594066984,0" style="fill: #d62728; stroke-width: 2; opacity: 0.7;"></path><path transform="translate(86.66666666666663,0)" d="M3.8783587594066984,0A3.8783587594066984,3.8783587594066984,0,1,1,-3.8783587594066984,0A3.8783587594066984,3.8783587594066984,0,1,1,3.8783587594066984,0" style="fill: #d62728; stroke-width: 2; opacity: 0.7;"></path><path transform="translate(99.99999999999997,0)" d="M3.8783587594066984,0A3.8783587594066984,3.8783587594066984,0,1,1,-3.8783587594066984,0A3.8783587594066984,3.8783587594066984,0,1,1,3.8783587594066984,0" style="fill: #d62728; stroke-width: 2; opacity: 0.7;"></path><path transform="translate(113.3333333333333,0)" d="M2.742413778650722,0A2.742413778650722,2.742413778650722,0,1,1,-2.742413778650722,0A2.742413778650722,2.742413778650722,0,1,1,2.742413778650722,0" style="fill: #d62728; stroke-width: 2; opacity: 0.7;"></path><path transform="translate(126.66666666666663,0)" d="M2.742413778650722,0A2.742413778650722,2.742413778650722,0,1,1,-2.742413778650722,0A2.742413778650722,2.742413778650722,0,1,1,2.742413778650722,0" style="fill: #d62728; stroke-width: 2; opacity: 0.7;"></path><path transform="translate(139.99999999999997,0)" d="M3.8783587594066984,0A3.8783587594066984,3.8783587594066984,0,1,1,-3.8783587594066984,0A3.8783587594066984,3.8783587594066984,0,1,1,3.8783587594066984,0" style="fill: #d62728; stroke-width: 2; opacity: 0.7;"></path><path transform="translate(153.33333333333331,0)" d="M3.8783587594066984,0A3.8783587594066984,3.8783587594066984,0,1,1,-3.8783587594066984,0A3.8783587594066984,3.8783587594066984,0,1,1,3.8783587594066984,0" style="fill: #d62728; stroke-width: 2; opacity: 0.7;"></path><path transform="translate(166.66666666666663,0)" d="M2.742413778650722,0A2.742413778650722,2.742413778650722,0,1,1,-2.742413778650722,0A2.742413778650722,2.742413778650722,0,1,1,2.742413778650722,0" style="fill: #d62728; stroke-width: 2; opacity: 0.7;"></path><path transform="translate(179.99999999999997,0)" d="M4.75,0A4.75,4.75,0,1,1,-4.75,0A4.75,4.75,0,1,1,4.75,0" style="fill: #d62728; stroke-width: 2; opacity: 0.7;"></path><path transform="translate(179.99999999999997,0.3)" d="M2.742413778650722,0A2.742413778650722,2.742413778650722,0,1,1,-2.742413778650722,0A2.742413778650722,2.742413778650722,0,1,1,2.742413778650722,0" style="fill: #d62728; stroke-width: 2; opacity: 0.7;"></path><path transform="translate(193.33333333333331,0)" d="M3.8783587594066984,0A3.8783587594066984,3.8783587594066984,0,1,1,-3.8783587594066984,0A3.8783587594066984,3.8783587594066984,0,1,1,3.8783587594066984,0" style="fill: #d62728; stroke-width: 2; opacity: 0.7;"></path><path transform="translate(206.66666666666663,0)" d="M2.742413778650722,0A2.742413778650722,2.742413778650722,0,1,1,-2.742413778650722,0A2.742413778650722,2.742413778650722,0,1,1,2.742413778650722,0" style="fill: #d62728; stroke-width: 2; opacity: 0.7;"></path><path transform="translate(206.66666666666663,1.2)" d="M2.742413778650722,0A2.742413778650722,2.742413778650722,0,1,1,-2.742413778650722,0A2.742413778650722,2.742413778650722,0,1,1,2.742413778650722,0" style="fill: #d62728; stroke-width: 2; opacity: 0.7;"></path><path transform="translate(219.99999999999997,0)" d="M4.75,0A4.75,4.75,0,1,1,-4.75,0A4.75,4.75,0,1,1,4.75,0" style="fill: #d62728; stroke-width: 2; opacity: 0.7;"></path><path transform="translate(219.99999999999997,3.5999999999999996)" d="M2.742413778650722,0A2.742413778650722,2.742413778650722,0,1,1,-2.742413778650722,0A2.742413778650722,2.742413778650722,0,1,1,2.742413778650722,0" style="fill: #d62728; stroke-width: 2; opacity: 0.7;"></path><path transform="translate(233.33333333333331,0)" d="M7.255744850346747,0A7.255744850346747,7.255744850346747,0,1,1,-7.255744850346747,0A7.255744850346747,7.255744850346747,0,1,1,7.255744850346747,0" style="fill: #d62728; stroke-width: 2; opacity: 0.7;"></path><path transform="translate(246.66666666666663,0)" d="M5.484827557301444,0A5.484827557301444,5.484827557301444,0,1,1,-5.484827557301444,0A5.484827557301444,5.484827557301444,0,1,1,5.484827557301444,0" style="fill: #d62728; stroke-width: 2; opacity: 0.7;"></path><path transform="translate(260,0)" d="M3.8783587594066984,0A3.8783587594066984,3.8783587594066984,0,1,1,-3.8783587594066984,0A3.8783587594066984,3.8783587594066984,0,1,1,3.8783587594066984,0" style="fill: #d62728; stroke-width: 2; opacity: 0.7;"></path><path transform="translate(260,26.6)" d="M2.742413778650722,0A2.742413778650722,2.742413778650722,0,1,1,-2.742413778650722,0A2.742413778650722,2.742413778650722,0,1,1,2.742413778650722,0" style="fill: #d62728; stroke-width: 2; opacity: 0.7;"></path><path transform="translate(273.3333333333333,0)" d="M6.132223631495077,0A6.132223631495077,6.132223631495077,0,1,1,-6.132223631495077,0A6.132223631495077,6.132223631495077,0,1,1,6.132223631495077,0" style="fill: #d62728; stroke-width: 2; opacity: 0.7;"></path><path transform="translate(286.66666666666663,26.400000000000002)" d="M2.742413778650722,0A2.742413778650722,2.742413778650722,0,1,1,-2.742413778650722,0A2.742413778650722,2.742413778650722,0,1,1,2.742413778650722,0" style="fill: #d62728; stroke-width: 2; opacity: 0.7;"></path><path transform="translate(300,0)" d="M4.75,0A4.75,4.75,0,1,1,-4.75,0A4.75,4.75,0,1,1,4.75,0" style="fill: #d62728; stroke-width: 2; opacity: 0.7;"></path><path transform="translate(300,2.4)" d="M2.742413778650722,0A2.742413778650722,2.742413778650722,0,1,1,-2.742413778650722,0A2.742413778650722,2.742413778650722,0,1,1,2.742413778650722,0" style="fill: #d62728; stroke-width: 2; opacity: 0.7;"></path><path transform="translate(313.3333333333333,0)" d="M3.8783587594066984,0A3.8783587594066984,3.8783587594066984,0,1,1,-3.8783587594066984,0A3.8783587594066984,3.8783587594066984,0,1,1,3.8783587594066984,0" style="fill: #d62728; stroke-width: 2; opacity: 0.7;"></path><path transform="translate(326.66666666666663,0)" d="M2.742413778650722,0A2.742413778650722,2.742413778650722,0,1,1,-2.742413778650722,0A2.742413778650722,2.742413778650722,0,1,1,2.742413778650722,0" style="fill: #d62728; stroke-width: 2; opacity: 0.7;"></path><path transform="translate(340,0)" d="M4.75,0A4.75,4.75,0,1,1,-4.75,0A4.75,4.75,0,1,1,4.75,0" style="fill: #d62728; stroke-width: 2; opacity: 0.7;"></path><path transform="translate(340,56.00000000000001)" d="M2.742413778650722,0A2.742413778650722,2.742413778650722,0,1,1,-2.742413778650722,0A2.742413778650722,2.742413778650722,0,1,1,2.742413778650722,0" style="fill: #d62728; stroke-width: 2; opacity: 0.7;"></path><path transform="translate(353.3333333333333,0)" d="M2.742413778650722,0A2.742413778650722,2.742413778650722,0,1,1,-2.742413778650722,0A2.742413778650722,2.742413778650722,0,1,1,2.742413778650722,0" style="fill: #d62728; stroke-width: 2; opacity: 0.7;"></path><path transform="translate(366.66666666666663,0)" d="M5.484827557301444,0A5.484827557301444,5.484827557301444,0,1,1,-5.484827557301444,0A5.484827557301444,5.484827557301444,0,1,1,5.484827557301444,0" style="fill: #d62728; stroke-width: 2; opacity: 0.7;"></path><path transform="translate(380,0)" d="M2.742413778650722,0A2.742413778650722,2.742413778650722,0,1,1,-2.742413778650722,0A2.742413778650722,2.742413778650722,0,1,1,2.742413778650722,0" style="fill: #d62728; stroke-width: 2; opacity: 0.7;"></path><path transform="translate(393.3333333333333,0)" d="M2.742413778650722,0A2.742413778650722,2.742413778650722,0,1,1,-2.742413778650722,0A2.742413778650722,2.742413778650722,0,1,1,2.742413778650722,0" style="fill: #d62728; stroke-width: 2; opacity: 0.7;"></path><path transform="translate(406.66666666666663,0)" d="M2.742413778650722,0A2.742413778650722,2.742413778650722,0,1,1,-2.742413778650722,0A2.742413778650722,2.742413778650722,0,1,1,2.742413778650722,0" style="fill: #d62728; stroke-width: 2; opacity: 0.7;"></path><path transform="translate(420,0)" d="M2.742413778650722,0A2.742413778650722,2.742413778650722,0,1,1,-2.742413778650722,0A2.742413778650722,2.742413778650722,0,1,1,2.742413778650722,0" style="fill: #d62728; stroke-width: 2; opacity: 0.7;"></path><path transform="translate(433.3333333333333,0)" d="M3.8783587594066984,0A3.8783587594066984,3.8783587594066984,0,1,1,-3.8783587594066984,0A3.8783587594066984,3.8783587594066984,0,1,1,3.8783587594066984,0" style="fill: #d62728; stroke-width: 2; opacity: 0.7;"></path><path transform="translate(446.66666666666663,0)" d="M2.742413778650722,0A2.742413778650722,2.742413778650722,0,1,1,-2.742413778650722,0A2.742413778650722,2.742413778650722,0,1,1,2.742413778650722,0" style="fill: #d62728; stroke-width: 2; opacity: 0.7;"></path><path transform="translate(460,0)" d="M2.742413778650722,0A2.742413778650722,2.742413778650722,0,1,1,-2.742413778650722,0A2.742413778650722,2.742413778650722,0,1,1,2.742413778650722,0" style="fill: #d62728; stroke-width: 2; opacity: 0.7;"></path><path transform="translate(473.3333333333333,0)" d="M9.095557523685212,0A9.095557523685212,9.095557523685212,0,1,1,-9.095557523685212,0A9.095557523685212,9.095557523685212,0,1,1,9.095557523685212,0" style="fill: #d62728; stroke-width: 2; opacity: 0.7;"></path><path transform="translate(473.3333333333333,59)" d="M2.742413778650722,0A2.742413778650722,2.742413778650722,0,1,1,-2.742413778650722,0A2.742413778650722,2.742413778650722,0,1,1,2.742413778650722,0" style="fill: #d62728; stroke-width: 2; opacity: 0.7;"></path><path transform="translate(486.66666666666663,4)" d="M2.742413778650722,0A2.742413778650722,2.742413778650722,0,1,1,-2.742413778650722,0A2.742413778650722,2.742413778650722,0,1,1,2.742413778650722,0" style="fill: #d62728; stroke-width: 2; opacity: 0.7;"></path><path transform="translate(500,0)" d="M4.75,0A4.75,4.75,0,1,1,-4.75,0A4.75,4.75,0,1,1,4.75,0" style="fill: #d62728; stroke-width: 2; opacity: 0.7;"></path><path transform="translate(500,1)" d="M2.742413778650722,0A2.742413778650722,2.742413778650722,0,1,1,-2.742413778650722,0A2.742413778650722,2.742413778650722,0,1,1,2.742413778650722,0" style="fill: #d62728; stroke-width: 2; opacity: 0.7;"></path><path transform="translate(513.3333333333333,0)" d="M2.742413778650722,0A2.742413778650722,2.742413778650722,0,1,1,-2.742413778650722,0A2.742413778650722,2.742413778650722,0,1,1,2.742413778650722,0" style="fill: #d62728; stroke-width: 2; opacity: 0.7;"></path><path transform="translate(526.6666666666666,0)" d="M5.484827557301444,0A5.484827557301444,5.484827557301444,0,1,1,-5.484827557301444,0A5.484827557301444,5.484827557301444,0,1,1,5.484827557301444,0" style="fill: #d62728; stroke-width: 2; opacity: 0.7;"></path><path transform="translate(540,0)" d="M5.484827557301444,0A5.484827557301444,5.484827557301444,0,1,1,-5.484827557301444,0A5.484827557301444,5.484827557301444,0,1,1,5.484827557301444,0" style="fill: #d62728; stroke-width: 2; opacity: 0.7;"></path><path transform="translate(553.3333333333334,0)" d="M9.5,0A9.5,9.5,0,1,1,-9.5,0A9.5,9.5,0,1,1,9.5,0" style="fill: #d62728; stroke-width: 2; opacity: 0.7;"></path><path transform="translate(553.3333333333334,1.4000000000000001)" d="M2.742413778650722,0A2.742413778650722,2.742413778650722,0,1,1,-2.742413778650722,0A2.742413778650722,2.742413778650722,0,1,1,2.742413778650722,0" style="fill: #d62728; stroke-width: 2; opacity: 0.7;"></path><path transform="translate(566.6666666666666,0)" d="M7.756717518813397,0A7.756717518813397,7.756717518813397,0,1,1,-7.756717518813397,0A7.756717518813397,7.756717518813397,0,1,1,7.756717518813397,0" style="fill: #d62728; stroke-width: 2; opacity: 0.7;"></path><path transform="translate(566.6666666666666,6)" d="M2.742413778650722,0A2.742413778650722,2.742413778650722,0,1,1,-2.742413778650722,0A2.742413778650722,2.742413778650722,0,1,1,2.742413778650722,0" style="fill: #d62728; stroke-width: 2; opacity: 0.7;"></path><path transform="translate(580,0)" d="M4.75,0A4.75,4.75,0,1,1,-4.75,0A4.75,4.75,0,1,1,4.75,0" style="fill: #d62728; stroke-width: 2; opacity: 0.7;"></path><path transform="translate(593.3333333333334,0)" d="M8.67227382716513,0A8.67227382716513,8.67227382716513,0,1,1,-8.67227382716513,0A8.67227382716513,8.67227382716513,0,1,1,8.67227382716513,0" style="fill: #d62728; stroke-width: 2; opacity: 0.7;"></path><path transform="translate(593.3333333333334,3.2)" d="M2.742413778650722,0A2.742413778650722,2.742413778650722,0,1,1,-2.742413778650722,0A2.742413778650722,2.742413778650722,0,1,1,2.742413778650722,0" style="fill: #d62728; stroke-width: 2; opacity: 0.7;"></path><path transform="translate(593.3333333333334,6)" d="M2.742413778650722,0A2.742413778650722,2.742413778650722,0,1,1,-2.742413778650722,0A2.742413778650722,2.742413778650722,0,1,1,2.742413778650722,0" style="fill: #d62728; stroke-width: 2; opacity: 0.7;"></path><path transform="translate(606.6666666666666,0)" d="M7.255744850346747,0A7.255744850346747,7.255744850346747,0,1,1,-7.255744850346747,0A7.255744850346747,7.255744850346747,0,1,1,7.255744850346747,0" style="fill: #d62728; stroke-width: 2; opacity: 0.7;"></path><path transform="translate(606.6666666666666,4.3999999999999995)" d="M3.8783587594066984,0A3.8783587594066984,3.8783587594066984,0,1,1,-3.8783587594066984,0A3.8783587594066984,3.8783587594066984,0,1,1,3.8783587594066984,0" style="fill: #d62728; stroke-width: 2; opacity: 0.7;"></path><path transform="translate(620,0)" d="M5.484827557301444,0A5.484827557301444,5.484827557301444,0,1,1,-5.484827557301444,0A5.484827557301444,5.484827557301444,0,1,1,5.484827557301444,0" style="fill: #d62728; stroke-width: 2; opacity: 0.7;"></path><path transform="translate(633.3333333333334,0)" d="M8.227241335952167,0A8.227241335952167,8.227241335952167,0,1,1,-8.227241335952167,0A8.227241335952167,8.227241335952167,0,1,1,8.227241335952167,0" style="fill: #d62728; stroke-width: 2; opacity: 0.7;"></path><path transform="translate(633.3333333333334,0.2)" d="M2.742413778650722,0A2.742413778650722,2.742413778650722,0,1,1,-2.742413778650722,0A2.742413778650722,2.742413778650722,0,1,1,2.742413778650722,0" style="fill: #d62728; stroke-width: 2; opacity: 0.7;"></path><path transform="translate(633.3333333333334,272.8)" d="M2.742413778650722,0A2.742413778650722,2.742413778650722,0,1,1,-2.742413778650722,0A2.742413778650722,2.742413778650722,0,1,1,2.742413778650722,0" style="fill: #d62728; stroke-width: 2; opacity: 0.7;"></path><path transform="translate(633.3333333333334,3.2)" d="M2.742413778650722,0A2.742413778650722,2.742413778650722,0,1,1,-2.742413778650722,0A2.742413778650722,2.742413778650722,0,1,1,2.742413778650722,0" style="fill: #d62728; stroke-width: 2; opacity: 0.7;"></path><path transform="translate(633.3333333333334,3.8)" d="M3.8783587594066984,0A3.8783587594066984,3.8783587594066984,0,1,1,-3.8783587594066984,0A3.8783587594066984,3.8783587594066984,0,1,1,3.8783587594066984,0" style="fill: #d62728; stroke-width: 2; opacity: 0.7;"></path><path transform="translate(633.3333333333334,4)" d="M3.8783587594066984,0A3.8783587594066984,3.8783587594066984,0,1,1,-3.8783587594066984,0A3.8783587594066984,3.8783587594066984,0,1,1,3.8783587594066984,0" style="fill: #d62728; stroke-width: 2; opacity: 0.7;"></path><path transform="translate(633.3333333333334,114.6)" d="M2.742413778650722,0A2.742413778650722,2.742413778650722,0,1,1,-2.742413778650722,0A2.742413778650722,2.742413778650722,0,1,1,2.742413778650722,0" style="fill: #d62728; stroke-width: 2; opacity: 0.7;"></path><path transform="translate(633.3333333333334,14.14)" d="M2.742413778650722,0A2.742413778650722,2.742413778650722,0,1,1,-2.742413778650722,0A2.742413778650722,2.742413778650722,0,1,1,2.742413778650722,0" style="fill: #d62728; stroke-width: 2; opacity: 0.7;"></path><path transform="translate(646.6666666666666,0)" d="M7.255744850346747,0A7.255744850346747,7.255744850346747,0,1,1,-7.255744850346747,0A7.255744850346747,7.255744850346747,0,1,1,7.255744850346747,0" style="fill: #d62728; stroke-width: 2; opacity: 0.7;"></path><path transform="translate(646.6666666666666,20)" d="M2.742413778650722,0A2.742413778650722,2.742413778650722,0,1,1,-2.742413778650722,0A2.742413778650722,2.742413778650722,0,1,1,2.742413778650722,0" style="fill: #d62728; stroke-width: 2; opacity: 0.7;"></path><path transform="translate(646.6666666666666,260)" d="M2.742413778650722,0A2.742413778650722,2.742413778650722,0,1,1,-2.742413778650722,0A2.742413778650722,2.742413778650722,0,1,1,2.742413778650722,0" style="fill: #d62728; stroke-width: 2; opacity: 0.7;"></path><path transform="translate(646.6666666666666,4)" d="M3.8783587594066984,0A3.8783587594066984,3.8783587594066984,0,1,1,-3.8783587594066984,0A3.8783587594066984,3.8783587594066984,0,1,1,3.8783587594066984,0" style="fill: #d62728; stroke-width: 2; opacity: 0.7;"></path><path transform="translate(646.6666666666666,10)" d="M3.8783587594066984,0A3.8783587594066984,3.8783587594066984,0,1,1,-3.8783587594066984,0A3.8783587594066984,3.8783587594066984,0,1,1,3.8783587594066984,0" style="fill: #d62728; stroke-width: 2; opacity: 0.7;"></path><path transform="translate(646.6666666666666,11)" d="M2.742413778650722,0A2.742413778650722,2.742413778650722,0,1,1,-2.742413778650722,0A2.742413778650722,2.742413778650722,0,1,1,2.742413778650722,0" style="fill: #d62728; stroke-width: 2; opacity: 0.7;"></path><path transform="translate(646.6666666666666,13)" d="M2.742413778650722,0A2.742413778650722,2.742413778650722,0,1,1,-2.742413778650722,0A2.742413778650722,2.742413778650722,0,1,1,2.742413778650722,0" style="fill: #d62728; stroke-width: 2; opacity: 0.7;"></path><path transform="translate(660,0)" d="M3.8783587594066984,0A3.8783587594066984,3.8783587594066984,0,1,1,-3.8783587594066984,0A3.8783587594066984,3.8783587594066984,0,1,1,3.8783587594066984,0" style="fill: #d62728; stroke-width: 2; opacity: 0.7;"></path><path transform="translate(660,210)" d="M5.484827557301444,0A5.484827557301444,5.484827557301444,0,1,1,-5.484827557301444,0A5.484827557301444,5.484827557301444,0,1,1,5.484827557301444,0" style="fill: #d62728; stroke-width: 2; opacity: 0.7;"></path><path transform="translate(660,220.00000000000003)" d="M2.742413778650722,0A2.742413778650722,2.742413778650722,0,1,1,-2.742413778650722,0A2.742413778650722,2.742413778650722,0,1,1,2.742413778650722,0" style="fill: #d62728; stroke-width: 2; opacity: 0.7;"></path><path transform="translate(660,270)" d="M3.8783587594066984,0A3.8783587594066984,3.8783587594066984,0,1,1,-3.8783587594066984,0A3.8783587594066984,3.8783587594066984,0,1,1,3.8783587594066984,0" style="fill: #d62728; stroke-width: 2; opacity: 0.7;"></path><path transform="translate(660,5.2)" d="M2.742413778650722,0A2.742413778650722,2.742413778650722,0,1,1,-2.742413778650722,0A2.742413778650722,2.742413778650722,0,1,1,2.742413778650722,0" style="fill: #d62728; stroke-width: 2; opacity: 0.7;"></path><path transform="translate(660,120)" d="M2.742413778650722,0A2.742413778650722,2.742413778650722,0,1,1,-2.742413778650722,0A2.742413778650722,2.742413778650722,0,1,1,2.742413778650722,0" style="fill: #d62728; stroke-width: 2; opacity: 0.7;"></path><path transform="translate(660,150)" d="M5.484827557301444,0A5.484827557301444,5.484827557301444,0,1,1,-5.484827557301444,0A5.484827557301444,5.484827557301444,0,1,1,5.484827557301444,0" style="fill: #d62728; stroke-width: 2; opacity: 0.7;"></path><path transform="translate(660,15.4)" d="M3.8783587594066984,0A3.8783587594066984,3.8783587594066984,0,1,1,-3.8783587594066984,0A3.8783587594066984,3.8783587594066984,0,1,1,3.8783587594066984,0" style="fill: #d62728; stroke-width: 2; opacity: 0.7;"></path><path transform="translate(660,155)" d="M2.742413778650722,0A2.742413778650722,2.742413778650722,0,1,1,-2.742413778650722,0A2.742413778650722,2.742413778650722,0,1,1,2.742413778650722,0" style="fill: #d62728; stroke-width: 2; opacity: 0.7;"></path><path transform="translate(660,180)" d="M2.742413778650722,0A2.742413778650722,2.742413778650722,0,1,1,-2.742413778650722,0A2.742413778650722,2.742413778650722,0,1,1,2.742413778650722,0" style="fill: #d62728; stroke-width: 2; opacity: 0.7;"></path><path transform="translate(673.3333333333334,0.2)" d="M2.742413778650722,0A2.742413778650722,2.742413778650722,0,1,1,-2.742413778650722,0A2.742413778650722,2.742413778650722,0,1,1,2.742413778650722,0" style="fill: #d62728; stroke-width: 2; opacity: 0.7;"></path><path transform="translate(673.3333333333334,210)" d="M6.132223631495077,0A6.132223631495077,6.132223631495077,0,1,1,-6.132223631495077,0A6.132223631495077,6.132223631495077,0,1,1,6.132223631495077,0" style="fill: #d62728; stroke-width: 2; opacity: 0.7;"></path><path transform="translate(673.3333333333334,225.4)" d="M2.742413778650722,0A2.742413778650722,2.742413778650722,0,1,1,-2.742413778650722,0A2.742413778650722,2.742413778650722,0,1,1,2.742413778650722,0" style="fill: #d62728; stroke-width: 2; opacity: 0.7;"></path><path transform="translate(673.3333333333334,330)" d="M2.742413778650722,0A2.742413778650722,2.742413778650722,0,1,1,-2.742413778650722,0A2.742413778650722,2.742413778650722,0,1,1,2.742413778650722,0" style="fill: #d62728; stroke-width: 2; opacity: 0.7;"></path><path transform="translate(673.3333333333334,390)" d="M2.742413778650722,0A2.742413778650722,2.742413778650722,0,1,1,-2.742413778650722,0A2.742413778650722,2.742413778650722,0,1,1,2.742413778650722,0" style="fill: #d62728; stroke-width: 2; opacity: 0.7;"></path><path transform="translate(673.3333333333334,150)" d="M7.756717518813397,0A7.756717518813397,7.756717518813397,0,1,1,-7.756717518813397,0A7.756717518813397,7.756717518813397,0,1,1,7.756717518813397,0" style="fill: #d62728; stroke-width: 2; opacity: 0.7;"></path><path transform="translate(686.6666666666666,0)" d="M2.742413778650722,0A2.742413778650722,2.742413778650722,0,1,1,-2.742413778650722,0A2.742413778650722,2.742413778650722,0,1,1,2.742413778650722,0" style="fill: #d62728; stroke-width: 2; opacity: 0.7;"></path><path transform="translate(686.6666666666666,10)" d="M2.742413778650722,0A2.742413778650722,2.742413778650722,0,1,1,-2.742413778650722,0A2.742413778650722,2.742413778650722,0,1,1,2.742413778650722,0" style="fill: #d62728; stroke-width: 2; opacity: 0.7;"></path><path transform="translate(700,0.4)" d="M2.742413778650722,0A2.742413778650722,2.742413778650722,0,1,1,-2.742413778650722,0A2.742413778650722,2.742413778650722,0,1,1,2.742413778650722,0" style="fill: #d62728; stroke-width: 2; opacity: 0.7;"></path><path transform="translate(713.3333333333334,211.60000000000002)" d="M2.742413778650722,0A2.742413778650722,2.742413778650722,0,1,1,-2.742413778650722,0A2.742413778650722,2.742413778650722,0,1,1,2.742413778650722,0" style="fill: #d62728; stroke-width: 2; opacity: 0.7;"></path><path transform="translate(713.3333333333334,11.600000000000001)" d="M2.742413778650722,0A2.742413778650722,2.742413778650722,0,1,1,-2.742413778650722,0A2.742413778650722,2.742413778650722,0,1,1,2.742413778650722,0" style="fill: #d62728; stroke-width: 2; opacity: 0.7;"></path><path transform="translate(726.6666666666666,0)" d="M2.742413778650722,0A2.742413778650722,2.742413778650722,0,1,1,-2.742413778650722,0A2.742413778650722,2.742413778650722,0,1,1,2.742413778650722,0" style="fill: #d62728; stroke-width: 2; opacity: 0.7;"></path><path transform="translate(740,10)" d="M2.742413778650722,0A2.742413778650722,2.742413778650722,0,1,1,-2.742413778650722,0A2.742413778650722,2.742413778650722,0,1,1,2.742413778650722,0" style="fill: #d62728; stroke-width: 2; opacity: 0.7;"></path><path transform="translate(740,122)" d="M2.742413778650722,0A2.742413778650722,2.742413778650722,0,1,1,-2.742413778650722,0A2.742413778650722,2.742413778650722,0,1,1,2.742413778650722,0" style="fill: #d62728; stroke-width: 2; opacity: 0.7;"></path><path transform="translate(753.3333333333334,0)" d="M4.75,0A4.75,4.75,0,1,1,-4.75,0A4.75,4.75,0,1,1,4.75,0" style="fill: #d62728; stroke-width: 2; opacity: 0.7;"></path><path transform="translate(753.3333333333334,21)" d="M2.742413778650722,0A2.742413778650722,2.742413778650722,0,1,1,-2.742413778650722,0A2.742413778650722,2.742413778650722,0,1,1,2.742413778650722,0" style="fill: #d62728; stroke-width: 2; opacity: 0.7;"></path><path transform="translate(753.3333333333334,230.6)" d="M3.8783587594066984,0A3.8783587594066984,3.8783587594066984,0,1,1,-3.8783587594066984,0A3.8783587594066984,3.8783587594066984,0,1,1,3.8783587594066984,0" style="fill: #d62728; stroke-width: 2; opacity: 0.7;"></path><path transform="translate(753.3333333333334,24)" d="M3.8783587594066984,0A3.8783587594066984,3.8783587594066984,0,1,1,-3.8783587594066984,0A3.8783587594066984,3.8783587594066984,0,1,1,3.8783587594066984,0" style="fill: #d62728; stroke-width: 2; opacity: 0.7;"></path><path transform="translate(753.3333333333334,25)" d="M2.742413778650722,0A2.742413778650722,2.742413778650722,0,1,1,-2.742413778650722,0A2.742413778650722,2.742413778650722,0,1,1,2.742413778650722,0" style="fill: #d62728; stroke-width: 2; opacity: 0.7;"></path><path transform="translate(753.3333333333334,4)" d="M2.742413778650722,0A2.742413778650722,2.742413778650722,0,1,1,-2.742413778650722,0A2.742413778650722,2.742413778650722,0,1,1,2.742413778650722,0" style="fill: #d62728; stroke-width: 2; opacity: 0.7;"></path><path transform="translate(753.3333333333334,4.3999999999999995)" d="M2.742413778650722,0A2.742413778650722,2.742413778650722,0,1,1,-2.742413778650722,0A2.742413778650722,2.742413778650722,0,1,1,2.742413778650722,0" style="fill: #d62728; stroke-width: 2; opacity: 0.7;"></path><path transform="translate(753.3333333333334,124.2)" d="M2.742413778650722,0A2.742413778650722,2.742413778650722,0,1,1,-2.742413778650722,0A2.742413778650722,2.742413778650722,0,1,1,2.742413778650722,0" style="fill: #d62728; stroke-width: 2; opacity: 0.7;"></path><path transform="translate(753.3333333333334,140.39999999999998)" d="M2.742413778650722,0A2.742413778650722,2.742413778650722,0,1,1,-2.742413778650722,0A2.742413778650722,2.742413778650722,0,1,1,2.742413778650722,0" style="fill: #d62728; stroke-width: 2; opacity: 0.7;"></path><path transform="translate(753.3333333333334,18.4)" d="M2.742413778650722,0A2.742413778650722,2.742413778650722,0,1,1,-2.742413778650722,0A2.742413778650722,2.742413778650722,0,1,1,2.742413778650722,0" style="fill: #d62728; stroke-width: 2; opacity: 0.7;"></path><path transform="translate(766.6666666666666,0.6)" d="M2.742413778650722,0A2.742413778650722,2.742413778650722,0,1,1,-2.742413778650722,0A2.742413778650722,2.742413778650722,0,1,1,2.742413778650722,0" style="fill: #d62728; stroke-width: 2; opacity: 0.7;"></path><path transform="translate(780,0)" d="M2.742413778650722,0A2.742413778650722,2.742413778650722,0,1,1,-2.742413778650722,0A2.742413778650722,2.742413778650722,0,1,1,2.742413778650722,0" style="fill: #d62728; stroke-width: 2; opacity: 0.7;"></path><path transform="translate(793.3333333333334,0.2)" d="M2.742413778650722,0A2.742413778650722,2.742413778650722,0,1,1,-2.742413778650722,0A2.742413778650722,2.742413778650722,0,1,1,2.742413778650722,0" style="fill: #d62728; stroke-width: 2; opacity: 0.7;"></path></g><g class="mark-group role-legend"><g transform="translate(818,0)"><path class="background" d="M0,0h45v133h-45Z" style="pointer-events: none; fill: none;"></path><g><g class="mark-group role-legend-entry"><g transform="translate(0,16)"><path class="background" d="M0,0h0v0h0Z" style="pointer-events: none; fill: none;"></path><g><g class="mark-group role-scope"><g transform="translate(0,0)"><path class="background" d="M0,0h36.123046875v10.378358759406698h-36.123046875Z" style="pointer-events: none; fill: none; opacity: 1;"></path><g><g class="mark-symbol role-legend-symbol" style="pointer-events: none;"><path transform="translate(10.5,5)" d="M3.8783587594066984,0A3.8783587594066984,3.8783587594066984,0,1,1,-3.8783587594066984,0A3.8783587594066984,3.8783587594066984,0,1,1,3.8783587594066984,0" style="fill: #d62728; stroke: none; stroke-width: 1.5; opacity: 0.7;"></path></g><g class="mark-text role-legend-label" style="pointer-events: none;"><text text-anchor="start" transform="translate(25,8)" style="font-family: sans-serif; font-size: 10px; fill: #000; opacity: 1;">2</text></g></g><path class="foreground" d="" style="pointer-events: none; display: none; fill: none;"></path></g><g transform="translate(0,14)"><path class="background" d="M0,0h36.123046875v13.484827557301443h-36.123046875Z" style="pointer-events: none; fill: none; opacity: 1;"></path><g><g class="mark-symbol role-legend-symbol" style="pointer-events: none;"><path transform="translate(10.5,6.5)" d="M5.484827557301444,0A5.484827557301444,5.484827557301444,0,1,1,-5.484827557301444,0A5.484827557301444,5.484827557301444,0,1,1,5.484827557301444,0" style="fill: #d62728; stroke: none; stroke-width: 1.5; opacity: 0.7;"></path></g><g class="mark-text role-legend-label" style="pointer-events: none;"><text text-anchor="start" transform="translate(25,9.5)" style="font-family: sans-serif; font-size: 10px; fill: #000; opacity: 1;">4</text></g></g><path class="foreground" d="" style="pointer-events: none; display: none; fill: none;"></path></g><g transform="translate(0,31)"><path class="background" d="M0,0h36.123046875v15.717514421272199h-36.123046875Z" style="pointer-events: none; fill: none; opacity: 1;"></path><g><g class="mark-symbol role-legend-symbol" style="pointer-events: none;"><path transform="translate(10.5,7.5)" d="M6.7175144212722016,0A6.7175144212722016,6.7175144212722016,0,1,1,-6.7175144212722016,0A6.7175144212722016,6.7175144212722016,0,1,1,6.7175144212722016,0" style="fill: #d62728; stroke: none; stroke-width: 1.5; opacity: 0.7;"></path></g><g class="mark-text role-legend-label" style="pointer-events: none;"><text text-anchor="start" transform="translate(25,10.5)" style="font-family: sans-serif; font-size: 10px; fill: #000; opacity: 1;">6</text></g></g><path class="foreground" d="" style="pointer-events: none; display: none; fill: none;"></path></g><g transform="translate(0,50)"><path class="background" d="M0,0h36.123046875v18.25671751881339h-36.123046875Z" style="pointer-events: none; fill: none; opacity: 1;"></path><g><g class="mark-symbol role-legend-symbol" style="pointer-events: none;"><path transform="translate(10.5,9)" d="M7.756717518813397,0A7.756717518813397,7.756717518813397,0,1,1,-7.756717518813397,0A7.756717518813397,7.756717518813397,0,1,1,7.756717518813397,0" style="fill: #d62728; stroke: none; stroke-width: 1.5; opacity: 0.7;"></path></g><g class="mark-text role-legend-label" style="pointer-events: none;"><text text-anchor="start" transform="translate(25,12)" style="font-family: sans-serif; font-size: 10px; fill: #000; opacity: 1;">8</text></g></g><path class="foreground" d="" style="pointer-events: none; display: none; fill: none;"></path></g><g transform="translate(0,72)"><path class="background" d="M0,0h36.123046875v19.672273827165128h-36.123046875Z" style="pointer-events: none; fill: none; opacity: 1;"></path><g><g class="mark-symbol role-legend-symbol" style="pointer-events: none;"><path transform="translate(10.5,9.5)" d="M8.67227382716513,0A8.67227382716513,8.67227382716513,0,1,1,-8.67227382716513,0A8.67227382716513,8.67227382716513,0,1,1,8.67227382716513,0" style="fill: #d62728; stroke: none; stroke-width: 1.5; opacity: 0.7;"></path></g><g class="mark-text role-legend-label" style="pointer-events: none;"><text text-anchor="start" transform="translate(25,12.5)" style="font-family: sans-serif; font-size: 10px; fill: #000; opacity: 1;">10</text></g></g><path class="foreground" d="" style="pointer-events: none; display: none; fill: none;"></path></g><g transform="translate(0,95)"><path class="background" d="M0,0h36.123046875v21.5h-36.123046875Z" style="pointer-events: none; fill: none; opacity: 1;"></path><g><g class="mark-symbol role-legend-symbol" style="pointer-events: none;"><path transform="translate(10.5,10.5)" d="M9.5,0A9.5,9.5,0,1,1,-9.5,0A9.5,9.5,0,1,1,9.5,0" style="fill: #d62728; stroke: none; stroke-width: 1.5; opacity: 0.7;"></path></g><g class="mark-text role-legend-label" style="pointer-events: none;"><text text-anchor="start" transform="translate(25,13.5)" style="font-family: sans-serif; font-size: 10px; fill: #000; opacity: 1;">12</text></g></g><path class="foreground" d="" style="pointer-events: none; display: none; fill: none;"></path></g></g></g><path class="foreground" d="" style="pointer-events: none; display: none; fill: none;"></path></g></g><g class="mark-text role-legend-title" style="pointer-events: none;"><text text-anchor="start" transform="translate(0,9)" style="font-family: sans-serif; font-size: 11px; font-weight: bold; fill: #000; opacity: 1;">Quantity</text></g></g><path class="foreground" d="" style="pointer-events: none; display: none; fill: none;"></path></g></g><g class="mark-group role-title"><g transform="translate(400,-26.5)"><path class="background" d="M0,0h0v0h0Z" style="pointer-events: none; fill: none;"></path><g><g class="mark-text role-title-text" style="pointer-events: none;"><text text-anchor="middle" transform="translate(0,10)" style="font-family: sans-serif; font-size: 13px; font-weight: bold; fill: #000; opacity: 1;">Depth of cataloged holotypes per year</text></g></g><path class="foreground" d="" style="pointer-events: none; display: none; fill: none;"></path></g></g><g class="mark-group role-axis"><g transform="translate(0.5,400.5)"><path class="background" d="M0,0h0v0h0Z" style="pointer-events: none; fill: none;"></path><g><g class="mark-rule role-axis-tick" style="pointer-events: none;"><line transform="translate(7,0)" x2="0" y2="5" style="fill: none; stroke: #888; stroke-width: 1; opacity: 1;"></line><line transform="translate(20,0)" x2="0" y2="5" style="fill: none; stroke: #888; stroke-width: 1; opacity: 1;"></line><line transform="translate(33,0)" x2="0" y2="5" style="fill: none; stroke: #888; stroke-width: 1; opacity: 1;"></line><line transform="translate(47,0)" x2="0" y2="5" style="fill: none; stroke: #888; stroke-width: 1; opacity: 1;"></line><line transform="translate(60,0)" x2="0" y2="5" style="fill: none; stroke: #888; stroke-width: 1; opacity: 1;"></line><line transform="translate(73,0)" x2="0" y2="5" style="fill: none; stroke: #888; stroke-width: 1; opacity: 1;"></line><line transform="translate(87,0)" x2="0" y2="5" style="fill: none; stroke: #888; stroke-width: 1; opacity: 1;"></line><line transform="translate(100,0)" x2="0" y2="5" style="fill: none; stroke: #888; stroke-width: 1; opacity: 1;"></line><line transform="translate(113,0)" x2="0" y2="5" style="fill: none; stroke: #888; stroke-width: 1; opacity: 1;"></line><line transform="translate(127,0)" x2="0" y2="5" style="fill: none; stroke: #888; stroke-width: 1; opacity: 1;"></line><line transform="translate(140,0)" x2="0" y2="5" style="fill: none; stroke: #888; stroke-width: 1; opacity: 1;"></line><line transform="translate(153,0)" x2="0" y2="5" style="fill: none; stroke: #888; stroke-width: 1; opacity: 1;"></line><line transform="translate(167,0)" x2="0" y2="5" style="fill: none; stroke: #888; stroke-width: 1; opacity: 1;"></line><line transform="translate(180,0)" x2="0" y2="5" style="fill: none; stroke: #888; stroke-width: 1; opacity: 1;"></line><line transform="translate(193,0)" x2="0" y2="5" style="fill: none; stroke: #888; stroke-width: 1; opacity: 1;"></line><line transform="translate(207,0)" x2="0" y2="5" style="fill: none; stroke: #888; stroke-width: 1; opacity: 1;"></line><line transform="translate(220,0)" x2="0" y2="5" style="fill: none; stroke: #888; stroke-width: 1; opacity: 1;"></line><line transform="translate(233,0)" x2="0" y2="5" style="fill: none; stroke: #888; stroke-width: 1; opacity: 1;"></line><line transform="translate(247,0)" x2="0" y2="5" style="fill: none; stroke: #888; stroke-width: 1; opacity: 1;"></line><line transform="translate(260,0)" x2="0" y2="5" style="fill: none; stroke: #888; stroke-width: 1; opacity: 1;"></line><line transform="translate(273,0)" x2="0" y2="5" style="fill: none; stroke: #888; stroke-width: 1; opacity: 1;"></line><line transform="translate(287,0)" x2="0" y2="5" style="fill: none; stroke: #888; stroke-width: 1; opacity: 1;"></line><line transform="translate(300,0)" x2="0" y2="5" style="fill: none; stroke: #888; stroke-width: 1; opacity: 1;"></line><line transform="translate(313,0)" x2="0" y2="5" style="fill: none; stroke: #888; stroke-width: 1; opacity: 1;"></line><line transform="translate(327,0)" x2="0" y2="5" style="fill: none; stroke: #888; stroke-width: 1; opacity: 1;"></line><line transform="translate(340,0)" x2="0" y2="5" style="fill: none; stroke: #888; stroke-width: 1; opacity: 1;"></line><line transform="translate(353,0)" x2="0" y2="5" style="fill: none; stroke: #888; stroke-width: 1; opacity: 1;"></line><line transform="translate(367,0)" x2="0" y2="5" style="fill: none; stroke: #888; stroke-width: 1; opacity: 1;"></line><line transform="translate(380,0)" x2="0" y2="5" style="fill: none; stroke: #888; stroke-width: 1; opacity: 1;"></line><line transform="translate(393,0)" x2="0" y2="5" style="fill: none; stroke: #888; stroke-width: 1; opacity: 1;"></line><line transform="translate(407,0)" x2="0" y2="5" style="fill: none; stroke: #888; stroke-width: 1; opacity: 1;"></line><line transform="translate(420,0)" x2="0" y2="5" style="fill: none; stroke: #888; stroke-width: 1; opacity: 1;"></line><line transform="translate(433,0)" x2="0" y2="5" style="fill: none; stroke: #888; stroke-width: 1; opacity: 1;"></line><line transform="translate(447,0)" x2="0" y2="5" style="fill: none; stroke: #888; stroke-width: 1; opacity: 1;"></line><line transform="translate(460,0)" x2="0" y2="5" style="fill: none; stroke: #888; stroke-width: 1; opacity: 1;"></line><line transform="translate(473,0)" x2="0" y2="5" style="fill: none; stroke: #888; stroke-width: 1; opacity: 1;"></line><line transform="translate(487,0)" x2="0" y2="5" style="fill: none; stroke: #888; stroke-width: 1; opacity: 1;"></line><line transform="translate(500,0)" x2="0" y2="5" style="fill: none; stroke: #888; stroke-width: 1; opacity: 1;"></line><line transform="translate(513,0)" x2="0" y2="5" style="fill: none; stroke: #888; stroke-width: 1; opacity: 1;"></line><line transform="translate(527,0)" x2="0" y2="5" style="fill: none; stroke: #888; stroke-width: 1; opacity: 1;"></line><line transform="translate(540,0)" x2="0" y2="5" style="fill: none; stroke: #888; stroke-width: 1; opacity: 1;"></line><line transform="translate(553,0)" x2="0" y2="5" style="fill: none; stroke: #888; stroke-width: 1; opacity: 1;"></line><line transform="translate(567,0)" x2="0" y2="5" style="fill: none; stroke: #888; stroke-width: 1; opacity: 1;"></line><line transform="translate(580,0)" x2="0" y2="5" style="fill: none; stroke: #888; stroke-width: 1; opacity: 1;"></line><line transform="translate(593,0)" x2="0" y2="5" style="fill: none; stroke: #888; stroke-width: 1; opacity: 1;"></line><line transform="translate(607,0)" x2="0" y2="5" style="fill: none; stroke: #888; stroke-width: 1; opacity: 1;"></line><line transform="translate(620,0)" x2="0" y2="5" style="fill: none; stroke: #888; stroke-width: 1; opacity: 1;"></line><line transform="translate(633,0)" x2="0" y2="5" style="fill: none; stroke: #888; stroke-width: 1; opacity: 1;"></line><line transform="translate(647,0)" x2="0" y2="5" style="fill: none; stroke: #888; stroke-width: 1; opacity: 1;"></line><line transform="translate(660,0)" x2="0" y2="5" style="fill: none; stroke: #888; stroke-width: 1; opacity: 1;"></line><line transform="translate(673,0)" x2="0" y2="5" style="fill: none; stroke: #888; stroke-width: 1; opacity: 1;"></line><line transform="translate(687,0)" x2="0" y2="5" style="fill: none; stroke: #888; stroke-width: 1; opacity: 1;"></line><line transform="translate(700,0)" x2="0" y2="5" style="fill: none; stroke: #888; stroke-width: 1; opacity: 1;"></line><line transform="translate(713,0)" x2="0" y2="5" style="fill: none; stroke: #888; stroke-width: 1; opacity: 1;"></line><line transform="translate(727,0)" x2="0" y2="5" style="fill: none; stroke: #888; stroke-width: 1; opacity: 1;"></line><line transform="translate(740,0)" x2="0" y2="5" style="fill: none; stroke: #888; stroke-width: 1; opacity: 1;"></line><line transform="translate(753,0)" x2="0" y2="5" style="fill: none; stroke: #888; stroke-width: 1; opacity: 1;"></line><line transform="translate(767,0)" x2="0" y2="5" style="fill: none; stroke: #888; stroke-width: 1; opacity: 1;"></line><line transform="translate(780,0)" x2="0" y2="5" style="fill: none; stroke: #888; stroke-width: 1; opacity: 1;"></line><line transform="translate(793,0)" x2="0" y2="5" style="fill: none; stroke: #888; stroke-width: 1; opacity: 1;"></line></g><g class="mark-text role-axis-label" style="pointer-events: none;"><text text-anchor="end" transform="translate(6.666666666666629,7) rotate(270) translate(0,3)" style="font-family: sans-serif; font-size: 10px; fill: #000; opacity: 1;">1910</text><text text-anchor="end" transform="translate(19.999999999999964,7) rotate(270) translate(0,3)" style="font-family: sans-serif; font-size: 10px; fill: #000; opacity: 1;">1939</text><text text-anchor="end" transform="translate(33.3333333333333,7) rotate(270) translate(0,3)" style="font-family: sans-serif; font-size: 10px; fill: #000; opacity: 1;">1944</text><text text-anchor="end" transform="translate(46.66666666666663,7) rotate(270) translate(0,3)" style="font-family: sans-serif; font-size: 10px; fill: #000; opacity: 1;">1947</text><text text-anchor="end" transform="translate(59.999999999999964,7) rotate(270) translate(0,3)" style="font-family: sans-serif; font-size: 10px; fill: #000; opacity: 1;">1948</text><text text-anchor="end" transform="translate(73.3333333333333,7) rotate(270) translate(0,3)" style="font-family: sans-serif; font-size: 10px; fill: #000; opacity: 1;">1950</text><text text-anchor="end" transform="translate(86.66666666666663,7) rotate(270) translate(0,3)" style="font-family: sans-serif; font-size: 10px; fill: #000; opacity: 1;">1951</text><text text-anchor="end" transform="translate(99.99999999999997,7) rotate(270) translate(0,3)" style="font-family: sans-serif; font-size: 10px; fill: #000; opacity: 1;">1952</text><text text-anchor="end" transform="translate(113.3333333333333,7) rotate(270) translate(0,3)" style="font-family: sans-serif; font-size: 10px; fill: #000; opacity: 1;">1953</text><text text-anchor="end" transform="translate(126.66666666666663,7) rotate(270) translate(0,3)" style="font-family: sans-serif; font-size: 10px; fill: #000; opacity: 1;">1955</text><text text-anchor="end" transform="translate(139.99999999999997,7) rotate(270) translate(0,3)" style="font-family: sans-serif; font-size: 10px; fill: #000; opacity: 1;">1956</text><text text-anchor="end" transform="translate(153.33333333333331,7) rotate(270) translate(0,3)" style="font-family: sans-serif; font-size: 10px; fill: #000; opacity: 1;">1957</text><text text-anchor="end" transform="translate(166.66666666666663,7) rotate(270) translate(0,3)" style="font-family: sans-serif; font-size: 10px; fill: #000; opacity: 1;">1958</text><text text-anchor="end" transform="translate(179.99999999999997,7) rotate(270) translate(0,3)" style="font-family: sans-serif; font-size: 10px; fill: #000; opacity: 1;">1959</text><text text-anchor="end" transform="translate(193.33333333333331,7) rotate(270) translate(0,3)" style="font-family: sans-serif; font-size: 10px; fill: #000; opacity: 1;">1961</text><text text-anchor="end" transform="translate(206.66666666666663,7) rotate(270) translate(0,3)" style="font-family: sans-serif; font-size: 10px; fill: #000; opacity: 1;">1962</text><text text-anchor="end" transform="translate(219.99999999999997,7) rotate(270) translate(0,3)" style="font-family: sans-serif; font-size: 10px; fill: #000; opacity: 1;">1963</text><text text-anchor="end" transform="translate(233.33333333333331,7) rotate(270) translate(0,3)" style="font-family: sans-serif; font-size: 10px; fill: #000; opacity: 1;">1964</text><text text-anchor="end" transform="translate(246.66666666666663,7) rotate(270) translate(0,3)" style="font-family: sans-serif; font-size: 10px; fill: #000; opacity: 1;">1965</text><text text-anchor="end" transform="translate(260,7) rotate(270) translate(0,3)" style="font-family: sans-serif; font-size: 10px; fill: #000; opacity: 1;">1966</text><text text-anchor="end" transform="translate(273.3333333333333,7) rotate(270) translate(0,3)" style="font-family: sans-serif; font-size: 10px; fill: #000; opacity: 1;">1967</text><text text-anchor="end" transform="translate(286.66666666666663,7) rotate(270) translate(0,3)" style="font-family: sans-serif; font-size: 10px; fill: #000; opacity: 1;">1968</text><text text-anchor="end" transform="translate(300,7) rotate(270) translate(0,3)" style="font-family: sans-serif; font-size: 10px; fill: #000; opacity: 1;">1969</text><text text-anchor="end" transform="translate(313.3333333333333,7) rotate(270) translate(0,3)" style="font-family: sans-serif; font-size: 10px; fill: #000; opacity: 1;">1970</text><text text-anchor="end" transform="translate(326.66666666666663,7) rotate(270) translate(0,3)" style="font-family: sans-serif; font-size: 10px; fill: #000; opacity: 1;">1972</text><text text-anchor="end" transform="translate(340,7) rotate(270) translate(0,3)" style="font-family: sans-serif; font-size: 10px; fill: #000; opacity: 1;">1973</text><text text-anchor="end" transform="translate(353.3333333333333,7) rotate(270) translate(0,3)" style="font-family: sans-serif; font-size: 10px; fill: #000; opacity: 1;">1974</text><text text-anchor="end" transform="translate(366.66666666666663,7) rotate(270) translate(0,3)" style="font-family: sans-serif; font-size: 10px; fill: #000; opacity: 1;">1976</text><text text-anchor="end" transform="translate(380,7) rotate(270) translate(0,3)" style="font-family: sans-serif; font-size: 10px; fill: #000; opacity: 1;">1977</text><text text-anchor="end" transform="translate(393.3333333333333,7) rotate(270) translate(0,3)" style="font-family: sans-serif; font-size: 10px; fill: #000; opacity: 1;">1979</text><text text-anchor="end" transform="translate(406.66666666666663,7) rotate(270) translate(0,3)" style="font-family: sans-serif; font-size: 10px; fill: #000; opacity: 1;">1980</text><text text-anchor="end" transform="translate(420,7) rotate(270) translate(0,3)" style="font-family: sans-serif; font-size: 10px; fill: #000; opacity: 1;">1981</text><text text-anchor="end" transform="translate(433.3333333333333,7) rotate(270) translate(0,3)" style="font-family: sans-serif; font-size: 10px; fill: #000; opacity: 1;">1983</text><text text-anchor="end" transform="translate(446.66666666666663,7) rotate(270) translate(0,3)" style="font-family: sans-serif; font-size: 10px; fill: #000; opacity: 1;">1985</text><text text-anchor="end" transform="translate(460,7) rotate(270) translate(0,3)" style="font-family: sans-serif; font-size: 10px; fill: #000; opacity: 1;">1986</text><text text-anchor="end" transform="translate(473.3333333333333,7) rotate(270) translate(0,3)" style="font-family: sans-serif; font-size: 10px; fill: #000; opacity: 1;">1987</text><text text-anchor="end" transform="translate(486.66666666666663,7) rotate(270) translate(0,3)" style="font-family: sans-serif; font-size: 10px; fill: #000; opacity: 1;">1988</text><text text-anchor="end" transform="translate(500,7) rotate(270) translate(0,3)" style="font-family: sans-serif; font-size: 10px; fill: #000; opacity: 1;">1989</text><text text-anchor="end" transform="translate(513.3333333333333,7) rotate(270) translate(0,3)" style="font-family: sans-serif; font-size: 10px; fill: #000; opacity: 1;">1991</text><text text-anchor="end" transform="translate(526.6666666666666,7) rotate(270) translate(0,3)" style="font-family: sans-serif; font-size: 10px; fill: #000; opacity: 1;">1992</text><text text-anchor="end" transform="translate(540,7) rotate(270) translate(0,3)" style="font-family: sans-serif; font-size: 10px; fill: #000; opacity: 1;">1993</text><text text-anchor="end" transform="translate(553.3333333333334,7) rotate(270) translate(0,3)" style="font-family: sans-serif; font-size: 10px; fill: #000; opacity: 1;">1994</text><text text-anchor="end" transform="translate(566.6666666666666,7) rotate(270) translate(0,3)" style="font-family: sans-serif; font-size: 10px; fill: #000; opacity: 1;">1995</text><text text-anchor="end" transform="translate(580,7) rotate(270) translate(0,3)" style="font-family: sans-serif; font-size: 10px; fill: #000; opacity: 1;">1996</text><text text-anchor="end" transform="translate(593.3333333333334,7) rotate(270) translate(0,3)" style="font-family: sans-serif; font-size: 10px; fill: #000; opacity: 1;">1997</text><text text-anchor="end" transform="translate(606.6666666666666,7) rotate(270) translate(0,3)" style="font-family: sans-serif; font-size: 10px; fill: #000; opacity: 1;">1998</text><text text-anchor="end" transform="translate(620,7) rotate(270) translate(0,3)" style="font-family: sans-serif; font-size: 10px; fill: #000; opacity: 1;">1999</text><text text-anchor="end" transform="translate(633.3333333333334,7) rotate(270) translate(0,3)" style="font-family: sans-serif; font-size: 10px; fill: #000; opacity: 1;">2000</text><text text-anchor="end" transform="translate(646.6666666666666,7) rotate(270) translate(0,3)" style="font-family: sans-serif; font-size: 10px; fill: #000; opacity: 1;">2001</text><text text-anchor="end" transform="translate(660,7) rotate(270) translate(0,3)" style="font-family: sans-serif; font-size: 10px; fill: #000; opacity: 1;">2002</text><text text-anchor="end" transform="translate(673.3333333333334,7) rotate(270) translate(0,3)" style="font-family: sans-serif; font-size: 10px; fill: #000; opacity: 1;">2003</text><text text-anchor="end" transform="translate(686.6666666666666,7) rotate(270) translate(0,3)" style="font-family: sans-serif; font-size: 10px; fill: #000; opacity: 1;">2004</text><text text-anchor="end" transform="translate(700,7) rotate(270) translate(0,3)" style="font-family: sans-serif; font-size: 10px; fill: #000; opacity: 1;">2005</text><text text-anchor="end" transform="translate(713.3333333333334,7) rotate(270) translate(0,3)" style="font-family: sans-serif; font-size: 10px; fill: #000; opacity: 1;">2006</text><text text-anchor="end" transform="translate(726.6666666666666,7) rotate(270) translate(0,3)" style="font-family: sans-serif; font-size: 10px; fill: #000; opacity: 1;">2007</text><text text-anchor="end" transform="translate(740,7) rotate(270) translate(0,3)" style="font-family: sans-serif; font-size: 10px; fill: #000; opacity: 1;">2008</text><text text-anchor="end" transform="translate(753.3333333333334,7) rotate(270) translate(0,3)" style="font-family: sans-serif; font-size: 10px; fill: #000; opacity: 1;">2009</text><text text-anchor="end" transform="translate(766.6666666666666,7) rotate(270) translate(0,3)" style="font-family: sans-serif; font-size: 10px; fill: #000; opacity: 1;">2013</text><text text-anchor="end" transform="translate(780,7) rotate(270) translate(0,3)" style="font-family: sans-serif; font-size: 10px; fill: #000; opacity: 1;">2014</text><text text-anchor="end" transform="translate(793.3333333333334,7) rotate(270) translate(0,3)" style="font-family: sans-serif; font-size: 10px; fill: #000; opacity: 1;">2015</text></g><g class="mark-rule role-axis-domain" style="pointer-events: none;"><line transform="translate(0,0)" x2="800" y2="0" style="fill: none; stroke: #888; stroke-width: 1; opacity: 1;"></line></g><g class="mark-text role-axis-title" style="pointer-events: none;"><text text-anchor="middle" transform="translate(400,42.24609375000001)" style="font-family: sans-serif; font-size: 11px; font-weight: bold; fill: #000; opacity: 1;">Year</text></g></g><path class="foreground" d="" style="pointer-events: none; display: none; fill: none;"></path></g></g><g class="mark-group role-axis"><g transform="translate(0.5,0.5)"><path class="background" d="M0,0h0v0h0Z" style="pointer-events: none; fill: none;"></path><g><g class="mark-rule role-axis-tick" style="pointer-events: none;"><line transform="translate(0,400)" x2="-5" y2="0" style="fill: none; stroke: #888; stroke-width: 1; opacity: 1;"></line><line transform="translate(0,360)" x2="-5" y2="0" style="fill: none; stroke: #888; stroke-width: 1; opacity: 1;"></line><line transform="translate(0,320)" x2="-5" y2="0" style="fill: none; stroke: #888; stroke-width: 1; opacity: 1;"></line><line transform="translate(0,280)" x2="-5" y2="0" style="fill: none; stroke: #888; stroke-width: 1; opacity: 1;"></line><line transform="translate(0,240)" x2="-5" y2="0" style="fill: none; stroke: #888; stroke-width: 1; opacity: 1;"></line><line transform="translate(0,200)" x2="-5" y2="0" style="fill: none; stroke: #888; stroke-width: 1; opacity: 1;"></line><line transform="translate(0,160)" x2="-5" y2="0" style="fill: none; stroke: #888; stroke-width: 1; opacity: 1;"></line><line transform="translate(0,120)" x2="-5" y2="0" style="fill: none; stroke: #888; stroke-width: 1; opacity: 1;"></line><line transform="translate(0,80)" x2="-5" y2="0" style="fill: none; stroke: #888; stroke-width: 1; opacity: 1;"></line><line transform="translate(0,40)" x2="-5" y2="0" style="fill: none; stroke: #888; stroke-width: 1; opacity: 1;"></line><line transform="translate(0,0)" x2="-5" y2="0" style="fill: none; stroke: #888; stroke-width: 1; opacity: 1;"></line></g><g class="mark-text role-axis-label" style="pointer-events: none;"><text text-anchor="end" transform="translate(-7,403)" style="font-family: sans-serif; font-size: 10px; fill: #000; opacity: 1;">2,000</text><text text-anchor="end" transform="translate(-7,363)" style="font-family: sans-serif; font-size: 10px; fill: #000; opacity: 1;">1,800</text><text text-anchor="end" transform="translate(-7,323)" style="font-family: sans-serif; font-size: 10px; fill: #000; opacity: 1;">1,600</text><text text-anchor="end" transform="translate(-7,283)" style="font-family: sans-serif; font-size: 10px; fill: #000; opacity: 1;">1,400</text><text text-anchor="end" transform="translate(-7,243)" style="font-family: sans-serif; font-size: 10px; fill: #000; opacity: 1;">1,200</text><text text-anchor="end" transform="translate(-7,203)" style="font-family: sans-serif; font-size: 10px; fill: #000; opacity: 1;">1,000</text><text text-anchor="end" transform="translate(-7,163)" style="font-family: sans-serif; font-size: 10px; fill: #000; opacity: 1;">800</text><text text-anchor="end" transform="translate(-7,123)" style="font-family: sans-serif; font-size: 10px; fill: #000; opacity: 1;">600</text><text text-anchor="end" transform="translate(-7,83)" style="font-family: sans-serif; font-size: 10px; fill: #000; opacity: 1;">400</text><text text-anchor="end" transform="translate(-7,43)" style="font-family: sans-serif; font-size: 10px; fill: #000; opacity: 1;">200</text><text text-anchor="end" transform="translate(-7,3)" style="font-family: sans-serif; font-size: 10px; fill: #000; opacity: 1;">0</text></g><g class="mark-rule role-axis-domain" style="pointer-events: none;"><line transform="translate(0,400)" x2="0" y2="-400" style="fill: none; stroke: #888; stroke-width: 1; opacity: 1;"></line></g><g class="mark-text role-axis-title" style="pointer-events: none;"><text text-anchor="middle" transform="translate(-36.0244140625,200) rotate(-90) translate(0,-2)" style="font-family: sans-serif; font-size: 11px; font-weight: bold; fill: #000; opacity: 1;">Depth</text></g></g><path class="foreground" d="" style="pointer-events: none; display: none; fill: none;"></path></g></g></g><path class="foreground" d="" style="display: none; fill: none;"></path></g></g></g></svg>