<svg class="marks" width="967" height="472" viewBox="0 0 967 472" version="1.1" xmlns="http://www.w3.org/2000/svg" xmlns:xlink="http://www.w3.org/1999/xlink"><g transform="translate(113,22)"><g class="mark-group role-frame root"><g transform="translate(0,0)"><path class="background" d="M0.5,0.5h800v400h-800Z" style="fill: none; stroke: #ddd;"></path><g><g class="mark-symbol role-mark marks"><path transform="translate(388.2352941176471,90.90909090909089)" d="M4.2485291572496005,0A4.2485291572496005,4.2485291572496005,0,1,1,-4.2485291572496005,0A4.2485291572496005,4.2485291572496005,0,1,1,4.2485291572496005,0" style="fill: #f58518; stroke-width: 2; opacity: 0.7;"></path><path transform="translate(717.6470588235295,90.90909090909089)" d="M4.2485291572496005,0A4.2485291572496005,4.2485291572496005,0,1,1,-4.2485291572496005,0A4.2485291572496005,4.2485291572496005,0,1,1,4.2485291572496005,0" style="fill: #f58518; stroke-width: 2; opacity: 0.7;"></path><path transform="translate(741.1764705882354,90.90909090909089)" d="M6.008327554319921,0A6.008327554319921,6.008327554319921,0,1,1,-6.008327554319921,0A6.008327554319921,6.008327554319921,0,1,1,6.008327554319921,0" style="fill: #f58518; stroke-width: 2; opacity: 0.7;"></path><path transform="translate(623.5294117647059,127.27272727272725)" d="M4.2485291572496005,0A4.2485291572496005,4.2485291572496005,0,1,1,-4.2485291572496005,0A4.2485291572496005,4.2485291572496005,0,1,1,4.2485291572496005,0" style="fill: #f58518; stroke-width: 2; opacity: 0.7;"></path><path transform="translate(482.3529411764706,163.63636363636363)" d="M4.2485291572496005,0A4.2485291572496005,4.2485291572496005,0,1,1,-4.2485291572496005,0A4.2485291572496005,4.2485291572496005,0,1,1,4.2485291572496005,0" style="fill: #f58518; stroke-width: 2; opacity: 0.7;"></path><path transform="translate(529.4117647058824,163.63636363636363)" d="M4.2485291572496005,0A4.2485291572496005,4.2485291572496005,0,1,1,-4.2485291572496005,0A4.2485291572496005,4.2485291572496005,0,1,1,4.2485291572496005,0" style="fill: #f58518; stroke-width: 2; opacity: 0.7;"></path><path transform="translate(58.823529411764696,200)" d="M4.2485291572496005,0A4.2485291572496005,4.2485291572496005,0,1,1,-4.2485291572496005,0A4.2485291572496005,4.2485291572496005,0,1,1,4.2485291572496005,0" style="fill: #f58518; stroke-width: 2; opacity: 0.7;"></path><path transform="translate(82.35294117647058,200)" d="M4.2485291572496005,0A4.2485291572496005,4.2485291572496005,0,1,1,-4.2485291572496005,0A4.2485291572496005,4.2485291572496005,0,1,1,4.2485291572496005,0" style="fill: #f58518; stroke-width: 2; opacity: 0.7;"></path><path transform="translate(764.7058823529412,200)" d="M4.2485291572496005,0A4.2485291572496005,4.2485291572496005,0,1,1,-4.2485291572496005,0A4.2485291572496005,4.2485291572496005,0,1,1,4.2485291572496005,0" style="fill: #f58518; stroke-width: 2; opacity: 0.7;"></path><path transform="translate(294.11764705882354,236.36363636363635)" d="M4.2485291572496005,0A4.2485291572496005,4.2485291572496005,0,1,1,-4.2485291572496005,0A4.2485291572496005,4.2485291572496005,0,1,1,4.2485291572496005,0" style="fill: #f58518; stroke-width: 2; opacity: 0.7;"></path><path transform="translate(341.1764705882353,272.72727272727275)" d="M4.2485291572496005,0A4.2485291572496005,4.2485291572496005,0,1,1,-4.2485291572496005,0A4.2485291572496005,4.2485291572496005,0,1,1,4.2485291572496005,0" style="fill: #f58518; stroke-width: 2; opacity: 0.7;"></path><path transform="translate(364.7058823529412,272.72727272727275)" d="M4.2485291572496005,0A4.2485291572496005,4.2485291572496005,0,1,1,-4.2485291572496005,0A4.2485291572496005,4.2485291572496005,0,1,1,4.2485291572496005,0" style="fill: #f58518; stroke-width: 2; opacity: 0.7;"></path><path transform="translate(623.5294117647059,309.0909090909091)" d="M4.2485291572496005,0A4.2485291572496005,4.2485291572496005,0,1,1,-4.2485291572496005,0A4.2485291572496005,4.2485291572496005,0,1,1,4.2485291572496005,0" style="fill: #f58518; stroke-width: 2; opacity: 0.7;"></path><path transform="translate(647.0588235294118,309.0909090909091)" d="M4.2485291572496005,0A4.2485291572496005,4.2485291572496005,0,1,1,-4.2485291572496005,0A4.2485291572496005,4.2485291572496005,0,1,1,4.2485291572496005,0" style="fill: #f58518; stroke-width: 2; opacity: 0.7;"></path><path transform="translate(35.29411764705881,54.545454545454525)" d="M4.2485291572496005,0A4.2485291572496005,4.2485291572496005,0,1,1,-4.2485291572496005,0A4.2485291572496005,4.2485291572496005,0,1,1,4.2485291572496005,0" style="fill: #f58518; stroke-width: 2; opacity: 0.7;"></path><path transform="translate(105.88235294117646,54.545454545454525)" d="M6.008327554319921,0A6.008327554319921,6.008327554319921,0,1,1,-6.008327554319921,0A6.008327554319921,6.008327554319921,0,1,1,6.008327554319921,0" style="fill: #f58518; stroke-width: 2; opacity: 0.7;"></path><path transform="translate(129.41176470588235,54.545454545454525)" d="M6.008327554319921,0A6.008327554319921,6.008327554319921,0,1,1,-6.008327554319921,0A6.008327554319921,6.008327554319921,0,1,1,6.008327554319921,0" style="fill: #f58518; stroke-width: 2; opacity: 0.7;"></path><path transform="translate(152.94117647058823,54.545454545454525)" d="M4.2485291572496005,0A4.2485291572496005,4.2485291572496005,0,1,1,-4.2485291572496005,0A4.2485291572496005,4.2485291572496005,0,1,1,4.2485291572496005,0" style="fill: #f58518; stroke-width: 2; opacity: 0.7;"></path><path transform="translate(176.47058823529412,54.545454545454525)" d="M4.2485291572496005,0A4.2485291572496005,4.2485291572496005,0,1,1,-4.2485291572496005,0A4.2485291572496005,4.2485291572496005,0,1,1,4.2485291572496005,0" style="fill: #f58518; stroke-width: 2; opacity: 0.7;"></path><path transform="translate(200,54.545454545454525)" d="M6.008327554319921,0A6.008327554319921,6.008327554319921,0,1,1,-6.008327554319921,0A6.008327554319921,6.008327554319921,0,1,1,6.008327554319921,0" style="fill: #f58518; stroke-width: 2; opacity: 0.7;"></path><path transform="translate(223.52941176470588,54.545454545454525)" d="M4.2485291572496005,0A4.2485291572496005,4.2485291572496005,0,1,1,-4.2485291572496005,0A4.2485291572496005,4.2485291572496005,0,1,1,4.2485291572496005,0" style="fill: #f58518; stroke-width: 2; opacity: 0.7;"></path><path transform="translate(247.05882352941177,54.545454545454525)" d="M4.2485291572496005,0A4.2485291572496005,4.2485291572496005,0,1,1,-4.2485291572496005,0A4.2485291572496005,4.2485291572496005,0,1,1,4.2485291572496005,0" style="fill: #f58518; stroke-width: 2; opacity: 0.7;"></path><path transform="translate(270.5882352941177,54.545454545454525)" d="M7.358668357794092,0A7.358668357794092,7.358668357794092,0,1,1,-7.358668357794092,0A7.358668357794092,7.358668357794092,0,1,1,7.358668357794092,0" style="fill: #f58518; stroke-width: 2; opacity: 0.7;"></path><path transform="translate(317.6470588235294,54.545454545454525)" d="M4.2485291572496005,0A4.2485291572496005,4.2485291572496005,0,1,1,-4.2485291572496005,0A4.2485291572496005,4.2485291572496005,0,1,1,4.2485291572496005,0" style="fill: #f58518; stroke-width: 2; opacity: 0.7;"></path><path transform="translate(364.7058823529412,54.545454545454525)" d="M4.2485291572496005,0A4.2485291572496005,4.2485291572496005,0,1,1,-4.2485291572496005,0A4.2485291572496005,4.2485291572496005,0,1,1,4.2485291572496005,0" style="fill: #f58518; stroke-width: 2; opacity: 0.7;"></path><path transform="translate(388.2352941176471,54.545454545454525)" d="M8.497058314499201,0A8.497058314499201,8.497058314499201,0,1,1,-8.497058314499201,0A8.497058314499201,8.497058314499201,0,1,1,8.497058314499201,0" style="fill: #f58518; stroke-width: 2; opacity: 0.7;"></path><path transform="translate(411.7647058823529,54.545454545454525)" d="M7.358668357794092,0A7.358668357794092,7.358668357794092,0,1,1,-7.358668357794092,0A7.358668357794092,7.358668357794092,0,1,1,7.358668357794092,0" style="fill: #f58518; stroke-width: 2; opacity: 0.7;"></path><path transform="translate(435.29411764705884,54.545454545454525)" d="M4.2485291572496005,0A4.2485291572496005,4.2485291572496005,0,1,1,-4.2485291572496005,0A4.2485291572496005,4.2485291572496005,0,1,1,4.2485291572496005,0" style="fill: #f58518; stroke-width: 2; opacity: 0.7;"></path><path transform="translate(458.82352941176475,54.545454545454525)" d="M4.2485291572496005,0A4.2485291572496005,4.2485291572496005,0,1,1,-4.2485291572496005,0A4.2485291572496005,4.2485291572496005,0,1,1,4.2485291572496005,0" style="fill: #f58518; stroke-width: 2; opacity: 0.7;"></path><path transform="translate(647.0588235294118,345.4545454545455)" d="M4.2485291572496005,0A4.2485291572496005,4.2485291572496005,0,1,1,-4.2485291572496005,0A4.2485291572496005,4.2485291572496005,0,1,1,4.2485291572496005,0" style="fill: #f58518; stroke-width: 2; opacity: 0.7;"></path><path transform="translate(788.2352941176471,345.4545454545455)" d="M4.2485291572496005,0A4.2485291572496005,4.2485291572496005,0,1,1,-4.2485291572496005,0A4.2485291572496005,4.2485291572496005,0,1,1,4.2485291572496005,0" style="fill: #f58518; stroke-width: 2; opacity: 0.7;"></path><path transform="translate(11.764705882352928,18.18181818181816)" d="M4.2485291572496005,0A4.2485291572496005,4.2485291572496005,0,1,1,-4.2485291572496005,0A4.2485291572496005,4.2485291572496005,0,1,1,4.2485291572496005,0" style="fill: #f58518; stroke-width: 2; opacity: 0.7;"></path><path transform="translate(505.88235294117646,18.18181818181816)" d="M4.2485291572496005,0A4.2485291572496005,4.2485291572496005,0,1,1,-4.2485291572496005,0A4.2485291572496005,4.2485291572496005,0,1,1,4.2485291572496005,0" style="fill: #f58518; stroke-width: 2; opacity: 0.7;"></path><path transform="translate(552.9411764705883,18.18181818181816)" d="M4.2485291572496005,0A4.2485291572496005,4.2485291572496005,0,1,1,-4.2485291572496005,0A4.2485291572496005,4.2485291572496005,0,1,1,4.2485291572496005,0" style="fill: #f58518; stroke-width: 2; opacity: 0.7;"></path><path transform="translate(576.4705882352941,18.18181818181816)" d="M6.008327554319921,0A6.008327554319921,6.008327554319921,0,1,1,-6.008327554319921,0A6.008327554319921,6.008327554319921,0,1,1,6.008327554319921,0" style="fill: #f58518; stroke-width: 2; opacity: 0.7;"></path><path transform="translate(600,18.18181818181816)" d="M9.5,0A9.5,9.5,0,1,1,-9.5,0A9.5,9.5,0,1,1,9.5,0" style="fill: #f58518; stroke-width: 2; opacity: 0.7;"></path><path transform="translate(341.1764705882353,381.81818181818187)" d="M4.2485291572496005,0A4.2485291572496005,4.2485291572496005,0,1,1,-4.2485291572496005,0A4.2485291572496005,4.2485291572496005,0,1,1,4.2485291572496005,0" style="fill: #f58518; stroke-width: 2; opacity: 0.7;"></path><path transform="translate(670.5882352941177,381.81818181818187)" d="M4.2485291572496005,0A4.2485291572496005,4.2485291572496005,0,1,1,-4.2485291572496005,0A4.2485291572496005,4.2485291572496005,0,1,1,4.2485291572496005,0" style="fill: #f58518; stroke-width: 2; opacity: 0.7;"></path><path transform="translate(694.1176470588235,381.81818181818187)" d="M4.2485291572496005,0A4.2485291572496005,4.2485291572496005,0,1,1,-4.2485291572496005,0A4.2485291572496005,4.2485291572496005,0,1,1,4.2485291572496005,0" style="fill: #f58518; stroke-width: 2; opacity: 0.7;"></path></g><g class="mark-group role-legend"><g transform="translate(818,0)"><path class="background" d="M0,0h31v114h-31Z" style="pointer-events: none; fill: none;"></path><g><g class="mark-group role-legend-entry"><g transform="translate(0,16)"><path class="background" d="M0,0h0v0h0Z" style="pointer-events: none; fill: none;"></path><g><g class="mark-group role-scope"><g transform="translate(0,0)"><path class="background" d="M0,0h30.5615234375v10.7485291572496h-30.5615234375Z" style="pointer-events: none; fill: none; opacity: 1;"></path><g><g class="mark-symbol role-legend-symbol" style="pointer-events: none;"><path transform="translate(10.5,5)" d="M4.2485291572496005,0A4.2485291572496005,4.2485291572496005,0,1,1,-4.2485291572496005,0A4.2485291572496005,4.2485291572496005,0,1,1,4.2485291572496005,0" style="fill: #f58518; stroke: none; stroke-width: 1.5; opacity: 0.7;"></path></g><g class="mark-text role-legend-label" style="pointer-events: none;"><text text-anchor="start" transform="translate(25,8)" style="font-family: sans-serif; font-size: 10px; fill: #000; opacity: 1;">1</text></g></g><path class="foreground" d="" style="pointer-events: none; display: none; fill: none;"></path></g><g transform="translate(0,14)"><path class="background" d="M0,0h30.5615234375v14.50832755431992h-30.5615234375Z" style="pointer-events: none; fill: none; opacity: 1;"></path><g><g class="mark-symbol role-legend-symbol" style="pointer-events: none;"><path transform="translate(10.5,7)" d="M6.008327554319921,0A6.008327554319921,6.008327554319921,0,1,1,-6.008327554319921,0A6.008327554319921,6.008327554319921,0,1,1,6.008327554319921,0" style="fill: #f58518; stroke: none; stroke-width: 1.5; opacity: 0.7;"></path></g><g class="mark-text role-legend-label" style="pointer-events: none;"><text text-anchor="start" transform="translate(25,10)" style="font-family: sans-serif; font-size: 10px; fill: #000; opacity: 1;">2</text></g></g><path class="foreground" d="" style="pointer-events: none; display: none; fill: none;"></path></g><g transform="translate(0,32)"><path class="background" d="M0,0h30.5615234375v17.358668357794087h-30.5615234375Z" style="pointer-events: none; fill: none; opacity: 1;"></path><g><g class="mark-symbol role-legend-symbol" style="pointer-events: none;"><path transform="translate(10.5,8.5)" d="M7.358668357794092,0A7.358668357794092,7.358668357794092,0,1,1,-7.358668357794092,0A7.358668357794092,7.358668357794092,0,1,1,7.358668357794092,0" style="fill: #f58518; stroke: none; stroke-width: 1.5; opacity: 0.7;"></path></g><g class="mark-text role-legend-label" style="pointer-events: none;"><text text-anchor="start" transform="translate(25,11.5)" style="font-family: sans-serif; font-size: 10px; fill: #000; opacity: 1;">3</text></g></g><path class="foreground" d="" style="pointer-events: none; display: none; fill: none;"></path></g><g transform="translate(0,53)"><path class="background" d="M0,0h30.5615234375v19.4970583144992h-30.5615234375Z" style="pointer-events: none; fill: none; opacity: 1;"></path><g><g class="mark-symbol role-legend-symbol" style="pointer-events: none;"><path transform="translate(10.5,9.5)" d="M8.497058314499201,0A8.497058314499201,8.497058314499201,0,1,1,-8.497058314499201,0A8.497058314499201,8.497058314499201,0,1,1,8.497058314499201,0" style="fill: #f58518; stroke: none; stroke-width: 1.5; opacity: 0.7;"></path></g><g class="mark-text role-legend-label" style="pointer-events: none;"><text text-anchor="start" transform="translate(25,12.5)" style="font-family: sans-serif; font-size: 10px; fill: #000; opacity: 1;">4</text></g></g><path class="foreground" d="" style="pointer-events: none; display: none; fill: none;"></path></g><g transform="translate(0,76)"><path class="background" d="M0,0h30.5615234375v21.5h-30.5615234375Z" style="pointer-events: none; fill: none; opacity: 1;"></path><g><g class="mark-symbol role-legend-symbol" style="pointer-events: none;"><path transform="translate(10.5,10.5)" d="M9.5,0A9.5,9.5,0,1,1,-9.5,0A9.5,9.5,0,1,1,9.5,0" style="fill: #f58518; stroke: none; stroke-width: 1.5; opacity: 0.7;"></path></g><g class="mark-text role-legend-label" style="pointer-events: none;"><text text-anchor="start" transform="translate(25,13.5)" style="font-family: sans-serif; font-size: 10px; fill: #000; opacity: 1;">5</text></g></g><path class="foreground" d="" style="pointer-events: none; display: none; fill: none;"></path></g></g></g><path class="foreground" d="" style="pointer-events: none; display: none; fill: none;"></path></g></g><g class="mark-text role-legend-title" style="pointer-events: none;"><text text-anchor="start" transform="translate(0,9)" style="font-family: sans-serif; font-size: 11px; font-weight: bold; fill: #000; opacity: 1;">count</text></g></g><path class="foreground" d="" style="pointer-events: none; display: none; fill: none;"></path></g></g><g class="mark-group role-title"><g transform="translate(400,-17)"><path class="background" d="M0,0h0v0h0Z" style="pointer-events: none; fill: none;"></path><g><g class="mark-text role-title-text" style="pointer-events: none;"><text text-anchor="middle" transform="translate(0,10)" style="font-family: sans-serif; font-size: 13px; font-weight: bold; fill: #000; opacity: 1;">Number of Alotipo of each order per year</text></g></g><path class="foreground" d="" style="pointer-events: none; display: none; fill: none;"></path></g></g><g class="mark-group role-axis"><g transform="translate(0.5,400.5)"><path class="background" d="M0,0h0v0h0Z" style="pointer-events: none; fill: none;"></path><g><g class="mark-rule role-axis-tick" style="pointer-events: none;"><line transform="translate(12,0)" x2="0" y2="5" style="fill: none; stroke: #888; stroke-width: 1; opacity: 1;"></line><line transform="translate(35,0)" x2="0" y2="5" style="fill: none; stroke: #888; stroke-width: 1; opacity: 1;"></line><line transform="translate(59,0)" x2="0" y2="5" style="fill: none; stroke: #888; stroke-width: 1; opacity: 1;"></line><line transform="translate(82,0)" x2="0" y2="5" style="fill: none; stroke: #888; stroke-width: 1; opacity: 1;"></line><line transform="translate(106,0)" x2="0" y2="5" style="fill: none; stroke: #888; stroke-width: 1; opacity: 1;"></line><line transform="translate(129,0)" x2="0" y2="5" style="fill: none; stroke: #888; stroke-width: 1; opacity: 1;"></line><line transform="translate(153,0)" x2="0" y2="5" style="fill: none; stroke: #888; stroke-width: 1; opacity: 1;"></line><line transform="translate(176,0)" x2="0" y2="5" style="fill: none; stroke: #888; stroke-width: 1; opacity: 1;"></line><line transform="translate(200,0)" x2="0" y2="5" style="fill: none; stroke: #888; stroke-width: 1; opacity: 1;"></line><line transform="translate(224,0)" x2="0" y2="5" style="fill: none; stroke: #888; stroke-width: 1; opacity: 1;"></line><line transform="translate(247,0)" x2="0" y2="5" style="fill: none; stroke: #888; stroke-width: 1; opacity: 1;"></line><line transform="translate(271,0)" x2="0" y2="5" style="fill: none; stroke: #888; stroke-width: 1; opacity: 1;"></line><line transform="translate(294,0)" x2="0" y2="5" style="fill: none; stroke: #888; stroke-width: 1; opacity: 1;"></line><line transform="translate(318,0)" x2="0" y2="5" style="fill: none; stroke: #888; stroke-width: 1; opacity: 1;"></line><line transform="translate(341,0)" x2="0" y2="5" style="fill: none; stroke: #888; stroke-width: 1; opacity: 1;"></line><line transform="translate(365,0)" x2="0" y2="5" style="fill: none; stroke: #888; stroke-width: 1; opacity: 1;"></line><line transform="translate(388,0)" x2="0" y2="5" style="fill: none; stroke: #888; stroke-width: 1; opacity: 1;"></line><line transform="translate(412,0)" x2="0" y2="5" style="fill: none; stroke: #888; stroke-width: 1; opacity: 1;"></line><line transform="translate(435,0)" x2="0" y2="5" style="fill: none; stroke: #888; stroke-width: 1; opacity: 1;"></line><line transform="translate(459,0)" x2="0" y2="5" style="fill: none; stroke: #888; stroke-width: 1; opacity: 1;"></line><line transform="translate(482,0)" x2="0" y2="5" style="fill: none; stroke: #888; stroke-width: 1; opacity: 1;"></line><line transform="translate(506,0)" x2="0" y2="5" style="fill: none; stroke: #888; stroke-width: 1; opacity: 1;"></line><line transform="translate(529,0)" x2="0" y2="5" style="fill: none; stroke: #888; stroke-width: 1; opacity: 1;"></line><line transform="translate(553,0)" x2="0" y2="5" style="fill: none; stroke: #888; stroke-width: 1; opacity: 1;"></line><line transform="translate(576,0)" x2="0" y2="5" style="fill: none; stroke: #888; stroke-width: 1; opacity: 1;"></line><line transform="translate(600,0)" x2="0" y2="5" style="fill: none; stroke: #888; stroke-width: 1; opacity: 1;"></line><line transform="translate(624,0)" x2="0" y2="5" style="fill: none; stroke: #888; stroke-width: 1; opacity: 1;"></line><line transform="translate(647,0)" x2="0" y2="5" style="fill: none; stroke: #888; stroke-width: 1; opacity: 1;"></line><line transform="translate(671,0)" x2="0" y2="5" style="fill: none; stroke: #888; stroke-width: 1; opacity: 1;"></line><line transform="translate(694,0)" x2="0" y2="5" style="fill: none; stroke: #888; stroke-width: 1; opacity: 1;"></line><line transform="translate(718,0)" x2="0" y2="5" style="fill: none; stroke: #888; stroke-width: 1; opacity: 1;"></line><line transform="translate(741,0)" x2="0" y2="5" style="fill: none; stroke: #888; stroke-width: 1; opacity: 1;"></line><line transform="translate(765,0)" x2="0" y2="5" style="fill: none; stroke: #888; stroke-width: 1; opacity: 1;"></line><line transform="translate(788,0)" x2="0" y2="5" style="fill: none; stroke: #888; stroke-width: 1; opacity: 1;"></line></g><g class="mark-text role-axis-label" style="pointer-events: none;"><text text-anchor="end" transform="translate(11.764705882352928,7) rotate(270) translate(0,3)" style="font-family: sans-serif; font-size: 10px; fill: #000; opacity: 1;">1910</text><text text-anchor="end" transform="translate(35.29411764705881,7) rotate(270) translate(0,3)" style="font-family: sans-serif; font-size: 10px; fill: #000; opacity: 1;">1944</text><text text-anchor="end" transform="translate(58.823529411764696,7) rotate(270) translate(0,3)" style="font-family: sans-serif; font-size: 10px; fill: #000; opacity: 1;">1947</text><text text-anchor="end" transform="translate(82.35294117647058,7) rotate(270) translate(0,3)" style="font-family: sans-serif; font-size: 10px; fill: #000; opacity: 1;">1948</text><text text-anchor="end" transform="translate(105.88235294117646,7) rotate(270) translate(0,3)" style="font-family: sans-serif; font-size: 10px; fill: #000; opacity: 1;">1950</text><text text-anchor="end" transform="translate(129.41176470588235,7) rotate(270) translate(0,3)" style="font-family: sans-serif; font-size: 10px; fill: #000; opacity: 1;">1951</text><text text-anchor="end" transform="translate(152.94117647058823,7) rotate(270) translate(0,3)" style="font-family: sans-serif; font-size: 10px; fill: #000; opacity: 1;">1952</text><text text-anchor="end" transform="translate(176.47058823529412,7) rotate(270) translate(0,3)" style="font-family: sans-serif; font-size: 10px; fill: #000; opacity: 1;">1953</text><text text-anchor="end" transform="translate(200,7) rotate(270) translate(0,3)" style="font-family: sans-serif; font-size: 10px; fill: #000; opacity: 1;">1955</text><text text-anchor="end" transform="translate(223.52941176470588,7) rotate(270) translate(0,3)" style="font-family: sans-serif; font-size: 10px; fill: #000; opacity: 1;">1957</text><text text-anchor="end" transform="translate(247.05882352941177,7) rotate(270) translate(0,3)" style="font-family: sans-serif; font-size: 10px; fill: #000; opacity: 1;">1958</text><text text-anchor="end" transform="translate(270.5882352941177,7) rotate(270) translate(0,3)" style="font-family: sans-serif; font-size: 10px; fill: #000; opacity: 1;">1959</text><text text-anchor="end" transform="translate(294.11764705882354,7) rotate(270) translate(0,3)" style="font-family: sans-serif; font-size: 10px; fill: #000; opacity: 1;">1960</text><text text-anchor="end" transform="translate(317.6470588235294,7) rotate(270) translate(0,3)" style="font-family: sans-serif; font-size: 10px; fill: #000; opacity: 1;">1961</text><text text-anchor="end" transform="translate(341.1764705882353,7) rotate(270) translate(0,3)" style="font-family: sans-serif; font-size: 10px; fill: #000; opacity: 1;">1962</text><text text-anchor="end" transform="translate(364.7058823529412,7) rotate(270) translate(0,3)" style="font-family: sans-serif; font-size: 10px; fill: #000; opacity: 1;">1963</text><text text-anchor="end" transform="translate(388.2352941176471,7) rotate(270) translate(0,3)" style="font-family: sans-serif; font-size: 10px; fill: #000; opacity: 1;">1964</text><text text-anchor="end" transform="translate(411.7647058823529,7) rotate(270) translate(0,3)" style="font-family: sans-serif; font-size: 10px; fill: #000; opacity: 1;">1965</text><text text-anchor="end" transform="translate(435.29411764705884,7) rotate(270) translate(0,3)" style="font-family: sans-serif; font-size: 10px; fill: #000; opacity: 1;">1966</text><text text-anchor="end" transform="translate(458.82352941176475,7) rotate(270) translate(0,3)" style="font-family: sans-serif; font-size: 10px; fill: #000; opacity: 1;">1973</text><text text-anchor="end" transform="translate(482.3529411764706,7) rotate(270) translate(0,3)" style="font-family: sans-serif; font-size: 10px; fill: #000; opacity: 1;">1989</text><text text-anchor="end" transform="translate(505.88235294117646,7) rotate(270) translate(0,3)" style="font-family: sans-serif; font-size: 10px; fill: #000; opacity: 1;">1992</text><text text-anchor="end" transform="translate(529.4117647058824,7) rotate(270) translate(0,3)" style="font-family: sans-serif; font-size: 10px; fill: #000; opacity: 1;">1993</text><text text-anchor="end" transform="translate(552.9411764705883,7) rotate(270) translate(0,3)" style="font-family: sans-serif; font-size: 10px; fill: #000; opacity: 1;">1995</text><text text-anchor="end" transform="translate(576.4705882352941,7) rotate(270) translate(0,3)" style="font-family: sans-serif; font-size: 10px; fill: #000; opacity: 1;">1996</text><text text-anchor="end" transform="translate(600,7) rotate(270) translate(0,3)" style="font-family: sans-serif; font-size: 10px; fill: #000; opacity: 1;">1997</text><text text-anchor="end" transform="translate(623.5294117647059,7) rotate(270) translate(0,3)" style="font-family: sans-serif; font-size: 10px; fill: #000; opacity: 1;">1998</text><text text-anchor="end" transform="translate(647.0588235294118,7) rotate(270) translate(0,3)" style="font-family: sans-serif; font-size: 10px; fill: #000; opacity: 1;">2001</text><text text-anchor="end" transform="translate(670.5882352941177,7) rotate(270) translate(0,3)" style="font-family: sans-serif; font-size: 10px; fill: #000; opacity: 1;">2002</text><text text-anchor="end" transform="translate(694.1176470588235,7) rotate(270) translate(0,3)" style="font-family: sans-serif; font-size: 10px; fill: #000; opacity: 1;">2004</text><text text-anchor="end" transform="translate(717.6470588235295,7) rotate(270) translate(0,3)" style="font-family: sans-serif; font-size: 10px; fill: #000; opacity: 1;">2007</text><text text-anchor="end" transform="translate(741.1764705882354,7) rotate(270) translate(0,3)" style="font-family: sans-serif; font-size: 10px; fill: #000; opacity: 1;">2009</text><text text-anchor="end" transform="translate(764.7058823529412,7) rotate(270) translate(0,3)" style="font-family: sans-serif; font-size: 10px; fill: #000; opacity: 1;">2011</text><text text-anchor="end" transform="translate(788.2352941176471,7) rotate(270) translate(0,3)" style="font-family: sans-serif; font-size: 10px; fill: #000; opacity: 1;">2015</text></g><g class="mark-rule role-axis-domain" style="pointer-events: none;"><line transform="translate(0,0)" x2="800" y2="0" style="fill: none; stroke: #888; stroke-width: 1; opacity: 1;"></line></g><g class="mark-text role-axis-title" style="pointer-events: none;"><text text-anchor="middle" transform="translate(400,42.24609375)" style="font-family: sans-serif; font-size: 11px; font-weight: bold; fill: #000; opacity: 1;">Year</text></g></g><path class="foreground" d="" style="pointer-events: none; display: none; fill: none;"></path></g></g><g class="mark-group role-axis"><g transform="translate(0.5,0.5)"><path class="background" d="M0,0h0v0h0Z" style="pointer-events: none; fill: none;"></path><g><g class="mark-rule role-axis-tick" style="pointer-events: none;"><line transform="translate(0,18)" x2="-5" y2="0" style="fill: none; stroke: #888; stroke-width: 1; opacity: 1;"></line><line transform="translate(0,55)" x2="-5" y2="0" style="fill: none; stroke: #888; stroke-width: 1; opacity: 1;"></line><line transform="translate(0,91)" x2="-5" y2="0" style="fill: none; stroke: #888; stroke-width: 1; opacity: 1;"></line><line transform="translate(0,127)" x2="-5" y2="0" style="fill: none; stroke: #888; stroke-width: 1; opacity: 1;"></line><line transform="translate(0,164)" x2="-5" y2="0" style="fill: none; stroke: #888; stroke-width: 1; opacity: 1;"></line><line transform="translate(0,200)" x2="-5" y2="0" style="fill: none; stroke: #888; stroke-width: 1; opacity: 1;"></line><line transform="translate(0,236)" x2="-5" y2="0" style="fill: none; stroke: #888; stroke-width: 1; opacity: 1;"></line><line transform="translate(0,273)" x2="-5" y2="0" style="fill: none; stroke: #888; stroke-width: 1; opacity: 1;"></line><line transform="translate(0,309)" x2="-5" y2="0" style="fill: none; stroke: #888; stroke-width: 1; opacity: 1;"></line><line transform="translate(0,345)" x2="-5" y2="0" style="fill: none; stroke: #888; stroke-width: 1; opacity: 1;"></line><line transform="translate(0,382)" x2="-5" y2="0" style="fill: none; stroke: #888; stroke-width: 1; opacity: 1;"></line></g><g class="mark-text role-axis-label" style="pointer-events: none;"><text text-anchor="end" transform="translate(-7,21.18181818181816)" style="font-family: sans-serif; font-size: 10px; fill: #000; opacity: 1;">Siphonostomatoida</text><text text-anchor="end" transform="translate(-7,57.545454545454525)" style="font-family: sans-serif; font-size: 10px; fill: #000; opacity: 1;">Isopoda</text><text text-anchor="end" transform="translate(-7,93.90909090909089)" style="font-family: sans-serif; font-size: 10px; fill: #000; opacity: 1;">Amphipoda</text><text text-anchor="end" transform="translate(-7,130.27272727272725)" style="font-family: sans-serif; font-size: 10px; fill: #000; opacity: 1;">Anomopoda</text><text text-anchor="end" transform="translate(-7,166.63636363636363)" style="font-family: sans-serif; font-size: 10px; fill: #000; opacity: 1;">Anostraca</text><text text-anchor="end" transform="translate(-7,203)" style="font-family: sans-serif; font-size: 10px; fill: #000; opacity: 1;">Arguloida</text><text text-anchor="end" transform="translate(-7,239.36363636363635)" style="font-family: sans-serif; font-size: 10px; fill: #000; opacity: 1;">Bathynellacea</text><text text-anchor="end" transform="translate(-7,275.72727272727275)" style="font-family: sans-serif; font-size: 10px; fill: #000; opacity: 1;">Cumacea</text><text text-anchor="end" transform="translate(-7,312.0909090909091)" style="font-family: sans-serif; font-size: 10px; fill: #000; opacity: 1;">Decapoda</text><text text-anchor="end" transform="translate(-7,348.4545454545455)" style="font-family: sans-serif; font-size: 10px; fill: #000; opacity: 1;">Poecilostomatoida</text><text text-anchor="end" transform="translate(-7,384.81818181818187)" style="font-family: sans-serif; font-size: 10px; fill: #000; opacity: 1;">Tanaidacea</text></g><g class="mark-rule role-axis-domain" style="pointer-events: none;"><line transform="translate(0,0)" x2="0" y2="400" style="fill: none; stroke: #888; stroke-width: 1; opacity: 1;"></line></g><g class="mark-text role-axis-title" style="pointer-events: none;"><text text-anchor="middle" transform="translate(-96.615234375,200) rotate(-90) translate(0,-2)" style="font-family: sans-serif; font-size: 11px; font-weight: bold; fill: #000; opacity: 1;">Order</text></g></g><path class="foreground" d="" style="pointer-events: none; display: none; fill: none;"></path></g></g></g><path class="foreground" d="" style="display: none; fill: none;"></path></g></g></g></svg>