<svg class="marks" width="973" height="472" viewBox="0 0 973 472" version="1.1" xmlns="http://www.w3.org/2000/svg" xmlns:xlink="http://www.w3.org/1999/xlink"><g transform="translate(113,22)"><g class="mark-group role-frame root"><g transform="translate(0,0)"><path class="background" d="M0.5,0.5h800v400h-800Z" style="fill: none; stroke: #ddd;"></path><g><g class="mark-symbol role-mark marks"><path transform="translate(273.3333333333333,13.333333333333314)" d="M2.538981798168032,0A2.538981798168032,2.538981798168032,0,1,1,-2.538981798168032,0A2.538981798168032,2.538981798168032,0,1,1,2.538981798168032,0" style="fill: red; stroke-width: 2; opacity: 0.7;"></path><path transform="translate(286.66666666666663,13.333333333333314)" d="M2.538981798168032,0A2.538981798168032,2.538981798168032,0,1,1,-2.538981798168032,0A2.538981798168032,2.538981798168032,0,1,1,2.538981798168032,0" style="fill: red; stroke-width: 2; opacity: 0.7;"></path><path transform="translate(300,13.333333333333314)" d="M2.538981798168032,0A2.538981798168032,2.538981798168032,0,1,1,-2.538981798168032,0A2.538981798168032,2.538981798168032,0,1,1,2.538981798168032,0" style="fill: red; stroke-width: 2; opacity: 0.7;"></path><path transform="translate(380,13.333333333333314)" d="M2.538981798168032,0A2.538981798168032,2.538981798168032,0,1,1,-2.538981798168032,0A2.538981798168032,2.538981798168032,0,1,1,2.538981798168032,0" style="fill: red; stroke-width: 2; opacity: 0.7;"></path><path transform="translate(420,13.333333333333314)" d="M2.538981798168032,0A2.538981798168032,2.538981798168032,0,1,1,-2.538981798168032,0A2.538981798168032,2.538981798168032,0,1,1,2.538981798168032,0" style="fill: red; stroke-width: 2; opacity: 0.7;"></path><path transform="translate(433.3333333333333,13.333333333333314)" d="M2.538981798168032,0A2.538981798168032,2.538981798168032,0,1,1,-2.538981798168032,0A2.538981798168032,2.538981798168032,0,1,1,2.538981798168032,0" style="fill: red; stroke-width: 2; opacity: 0.7;"></path><path transform="translate(446.66666666666663,13.333333333333314)" d="M2.538981798168032,0A2.538981798168032,2.538981798168032,0,1,1,-2.538981798168032,0A2.538981798168032,2.538981798168032,0,1,1,2.538981798168032,0" style="fill: red; stroke-width: 2; opacity: 0.7;"></path><path transform="translate(473.3333333333333,13.333333333333314)" d="M3.5906624935876588,0A3.5906624935876588,3.5906624935876588,0,1,1,-3.5906624935876588,0A3.5906624935876588,3.5906624935876588,0,1,1,3.5906624935876588,0" style="fill: red; stroke-width: 2; opacity: 0.7;"></path><path transform="translate(486.66666666666663,13.333333333333314)" d="M2.538981798168032,0A2.538981798168032,2.538981798168032,0,1,1,-2.538981798168032,0A2.538981798168032,2.538981798168032,0,1,1,2.538981798168032,0" style="fill: red; stroke-width: 2; opacity: 0.7;"></path><path transform="translate(500,13.333333333333314)" d="M3.5906624935876588,0A3.5906624935876588,3.5906624935876588,0,1,1,-3.5906624935876588,0A3.5906624935876588,3.5906624935876588,0,1,1,3.5906624935876588,0" style="fill: red; stroke-width: 2; opacity: 0.7;"></path><path transform="translate(553.3333333333334,13.333333333333314)" d="M4.397645473919619,0A4.397645473919619,4.397645473919619,0,1,1,-4.397645473919619,0A4.397645473919619,4.397645473919619,0,1,1,4.397645473919619,0" style="fill: red; stroke-width: 2; opacity: 0.7;"></path><path transform="translate(566.6666666666666,13.333333333333314)" d="M4.397645473919619,0A4.397645473919619,4.397645473919619,0,1,1,-4.397645473919619,0A4.397645473919619,4.397645473919619,0,1,1,4.397645473919619,0" style="fill: red; stroke-width: 2; opacity: 0.7;"></path><path transform="translate(580,13.333333333333314)" d="M2.538981798168032,0A2.538981798168032,2.538981798168032,0,1,1,-2.538981798168032,0A2.538981798168032,2.538981798168032,0,1,1,2.538981798168032,0" style="fill: red; stroke-width: 2; opacity: 0.7;"></path><path transform="translate(593.3333333333334,13.333333333333314)" d="M4.397645473919619,0A4.397645473919619,4.397645473919619,0,1,1,-4.397645473919619,0A4.397645473919619,4.397645473919619,0,1,1,4.397645473919619,0" style="fill: red; stroke-width: 2; opacity: 0.7;"></path><path transform="translate(606.6666666666666,13.333333333333314)" d="M4.397645473919619,0A4.397645473919619,4.397645473919619,0,1,1,-4.397645473919619,0A4.397645473919619,4.397645473919619,0,1,1,4.397645473919619,0" style="fill: red; stroke-width: 2; opacity: 0.7;"></path><path transform="translate(620,13.333333333333314)" d="M2.538981798168032,0A2.538981798168032,2.538981798168032,0,1,1,-2.538981798168032,0A2.538981798168032,2.538981798168032,0,1,1,2.538981798168032,0" style="fill: red; stroke-width: 2; opacity: 0.7;"></path><path transform="translate(633.3333333333334,13.333333333333314)" d="M7.1813249871753175,0A7.1813249871753175,7.1813249871753175,0,1,1,-7.1813249871753175,0A7.1813249871753175,7.1813249871753175,0,1,1,7.1813249871753175,0" style="fill: red; stroke-width: 2; opacity: 0.7;"></path><path transform="translate(646.6666666666666,13.333333333333314)" d="M5.67733589433837,0A5.67733589433837,5.67733589433837,0,1,1,-5.67733589433837,0A5.67733589433837,5.67733589433837,0,1,1,5.67733589433837,0" style="fill: red; stroke-width: 2; opacity: 0.7;"></path><path transform="translate(660,13.333333333333314)" d="M8.420849974065224,0A8.420849974065224,8.420849974065224,0,1,1,-8.420849974065224,0A8.420849974065224,8.420849974065224,0,1,1,8.420849974065224,0" style="fill: red; stroke-width: 2; opacity: 0.7;"></path><path transform="translate(673.3333333333334,13.333333333333314)" d="M9.5,0A9.5,9.5,0,1,1,-9.5,0A9.5,9.5,0,1,1,9.5,0" style="fill: red; stroke-width: 2; opacity: 0.7;"></path><path transform="translate(700,13.333333333333314)" d="M2.538981798168032,0A2.538981798168032,2.538981798168032,0,1,1,-2.538981798168032,0A2.538981798168032,2.538981798168032,0,1,1,2.538981798168032,0" style="fill: red; stroke-width: 2; opacity: 0.7;"></path><path transform="translate(713.3333333333334,13.333333333333314)" d="M3.5906624935876588,0A3.5906624935876588,3.5906624935876588,0,1,1,-3.5906624935876588,0A3.5906624935876588,3.5906624935876588,0,1,1,3.5906624935876588,0" style="fill: red; stroke-width: 2; opacity: 0.7;"></path><path transform="translate(740,13.333333333333314)" d="M2.538981798168032,0A2.538981798168032,2.538981798168032,0,1,1,-2.538981798168032,0A2.538981798168032,2.538981798168032,0,1,1,2.538981798168032,0" style="fill: red; stroke-width: 2; opacity: 0.7;"></path><path transform="translate(753.3333333333334,13.333333333333314)" d="M3.5906624935876588,0A3.5906624935876588,3.5906624935876588,0,1,1,-3.5906624935876588,0A3.5906624935876588,3.5906624935876588,0,1,1,3.5906624935876588,0" style="fill: red; stroke-width: 2; opacity: 0.7;"></path><path transform="translate(606.6666666666666,226.66666666666666)" d="M2.538981798168032,0A2.538981798168032,2.538981798168032,0,1,1,-2.538981798168032,0A2.538981798168032,2.538981798168032,0,1,1,2.538981798168032,0" style="fill: red; stroke-width: 2; opacity: 0.7;"></path><path transform="translate(646.6666666666666,226.66666666666666)" d="M2.538981798168032,0A2.538981798168032,2.538981798168032,0,1,1,-2.538981798168032,0A2.538981798168032,2.538981798168032,0,1,1,2.538981798168032,0" style="fill: red; stroke-width: 2; opacity: 0.7;"></path><path transform="translate(500,253.33333333333331)" d="M2.538981798168032,0A2.538981798168032,2.538981798168032,0,1,1,-2.538981798168032,0A2.538981798168032,2.538981798168032,0,1,1,2.538981798168032,0" style="fill: red; stroke-width: 2; opacity: 0.7;"></path><path transform="translate(540,253.33333333333331)" d="M2.538981798168032,0A2.538981798168032,2.538981798168032,0,1,1,-2.538981798168032,0A2.538981798168032,2.538981798168032,0,1,1,2.538981798168032,0" style="fill: red; stroke-width: 2; opacity: 0.7;"></path><path transform="translate(46.66666666666663,280)" d="M2.538981798168032,0A2.538981798168032,2.538981798168032,0,1,1,-2.538981798168032,0A2.538981798168032,2.538981798168032,0,1,1,2.538981798168032,0" style="fill: red; stroke-width: 2; opacity: 0.7;"></path><path transform="translate(59.999999999999964,280)" d="M2.538981798168032,0A2.538981798168032,2.538981798168032,0,1,1,-2.538981798168032,0A2.538981798168032,2.538981798168032,0,1,1,2.538981798168032,0" style="fill: red; stroke-width: 2; opacity: 0.7;"></path><path transform="translate(206.66666666666663,306.6666666666667)" d="M2.538981798168032,0A2.538981798168032,2.538981798168032,0,1,1,-2.538981798168032,0A2.538981798168032,2.538981798168032,0,1,1,2.538981798168032,0" style="fill: red; stroke-width: 2; opacity: 0.7;"></path><path transform="translate(219.99999999999997,306.6666666666667)" d="M2.538981798168032,0A2.538981798168032,2.538981798168032,0,1,1,-2.538981798168032,0A2.538981798168032,2.538981798168032,0,1,1,2.538981798168032,0" style="fill: red; stroke-width: 2; opacity: 0.7;"></path><path transform="translate(606.6666666666666,333.3333333333333)" d="M2.538981798168032,0A2.538981798168032,2.538981798168032,0,1,1,-2.538981798168032,0A2.538981798168032,2.538981798168032,0,1,1,2.538981798168032,0" style="fill: red; stroke-width: 2; opacity: 0.7;"></path><path transform="translate(766.6666666666666,333.3333333333333)" d="M2.538981798168032,0A2.538981798168032,2.538981798168032,0,1,1,-2.538981798168032,0A2.538981798168032,2.538981798168032,0,1,1,2.538981798168032,0" style="fill: red; stroke-width: 2; opacity: 0.7;"></path><path transform="translate(780,333.3333333333333)" d="M2.538981798168032,0A2.538981798168032,2.538981798168032,0,1,1,-2.538981798168032,0A2.538981798168032,2.538981798168032,0,1,1,2.538981798168032,0" style="fill: red; stroke-width: 2; opacity: 0.7;"></path><path transform="translate(233.33333333333331,66.66666666666666)" d="M2.538981798168032,0A2.538981798168032,2.538981798168032,0,1,1,-2.538981798168032,0A2.538981798168032,2.538981798168032,0,1,1,2.538981798168032,0" style="fill: red; stroke-width: 2; opacity: 0.7;"></path><path transform="translate(273.3333333333333,66.66666666666666)" d="M2.538981798168032,0A2.538981798168032,2.538981798168032,0,1,1,-2.538981798168032,0A2.538981798168032,2.538981798168032,0,1,1,2.538981798168032,0" style="fill: red; stroke-width: 2; opacity: 0.7;"></path><path transform="translate(326.66666666666663,66.66666666666666)" d="M2.538981798168032,0A2.538981798168032,2.538981798168032,0,1,1,-2.538981798168032,0A2.538981798168032,2.538981798168032,0,1,1,2.538981798168032,0" style="fill: red; stroke-width: 2; opacity: 0.7;"></path><path transform="translate(460,66.66666666666666)" d="M2.538981798168032,0A2.538981798168032,2.538981798168032,0,1,1,-2.538981798168032,0A2.538981798168032,2.538981798168032,0,1,1,2.538981798168032,0" style="fill: red; stroke-width: 2; opacity: 0.7;"></path><path transform="translate(473.3333333333333,66.66666666666666)" d="M5.077963596336064,0A5.077963596336064,5.077963596336064,0,1,1,-5.077963596336064,0A5.077963596336064,5.077963596336064,0,1,1,5.077963596336064,0" style="fill: red; stroke-width: 2; opacity: 0.7;"></path><path transform="translate(633.3333333333334,66.66666666666666)" d="M6.219209871725782,0A6.219209871725782,6.219209871725782,0,1,1,-6.219209871725782,0A6.219209871725782,6.219209871725782,0,1,1,6.219209871725782,0" style="fill: red; stroke-width: 2; opacity: 0.7;"></path><path transform="translate(740,66.66666666666666)" d="M2.538981798168032,0A2.538981798168032,2.538981798168032,0,1,1,-2.538981798168032,0A2.538981798168032,2.538981798168032,0,1,1,2.538981798168032,0" style="fill: red; stroke-width: 2; opacity: 0.7;"></path><path transform="translate(19.999999999999964,93.33333333333331)" d="M2.538981798168032,0A2.538981798168032,2.538981798168032,0,1,1,-2.538981798168032,0A2.538981798168032,2.538981798168032,0,1,1,2.538981798168032,0" style="fill: red; stroke-width: 2; opacity: 0.7;"></path><path transform="translate(33.3333333333333,93.33333333333331)" d="M2.538981798168032,0A2.538981798168032,2.538981798168032,0,1,1,-2.538981798168032,0A2.538981798168032,2.538981798168032,0,1,1,2.538981798168032,0" style="fill: red; stroke-width: 2; opacity: 0.7;"></path><path transform="translate(73.3333333333333,93.33333333333331)" d="M3.5906624935876588,0A3.5906624935876588,3.5906624935876588,0,1,1,-3.5906624935876588,0A3.5906624935876588,3.5906624935876588,0,1,1,3.5906624935876588,0" style="fill: red; stroke-width: 2; opacity: 0.7;"></path><path transform="translate(86.66666666666663,93.33333333333331)" d="M3.5906624935876588,0A3.5906624935876588,3.5906624935876588,0,1,1,-3.5906624935876588,0A3.5906624935876588,3.5906624935876588,0,1,1,3.5906624935876588,0" style="fill: red; stroke-width: 2; opacity: 0.7;"></path><path transform="translate(99.99999999999997,93.33333333333331)" d="M3.5906624935876588,0A3.5906624935876588,3.5906624935876588,0,1,1,-3.5906624935876588,0A3.5906624935876588,3.5906624935876588,0,1,1,3.5906624935876588,0" style="fill: red; stroke-width: 2; opacity: 0.7;"></path><path transform="translate(113.3333333333333,93.33333333333331)" d="M2.538981798168032,0A2.538981798168032,2.538981798168032,0,1,1,-2.538981798168032,0A2.538981798168032,2.538981798168032,0,1,1,2.538981798168032,0" style="fill: red; stroke-width: 2; opacity: 0.7;"></path><path transform="translate(126.66666666666663,93.33333333333331)" d="M2.538981798168032,0A2.538981798168032,2.538981798168032,0,1,1,-2.538981798168032,0A2.538981798168032,2.538981798168032,0,1,1,2.538981798168032,0" style="fill: red; stroke-width: 2; opacity: 0.7;"></path><path transform="translate(139.99999999999997,93.33333333333331)" d="M3.5906624935876588,0A3.5906624935876588,3.5906624935876588,0,1,1,-3.5906624935876588,0A3.5906624935876588,3.5906624935876588,0,1,1,3.5906624935876588,0" style="fill: red; stroke-width: 2; opacity: 0.7;"></path><path transform="translate(153.33333333333331,93.33333333333331)" d="M3.5906624935876588,0A3.5906624935876588,3.5906624935876588,0,1,1,-3.5906624935876588,0A3.5906624935876588,3.5906624935876588,0,1,1,3.5906624935876588,0" style="fill: red; stroke-width: 2; opacity: 0.7;"></path><path transform="translate(166.66666666666663,93.33333333333331)" d="M2.538981798168032,0A2.538981798168032,2.538981798168032,0,1,1,-2.538981798168032,0A2.538981798168032,2.538981798168032,0,1,1,2.538981798168032,0" style="fill: red; stroke-width: 2; opacity: 0.7;"></path><path transform="translate(179.99999999999997,93.33333333333331)" d="M5.077963596336064,0A5.077963596336064,5.077963596336064,0,1,1,-5.077963596336064,0A5.077963596336064,5.077963596336064,0,1,1,5.077963596336064,0" style="fill: red; stroke-width: 2; opacity: 0.7;"></path><path transform="translate(193.33333333333331,93.33333333333331)" d="M3.5906624935876588,0A3.5906624935876588,3.5906624935876588,0,1,1,-3.5906624935876588,0A3.5906624935876588,3.5906624935876588,0,1,1,3.5906624935876588,0" style="fill: red; stroke-width: 2; opacity: 0.7;"></path><path transform="translate(219.99999999999997,93.33333333333331)" d="M4.397645473919619,0A4.397645473919619,4.397645473919619,0,1,1,-4.397645473919619,0A4.397645473919619,4.397645473919619,0,1,1,4.397645473919619,0" style="fill: red; stroke-width: 2; opacity: 0.7;"></path><path transform="translate(233.33333333333331,93.33333333333331)" d="M6.219209871725782,0A6.219209871725782,6.219209871725782,0,1,1,-6.219209871725782,0A6.219209871725782,6.219209871725782,0,1,1,6.219209871725782,0" style="fill: red; stroke-width: 2; opacity: 0.7;"></path><path transform="translate(246.66666666666663,93.33333333333331)" d="M4.397645473919619,0A4.397645473919619,4.397645473919619,0,1,1,-4.397645473919619,0A4.397645473919619,4.397645473919619,0,1,1,4.397645473919619,0" style="fill: red; stroke-width: 2; opacity: 0.7;"></path><path transform="translate(260,93.33333333333331)" d="M4.397645473919619,0A4.397645473919619,4.397645473919619,0,1,1,-4.397645473919619,0A4.397645473919619,4.397645473919619,0,1,1,4.397645473919619,0" style="fill: red; stroke-width: 2; opacity: 0.7;"></path><path transform="translate(273.3333333333333,93.33333333333331)" d="M3.5906624935876588,0A3.5906624935876588,3.5906624935876588,0,1,1,-3.5906624935876588,0A3.5906624935876588,3.5906624935876588,0,1,1,3.5906624935876588,0" style="fill: red; stroke-width: 2; opacity: 0.7;"></path><path transform="translate(313.3333333333333,93.33333333333331)" d="M2.538981798168032,0A2.538981798168032,2.538981798168032,0,1,1,-2.538981798168032,0A2.538981798168032,2.538981798168032,0,1,1,2.538981798168032,0" style="fill: red; stroke-width: 2; opacity: 0.7;"></path><path transform="translate(340,93.33333333333331)" d="M4.397645473919619,0A4.397645473919619,4.397645473919619,0,1,1,-4.397645473919619,0A4.397645473919619,4.397645473919619,0,1,1,4.397645473919619,0" style="fill: red; stroke-width: 2; opacity: 0.7;"></path><path transform="translate(353.3333333333333,93.33333333333331)" d="M2.538981798168032,0A2.538981798168032,2.538981798168032,0,1,1,-2.538981798168032,0A2.538981798168032,2.538981798168032,0,1,1,2.538981798168032,0" style="fill: red; stroke-width: 2; opacity: 0.7;"></path><path transform="translate(366.66666666666663,93.33333333333331)" d="M5.077963596336064,0A5.077963596336064,5.077963596336064,0,1,1,-5.077963596336064,0A5.077963596336064,5.077963596336064,0,1,1,5.077963596336064,0" style="fill: red; stroke-width: 2; opacity: 0.7;"></path><path transform="translate(393.3333333333333,93.33333333333331)" d="M2.538981798168032,0A2.538981798168032,2.538981798168032,0,1,1,-2.538981798168032,0A2.538981798168032,2.538981798168032,0,1,1,2.538981798168032,0" style="fill: red; stroke-width: 2; opacity: 0.7;"></path><path transform="translate(406.66666666666663,93.33333333333331)" d="M2.538981798168032,0A2.538981798168032,2.538981798168032,0,1,1,-2.538981798168032,0A2.538981798168032,2.538981798168032,0,1,1,2.538981798168032,0" style="fill: red; stroke-width: 2; opacity: 0.7;"></path><path transform="translate(433.3333333333333,93.33333333333331)" d="M2.538981798168032,0A2.538981798168032,2.538981798168032,0,1,1,-2.538981798168032,0A2.538981798168032,2.538981798168032,0,1,1,2.538981798168032,0" style="fill: red; stroke-width: 2; opacity: 0.7;"></path><path transform="translate(526.6666666666666,93.33333333333331)" d="M2.538981798168032,0A2.538981798168032,2.538981798168032,0,1,1,-2.538981798168032,0A2.538981798168032,2.538981798168032,0,1,1,2.538981798168032,0" style="fill: red; stroke-width: 2; opacity: 0.7;"></path><path transform="translate(633.3333333333334,93.33333333333331)" d="M2.538981798168032,0A2.538981798168032,2.538981798168032,0,1,1,-2.538981798168032,0A2.538981798168032,2.538981798168032,0,1,1,2.538981798168032,0" style="fill: red; stroke-width: 2; opacity: 0.7;"></path><path transform="translate(673.3333333333334,93.33333333333331)" d="M2.538981798168032,0A2.538981798168032,2.538981798168032,0,1,1,-2.538981798168032,0A2.538981798168032,2.538981798168032,0,1,1,2.538981798168032,0" style="fill: red; stroke-width: 2; opacity: 0.7;"></path><path transform="translate(686.6666666666666,93.33333333333331)" d="M2.538981798168032,0A2.538981798168032,2.538981798168032,0,1,1,-2.538981798168032,0A2.538981798168032,2.538981798168032,0,1,1,2.538981798168032,0" style="fill: red; stroke-width: 2; opacity: 0.7;"></path><path transform="translate(726.6666666666666,93.33333333333331)" d="M2.538981798168032,0A2.538981798168032,2.538981798168032,0,1,1,-2.538981798168032,0A2.538981798168032,2.538981798168032,0,1,1,2.538981798168032,0" style="fill: red; stroke-width: 2; opacity: 0.7;"></path><path transform="translate(540,146.66666666666666)" d="M2.538981798168032,0A2.538981798168032,2.538981798168032,0,1,1,-2.538981798168032,0A2.538981798168032,2.538981798168032,0,1,1,2.538981798168032,0" style="fill: red; stroke-width: 2; opacity: 0.7;"></path><path transform="translate(566.6666666666666,146.66666666666666)" d="M2.538981798168032,0A2.538981798168032,2.538981798168032,0,1,1,-2.538981798168032,0A2.538981798168032,2.538981798168032,0,1,1,2.538981798168032,0" style="fill: red; stroke-width: 2; opacity: 0.7;"></path><path transform="translate(620,146.66666666666666)" d="M3.5906624935876588,0A3.5906624935876588,3.5906624935876588,0,1,1,-3.5906624935876588,0A3.5906624935876588,3.5906624935876588,0,1,1,3.5906624935876588,0" style="fill: red; stroke-width: 2; opacity: 0.7;"></path><path transform="translate(566.6666666666666,173.33333333333331)" d="M2.538981798168032,0A2.538981798168032,2.538981798168032,0,1,1,-2.538981798168032,0A2.538981798168032,2.538981798168032,0,1,1,2.538981798168032,0" style="fill: red; stroke-width: 2; opacity: 0.7;"></path><path transform="translate(633.3333333333334,173.33333333333331)" d="M3.5906624935876588,0A3.5906624935876588,3.5906624935876588,0,1,1,-3.5906624935876588,0A3.5906624935876588,3.5906624935876588,0,1,1,3.5906624935876588,0" style="fill: red; stroke-width: 2; opacity: 0.7;"></path><path transform="translate(633.3333333333334,360)" d="M2.538981798168032,0A2.538981798168032,2.538981798168032,0,1,1,-2.538981798168032,0A2.538981798168032,2.538981798168032,0,1,1,2.538981798168032,0" style="fill: red; stroke-width: 2; opacity: 0.7;"></path><path transform="translate(646.6666666666666,360)" d="M2.538981798168032,0A2.538981798168032,2.538981798168032,0,1,1,-2.538981798168032,0A2.538981798168032,2.538981798168032,0,1,1,2.538981798168032,0" style="fill: red; stroke-width: 2; opacity: 0.7;"></path><path transform="translate(753.3333333333334,360)" d="M2.538981798168032,0A2.538981798168032,2.538981798168032,0,1,1,-2.538981798168032,0A2.538981798168032,2.538981798168032,0,1,1,2.538981798168032,0" style="fill: red; stroke-width: 2; opacity: 0.7;"></path><path transform="translate(793.3333333333334,360)" d="M2.538981798168032,0A2.538981798168032,2.538981798168032,0,1,1,-2.538981798168032,0A2.538981798168032,2.538981798168032,0,1,1,2.538981798168032,0" style="fill: red; stroke-width: 2; opacity: 0.7;"></path><path transform="translate(6.666666666666629,39.999999999999986)" d="M2.538981798168032,0A2.538981798168032,2.538981798168032,0,1,1,-2.538981798168032,0A2.538981798168032,2.538981798168032,0,1,1,2.538981798168032,0" style="fill: red; stroke-width: 2; opacity: 0.7;"></path><path transform="translate(513.3333333333333,39.999999999999986)" d="M2.538981798168032,0A2.538981798168032,2.538981798168032,0,1,1,-2.538981798168032,0A2.538981798168032,2.538981798168032,0,1,1,2.538981798168032,0" style="fill: red; stroke-width: 2; opacity: 0.7;"></path><path transform="translate(526.6666666666666,39.999999999999986)" d="M3.5906624935876588,0A3.5906624935876588,3.5906624935876588,0,1,1,-3.5906624935876588,0A3.5906624935876588,3.5906624935876588,0,1,1,3.5906624935876588,0" style="fill: red; stroke-width: 2; opacity: 0.7;"></path><path transform="translate(553.3333333333334,39.999999999999986)" d="M8.028965419920908,0A8.028965419920908,8.028965419920908,0,1,1,-8.028965419920908,0A8.028965419920908,8.028965419920908,0,1,1,8.028965419920908,0" style="fill: red; stroke-width: 2; opacity: 0.7;"></path><path transform="translate(566.6666666666666,39.999999999999986)" d="M4.397645473919619,0A4.397645473919619,4.397645473919619,0,1,1,-4.397645473919619,0A4.397645473919619,4.397645473919619,0,1,1,4.397645473919619,0" style="fill: red; stroke-width: 2; opacity: 0.7;"></path><path transform="translate(580,39.999999999999986)" d="M3.5906624935876588,0A3.5906624935876588,3.5906624935876588,0,1,1,-3.5906624935876588,0A3.5906624935876588,3.5906624935876588,0,1,1,3.5906624935876588,0" style="fill: red; stroke-width: 2; opacity: 0.7;"></path><path transform="translate(593.3333333333334,39.999999999999986)" d="M6.7175144212722016,0A6.7175144212722016,6.7175144212722016,0,1,1,-6.7175144212722016,0A6.7175144212722016,6.7175144212722016,0,1,1,6.7175144212722016,0" style="fill: red; stroke-width: 2; opacity: 0.7;"></path><path transform="translate(33.3333333333333,386.6666666666667)" d="M2.538981798168032,0A2.538981798168032,2.538981798168032,0,1,1,-2.538981798168032,0A2.538981798168032,2.538981798168032,0,1,1,2.538981798168032,0" style="fill: red; stroke-width: 2; opacity: 0.7;"></path><path transform="translate(206.66666666666663,119.99999999999999)" d="M2.538981798168032,0A2.538981798168032,2.538981798168032,0,1,1,-2.538981798168032,0A2.538981798168032,2.538981798168032,0,1,1,2.538981798168032,0" style="fill: red; stroke-width: 2; opacity: 0.7;"></path><path transform="translate(300,119.99999999999999)" d="M4.397645473919619,0A4.397645473919619,4.397645473919619,0,1,1,-4.397645473919619,0A4.397645473919619,4.397645473919619,0,1,1,4.397645473919619,0" style="fill: red; stroke-width: 2; opacity: 0.7;"></path><path transform="translate(340,119.99999999999999)" d="M2.538981798168032,0A2.538981798168032,2.538981798168032,0,1,1,-2.538981798168032,0A2.538981798168032,2.538981798168032,0,1,1,2.538981798168032,0" style="fill: red; stroke-width: 2; opacity: 0.7;"></path><path transform="translate(660,119.99999999999999)" d="M2.538981798168032,0A2.538981798168032,2.538981798168032,0,1,1,-2.538981798168032,0A2.538981798168032,2.538981798168032,0,1,1,2.538981798168032,0" style="fill: red; stroke-width: 2; opacity: 0.7;"></path><path transform="translate(686.6666666666666,119.99999999999999)" d="M2.538981798168032,0A2.538981798168032,2.538981798168032,0,1,1,-2.538981798168032,0A2.538981798168032,2.538981798168032,0,1,1,2.538981798168032,0" style="fill: red; stroke-width: 2; opacity: 0.7;"></path><path transform="translate(753.3333333333334,119.99999999999999)" d="M5.077963596336064,0A5.077963596336064,5.077963596336064,0,1,1,-5.077963596336064,0A5.077963596336064,5.077963596336064,0,1,1,5.077963596336064,0" style="fill: red; stroke-width: 2; opacity: 0.7;"></path><path transform="translate(473.3333333333333,200)" d="M3.5906624935876588,0A3.5906624935876588,3.5906624935876588,0,1,1,-3.5906624935876588,0A3.5906624935876588,3.5906624935876588,0,1,1,3.5906624935876588,0" style="fill: red; stroke-width: 2; opacity: 0.7;"></path><path transform="translate(593.3333333333334,200)" d="M2.538981798168032,0A2.538981798168032,2.538981798168032,0,1,1,-2.538981798168032,0A2.538981798168032,2.538981798168032,0,1,1,2.538981798168032,0" style="fill: red; stroke-width: 2; opacity: 0.7;"></path><path transform="translate(660,200)" d="M3.5906624935876588,0A3.5906624935876588,3.5906624935876588,0,1,1,-3.5906624935876588,0A3.5906624935876588,3.5906624935876588,0,1,1,3.5906624935876588,0" style="fill: red; stroke-width: 2; opacity: 0.7;"></path></g><g class="mark-group role-legend"><g transform="translate(818,0)"><path class="background" d="M0,0h37v152h-37Z" style="pointer-events: none; fill: none;"></path><g><g class="mark-group role-legend-entry"><g transform="translate(0,16)"><path class="background" d="M0,0h0v0h0Z" style="pointer-events: none; fill: none;"></path><g><g class="mark-group role-scope"><g transform="translate(0,0)"><path class="background" d="M0,0h36.123046875v10.090662493587658h-36.123046875Z" style="pointer-events: none; fill: none; opacity: 1;"></path><g><g class="mark-symbol role-legend-symbol" style="pointer-events: none;"><path transform="translate(10.5,5)" d="M3.5906624935876588,0A3.5906624935876588,3.5906624935876588,0,1,1,-3.5906624935876588,0A3.5906624935876588,3.5906624935876588,0,1,1,3.5906624935876588,0" style="fill: red; stroke: none; stroke-width: 1.5; opacity: 0.7;"></path></g><g class="mark-text role-legend-label" style="pointer-events: none;"><text text-anchor="start" transform="translate(25,8)" style="font-family: sans-serif; font-size: 10px; fill: #000; opacity: 1;">2</text></g></g><path class="foreground" d="" style="pointer-events: none; display: none; fill: none;"></path></g><g transform="translate(0,14)"><path class="background" d="M0,0h36.123046875v12.577963596336062h-36.123046875Z" style="pointer-events: none; fill: none; opacity: 1;"></path><g><g class="mark-symbol role-legend-symbol" style="pointer-events: none;"><path transform="translate(10.5,6)" d="M5.077963596336064,0A5.077963596336064,5.077963596336064,0,1,1,-5.077963596336064,0A5.077963596336064,5.077963596336064,0,1,1,5.077963596336064,0" style="fill: red; stroke: none; stroke-width: 1.5; opacity: 0.7;"></path></g><g class="mark-text role-legend-label" style="pointer-events: none;"><text text-anchor="start" transform="translate(25,9)" style="font-family: sans-serif; font-size: 10px; fill: #000; opacity: 1;">4</text></g></g><path class="foreground" d="" style="pointer-events: none; display: none; fill: none;"></path></g><g transform="translate(0,30)"><path class="background" d="M0,0h36.123046875v14.71920987172578h-36.123046875Z" style="pointer-events: none; fill: none; opacity: 1;"></path><g><g class="mark-symbol role-legend-symbol" style="pointer-events: none;"><path transform="translate(10.5,7)" d="M6.219209871725782,0A6.219209871725782,6.219209871725782,0,1,1,-6.219209871725782,0A6.219209871725782,6.219209871725782,0,1,1,6.219209871725782,0" style="fill: red; stroke: none; stroke-width: 1.5; opacity: 0.7;"></path></g><g class="mark-text role-legend-label" style="pointer-events: none;"><text text-anchor="start" transform="translate(25,10)" style="font-family: sans-serif; font-size: 10px; fill: #000; opacity: 1;">6</text></g></g><path class="foreground" d="" style="pointer-events: none; display: none; fill: none;"></path></g><g transform="translate(0,48)"><path class="background" d="M0,0h36.123046875v16.681324987175316h-36.123046875Z" style="pointer-events: none; fill: none; opacity: 1;"></path><g><g class="mark-symbol role-legend-symbol" style="pointer-events: none;"><path transform="translate(10.5,8)" d="M7.1813249871753175,0A7.1813249871753175,7.1813249871753175,0,1,1,-7.1813249871753175,0A7.1813249871753175,7.1813249871753175,0,1,1,7.1813249871753175,0" style="fill: red; stroke: none; stroke-width: 1.5; opacity: 0.7;"></path></g><g class="mark-text role-legend-label" style="pointer-events: none;"><text text-anchor="start" transform="translate(25,11)" style="font-family: sans-serif; font-size: 10px; fill: #000; opacity: 1;">8</text></g></g><path class="foreground" d="" style="pointer-events: none; display: none; fill: none;"></path></g><g transform="translate(0,68)"><path class="background" d="M0,0h36.123046875v18.528965419920908h-36.123046875Z" style="pointer-events: none; fill: none; opacity: 1;"></path><g><g class="mark-symbol role-legend-symbol" style="pointer-events: none;"><path transform="translate(10.5,9)" d="M8.028965419920908,0A8.028965419920908,8.028965419920908,0,1,1,-8.028965419920908,0A8.028965419920908,8.028965419920908,0,1,1,8.028965419920908,0" style="fill: red; stroke: none; stroke-width: 1.5; opacity: 0.7;"></path></g><g class="mark-text role-legend-label" style="pointer-events: none;"><text text-anchor="start" transform="translate(25,12)" style="font-family: sans-serif; font-size: 10px; fill: #000; opacity: 1;">10</text></g></g><path class="foreground" d="" style="pointer-events: none; display: none; fill: none;"></path></g><g transform="translate(0,90)"><path class="background" d="M0,0h36.123046875v20.295290947839234h-36.123046875Z" style="pointer-events: none; fill: none; opacity: 1;"></path><g><g class="mark-symbol role-legend-symbol" style="pointer-events: none;"><path transform="translate(10.5,10)" d="M8.795290947839238,0A8.795290947839238,8.795290947839238,0,1,1,-8.795290947839238,0A8.795290947839238,8.795290947839238,0,1,1,8.795290947839238,0" style="fill: red; stroke: none; stroke-width: 1.5; opacity: 0.7;"></path></g><g class="mark-text role-legend-label" style="pointer-events: none;"><text text-anchor="start" transform="translate(25,13)" style="font-family: sans-serif; font-size: 10px; fill: #000; opacity: 1;">12</text></g></g><path class="foreground" d="" style="pointer-events: none; display: none; fill: none;"></path></g><g transform="translate(0,114)"><path class="background" d="M0,0h36.123046875v21.5h-36.123046875Z" style="pointer-events: none; fill: none; opacity: 1;"></path><g><g class="mark-symbol role-legend-symbol" style="pointer-events: none;"><path transform="translate(10.5,10.5)" d="M9.5,0A9.5,9.5,0,1,1,-9.5,0A9.5,9.5,0,1,1,9.5,0" style="fill: red; stroke: none; stroke-width: 1.5; opacity: 0.7;"></path></g><g class="mark-text role-legend-label" style="pointer-events: none;"><text text-anchor="start" transform="translate(25,13.5)" style="font-family: sans-serif; font-size: 10px; fill: #000; opacity: 1;">14</text></g></g><path class="foreground" d="" style="pointer-events: none; display: none; fill: none;"></path></g></g></g><path class="foreground" d="" style="pointer-events: none; display: none; fill: none;"></path></g></g><g class="mark-text role-legend-title" style="pointer-events: none;"><text text-anchor="start" transform="translate(0,9)" style="font-family: sans-serif; font-size: 11px; font-weight: bold; fill: #000; opacity: 1;">count</text></g></g><path class="foreground" d="" style="pointer-events: none; display: none; fill: none;"></path></g></g><g class="mark-group role-title"><g transform="translate(400,-17)"><path class="background" d="M0,0h0v0h0Z" style="pointer-events: none; fill: none;"></path><g><g class="mark-text role-title-text" style="pointer-events: none;"><text text-anchor="middle" transform="translate(0,10)" style="font-family: sans-serif; font-size: 13px; font-weight: bold; fill: #000; opacity: 1;">Number of holotypes of each order per year</text></g></g><path class="foreground" d="" style="pointer-events: none; display: none; fill: none;"></path></g></g><g class="mark-group role-axis"><g transform="translate(0.5,400.5)"><path class="background" d="M0,0h0v0h0Z" style="pointer-events: none; fill: none;"></path><g><g class="mark-rule role-axis-tick" style="pointer-events: none;"><line transform="translate(7,0)" x2="0" y2="5" style="fill: none; stroke: #888; stroke-width: 1; opacity: 1;"></line><line transform="translate(20,0)" x2="0" y2="5" style="fill: none; stroke: #888; stroke-width: 1; opacity: 1;"></line><line transform="translate(33,0)" x2="0" y2="5" style="fill: none; stroke: #888; stroke-width: 1; opacity: 1;"></line><line transform="translate(47,0)" x2="0" y2="5" style="fill: none; stroke: #888; stroke-width: 1; opacity: 1;"></line><line transform="translate(60,0)" x2="0" y2="5" style="fill: none; stroke: #888; stroke-width: 1; opacity: 1;"></line><line transform="translate(73,0)" x2="0" y2="5" style="fill: none; stroke: #888; stroke-width: 1; opacity: 1;"></line><line transform="translate(87,0)" x2="0" y2="5" style="fill: none; stroke: #888; stroke-width: 1; opacity: 1;"></line><line transform="translate(100,0)" x2="0" y2="5" style="fill: none; stroke: #888; stroke-width: 1; opacity: 1;"></line><line transform="translate(113,0)" x2="0" y2="5" style="fill: none; stroke: #888; stroke-width: 1; opacity: 1;"></line><line transform="translate(127,0)" x2="0" y2="5" style="fill: none; stroke: #888; stroke-width: 1; opacity: 1;"></line><line transform="translate(140,0)" x2="0" y2="5" style="fill: none; stroke: #888; stroke-width: 1; opacity: 1;"></line><line transform="translate(153,0)" x2="0" y2="5" style="fill: none; stroke: #888; stroke-width: 1; opacity: 1;"></line><line transform="translate(167,0)" x2="0" y2="5" style="fill: none; stroke: #888; stroke-width: 1; opacity: 1;"></line><line transform="translate(180,0)" x2="0" y2="5" style="fill: none; stroke: #888; stroke-width: 1; opacity: 1;"></line><line transform="translate(193,0)" x2="0" y2="5" style="fill: none; stroke: #888; stroke-width: 1; opacity: 1;"></line><line transform="translate(207,0)" x2="0" y2="5" style="fill: none; stroke: #888; stroke-width: 1; opacity: 1;"></line><line transform="translate(220,0)" x2="0" y2="5" style="fill: none; stroke: #888; stroke-width: 1; opacity: 1;"></line><line transform="translate(233,0)" x2="0" y2="5" style="fill: none; stroke: #888; stroke-width: 1; opacity: 1;"></line><line transform="translate(247,0)" x2="0" y2="5" style="fill: none; stroke: #888; stroke-width: 1; opacity: 1;"></line><line transform="translate(260,0)" x2="0" y2="5" style="fill: none; stroke: #888; stroke-width: 1; opacity: 1;"></line><line transform="translate(273,0)" x2="0" y2="5" style="fill: none; stroke: #888; stroke-width: 1; opacity: 1;"></line><line transform="translate(287,0)" x2="0" y2="5" style="fill: none; stroke: #888; stroke-width: 1; opacity: 1;"></line><line transform="translate(300,0)" x2="0" y2="5" style="fill: none; stroke: #888; stroke-width: 1; opacity: 1;"></line><line transform="translate(313,0)" x2="0" y2="5" style="fill: none; stroke: #888; stroke-width: 1; opacity: 1;"></line><line transform="translate(327,0)" x2="0" y2="5" style="fill: none; stroke: #888; stroke-width: 1; opacity: 1;"></line><line transform="translate(340,0)" x2="0" y2="5" style="fill: none; stroke: #888; stroke-width: 1; opacity: 1;"></line><line transform="translate(353,0)" x2="0" y2="5" style="fill: none; stroke: #888; stroke-width: 1; opacity: 1;"></line><line transform="translate(367,0)" x2="0" y2="5" style="fill: none; stroke: #888; stroke-width: 1; opacity: 1;"></line><line transform="translate(380,0)" x2="0" y2="5" style="fill: none; stroke: #888; stroke-width: 1; opacity: 1;"></line><line transform="translate(393,0)" x2="0" y2="5" style="fill: none; stroke: #888; stroke-width: 1; opacity: 1;"></line><line transform="translate(407,0)" x2="0" y2="5" style="fill: none; stroke: #888; stroke-width: 1; opacity: 1;"></line><line transform="translate(420,0)" x2="0" y2="5" style="fill: none; stroke: #888; stroke-width: 1; opacity: 1;"></line><line transform="translate(433,0)" x2="0" y2="5" style="fill: none; stroke: #888; stroke-width: 1; opacity: 1;"></line><line transform="translate(447,0)" x2="0" y2="5" style="fill: none; stroke: #888; stroke-width: 1; opacity: 1;"></line><line transform="translate(460,0)" x2="0" y2="5" style="fill: none; stroke: #888; stroke-width: 1; opacity: 1;"></line><line transform="translate(473,0)" x2="0" y2="5" style="fill: none; stroke: #888; stroke-width: 1; opacity: 1;"></line><line transform="translate(487,0)" x2="0" y2="5" style="fill: none; stroke: #888; stroke-width: 1; opacity: 1;"></line><line transform="translate(500,0)" x2="0" y2="5" style="fill: none; stroke: #888; stroke-width: 1; opacity: 1;"></line><line transform="translate(513,0)" x2="0" y2="5" style="fill: none; stroke: #888; stroke-width: 1; opacity: 1;"></line><line transform="translate(527,0)" x2="0" y2="5" style="fill: none; stroke: #888; stroke-width: 1; opacity: 1;"></line><line transform="translate(540,0)" x2="0" y2="5" style="fill: none; stroke: #888; stroke-width: 1; opacity: 1;"></line><line transform="translate(553,0)" x2="0" y2="5" style="fill: none; stroke: #888; stroke-width: 1; opacity: 1;"></line><line transform="translate(567,0)" x2="0" y2="5" style="fill: none; stroke: #888; stroke-width: 1; opacity: 1;"></line><line transform="translate(580,0)" x2="0" y2="5" style="fill: none; stroke: #888; stroke-width: 1; opacity: 1;"></line><line transform="translate(593,0)" x2="0" y2="5" style="fill: none; stroke: #888; stroke-width: 1; opacity: 1;"></line><line transform="translate(607,0)" x2="0" y2="5" style="fill: none; stroke: #888; stroke-width: 1; opacity: 1;"></line><line transform="translate(620,0)" x2="0" y2="5" style="fill: none; stroke: #888; stroke-width: 1; opacity: 1;"></line><line transform="translate(633,0)" x2="0" y2="5" style="fill: none; stroke: #888; stroke-width: 1; opacity: 1;"></line><line transform="translate(647,0)" x2="0" y2="5" style="fill: none; stroke: #888; stroke-width: 1; opacity: 1;"></line><line transform="translate(660,0)" x2="0" y2="5" style="fill: none; stroke: #888; stroke-width: 1; opacity: 1;"></line><line transform="translate(673,0)" x2="0" y2="5" style="fill: none; stroke: #888; stroke-width: 1; opacity: 1;"></line><line transform="translate(687,0)" x2="0" y2="5" style="fill: none; stroke: #888; stroke-width: 1; opacity: 1;"></line><line transform="translate(700,0)" x2="0" y2="5" style="fill: none; stroke: #888; stroke-width: 1; opacity: 1;"></line><line transform="translate(713,0)" x2="0" y2="5" style="fill: none; stroke: #888; stroke-width: 1; opacity: 1;"></line><line transform="translate(727,0)" x2="0" y2="5" style="fill: none; stroke: #888; stroke-width: 1; opacity: 1;"></line><line transform="translate(740,0)" x2="0" y2="5" style="fill: none; stroke: #888; stroke-width: 1; opacity: 1;"></line><line transform="translate(753,0)" x2="0" y2="5" style="fill: none; stroke: #888; stroke-width: 1; opacity: 1;"></line><line transform="translate(767,0)" x2="0" y2="5" style="fill: none; stroke: #888; stroke-width: 1; opacity: 1;"></line><line transform="translate(780,0)" x2="0" y2="5" style="fill: none; stroke: #888; stroke-width: 1; opacity: 1;"></line><line transform="translate(793,0)" x2="0" y2="5" style="fill: none; stroke: #888; stroke-width: 1; opacity: 1;"></line></g><g class="mark-text role-axis-label" style="pointer-events: none;"><text text-anchor="end" transform="translate(6.666666666666629,7) rotate(270) translate(0,3)" style="font-family: sans-serif; font-size: 10px; fill: #000; opacity: 1;">1910</text><text text-anchor="end" transform="translate(19.999999999999964,7) rotate(270) translate(0,3)" style="font-family: sans-serif; font-size: 10px; fill: #000; opacity: 1;">1939</text><text text-anchor="end" transform="translate(33.3333333333333,7) rotate(270) translate(0,3)" style="font-family: sans-serif; font-size: 10px; fill: #000; opacity: 1;">1944</text><text text-anchor="end" transform="translate(46.66666666666663,7) rotate(270) translate(0,3)" style="font-family: sans-serif; font-size: 10px; fill: #000; opacity: 1;">1947</text><text text-anchor="end" transform="translate(59.999999999999964,7) rotate(270) translate(0,3)" style="font-family: sans-serif; font-size: 10px; fill: #000; opacity: 1;">1948</text><text text-anchor="end" transform="translate(73.3333333333333,7) rotate(270) translate(0,3)" style="font-family: sans-serif; font-size: 10px; fill: #000; opacity: 1;">1950</text><text text-anchor="end" transform="translate(86.66666666666663,7) rotate(270) translate(0,3)" style="font-family: sans-serif; font-size: 10px; fill: #000; opacity: 1;">1951</text><text text-anchor="end" transform="translate(99.99999999999997,7) rotate(270) translate(0,3)" style="font-family: sans-serif; font-size: 10px; fill: #000; opacity: 1;">1952</text><text text-anchor="end" transform="translate(113.3333333333333,7) rotate(270) translate(0,3)" style="font-family: sans-serif; font-size: 10px; fill: #000; opacity: 1;">1953</text><text text-anchor="end" transform="translate(126.66666666666663,7) rotate(270) translate(0,3)" style="font-family: sans-serif; font-size: 10px; fill: #000; opacity: 1;">1955</text><text text-anchor="end" transform="translate(139.99999999999997,7) rotate(270) translate(0,3)" style="font-family: sans-serif; font-size: 10px; fill: #000; opacity: 1;">1956</text><text text-anchor="end" transform="translate(153.33333333333331,7) rotate(270) translate(0,3)" style="font-family: sans-serif; font-size: 10px; fill: #000; opacity: 1;">1957</text><text text-anchor="end" transform="translate(166.66666666666663,7) rotate(270) translate(0,3)" style="font-family: sans-serif; font-size: 10px; fill: #000; opacity: 1;">1958</text><text text-anchor="end" transform="translate(179.99999999999997,7) rotate(270) translate(0,3)" style="font-family: sans-serif; font-size: 10px; fill: #000; opacity: 1;">1959</text><text text-anchor="end" transform="translate(193.33333333333331,7) rotate(270) translate(0,3)" style="font-family: sans-serif; font-size: 10px; fill: #000; opacity: 1;">1961</text><text text-anchor="end" transform="translate(206.66666666666663,7) rotate(270) translate(0,3)" style="font-family: sans-serif; font-size: 10px; fill: #000; opacity: 1;">1962</text><text text-anchor="end" transform="translate(219.99999999999997,7) rotate(270) translate(0,3)" style="font-family: sans-serif; font-size: 10px; fill: #000; opacity: 1;">1963</text><text text-anchor="end" transform="translate(233.33333333333331,7) rotate(270) translate(0,3)" style="font-family: sans-serif; font-size: 10px; fill: #000; opacity: 1;">1964</text><text text-anchor="end" transform="translate(246.66666666666663,7) rotate(270) translate(0,3)" style="font-family: sans-serif; font-size: 10px; fill: #000; opacity: 1;">1965</text><text text-anchor="end" transform="translate(260,7) rotate(270) translate(0,3)" style="font-family: sans-serif; font-size: 10px; fill: #000; opacity: 1;">1966</text><text text-anchor="end" transform="translate(273.3333333333333,7) rotate(270) translate(0,3)" style="font-family: sans-serif; font-size: 10px; fill: #000; opacity: 1;">1967</text><text text-anchor="end" transform="translate(286.66666666666663,7) rotate(270) translate(0,3)" style="font-family: sans-serif; font-size: 10px; fill: #000; opacity: 1;">1968</text><text text-anchor="end" transform="translate(300,7) rotate(270) translate(0,3)" style="font-family: sans-serif; font-size: 10px; fill: #000; opacity: 1;">1969</text><text text-anchor="end" transform="translate(313.3333333333333,7) rotate(270) translate(0,3)" style="font-family: sans-serif; font-size: 10px; fill: #000; opacity: 1;">1970</text><text text-anchor="end" transform="translate(326.66666666666663,7) rotate(270) translate(0,3)" style="font-family: sans-serif; font-size: 10px; fill: #000; opacity: 1;">1972</text><text text-anchor="end" transform="translate(340,7) rotate(270) translate(0,3)" style="font-family: sans-serif; font-size: 10px; fill: #000; opacity: 1;">1973</text><text text-anchor="end" transform="translate(353.3333333333333,7) rotate(270) translate(0,3)" style="font-family: sans-serif; font-size: 10px; fill: #000; opacity: 1;">1974</text><text text-anchor="end" transform="translate(366.66666666666663,7) rotate(270) translate(0,3)" style="font-family: sans-serif; font-size: 10px; fill: #000; opacity: 1;">1976</text><text text-anchor="end" transform="translate(380,7) rotate(270) translate(0,3)" style="font-family: sans-serif; font-size: 10px; fill: #000; opacity: 1;">1977</text><text text-anchor="end" transform="translate(393.3333333333333,7) rotate(270) translate(0,3)" style="font-family: sans-serif; font-size: 10px; fill: #000; opacity: 1;">1979</text><text text-anchor="end" transform="translate(406.66666666666663,7) rotate(270) translate(0,3)" style="font-family: sans-serif; font-size: 10px; fill: #000; opacity: 1;">1980</text><text text-anchor="end" transform="translate(420,7) rotate(270) translate(0,3)" style="font-family: sans-serif; font-size: 10px; fill: #000; opacity: 1;">1981</text><text text-anchor="end" transform="translate(433.3333333333333,7) rotate(270) translate(0,3)" style="font-family: sans-serif; font-size: 10px; fill: #000; opacity: 1;">1983</text><text text-anchor="end" transform="translate(446.66666666666663,7) rotate(270) translate(0,3)" style="font-family: sans-serif; font-size: 10px; fill: #000; opacity: 1;">1985</text><text text-anchor="end" transform="translate(460,7) rotate(270) translate(0,3)" style="font-family: sans-serif; font-size: 10px; fill: #000; opacity: 1;">1986</text><text text-anchor="end" transform="translate(473.3333333333333,7) rotate(270) translate(0,3)" style="font-family: sans-serif; font-size: 10px; fill: #000; opacity: 1;">1987</text><text text-anchor="end" transform="translate(486.66666666666663,7) rotate(270) translate(0,3)" style="font-family: sans-serif; font-size: 10px; fill: #000; opacity: 1;">1988</text><text text-anchor="end" transform="translate(500,7) rotate(270) translate(0,3)" style="font-family: sans-serif; font-size: 10px; fill: #000; opacity: 1;">1989</text><text text-anchor="end" transform="translate(513.3333333333333,7) rotate(270) translate(0,3)" style="font-family: sans-serif; font-size: 10px; fill: #000; opacity: 1;">1991</text><text text-anchor="end" transform="translate(526.6666666666666,7) rotate(270) translate(0,3)" style="font-family: sans-serif; font-size: 10px; fill: #000; opacity: 1;">1992</text><text text-anchor="end" transform="translate(540,7) rotate(270) translate(0,3)" style="font-family: sans-serif; font-size: 10px; fill: #000; opacity: 1;">1993</text><text text-anchor="end" transform="translate(553.3333333333334,7) rotate(270) translate(0,3)" style="font-family: sans-serif; font-size: 10px; fill: #000; opacity: 1;">1994</text><text text-anchor="end" transform="translate(566.6666666666666,7) rotate(270) translate(0,3)" style="font-family: sans-serif; font-size: 10px; fill: #000; opacity: 1;">1995</text><text text-anchor="end" transform="translate(580,7) rotate(270) translate(0,3)" style="font-family: sans-serif; font-size: 10px; fill: #000; opacity: 1;">1996</text><text text-anchor="end" transform="translate(593.3333333333334,7) rotate(270) translate(0,3)" style="font-family: sans-serif; font-size: 10px; fill: #000; opacity: 1;">1997</text><text text-anchor="end" transform="translate(606.6666666666666,7) rotate(270) translate(0,3)" style="font-family: sans-serif; font-size: 10px; fill: #000; opacity: 1;">1998</text><text text-anchor="end" transform="translate(620,7) rotate(270) translate(0,3)" style="font-family: sans-serif; font-size: 10px; fill: #000; opacity: 1;">1999</text><text text-anchor="end" transform="translate(633.3333333333334,7) rotate(270) translate(0,3)" style="font-family: sans-serif; font-size: 10px; fill: #000; opacity: 1;">2000</text><text text-anchor="end" transform="translate(646.6666666666666,7) rotate(270) translate(0,3)" style="font-family: sans-serif; font-size: 10px; fill: #000; opacity: 1;">2001</text><text text-anchor="end" transform="translate(660,7) rotate(270) translate(0,3)" style="font-family: sans-serif; font-size: 10px; fill: #000; opacity: 1;">2002</text><text text-anchor="end" transform="translate(673.3333333333334,7) rotate(270) translate(0,3)" style="font-family: sans-serif; font-size: 10px; fill: #000; opacity: 1;">2003</text><text text-anchor="end" transform="translate(686.6666666666666,7) rotate(270) translate(0,3)" style="font-family: sans-serif; font-size: 10px; fill: #000; opacity: 1;">2004</text><text text-anchor="end" transform="translate(700,7) rotate(270) translate(0,3)" style="font-family: sans-serif; font-size: 10px; fill: #000; opacity: 1;">2005</text><text text-anchor="end" transform="translate(713.3333333333334,7) rotate(270) translate(0,3)" style="font-family: sans-serif; font-size: 10px; fill: #000; opacity: 1;">2006</text><text text-anchor="end" transform="translate(726.6666666666666,7) rotate(270) translate(0,3)" style="font-family: sans-serif; font-size: 10px; fill: #000; opacity: 1;">2007</text><text text-anchor="end" transform="translate(740,7) rotate(270) translate(0,3)" style="font-family: sans-serif; font-size: 10px; fill: #000; opacity: 1;">2008</text><text text-anchor="end" transform="translate(753.3333333333334,7) rotate(270) translate(0,3)" style="font-family: sans-serif; font-size: 10px; fill: #000; opacity: 1;">2009</text><text text-anchor="end" transform="translate(766.6666666666666,7) rotate(270) translate(0,3)" style="font-family: sans-serif; font-size: 10px; fill: #000; opacity: 1;">2013</text><text text-anchor="end" transform="translate(780,7) rotate(270) translate(0,3)" style="font-family: sans-serif; font-size: 10px; fill: #000; opacity: 1;">2014</text><text text-anchor="end" transform="translate(793.3333333333334,7) rotate(270) translate(0,3)" style="font-family: sans-serif; font-size: 10px; fill: #000; opacity: 1;">2015</text></g><g class="mark-rule role-axis-domain" style="pointer-events: none;"><line transform="translate(0,0)" x2="800" y2="0" style="fill: none; stroke: #888; stroke-width: 1; opacity: 1;"></line></g><g class="mark-text role-axis-title" style="pointer-events: none;"><text text-anchor="middle" transform="translate(400,42.24609375000001)" style="font-family: sans-serif; font-size: 11px; font-weight: bold; fill: #000; opacity: 1;">Year</text></g></g><path class="foreground" d="" style="pointer-events: none; display: none; fill: none;"></path></g></g><g class="mark-group role-axis"><g transform="translate(0.5,0.5)"><path class="background" d="M0,0h0v0h0Z" style="pointer-events: none; fill: none;"></path><g><g class="mark-rule role-axis-tick" style="pointer-events: none;"><line transform="translate(0,13)" x2="-5" y2="0" style="fill: none; stroke: #888; stroke-width: 1; opacity: 1;"></line><line transform="translate(0,40)" x2="-5" y2="0" style="fill: none; stroke: #888; stroke-width: 1; opacity: 1;"></line><line transform="translate(0,67)" x2="-5" y2="0" style="fill: none; stroke: #888; stroke-width: 1; opacity: 1;"></line><line transform="translate(0,93)" x2="-5" y2="0" style="fill: none; stroke: #888; stroke-width: 1; opacity: 1;"></line><line transform="translate(0,120)" x2="-5" y2="0" style="fill: none; stroke: #888; stroke-width: 1; opacity: 1;"></line><line transform="translate(0,147)" x2="-5" y2="0" style="fill: none; stroke: #888; stroke-width: 1; opacity: 1;"></line><line transform="translate(0,173)" x2="-5" y2="0" style="fill: none; stroke: #888; stroke-width: 1; opacity: 1;"></line><line transform="translate(0,200)" x2="-5" y2="0" style="fill: none; stroke: #888; stroke-width: 1; opacity: 1;"></line><line transform="translate(0,227)" x2="-5" y2="0" style="fill: none; stroke: #888; stroke-width: 1; opacity: 1;"></line><line transform="translate(0,253)" x2="-5" y2="0" style="fill: none; stroke: #888; stroke-width: 1; opacity: 1;"></line><line transform="translate(0,280)" x2="-5" y2="0" style="fill: none; stroke: #888; stroke-width: 1; opacity: 1;"></line><line transform="translate(0,307)" x2="-5" y2="0" style="fill: none; stroke: #888; stroke-width: 1; opacity: 1;"></line><line transform="translate(0,333)" x2="-5" y2="0" style="fill: none; stroke: #888; stroke-width: 1; opacity: 1;"></line><line transform="translate(0,360)" x2="-5" y2="0" style="fill: none; stroke: #888; stroke-width: 1; opacity: 1;"></line><line transform="translate(0,387)" x2="-5" y2="0" style="fill: none; stroke: #888; stroke-width: 1; opacity: 1;"></line></g><g class="mark-text role-axis-label" style="pointer-events: none;"><text text-anchor="end" transform="translate(-7,16.333333333333314)" style="font-family: sans-serif; font-size: 10px; fill: #000; opacity: 1;">Amphipoda</text><text text-anchor="end" transform="translate(-7,42.999999999999986)" style="font-family: sans-serif; font-size: 10px; fill: #000; opacity: 1;">Siphonostomatoida</text><text text-anchor="end" transform="translate(-7,69.66666666666666)" style="font-family: sans-serif; font-size: 10px; fill: #000; opacity: 1;">Decapoda</text><text text-anchor="end" transform="translate(-7,96.33333333333331)" style="font-family: sans-serif; font-size: 10px; fill: #000; opacity: 1;">Isopoda</text><text text-anchor="end" transform="translate(-7,122.99999999999999)" style="font-family: sans-serif; font-size: 10px; fill: #000; opacity: 1;">Tanaidacea</text><text text-anchor="end" transform="translate(-7,149.66666666666666)" style="font-family: sans-serif; font-size: 10px; fill: #000; opacity: 1;">Monstrilloida</text><text text-anchor="end" transform="translate(-7,176.33333333333331)" style="font-family: sans-serif; font-size: 10px; fill: #000; opacity: 1;">Podocopida</text><text text-anchor="end" transform="translate(-7,203)" style="font-family: sans-serif; font-size: 10px; fill: #000; opacity: 1;">Thoracica</text><text text-anchor="end" transform="translate(-7,229.66666666666666)" style="font-family: sans-serif; font-size: 10px; fill: #000; opacity: 1;">Anomopoda</text><text text-anchor="end" transform="translate(-7,256.3333333333333)" style="font-family: sans-serif; font-size: 10px; fill: #000; opacity: 1;">Anostraca</text><text text-anchor="end" transform="translate(-7,283)" style="font-family: sans-serif; font-size: 10px; fill: #000; opacity: 1;">Arguloida</text><text text-anchor="end" transform="translate(-7,309.6666666666667)" style="font-family: sans-serif; font-size: 10px; fill: #000; opacity: 1;">Cumacea</text><text text-anchor="end" transform="translate(-7,336.3333333333333)" style="font-family: sans-serif; font-size: 10px; fill: #000; opacity: 1;">Cyclopoida</text><text text-anchor="end" transform="translate(-7,363)" style="font-family: sans-serif; font-size: 10px; fill: #000; opacity: 1;">Poecilostomatoida</text><text text-anchor="end" transform="translate(-7,389.6666666666667)" style="font-family: sans-serif; font-size: 10px; fill: #000; opacity: 1;">Stomatopoda</text></g><g class="mark-rule role-axis-domain" style="pointer-events: none;"><line transform="translate(0,0)" x2="0" y2="400" style="fill: none; stroke: #888; stroke-width: 1; opacity: 1;"></line></g><g class="mark-text role-axis-title" style="pointer-events: none;"><text text-anchor="middle" transform="translate(-96.615234375,200) rotate(-90) translate(0,-2)" style="font-family: sans-serif; font-size: 11px; font-weight: bold; fill: #000; opacity: 1;">Order</text></g></g><path class="foreground" d="" style="pointer-events: none; display: none; fill: none;"></path></g></g></g><path class="foreground" d="" style="display: none; fill: none;"></path></g></g></g></svg>