<svg class="marks" width="972" height="472" viewBox="0 0 972 472" version="1.1" xmlns="http://www.w3.org/2000/svg" xmlns:xlink="http://www.w3.org/1999/xlink"><g transform="translate(113,22)"><g class="mark-group role-frame root"><g transform="translate(0,0)"><path class="background" d="M0.5,0.5h800v400h-800Z" style="fill: none; stroke: #ddd;"></path><g><g class="mark-symbol role-mark marks"><path transform="translate(276.056338028169,12.5)" d="M1.4006985834715227,0A1.4006985834715227,1.4006985834715227,0,1,1,-1.4006985834715227,0A1.4006985834715227,1.4006985834715227,0,1,1,1.4006985834715227,0" style="fill: #4daf4a; stroke-width: 2; opacity: 0.7;"></path><path transform="translate(309.85915492957747,12.5)" d="M1.4006985834715227,0A1.4006985834715227,1.4006985834715227,0,1,1,-1.4006985834715227,0A1.4006985834715227,1.4006985834715227,0,1,1,1.4006985834715227,0" style="fill: #4daf4a; stroke-width: 2; opacity: 0.7;"></path><path transform="translate(321.1267605633803,12.5)" d="M1.4006985834715227,0A1.4006985834715227,1.4006985834715227,0,1,1,-1.4006985834715227,0A1.4006985834715227,1.4006985834715227,0,1,1,1.4006985834715227,0" style="fill: #4daf4a; stroke-width: 2; opacity: 0.7;"></path><path transform="translate(332.3943661971831,12.5)" d="M3.4309968129444224,0A3.4309968129444224,3.4309968129444224,0,1,1,-3.4309968129444224,0A3.4309968129444224,3.4309968129444224,0,1,1,3.4309968129444224,0" style="fill: #4daf4a; stroke-width: 2; opacity: 0.7;"></path><path transform="translate(343.6619718309859,12.5)" d="M1.4006985834715227,0A1.4006985834715227,1.4006985834715227,0,1,1,-1.4006985834715227,0A1.4006985834715227,1.4006985834715227,0,1,1,1.4006985834715227,0" style="fill: #4daf4a; stroke-width: 2; opacity: 0.7;"></path><path transform="translate(377.46478873239437,12.5)" d="M1.4006985834715227,0A1.4006985834715227,1.4006985834715227,0,1,1,-1.4006985834715227,0A1.4006985834715227,1.4006985834715227,0,1,1,1.4006985834715227,0" style="fill: #4daf4a; stroke-width: 2; opacity: 0.7;"></path><path transform="translate(422.53521126760563,12.5)" d="M2.4260811126624335,0A2.4260811126624335,2.4260811126624335,0,1,1,-2.4260811126624335,0A2.4260811126624335,2.4260811126624335,0,1,1,2.4260811126624335,0" style="fill: #4daf4a; stroke-width: 2; opacity: 0.7;"></path><path transform="translate(433.80281690140845,12.5)" d="M2.4260811126624335,0A2.4260811126624335,2.4260811126624335,0,1,1,-2.4260811126624335,0A2.4260811126624335,2.4260811126624335,0,1,1,2.4260811126624335,0" style="fill: #4daf4a; stroke-width: 2; opacity: 0.7;"></path><path transform="translate(478.8732394366197,12.5)" d="M1.4006985834715227,0A1.4006985834715227,1.4006985834715227,0,1,1,-1.4006985834715227,0A1.4006985834715227,1.4006985834715227,0,1,1,1.4006985834715227,0" style="fill: #4daf4a; stroke-width: 2; opacity: 0.7;"></path><path transform="translate(490.14084507042253,12.5)" d="M1.4006985834715227,0A1.4006985834715227,1.4006985834715227,0,1,1,-1.4006985834715227,0A1.4006985834715227,1.4006985834715227,0,1,1,1.4006985834715227,0" style="fill: #4daf4a; stroke-width: 2; opacity: 0.7;"></path><path transform="translate(501.40845070422534,12.5)" d="M1.9808869335422101,0A1.9808869335422101,1.9808869335422101,0,1,1,-1.9808869335422101,0A1.9808869335422101,1.9808869335422101,0,1,1,1.9808869335422101,0" style="fill: #4daf4a; stroke-width: 2; opacity: 0.7;"></path><path transform="translate(546.4788732394366,12.5)" d="M2.4260811126624335,0A2.4260811126624335,2.4260811126624335,0,1,1,-2.4260811126624335,0A2.4260811126624335,2.4260811126624335,0,1,1,2.4260811126624335,0" style="fill: #4daf4a; stroke-width: 2; opacity: 0.7;"></path><path transform="translate(557.7464788732393,12.5)" d="M4.202095750414569,0A4.202095750414569,4.202095750414569,0,1,1,-4.202095750414569,0A4.202095750414569,4.202095750414569,0,1,1,4.202095750414569,0" style="fill: #4daf4a; stroke-width: 2; opacity: 0.7;"></path><path transform="translate(569.0140845070423,12.5)" d="M5.602794333886091,0A5.602794333886091,5.602794333886091,0,1,1,-5.602794333886091,0A5.602794333886091,5.602794333886091,0,1,1,5.602794333886091,0" style="fill: #4daf4a; stroke-width: 2; opacity: 0.7;"></path><path transform="translate(580.2816901408451,12.5)" d="M1.4006985834715227,0A1.4006985834715227,1.4006985834715227,0,1,1,-1.4006985834715227,0A1.4006985834715227,1.4006985834715227,0,1,1,1.4006985834715227,0" style="fill: #4daf4a; stroke-width: 2; opacity: 0.7;"></path><path transform="translate(591.5492957746478,12.5)" d="M4.645591645757345,0A4.645591645757345,4.645591645757345,0,1,1,-4.645591645757345,0A4.645591645757345,4.645591645757345,0,1,1,4.645591645757345,0" style="fill: #4daf4a; stroke-width: 2; opacity: 0.7;"></path><path transform="translate(602.8169014084506,12.5)" d="M2.8013971669430453,0A2.8013971669430453,2.8013971669430453,0,1,1,-2.8013971669430453,0A2.8013971669430453,2.8013971669430453,0,1,1,2.8013971669430453,0" style="fill: #4daf4a; stroke-width: 2; opacity: 0.7;"></path><path transform="translate(614.0845070422536,12.5)" d="M1.9808869335422101,0A1.9808869335422101,1.9808869335422101,0,1,1,-1.9808869335422101,0A1.9808869335422101,1.9808869335422101,0,1,1,1.9808869335422101,0" style="fill: #4daf4a; stroke-width: 2; opacity: 0.7;"></path><path transform="translate(625.3521126760563,12.5)" d="M6.569858710677184,0A6.569858710677184,6.569858710677184,0,1,1,-6.569858710677184,0A6.569858710677184,6.569858710677184,0,1,1,6.569858710677184,0" style="fill: #4daf4a; stroke-width: 2; opacity: 0.7;"></path><path transform="translate(636.6197183098591,12.5)" d="M7.542992717113996,0A7.542992717113996,7.542992717113996,0,1,1,-7.542992717113996,0A7.542992717113996,7.542992717113996,0,1,1,7.542992717113996,0" style="fill: #4daf4a; stroke-width: 2; opacity: 0.7;"></path><path transform="translate(647.8873239436618,12.5)" d="M9.5,0A9.5,9.5,0,1,1,-9.5,0A9.5,9.5,0,1,1,9.5,0" style="fill: #4daf4a; stroke-width: 2; opacity: 0.7;"></path><path transform="translate(659.1549295774648,12.5)" d="M7.9235477341688405,0A7.9235477341688405,7.9235477341688405,0,1,1,-7.9235477341688405,0A7.9235477341688405,7.9235477341688405,0,1,1,7.9235477341688405,0" style="fill: #4daf4a; stroke-width: 2; opacity: 0.7;"></path><path transform="translate(681.6901408450703,12.5)" d="M1.9808869335422101,0A1.9808869335422101,1.9808869335422101,0,1,1,-1.9808869335422101,0A1.9808869335422101,1.9808869335422101,0,1,1,1.9808869335422101,0" style="fill: #4daf4a; stroke-width: 2; opacity: 0.7;"></path><path transform="translate(692.9577464788731,12.5)" d="M1.9808869335422101,0A1.9808869335422101,1.9808869335422101,0,1,1,-1.9808869335422101,0A1.9808869335422101,1.9808869335422101,0,1,1,1.9808869335422101,0" style="fill: #4daf4a; stroke-width: 2; opacity: 0.7;"></path><path transform="translate(715.4929577464789,12.5)" d="M3.9617738670844203,0A3.9617738670844203,3.9617738670844203,0,1,1,-3.9617738670844203,0A3.9617738670844203,3.9617738670844203,0,1,1,3.9617738670844203,0" style="fill: #4daf4a; stroke-width: 2; opacity: 0.7;"></path><path transform="translate(726.7605633802816,12.5)" d="M3.1320572486299882,0A3.1320572486299882,3.1320572486299882,0,1,1,-3.1320572486299882,0A3.1320572486299882,3.1320572486299882,0,1,1,3.1320572486299882,0" style="fill: #4daf4a; stroke-width: 2; opacity: 0.7;"></path><path transform="translate(794.3661971830986,12.5)" d="M1.4006985834715227,0A1.4006985834715227,1.4006985834715227,0,1,1,-1.4006985834715227,0A1.4006985834715227,1.4006985834715227,0,1,1,1.4006985834715227,0" style="fill: #4daf4a; stroke-width: 2; opacity: 0.7;"></path><path transform="translate(692.9577464788731,287.5)" d="M1.4006985834715227,0A1.4006985834715227,1.4006985834715227,0,1,1,-1.4006985834715227,0A1.4006985834715227,1.4006985834715227,0,1,1,1.4006985834715227,0" style="fill: #4daf4a; stroke-width: 2; opacity: 0.7;"></path><path transform="translate(501.40845070422534,212.5)" d="M1.9808869335422101,0A1.9808869335422101,1.9808869335422101,0,1,1,-1.9808869335422101,0A1.9808869335422101,1.9808869335422101,0,1,1,1.9808869335422101,0" style="fill: #4daf4a; stroke-width: 2; opacity: 0.7;"></path><path transform="translate(546.4788732394366,212.5)" d="M1.4006985834715227,0A1.4006985834715227,1.4006985834715227,0,1,1,-1.4006985834715227,0A1.4006985834715227,1.4006985834715227,0,1,1,1.4006985834715227,0" style="fill: #4daf4a; stroke-width: 2; opacity: 0.7;"></path><path transform="translate(557.7464788732393,212.5)" d="M1.4006985834715227,0A1.4006985834715227,1.4006985834715227,0,1,1,-1.4006985834715227,0A1.4006985834715227,1.4006985834715227,0,1,1,1.4006985834715227,0" style="fill: #4daf4a; stroke-width: 2; opacity: 0.7;"></path><path transform="translate(107.04225352112678,312.5)" d="M1.4006985834715227,0A1.4006985834715227,1.4006985834715227,0,1,1,-1.4006985834715227,0A1.4006985834715227,1.4006985834715227,0,1,1,1.4006985834715227,0" style="fill: #4daf4a; stroke-width: 2; opacity: 0.7;"></path><path transform="translate(512.6760563380282,337.5)" d="M1.4006985834715227,0A1.4006985834715227,1.4006985834715227,0,1,1,-1.4006985834715227,0A1.4006985834715227,1.4006985834715227,0,1,1,1.4006985834715227,0" style="fill: #4daf4a; stroke-width: 2; opacity: 0.7;"></path><path transform="translate(523.943661971831,337.5)" d="M1.4006985834715227,0A1.4006985834715227,1.4006985834715227,0,1,1,-1.4006985834715227,0A1.4006985834715227,1.4006985834715227,0,1,1,1.4006985834715227,0" style="fill: #4daf4a; stroke-width: 2; opacity: 0.7;"></path><path transform="translate(230.98591549295776,87.5)" d="M2.8013971669430453,0A2.8013971669430453,2.8013971669430453,0,1,1,-2.8013971669430453,0A2.8013971669430453,2.8013971669430453,0,1,1,2.8013971669430453,0" style="fill: #4daf4a; stroke-width: 2; opacity: 0.7;"></path><path transform="translate(242.25352112676057,87.5)" d="M3.4309968129444224,0A3.4309968129444224,3.4309968129444224,0,1,1,-3.4309968129444224,0A3.4309968129444224,3.4309968129444224,0,1,1,3.4309968129444224,0" style="fill: #4daf4a; stroke-width: 2; opacity: 0.7;"></path><path transform="translate(253.5211267605634,87.5)" d="M1.4006985834715227,0A1.4006985834715227,1.4006985834715227,0,1,1,-1.4006985834715227,0A1.4006985834715227,1.4006985834715227,0,1,1,1.4006985834715227,0" style="fill: #4daf4a; stroke-width: 2; opacity: 0.7;"></path><path transform="translate(602.8169014084506,237.5)" d="M1.4006985834715227,0A1.4006985834715227,1.4006985834715227,0,1,1,-1.4006985834715227,0A1.4006985834715227,1.4006985834715227,0,1,1,1.4006985834715227,0" style="fill: #4daf4a; stroke-width: 2; opacity: 0.7;"></path><path transform="translate(738.0281690140844,237.5)" d="M1.4006985834715227,0A1.4006985834715227,1.4006985834715227,0,1,1,-1.4006985834715227,0A1.4006985834715227,1.4006985834715227,0,1,1,1.4006985834715227,0" style="fill: #4daf4a; stroke-width: 2; opacity: 0.7;"></path><path transform="translate(760.5633802816901,237.5)" d="M1.4006985834715227,0A1.4006985834715227,1.4006985834715227,0,1,1,-1.4006985834715227,0A1.4006985834715227,1.4006985834715227,0,1,1,1.4006985834715227,0" style="fill: #4daf4a; stroke-width: 2; opacity: 0.7;"></path><path transform="translate(771.8309859154929,237.5)" d="M1.9808869335422101,0A1.9808869335422101,1.9808869335422101,0,1,1,-1.9808869335422101,0A1.9808869335422101,1.9808869335422101,0,1,1,1.9808869335422101,0" style="fill: #4daf4a; stroke-width: 2; opacity: 0.7;"></path><path transform="translate(783.0985915492956,237.5)" d="M1.4006985834715227,0A1.4006985834715227,1.4006985834715227,0,1,1,-1.4006985834715227,0A1.4006985834715227,1.4006985834715227,0,1,1,1.4006985834715227,0" style="fill: #4daf4a; stroke-width: 2; opacity: 0.7;"></path><path transform="translate(61.97183098591552,62.5)" d="M1.4006985834715227,0A1.4006985834715227,1.4006985834715227,0,1,1,-1.4006985834715227,0A1.4006985834715227,1.4006985834715227,0,1,1,1.4006985834715227,0" style="fill: #4daf4a; stroke-width: 2; opacity: 0.7;"></path><path transform="translate(163.38028169014086,62.5)" d="M1.4006985834715227,0A1.4006985834715227,1.4006985834715227,0,1,1,-1.4006985834715227,0A1.4006985834715227,1.4006985834715227,0,1,1,1.4006985834715227,0" style="fill: #4daf4a; stroke-width: 2; opacity: 0.7;"></path><path transform="translate(208.45070422535213,62.5)" d="M1.9808869335422101,0A1.9808869335422101,1.9808869335422101,0,1,1,-1.9808869335422101,0A1.9808869335422101,1.9808869335422101,0,1,1,1.9808869335422101,0" style="fill: #4daf4a; stroke-width: 2; opacity: 0.7;"></path><path transform="translate(264.7887323943662,62.5)" d="M3.4309968129444224,0A3.4309968129444224,3.4309968129444224,0,1,1,-3.4309968129444224,0A3.4309968129444224,3.4309968129444224,0,1,1,3.4309968129444224,0" style="fill: #4daf4a; stroke-width: 2; opacity: 0.7;"></path><path transform="translate(276.056338028169,62.5)" d="M2.4260811126624335,0A2.4260811126624335,2.4260811126624335,0,1,1,-2.4260811126624335,0A2.4260811126624335,2.4260811126624335,0,1,1,2.4260811126624335,0" style="fill: #4daf4a; stroke-width: 2; opacity: 0.7;"></path><path transform="translate(287.32394366197184,62.5)" d="M1.9808869335422101,0A1.9808869335422101,1.9808869335422101,0,1,1,-1.9808869335422101,0A1.9808869335422101,1.9808869335422101,0,1,1,1.9808869335422101,0" style="fill: #4daf4a; stroke-width: 2; opacity: 0.7;"></path><path transform="translate(298.59154929577466,62.5)" d="M2.4260811126624335,0A2.4260811126624335,2.4260811126624335,0,1,1,-2.4260811126624335,0A2.4260811126624335,2.4260811126624335,0,1,1,2.4260811126624335,0" style="fill: #4daf4a; stroke-width: 2; opacity: 0.7;"></path><path transform="translate(309.85915492957747,62.5)" d="M1.4006985834715227,0A1.4006985834715227,1.4006985834715227,0,1,1,-1.4006985834715227,0A1.4006985834715227,1.4006985834715227,0,1,1,1.4006985834715227,0" style="fill: #4daf4a; stroke-width: 2; opacity: 0.7;"></path><path transform="translate(354.92957746478874,62.5)" d="M1.4006985834715227,0A1.4006985834715227,1.4006985834715227,0,1,1,-1.4006985834715227,0A1.4006985834715227,1.4006985834715227,0,1,1,1.4006985834715227,0" style="fill: #4daf4a; stroke-width: 2; opacity: 0.7;"></path><path transform="translate(411.2676056338028,62.5)" d="M1.4006985834715227,0A1.4006985834715227,1.4006985834715227,0,1,1,-1.4006985834715227,0A1.4006985834715227,1.4006985834715227,0,1,1,1.4006985834715227,0" style="fill: #4daf4a; stroke-width: 2; opacity: 0.7;"></path><path transform="translate(433.80281690140845,62.5)" d="M1.9808869335422101,0A1.9808869335422101,1.9808869335422101,0,1,1,-1.9808869335422101,0A1.9808869335422101,1.9808869335422101,0,1,1,1.9808869335422101,0" style="fill: #4daf4a; stroke-width: 2; opacity: 0.7;"></path><path transform="translate(445.07042253521126,62.5)" d="M1.9808869335422101,0A1.9808869335422101,1.9808869335422101,0,1,1,-1.9808869335422101,0A1.9808869335422101,1.9808869335422101,0,1,1,1.9808869335422101,0" style="fill: #4daf4a; stroke-width: 2; opacity: 0.7;"></path><path transform="translate(456.3380281690141,62.5)" d="M1.9808869335422101,0A1.9808869335422101,1.9808869335422101,0,1,1,-1.9808869335422101,0A1.9808869335422101,1.9808869335422101,0,1,1,1.9808869335422101,0" style="fill: #4daf4a; stroke-width: 2; opacity: 0.7;"></path><path transform="translate(478.8732394366197,62.5)" d="M1.4006985834715227,0A1.4006985834715227,1.4006985834715227,0,1,1,-1.4006985834715227,0A1.4006985834715227,1.4006985834715227,0,1,1,1.4006985834715227,0" style="fill: #4daf4a; stroke-width: 2; opacity: 0.7;"></path><path transform="translate(569.0140845070423,62.5)" d="M1.4006985834715227,0A1.4006985834715227,1.4006985834715227,0,1,1,-1.4006985834715227,0A1.4006985834715227,1.4006985834715227,0,1,1,1.4006985834715227,0" style="fill: #4daf4a; stroke-width: 2; opacity: 0.7;"></path><path transform="translate(614.0845070422536,62.5)" d="M1.4006985834715227,0A1.4006985834715227,1.4006985834715227,0,1,1,-1.4006985834715227,0A1.4006985834715227,1.4006985834715227,0,1,1,1.4006985834715227,0" style="fill: #4daf4a; stroke-width: 2; opacity: 0.7;"></path><path transform="translate(625.3521126760563,62.5)" d="M3.9617738670844203,0A3.9617738670844203,3.9617738670844203,0,1,1,-3.9617738670844203,0A3.9617738670844203,3.9617738670844203,0,1,1,3.9617738670844203,0" style="fill: #4daf4a; stroke-width: 2; opacity: 0.7;"></path><path transform="translate(636.6197183098591,62.5)" d="M2.4260811126624335,0A2.4260811126624335,2.4260811126624335,0,1,1,-2.4260811126624335,0A2.4260811126624335,2.4260811126624335,0,1,1,2.4260811126624335,0" style="fill: #4daf4a; stroke-width: 2; opacity: 0.7;"></path><path transform="translate(659.1549295774648,62.5)" d="M1.9808869335422101,0A1.9808869335422101,1.9808869335422101,0,1,1,-1.9808869335422101,0A1.9808869335422101,1.9808869335422101,0,1,1,1.9808869335422101,0" style="fill: #4daf4a; stroke-width: 2; opacity: 0.7;"></path><path transform="translate(715.4929577464789,62.5)" d="M2.4260811126624335,0A2.4260811126624335,2.4260811126624335,0,1,1,-2.4260811126624335,0A2.4260811126624335,2.4260811126624335,0,1,1,2.4260811126624335,0" style="fill: #4daf4a; stroke-width: 2; opacity: 0.7;"></path><path transform="translate(749.2957746478874,62.5)" d="M1.4006985834715227,0A1.4006985834715227,1.4006985834715227,0,1,1,-1.4006985834715227,0A1.4006985834715227,1.4006985834715227,0,1,1,1.4006985834715227,0" style="fill: #4daf4a; stroke-width: 2; opacity: 0.7;"></path><path transform="translate(16.901408450704253,112.5)" d="M1.4006985834715227,0A1.4006985834715227,1.4006985834715227,0,1,1,-1.4006985834715227,0A1.4006985834715227,1.4006985834715227,0,1,1,1.4006985834715227,0" style="fill: #4daf4a; stroke-width: 2; opacity: 0.7;"></path><path transform="translate(28.16901408450707,112.5)" d="M1.4006985834715227,0A1.4006985834715227,1.4006985834715227,0,1,1,-1.4006985834715227,0A1.4006985834715227,1.4006985834715227,0,1,1,1.4006985834715227,0" style="fill: #4daf4a; stroke-width: 2; opacity: 0.7;"></path><path transform="translate(39.436619718309885,112.5)" d="M1.4006985834715227,0A1.4006985834715227,1.4006985834715227,0,1,1,-1.4006985834715227,0A1.4006985834715227,1.4006985834715227,0,1,1,1.4006985834715227,0" style="fill: #4daf4a; stroke-width: 2; opacity: 0.7;"></path><path transform="translate(50.7042253521127,112.5)" d="M1.4006985834715227,0A1.4006985834715227,1.4006985834715227,0,1,1,-1.4006985834715227,0A1.4006985834715227,1.4006985834715227,0,1,1,1.4006985834715227,0" style="fill: #4daf4a; stroke-width: 2; opacity: 0.7;"></path><path transform="translate(73.23943661971833,112.5)" d="M1.4006985834715227,0A1.4006985834715227,1.4006985834715227,0,1,1,-1.4006985834715227,0A1.4006985834715227,1.4006985834715227,0,1,1,1.4006985834715227,0" style="fill: #4daf4a; stroke-width: 2; opacity: 0.7;"></path><path transform="translate(84.50704225352115,112.5)" d="M1.4006985834715227,0A1.4006985834715227,1.4006985834715227,0,1,1,-1.4006985834715227,0A1.4006985834715227,1.4006985834715227,0,1,1,1.4006985834715227,0" style="fill: #4daf4a; stroke-width: 2; opacity: 0.7;"></path><path transform="translate(95.77464788732397,112.5)" d="M1.4006985834715227,0A1.4006985834715227,1.4006985834715227,0,1,1,-1.4006985834715227,0A1.4006985834715227,1.4006985834715227,0,1,1,1.4006985834715227,0" style="fill: #4daf4a; stroke-width: 2; opacity: 0.7;"></path><path transform="translate(107.04225352112678,112.5)" d="M1.4006985834715227,0A1.4006985834715227,1.4006985834715227,0,1,1,-1.4006985834715227,0A1.4006985834715227,1.4006985834715227,0,1,1,1.4006985834715227,0" style="fill: #4daf4a; stroke-width: 2; opacity: 0.7;"></path><path transform="translate(118.3098591549296,112.5)" d="M3.4309968129444224,0A3.4309968129444224,3.4309968129444224,0,1,1,-3.4309968129444224,0A3.4309968129444224,3.4309968129444224,0,1,1,3.4309968129444224,0" style="fill: #4daf4a; stroke-width: 2; opacity: 0.7;"></path><path transform="translate(129.5774647887324,112.5)" d="M2.4260811126624335,0A2.4260811126624335,2.4260811126624335,0,1,1,-2.4260811126624335,0A2.4260811126624335,2.4260811126624335,0,1,1,2.4260811126624335,0" style="fill: #4daf4a; stroke-width: 2; opacity: 0.7;"></path><path transform="translate(140.84507042253523,112.5)" d="M2.4260811126624335,0A2.4260811126624335,2.4260811126624335,0,1,1,-2.4260811126624335,0A2.4260811126624335,2.4260811126624335,0,1,1,2.4260811126624335,0" style="fill: #4daf4a; stroke-width: 2; opacity: 0.7;"></path><path transform="translate(152.11267605633805,112.5)" d="M1.9808869335422101,0A1.9808869335422101,1.9808869335422101,0,1,1,-1.9808869335422101,0A1.9808869335422101,1.9808869335422101,0,1,1,1.9808869335422101,0" style="fill: #4daf4a; stroke-width: 2; opacity: 0.7;"></path><path transform="translate(163.38028169014086,112.5)" d="M1.9808869335422101,0A1.9808869335422101,1.9808869335422101,0,1,1,-1.9808869335422101,0A1.9808869335422101,1.9808869335422101,0,1,1,1.9808869335422101,0" style="fill: #4daf4a; stroke-width: 2; opacity: 0.7;"></path><path transform="translate(174.64788732394368,112.5)" d="M1.9808869335422101,0A1.9808869335422101,1.9808869335422101,0,1,1,-1.9808869335422101,0A1.9808869335422101,1.9808869335422101,0,1,1,1.9808869335422101,0" style="fill: #4daf4a; stroke-width: 2; opacity: 0.7;"></path><path transform="translate(185.9154929577465,112.5)" d="M1.9808869335422101,0A1.9808869335422101,1.9808869335422101,0,1,1,-1.9808869335422101,0A1.9808869335422101,1.9808869335422101,0,1,1,1.9808869335422101,0" style="fill: #4daf4a; stroke-width: 2; opacity: 0.7;"></path><path transform="translate(197.1830985915493,112.5)" d="M1.9808869335422101,0A1.9808869335422101,1.9808869335422101,0,1,1,-1.9808869335422101,0A1.9808869335422101,1.9808869335422101,0,1,1,1.9808869335422101,0" style="fill: #4daf4a; stroke-width: 2; opacity: 0.7;"></path><path transform="translate(208.45070422535213,112.5)" d="M1.9808869335422101,0A1.9808869335422101,1.9808869335422101,0,1,1,-1.9808869335422101,0A1.9808869335422101,1.9808869335422101,0,1,1,1.9808869335422101,0" style="fill: #4daf4a; stroke-width: 2; opacity: 0.7;"></path><path transform="translate(219.71830985915494,112.5)" d="M1.9808869335422101,0A1.9808869335422101,1.9808869335422101,0,1,1,-1.9808869335422101,0A1.9808869335422101,1.9808869335422101,0,1,1,1.9808869335422101,0" style="fill: #4daf4a; stroke-width: 2; opacity: 0.7;"></path><path transform="translate(230.98591549295776,112.5)" d="M1.4006985834715227,0A1.4006985834715227,1.4006985834715227,0,1,1,-1.4006985834715227,0A1.4006985834715227,1.4006985834715227,0,1,1,1.4006985834715227,0" style="fill: #4daf4a; stroke-width: 2; opacity: 0.7;"></path><path transform="translate(253.5211267605634,112.5)" d="M2.4260811126624335,0A2.4260811126624335,2.4260811126624335,0,1,1,-2.4260811126624335,0A2.4260811126624335,2.4260811126624335,0,1,1,2.4260811126624335,0" style="fill: #4daf4a; stroke-width: 2; opacity: 0.7;"></path><path transform="translate(264.7887323943662,112.5)" d="M3.4309968129444224,0A3.4309968129444224,3.4309968129444224,0,1,1,-3.4309968129444224,0A3.4309968129444224,3.4309968129444224,0,1,1,3.4309968129444224,0" style="fill: #4daf4a; stroke-width: 2; opacity: 0.7;"></path><path transform="translate(276.056338028169,112.5)" d="M2.4260811126624335,0A2.4260811126624335,2.4260811126624335,0,1,1,-2.4260811126624335,0A2.4260811126624335,2.4260811126624335,0,1,1,2.4260811126624335,0" style="fill: #4daf4a; stroke-width: 2; opacity: 0.7;"></path><path transform="translate(287.32394366197184,112.5)" d="M2.4260811126624335,0A2.4260811126624335,2.4260811126624335,0,1,1,-2.4260811126624335,0A2.4260811126624335,2.4260811126624335,0,1,1,2.4260811126624335,0" style="fill: #4daf4a; stroke-width: 2; opacity: 0.7;"></path><path transform="translate(298.59154929577466,112.5)" d="M2.8013971669430453,0A2.8013971669430453,2.8013971669430453,0,1,1,-2.8013971669430453,0A2.8013971669430453,2.8013971669430453,0,1,1,2.8013971669430453,0" style="fill: #4daf4a; stroke-width: 2; opacity: 0.7;"></path><path transform="translate(309.85915492957747,112.5)" d="M1.4006985834715227,0A1.4006985834715227,1.4006985834715227,0,1,1,-1.4006985834715227,0A1.4006985834715227,1.4006985834715227,0,1,1,1.4006985834715227,0" style="fill: #4daf4a; stroke-width: 2; opacity: 0.7;"></path><path transform="translate(321.1267605633803,112.5)" d="M1.4006985834715227,0A1.4006985834715227,1.4006985834715227,0,1,1,-1.4006985834715227,0A1.4006985834715227,1.4006985834715227,0,1,1,1.4006985834715227,0" style="fill: #4daf4a; stroke-width: 2; opacity: 0.7;"></path><path transform="translate(332.3943661971831,112.5)" d="M1.4006985834715227,0A1.4006985834715227,1.4006985834715227,0,1,1,-1.4006985834715227,0A1.4006985834715227,1.4006985834715227,0,1,1,1.4006985834715227,0" style="fill: #4daf4a; stroke-width: 2; opacity: 0.7;"></path><path transform="translate(343.6619718309859,112.5)" d="M1.4006985834715227,0A1.4006985834715227,1.4006985834715227,0,1,1,-1.4006985834715227,0A1.4006985834715227,1.4006985834715227,0,1,1,1.4006985834715227,0" style="fill: #4daf4a; stroke-width: 2; opacity: 0.7;"></path><path transform="translate(366.19718309859155,112.5)" d="M2.8013971669430453,0A2.8013971669430453,2.8013971669430453,0,1,1,-2.8013971669430453,0A2.8013971669430453,2.8013971669430453,0,1,1,2.8013971669430453,0" style="fill: #4daf4a; stroke-width: 2; opacity: 0.7;"></path><path transform="translate(388.7323943661972,112.5)" d="M1.4006985834715227,0A1.4006985834715227,1.4006985834715227,0,1,1,-1.4006985834715227,0A1.4006985834715227,1.4006985834715227,0,1,1,1.4006985834715227,0" style="fill: #4daf4a; stroke-width: 2; opacity: 0.7;"></path><path transform="translate(400,112.5)" d="M1.4006985834715227,0A1.4006985834715227,1.4006985834715227,0,1,1,-1.4006985834715227,0A1.4006985834715227,1.4006985834715227,0,1,1,1.4006985834715227,0" style="fill: #4daf4a; stroke-width: 2; opacity: 0.7;"></path><path transform="translate(422.53521126760563,112.5)" d="M1.9808869335422101,0A1.9808869335422101,1.9808869335422101,0,1,1,-1.9808869335422101,0A1.9808869335422101,1.9808869335422101,0,1,1,1.9808869335422101,0" style="fill: #4daf4a; stroke-width: 2; opacity: 0.7;"></path><path transform="translate(433.80281690140845,112.5)" d="M1.9808869335422101,0A1.9808869335422101,1.9808869335422101,0,1,1,-1.9808869335422101,0A1.9808869335422101,1.9808869335422101,0,1,1,1.9808869335422101,0" style="fill: #4daf4a; stroke-width: 2; opacity: 0.7;"></path><path transform="translate(456.3380281690141,112.5)" d="M1.9808869335422101,0A1.9808869335422101,1.9808869335422101,0,1,1,-1.9808869335422101,0A1.9808869335422101,1.9808869335422101,0,1,1,1.9808869335422101,0" style="fill: #4daf4a; stroke-width: 2; opacity: 0.7;"></path><path transform="translate(467.6056338028169,112.5)" d="M1.4006985834715227,0A1.4006985834715227,1.4006985834715227,0,1,1,-1.4006985834715227,0A1.4006985834715227,1.4006985834715227,0,1,1,1.4006985834715227,0" style="fill: #4daf4a; stroke-width: 2; opacity: 0.7;"></path><path transform="translate(478.8732394366197,112.5)" d="M1.9808869335422101,0A1.9808869335422101,1.9808869335422101,0,1,1,-1.9808869335422101,0A1.9808869335422101,1.9808869335422101,0,1,1,1.9808869335422101,0" style="fill: #4daf4a; stroke-width: 2; opacity: 0.7;"></path><path transform="translate(490.14084507042253,112.5)" d="M1.9808869335422101,0A1.9808869335422101,1.9808869335422101,0,1,1,-1.9808869335422101,0A1.9808869335422101,1.9808869335422101,0,1,1,1.9808869335422101,0" style="fill: #4daf4a; stroke-width: 2; opacity: 0.7;"></path><path transform="translate(602.8169014084506,112.5)" d="M1.4006985834715227,0A1.4006985834715227,1.4006985834715227,0,1,1,-1.4006985834715227,0A1.4006985834715227,1.4006985834715227,0,1,1,1.4006985834715227,0" style="fill: #4daf4a; stroke-width: 2; opacity: 0.7;"></path><path transform="translate(614.0845070422536,112.5)" d="M1.4006985834715227,0A1.4006985834715227,1.4006985834715227,0,1,1,-1.4006985834715227,0A1.4006985834715227,1.4006985834715227,0,1,1,1.4006985834715227,0" style="fill: #4daf4a; stroke-width: 2; opacity: 0.7;"></path><path transform="translate(625.3521126760563,112.5)" d="M1.9808869335422101,0A1.9808869335422101,1.9808869335422101,0,1,1,-1.9808869335422101,0A1.9808869335422101,1.9808869335422101,0,1,1,1.9808869335422101,0" style="fill: #4daf4a; stroke-width: 2; opacity: 0.7;"></path><path transform="translate(636.6197183098591,112.5)" d="M1.4006985834715227,0A1.4006985834715227,1.4006985834715227,0,1,1,-1.4006985834715227,0A1.4006985834715227,1.4006985834715227,0,1,1,1.4006985834715227,0" style="fill: #4daf4a; stroke-width: 2; opacity: 0.7;"></path><path transform="translate(647.8873239436618,112.5)" d="M1.4006985834715227,0A1.4006985834715227,1.4006985834715227,0,1,1,-1.4006985834715227,0A1.4006985834715227,1.4006985834715227,0,1,1,1.4006985834715227,0" style="fill: #4daf4a; stroke-width: 2; opacity: 0.7;"></path><path transform="translate(704.2253521126761,112.5)" d="M1.4006985834715227,0A1.4006985834715227,1.4006985834715227,0,1,1,-1.4006985834715227,0A1.4006985834715227,1.4006985834715227,0,1,1,1.4006985834715227,0" style="fill: #4daf4a; stroke-width: 2; opacity: 0.7;"></path><path transform="translate(760.5633802816901,112.5)" d="M1.4006985834715227,0A1.4006985834715227,1.4006985834715227,0,1,1,-1.4006985834715227,0A1.4006985834715227,1.4006985834715227,0,1,1,1.4006985834715227,0" style="fill: #4daf4a; stroke-width: 2; opacity: 0.7;"></path><path transform="translate(569.0140845070423,362.5)" d="M1.4006985834715227,0A1.4006985834715227,1.4006985834715227,0,1,1,-1.4006985834715227,0A1.4006985834715227,1.4006985834715227,0,1,1,1.4006985834715227,0" style="fill: #4daf4a; stroke-width: 2; opacity: 0.7;"></path><path transform="translate(580.2816901408451,362.5)" d="M1.4006985834715227,0A1.4006985834715227,1.4006985834715227,0,1,1,-1.4006985834715227,0A1.4006985834715227,1.4006985834715227,0,1,1,1.4006985834715227,0" style="fill: #4daf4a; stroke-width: 2; opacity: 0.7;"></path><path transform="translate(569.0140845070423,137.5)" d="M1.9808869335422101,0A1.9808869335422101,1.9808869335422101,0,1,1,-1.9808869335422101,0A1.9808869335422101,1.9808869335422101,0,1,1,1.9808869335422101,0" style="fill: #4daf4a; stroke-width: 2; opacity: 0.7;"></path><path transform="translate(625.3521126760563,137.5)" d="M2.8013971669430453,0A2.8013971669430453,2.8013971669430453,0,1,1,-2.8013971669430453,0A2.8013971669430453,2.8013971669430453,0,1,1,2.8013971669430453,0" style="fill: #4daf4a; stroke-width: 2; opacity: 0.7;"></path><path transform="translate(636.6197183098591,137.5)" d="M3.4309968129444224,0A3.4309968129444224,3.4309968129444224,0,1,1,-3.4309968129444224,0A3.4309968129444224,3.4309968129444224,0,1,1,3.4309968129444224,0" style="fill: #4daf4a; stroke-width: 2; opacity: 0.7;"></path><path transform="translate(647.8873239436618,137.5)" d="M1.4006985834715227,0A1.4006985834715227,1.4006985834715227,0,1,1,-1.4006985834715227,0A1.4006985834715227,1.4006985834715227,0,1,1,1.4006985834715227,0" style="fill: #4daf4a; stroke-width: 2; opacity: 0.7;"></path><path transform="translate(625.3521126760563,262.5)" d="M1.4006985834715227,0A1.4006985834715227,1.4006985834715227,0,1,1,-1.4006985834715227,0A1.4006985834715227,1.4006985834715227,0,1,1,1.4006985834715227,0" style="fill: #4daf4a; stroke-width: 2; opacity: 0.7;"></path><path transform="translate(636.6197183098591,262.5)" d="M1.9808869335422101,0A1.9808869335422101,1.9808869335422101,0,1,1,-1.9808869335422101,0A1.9808869335422101,1.9808869335422101,0,1,1,1.9808869335422101,0" style="fill: #4daf4a; stroke-width: 2; opacity: 0.7;"></path><path transform="translate(647.8873239436618,262.5)" d="M1.4006985834715227,0A1.4006985834715227,1.4006985834715227,0,1,1,-1.4006985834715227,0A1.4006985834715227,1.4006985834715227,0,1,1,1.4006985834715227,0" style="fill: #4daf4a; stroke-width: 2; opacity: 0.7;"></path><path transform="translate(738.0281690140844,262.5)" d="M1.9808869335422101,0A1.9808869335422101,1.9808869335422101,0,1,1,-1.9808869335422101,0A1.9808869335422101,1.9808869335422101,0,1,1,1.9808869335422101,0" style="fill: #4daf4a; stroke-width: 2; opacity: 0.7;"></path><path transform="translate(794.3661971830986,262.5)" d="M1.4006985834715227,0A1.4006985834715227,1.4006985834715227,0,1,1,-1.4006985834715227,0A1.4006985834715227,1.4006985834715227,0,1,1,1.4006985834715227,0" style="fill: #4daf4a; stroke-width: 2; opacity: 0.7;"></path><path transform="translate(5.6338028169014365,37.5)" d="M1.4006985834715227,0A1.4006985834715227,1.4006985834715227,0,1,1,-1.4006985834715227,0A1.4006985834715227,1.4006985834715227,0,1,1,1.4006985834715227,0" style="fill: #4daf4a; stroke-width: 2; opacity: 0.7;"></path><path transform="translate(523.943661971831,37.5)" d="M1.4006985834715227,0A1.4006985834715227,1.4006985834715227,0,1,1,-1.4006985834715227,0A1.4006985834715227,1.4006985834715227,0,1,1,1.4006985834715227,0" style="fill: #4daf4a; stroke-width: 2; opacity: 0.7;"></path><path transform="translate(535.2112676056338,37.5)" d="M1.9808869335422101,0A1.9808869335422101,1.9808869335422101,0,1,1,-1.9808869335422101,0A1.9808869335422101,1.9808869335422101,0,1,1,1.9808869335422101,0" style="fill: #4daf4a; stroke-width: 2; opacity: 0.7;"></path><path transform="translate(557.7464788732393,37.5)" d="M4.42939783914149,0A4.42939783914149,4.42939783914149,0,1,1,-4.42939783914149,0A4.42939783914149,4.42939783914149,0,1,1,4.42939783914149,0" style="fill: #4daf4a; stroke-width: 2; opacity: 0.7;"></path><path transform="translate(569.0140845070423,37.5)" d="M5.050290564176352,0A5.050290564176352,5.050290564176352,0,1,1,-5.050290564176352,0A5.050290564176352,5.050290564176352,0,1,1,5.050290564176352,0" style="fill: #4daf4a; stroke-width: 2; opacity: 0.7;"></path><path transform="translate(580.2816901408451,37.5)" d="M3.9617738670844203,0A3.9617738670844203,3.9617738670844203,0,1,1,-3.9617738670844203,0A3.9617738670844203,3.9617738670844203,0,1,1,3.9617738670844203,0" style="fill: #4daf4a; stroke-width: 2; opacity: 0.7;"></path><path transform="translate(591.5492957746478,37.5)" d="M4.42939783914149,0A4.42939783914149,4.42939783914149,0,1,1,-4.42939783914149,0A4.42939783914149,4.42939783914149,0,1,1,4.42939783914149,0" style="fill: #4daf4a; stroke-width: 2; opacity: 0.7;"></path><path transform="translate(332.3943661971831,387.5)" d="M1.4006985834715227,0A1.4006985834715227,1.4006985834715227,0,1,1,-1.4006985834715227,0A1.4006985834715227,1.4006985834715227,0,1,1,1.4006985834715227,0" style="fill: #4daf4a; stroke-width: 2; opacity: 0.7;"></path><path transform="translate(343.6619718309859,387.5)" d="M1.4006985834715227,0A1.4006985834715227,1.4006985834715227,0,1,1,-1.4006985834715227,0A1.4006985834715227,1.4006985834715227,0,1,1,1.4006985834715227,0" style="fill: #4daf4a; stroke-width: 2; opacity: 0.7;"></path><path transform="translate(242.25352112676057,162.5)" d="M1.4006985834715227,0A1.4006985834715227,1.4006985834715227,0,1,1,-1.4006985834715227,0A1.4006985834715227,1.4006985834715227,0,1,1,1.4006985834715227,0" style="fill: #4daf4a; stroke-width: 2; opacity: 0.7;"></path><path transform="translate(321.1267605633803,162.5)" d="M2.4260811126624335,0A2.4260811126624335,2.4260811126624335,0,1,1,-2.4260811126624335,0A2.4260811126624335,2.4260811126624335,0,1,1,2.4260811126624335,0" style="fill: #4daf4a; stroke-width: 2; opacity: 0.7;"></path><path transform="translate(377.46478873239437,162.5)" d="M1.4006985834715227,0A1.4006985834715227,1.4006985834715227,0,1,1,-1.4006985834715227,0A1.4006985834715227,1.4006985834715227,0,1,1,1.4006985834715227,0" style="fill: #4daf4a; stroke-width: 2; opacity: 0.7;"></path><path transform="translate(647.8873239436618,162.5)" d="M1.4006985834715227,0A1.4006985834715227,1.4006985834715227,0,1,1,-1.4006985834715227,0A1.4006985834715227,1.4006985834715227,0,1,1,1.4006985834715227,0" style="fill: #4daf4a; stroke-width: 2; opacity: 0.7;"></path><path transform="translate(670.4225352112676,162.5)" d="M1.9808869335422101,0A1.9808869335422101,1.9808869335422101,0,1,1,-1.9808869335422101,0A1.9808869335422101,1.9808869335422101,0,1,1,1.9808869335422101,0" style="fill: #4daf4a; stroke-width: 2; opacity: 0.7;"></path><path transform="translate(715.4929577464789,162.5)" d="M1.4006985834715227,0A1.4006985834715227,1.4006985834715227,0,1,1,-1.4006985834715227,0A1.4006985834715227,1.4006985834715227,0,1,1,1.4006985834715227,0" style="fill: #4daf4a; stroke-width: 2; opacity: 0.7;"></path><path transform="translate(726.7605633802816,162.5)" d="M1.4006985834715227,0A1.4006985834715227,1.4006985834715227,0,1,1,-1.4006985834715227,0A1.4006985834715227,1.4006985834715227,0,1,1,1.4006985834715227,0" style="fill: #4daf4a; stroke-width: 2; opacity: 0.7;"></path><path transform="translate(118.3098591549296,187.5)" d="M1.4006985834715227,0A1.4006985834715227,1.4006985834715227,0,1,1,-1.4006985834715227,0A1.4006985834715227,1.4006985834715227,0,1,1,1.4006985834715227,0" style="fill: #4daf4a; stroke-width: 2; opacity: 0.7;"></path><path transform="translate(129.5774647887324,187.5)" d="M1.4006985834715227,0A1.4006985834715227,1.4006985834715227,0,1,1,-1.4006985834715227,0A1.4006985834715227,1.4006985834715227,0,1,1,1.4006985834715227,0" style="fill: #4daf4a; stroke-width: 2; opacity: 0.7;"></path><path transform="translate(140.84507042253523,187.5)" d="M1.4006985834715227,0A1.4006985834715227,1.4006985834715227,0,1,1,-1.4006985834715227,0A1.4006985834715227,1.4006985834715227,0,1,1,1.4006985834715227,0" style="fill: #4daf4a; stroke-width: 2; opacity: 0.7;"></path><path transform="translate(208.45070422535213,187.5)" d="M1.4006985834715227,0A1.4006985834715227,1.4006985834715227,0,1,1,-1.4006985834715227,0A1.4006985834715227,1.4006985834715227,0,1,1,1.4006985834715227,0" style="fill: #4daf4a; stroke-width: 2; opacity: 0.7;"></path><path transform="translate(230.98591549295776,187.5)" d="M1.9808869335422101,0A1.9808869335422101,1.9808869335422101,0,1,1,-1.9808869335422101,0A1.9808869335422101,1.9808869335422101,0,1,1,1.9808869335422101,0" style="fill: #4daf4a; stroke-width: 2; opacity: 0.7;"></path><path transform="translate(298.59154929577466,187.5)" d="M1.9808869335422101,0A1.9808869335422101,1.9808869335422101,0,1,1,-1.9808869335422101,0A1.9808869335422101,1.9808869335422101,0,1,1,1.9808869335422101,0" style="fill: #4daf4a; stroke-width: 2; opacity: 0.7;"></path><path transform="translate(309.85915492957747,187.5)" d="M1.4006985834715227,0A1.4006985834715227,1.4006985834715227,0,1,1,-1.4006985834715227,0A1.4006985834715227,1.4006985834715227,0,1,1,1.4006985834715227,0" style="fill: #4daf4a; stroke-width: 2; opacity: 0.7;"></path><path transform="translate(343.6619718309859,187.5)" d="M1.9808869335422101,0A1.9808869335422101,1.9808869335422101,0,1,1,-1.9808869335422101,0A1.9808869335422101,1.9808869335422101,0,1,1,1.9808869335422101,0" style="fill: #4daf4a; stroke-width: 2; opacity: 0.7;"></path><path transform="translate(366.19718309859155,187.5)" d="M1.4006985834715227,0A1.4006985834715227,1.4006985834715227,0,1,1,-1.4006985834715227,0A1.4006985834715227,1.4006985834715227,0,1,1,1.4006985834715227,0" style="fill: #4daf4a; stroke-width: 2; opacity: 0.7;"></path><path transform="translate(456.3380281690141,187.5)" d="M2.4260811126624335,0A2.4260811126624335,2.4260811126624335,0,1,1,-2.4260811126624335,0A2.4260811126624335,2.4260811126624335,0,1,1,2.4260811126624335,0" style="fill: #4daf4a; stroke-width: 2; opacity: 0.7;"></path><path transform="translate(478.8732394366197,187.5)" d="M1.4006985834715227,0A1.4006985834715227,1.4006985834715227,0,1,1,-1.4006985834715227,0A1.4006985834715227,1.4006985834715227,0,1,1,1.4006985834715227,0" style="fill: #4daf4a; stroke-width: 2; opacity: 0.7;"></path><path transform="translate(535.2112676056338,187.5)" d="M1.4006985834715227,0A1.4006985834715227,1.4006985834715227,0,1,1,-1.4006985834715227,0A1.4006985834715227,1.4006985834715227,0,1,1,1.4006985834715227,0" style="fill: #4daf4a; stroke-width: 2; opacity: 0.7;"></path><path transform="translate(580.2816901408451,187.5)" d="M1.4006985834715227,0A1.4006985834715227,1.4006985834715227,0,1,1,-1.4006985834715227,0A1.4006985834715227,1.4006985834715227,0,1,1,1.4006985834715227,0" style="fill: #4daf4a; stroke-width: 2; opacity: 0.7;"></path><path transform="translate(591.5492957746478,187.5)" d="M1.4006985834715227,0A1.4006985834715227,1.4006985834715227,0,1,1,-1.4006985834715227,0A1.4006985834715227,1.4006985834715227,0,1,1,1.4006985834715227,0" style="fill: #4daf4a; stroke-width: 2; opacity: 0.7;"></path><path transform="translate(636.6197183098591,187.5)" d="M2.4260811126624335,0A2.4260811126624335,2.4260811126624335,0,1,1,-2.4260811126624335,0A2.4260811126624335,2.4260811126624335,0,1,1,2.4260811126624335,0" style="fill: #4daf4a; stroke-width: 2; opacity: 0.7;"></path><path transform="translate(647.8873239436618,187.5)" d="M1.4006985834715227,0A1.4006985834715227,1.4006985834715227,0,1,1,-1.4006985834715227,0A1.4006985834715227,1.4006985834715227,0,1,1,1.4006985834715227,0" style="fill: #4daf4a; stroke-width: 2; opacity: 0.7;"></path></g><g class="mark-group role-legend"><g transform="translate(818,0)"><path class="background" d="M0,0h36v92h-36Z" style="pointer-events: none; fill: none;"></path><g><g class="mark-group role-legend-entry"><g transform="translate(0,16)"><path class="background" d="M0,0h0v0h0Z" style="pointer-events: none; fill: none;"></path><g><g class="mark-group role-scope"><g transform="translate(0,0)"><path class="background" d="M0,0h35.123046875v11.42939783914149h-35.123046875Z" style="pointer-events: none; fill: none; opacity: 1;"></path><g><g class="mark-symbol role-legend-symbol" style="pointer-events: none;"><path transform="translate(10,5.5)" d="M4.42939783914149,0A4.42939783914149,4.42939783914149,0,1,1,-4.42939783914149,0A4.42939783914149,4.42939783914149,0,1,1,4.42939783914149,0" style="fill: #4daf4a; stroke: none; stroke-width: 1.5; opacity: 0.7;"></path></g><g class="mark-text role-legend-label" style="pointer-events: none;"><text text-anchor="start" transform="translate(24,8.5)" style="font-family: sans-serif; font-size: 10px; fill: #000; opacity: 1;">10</text></g></g><path class="foreground" d="" style="pointer-events: none; display: none; fill: none;"></path></g><g transform="translate(0,15)"><path class="background" d="M0,0h35.123046875v15.264114497259975h-35.123046875Z" style="pointer-events: none; fill: none; opacity: 1;"></path><g><g class="mark-symbol role-legend-symbol" style="pointer-events: none;"><path transform="translate(10,7.5)" d="M6.2641144972599765,0A6.2641144972599765,6.2641144972599765,0,1,1,-6.2641144972599765,0A6.2641144972599765,6.2641144972599765,0,1,1,6.2641144972599765,0" style="fill: #4daf4a; stroke: none; stroke-width: 1.5; opacity: 0.7;"></path></g><g class="mark-text role-legend-label" style="pointer-events: none;"><text text-anchor="start" transform="translate(24,10.5)" style="font-family: sans-serif; font-size: 10px; fill: #000; opacity: 1;">20</text></g></g><path class="foreground" d="" style="pointer-events: none; display: none; fill: none;"></path></g><g transform="translate(0,34)"><path class="background" d="M0,0h35.123046875v17.671942104328863h-35.123046875Z" style="pointer-events: none; fill: none; opacity: 1;"></path><g><g class="mark-symbol role-legend-symbol" style="pointer-events: none;"><path transform="translate(10,8.5)" d="M7.671942104328859,0A7.671942104328859,7.671942104328859,0,1,1,-7.671942104328859,0A7.671942104328859,7.671942104328859,0,1,1,7.671942104328859,0" style="fill: #4daf4a; stroke: none; stroke-width: 1.5; opacity: 0.7;"></path></g><g class="mark-text role-legend-label" style="pointer-events: none;"><text text-anchor="start" transform="translate(24,11.5)" style="font-family: sans-serif; font-size: 10px; fill: #000; opacity: 1;">30</text></g></g><path class="foreground" d="" style="pointer-events: none; display: none; fill: none;"></path></g><g transform="translate(0,55)"><path class="background" d="M0,0h35.123046875v20.358795678282974h-35.123046875Z" style="pointer-events: none; fill: none; opacity: 1;"></path><g><g class="mark-symbol role-legend-symbol" style="pointer-events: none;"><path transform="translate(10,10)" d="M8.85879567828298,0A8.85879567828298,8.85879567828298,0,1,1,-8.85879567828298,0A8.85879567828298,8.85879567828298,0,1,1,8.85879567828298,0" style="fill: #4daf4a; stroke: none; stroke-width: 1.5; opacity: 0.7;"></path></g><g class="mark-text role-legend-label" style="pointer-events: none;"><text text-anchor="start" transform="translate(24,13)" style="font-family: sans-serif; font-size: 10px; fill: #000; opacity: 1;">40</text></g></g><path class="foreground" d="" style="pointer-events: none; display: none; fill: none;"></path></g></g></g><path class="foreground" d="" style="pointer-events: none; display: none; fill: none;"></path></g></g><g class="mark-text role-legend-title" style="pointer-events: none;"><text text-anchor="start" transform="translate(0,9)" style="font-family: sans-serif; font-size: 11px; font-weight: bold; fill: #000; opacity: 1;">count</text></g></g><path class="foreground" d="" style="pointer-events: none; display: none; fill: none;"></path></g></g><g class="mark-group role-title"><g transform="translate(400,-17)"><path class="background" d="M0,0h0v0h0Z" style="pointer-events: none; fill: none;"></path><g><g class="mark-text role-title-text" style="pointer-events: none;"><text text-anchor="middle" transform="translate(0,10)" style="font-family: sans-serif; font-size: 13px; font-weight: bold; fill: #000; opacity: 1;">Number of Paratipo of each order per year</text></g></g><path class="foreground" d="" style="pointer-events: none; display: none; fill: none;"></path></g></g><g class="mark-group role-axis"><g transform="translate(0.5,400.5)"><path class="background" d="M0,0h0v0h0Z" style="pointer-events: none; fill: none;"></path><g><g class="mark-rule role-axis-tick" style="pointer-events: none;"><line transform="translate(6,0)" x2="0" y2="5" style="fill: none; stroke: #888; stroke-width: 1; opacity: 1;"></line><line transform="translate(17,0)" x2="0" y2="5" style="fill: none; stroke: #888; stroke-width: 1; opacity: 1;"></line><line transform="translate(28,0)" x2="0" y2="5" style="fill: none; stroke: #888; stroke-width: 1; opacity: 1;"></line><line transform="translate(39,0)" x2="0" y2="5" style="fill: none; stroke: #888; stroke-width: 1; opacity: 1;"></line><line transform="translate(51,0)" x2="0" y2="5" style="fill: none; stroke: #888; stroke-width: 1; opacity: 1;"></line><line transform="translate(62,0)" x2="0" y2="5" style="fill: none; stroke: #888; stroke-width: 1; opacity: 1;"></line><line transform="translate(73,0)" x2="0" y2="5" style="fill: none; stroke: #888; stroke-width: 1; opacity: 1;"></line><line transform="translate(85,0)" x2="0" y2="5" style="fill: none; stroke: #888; stroke-width: 1; opacity: 1;"></line><line transform="translate(96,0)" x2="0" y2="5" style="fill: none; stroke: #888; stroke-width: 1; opacity: 1;"></line><line transform="translate(107,0)" x2="0" y2="5" style="fill: none; stroke: #888; stroke-width: 1; opacity: 1;"></line><line transform="translate(118,0)" x2="0" y2="5" style="fill: none; stroke: #888; stroke-width: 1; opacity: 1;"></line><line transform="translate(130,0)" x2="0" y2="5" style="fill: none; stroke: #888; stroke-width: 1; opacity: 1;"></line><line transform="translate(141,0)" x2="0" y2="5" style="fill: none; stroke: #888; stroke-width: 1; opacity: 1;"></line><line transform="translate(152,0)" x2="0" y2="5" style="fill: none; stroke: #888; stroke-width: 1; opacity: 1;"></line><line transform="translate(163,0)" x2="0" y2="5" style="fill: none; stroke: #888; stroke-width: 1; opacity: 1;"></line><line transform="translate(175,0)" x2="0" y2="5" style="fill: none; stroke: #888; stroke-width: 1; opacity: 1;"></line><line transform="translate(186,0)" x2="0" y2="5" style="fill: none; stroke: #888; stroke-width: 1; opacity: 1;"></line><line transform="translate(197,0)" x2="0" y2="5" style="fill: none; stroke: #888; stroke-width: 1; opacity: 1;"></line><line transform="translate(208,0)" x2="0" y2="5" style="fill: none; stroke: #888; stroke-width: 1; opacity: 1;"></line><line transform="translate(220,0)" x2="0" y2="5" style="fill: none; stroke: #888; stroke-width: 1; opacity: 1;"></line><line transform="translate(231,0)" x2="0" y2="5" style="fill: none; stroke: #888; stroke-width: 1; opacity: 1;"></line><line transform="translate(242,0)" x2="0" y2="5" style="fill: none; stroke: #888; stroke-width: 1; opacity: 1;"></line><line transform="translate(254,0)" x2="0" y2="5" style="fill: none; stroke: #888; stroke-width: 1; opacity: 1;"></line><line transform="translate(265,0)" x2="0" y2="5" style="fill: none; stroke: #888; stroke-width: 1; opacity: 1;"></line><line transform="translate(276,0)" x2="0" y2="5" style="fill: none; stroke: #888; stroke-width: 1; opacity: 1;"></line><line transform="translate(287,0)" x2="0" y2="5" style="fill: none; stroke: #888; stroke-width: 1; opacity: 1;"></line><line transform="translate(299,0)" x2="0" y2="5" style="fill: none; stroke: #888; stroke-width: 1; opacity: 1;"></line><line transform="translate(310,0)" x2="0" y2="5" style="fill: none; stroke: #888; stroke-width: 1; opacity: 1;"></line><line transform="translate(321,0)" x2="0" y2="5" style="fill: none; stroke: #888; stroke-width: 1; opacity: 1;"></line><line transform="translate(332,0)" x2="0" y2="5" style="fill: none; stroke: #888; stroke-width: 1; opacity: 1;"></line><line transform="translate(344,0)" x2="0" y2="5" style="fill: none; stroke: #888; stroke-width: 1; opacity: 1;"></line><line transform="translate(355,0)" x2="0" y2="5" style="fill: none; stroke: #888; stroke-width: 1; opacity: 1;"></line><line transform="translate(366,0)" x2="0" y2="5" style="fill: none; stroke: #888; stroke-width: 1; opacity: 1;"></line><line transform="translate(377,0)" x2="0" y2="5" style="fill: none; stroke: #888; stroke-width: 1; opacity: 1;"></line><line transform="translate(389,0)" x2="0" y2="5" style="fill: none; stroke: #888; stroke-width: 1; opacity: 1;"></line><line transform="translate(400,0)" x2="0" y2="5" style="fill: none; stroke: #888; stroke-width: 1; opacity: 1;"></line><line transform="translate(411,0)" x2="0" y2="5" style="fill: none; stroke: #888; stroke-width: 1; opacity: 1;"></line><line transform="translate(423,0)" x2="0" y2="5" style="fill: none; stroke: #888; stroke-width: 1; opacity: 1;"></line><line transform="translate(434,0)" x2="0" y2="5" style="fill: none; stroke: #888; stroke-width: 1; opacity: 1;"></line><line transform="translate(445,0)" x2="0" y2="5" style="fill: none; stroke: #888; stroke-width: 1; opacity: 1;"></line><line transform="translate(456,0)" x2="0" y2="5" style="fill: none; stroke: #888; stroke-width: 1; opacity: 1;"></line><line transform="translate(468,0)" x2="0" y2="5" style="fill: none; stroke: #888; stroke-width: 1; opacity: 1;"></line><line transform="translate(479,0)" x2="0" y2="5" style="fill: none; stroke: #888; stroke-width: 1; opacity: 1;"></line><line transform="translate(490,0)" x2="0" y2="5" style="fill: none; stroke: #888; stroke-width: 1; opacity: 1;"></line><line transform="translate(501,0)" x2="0" y2="5" style="fill: none; stroke: #888; stroke-width: 1; opacity: 1;"></line><line transform="translate(513,0)" x2="0" y2="5" style="fill: none; stroke: #888; stroke-width: 1; opacity: 1;"></line><line transform="translate(524,0)" x2="0" y2="5" style="fill: none; stroke: #888; stroke-width: 1; opacity: 1;"></line><line transform="translate(535,0)" x2="0" y2="5" style="fill: none; stroke: #888; stroke-width: 1; opacity: 1;"></line><line transform="translate(546,0)" x2="0" y2="5" style="fill: none; stroke: #888; stroke-width: 1; opacity: 1;"></line><line transform="translate(558,0)" x2="0" y2="5" style="fill: none; stroke: #888; stroke-width: 1; opacity: 1;"></line><line transform="translate(569,0)" x2="0" y2="5" style="fill: none; stroke: #888; stroke-width: 1; opacity: 1;"></line><line transform="translate(580,0)" x2="0" y2="5" style="fill: none; stroke: #888; stroke-width: 1; opacity: 1;"></line><line transform="translate(592,0)" x2="0" y2="5" style="fill: none; stroke: #888; stroke-width: 1; opacity: 1;"></line><line transform="translate(603,0)" x2="0" y2="5" style="fill: none; stroke: #888; stroke-width: 1; opacity: 1;"></line><line transform="translate(614,0)" x2="0" y2="5" style="fill: none; stroke: #888; stroke-width: 1; opacity: 1;"></line><line transform="translate(625,0)" x2="0" y2="5" style="fill: none; stroke: #888; stroke-width: 1; opacity: 1;"></line><line transform="translate(637,0)" x2="0" y2="5" style="fill: none; stroke: #888; stroke-width: 1; opacity: 1;"></line><line transform="translate(648,0)" x2="0" y2="5" style="fill: none; stroke: #888; stroke-width: 1; opacity: 1;"></line><line transform="translate(659,0)" x2="0" y2="5" style="fill: none; stroke: #888; stroke-width: 1; opacity: 1;"></line><line transform="translate(670,0)" x2="0" y2="5" style="fill: none; stroke: #888; stroke-width: 1; opacity: 1;"></line><line transform="translate(682,0)" x2="0" y2="5" style="fill: none; stroke: #888; stroke-width: 1; opacity: 1;"></line><line transform="translate(693,0)" x2="0" y2="5" style="fill: none; stroke: #888; stroke-width: 1; opacity: 1;"></line><line transform="translate(704,0)" x2="0" y2="5" style="fill: none; stroke: #888; stroke-width: 1; opacity: 1;"></line><line transform="translate(715,0)" x2="0" y2="5" style="fill: none; stroke: #888; stroke-width: 1; opacity: 1;"></line><line transform="translate(727,0)" x2="0" y2="5" style="fill: none; stroke: #888; stroke-width: 1; opacity: 1;"></line><line transform="translate(738,0)" x2="0" y2="5" style="fill: none; stroke: #888; stroke-width: 1; opacity: 1;"></line><line transform="translate(749,0)" x2="0" y2="5" style="fill: none; stroke: #888; stroke-width: 1; opacity: 1;"></line><line transform="translate(761,0)" x2="0" y2="5" style="fill: none; stroke: #888; stroke-width: 1; opacity: 1;"></line><line transform="translate(772,0)" x2="0" y2="5" style="fill: none; stroke: #888; stroke-width: 1; opacity: 1;"></line><line transform="translate(783,0)" x2="0" y2="5" style="fill: none; stroke: #888; stroke-width: 1; opacity: 1;"></line><line transform="translate(794,0)" x2="0" y2="5" style="fill: none; stroke: #888; stroke-width: 1; opacity: 1;"></line></g><g class="mark-text role-axis-label" style="pointer-events: none;"><text text-anchor="end" transform="translate(5.6338028169014365,7) rotate(270) translate(0,3)" style="font-family: sans-serif; font-size: 10px; fill: #000; opacity: 1;">1910</text><text text-anchor="end" transform="translate(16.901408450704253,7) rotate(270) translate(0,3)" style="font-family: sans-serif; font-size: 10px; fill: #000; opacity: 1;">1938</text><text text-anchor="end" transform="translate(28.16901408450707,7) rotate(270) translate(0,3)" style="font-family: sans-serif; font-size: 10px; fill: #000; opacity: 1;">1939</text><text text-anchor="end" transform="translate(39.436619718309885,7) rotate(270) translate(0,3)" style="font-family: sans-serif; font-size: 10px; fill: #000; opacity: 1;">1940</text><text text-anchor="end" transform="translate(50.7042253521127,7) rotate(270) translate(0,3)" style="font-family: sans-serif; font-size: 10px; fill: #000; opacity: 1;">1942</text><text text-anchor="end" transform="translate(61.97183098591552,7) rotate(270) translate(0,3)" style="font-family: sans-serif; font-size: 10px; fill: #000; opacity: 1;">1943</text><text text-anchor="end" transform="translate(73.23943661971833,7) rotate(270) translate(0,3)" style="font-family: sans-serif; font-size: 10px; fill: #000; opacity: 1;">1944</text><text text-anchor="end" transform="translate(84.50704225352115,7) rotate(270) translate(0,3)" style="font-family: sans-serif; font-size: 10px; fill: #000; opacity: 1;">1946</text><text text-anchor="end" transform="translate(95.77464788732397,7) rotate(270) translate(0,3)" style="font-family: sans-serif; font-size: 10px; fill: #000; opacity: 1;">1947</text><text text-anchor="end" transform="translate(107.04225352112678,7) rotate(270) translate(0,3)" style="font-family: sans-serif; font-size: 10px; fill: #000; opacity: 1;">1948</text><text text-anchor="end" transform="translate(118.3098591549296,7) rotate(270) translate(0,3)" style="font-family: sans-serif; font-size: 10px; fill: #000; opacity: 1;">1950</text><text text-anchor="end" transform="translate(129.5774647887324,7) rotate(270) translate(0,3)" style="font-family: sans-serif; font-size: 10px; fill: #000; opacity: 1;">1951</text><text text-anchor="end" transform="translate(140.84507042253523,7) rotate(270) translate(0,3)" style="font-family: sans-serif; font-size: 10px; fill: #000; opacity: 1;">1952</text><text text-anchor="end" transform="translate(152.11267605633805,7) rotate(270) translate(0,3)" style="font-family: sans-serif; font-size: 10px; fill: #000; opacity: 1;">1953</text><text text-anchor="end" transform="translate(163.38028169014086,7) rotate(270) translate(0,3)" style="font-family: sans-serif; font-size: 10px; fill: #000; opacity: 1;">1955</text><text text-anchor="end" transform="translate(174.64788732394368,7) rotate(270) translate(0,3)" style="font-family: sans-serif; font-size: 10px; fill: #000; opacity: 1;">1956</text><text text-anchor="end" transform="translate(185.9154929577465,7) rotate(270) translate(0,3)" style="font-family: sans-serif; font-size: 10px; fill: #000; opacity: 1;">1957</text><text text-anchor="end" transform="translate(197.1830985915493,7) rotate(270) translate(0,3)" style="font-family: sans-serif; font-size: 10px; fill: #000; opacity: 1;">1958</text><text text-anchor="end" transform="translate(208.45070422535213,7) rotate(270) translate(0,3)" style="font-family: sans-serif; font-size: 10px; fill: #000; opacity: 1;">1959</text><text text-anchor="end" transform="translate(219.71830985915494,7) rotate(270) translate(0,3)" style="font-family: sans-serif; font-size: 10px; fill: #000; opacity: 1;">1960</text><text text-anchor="end" transform="translate(230.98591549295776,7) rotate(270) translate(0,3)" style="font-family: sans-serif; font-size: 10px; fill: #000; opacity: 1;">1961</text><text text-anchor="end" transform="translate(242.25352112676057,7) rotate(270) translate(0,3)" style="font-family: sans-serif; font-size: 10px; fill: #000; opacity: 1;">1962</text><text text-anchor="end" transform="translate(253.5211267605634,7) rotate(270) translate(0,3)" style="font-family: sans-serif; font-size: 10px; fill: #000; opacity: 1;">1963</text><text text-anchor="end" transform="translate(264.7887323943662,7) rotate(270) translate(0,3)" style="font-family: sans-serif; font-size: 10px; fill: #000; opacity: 1;">1964</text><text text-anchor="end" transform="translate(276.056338028169,7) rotate(270) translate(0,3)" style="font-family: sans-serif; font-size: 10px; fill: #000; opacity: 1;">1965</text><text text-anchor="end" transform="translate(287.32394366197184,7) rotate(270) translate(0,3)" style="font-family: sans-serif; font-size: 10px; fill: #000; opacity: 1;">1966</text><text text-anchor="end" transform="translate(298.59154929577466,7) rotate(270) translate(0,3)" style="font-family: sans-serif; font-size: 10px; fill: #000; opacity: 1;">1967</text><text text-anchor="end" transform="translate(309.85915492957747,7) rotate(270) translate(0,3)" style="font-family: sans-serif; font-size: 10px; fill: #000; opacity: 1;">1968</text><text text-anchor="end" transform="translate(321.1267605633803,7) rotate(270) translate(0,3)" style="font-family: sans-serif; font-size: 10px; fill: #000; opacity: 1;">1969</text><text text-anchor="end" transform="translate(332.3943661971831,7) rotate(270) translate(0,3)" style="font-family: sans-serif; font-size: 10px; fill: #000; opacity: 1;">1970</text><text text-anchor="end" transform="translate(343.6619718309859,7) rotate(270) translate(0,3)" style="font-family: sans-serif; font-size: 10px; fill: #000; opacity: 1;">1971</text><text text-anchor="end" transform="translate(354.92957746478874,7) rotate(270) translate(0,3)" style="font-family: sans-serif; font-size: 10px; fill: #000; opacity: 1;">1972</text><text text-anchor="end" transform="translate(366.19718309859155,7) rotate(270) translate(0,3)" style="font-family: sans-serif; font-size: 10px; fill: #000; opacity: 1;">1973</text><text text-anchor="end" transform="translate(377.46478873239437,7) rotate(270) translate(0,3)" style="font-family: sans-serif; font-size: 10px; fill: #000; opacity: 1;">1974</text><text text-anchor="end" transform="translate(388.7323943661972,7) rotate(270) translate(0,3)" style="font-family: sans-serif; font-size: 10px; fill: #000; opacity: 1;">1975</text><text text-anchor="end" transform="translate(400,7) rotate(270) translate(0,3)" style="font-family: sans-serif; font-size: 10px; fill: #000; opacity: 1;">1978</text><text text-anchor="end" transform="translate(411.2676056338028,7) rotate(270) translate(0,3)" style="font-family: sans-serif; font-size: 10px; fill: #000; opacity: 1;">1979</text><text text-anchor="end" transform="translate(422.53521126760563,7) rotate(270) translate(0,3)" style="font-family: sans-serif; font-size: 10px; fill: #000; opacity: 1;">1980</text><text text-anchor="end" transform="translate(433.80281690140845,7) rotate(270) translate(0,3)" style="font-family: sans-serif; font-size: 10px; fill: #000; opacity: 1;">1983</text><text text-anchor="end" transform="translate(445.07042253521126,7) rotate(270) translate(0,3)" style="font-family: sans-serif; font-size: 10px; fill: #000; opacity: 1;">1984</text><text text-anchor="end" transform="translate(456.3380281690141,7) rotate(270) translate(0,3)" style="font-family: sans-serif; font-size: 10px; fill: #000; opacity: 1;">1985</text><text text-anchor="end" transform="translate(467.6056338028169,7) rotate(270) translate(0,3)" style="font-family: sans-serif; font-size: 10px; fill: #000; opacity: 1;">1986</text><text text-anchor="end" transform="translate(478.8732394366197,7) rotate(270) translate(0,3)" style="font-family: sans-serif; font-size: 10px; fill: #000; opacity: 1;">1987</text><text text-anchor="end" transform="translate(490.14084507042253,7) rotate(270) translate(0,3)" style="font-family: sans-serif; font-size: 10px; fill: #000; opacity: 1;">1988</text><text text-anchor="end" transform="translate(501.40845070422534,7) rotate(270) translate(0,3)" style="font-family: sans-serif; font-size: 10px; fill: #000; opacity: 1;">1989</text><text text-anchor="end" transform="translate(512.6760563380282,7) rotate(270) translate(0,3)" style="font-family: sans-serif; font-size: 10px; fill: #000; opacity: 1;">1990</text><text text-anchor="end" transform="translate(523.943661971831,7) rotate(270) translate(0,3)" style="font-family: sans-serif; font-size: 10px; fill: #000; opacity: 1;">1991</text><text text-anchor="end" transform="translate(535.2112676056338,7) rotate(270) translate(0,3)" style="font-family: sans-serif; font-size: 10px; fill: #000; opacity: 1;">1992</text><text text-anchor="end" transform="translate(546.4788732394366,7) rotate(270) translate(0,3)" style="font-family: sans-serif; font-size: 10px; fill: #000; opacity: 1;">1993</text><text text-anchor="end" transform="translate(557.7464788732393,7) rotate(270) translate(0,3)" style="font-family: sans-serif; font-size: 10px; fill: #000; opacity: 1;">1994</text><text text-anchor="end" transform="translate(569.0140845070423,7) rotate(270) translate(0,3)" style="font-family: sans-serif; font-size: 10px; fill: #000; opacity: 1;">1995</text><text text-anchor="end" transform="translate(580.2816901408451,7) rotate(270) translate(0,3)" style="font-family: sans-serif; font-size: 10px; fill: #000; opacity: 1;">1996</text><text text-anchor="end" transform="translate(591.5492957746478,7) rotate(270) translate(0,3)" style="font-family: sans-serif; font-size: 10px; fill: #000; opacity: 1;">1997</text><text text-anchor="end" transform="translate(602.8169014084506,7) rotate(270) translate(0,3)" style="font-family: sans-serif; font-size: 10px; fill: #000; opacity: 1;">1998</text><text text-anchor="end" transform="translate(614.0845070422536,7) rotate(270) translate(0,3)" style="font-family: sans-serif; font-size: 10px; fill: #000; opacity: 1;">1999</text><text text-anchor="end" transform="translate(625.3521126760563,7) rotate(270) translate(0,3)" style="font-family: sans-serif; font-size: 10px; fill: #000; opacity: 1;">2000</text><text text-anchor="end" transform="translate(636.6197183098591,7) rotate(270) translate(0,3)" style="font-family: sans-serif; font-size: 10px; fill: #000; opacity: 1;">2001</text><text text-anchor="end" transform="translate(647.8873239436618,7) rotate(270) translate(0,3)" style="font-family: sans-serif; font-size: 10px; fill: #000; opacity: 1;">2002</text><text text-anchor="end" transform="translate(659.1549295774648,7) rotate(270) translate(0,3)" style="font-family: sans-serif; font-size: 10px; fill: #000; opacity: 1;">2003</text><text text-anchor="end" transform="translate(670.4225352112676,7) rotate(270) translate(0,3)" style="font-family: sans-serif; font-size: 10px; fill: #000; opacity: 1;">2004</text><text text-anchor="end" transform="translate(681.6901408450703,7) rotate(270) translate(0,3)" style="font-family: sans-serif; font-size: 10px; fill: #000; opacity: 1;">2005</text><text text-anchor="end" transform="translate(692.9577464788731,7) rotate(270) translate(0,3)" style="font-family: sans-serif; font-size: 10px; fill: #000; opacity: 1;">2006</text><text text-anchor="end" transform="translate(704.2253521126761,7) rotate(270) translate(0,3)" style="font-family: sans-serif; font-size: 10px; fill: #000; opacity: 1;">2007</text><text text-anchor="end" transform="translate(715.4929577464789,7) rotate(270) translate(0,3)" style="font-family: sans-serif; font-size: 10px; fill: #000; opacity: 1;">2008</text><text text-anchor="end" transform="translate(726.7605633802816,7) rotate(270) translate(0,3)" style="font-family: sans-serif; font-size: 10px; fill: #000; opacity: 1;">2009</text><text text-anchor="end" transform="translate(738.0281690140844,7) rotate(270) translate(0,3)" style="font-family: sans-serif; font-size: 10px; fill: #000; opacity: 1;">2010</text><text text-anchor="end" transform="translate(749.2957746478874,7) rotate(270) translate(0,3)" style="font-family: sans-serif; font-size: 10px; fill: #000; opacity: 1;">2011</text><text text-anchor="end" transform="translate(760.5633802816901,7) rotate(270) translate(0,3)" style="font-family: sans-serif; font-size: 10px; fill: #000; opacity: 1;">2012</text><text text-anchor="end" transform="translate(771.8309859154929,7) rotate(270) translate(0,3)" style="font-family: sans-serif; font-size: 10px; fill: #000; opacity: 1;">2013</text><text text-anchor="end" transform="translate(783.0985915492956,7) rotate(270) translate(0,3)" style="font-family: sans-serif; font-size: 10px; fill: #000; opacity: 1;">2014</text><text text-anchor="end" transform="translate(794.3661971830986,7) rotate(270) translate(0,3)" style="font-family: sans-serif; font-size: 10px; fill: #000; opacity: 1;">2015</text></g><g class="mark-rule role-axis-domain" style="pointer-events: none;"><line transform="translate(0,0)" x2="800" y2="0" style="fill: none; stroke: #888; stroke-width: 1; opacity: 1;"></line></g><g class="mark-text role-axis-title" style="pointer-events: none;"><text text-anchor="middle" transform="translate(400,42.24609375)" style="font-family: sans-serif; font-size: 11px; font-weight: bold; fill: #000; opacity: 1;">Year</text></g></g><path class="foreground" d="" style="pointer-events: none; display: none; fill: none;"></path></g></g><g class="mark-group role-axis"><g transform="translate(0.5,0.5)"><path class="background" d="M0,0h0v0h0Z" style="pointer-events: none; fill: none;"></path><g><g class="mark-rule role-axis-tick" style="pointer-events: none;"><line transform="translate(0,13)" x2="-5" y2="0" style="fill: none; stroke: #888; stroke-width: 1; opacity: 1;"></line><line transform="translate(0,38)" x2="-5" y2="0" style="fill: none; stroke: #888; stroke-width: 1; opacity: 1;"></line><line transform="translate(0,63)" x2="-5" y2="0" style="fill: none; stroke: #888; stroke-width: 1; opacity: 1;"></line><line transform="translate(0,88)" x2="-5" y2="0" style="fill: none; stroke: #888; stroke-width: 1; opacity: 1;"></line><line transform="translate(0,113)" x2="-5" y2="0" style="fill: none; stroke: #888; stroke-width: 1; opacity: 1;"></line><line transform="translate(0,138)" x2="-5" y2="0" style="fill: none; stroke: #888; stroke-width: 1; opacity: 1;"></line><line transform="translate(0,163)" x2="-5" y2="0" style="fill: none; stroke: #888; stroke-width: 1; opacity: 1;"></line><line transform="translate(0,188)" x2="-5" y2="0" style="fill: none; stroke: #888; stroke-width: 1; opacity: 1;"></line><line transform="translate(0,213)" x2="-5" y2="0" style="fill: none; stroke: #888; stroke-width: 1; opacity: 1;"></line><line transform="translate(0,238)" x2="-5" y2="0" style="fill: none; stroke: #888; stroke-width: 1; opacity: 1;"></line><line transform="translate(0,263)" x2="-5" y2="0" style="fill: none; stroke: #888; stroke-width: 1; opacity: 1;"></line><line transform="translate(0,288)" x2="-5" y2="0" style="fill: none; stroke: #888; stroke-width: 1; opacity: 1;"></line><line transform="translate(0,313)" x2="-5" y2="0" style="fill: none; stroke: #888; stroke-width: 1; opacity: 1;"></line><line transform="translate(0,338)" x2="-5" y2="0" style="fill: none; stroke: #888; stroke-width: 1; opacity: 1;"></line><line transform="translate(0,363)" x2="-5" y2="0" style="fill: none; stroke: #888; stroke-width: 1; opacity: 1;"></line><line transform="translate(0,388)" x2="-5" y2="0" style="fill: none; stroke: #888; stroke-width: 1; opacity: 1;"></line></g><g class="mark-text role-axis-label" style="pointer-events: none;"><text text-anchor="end" transform="translate(-7,15.5)" style="font-family: sans-serif; font-size: 10px; fill: #000; opacity: 1;">Amphipoda</text><text text-anchor="end" transform="translate(-7,40.5)" style="font-family: sans-serif; font-size: 10px; fill: #000; opacity: 1;">Siphonostomatoida</text><text text-anchor="end" transform="translate(-7,65.5)" style="font-family: sans-serif; font-size: 10px; fill: #000; opacity: 1;">Decapoda</text><text text-anchor="end" transform="translate(-7,90.5)" style="font-family: sans-serif; font-size: 10px; fill: #000; opacity: 1;">Cumacea</text><text text-anchor="end" transform="translate(-7,115.5)" style="font-family: sans-serif; font-size: 10px; fill: #000; opacity: 1;">Isopoda</text><text text-anchor="end" transform="translate(-7,140.5)" style="font-family: sans-serif; font-size: 10px; fill: #000; opacity: 1;">Podocopida</text><text text-anchor="end" transform="translate(-7,165.5)" style="font-family: sans-serif; font-size: 10px; fill: #000; opacity: 1;">Tanaidacea</text><text text-anchor="end" transform="translate(-7,190.5)" style="font-family: sans-serif; font-size: 10px; fill: #000; opacity: 1;">Thoracica</text><text text-anchor="end" transform="translate(-7,215.5)" style="font-family: sans-serif; font-size: 10px; fill: #000; opacity: 1;">Anostraca</text><text text-anchor="end" transform="translate(-7,240.5)" style="font-family: sans-serif; font-size: 10px; fill: #000; opacity: 1;">Cyclopoida</text><text text-anchor="end" transform="translate(-7,265.5)" style="font-family: sans-serif; font-size: 10px; fill: #000; opacity: 1;">Poecilostomatoida</text><text text-anchor="end" transform="translate(-7,290.5)" style="font-family: sans-serif; font-size: 10px; fill: #000; opacity: 1;">Anomopoda</text><text text-anchor="end" transform="translate(-7,315.5)" style="font-family: sans-serif; font-size: 10px; fill: #000; opacity: 1;">Arguloida</text><text text-anchor="end" transform="translate(-7,340.5)" style="font-family: sans-serif; font-size: 10px; fill: #000; opacity: 1;">Brachypoda</text><text text-anchor="end" transform="translate(-7,365.5)" style="font-family: sans-serif; font-size: 10px; fill: #000; opacity: 1;">Monstrilloida</text><text text-anchor="end" transform="translate(-7,390.5)" style="font-family: sans-serif; font-size: 10px; fill: #000; opacity: 1;">Stomatopoda</text></g><g class="mark-rule role-axis-domain" style="pointer-events: none;"><line transform="translate(0,0)" x2="0" y2="400" style="fill: none; stroke: #888; stroke-width: 1; opacity: 1;"></line></g><g class="mark-text role-axis-title" style="pointer-events: none;"><text text-anchor="middle" transform="translate(-96.615234375,200) rotate(-90) translate(0,-2)" style="font-family: sans-serif; font-size: 11px; font-weight: bold; fill: #000; opacity: 1;">Order</text></g></g><path class="foreground" d="" style="pointer-events: none; display: none; fill: none;"></path></g></g></g><path class="foreground" d="" style="display: none; fill: none;"></path></g></g></g></svg>