<svg class="marks" width="851" height="572" viewBox="0 0 851 572" version="1.1" xmlns="http://www.w3.org/2000/svg" xmlns:xlink="http://www.w3.org/1999/xlink"><g transform="translate(113,22)"><g class="mark-group role-frame root"><g transform="translate(0,0)"><path class="background" d="M0.5,0.5h680v500h-680Z" style="fill: none; stroke: #ddd;"></path><g><g class="mark-symbol role-mark marks"><path transform="translate(187.89473684210523,16.666666666666657)" d="M2.179449471770337,0A2.179449471770337,2.179449471770337,0,1,1,-2.179449471770337,0A2.179449471770337,2.179449471770337,0,1,1,2.179449471770337,0" style="fill: red; stroke-width: 2; opacity: 0.7;"></path><path transform="translate(223.68421052631578,16.666666666666657)" d="M2.179449471770337,0A2.179449471770337,2.179449471770337,0,1,1,-2.179449471770337,0A2.179449471770337,2.179449471770337,0,1,1,2.179449471770337,0" style="fill: red; stroke-width: 2; opacity: 0.7;"></path><path transform="translate(241.57894736842104,16.666666666666657)" d="M3.082207001484488,0A3.082207001484488,3.082207001484488,0,1,1,-3.082207001484488,0A3.082207001484488,3.082207001484488,0,1,1,3.082207001484488,0" style="fill: red; stroke-width: 2; opacity: 0.7;"></path><path transform="translate(331.05263157894734,16.666666666666657)" d="M2.179449471770337,0A2.179449471770337,2.179449471770337,0,1,1,-2.179449471770337,0A2.179449471770337,2.179449471770337,0,1,1,2.179449471770337,0" style="fill: red; stroke-width: 2; opacity: 0.7;"></path><path transform="translate(348.9473684210526,16.666666666666657)" d="M2.179449471770337,0A2.179449471770337,2.179449471770337,0,1,1,-2.179449471770337,0A2.179449471770337,2.179449471770337,0,1,1,2.179449471770337,0" style="fill: red; stroke-width: 2; opacity: 0.7;"></path><path transform="translate(366.84210526315786,16.666666666666657)" d="M5.338539126015656,0A5.338539126015656,5.338539126015656,0,1,1,-5.338539126015656,0A5.338539126015656,5.338539126015656,0,1,1,5.338539126015656,0" style="fill: red; stroke-width: 2; opacity: 0.7;"></path><path transform="translate(384.7368421052631,16.666666666666657)" d="M2.179449471770337,0A2.179449471770337,2.179449471770337,0,1,1,-2.179449471770337,0A2.179449471770337,2.179449471770337,0,1,1,2.179449471770337,0" style="fill: red; stroke-width: 2; opacity: 0.7;"></path><path transform="translate(402.6315789473684,16.666666666666657)" d="M2.179449471770337,0A2.179449471770337,2.179449471770337,0,1,1,-2.179449471770337,0A2.179449471770337,2.179449471770337,0,1,1,2.179449471770337,0" style="fill: red; stroke-width: 2; opacity: 0.7;"></path><path transform="translate(420.52631578947364,16.666666666666657)" d="M4.873397172404482,0A4.873397172404482,4.873397172404482,0,1,1,-4.873397172404482,0A4.873397172404482,4.873397172404482,0,1,1,4.873397172404482,0" style="fill: red; stroke-width: 2; opacity: 0.7;"></path><path transform="translate(438.42105263157896,16.666666666666657)" d="M5.766281297335398,0A5.766281297335398,5.766281297335398,0,1,1,-5.766281297335398,0A5.766281297335398,5.766281297335398,0,1,1,5.766281297335398,0" style="fill: red; stroke-width: 2; opacity: 0.7;"></path><path transform="translate(456.3157894736842,16.666666666666657)" d="M3.082207001484488,0A3.082207001484488,3.082207001484488,0,1,1,-3.082207001484488,0A3.082207001484488,3.082207001484488,0,1,1,3.082207001484488,0" style="fill: red; stroke-width: 2; opacity: 0.7;"></path><path transform="translate(474.2105263157895,16.666666666666657)" d="M6.164414002968976,0A6.164414002968976,6.164414002968976,0,1,1,-6.164414002968976,0A6.164414002968976,6.164414002968976,0,1,1,6.164414002968976,0" style="fill: red; stroke-width: 2; opacity: 0.7;"></path><path transform="translate(492.10526315789474,16.666666666666657)" d="M3.082207001484488,0A3.082207001484488,3.082207001484488,0,1,1,-3.082207001484488,0A3.082207001484488,3.082207001484488,0,1,1,3.082207001484488,0" style="fill: red; stroke-width: 2; opacity: 0.7;"></path><path transform="translate(510,16.666666666666657)" d="M3.082207001484488,0A3.082207001484488,3.082207001484488,0,1,1,-3.082207001484488,0A3.082207001484488,3.082207001484488,0,1,1,3.082207001484488,0" style="fill: red; stroke-width: 2; opacity: 0.7;"></path><path transform="translate(545.7894736842105,16.666666666666657)" d="M9.5,0A9.5,9.5,0,1,1,-9.5,0A9.5,9.5,0,1,1,9.5,0" style="fill: red; stroke-width: 2; opacity: 0.7;"></path><path transform="translate(563.6842105263157,16.666666666666657)" d="M6.5383484153110105,0A6.5383484153110105,6.5383484153110105,0,1,1,-6.5383484153110105,0A6.5383484153110105,6.5383484153110105,0,1,1,6.5383484153110105,0" style="fill: red; stroke-width: 2; opacity: 0.7;"></path><path transform="translate(581.578947368421,16.666666666666657)" d="M5.338539126015656,0A5.338539126015656,5.338539126015656,0,1,1,-5.338539126015656,0A5.338539126015656,5.338539126015656,0,1,1,5.338539126015656,0" style="fill: red; stroke-width: 2; opacity: 0.7;"></path><path transform="translate(599.4736842105264,16.666666666666657)" d="M3.774917217635375,0A3.774917217635375,3.774917217635375,0,1,1,-3.774917217635375,0A3.774917217635375,3.774917217635375,0,1,1,3.774917217635375,0" style="fill: red; stroke-width: 2; opacity: 0.7;"></path><path transform="translate(635.2631578947369,16.666666666666657)" d="M3.774917217635375,0A3.774917217635375,3.774917217635375,0,1,1,-3.774917217635375,0A3.774917217635375,3.774917217635375,0,1,1,3.774917217635375,0" style="fill: red; stroke-width: 2; opacity: 0.7;"></path><path transform="translate(653.1578947368421,16.666666666666657)" d="M3.082207001484488,0A3.082207001484488,3.082207001484488,0,1,1,-3.082207001484488,0A3.082207001484488,3.082207001484488,0,1,1,3.082207001484488,0" style="fill: red; stroke-width: 2; opacity: 0.7;"></path><path transform="translate(510,383.33333333333337)" d="M2.179449471770337,0A2.179449471770337,2.179449471770337,0,1,1,-2.179449471770337,0A2.179449471770337,2.179449471770337,0,1,1,2.179449471770337,0" style="fill: red; stroke-width: 2; opacity: 0.7;"></path><path transform="translate(545.7894736842105,383.33333333333337)" d="M2.179449471770337,0A2.179449471770337,2.179449471770337,0,1,1,-2.179449471770337,0A2.179449471770337,2.179449471770337,0,1,1,2.179449471770337,0" style="fill: red; stroke-width: 2; opacity: 0.7;"></path><path transform="translate(295.2631578947368,150)" d="M3.082207001484488,0A3.082207001484488,3.082207001484488,0,1,1,-3.082207001484488,0A3.082207001484488,3.082207001484488,0,1,1,3.082207001484488,0" style="fill: red; stroke-width: 2; opacity: 0.7;"></path><path transform="translate(671.0526315789474,150)" d="M3.082207001484488,0A3.082207001484488,3.082207001484488,0,1,1,-3.082207001484488,0A3.082207001484488,3.082207001484488,0,1,1,3.082207001484488,0" style="fill: red; stroke-width: 2; opacity: 0.7;"></path><path transform="translate(205.7894736842105,416.66666666666663)" d="M2.179449471770337,0A2.179449471770337,2.179449471770337,0,1,1,-2.179449471770337,0A2.179449471770337,2.179449471770337,0,1,1,2.179449471770337,0" style="fill: red; stroke-width: 2; opacity: 0.7;"></path><path transform="translate(331.05263157894734,416.66666666666663)" d="M2.179449471770337,0A2.179449471770337,2.179449471770337,0,1,1,-2.179449471770337,0A2.179449471770337,2.179449471770337,0,1,1,2.179449471770337,0" style="fill: red; stroke-width: 2; opacity: 0.7;"></path><path transform="translate(62.631578947368396,450)" d="M2.179449471770337,0A2.179449471770337,2.179449471770337,0,1,1,-2.179449471770337,0A2.179449471770337,2.179449471770337,0,1,1,2.179449471770337,0" style="fill: red; stroke-width: 2; opacity: 0.7;"></path><path transform="translate(134.21052631578945,450)" d="M2.179449471770337,0A2.179449471770337,2.179449471770337,0,1,1,-2.179449471770337,0A2.179449471770337,2.179449471770337,0,1,1,2.179449471770337,0" style="fill: red; stroke-width: 2; opacity: 0.7;"></path><path transform="translate(581.578947368421,450)" d="M2.179449471770337,0A2.179449471770337,2.179449471770337,0,1,1,-2.179449471770337,0A2.179449471770337,2.179449471770337,0,1,1,2.179449471770337,0" style="fill: red; stroke-width: 2; opacity: 0.7;"></path><path transform="translate(545.7894736842105,316.66666666666663)" d="M2.179449471770337,0A2.179449471770337,2.179449471770337,0,1,1,-2.179449471770337,0A2.179449471770337,2.179449471770337,0,1,1,2.179449471770337,0" style="fill: red; stroke-width: 2; opacity: 0.7;"></path><path transform="translate(653.1578947368421,316.66666666666663)" d="M3.082207001484488,0A3.082207001484488,3.082207001484488,0,1,1,-3.082207001484488,0A3.082207001484488,3.082207001484488,0,1,1,3.082207001484488,0" style="fill: red; stroke-width: 2; opacity: 0.7;"></path><path transform="translate(62.631578947368396,283.33333333333337)" d="M3.082207001484488,0A3.082207001484488,3.082207001484488,0,1,1,-3.082207001484488,0A3.082207001484488,3.082207001484488,0,1,1,3.082207001484488,0" style="fill: red; stroke-width: 2; opacity: 0.7;"></path><path transform="translate(98.42105263157892,283.33333333333337)" d="M2.179449471770337,0A2.179449471770337,2.179449471770337,0,1,1,-2.179449471770337,0A2.179449471770337,2.179449471770337,0,1,1,2.179449471770337,0" style="fill: red; stroke-width: 2; opacity: 0.7;"></path><path transform="translate(116.31578947368419,283.33333333333337)" d="M2.179449471770337,0A2.179449471770337,2.179449471770337,0,1,1,-2.179449471770337,0A2.179449471770337,2.179449471770337,0,1,1,2.179449471770337,0" style="fill: red; stroke-width: 2; opacity: 0.7;"></path><path transform="translate(205.7894736842105,283.33333333333337)" d="M3.082207001484488,0A3.082207001484488,3.082207001484488,0,1,1,-3.082207001484488,0A3.082207001484488,3.082207001484488,0,1,1,3.082207001484488,0" style="fill: red; stroke-width: 2; opacity: 0.7;"></path><path transform="translate(223.68421052631578,283.33333333333337)" d="M2.179449471770337,0A2.179449471770337,2.179449471770337,0,1,1,-2.179449471770337,0A2.179449471770337,2.179449471770337,0,1,1,2.179449471770337,0" style="fill: red; stroke-width: 2; opacity: 0.7;"></path><path transform="translate(259.4736842105263,283.33333333333337)" d="M2.179449471770337,0A2.179449471770337,2.179449471770337,0,1,1,-2.179449471770337,0A2.179449471770337,2.179449471770337,0,1,1,2.179449471770337,0" style="fill: red; stroke-width: 2; opacity: 0.7;"></path><path transform="translate(366.84210526315786,283.33333333333337)" d="M2.179449471770337,0A2.179449471770337,2.179449471770337,0,1,1,-2.179449471770337,0A2.179449471770337,2.179449471770337,0,1,1,2.179449471770337,0" style="fill: red; stroke-width: 2; opacity: 0.7;"></path><path transform="translate(438.42105263157896,283.33333333333337)" d="M2.179449471770337,0A2.179449471770337,2.179449471770337,0,1,1,-2.179449471770337,0A2.179449471770337,2.179449471770337,0,1,1,2.179449471770337,0" style="fill: red; stroke-width: 2; opacity: 0.7;"></path><path transform="translate(474.2105263157895,283.33333333333337)" d="M3.082207001484488,0A3.082207001484488,3.082207001484488,0,1,1,-3.082207001484488,0A3.082207001484488,3.082207001484488,0,1,1,3.082207001484488,0" style="fill: red; stroke-width: 2; opacity: 0.7;"></path><path transform="translate(510,283.33333333333337)" d="M4.358898943540674,0A4.358898943540674,4.358898943540674,0,1,1,-4.358898943540674,0A4.358898943540674,4.358898943540674,0,1,1,4.358898943540674,0" style="fill: red; stroke-width: 2; opacity: 0.7;"></path><path transform="translate(545.7894736842105,283.33333333333337)" d="M2.179449471770337,0A2.179449471770337,2.179449471770337,0,1,1,-2.179449471770337,0A2.179449471770337,2.179449471770337,0,1,1,2.179449471770337,0" style="fill: red; stroke-width: 2; opacity: 0.7;"></path><path transform="translate(563.6842105263157,283.33333333333337)" d="M3.082207001484488,0A3.082207001484488,3.082207001484488,0,1,1,-3.082207001484488,0A3.082207001484488,3.082207001484488,0,1,1,3.082207001484488,0" style="fill: red; stroke-width: 2; opacity: 0.7;"></path><path transform="translate(581.578947368421,283.33333333333337)" d="M3.774917217635375,0A3.774917217635375,3.774917217635375,0,1,1,-3.774917217635375,0A3.774917217635375,3.774917217635375,0,1,1,3.774917217635375,0" style="fill: red; stroke-width: 2; opacity: 0.7;"></path><path transform="translate(617.3684210526316,283.33333333333337)" d="M2.179449471770337,0A2.179449471770337,2.179449471770337,0,1,1,-2.179449471770337,0A2.179449471770337,2.179449471770337,0,1,1,2.179449471770337,0" style="fill: red; stroke-width: 2; opacity: 0.7;"></path><path transform="translate(8.947368421052602,83.33333333333333)" d="M2.179449471770337,0A2.179449471770337,2.179449471770337,0,1,1,-2.179449471770337,0A2.179449471770337,2.179449471770337,0,1,1,2.179449471770337,0" style="fill: red; stroke-width: 2; opacity: 0.7;"></path><path transform="translate(26.842105263157865,83.33333333333333)" d="M8.154753215150045,0A8.154753215150045,8.154753215150045,0,1,1,-8.154753215150045,0A8.154753215150045,8.154753215150045,0,1,1,8.154753215150045,0" style="fill: red; stroke-width: 2; opacity: 0.7;"></path><path transform="translate(44.73684210526313,83.33333333333333)" d="M4.873397172404482,0A4.873397172404482,4.873397172404482,0,1,1,-4.873397172404482,0A4.873397172404482,4.873397172404482,0,1,1,4.873397172404482,0" style="fill: red; stroke-width: 2; opacity: 0.7;"></path><path transform="translate(80.52631578947366,83.33333333333333)" d="M5.766281297335398,0A5.766281297335398,5.766281297335398,0,1,1,-5.766281297335398,0A5.766281297335398,5.766281297335398,0,1,1,5.766281297335398,0" style="fill: red; stroke-width: 2; opacity: 0.7;"></path><path transform="translate(116.31578947368419,83.33333333333333)" d="M3.082207001484488,0A3.082207001484488,3.082207001484488,0,1,1,-3.082207001484488,0A3.082207001484488,3.082207001484488,0,1,1,3.082207001484488,0" style="fill: red; stroke-width: 2; opacity: 0.7;"></path><path transform="translate(134.21052631578945,83.33333333333333)" d="M4.873397172404482,0A4.873397172404482,4.873397172404482,0,1,1,-4.873397172404482,0A4.873397172404482,4.873397172404482,0,1,1,4.873397172404482,0" style="fill: red; stroke-width: 2; opacity: 0.7;"></path><path transform="translate(152.1052631578947,83.33333333333333)" d="M4.358898943540674,0A4.358898943540674,4.358898943540674,0,1,1,-4.358898943540674,0A4.358898943540674,4.358898943540674,0,1,1,4.358898943540674,0" style="fill: red; stroke-width: 2; opacity: 0.7;"></path><path transform="translate(205.7894736842105,83.33333333333333)" d="M2.179449471770337,0A2.179449471770337,2.179449471770337,0,1,1,-2.179449471770337,0A2.179449471770337,2.179449471770337,0,1,1,2.179449471770337,0" style="fill: red; stroke-width: 2; opacity: 0.7;"></path><path transform="translate(277.36842105263156,83.33333333333333)" d="M6.5383484153110105,0A6.5383484153110105,6.5383484153110105,0,1,1,-6.5383484153110105,0A6.5383484153110105,6.5383484153110105,0,1,1,6.5383484153110105,0" style="fill: red; stroke-width: 2; opacity: 0.7;"></path><path transform="translate(331.05263157894734,83.33333333333333)" d="M6.164414002968976,0A6.164414002968976,6.164414002968976,0,1,1,-6.164414002968976,0A6.164414002968976,6.164414002968976,0,1,1,6.164414002968976,0" style="fill: red; stroke-width: 2; opacity: 0.7;"></path><path transform="translate(384.7368421052631,83.33333333333333)" d="M2.179449471770337,0A2.179449471770337,2.179449471770337,0,1,1,-2.179449471770337,0A2.179449471770337,2.179449471770337,0,1,1,2.179449471770337,0" style="fill: red; stroke-width: 2; opacity: 0.7;"></path><path transform="translate(438.42105263157896,83.33333333333333)" d="M2.179449471770337,0A2.179449471770337,2.179449471770337,0,1,1,-2.179449471770337,0A2.179449471770337,2.179449471770337,0,1,1,2.179449471770337,0" style="fill: red; stroke-width: 2; opacity: 0.7;"></path><path transform="translate(456.3157894736842,83.33333333333333)" d="M2.179449471770337,0A2.179449471770337,2.179449471770337,0,1,1,-2.179449471770337,0A2.179449471770337,2.179449471770337,0,1,1,2.179449471770337,0" style="fill: red; stroke-width: 2; opacity: 0.7;"></path><path transform="translate(474.2105263157895,83.33333333333333)" d="M2.179449471770337,0A2.179449471770337,2.179449471770337,0,1,1,-2.179449471770337,0A2.179449471770337,2.179449471770337,0,1,1,2.179449471770337,0" style="fill: red; stroke-width: 2; opacity: 0.7;"></path><path transform="translate(492.10526315789474,83.33333333333333)" d="M2.179449471770337,0A2.179449471770337,2.179449471770337,0,1,1,-2.179449471770337,0A2.179449471770337,2.179449471770337,0,1,1,2.179449471770337,0" style="fill: red; stroke-width: 2; opacity: 0.7;"></path><path transform="translate(510,83.33333333333333)" d="M2.179449471770337,0A2.179449471770337,2.179449471770337,0,1,1,-2.179449471770337,0A2.179449471770337,2.179449471770337,0,1,1,2.179449471770337,0" style="fill: red; stroke-width: 2; opacity: 0.7;"></path><path transform="translate(545.7894736842105,83.33333333333333)" d="M3.082207001484488,0A3.082207001484488,3.082207001484488,0,1,1,-3.082207001484488,0A3.082207001484488,3.082207001484488,0,1,1,3.082207001484488,0" style="fill: red; stroke-width: 2; opacity: 0.7;"></path><path transform="translate(653.1578947368421,83.33333333333333)" d="M3.774917217635375,0A3.774917217635375,3.774917217635375,0,1,1,-3.774917217635375,0A3.774917217635375,3.774917217635375,0,1,1,3.774917217635375,0" style="fill: red; stroke-width: 2; opacity: 0.7;"></path><path transform="translate(420.52631578947364,49.99999999999999)" d="M4.358898943540674,0A4.358898943540674,4.358898943540674,0,1,1,-4.358898943540674,0A4.358898943540674,4.358898943540674,0,1,1,4.358898943540674,0" style="fill: red; stroke-width: 2; opacity: 0.7;"></path><path transform="translate(420.52631578947364,183.33333333333334)" d="M2.179449471770337,0A2.179449471770337,2.179449471770337,0,1,1,-2.179449471770337,0A2.179449471770337,2.179449471770337,0,1,1,2.179449471770337,0" style="fill: red; stroke-width: 2; opacity: 0.7;"></path><path transform="translate(438.42105263157896,183.33333333333334)" d="M3.082207001484488,0A3.082207001484488,3.082207001484488,0,1,1,-3.082207001484488,0A3.082207001484488,3.082207001484488,0,1,1,3.082207001484488,0" style="fill: red; stroke-width: 2; opacity: 0.7;"></path><path transform="translate(456.3157894736842,183.33333333333334)" d="M3.774917217635375,0A3.774917217635375,3.774917217635375,0,1,1,-3.774917217635375,0A3.774917217635375,3.774917217635375,0,1,1,3.774917217635375,0" style="fill: red; stroke-width: 2; opacity: 0.7;"></path><path transform="translate(223.68421052631578,350)" d="M3.082207001484488,0A3.082207001484488,3.082207001484488,0,1,1,-3.082207001484488,0A3.082207001484488,3.082207001484488,0,1,1,3.082207001484488,0" style="fill: red; stroke-width: 2; opacity: 0.7;"></path><path transform="translate(617.3684210526316,350)" d="M2.179449471770337,0A2.179449471770337,2.179449471770337,0,1,1,-2.179449471770337,0A2.179449471770337,2.179449471770337,0,1,1,2.179449471770337,0" style="fill: red; stroke-width: 2; opacity: 0.7;"></path><path transform="translate(653.1578947368421,350)" d="M2.179449471770337,0A2.179449471770337,2.179449471770337,0,1,1,-2.179449471770337,0A2.179449471770337,2.179449471770337,0,1,1,2.179449471770337,0" style="fill: red; stroke-width: 2; opacity: 0.7;"></path><path transform="translate(313.1578947368421,116.66666666666666)" d="M2.179449471770337,0A2.179449471770337,2.179449471770337,0,1,1,-2.179449471770337,0A2.179449471770337,2.179449471770337,0,1,1,2.179449471770337,0" style="fill: red; stroke-width: 2; opacity: 0.7;"></path><path transform="translate(331.05263157894734,116.66666666666666)" d="M3.082207001484488,0A3.082207001484488,3.082207001484488,0,1,1,-3.082207001484488,0A3.082207001484488,3.082207001484488,0,1,1,3.082207001484488,0" style="fill: red; stroke-width: 2; opacity: 0.7;"></path><path transform="translate(348.9473684210526,116.66666666666666)" d="M4.358898943540674,0A4.358898943540674,4.358898943540674,0,1,1,-4.358898943540674,0A4.358898943540674,4.358898943540674,0,1,1,4.358898943540674,0" style="fill: red; stroke-width: 2; opacity: 0.7;"></path><path transform="translate(366.84210526315786,116.66666666666666)" d="M4.873397172404482,0A4.873397172404482,4.873397172404482,0,1,1,-4.873397172404482,0A4.873397172404482,4.873397172404482,0,1,1,4.873397172404482,0" style="fill: red; stroke-width: 2; opacity: 0.7;"></path><path transform="translate(384.7368421052631,116.66666666666666)" d="M5.338539126015656,0A5.338539126015656,5.338539126015656,0,1,1,-5.338539126015656,0A5.338539126015656,5.338539126015656,0,1,1,5.338539126015656,0" style="fill: red; stroke-width: 2; opacity: 0.7;"></path><path transform="translate(402.6315789473684,116.66666666666666)" d="M2.179449471770337,0A2.179449471770337,2.179449471770337,0,1,1,-2.179449471770337,0A2.179449471770337,2.179449471770337,0,1,1,2.179449471770337,0" style="fill: red; stroke-width: 2; opacity: 0.7;"></path><path transform="translate(635.2631578947369,116.66666666666666)" d="M3.082207001484488,0A3.082207001484488,3.082207001484488,0,1,1,-3.082207001484488,0A3.082207001484488,3.082207001484488,0,1,1,3.082207001484488,0" style="fill: red; stroke-width: 2; opacity: 0.7;"></path><path transform="translate(653.1578947368421,116.66666666666666)" d="M4.873397172404482,0A4.873397172404482,4.873397172404482,0,1,1,-4.873397172404482,0A4.873397172404482,4.873397172404482,0,1,1,4.873397172404482,0" style="fill: red; stroke-width: 2; opacity: 0.7;"></path><path transform="translate(205.7894736842105,483.33333333333337)" d="M2.179449471770337,0A2.179449471770337,2.179449471770337,0,1,1,-2.179449471770337,0A2.179449471770337,2.179449471770337,0,1,1,2.179449471770337,0" style="fill: red; stroke-width: 2; opacity: 0.7;"></path><path transform="translate(134.21052631578945,216.66666666666666)" d="M2.179449471770337,0A2.179449471770337,2.179449471770337,0,1,1,-2.179449471770337,0A2.179449471770337,2.179449471770337,0,1,1,2.179449471770337,0" style="fill: red; stroke-width: 2; opacity: 0.7;"></path><path transform="translate(169.99999999999997,216.66666666666666)" d="M3.774917217635375,0A3.774917217635375,3.774917217635375,0,1,1,-3.774917217635375,0A3.774917217635375,3.774917217635375,0,1,1,3.774917217635375,0" style="fill: red; stroke-width: 2; opacity: 0.7;"></path><path transform="translate(205.7894736842105,216.66666666666666)" d="M2.179449471770337,0A2.179449471770337,2.179449471770337,0,1,1,-2.179449471770337,0A2.179449471770337,2.179449471770337,0,1,1,2.179449471770337,0" style="fill: red; stroke-width: 2; opacity: 0.7;"></path><path transform="translate(527.8947368421052,216.66666666666666)" d="M2.179449471770337,0A2.179449471770337,2.179449471770337,0,1,1,-2.179449471770337,0A2.179449471770337,2.179449471770337,0,1,1,2.179449471770337,0" style="fill: red; stroke-width: 2; opacity: 0.7;"></path><path transform="translate(581.578947368421,216.66666666666666)" d="M2.179449471770337,0A2.179449471770337,2.179449471770337,0,1,1,-2.179449471770337,0A2.179449471770337,2.179449471770337,0,1,1,2.179449471770337,0" style="fill: red; stroke-width: 2; opacity: 0.7;"></path><path transform="translate(635.2631578947369,216.66666666666666)" d="M4.358898943540674,0A4.358898943540674,4.358898943540674,0,1,1,-4.358898943540674,0A4.358898943540674,4.358898943540674,0,1,1,4.358898943540674,0" style="fill: red; stroke-width: 2; opacity: 0.7;"></path><path transform="translate(653.1578947368421,216.66666666666666)" d="M3.082207001484488,0A3.082207001484488,3.082207001484488,0,1,1,-3.082207001484488,0A3.082207001484488,3.082207001484488,0,1,1,3.082207001484488,0" style="fill: red; stroke-width: 2; opacity: 0.7;"></path><path transform="translate(366.84210526315786,250)" d="M2.179449471770337,0A2.179449471770337,2.179449471770337,0,1,1,-2.179449471770337,0A2.179449471770337,2.179449471770337,0,1,1,2.179449471770337,0" style="fill: red; stroke-width: 2; opacity: 0.7;"></path><path transform="translate(456.3157894736842,250)" d="M3.082207001484488,0A3.082207001484488,3.082207001484488,0,1,1,-3.082207001484488,0A3.082207001484488,3.082207001484488,0,1,1,3.082207001484488,0" style="fill: red; stroke-width: 2; opacity: 0.7;"></path><path transform="translate(510,250)" d="M3.082207001484488,0A3.082207001484488,3.082207001484488,0,1,1,-3.082207001484488,0A3.082207001484488,3.082207001484488,0,1,1,3.082207001484488,0" style="fill: red; stroke-width: 2; opacity: 0.7;"></path></g><g class="mark-group role-legend"><g transform="translate(698,0)"><path class="background" d="M0,0h35v72h-35Z" style="pointer-events: none; fill: none;"></path><g><g class="mark-group role-legend-entry"><g transform="translate(0,16)"><path class="background" d="M0,0h0v0h0Z" style="pointer-events: none; fill: none;"></path><g><g class="mark-group role-scope"><g transform="translate(0,0)"><path class="background" d="M0,0h34.123046875v12.37339717240448h-34.123046875Z" style="pointer-events: none; fill: none; opacity: 1;"></path><g><g class="mark-symbol role-legend-symbol" style="pointer-events: none;"><path transform="translate(9.5,6)" d="M4.873397172404482,0A4.873397172404482,4.873397172404482,0,1,1,-4.873397172404482,0A4.873397172404482,4.873397172404482,0,1,1,4.873397172404482,0" style="fill: red; stroke: none; stroke-width: 1.5; opacity: 0.7;"></path></g><g class="mark-text role-legend-label" style="pointer-events: none;"><text text-anchor="start" transform="translate(23,9)" style="font-family: sans-serif; font-size: 10px; fill: #000; opacity: 1;">5</text></g></g><path class="foreground" d="" style="pointer-events: none; display: none; fill: none;"></path></g><g transform="translate(0,16)"><path class="background" d="M0,0h34.123046875v16.392024376045114h-34.123046875Z" style="pointer-events: none; fill: none; opacity: 1;"></path><g><g class="mark-symbol role-legend-symbol" style="pointer-events: none;"><path transform="translate(9.5,8)" d="M6.892024376045111,0A6.892024376045111,6.892024376045111,0,1,1,-6.892024376045111,0A6.892024376045111,6.892024376045111,0,1,1,6.892024376045111,0" style="fill: red; stroke: none; stroke-width: 1.5; opacity: 0.7;"></path></g><g class="mark-text role-legend-label" style="pointer-events: none;"><text text-anchor="start" transform="translate(23,11)" style="font-family: sans-serif; font-size: 10px; fill: #000; opacity: 1;">10</text></g></g><path class="foreground" d="" style="pointer-events: none; display: none; fill: none;"></path></g><g transform="translate(0,36)"><path class="background" d="M0,0h34.123046875v19.440971508067065h-34.123046875Z" style="pointer-events: none; fill: none; opacity: 1;"></path><g><g class="mark-symbol role-legend-symbol" style="pointer-events: none;"><path transform="translate(9.5,9.5)" d="M8.440971508067067,0A8.440971508067067,8.440971508067067,0,1,1,-8.440971508067067,0A8.440971508067067,8.440971508067067,0,1,1,8.440971508067067,0" style="fill: red; stroke: none; stroke-width: 1.5; opacity: 0.7;"></path></g><g class="mark-text role-legend-label" style="pointer-events: none;"><text text-anchor="start" transform="translate(23,12.5)" style="font-family: sans-serif; font-size: 10px; fill: #000; opacity: 1;">15</text></g></g><path class="foreground" d="" style="pointer-events: none; display: none; fill: none;"></path></g></g></g><path class="foreground" d="" style="pointer-events: none; display: none; fill: none;"></path></g></g><g class="mark-text role-legend-title" style="pointer-events: none;"><text text-anchor="start" transform="translate(0,9)" style="font-family: sans-serif; font-size: 11px; font-weight: bold; fill: #000; opacity: 1;">count</text></g></g><path class="foreground" d="" style="pointer-events: none; display: none; fill: none;"></path></g></g><g class="mark-group role-title"><g transform="translate(340,-17)"><path class="background" d="M0,0h0v0h0Z" style="pointer-events: none; fill: none;"></path><g><g class="mark-text role-title-text" style="pointer-events: none;"><text text-anchor="middle" transform="translate(0,10)" style="font-family: sans-serif; font-size: 13px; font-weight: bold; fill: #000; opacity: 1;">Number of holotypes of each order per year</text></g></g><path class="foreground" d="" style="pointer-events: none; display: none; fill: none;"></path></g></g><g class="mark-group role-axis"><g transform="translate(0.5,500.5)"><path class="background" d="M0,0h0v0h0Z" style="pointer-events: none; fill: none;"></path><g><g class="mark-rule role-axis-tick" style="pointer-events: none;"><line transform="translate(9,0)" x2="0" y2="5" style="fill: none; stroke: #888; stroke-width: 1; opacity: 1;"></line><line transform="translate(27,0)" x2="0" y2="5" style="fill: none; stroke: #888; stroke-width: 1; opacity: 1;"></line><line transform="translate(45,0)" x2="0" y2="5" style="fill: none; stroke: #888; stroke-width: 1; opacity: 1;"></line><line transform="translate(63,0)" x2="0" y2="5" style="fill: none; stroke: #888; stroke-width: 1; opacity: 1;"></line><line transform="translate(81,0)" x2="0" y2="5" style="fill: none; stroke: #888; stroke-width: 1; opacity: 1;"></line><line transform="translate(98,0)" x2="0" y2="5" style="fill: none; stroke: #888; stroke-width: 1; opacity: 1;"></line><line transform="translate(116,0)" x2="0" y2="5" style="fill: none; stroke: #888; stroke-width: 1; opacity: 1;"></line><line transform="translate(134,0)" x2="0" y2="5" style="fill: none; stroke: #888; stroke-width: 1; opacity: 1;"></line><line transform="translate(152,0)" x2="0" y2="5" style="fill: none; stroke: #888; stroke-width: 1; opacity: 1;"></line><line transform="translate(170,0)" x2="0" y2="5" style="fill: none; stroke: #888; stroke-width: 1; opacity: 1;"></line><line transform="translate(188,0)" x2="0" y2="5" style="fill: none; stroke: #888; stroke-width: 1; opacity: 1;"></line><line transform="translate(206,0)" x2="0" y2="5" style="fill: none; stroke: #888; stroke-width: 1; opacity: 1;"></line><line transform="translate(224,0)" x2="0" y2="5" style="fill: none; stroke: #888; stroke-width: 1; opacity: 1;"></line><line transform="translate(242,0)" x2="0" y2="5" style="fill: none; stroke: #888; stroke-width: 1; opacity: 1;"></line><line transform="translate(259,0)" x2="0" y2="5" style="fill: none; stroke: #888; stroke-width: 1; opacity: 1;"></line><line transform="translate(277,0)" x2="0" y2="5" style="fill: none; stroke: #888; stroke-width: 1; opacity: 1;"></line><line transform="translate(295,0)" x2="0" y2="5" style="fill: none; stroke: #888; stroke-width: 1; opacity: 1;"></line><line transform="translate(313,0)" x2="0" y2="5" style="fill: none; stroke: #888; stroke-width: 1; opacity: 1;"></line><line transform="translate(331,0)" x2="0" y2="5" style="fill: none; stroke: #888; stroke-width: 1; opacity: 1;"></line><line transform="translate(349,0)" x2="0" y2="5" style="fill: none; stroke: #888; stroke-width: 1; opacity: 1;"></line><line transform="translate(367,0)" x2="0" y2="5" style="fill: none; stroke: #888; stroke-width: 1; opacity: 1;"></line><line transform="translate(385,0)" x2="0" y2="5" style="fill: none; stroke: #888; stroke-width: 1; opacity: 1;"></line><line transform="translate(403,0)" x2="0" y2="5" style="fill: none; stroke: #888; stroke-width: 1; opacity: 1;"></line><line transform="translate(421,0)" x2="0" y2="5" style="fill: none; stroke: #888; stroke-width: 1; opacity: 1;"></line><line transform="translate(438,0)" x2="0" y2="5" style="fill: none; stroke: #888; stroke-width: 1; opacity: 1;"></line><line transform="translate(456,0)" x2="0" y2="5" style="fill: none; stroke: #888; stroke-width: 1; opacity: 1;"></line><line transform="translate(474,0)" x2="0" y2="5" style="fill: none; stroke: #888; stroke-width: 1; opacity: 1;"></line><line transform="translate(492,0)" x2="0" y2="5" style="fill: none; stroke: #888; stroke-width: 1; opacity: 1;"></line><line transform="translate(510,0)" x2="0" y2="5" style="fill: none; stroke: #888; stroke-width: 1; opacity: 1;"></line><line transform="translate(528,0)" x2="0" y2="5" style="fill: none; stroke: #888; stroke-width: 1; opacity: 1;"></line><line transform="translate(546,0)" x2="0" y2="5" style="fill: none; stroke: #888; stroke-width: 1; opacity: 1;"></line><line transform="translate(564,0)" x2="0" y2="5" style="fill: none; stroke: #888; stroke-width: 1; opacity: 1;"></line><line transform="translate(582,0)" x2="0" y2="5" style="fill: none; stroke: #888; stroke-width: 1; opacity: 1;"></line><line transform="translate(599,0)" x2="0" y2="5" style="fill: none; stroke: #888; stroke-width: 1; opacity: 1;"></line><line transform="translate(617,0)" x2="0" y2="5" style="fill: none; stroke: #888; stroke-width: 1; opacity: 1;"></line><line transform="translate(635,0)" x2="0" y2="5" style="fill: none; stroke: #888; stroke-width: 1; opacity: 1;"></line><line transform="translate(653,0)" x2="0" y2="5" style="fill: none; stroke: #888; stroke-width: 1; opacity: 1;"></line><line transform="translate(671,0)" x2="0" y2="5" style="fill: none; stroke: #888; stroke-width: 1; opacity: 1;"></line></g><g class="mark-text role-axis-label" style="pointer-events: none;"><text text-anchor="end" transform="translate(8.947368421052602,7) rotate(270) translate(0,3)" style="font-family: sans-serif; font-size: 10px; fill: #000; opacity: 1;">1955</text><text text-anchor="end" transform="translate(26.842105263157865,7) rotate(270) translate(0,3)" style="font-family: sans-serif; font-size: 10px; fill: #000; opacity: 1;">1958</text><text text-anchor="end" transform="translate(44.73684210526313,7) rotate(270) translate(0,3)" style="font-family: sans-serif; font-size: 10px; fill: #000; opacity: 1;">1965</text><text text-anchor="end" transform="translate(62.631578947368396,7) rotate(270) translate(0,3)" style="font-family: sans-serif; font-size: 10px; fill: #000; opacity: 1;">1966</text><text text-anchor="end" transform="translate(80.52631578947366,7) rotate(270) translate(0,3)" style="font-family: sans-serif; font-size: 10px; fill: #000; opacity: 1;">1967</text><text text-anchor="end" transform="translate(98.42105263157892,7) rotate(270) translate(0,3)" style="font-family: sans-serif; font-size: 10px; fill: #000; opacity: 1;">1968</text><text text-anchor="end" transform="translate(116.31578947368419,7) rotate(270) translate(0,3)" style="font-family: sans-serif; font-size: 10px; fill: #000; opacity: 1;">1969</text><text text-anchor="end" transform="translate(134.21052631578945,7) rotate(270) translate(0,3)" style="font-family: sans-serif; font-size: 10px; fill: #000; opacity: 1;">1971</text><text text-anchor="end" transform="translate(152.1052631578947,7) rotate(270) translate(0,3)" style="font-family: sans-serif; font-size: 10px; fill: #000; opacity: 1;">1972</text><text text-anchor="end" transform="translate(169.99999999999997,7) rotate(270) translate(0,3)" style="font-family: sans-serif; font-size: 10px; fill: #000; opacity: 1;">1973</text><text text-anchor="end" transform="translate(187.89473684210523,7) rotate(270) translate(0,3)" style="font-family: sans-serif; font-size: 10px; fill: #000; opacity: 1;">1975</text><text text-anchor="end" transform="translate(205.7894736842105,7) rotate(270) translate(0,3)" style="font-family: sans-serif; font-size: 10px; fill: #000; opacity: 1;">1978</text><text text-anchor="end" transform="translate(223.68421052631578,7) rotate(270) translate(0,3)" style="font-family: sans-serif; font-size: 10px; fill: #000; opacity: 1;">1987</text><text text-anchor="end" transform="translate(241.57894736842104,7) rotate(270) translate(0,3)" style="font-family: sans-serif; font-size: 10px; fill: #000; opacity: 1;">1988</text><text text-anchor="end" transform="translate(259.4736842105263,7) rotate(270) translate(0,3)" style="font-family: sans-serif; font-size: 10px; fill: #000; opacity: 1;">1989</text><text text-anchor="end" transform="translate(277.36842105263156,7) rotate(270) translate(0,3)" style="font-family: sans-serif; font-size: 10px; fill: #000; opacity: 1;">1991</text><text text-anchor="end" transform="translate(295.2631578947368,7) rotate(270) translate(0,3)" style="font-family: sans-serif; font-size: 10px; fill: #000; opacity: 1;">1993</text><text text-anchor="end" transform="translate(313.1578947368421,7) rotate(270) translate(0,3)" style="font-family: sans-serif; font-size: 10px; fill: #000; opacity: 1;">1994</text><text text-anchor="end" transform="translate(331.05263157894734,7) rotate(270) translate(0,3)" style="font-family: sans-serif; font-size: 10px; fill: #000; opacity: 1;">1995</text><text text-anchor="end" transform="translate(348.9473684210526,7) rotate(270) translate(0,3)" style="font-family: sans-serif; font-size: 10px; fill: #000; opacity: 1;">1996</text><text text-anchor="end" transform="translate(366.84210526315786,7) rotate(270) translate(0,3)" style="font-family: sans-serif; font-size: 10px; fill: #000; opacity: 1;">1997</text><text text-anchor="end" transform="translate(384.7368421052631,7) rotate(270) translate(0,3)" style="font-family: sans-serif; font-size: 10px; fill: #000; opacity: 1;">1998</text><text text-anchor="end" transform="translate(402.6315789473684,7) rotate(270) translate(0,3)" style="font-family: sans-serif; font-size: 10px; fill: #000; opacity: 1;">1999</text><text text-anchor="end" transform="translate(420.52631578947364,7) rotate(270) translate(0,3)" style="font-family: sans-serif; font-size: 10px; fill: #000; opacity: 1;">2000</text><text text-anchor="end" transform="translate(438.42105263157896,7) rotate(270) translate(0,3)" style="font-family: sans-serif; font-size: 10px; fill: #000; opacity: 1;">2001</text><text text-anchor="end" transform="translate(456.3157894736842,7) rotate(270) translate(0,3)" style="font-family: sans-serif; font-size: 10px; fill: #000; opacity: 1;">2002</text><text text-anchor="end" transform="translate(474.2105263157895,7) rotate(270) translate(0,3)" style="font-family: sans-serif; font-size: 10px; fill: #000; opacity: 1;">2003</text><text text-anchor="end" transform="translate(492.10526315789474,7) rotate(270) translate(0,3)" style="font-family: sans-serif; font-size: 10px; fill: #000; opacity: 1;">2004</text><text text-anchor="end" transform="translate(510,7) rotate(270) translate(0,3)" style="font-family: sans-serif; font-size: 10px; fill: #000; opacity: 1;">2005</text><text text-anchor="end" transform="translate(527.8947368421052,7) rotate(270) translate(0,3)" style="font-family: sans-serif; font-size: 10px; fill: #000; opacity: 1;">2006</text><text text-anchor="end" transform="translate(545.7894736842105,7) rotate(270) translate(0,3)" style="font-family: sans-serif; font-size: 10px; fill: #000; opacity: 1;">2007</text><text text-anchor="end" transform="translate(563.6842105263157,7) rotate(270) translate(0,3)" style="font-family: sans-serif; font-size: 10px; fill: #000; opacity: 1;">2008</text><text text-anchor="end" transform="translate(581.578947368421,7) rotate(270) translate(0,3)" style="font-family: sans-serif; font-size: 10px; fill: #000; opacity: 1;">2010</text><text text-anchor="end" transform="translate(599.4736842105264,7) rotate(270) translate(0,3)" style="font-family: sans-serif; font-size: 10px; fill: #000; opacity: 1;">2011</text><text text-anchor="end" transform="translate(617.3684210526316,7) rotate(270) translate(0,3)" style="font-family: sans-serif; font-size: 10px; fill: #000; opacity: 1;">2012</text><text text-anchor="end" transform="translate(635.2631578947369,7) rotate(270) translate(0,3)" style="font-family: sans-serif; font-size: 10px; fill: #000; opacity: 1;">2013</text><text text-anchor="end" transform="translate(653.1578947368421,7) rotate(270) translate(0,3)" style="font-family: sans-serif; font-size: 10px; fill: #000; opacity: 1;">2015</text><text text-anchor="end" transform="translate(671.0526315789474,7) rotate(270) translate(0,3)" style="font-family: sans-serif; font-size: 10px; fill: #000; opacity: 1;">2016</text></g><g class="mark-rule role-axis-domain" style="pointer-events: none;"><line transform="translate(0,0)" x2="680" y2="0" style="fill: none; stroke: #888; stroke-width: 1; opacity: 1;"></line></g><g class="mark-text role-axis-title" style="pointer-events: none;"><text text-anchor="middle" transform="translate(340,42.24609375)" style="font-family: sans-serif; font-size: 11px; font-weight: bold; fill: #000; opacity: 1;">Year</text></g></g><path class="foreground" d="" style="pointer-events: none; display: none; fill: none;"></path></g></g><g class="mark-group role-axis"><g transform="translate(0.5,0.5)"><path class="background" d="M0,0h0v0h0Z" style="pointer-events: none; fill: none;"></path><g><g class="mark-rule role-axis-tick" style="pointer-events: none;"><line transform="translate(0,17)" x2="-5" y2="0" style="fill: none; stroke: #888; stroke-width: 1; opacity: 1;"></line><line transform="translate(0,50)" x2="-5" y2="0" style="fill: none; stroke: #888; stroke-width: 1; opacity: 1;"></line><line transform="translate(0,83)" x2="-5" y2="0" style="fill: none; stroke: #888; stroke-width: 1; opacity: 1;"></line><line transform="translate(0,117)" x2="-5" y2="0" style="fill: none; stroke: #888; stroke-width: 1; opacity: 1;"></line><line transform="translate(0,150)" x2="-5" y2="0" style="fill: none; stroke: #888; stroke-width: 1; opacity: 1;"></line><line transform="translate(0,183)" x2="-5" y2="0" style="fill: none; stroke: #888; stroke-width: 1; opacity: 1;"></line><line transform="translate(0,217)" x2="-5" y2="0" style="fill: none; stroke: #888; stroke-width: 1; opacity: 1;"></line><line transform="translate(0,250)" x2="-5" y2="0" style="fill: none; stroke: #888; stroke-width: 1; opacity: 1;"></line><line transform="translate(0,283)" x2="-5" y2="0" style="fill: none; stroke: #888; stroke-width: 1; opacity: 1;"></line><line transform="translate(0,317)" x2="-5" y2="0" style="fill: none; stroke: #888; stroke-width: 1; opacity: 1;"></line><line transform="translate(0,350)" x2="-5" y2="0" style="fill: none; stroke: #888; stroke-width: 1; opacity: 1;"></line><line transform="translate(0,383)" x2="-5" y2="0" style="fill: none; stroke: #888; stroke-width: 1; opacity: 1;"></line><line transform="translate(0,417)" x2="-5" y2="0" style="fill: none; stroke: #888; stroke-width: 1; opacity: 1;"></line><line transform="translate(0,450)" x2="-5" y2="0" style="fill: none; stroke: #888; stroke-width: 1; opacity: 1;"></line><line transform="translate(0,483)" x2="-5" y2="0" style="fill: none; stroke: #888; stroke-width: 1; opacity: 1;"></line></g><g class="mark-text role-axis-label" style="pointer-events: none;"><text text-anchor="end" transform="translate(-7,19.666666666666657)" style="font-family: sans-serif; font-size: 10px; fill: #000; opacity: 1;">Amphipoda</text><text text-anchor="end" transform="translate(-7,52.99999999999999)" style="font-family: sans-serif; font-size: 10px; fill: #000; opacity: 1;">Monstrilloida</text><text text-anchor="end" transform="translate(-7,86.33333333333333)" style="font-family: sans-serif; font-size: 10px; fill: #000; opacity: 1;">Isopoda</text><text text-anchor="end" transform="translate(-7,119.66666666666666)" style="font-family: sans-serif; font-size: 10px; fill: #000; opacity: 1;">Siphonostomatoida</text><text text-anchor="end" transform="translate(-7,153)" style="font-family: sans-serif; font-size: 10px; fill: #000; opacity: 1;">Anostraca</text><text text-anchor="end" transform="translate(-7,186.33333333333334)" style="font-family: sans-serif; font-size: 10px; fill: #000; opacity: 1;">Podocopida</text><text text-anchor="end" transform="translate(-7,219.66666666666666)" style="font-family: sans-serif; font-size: 10px; fill: #000; opacity: 1;">Tanaidacea</text><text text-anchor="end" transform="translate(-7,253)" style="font-family: sans-serif; font-size: 10px; fill: #000; opacity: 1;">Thoracica</text><text text-anchor="end" transform="translate(-7,286.33333333333337)" style="font-family: sans-serif; font-size: 10px; fill: #000; opacity: 1;">Decapoda</text><text text-anchor="end" transform="translate(-7,319.66666666666663)" style="font-family: sans-serif; font-size: 10px; fill: #000; opacity: 1;">Cyclopoida</text><text text-anchor="end" transform="translate(-7,353)" style="font-family: sans-serif; font-size: 10px; fill: #000; opacity: 1;">Poecilostomatoida</text><text text-anchor="end" transform="translate(-7,386.33333333333337)" style="font-family: sans-serif; font-size: 10px; fill: #000; opacity: 1;">Anomopoda</text><text text-anchor="end" transform="translate(-7,419.66666666666663)" style="font-family: sans-serif; font-size: 10px; fill: #000; opacity: 1;">Arguloida</text><text text-anchor="end" transform="translate(-7,453)" style="font-family: sans-serif; font-size: 10px; fill: #000; opacity: 1;">Cumacea</text><text text-anchor="end" transform="translate(-7,486.33333333333337)" style="font-family: sans-serif; font-size: 10px; fill: #000; opacity: 1;">Stomatopoda</text></g><g class="mark-rule role-axis-domain" style="pointer-events: none;"><line transform="translate(0,0)" x2="0" y2="500" style="fill: none; stroke: #888; stroke-width: 1; opacity: 1;"></line></g><g class="mark-text role-axis-title" style="pointer-events: none;"><text text-anchor="middle" transform="translate(-96.615234375,250) rotate(-90) translate(0,-2)" style="font-family: sans-serif; font-size: 11px; font-weight: bold; fill: #000; opacity: 1;">Order</text></g></g><path class="foreground" d="" style="pointer-events: none; display: none; fill: none;"></path></g></g></g><path class="foreground" d="" style="display: none; fill: none;"></path></g></g></g></svg>