<svg class="marks" width="1106" height="292" viewBox="0 0 1106 292" version="1.1" xmlns="http://www.w3.org/2000/svg" xmlns:xlink="http://www.w3.org/1999/xlink"><defs><linearGradient id="gradient_0" x1="0" x2="0" y1="1" y2="0"><stop offset="0" stop-color="rgb(239, 249, 189)"></stop><stop offset="0.022727272727272728" stop-color="rgb(234, 247, 187)"></stop><stop offset="0.06818181818181818" stop-color="rgb(225, 244, 183)"></stop><stop offset="0.11363636363636363" stop-color="rgb(215, 239, 180)"></stop><stop offset="0.1590909090909091" stop-color="rgb(201, 234, 181)"></stop><stop offset="0.20454545454545456" stop-color="rgb(187, 228, 181)"></stop><stop offset="0.25" stop-color="rgb(169, 221, 183)"></stop><stop offset="0.29545454545454547" stop-color="rgb(150, 214, 185)"></stop><stop offset="0.3409090909090909" stop-color="rgb(130, 206, 187)"></stop><stop offset="0.38636363636363635" stop-color="rgb(111, 199, 189)"></stop><stop offset="0.4318181818181818" stop-color="rgb(94, 192, 191)"></stop><stop offset="0.4772727272727273" stop-color="rgb(77, 184, 193)"></stop><stop offset="0.5227272727272727" stop-color="rgb(63, 175, 194)"></stop><stop offset="0.5681818181818182" stop-color="rgb(52, 165, 193)"></stop><stop offset="0.6136363636363636" stop-color="rgb(43, 154, 191)"></stop><stop offset="0.6590909090909091" stop-color="rgb(38, 141, 187)"></stop><stop offset="0.7045454545454546" stop-color="rgb(33, 129, 183)"></stop><stop offset="0.75" stop-color="rgb(33, 115, 177)"></stop><stop offset="0.7954545454545454" stop-color="rgb(33, 100, 171)"></stop><stop offset="0.8409090909090909" stop-color="rgb(34, 88, 164)"></stop><stop offset="0.8863636363636364" stop-color="rgb(35, 75, 158)"></stop><stop offset="0.9318181818181818" stop-color="rgb(33, 64, 149)"></stop><stop offset="0.9772727272727273" stop-color="rgb(30, 54, 138)"></stop><stop offset="1" stop-color="rgb(28, 49, 133)"></stop></linearGradient></defs><g transform="translate(86,22)"><g class="mark-group role-frame root"><g transform="translate(0,0)"><path class="background" d="M0.5,0.5h960v220h-960Z" style="fill: none; stroke: #ddd;"></path><g><g class="mark-rect role-mark marks"><path d="M20,40h20v20h-20Z" style="fill: rgb(239, 249, 189);"></path><path d="M400,20h20v20h-20Z" style="fill: rgb(239, 249, 189);"></path><path d="M480,20h20v20h-20Z" style="fill: rgb(239, 249, 189);"></path><path d="M720,20h20v20h-20Z" style="fill: rgb(239, 249, 189);"></path><path d="M600,120h20v20h-20Z" style="fill: rgb(239, 249, 189);"></path><path d="M720,140h20v20h-20Z" style="fill: rgb(239, 249, 189);"></path><path d="M340,160h20v20h-20Z" style="fill: rgb(239, 249, 189);"></path><path d="M740,160h20v20h-20Z" style="fill: rgb(239, 249, 189);"></path><path d="M840,160h20v20h-20Z" style="fill: rgb(239, 249, 189);"></path><path d="M180,60h20v20h-20Z" style="fill: rgb(239, 249, 189);"></path><path d="M640,60h20v20h-20Z" style="fill: rgb(239, 249, 189);"></path><path d="M240,20h20v20h-20Z" style="fill: rgb(239, 249, 189);"></path><path d="M280,80h20v20h-20Z" style="fill: rgb(239, 249, 189);"></path><path d="M0,0h20v20h-20Z" style="fill: rgb(239, 249, 189);"></path><path d="M20,0h20v20h-20Z" style="fill: rgb(239, 249, 189);"></path><path d="M240,0h20v20h-20Z" style="fill: rgb(239, 249, 189);"></path><path d="M300,0h20v20h-20Z" style="fill: rgb(239, 249, 189);"></path><path d="M380,0h20v20h-20Z" style="fill: rgb(239, 249, 189);"></path><path d="M940,0h20v20h-20Z" style="fill: rgb(239, 249, 189);"></path><path d="M0,100h20v20h-20Z" style="fill: rgb(239, 249, 189);"></path><path d="M560,100h20v20h-20Z" style="fill: rgb(239, 249, 189);"></path><path d="M0,180h20v20h-20Z" style="fill: rgb(239, 249, 189);"></path><path d="M860,180h20v20h-20Z" style="fill: rgb(239, 249, 189);"></path><path d="M420,80h20v20h-20Z" style="fill: rgb(239, 249, 189);"></path><path d="M140,20h20v20h-20Z" style="fill: rgb(239, 249, 189);"></path><path d="M100,140h20v20h-20Z" style="fill: rgb(239, 249, 189);"></path><path d="M760,120h20v20h-20Z" style="fill: rgb(239, 249, 189);"></path><path d="M200,40h20v20h-20Z" style="fill: rgb(239, 249, 189);"></path><path d="M360,40h20v20h-20Z" style="fill: rgb(239, 249, 189);"></path><path d="M20,20h20v20h-20Z" style="fill: rgb(239, 249, 189);"></path><path d="M540,40h20v20h-20Z" style="fill: rgb(239, 249, 189);"></path><path d="M580,40h20v20h-20Z" style="fill: rgb(239, 249, 189);"></path><path d="M620,40h20v20h-20Z" style="fill: rgb(239, 249, 189);"></path><path d="M700,40h20v20h-20Z" style="fill: rgb(239, 249, 189);"></path><path d="M720,40h20v20h-20Z" style="fill: rgb(239, 249, 189);"></path><path d="M820,40h20v20h-20Z" style="fill: rgb(239, 249, 189);"></path><path d="M100,40h20v20h-20Z" style="fill: rgb(239, 249, 189);"></path><path d="M840,40h20v20h-20Z" style="fill: rgb(239, 249, 189);"></path><path d="M660,40h20v20h-20Z" style="fill: rgb(239, 249, 189);"></path><path d="M0,200h20v20h-20Z" style="fill: rgb(239, 249, 189);"></path><path d="M500,80h20v20h-20Z" style="fill: rgb(234, 247, 187);"></path><path d="M920,20h20v20h-20Z" style="fill: rgb(234, 247, 187);"></path><path d="M780,0h20v20h-20Z" style="fill: rgb(234, 247, 187);"></path><path d="M20,60h20v20h-20Z" style="fill: rgb(234, 247, 187);"></path><path d="M840,20h20v20h-20Z" style="fill: rgb(234, 247, 187);"></path><path d="M380,20h20v20h-20Z" style="fill: rgb(234, 247, 187);"></path><path d="M460,40h20v20h-20Z" style="fill: rgb(234, 247, 187);"></path><path d="M60,0h20v20h-20Z" style="fill: rgb(234, 247, 187);"></path><path d="M80,0h20v20h-20Z" style="fill: rgb(234, 247, 187);"></path><path d="M920,40h20v20h-20Z" style="fill: rgb(234, 247, 187);"></path><path d="M800,40h20v20h-20Z" style="fill: rgb(234, 247, 187);"></path><path d="M320,0h20v20h-20Z" style="fill: rgb(234, 247, 187);"></path><path d="M580,20h20v20h-20Z" style="fill: rgb(234, 247, 187);"></path><path d="M340,0h20v20h-20Z" style="fill: rgb(234, 247, 187);"></path><path d="M100,100h20v20h-20Z" style="fill: rgb(234, 247, 187);"></path><path d="M580,0h20v20h-20Z" style="fill: rgb(234, 247, 187);"></path><path d="M460,20h20v20h-20Z" style="fill: rgb(234, 247, 187);"></path><path d="M280,0h20v20h-20Z" style="fill: rgb(234, 247, 187);"></path><path d="M260,40h20v20h-20Z" style="fill: rgb(230, 245, 185);"></path><path d="M180,0h20v20h-20Z" style="fill: rgb(230, 245, 185);"></path><path d="M180,40h20v20h-20Z" style="fill: rgb(230, 245, 185);"></path><path d="M160,20h20v20h-20Z" style="fill: rgb(230, 245, 185);"></path><path d="M920,0h20v20h-20Z" style="fill: rgb(230, 245, 185);"></path><path d="M880,0h20v20h-20Z" style="fill: rgb(230, 245, 185);"></path><path d="M100,20h20v20h-20Z" style="fill: rgb(230, 245, 185);"></path><path d="M900,40h20v20h-20Z" style="fill: rgb(230, 245, 185);"></path><path d="M820,20h20v20h-20Z" style="fill: rgb(230, 245, 185);"></path><path d="M220,20h20v20h-20Z" style="fill: rgb(230, 245, 185);"></path><path d="M680,20h20v20h-20Z" style="fill: rgb(230, 245, 185);"></path><path d="M200,20h20v20h-20Z" style="fill: rgb(225, 244, 183);"></path><path d="M480,0h20v20h-20Z" style="fill: rgb(225, 244, 183);"></path><path d="M460,0h20v20h-20Z" style="fill: rgb(225, 244, 183);"></path><path d="M400,0h20v20h-20Z" style="fill: rgb(225, 244, 183);"></path><path d="M360,0h20v20h-20Z" style="fill: rgb(225, 244, 183);"></path><path d="M220,0h20v20h-20Z" style="fill: rgb(225, 244, 183);"></path><path d="M200,0h20v20h-20Z" style="fill: rgb(225, 244, 183);"></path><path d="M140,0h20v20h-20Z" style="fill: rgb(225, 244, 183);"></path><path d="M260,0h20v20h-20Z" style="fill: rgb(225, 244, 183);"></path><path d="M360,20h20v20h-20Z" style="fill: rgb(225, 244, 183);"></path><path d="M560,40h20v20h-20Z" style="fill: rgb(225, 244, 183);"></path><path d="M80,20h20v20h-20Z" style="fill: rgb(221, 242, 181);"></path><path d="M520,20h20v20h-20Z" style="fill: rgb(221, 242, 181);"></path><path d="M120,40h20v20h-20Z" style="fill: rgb(221, 242, 181);"></path><path d="M440,0h20v20h-20Z" style="fill: rgb(221, 242, 181);"></path><path d="M720,0h20v20h-20Z" style="fill: rgb(221, 242, 181);"></path><path d="M80,40h20v20h-20Z" style="fill: rgb(221, 242, 181);"></path><path d="M260,20h20v20h-20Z" style="fill: rgb(215, 239, 180);"></path><path d="M120,20h20v20h-20Z" style="fill: rgb(208, 237, 180);"></path><path d="M860,40h20v20h-20Z" style="fill: rgb(208, 237, 180);"></path><path d="M100,0h20v20h-20Z" style="fill: rgb(208, 237, 180);"></path><path d="M180,20h20v20h-20Z" style="fill: rgb(208, 237, 180);"></path><path d="M820,0h20v20h-20Z" style="fill: rgb(201, 234, 181);"></path><path d="M640,20h20v20h-20Z" style="fill: rgb(201, 234, 181);"></path><path d="M560,20h20v20h-20Z" style="fill: rgb(201, 234, 181);"></path><path d="M160,0h20v20h-20Z" style="fill: rgb(201, 234, 181);"></path><path d="M420,20h20v20h-20Z" style="fill: rgb(194, 231, 181);"></path><path d="M120,0h20v20h-20Z" style="fill: rgb(194, 231, 181);"></path><path d="M860,20h20v20h-20Z" style="fill: rgb(194, 231, 181);"></path><path d="M520,0h20v20h-20Z" style="fill: rgb(187, 228, 181);"></path><path d="M700,20h20v20h-20Z" style="fill: rgb(187, 228, 181);"></path><path d="M600,20h20v20h-20Z" style="fill: rgb(187, 228, 181);"></path><path d="M500,40h20v20h-20Z" style="fill: rgb(187, 228, 181);"></path><path d="M620,20h20v20h-20Z" style="fill: rgb(178, 225, 182);"></path><path d="M840,0h20v20h-20Z" style="fill: rgb(178, 225, 182);"></path><path d="M660,20h20v20h-20Z" style="fill: rgb(178, 225, 182);"></path><path d="M760,20h20v20h-20Z" style="fill: rgb(178, 225, 182);"></path><path d="M40,40h20v20h-20Z" style="fill: rgb(169, 221, 183);"></path><path d="M500,20h20v20h-20Z" style="fill: rgb(169, 221, 183);"></path><path d="M800,20h20v20h-20Z" style="fill: rgb(169, 221, 183);"></path><path d="M40,0h20v20h-20Z" style="fill: rgb(159, 217, 184);"></path><path d="M540,20h20v20h-20Z" style="fill: rgb(159, 217, 184);"></path><path d="M40,20h20v20h-20Z" style="fill: rgb(150, 214, 185);"></path><path d="M420,0h20v20h-20Z" style="fill: rgb(150, 214, 185);"></path><path d="M900,20h20v20h-20Z" style="fill: rgb(140, 210, 186);"></path><path d="M560,0h20v20h-20Z" style="fill: rgb(121, 203, 188);"></path><path d="M800,0h20v20h-20Z" style="fill: rgb(111, 199, 189);"></path><path d="M600,0h20v20h-20Z" style="fill: rgb(102, 195, 190);"></path><path d="M620,0h20v20h-20Z" style="fill: rgb(94, 192, 191);"></path><path d="M860,0h20v20h-20Z" style="fill: rgb(77, 184, 193);"></path><path d="M500,0h20v20h-20Z" style="fill: rgb(69, 180, 194);"></path><path d="M740,20h20v20h-20Z" style="fill: rgb(63, 175, 194);"></path><path d="M640,0h20v20h-20Z" style="fill: rgb(46, 160, 192);"></path><path d="M540,0h20v20h-20Z" style="fill: rgb(43, 154, 191);"></path><path d="M900,0h20v20h-20Z" style="fill: rgb(40, 148, 189);"></path><path d="M660,0h20v20h-20Z" style="fill: rgb(35, 135, 185);"></path><path d="M700,0h20v20h-20Z" style="fill: rgb(34, 88, 164);"></path><path d="M760,0h20v20h-20Z" style="fill: rgb(31, 59, 143);"></path><path d="M740,0h20v20h-20Z" style="fill: rgb(28, 49, 133);"></path></g><g class="mark-group role-legend"><g transform="translate(978,0)"><path class="background" d="M0,0h37v216h-37Z" style="pointer-events: none; fill: none;"></path><g><g class="mark-group role-legend-entry"><g transform="translate(0,16)"><path class="background" d="M0,0h0v0h0Z" style="pointer-events: none; fill: none;"></path><g><g class="mark-rect role-legend-gradient" style="pointer-events: none;"><path d="M0,0h16v200h-16Z" style="fill: url(#gradient_0); stroke: #ddd; stroke-width: 0; opacity: 1;"></path></g><g class="mark-text role-legend-label" style="pointer-events: none;"><text text-anchor="start" transform="translate(18,162.0909090909091)" style="font-family: sans-serif; font-size: 10px; fill: #000; opacity: 1;">10</text><text text-anchor="start" transform="translate(18,116.63636363636363)" style="font-family: sans-serif; font-size: 10px; fill: #000; opacity: 1;">20</text><text text-anchor="start" transform="translate(18,71.18181818181819)" style="font-family: sans-serif; font-size: 10px; fill: #000; opacity: 1;">30</text><text text-anchor="start" transform="translate(18,25.72727272727273)" style="font-family: sans-serif; font-size: 10px; fill: #000; opacity: 1;">40</text></g></g><path class="foreground" d="" style="pointer-events: none; display: none; fill: none;"></path></g></g><g class="mark-text role-legend-title" style="pointer-events: none;"><text text-anchor="start" transform="translate(0,9)" style="font-family: sans-serif; font-size: 11px; font-weight: bold; fill: #000; opacity: 1;">counts</text></g></g><path class="foreground" d="" style="pointer-events: none; display: none; fill: none;"></path></g></g><g class="mark-group role-title"><g transform="translate(480,-17)"><path class="background" d="M0,0h0v0h0Z" style="pointer-events: none; fill: none;"></path><g><g class="mark-text role-title-text" style="pointer-events: none;"><text text-anchor="middle" transform="translate(0,10)" style="font-family: sans-serif; font-size: 13px; font-weight: bold; fill: #000; opacity: 1;">Number of animals of each type per year</text></g></g><path class="foreground" d="" style="pointer-events: none; display: none; fill: none;"></path></g></g><g class="mark-group role-axis"><g transform="translate(0.5,220.5)"><path class="background" d="M0,0h0v0h0Z" style="pointer-events: none; fill: none;"></path><g><g class="mark-rule role-axis-tick" style="pointer-events: none;"><line transform="translate(10,0)" x2="0" y2="5" style="fill: none; stroke: #888; stroke-width: 1; opacity: 1;"></line><line transform="translate(30,0)" x2="0" y2="5" style="fill: none; stroke: #888; stroke-width: 1; opacity: 1;"></line><line transform="translate(50,0)" x2="0" y2="5" style="fill: none; stroke: #888; stroke-width: 1; opacity: 1;"></line><line transform="translate(70,0)" x2="0" y2="5" style="fill: none; stroke: #888; stroke-width: 1; opacity: 1;"></line><line transform="translate(90,0)" x2="0" y2="5" style="fill: none; stroke: #888; stroke-width: 1; opacity: 1;"></line><line transform="translate(110,0)" x2="0" y2="5" style="fill: none; stroke: #888; stroke-width: 1; opacity: 1;"></line><line transform="translate(130,0)" x2="0" y2="5" style="fill: none; stroke: #888; stroke-width: 1; opacity: 1;"></line><line transform="translate(150,0)" x2="0" y2="5" style="fill: none; stroke: #888; stroke-width: 1; opacity: 1;"></line><line transform="translate(170,0)" x2="0" y2="5" style="fill: none; stroke: #888; stroke-width: 1; opacity: 1;"></line><line transform="translate(190,0)" x2="0" y2="5" style="fill: none; stroke: #888; stroke-width: 1; opacity: 1;"></line><line transform="translate(210,0)" x2="0" y2="5" style="fill: none; stroke: #888; stroke-width: 1; opacity: 1;"></line><line transform="translate(230,0)" x2="0" y2="5" style="fill: none; stroke: #888; stroke-width: 1; opacity: 1;"></line><line transform="translate(250,0)" x2="0" y2="5" style="fill: none; stroke: #888; stroke-width: 1; opacity: 1;"></line><line transform="translate(270,0)" x2="0" y2="5" style="fill: none; stroke: #888; stroke-width: 1; opacity: 1;"></line><line transform="translate(290,0)" x2="0" y2="5" style="fill: none; stroke: #888; stroke-width: 1; opacity: 1;"></line><line transform="translate(310,0)" x2="0" y2="5" style="fill: none; stroke: #888; stroke-width: 1; opacity: 1;"></line><line transform="translate(330,0)" x2="0" y2="5" style="fill: none; stroke: #888; stroke-width: 1; opacity: 1;"></line><line transform="translate(350,0)" x2="0" y2="5" style="fill: none; stroke: #888; stroke-width: 1; opacity: 1;"></line><line transform="translate(370,0)" x2="0" y2="5" style="fill: none; stroke: #888; stroke-width: 1; opacity: 1;"></line><line transform="translate(390,0)" x2="0" y2="5" style="fill: none; stroke: #888; stroke-width: 1; opacity: 1;"></line><line transform="translate(410,0)" x2="0" y2="5" style="fill: none; stroke: #888; stroke-width: 1; opacity: 1;"></line><line transform="translate(430,0)" x2="0" y2="5" style="fill: none; stroke: #888; stroke-width: 1; opacity: 1;"></line><line transform="translate(450,0)" x2="0" y2="5" style="fill: none; stroke: #888; stroke-width: 1; opacity: 1;"></line><line transform="translate(470,0)" x2="0" y2="5" style="fill: none; stroke: #888; stroke-width: 1; opacity: 1;"></line><line transform="translate(490,0)" x2="0" y2="5" style="fill: none; stroke: #888; stroke-width: 1; opacity: 1;"></line><line transform="translate(510,0)" x2="0" y2="5" style="fill: none; stroke: #888; stroke-width: 1; opacity: 1;"></line><line transform="translate(530,0)" x2="0" y2="5" style="fill: none; stroke: #888; stroke-width: 1; opacity: 1;"></line><line transform="translate(550,0)" x2="0" y2="5" style="fill: none; stroke: #888; stroke-width: 1; opacity: 1;"></line><line transform="translate(570,0)" x2="0" y2="5" style="fill: none; stroke: #888; stroke-width: 1; opacity: 1;"></line><line transform="translate(590,0)" x2="0" y2="5" style="fill: none; stroke: #888; stroke-width: 1; opacity: 1;"></line><line transform="translate(610,0)" x2="0" y2="5" style="fill: none; stroke: #888; stroke-width: 1; opacity: 1;"></line><line transform="translate(630,0)" x2="0" y2="5" style="fill: none; stroke: #888; stroke-width: 1; opacity: 1;"></line><line transform="translate(650,0)" x2="0" y2="5" style="fill: none; stroke: #888; stroke-width: 1; opacity: 1;"></line><line transform="translate(670,0)" x2="0" y2="5" style="fill: none; stroke: #888; stroke-width: 1; opacity: 1;"></line><line transform="translate(690,0)" x2="0" y2="5" style="fill: none; stroke: #888; stroke-width: 1; opacity: 1;"></line><line transform="translate(710,0)" x2="0" y2="5" style="fill: none; stroke: #888; stroke-width: 1; opacity: 1;"></line><line transform="translate(730,0)" x2="0" y2="5" style="fill: none; stroke: #888; stroke-width: 1; opacity: 1;"></line><line transform="translate(750,0)" x2="0" y2="5" style="fill: none; stroke: #888; stroke-width: 1; opacity: 1;"></line><line transform="translate(770,0)" x2="0" y2="5" style="fill: none; stroke: #888; stroke-width: 1; opacity: 1;"></line><line transform="translate(790,0)" x2="0" y2="5" style="fill: none; stroke: #888; stroke-width: 1; opacity: 1;"></line><line transform="translate(810,0)" x2="0" y2="5" style="fill: none; stroke: #888; stroke-width: 1; opacity: 1;"></line><line transform="translate(830,0)" x2="0" y2="5" style="fill: none; stroke: #888; stroke-width: 1; opacity: 1;"></line><line transform="translate(850,0)" x2="0" y2="5" style="fill: none; stroke: #888; stroke-width: 1; opacity: 1;"></line><line transform="translate(870,0)" x2="0" y2="5" style="fill: none; stroke: #888; stroke-width: 1; opacity: 1;"></line><line transform="translate(890,0)" x2="0" y2="5" style="fill: none; stroke: #888; stroke-width: 1; opacity: 1;"></line><line transform="translate(910,0)" x2="0" y2="5" style="fill: none; stroke: #888; stroke-width: 1; opacity: 1;"></line><line transform="translate(930,0)" x2="0" y2="5" style="fill: none; stroke: #888; stroke-width: 1; opacity: 1;"></line><line transform="translate(950,0)" x2="0" y2="5" style="fill: none; stroke: #888; stroke-width: 1; opacity: 1;"></line></g><g class="mark-text role-axis-label" style="pointer-events: none;"><text text-anchor="end" transform="translate(9.5,7) rotate(270) translate(0,3)" style="font-family: sans-serif; font-size: 10px; fill: #000; opacity: 1;">1903</text><text text-anchor="end" transform="translate(29.5,7) rotate(270) translate(0,3)" style="font-family: sans-serif; font-size: 10px; fill: #000; opacity: 1;">1955</text><text text-anchor="end" transform="translate(49.5,7) rotate(270) translate(0,3)" style="font-family: sans-serif; font-size: 10px; fill: #000; opacity: 1;">1958</text><text text-anchor="end" transform="translate(69.5,7) rotate(270) translate(0,3)" style="font-family: sans-serif; font-size: 10px; fill: #000; opacity: 1;">1960</text><text text-anchor="end" transform="translate(89.5,7) rotate(270) translate(0,3)" style="font-family: sans-serif; font-size: 10px; fill: #000; opacity: 1;">1965</text><text text-anchor="end" transform="translate(109.5,7) rotate(270) translate(0,3)" style="font-family: sans-serif; font-size: 10px; fill: #000; opacity: 1;">1966</text><text text-anchor="end" transform="translate(129.5,7) rotate(270) translate(0,3)" style="font-family: sans-serif; font-size: 10px; fill: #000; opacity: 1;">1967</text><text text-anchor="end" transform="translate(149.5,7) rotate(270) translate(0,3)" style="font-family: sans-serif; font-size: 10px; fill: #000; opacity: 1;">1968</text><text text-anchor="end" transform="translate(169.5,7) rotate(270) translate(0,3)" style="font-family: sans-serif; font-size: 10px; fill: #000; opacity: 1;">1969</text><text text-anchor="end" transform="translate(189.5,7) rotate(270) translate(0,3)" style="font-family: sans-serif; font-size: 10px; fill: #000; opacity: 1;">1971</text><text text-anchor="end" transform="translate(209.5,7) rotate(270) translate(0,3)" style="font-family: sans-serif; font-size: 10px; fill: #000; opacity: 1;">1972</text><text text-anchor="end" transform="translate(229.5,7) rotate(270) translate(0,3)" style="font-family: sans-serif; font-size: 10px; fill: #000; opacity: 1;">1973</text><text text-anchor="end" transform="translate(249.5,7) rotate(270) translate(0,3)" style="font-family: sans-serif; font-size: 10px; fill: #000; opacity: 1;">1975</text><text text-anchor="end" transform="translate(269.5,7) rotate(270) translate(0,3)" style="font-family: sans-serif; font-size: 10px; fill: #000; opacity: 1;">1978</text><text text-anchor="end" transform="translate(289.5,7) rotate(270) translate(0,3)" style="font-family: sans-serif; font-size: 10px; fill: #000; opacity: 1;">1979</text><text text-anchor="end" transform="translate(309.5,7) rotate(270) translate(0,3)" style="font-family: sans-serif; font-size: 10px; fill: #000; opacity: 1;">1980</text><text text-anchor="end" transform="translate(329.5,7) rotate(270) translate(0,3)" style="font-family: sans-serif; font-size: 10px; fill: #000; opacity: 1;">1981</text><text text-anchor="end" transform="translate(349.5,7) rotate(270) translate(0,3)" style="font-family: sans-serif; font-size: 10px; fill: #000; opacity: 1;">1986</text><text text-anchor="end" transform="translate(369.5,7) rotate(270) translate(0,3)" style="font-family: sans-serif; font-size: 10px; fill: #000; opacity: 1;">1987</text><text text-anchor="end" transform="translate(389.5,7) rotate(270) translate(0,3)" style="font-family: sans-serif; font-size: 10px; fill: #000; opacity: 1;">1988</text><text text-anchor="end" transform="translate(409.5,7) rotate(270) translate(0,3)" style="font-family: sans-serif; font-size: 10px; fill: #000; opacity: 1;">1989</text><text text-anchor="end" transform="translate(429.5,7) rotate(270) translate(0,3)" style="font-family: sans-serif; font-size: 10px; fill: #000; opacity: 1;">1991</text><text text-anchor="end" transform="translate(449.5,7) rotate(270) translate(0,3)" style="font-family: sans-serif; font-size: 10px; fill: #000; opacity: 1;">1992</text><text text-anchor="end" transform="translate(469.5,7) rotate(270) translate(0,3)" style="font-family: sans-serif; font-size: 10px; fill: #000; opacity: 1;">1993</text><text text-anchor="end" transform="translate(489.5,7) rotate(270) translate(0,3)" style="font-family: sans-serif; font-size: 10px; fill: #000; opacity: 1;">1994</text><text text-anchor="end" transform="translate(509.5,7) rotate(270) translate(0,3)" style="font-family: sans-serif; font-size: 10px; fill: #000; opacity: 1;">1995</text><text text-anchor="end" transform="translate(529.5,7) rotate(270) translate(0,3)" style="font-family: sans-serif; font-size: 10px; fill: #000; opacity: 1;">1996</text><text text-anchor="end" transform="translate(549.5,7) rotate(270) translate(0,3)" style="font-family: sans-serif; font-size: 10px; fill: #000; opacity: 1;">1997</text><text text-anchor="end" transform="translate(569.5,7) rotate(270) translate(0,3)" style="font-family: sans-serif; font-size: 10px; fill: #000; opacity: 1;">1998</text><text text-anchor="end" transform="translate(589.5,7) rotate(270) translate(0,3)" style="font-family: sans-serif; font-size: 10px; fill: #000; opacity: 1;">1999</text><text text-anchor="end" transform="translate(609.5,7) rotate(270) translate(0,3)" style="font-family: sans-serif; font-size: 10px; fill: #000; opacity: 1;">2000</text><text text-anchor="end" transform="translate(629.5,7) rotate(270) translate(0,3)" style="font-family: sans-serif; font-size: 10px; fill: #000; opacity: 1;">2001</text><text text-anchor="end" transform="translate(649.5,7) rotate(270) translate(0,3)" style="font-family: sans-serif; font-size: 10px; fill: #000; opacity: 1;">2002</text><text text-anchor="end" transform="translate(669.5,7) rotate(270) translate(0,3)" style="font-family: sans-serif; font-size: 10px; fill: #000; opacity: 1;">2003</text><text text-anchor="end" transform="translate(689.5,7) rotate(270) translate(0,3)" style="font-family: sans-serif; font-size: 10px; fill: #000; opacity: 1;">2004</text><text text-anchor="end" transform="translate(709.5,7) rotate(270) translate(0,3)" style="font-family: sans-serif; font-size: 10px; fill: #000; opacity: 1;">2005</text><text text-anchor="end" transform="translate(729.5,7) rotate(270) translate(0,3)" style="font-family: sans-serif; font-size: 10px; fill: #000; opacity: 1;">2006</text><text text-anchor="end" transform="translate(749.5,7) rotate(270) translate(0,3)" style="font-family: sans-serif; font-size: 10px; fill: #000; opacity: 1;">2007</text><text text-anchor="end" transform="translate(769.5,7) rotate(270) translate(0,3)" style="font-family: sans-serif; font-size: 10px; fill: #000; opacity: 1;">2008</text><text text-anchor="end" transform="translate(789.5,7) rotate(270) translate(0,3)" style="font-family: sans-serif; font-size: 10px; fill: #000; opacity: 1;">2009</text><text text-anchor="end" transform="translate(809.5,7) rotate(270) translate(0,3)" style="font-family: sans-serif; font-size: 10px; fill: #000; opacity: 1;">2010</text><text text-anchor="end" transform="translate(829.5,7) rotate(270) translate(0,3)" style="font-family: sans-serif; font-size: 10px; fill: #000; opacity: 1;">2011</text><text text-anchor="end" transform="translate(849.5,7) rotate(270) translate(0,3)" style="font-family: sans-serif; font-size: 10px; fill: #000; opacity: 1;">2012</text><text text-anchor="end" transform="translate(869.5,7) rotate(270) translate(0,3)" style="font-family: sans-serif; font-size: 10px; fill: #000; opacity: 1;">2013</text><text text-anchor="end" transform="translate(889.5,7) rotate(270) translate(0,3)" style="font-family: sans-serif; font-size: 10px; fill: #000; opacity: 1;">2014</text><text text-anchor="end" transform="translate(909.5,7) rotate(270) translate(0,3)" style="font-family: sans-serif; font-size: 10px; fill: #000; opacity: 1;">2015</text><text text-anchor="end" transform="translate(929.5,7) rotate(270) translate(0,3)" style="font-family: sans-serif; font-size: 10px; fill: #000; opacity: 1;">2016</text><text text-anchor="end" transform="translate(949.5,7) rotate(270) translate(0,3)" style="font-family: sans-serif; font-size: 10px; fill: #000; opacity: 1;">2017</text></g><g class="mark-rule role-axis-domain" style="pointer-events: none;"><line transform="translate(0,0)" x2="960" y2="0" style="fill: none; stroke: #888; stroke-width: 1; opacity: 1;"></line></g><g class="mark-text role-axis-title" style="pointer-events: none;"><text text-anchor="middle" transform="translate(480,42.24609375)" style="font-family: sans-serif; font-size: 11px; font-weight: bold; fill: #000; opacity: 1;">Year</text></g></g><path class="foreground" d="" style="pointer-events: none; display: none; fill: none;"></path></g></g><g class="mark-group role-axis"><g transform="translate(0.5,0.5)"><path class="background" d="M0,0h0v0h0Z" style="pointer-events: none; fill: none;"></path><g><g class="mark-rule role-axis-tick" style="pointer-events: none;"><line transform="translate(0,10)" x2="-5" y2="0" style="fill: none; stroke: #888; stroke-width: 1; opacity: 1;"></line><line transform="translate(0,30)" x2="-5" y2="0" style="fill: none; stroke: #888; stroke-width: 1; opacity: 1;"></line><line transform="translate(0,50)" x2="-5" y2="0" style="fill: none; stroke: #888; stroke-width: 1; opacity: 1;"></line><line transform="translate(0,70)" x2="-5" y2="0" style="fill: none; stroke: #888; stroke-width: 1; opacity: 1;"></line><line transform="translate(0,90)" x2="-5" y2="0" style="fill: none; stroke: #888; stroke-width: 1; opacity: 1;"></line><line transform="translate(0,110)" x2="-5" y2="0" style="fill: none; stroke: #888; stroke-width: 1; opacity: 1;"></line><line transform="translate(0,130)" x2="-5" y2="0" style="fill: none; stroke: #888; stroke-width: 1; opacity: 1;"></line><line transform="translate(0,150)" x2="-5" y2="0" style="fill: none; stroke: #888; stroke-width: 1; opacity: 1;"></line><line transform="translate(0,170)" x2="-5" y2="0" style="fill: none; stroke: #888; stroke-width: 1; opacity: 1;"></line><line transform="translate(0,190)" x2="-5" y2="0" style="fill: none; stroke: #888; stroke-width: 1; opacity: 1;"></line><line transform="translate(0,210)" x2="-5" y2="0" style="fill: none; stroke: #888; stroke-width: 1; opacity: 1;"></line></g><g class="mark-text role-axis-label" style="pointer-events: none;"><text text-anchor="end" transform="translate(-7,12.5)" style="font-family: sans-serif; font-size: 10px; fill: #000; opacity: 1;">Paratipo</text><text text-anchor="end" transform="translate(-7,32.5)" style="font-family: sans-serif; font-size: 10px; fill: #000; opacity: 1;">Holotipo</text><text text-anchor="end" transform="translate(-7,52.5)" style="font-family: sans-serif; font-size: 10px; fill: #000; opacity: 1;">Alotipo</text><text text-anchor="end" transform="translate(-7,72.5)" style="font-family: sans-serif; font-size: 10px; fill: #000; opacity: 1;">Neotipo</text><text text-anchor="end" transform="translate(-7,92.5)" style="font-family: sans-serif; font-size: 10px; fill: #000; opacity: 1;">Paralectotipo</text><text text-anchor="end" transform="translate(-7,112.5)" style="font-family: sans-serif; font-size: 10px; fill: #000; opacity: 1;">Sintipo</text><text text-anchor="end" transform="translate(-7,132.5)" style="font-family: sans-serif; font-size: 10px; fill: #000; opacity: 1;">Topotipo</text><text text-anchor="end" transform="translate(-7,152.5)" style="font-family: sans-serif; font-size: 10px; fill: #000; opacity: 1;">Lectotipo</text><text text-anchor="end" transform="translate(-7,172.5)" style="font-family: sans-serif; font-size: 10px; fill: #000; opacity: 1;">Material tipo</text><text text-anchor="end" transform="translate(-7,192.5)" style="font-family: sans-serif; font-size: 10px; fill: #000; opacity: 1;">Tipo</text><text text-anchor="end" transform="translate(-7,212.5)" style="font-family: sans-serif; font-size: 10px; fill: #000; opacity: 1;">Co-tipo</text></g><g class="mark-rule role-axis-domain" style="pointer-events: none;"><line transform="translate(0,0)" x2="0" y2="220" style="fill: none; stroke: #888; stroke-width: 1; opacity: 1;"></line></g><g class="mark-text role-axis-title" style="pointer-events: none;"><text text-anchor="middle" transform="translate(-69.369140625,110) rotate(-90) translate(0,-2)" style="font-family: sans-serif; font-size: 11px; font-weight: bold; fill: #000; opacity: 1;">Type</text></g></g><path class="foreground" d="" style="pointer-events: none; display: none; fill: none;"></path></g></g></g><path class="foreground" d="" style="display: none; fill: none;"></path></g></g></g></svg>