<svg class="marks" width="886" height="292" viewBox="0 0 886 292" version="1.1" xmlns="http://www.w3.org/2000/svg" xmlns:xlink="http://www.w3.org/1999/xlink"><defs><linearGradient id="gradient_0" x1="0" x2="0" y1="1" y2="0"><stop offset="0" stop-color="rgb(239, 249, 189)"></stop><stop offset="0.05333333333333334" stop-color="rgb(228, 245, 184)"></stop><stop offset="0.12" stop-color="rgb(213, 239, 180)"></stop><stop offset="0.18666666666666668" stop-color="rgb(193, 231, 181)"></stop><stop offset="0.25333333333333335" stop-color="rgb(167, 220, 183)"></stop><stop offset="0.32" stop-color="rgb(139, 210, 186)"></stop><stop offset="0.38666666666666666" stop-color="rgb(111, 199, 189)"></stop><stop offset="0.4533333333333333" stop-color="rgb(86, 188, 192)"></stop><stop offset="0.52" stop-color="rgb(64, 176, 194)"></stop><stop offset="0.5866666666666667" stop-color="rgb(47, 161, 192)"></stop><stop offset="0.6533333333333333" stop-color="rgb(38, 143, 188)"></stop><stop offset="0.72" stop-color="rgb(33, 124, 181)"></stop><stop offset="0.7866666666666666" stop-color="rgb(33, 103, 172)"></stop><stop offset="0.8533333333333334" stop-color="rgb(34, 84, 163)"></stop><stop offset="0.92" stop-color="rgb(34, 67, 151)"></stop><stop offset="0.9866666666666667" stop-color="rgb(29, 52, 136)"></stop><stop offset="1" stop-color="rgb(28, 49, 133)"></stop></linearGradient></defs><g transform="translate(86,22)"><g class="mark-group role-frame root"><g transform="translate(0,0)"><path class="background" d="M0.5,0.5h740v220h-740Z" style="fill: none; stroke: #ddd;"></path><g><g class="mark-rect role-mark marks"><path d="M260,40h20v20h-20Z" style="fill: rgb(239, 249, 189);"></path><path d="M560,80h20v20h-20Z" style="fill: rgb(239, 249, 189);"></path><path d="M140,160h20v20h-20Z" style="fill: rgb(239, 249, 189);"></path><path d="M620,160h20v20h-20Z" style="fill: rgb(239, 249, 189);"></path><path d="M540,100h20v20h-20Z" style="fill: rgb(239, 249, 189);"></path><path d="M400,60h20v20h-20Z" style="fill: rgb(239, 249, 189);"></path><path d="M500,60h20v20h-20Z" style="fill: rgb(239, 249, 189);"></path><path d="M540,60h20v20h-20Z" style="fill: rgb(239, 249, 189);"></path><path d="M40,120h20v20h-20Z" style="fill: rgb(239, 249, 189);"></path><path d="M80,120h20v20h-20Z" style="fill: rgb(239, 249, 189);"></path><path d="M280,120h20v20h-20Z" style="fill: rgb(239, 249, 189);"></path><path d="M20,0h20v20h-20Z" style="fill: rgb(239, 249, 189);"></path><path d="M100,0h20v20h-20Z" style="fill: rgb(239, 249, 189);"></path><path d="M120,0h20v20h-20Z" style="fill: rgb(239, 249, 189);"></path><path d="M220,0h20v20h-20Z" style="fill: rgb(239, 249, 189);"></path><path d="M240,0h20v20h-20Z" style="fill: rgb(239, 249, 189);"></path><path d="M300,140h20v20h-20Z" style="fill: rgb(239, 249, 189);"></path><path d="M500,140h20v20h-20Z" style="fill: rgb(239, 249, 189);"></path><path d="M540,140h20v20h-20Z" style="fill: rgb(239, 249, 189);"></path><path d="M300,180h20v20h-20Z" style="fill: rgb(239, 249, 189);"></path><path d="M360,180h20v20h-20Z" style="fill: rgb(239, 249, 189);"></path><path d="M400,100h20v20h-20Z" style="fill: rgb(239, 249, 189);"></path><path d="M460,100h20v20h-20Z" style="fill: rgb(239, 249, 189);"></path><path d="M500,100h20v20h-20Z" style="fill: rgb(239, 249, 189);"></path><path d="M40,80h20v20h-20Z" style="fill: rgb(239, 249, 189);"></path><path d="M480,20h20v20h-20Z" style="fill: rgb(239, 249, 189);"></path><path d="M700,160h20v20h-20Z" style="fill: rgb(239, 249, 189);"></path><path d="M600,40h20v20h-20Z" style="fill: rgb(239, 249, 189);"></path><path d="M160,20h20v20h-20Z" style="fill: rgb(239, 249, 189);"></path><path d="M60,20h20v20h-20Z" style="fill: rgb(239, 249, 189);"></path><path d="M0,20h20v20h-20Z" style="fill: rgb(239, 249, 189);"></path><path d="M300,200h20v20h-20Z" style="fill: rgb(239, 249, 189);"></path><path d="M700,40h20v20h-20Z" style="fill: rgb(239, 249, 189);"></path><path d="M620,40h20v20h-20Z" style="fill: rgb(239, 249, 189);"></path><path d="M220,20h20v20h-20Z" style="fill: rgb(239, 249, 189);"></path><path d="M180,20h20v20h-20Z" style="fill: rgb(239, 249, 189);"></path><path d="M460,40h20v20h-20Z" style="fill: rgb(239, 249, 189);"></path><path d="M440,40h20v20h-20Z" style="fill: rgb(239, 249, 189);"></path><path d="M340,40h20v20h-20Z" style="fill: rgb(239, 249, 189);"></path><path d="M320,40h20v20h-20Z" style="fill: rgb(239, 249, 189);"></path><path d="M480,40h20v20h-20Z" style="fill: rgb(239, 249, 189);"></path><path d="M500,40h20v20h-20Z" style="fill: rgb(236, 248, 188);"></path><path d="M200,0h20v20h-20Z" style="fill: rgb(236, 248, 188);"></path><path d="M260,0h20v20h-20Z" style="fill: rgb(236, 248, 188);"></path><path d="M260,140h20v20h-20Z" style="fill: rgb(236, 248, 188);"></path><path d="M0,0h20v20h-20Z" style="fill: rgb(236, 248, 188);"></path><path d="M300,120h20v20h-20Z" style="fill: rgb(236, 248, 188);"></path><path d="M640,40h20v20h-20Z" style="fill: rgb(236, 248, 188);"></path><path d="M720,40h20v20h-20Z" style="fill: rgb(236, 248, 188);"></path><path d="M300,100h20v20h-20Z" style="fill: rgb(236, 248, 188);"></path><path d="M180,0h20v20h-20Z" style="fill: rgb(236, 248, 188);"></path><path d="M560,100h20v20h-20Z" style="fill: rgb(236, 248, 188);"></path><path d="M700,20h20v20h-20Z" style="fill: rgb(236, 248, 188);"></path><path d="M500,80h20v20h-20Z" style="fill: rgb(236, 248, 188);"></path><path d="M300,60h20v20h-20Z" style="fill: rgb(234, 247, 187);"></path><path d="M720,20h20v20h-20Z" style="fill: rgb(234, 247, 187);"></path><path d="M420,0h20v20h-20Z" style="fill: rgb(234, 247, 187);"></path><path d="M280,40h20v20h-20Z" style="fill: rgb(234, 247, 187);"></path><path d="M620,20h20v20h-20Z" style="fill: rgb(234, 247, 187);"></path><path d="M720,0h20v20h-20Z" style="fill: rgb(234, 247, 187);"></path><path d="M540,20h20v20h-20Z" style="fill: rgb(234, 247, 187);"></path><path d="M520,40h20v20h-20Z" style="fill: rgb(234, 247, 187);"></path><path d="M380,20h20v20h-20Z" style="fill: rgb(231, 246, 185);"></path><path d="M420,20h20v20h-20Z" style="fill: rgb(231, 246, 185);"></path><path d="M320,20h20v20h-20Z" style="fill: rgb(231, 246, 185);"></path><path d="M380,0h20v20h-20Z" style="fill: rgb(231, 246, 185);"></path><path d="M640,20h20v20h-20Z" style="fill: rgb(231, 246, 185);"></path><path d="M400,40h20v20h-20Z" style="fill: rgb(231, 246, 185);"></path><path d="M480,0h20v20h-20Z" style="fill: rgb(228, 245, 184);"></path><path d="M660,40h20v20h-20Z" style="fill: rgb(228, 245, 184);"></path><path d="M660,20h20v20h-20Z" style="fill: rgb(228, 245, 184);"></path><path d="M700,0h20v20h-20Z" style="fill: rgb(228, 245, 184);"></path><path d="M600,20h20v20h-20Z" style="fill: rgb(226, 244, 183);"></path><path d="M440,20h20v20h-20Z" style="fill: rgb(226, 244, 183);"></path><path d="M680,0h20v20h-20Z" style="fill: rgb(226, 244, 183);"></path><path d="M580,20h20v20h-20Z" style="fill: rgb(223, 243, 182);"></path><path d="M440,0h20v20h-20Z" style="fill: rgb(217, 240, 180);"></path><path d="M680,20h20v20h-20Z" style="fill: rgb(217, 240, 180);"></path><path d="M360,40h20v20h-20Z" style="fill: rgb(217, 240, 180);"></path><path d="M660,0h20v20h-20Z" style="fill: rgb(213, 239, 180);"></path><path d="M460,20h20v20h-20Z" style="fill: rgb(209, 237, 180);"></path><path d="M600,0h20v20h-20Z" style="fill: rgb(209, 237, 180);"></path><path d="M320,0h20v20h-20Z" style="fill: rgb(205, 235, 180);"></path><path d="M400,20h20v20h-20Z" style="fill: rgb(197, 232, 181);"></path><path d="M560,20h20v20h-20Z" style="fill: rgb(197, 232, 181);"></path><path d="M540,0h20v20h-20Z" style="fill: rgb(193, 231, 181);"></path><path d="M620,0h20v20h-20Z" style="fill: rgb(184, 227, 182);"></path><path d="M640,0h20v20h-20Z" style="fill: rgb(178, 225, 182);"></path><path d="M360,20h20v20h-20Z" style="fill: rgb(178, 225, 182);"></path><path d="M520,20h20v20h-20Z" style="fill: rgb(151, 214, 185);"></path><path d="M340,20h20v20h-20Z" style="fill: rgb(145, 212, 185);"></path><path d="M500,20h20v20h-20Z" style="fill: rgb(134, 208, 187);"></path><path d="M280,20h20v20h-20Z" style="fill: rgb(134, 208, 187);"></path><path d="M460,0h20v20h-20Z" style="fill: rgb(122, 203, 188);"></path><path d="M560,0h20v20h-20Z" style="fill: rgb(116, 201, 189);"></path><path d="M400,0h20v20h-20Z" style="fill: rgb(57, 170, 193);"></path><path d="M360,0h20v20h-20Z" style="fill: rgb(57, 170, 193);"></path><path d="M300,40h20v20h-20Z" style="fill: rgb(57, 170, 193);"></path><path d="M580,0h20v20h-20Z" style="fill: rgb(44, 158, 192);"></path><path d="M520,0h20v20h-20Z" style="fill: rgb(35, 136, 186);"></path><path d="M340,0h20v20h-20Z" style="fill: rgb(33, 124, 181);"></path><path d="M300,20h20v20h-20Z" style="fill: rgb(33, 99, 170);"></path><path d="M280,0h20v20h-20Z" style="fill: rgb(34, 88, 164);"></path><path d="M500,0h20v20h-20Z" style="fill: rgb(35, 77, 159);"></path><path d="M300,0h20v20h-20Z" style="fill: rgb(28, 49, 133);"></path></g><g class="mark-group role-legend"><g transform="translate(758,0)"><path class="background" d="M0,0h37v216h-37Z" style="pointer-events: none; fill: none;"></path><g><g class="mark-group role-legend-entry"><g transform="translate(0,16)"><path class="background" d="M0,0h0v0h0Z" style="pointer-events: none; fill: none;"></path><g><g class="mark-rect role-legend-gradient" style="pointer-events: none;"><path d="M0,0h16v200h-16Z" style="fill: url(#gradient_0); stroke: #ddd; stroke-width: 0; opacity: 1;"></path></g><g class="mark-text role-legend-label" style="pointer-events: none;"><text text-anchor="start" transform="translate(18,152.33333333333331)" style="font-family: sans-serif; font-size: 10px; fill: #000; opacity: 1;">20</text><text text-anchor="start" transform="translate(18,99)" style="font-family: sans-serif; font-size: 10px; fill: #000; opacity: 1;">40</text><text text-anchor="start" transform="translate(18,45.66666666666667)" style="font-family: sans-serif; font-size: 10px; fill: #000; opacity: 1;">60</text></g></g><path class="foreground" d="" style="pointer-events: none; display: none; fill: none;"></path></g></g><g class="mark-text role-legend-title" style="pointer-events: none;"><text text-anchor="start" transform="translate(0,9)" style="font-family: sans-serif; font-size: 11px; font-weight: bold; fill: #000; opacity: 1;">counts</text></g></g><path class="foreground" d="" style="pointer-events: none; display: none; fill: none;"></path></g></g><g class="mark-group role-title"><g transform="translate(370,-17)"><path class="background" d="M0,0h0v0h0Z" style="pointer-events: none; fill: none;"></path><g><g class="mark-text role-title-text" style="pointer-events: none;"><text text-anchor="middle" transform="translate(0,10)" style="font-family: sans-serif; font-size: 13px; font-weight: bold; fill: #000; opacity: 1;">Number of animals of each type per year</text></g></g><path class="foreground" d="" style="pointer-events: none; display: none; fill: none;"></path></g></g><g class="mark-group role-axis"><g transform="translate(0.5,220.5)"><path class="background" d="M0,0h0v0h0Z" style="pointer-events: none; fill: none;"></path><g><g class="mark-rule role-axis-tick" style="pointer-events: none;"><line transform="translate(10,0)" x2="0" y2="5" style="fill: none; stroke: #888; stroke-width: 1; opacity: 1;"></line><line transform="translate(30,0)" x2="0" y2="5" style="fill: none; stroke: #888; stroke-width: 1; opacity: 1;"></line><line transform="translate(50,0)" x2="0" y2="5" style="fill: none; stroke: #888; stroke-width: 1; opacity: 1;"></line><line transform="translate(70,0)" x2="0" y2="5" style="fill: none; stroke: #888; stroke-width: 1; opacity: 1;"></line><line transform="translate(90,0)" x2="0" y2="5" style="fill: none; stroke: #888; stroke-width: 1; opacity: 1;"></line><line transform="translate(110,0)" x2="0" y2="5" style="fill: none; stroke: #888; stroke-width: 1; opacity: 1;"></line><line transform="translate(130,0)" x2="0" y2="5" style="fill: none; stroke: #888; stroke-width: 1; opacity: 1;"></line><line transform="translate(150,0)" x2="0" y2="5" style="fill: none; stroke: #888; stroke-width: 1; opacity: 1;"></line><line transform="translate(170,0)" x2="0" y2="5" style="fill: none; stroke: #888; stroke-width: 1; opacity: 1;"></line><line transform="translate(190,0)" x2="0" y2="5" style="fill: none; stroke: #888; stroke-width: 1; opacity: 1;"></line><line transform="translate(210,0)" x2="0" y2="5" style="fill: none; stroke: #888; stroke-width: 1; opacity: 1;"></line><line transform="translate(230,0)" x2="0" y2="5" style="fill: none; stroke: #888; stroke-width: 1; opacity: 1;"></line><line transform="translate(250,0)" x2="0" y2="5" style="fill: none; stroke: #888; stroke-width: 1; opacity: 1;"></line><line transform="translate(270,0)" x2="0" y2="5" style="fill: none; stroke: #888; stroke-width: 1; opacity: 1;"></line><line transform="translate(290,0)" x2="0" y2="5" style="fill: none; stroke: #888; stroke-width: 1; opacity: 1;"></line><line transform="translate(310,0)" x2="0" y2="5" style="fill: none; stroke: #888; stroke-width: 1; opacity: 1;"></line><line transform="translate(330,0)" x2="0" y2="5" style="fill: none; stroke: #888; stroke-width: 1; opacity: 1;"></line><line transform="translate(350,0)" x2="0" y2="5" style="fill: none; stroke: #888; stroke-width: 1; opacity: 1;"></line><line transform="translate(370,0)" x2="0" y2="5" style="fill: none; stroke: #888; stroke-width: 1; opacity: 1;"></line><line transform="translate(390,0)" x2="0" y2="5" style="fill: none; stroke: #888; stroke-width: 1; opacity: 1;"></line><line transform="translate(410,0)" x2="0" y2="5" style="fill: none; stroke: #888; stroke-width: 1; opacity: 1;"></line><line transform="translate(430,0)" x2="0" y2="5" style="fill: none; stroke: #888; stroke-width: 1; opacity: 1;"></line><line transform="translate(450,0)" x2="0" y2="5" style="fill: none; stroke: #888; stroke-width: 1; opacity: 1;"></line><line transform="translate(470,0)" x2="0" y2="5" style="fill: none; stroke: #888; stroke-width: 1; opacity: 1;"></line><line transform="translate(490,0)" x2="0" y2="5" style="fill: none; stroke: #888; stroke-width: 1; opacity: 1;"></line><line transform="translate(510,0)" x2="0" y2="5" style="fill: none; stroke: #888; stroke-width: 1; opacity: 1;"></line><line transform="translate(530,0)" x2="0" y2="5" style="fill: none; stroke: #888; stroke-width: 1; opacity: 1;"></line><line transform="translate(550,0)" x2="0" y2="5" style="fill: none; stroke: #888; stroke-width: 1; opacity: 1;"></line><line transform="translate(570,0)" x2="0" y2="5" style="fill: none; stroke: #888; stroke-width: 1; opacity: 1;"></line><line transform="translate(590,0)" x2="0" y2="5" style="fill: none; stroke: #888; stroke-width: 1; opacity: 1;"></line><line transform="translate(610,0)" x2="0" y2="5" style="fill: none; stroke: #888; stroke-width: 1; opacity: 1;"></line><line transform="translate(630,0)" x2="0" y2="5" style="fill: none; stroke: #888; stroke-width: 1; opacity: 1;"></line><line transform="translate(650,0)" x2="0" y2="5" style="fill: none; stroke: #888; stroke-width: 1; opacity: 1;"></line><line transform="translate(670,0)" x2="0" y2="5" style="fill: none; stroke: #888; stroke-width: 1; opacity: 1;"></line><line transform="translate(690,0)" x2="0" y2="5" style="fill: none; stroke: #888; stroke-width: 1; opacity: 1;"></line><line transform="translate(710,0)" x2="0" y2="5" style="fill: none; stroke: #888; stroke-width: 1; opacity: 1;"></line><line transform="translate(730,0)" x2="0" y2="5" style="fill: none; stroke: #888; stroke-width: 1; opacity: 1;"></line></g><g class="mark-text role-axis-label" style="pointer-events: none;"><text text-anchor="end" transform="translate(9.5,7) rotate(270) translate(0,3)" style="font-family: sans-serif; font-size: 10px; fill: #000; opacity: 1;">1900</text><text text-anchor="end" transform="translate(29.5,7) rotate(270) translate(0,3)" style="font-family: sans-serif; font-size: 10px; fill: #000; opacity: 1;">1944</text><text text-anchor="end" transform="translate(49.5,7) rotate(270) translate(0,3)" style="font-family: sans-serif; font-size: 10px; fill: #000; opacity: 1;">1950</text><text text-anchor="end" transform="translate(69.5,7) rotate(270) translate(0,3)" style="font-family: sans-serif; font-size: 10px; fill: #000; opacity: 1;">1952</text><text text-anchor="end" transform="translate(89.5,7) rotate(270) translate(0,3)" style="font-family: sans-serif; font-size: 10px; fill: #000; opacity: 1;">1953</text><text text-anchor="end" transform="translate(109.5,7) rotate(270) translate(0,3)" style="font-family: sans-serif; font-size: 10px; fill: #000; opacity: 1;">1956</text><text text-anchor="end" transform="translate(129.5,7) rotate(270) translate(0,3)" style="font-family: sans-serif; font-size: 10px; fill: #000; opacity: 1;">1964</text><text text-anchor="end" transform="translate(149.5,7) rotate(270) translate(0,3)" style="font-family: sans-serif; font-size: 10px; fill: #000; opacity: 1;">1969</text><text text-anchor="end" transform="translate(169.5,7) rotate(270) translate(0,3)" style="font-family: sans-serif; font-size: 10px; fill: #000; opacity: 1;">1978</text><text text-anchor="end" transform="translate(189.5,7) rotate(270) translate(0,3)" style="font-family: sans-serif; font-size: 10px; fill: #000; opacity: 1;">1980</text><text text-anchor="end" transform="translate(209.5,7) rotate(270) translate(0,3)" style="font-family: sans-serif; font-size: 10px; fill: #000; opacity: 1;">1985</text><text text-anchor="end" transform="translate(229.5,7) rotate(270) translate(0,3)" style="font-family: sans-serif; font-size: 10px; fill: #000; opacity: 1;">1987</text><text text-anchor="end" transform="translate(249.5,7) rotate(270) translate(0,3)" style="font-family: sans-serif; font-size: 10px; fill: #000; opacity: 1;">1992</text><text text-anchor="end" transform="translate(269.5,7) rotate(270) translate(0,3)" style="font-family: sans-serif; font-size: 10px; fill: #000; opacity: 1;">1993</text><text text-anchor="end" transform="translate(289.5,7) rotate(270) translate(0,3)" style="font-family: sans-serif; font-size: 10px; fill: #000; opacity: 1;">1994</text><text text-anchor="end" transform="translate(309.5,7) rotate(270) translate(0,3)" style="font-family: sans-serif; font-size: 10px; fill: #000; opacity: 1;">1995</text><text text-anchor="end" transform="translate(329.5,7) rotate(270) translate(0,3)" style="font-family: sans-serif; font-size: 10px; fill: #000; opacity: 1;">1996</text><text text-anchor="end" transform="translate(349.5,7) rotate(270) translate(0,3)" style="font-family: sans-serif; font-size: 10px; fill: #000; opacity: 1;">1997</text><text text-anchor="end" transform="translate(369.5,7) rotate(270) translate(0,3)" style="font-family: sans-serif; font-size: 10px; fill: #000; opacity: 1;">1998</text><text text-anchor="end" transform="translate(389.5,7) rotate(270) translate(0,3)" style="font-family: sans-serif; font-size: 10px; fill: #000; opacity: 1;">1999</text><text text-anchor="end" transform="translate(409.5,7) rotate(270) translate(0,3)" style="font-family: sans-serif; font-size: 10px; fill: #000; opacity: 1;">2000</text><text text-anchor="end" transform="translate(429.5,7) rotate(270) translate(0,3)" style="font-family: sans-serif; font-size: 10px; fill: #000; opacity: 1;">2001</text><text text-anchor="end" transform="translate(449.5,7) rotate(270) translate(0,3)" style="font-family: sans-serif; font-size: 10px; fill: #000; opacity: 1;">2002</text><text text-anchor="end" transform="translate(469.5,7) rotate(270) translate(0,3)" style="font-family: sans-serif; font-size: 10px; fill: #000; opacity: 1;">2003</text><text text-anchor="end" transform="translate(489.5,7) rotate(270) translate(0,3)" style="font-family: sans-serif; font-size: 10px; fill: #000; opacity: 1;">2004</text><text text-anchor="end" transform="translate(509.5,7) rotate(270) translate(0,3)" style="font-family: sans-serif; font-size: 10px; fill: #000; opacity: 1;">2006</text><text text-anchor="end" transform="translate(529.5,7) rotate(270) translate(0,3)" style="font-family: sans-serif; font-size: 10px; fill: #000; opacity: 1;">2007</text><text text-anchor="end" transform="translate(549.5,7) rotate(270) translate(0,3)" style="font-family: sans-serif; font-size: 10px; fill: #000; opacity: 1;">2008</text><text text-anchor="end" transform="translate(569.5,7) rotate(270) translate(0,3)" style="font-family: sans-serif; font-size: 10px; fill: #000; opacity: 1;">2009</text><text text-anchor="end" transform="translate(589.5,7) rotate(270) translate(0,3)" style="font-family: sans-serif; font-size: 10px; fill: #000; opacity: 1;">2010</text><text text-anchor="end" transform="translate(609.5,7) rotate(270) translate(0,3)" style="font-family: sans-serif; font-size: 10px; fill: #000; opacity: 1;">2011</text><text text-anchor="end" transform="translate(629.5,7) rotate(270) translate(0,3)" style="font-family: sans-serif; font-size: 10px; fill: #000; opacity: 1;">2012</text><text text-anchor="end" transform="translate(649.5,7) rotate(270) translate(0,3)" style="font-family: sans-serif; font-size: 10px; fill: #000; opacity: 1;">2013</text><text text-anchor="end" transform="translate(669.5,7) rotate(270) translate(0,3)" style="font-family: sans-serif; font-size: 10px; fill: #000; opacity: 1;">2014</text><text text-anchor="end" transform="translate(689.5,7) rotate(270) translate(0,3)" style="font-family: sans-serif; font-size: 10px; fill: #000; opacity: 1;">2015</text><text text-anchor="end" transform="translate(709.5,7) rotate(270) translate(0,3)" style="font-family: sans-serif; font-size: 10px; fill: #000; opacity: 1;">2016</text><text text-anchor="end" transform="translate(729.5,7) rotate(270) translate(0,3)" style="font-family: sans-serif; font-size: 10px; fill: #000; opacity: 1;">2017</text></g><g class="mark-rule role-axis-domain" style="pointer-events: none;"><line transform="translate(0,0)" x2="740" y2="0" style="fill: none; stroke: #888; stroke-width: 1; opacity: 1;"></line></g><g class="mark-text role-axis-title" style="pointer-events: none;"><text text-anchor="middle" transform="translate(370,42.24609375)" style="font-family: sans-serif; font-size: 11px; font-weight: bold; fill: #000; opacity: 1;">Year</text></g></g><path class="foreground" d="" style="pointer-events: none; display: none; fill: none;"></path></g></g><g class="mark-group role-axis"><g transform="translate(0.5,0.5)"><path class="background" d="M0,0h0v0h0Z" style="pointer-events: none; fill: none;"></path><g><g class="mark-rule role-axis-tick" style="pointer-events: none;"><line transform="translate(0,10)" x2="-5" y2="0" style="fill: none; stroke: #888; stroke-width: 1; opacity: 1;"></line><line transform="translate(0,30)" x2="-5" y2="0" style="fill: none; stroke: #888; stroke-width: 1; opacity: 1;"></line><line transform="translate(0,50)" x2="-5" y2="0" style="fill: none; stroke: #888; stroke-width: 1; opacity: 1;"></line><line transform="translate(0,70)" x2="-5" y2="0" style="fill: none; stroke: #888; stroke-width: 1; opacity: 1;"></line><line transform="translate(0,90)" x2="-5" y2="0" style="fill: none; stroke: #888; stroke-width: 1; opacity: 1;"></line><line transform="translate(0,110)" x2="-5" y2="0" style="fill: none; stroke: #888; stroke-width: 1; opacity: 1;"></line><line transform="translate(0,130)" x2="-5" y2="0" style="fill: none; stroke: #888; stroke-width: 1; opacity: 1;"></line><line transform="translate(0,150)" x2="-5" y2="0" style="fill: none; stroke: #888; stroke-width: 1; opacity: 1;"></line><line transform="translate(0,170)" x2="-5" y2="0" style="fill: none; stroke: #888; stroke-width: 1; opacity: 1;"></line><line transform="translate(0,190)" x2="-5" y2="0" style="fill: none; stroke: #888; stroke-width: 1; opacity: 1;"></line><line transform="translate(0,210)" x2="-5" y2="0" style="fill: none; stroke: #888; stroke-width: 1; opacity: 1;"></line></g><g class="mark-text role-axis-label" style="pointer-events: none;"><text text-anchor="end" transform="translate(-7,12.5)" style="font-family: sans-serif; font-size: 10px; fill: #000; opacity: 1;">Paratipo</text><text text-anchor="end" transform="translate(-7,32.5)" style="font-family: sans-serif; font-size: 10px; fill: #000; opacity: 1;">Holotipo</text><text text-anchor="end" transform="translate(-7,52.5)" style="font-family: sans-serif; font-size: 10px; fill: #000; opacity: 1;">Alotipo</text><text text-anchor="end" transform="translate(-7,72.5)" style="font-family: sans-serif; font-size: 10px; fill: #000; opacity: 1;">Neotipo</text><text text-anchor="end" transform="translate(-7,92.5)" style="font-family: sans-serif; font-size: 10px; fill: #000; opacity: 1;">Lectotipo</text><text text-anchor="end" transform="translate(-7,112.5)" style="font-family: sans-serif; font-size: 10px; fill: #000; opacity: 1;">Topotipo</text><text text-anchor="end" transform="translate(-7,132.5)" style="font-family: sans-serif; font-size: 10px; fill: #000; opacity: 1;">Paralectotipo</text><text text-anchor="end" transform="translate(-7,152.5)" style="font-family: sans-serif; font-size: 10px; fill: #000; opacity: 1;">Sintipo</text><text text-anchor="end" transform="translate(-7,172.5)" style="font-family: sans-serif; font-size: 10px; fill: #000; opacity: 1;">Material tipo</text><text text-anchor="end" transform="translate(-7,192.5)" style="font-family: sans-serif; font-size: 10px; fill: #000; opacity: 1;">Tipo</text><text text-anchor="end" transform="translate(-7,212.5)" style="font-family: sans-serif; font-size: 10px; fill: #000; opacity: 1;">Co-tipo</text></g><g class="mark-rule role-axis-domain" style="pointer-events: none;"><line transform="translate(0,0)" x2="0" y2="220" style="fill: none; stroke: #888; stroke-width: 1; opacity: 1;"></line></g><g class="mark-text role-axis-title" style="pointer-events: none;"><text text-anchor="middle" transform="translate(-69.369140625,110) rotate(-90) translate(0,-2)" style="font-family: sans-serif; font-size: 11px; font-weight: bold; fill: #000; opacity: 1;">Type</text></g></g><path class="foreground" d="" style="pointer-events: none; display: none; fill: none;"></path></g></g></g><path class="foreground" d="" style="display: none; fill: none;"></path></g></g></g></svg>