<svg class="marks" width="434" height="537" viewBox="0 0 434 537" version="1.1" xmlns="http://www.w3.org/2000/svg" xmlns:xlink="http://www.w3.org/1999/xlink"><g transform="translate(159,22)"><g class="mark-group role-frame root"><g transform="translate(0,0)"><path class="background" d="M0.5,0.5h200v450h-200Z" style="fill: none; stroke: #ddd;"></path><g><g class="mark-symbol role-mark marks"><path transform="translate(100,247.5)" d="M-2.7386127875258306,-2.7386127875258306h5.477225575051661v5.477225575051661h-5.477225575051661Z" style="fill: rgb(116, 178, 215); stroke-width: 2; opacity: 0.7;"></path><path transform="translate(166.66666666666669,247.5)" d="M-2.7386127875258306,-2.7386127875258306h5.477225575051661v5.477225575051661h-5.477225575051661Z" style="fill: rgb(116, 178, 215); stroke-width: 2; opacity: 0.7;"></path><path transform="translate(166.66666666666669,247.5)" d="M-2.7386127875258306,-2.7386127875258306h5.477225575051661v5.477225575051661h-5.477225575051661Z" style="fill: rgb(116, 178, 215); stroke-width: 2; opacity: 0.7;"></path><path transform="translate(166.66666666666669,247.5)" d="M-2.7386127875258306,-2.7386127875258306h5.477225575051661v5.477225575051661h-5.477225575051661Z" style="fill: rgb(116, 178, 215); stroke-width: 2; opacity: 0.7;"></path><path transform="translate(100,232.5)" d="M-2.7386127875258306,-2.7386127875258306h5.477225575051661v5.477225575051661h-5.477225575051661Z" style="fill: rgb(91, 163, 207); stroke-width: 2; opacity: 0.7;"></path><path transform="translate(166.66666666666669,232.5)" d="M-2.7386127875258306,-2.7386127875258306h5.477225575051661v5.477225575051661h-5.477225575051661Z" style="fill: rgb(91, 163, 207); stroke-width: 2; opacity: 0.7;"></path><path transform="translate(100,367.5)" d="M-2.7386127875258306,-2.7386127875258306h5.477225575051661v5.477225575051661h-5.477225575051661Z" style="fill: rgb(190, 216, 236); stroke-width: 2; opacity: 0.7;"></path><path transform="translate(166.66666666666669,367.5)" d="M-2.7386127875258306,-2.7386127875258306h5.477225575051661v5.477225575051661h-5.477225575051661Z" style="fill: rgb(190, 216, 236); stroke-width: 2; opacity: 0.7;"></path><path transform="translate(33.33333333333333,367.5)" d="M-2.7386127875258306,-2.7386127875258306h5.477225575051661v5.477225575051661h-5.477225575051661Z" style="fill: rgb(190, 216, 236); stroke-width: 2; opacity: 0.7;"></path><path transform="translate(100,37.5)" d="M-2.7386127875258306,-2.7386127875258306h5.477225575051661v5.477225575051661h-5.477225575051661Z" style="fill: rgb(69, 146, 198); stroke-width: 2; opacity: 0.7;"></path><path transform="translate(100,382.5)" d="M-2.7386127875258306,-2.7386127875258306h5.477225575051661v5.477225575051661h-5.477225575051661Z" style="fill: rgb(69, 146, 198); stroke-width: 2; opacity: 0.7;"></path><path transform="translate(166.66666666666669,382.5)" d="M-2.7386127875258306,-2.7386127875258306h5.477225575051661v5.477225575051661h-5.477225575051661Z" style="fill: rgb(69, 146, 198); stroke-width: 2; opacity: 0.7;"></path><path transform="translate(100,112.5)" d="M-2.7386127875258306,-2.7386127875258306h5.477225575051661v5.477225575051661h-5.477225575051661Z" style="fill: rgb(69, 146, 198); stroke-width: 2; opacity: 0.7;"></path><path transform="translate(100,397.5)" d="M-2.7386127875258306,-2.7386127875258306h5.477225575051661v5.477225575051661h-5.477225575051661Z" style="fill: rgb(49, 129, 189); stroke-width: 2; opacity: 0.7;"></path><path transform="translate(166.66666666666669,397.5)" d="M-2.7386127875258306,-2.7386127875258306h5.477225575051661v5.477225575051661h-5.477225575051661Z" style="fill: rgb(49, 129, 189); stroke-width: 2; opacity: 0.7;"></path><path transform="translate(100,202.5)" d="M-2.7386127875258306,-2.7386127875258306h5.477225575051661v5.477225575051661h-5.477225575051661Z" style="fill: rgb(69, 146, 198); stroke-width: 2; opacity: 0.7;"></path><path transform="translate(166.66666666666669,202.5)" d="M-2.7386127875258306,-2.7386127875258306h5.477225575051661v5.477225575051661h-5.477225575051661Z" style="fill: rgb(69, 146, 198); stroke-width: 2; opacity: 0.7;"></path><path transform="translate(100,277.5)" d="M-2.7386127875258306,-2.7386127875258306h5.477225575051661v5.477225575051661h-5.477225575051661Z" style="fill: rgb(69, 146, 198); stroke-width: 2; opacity: 0.7;"></path><path transform="translate(166.66666666666669,277.5)" d="M-2.7386127875258306,-2.7386127875258306h5.477225575051661v5.477225575051661h-5.477225575051661Z" style="fill: rgb(69, 146, 198); stroke-width: 2; opacity: 0.7;"></path><path transform="translate(166.66666666666669,277.5)" d="M-2.7386127875258306,-2.7386127875258306h5.477225575051661v5.477225575051661h-5.477225575051661Z" style="fill: rgb(49, 129, 189); stroke-width: 2; opacity: 0.7;"></path><path transform="translate(100,82.5)" d="M-2.7386127875258306,-2.7386127875258306h5.477225575051661v5.477225575051661h-5.477225575051661Z" style="fill: rgb(69, 146, 198); stroke-width: 2; opacity: 0.7;"></path><path transform="translate(166.66666666666669,82.5)" d="M-2.7386127875258306,-2.7386127875258306h5.477225575051661v5.477225575051661h-5.477225575051661Z" style="fill: rgb(69, 146, 198); stroke-width: 2; opacity: 0.7;"></path><path transform="translate(166.66666666666669,82.5)" d="M-2.7386127875258306,-2.7386127875258306h5.477225575051661v5.477225575051661h-5.477225575051661Z" style="fill: rgb(69, 146, 198); stroke-width: 2; opacity: 0.7;"></path><path transform="translate(100,67.5)" d="M-2.7386127875258306,-2.7386127875258306h5.477225575051661v5.477225575051661h-5.477225575051661Z" style="fill: rgb(69, 146, 198); stroke-width: 2; opacity: 0.7;"></path><path transform="translate(166.66666666666669,67.5)" d="M-2.7386127875258306,-2.7386127875258306h5.477225575051661v5.477225575051661h-5.477225575051661Z" style="fill: rgb(69, 146, 198); stroke-width: 2; opacity: 0.7;"></path><path transform="translate(100,442.5)" d="M-2.7386127875258306,-2.7386127875258306h5.477225575051661v5.477225575051661h-5.477225575051661Z" style="fill: rgb(49, 129, 189); stroke-width: 2; opacity: 0.7;"></path><path transform="translate(166.66666666666669,82.5)" d="M-2.7386127875258306,-2.7386127875258306h5.477225575051661v5.477225575051661h-5.477225575051661Z" style="fill: rgb(49, 129, 189); stroke-width: 2; opacity: 0.7;"></path><path transform="translate(166.66666666666669,112.5)" d="M-2.7386127875258306,-2.7386127875258306h5.477225575051661v5.477225575051661h-5.477225575051661Z" style="fill: rgb(69, 146, 198); stroke-width: 2; opacity: 0.7;"></path><path transform="translate(166.66666666666669,37.5)" d="M-2.7386127875258306,-2.7386127875258306h5.477225575051661v5.477225575051661h-5.477225575051661Z" style="fill: rgb(69, 146, 198); stroke-width: 2; opacity: 0.7;"></path><path transform="translate(166.66666666666669,37.5)" d="M-2.7386127875258306,-2.7386127875258306h5.477225575051661v5.477225575051661h-5.477225575051661Z" style="fill: rgb(32, 111, 178); stroke-width: 2; opacity: 0.7;"></path><path transform="translate(100,142.5)" d="M-2.7386127875258306,-2.7386127875258306h5.477225575051661v5.477225575051661h-5.477225575051661Z" style="fill: rgb(69, 146, 198); stroke-width: 2; opacity: 0.7;"></path><path transform="translate(100,352.5)" d="M-2.7386127875258306,-2.7386127875258306h5.477225575051661v5.477225575051661h-5.477225575051661Z" style="fill: rgb(69, 146, 198); stroke-width: 2; opacity: 0.7;"></path><path transform="translate(166.66666666666669,352.5)" d="M-2.7386127875258306,-2.7386127875258306h5.477225575051661v5.477225575051661h-5.477225575051661Z" style="fill: rgb(69, 146, 198); stroke-width: 2; opacity: 0.7;"></path><path transform="translate(166.66666666666669,352.5)" d="M-2.7386127875258306,-2.7386127875258306h5.477225575051661v5.477225575051661h-5.477225575051661Z" style="fill: rgb(49, 129, 189); stroke-width: 2; opacity: 0.7;"></path><path transform="translate(166.66666666666669,352.5)" d="M-2.7386127875258306,-2.7386127875258306h5.477225575051661v5.477225575051661h-5.477225575051661Z" style="fill: rgb(49, 129, 189); stroke-width: 2; opacity: 0.7;"></path><path transform="translate(166.66666666666669,442.5)" d="M-2.7386127875258306,-2.7386127875258306h5.477225575051661v5.477225575051661h-5.477225575051661Z" style="fill: rgb(49, 129, 189); stroke-width: 2; opacity: 0.7;"></path><path transform="translate(166.66666666666669,442.5)" d="M-2.7386127875258306,-2.7386127875258306h5.477225575051661v5.477225575051661h-5.477225575051661Z" style="fill: rgb(49, 129, 189); stroke-width: 2; opacity: 0.7;"></path><path transform="translate(166.66666666666669,442.5)" d="M-2.7386127875258306,-2.7386127875258306h5.477225575051661v5.477225575051661h-5.477225575051661Z" style="fill: rgb(49, 129, 189); stroke-width: 2; opacity: 0.7;"></path><path transform="translate(166.66666666666669,442.5)" d="M-2.7386127875258306,-2.7386127875258306h5.477225575051661v5.477225575051661h-5.477225575051661Z" style="fill: rgb(49, 129, 189); stroke-width: 2; opacity: 0.7;"></path><path transform="translate(166.66666666666669,397.5)" d="M-2.7386127875258306,-2.7386127875258306h5.477225575051661v5.477225575051661h-5.477225575051661Z" style="fill: rgb(49, 129, 189); stroke-width: 2; opacity: 0.7;"></path><path transform="translate(33.33333333333333,397.5)" d="M-2.7386127875258306,-2.7386127875258306h5.477225575051661v5.477225575051661h-5.477225575051661Z" style="fill: rgb(49, 129, 189); stroke-width: 2; opacity: 0.7;"></path><path transform="translate(166.66666666666669,397.5)" d="M-2.7386127875258306,-2.7386127875258306h5.477225575051661v5.477225575051661h-5.477225575051661Z" style="fill: rgb(49, 129, 189); stroke-width: 2; opacity: 0.7;"></path><path transform="translate(100,427.5)" d="M-2.7386127875258306,-2.7386127875258306h5.477225575051661v5.477225575051661h-5.477225575051661Z" style="fill: rgb(18, 92, 164); stroke-width: 2; opacity: 0.7;"></path><path transform="translate(33.33333333333333,7.5)" d="M-2.7386127875258306,-2.7386127875258306h5.477225575051661v5.477225575051661h-5.477225575051661Z" style="fill: rgb(18, 92, 164); stroke-width: 2; opacity: 0.7;"></path><path transform="translate(100,52.5)" d="M-2.7386127875258306,-2.7386127875258306h5.477225575051661v5.477225575051661h-5.477225575051661Z" style="fill: rgb(18, 92, 164); stroke-width: 2; opacity: 0.7;"></path><path transform="translate(166.66666666666669,52.5)" d="M-2.7386127875258306,-2.7386127875258306h5.477225575051661v5.477225575051661h-5.477225575051661Z" style="fill: rgb(18, 92, 164); stroke-width: 2; opacity: 0.7;"></path><path transform="translate(166.66666666666669,52.5)" d="M-2.7386127875258306,-2.7386127875258306h5.477225575051661v5.477225575051661h-5.477225575051661Z" style="fill: rgb(18, 92, 164); stroke-width: 2; opacity: 0.7;"></path><path transform="translate(33.33333333333333,52.5)" d="M-2.7386127875258306,-2.7386127875258306h5.477225575051661v5.477225575051661h-5.477225575051661Z" style="fill: rgb(18, 92, 164); stroke-width: 2; opacity: 0.7;"></path><path transform="translate(166.66666666666669,52.5)" d="M-2.7386127875258306,-2.7386127875258306h5.477225575051661v5.477225575051661h-5.477225575051661Z" style="fill: rgb(18, 92, 164); stroke-width: 2; opacity: 0.7;"></path><path transform="translate(100,7.5)" d="M-2.7386127875258306,-2.7386127875258306h5.477225575051661v5.477225575051661h-5.477225575051661Z" style="fill: rgb(18, 92, 164); stroke-width: 2; opacity: 0.7;"></path><path transform="translate(166.66666666666669,52.5)" d="M-2.7386127875258306,-2.7386127875258306h5.477225575051661v5.477225575051661h-5.477225575051661Z" style="fill: rgb(18, 92, 164); stroke-width: 2; opacity: 0.7;"></path><path transform="translate(100,127.5)" d="M-2.7386127875258306,-2.7386127875258306h5.477225575051661v5.477225575051661h-5.477225575051661Z" style="fill: rgb(49, 129, 189); stroke-width: 2; opacity: 0.7;"></path><path transform="translate(100,157.5)" d="M-2.7386127875258306,-2.7386127875258306h5.477225575051661v5.477225575051661h-5.477225575051661Z" style="fill: rgb(32, 111, 178); stroke-width: 2; opacity: 0.7;"></path><path transform="translate(33.33333333333333,157.5)" d="M-2.7386127875258306,-2.7386127875258306h5.477225575051661v5.477225575051661h-5.477225575051661Z" style="fill: rgb(32, 111, 178); stroke-width: 2; opacity: 0.7;"></path><path transform="translate(166.66666666666669,157.5)" d="M-2.7386127875258306,-2.7386127875258306h5.477225575051661v5.477225575051661h-5.477225575051661Z" style="fill: rgb(32, 111, 178); stroke-width: 2; opacity: 0.7;"></path><path transform="translate(166.66666666666669,157.5)" d="M-2.7386127875258306,-2.7386127875258306h5.477225575051661v5.477225575051661h-5.477225575051661Z" style="fill: rgb(32, 111, 178); stroke-width: 2; opacity: 0.7;"></path><path transform="translate(166.66666666666669,157.5)" d="M-2.7386127875258306,-2.7386127875258306h5.477225575051661v5.477225575051661h-5.477225575051661Z" style="fill: rgb(32, 111, 178); stroke-width: 2; opacity: 0.7;"></path><path transform="translate(166.66666666666669,157.5)" d="M-2.7386127875258306,-2.7386127875258306h5.477225575051661v5.477225575051661h-5.477225575051661Z" style="fill: rgb(32, 111, 178); stroke-width: 2; opacity: 0.7;"></path><path transform="translate(166.66666666666669,127.5)" d="M-2.7386127875258306,-2.7386127875258306h5.477225575051661v5.477225575051661h-5.477225575051661Z" style="fill: rgb(32, 111, 178); stroke-width: 2; opacity: 0.7;"></path><path transform="translate(100,97.5)" d="M-2.7386127875258306,-2.7386127875258306h5.477225575051661v5.477225575051661h-5.477225575051661Z" style="fill: rgb(32, 111, 178); stroke-width: 2; opacity: 0.7;"></path><path transform="translate(33.33333333333333,97.5)" d="M-2.7386127875258306,-2.7386127875258306h5.477225575051661v5.477225575051661h-5.477225575051661Z" style="fill: rgb(32, 111, 178); stroke-width: 2; opacity: 0.7;"></path><path transform="translate(166.66666666666669,97.5)" d="M-2.7386127875258306,-2.7386127875258306h5.477225575051661v5.477225575051661h-5.477225575051661Z" style="fill: rgb(32, 111, 178); stroke-width: 2; opacity: 0.7;"></path><path transform="translate(166.66666666666669,97.5)" d="M-2.7386127875258306,-2.7386127875258306h5.477225575051661v5.477225575051661h-5.477225575051661Z" style="fill: rgb(32, 111, 178); stroke-width: 2; opacity: 0.7;"></path><path transform="translate(100,172.5)" d="M-2.7386127875258306,-2.7386127875258306h5.477225575051661v5.477225575051661h-5.477225575051661Z" style="fill: rgb(18, 92, 164); stroke-width: 2; opacity: 0.7;"></path><path transform="translate(33.33333333333333,172.5)" d="M-2.7386127875258306,-2.7386127875258306h5.477225575051661v5.477225575051661h-5.477225575051661Z" style="fill: rgb(18, 92, 164); stroke-width: 2; opacity: 0.7;"></path><path transform="translate(166.66666666666669,172.5)" d="M-2.7386127875258306,-2.7386127875258306h5.477225575051661v5.477225575051661h-5.477225575051661Z" style="fill: rgb(49, 129, 189); stroke-width: 2; opacity: 0.7;"></path><path transform="translate(166.66666666666669,262.5)" d="M-2.7386127875258306,-2.7386127875258306h5.477225575051661v5.477225575051661h-5.477225575051661Z" style="fill: rgb(168, 206, 229); stroke-width: 2; opacity: 0.7;"></path><path transform="translate(166.66666666666669,412.5)" d="M-2.7386127875258306,-2.7386127875258306h5.477225575051661v5.477225575051661h-5.477225575051661Z" style="fill: rgb(143, 193, 222); stroke-width: 2; opacity: 0.7;"></path><path transform="translate(166.66666666666669,337.5)" d="M-2.7386127875258306,-2.7386127875258306h5.477225575051661v5.477225575051661h-5.477225575051661Z" style="fill: rgb(49, 129, 189); stroke-width: 2; opacity: 0.7;"></path><path transform="translate(166.66666666666669,187.5)" d="M-2.7386127875258306,-2.7386127875258306h5.477225575051661v5.477225575051661h-5.477225575051661Z" style="fill: rgb(143, 193, 222); stroke-width: 2; opacity: 0.7;"></path><path transform="translate(166.66666666666669,322.5)" d="M-2.7386127875258306,-2.7386127875258306h5.477225575051661v5.477225575051661h-5.477225575051661Z" style="fill: rgb(143, 193, 222); stroke-width: 2; opacity: 0.7;"></path><path transform="translate(166.66666666666669,22.5)" d="M-2.7386127875258306,-2.7386127875258306h5.477225575051661v5.477225575051661h-5.477225575051661Z" style="fill: rgb(49, 129, 189); stroke-width: 2; opacity: 0.7;"></path><path transform="translate(100,217.5)" d="M-2.7386127875258306,-2.7386127875258306h5.477225575051661v5.477225575051661h-5.477225575051661Z" style="fill: rgb(91, 163, 207); stroke-width: 2; opacity: 0.7;"></path><path transform="translate(33.33333333333333,217.5)" d="M-2.7386127875258306,-2.7386127875258306h5.477225575051661v5.477225575051661h-5.477225575051661Z" style="fill: rgb(91, 163, 207); stroke-width: 2; opacity: 0.7;"></path><path transform="translate(166.66666666666669,217.5)" d="M-2.7386127875258306,-2.7386127875258306h5.477225575051661v5.477225575051661h-5.477225575051661Z" style="fill: rgb(91, 163, 207); stroke-width: 2; opacity: 0.7;"></path><path transform="translate(100,292.5)" d="M-2.7386127875258306,-2.7386127875258306h5.477225575051661v5.477225575051661h-5.477225575051661Z" style="fill: rgb(18, 92, 164); stroke-width: 2; opacity: 0.7;"></path><path transform="translate(100,292.5)" d="M-2.7386127875258306,-2.7386127875258306h5.477225575051661v5.477225575051661h-5.477225575051661Z" style="fill: rgb(18, 92, 164); stroke-width: 2; opacity: 0.7;"></path><path transform="translate(33.33333333333333,307.5)" d="M-2.7386127875258306,-2.7386127875258306h5.477225575051661v5.477225575051661h-5.477225575051661Z" style="fill: rgb(18, 92, 164); stroke-width: 2; opacity: 0.7;"></path><path transform="translate(166.66666666666669,307.5)" d="M-2.7386127875258306,-2.7386127875258306h5.477225575051661v5.477225575051661h-5.477225575051661Z" style="fill: rgb(18, 92, 164); stroke-width: 2; opacity: 0.7;"></path><path transform="translate(100,307.5)" d="M-2.7386127875258306,-2.7386127875258306h5.477225575051661v5.477225575051661h-5.477225575051661Z" style="fill: rgb(18, 92, 164); stroke-width: 2; opacity: 0.7;"></path></g><g class="mark-group role-legend"><g transform="translate(218,0)"><path class="background" d="M0,0h52v131h-52Z" style="pointer-events: none; fill: none;"></path><g><g class="mark-group role-legend-entry"><g transform="translate(0,16)"><path class="background" d="M0,0h0v0h0Z" style="pointer-events: none; fill: none;"></path><g><g class="mark-group role-scope"><g transform="translate(0,0)"><path class="background" d="M0,0h38.24609375v11h-38.24609375Z" style="pointer-events: none; fill: none; opacity: 1;"></path><g><g class="mark-symbol role-legend-symbol" style="pointer-events: none;"><path transform="translate(6,6)" d="M-5,-5h10v10h-10Z" style="fill: rgb(190, 216, 236); stroke-width: 1.5; opacity: 0.7;"></path></g><g class="mark-text role-legend-label" style="pointer-events: none;"><text text-anchor="start" transform="translate(16,9)" style="font-family: sans-serif; font-size: 10px; fill: #000; opacity: 1;">1910</text></g></g><path class="foreground" d="" style="pointer-events: none; display: none; fill: none;"></path></g><g transform="translate(0,13)"><path class="background" d="M0,0h38.24609375v11h-38.24609375Z" style="pointer-events: none; fill: none; opacity: 1;"></path><g><g class="mark-symbol role-legend-symbol" style="pointer-events: none;"><path transform="translate(6,6)" d="M-5,-5h10v10h-10Z" style="fill: rgb(168, 206, 229); stroke-width: 1.5; opacity: 0.7;"></path></g><g class="mark-text role-legend-label" style="pointer-events: none;"><text text-anchor="start" transform="translate(16,9)" style="font-family: sans-serif; font-size: 10px; fill: #000; opacity: 1;">1959</text></g></g><path class="foreground" d="" style="pointer-events: none; display: none; fill: none;"></path></g><g transform="translate(0,26)"><path class="background" d="M0,0h38.24609375v11h-38.24609375Z" style="pointer-events: none; fill: none; opacity: 1;"></path><g><g class="mark-symbol role-legend-symbol" style="pointer-events: none;"><path transform="translate(6,6)" d="M-5,-5h10v10h-10Z" style="fill: rgb(143, 193, 222); stroke-width: 1.5; opacity: 0.7;"></path></g><g class="mark-text role-legend-label" style="pointer-events: none;"><text text-anchor="start" transform="translate(16,9)" style="font-family: sans-serif; font-size: 10px; fill: #000; opacity: 1;">1975</text></g></g><path class="foreground" d="" style="pointer-events: none; display: none; fill: none;"></path></g><g transform="translate(0,39)"><path class="background" d="M0,0h38.24609375v11h-38.24609375Z" style="pointer-events: none; fill: none; opacity: 1;"></path><g><g class="mark-symbol role-legend-symbol" style="pointer-events: none;"><path transform="translate(6,6)" d="M-5,-5h10v10h-10Z" style="fill: rgb(116, 178, 215); stroke-width: 1.5; opacity: 0.7;"></path></g><g class="mark-text role-legend-label" style="pointer-events: none;"><text text-anchor="start" transform="translate(16,9)" style="font-family: sans-serif; font-size: 10px; fill: #000; opacity: 1;">1991</text></g></g><path class="foreground" d="" style="pointer-events: none; display: none; fill: none;"></path></g><g transform="translate(0,52)"><path class="background" d="M0,0h38.24609375v11h-38.24609375Z" style="pointer-events: none; fill: none; opacity: 1;"></path><g><g class="mark-symbol role-legend-symbol" style="pointer-events: none;"><path transform="translate(6,6)" d="M-5,-5h10v10h-10Z" style="fill: rgb(91, 163, 207); stroke-width: 1.5; opacity: 0.7;"></path></g><g class="mark-text role-legend-label" style="pointer-events: none;"><text text-anchor="start" transform="translate(16,9)" style="font-family: sans-serif; font-size: 10px; fill: #000; opacity: 1;">1992</text></g></g><path class="foreground" d="" style="pointer-events: none; display: none; fill: none;"></path></g><g transform="translate(0,65)"><path class="background" d="M0,0h38.24609375v11h-38.24609375Z" style="pointer-events: none; fill: none; opacity: 1;"></path><g><g class="mark-symbol role-legend-symbol" style="pointer-events: none;"><path transform="translate(6,6)" d="M-5,-5h10v10h-10Z" style="fill: rgb(69, 146, 198); stroke-width: 1.5; opacity: 0.7;"></path></g><g class="mark-text role-legend-label" style="pointer-events: none;"><text text-anchor="start" transform="translate(16,9)" style="font-family: sans-serif; font-size: 10px; fill: #000; opacity: 1;">1994</text></g></g><path class="foreground" d="" style="pointer-events: none; display: none; fill: none;"></path></g><g transform="translate(0,78)"><path class="background" d="M0,0h38.24609375v11h-38.24609375Z" style="pointer-events: none; fill: none; opacity: 1;"></path><g><g class="mark-symbol role-legend-symbol" style="pointer-events: none;"><path transform="translate(6,6)" d="M-5,-5h10v10h-10Z" style="fill: rgb(49, 129, 189); stroke-width: 1.5; opacity: 0.7;"></path></g><g class="mark-text role-legend-label" style="pointer-events: none;"><text text-anchor="start" transform="translate(16,9)" style="font-family: sans-serif; font-size: 10px; fill: #000; opacity: 1;">1995</text></g></g><path class="foreground" d="" style="pointer-events: none; display: none; fill: none;"></path></g><g transform="translate(0,91)"><path class="background" d="M0,0h38.24609375v11h-38.24609375Z" style="pointer-events: none; fill: none; opacity: 1;"></path><g><g class="mark-symbol role-legend-symbol" style="pointer-events: none;"><path transform="translate(6,6)" d="M-5,-5h10v10h-10Z" style="fill: rgb(32, 111, 178); stroke-width: 1.5; opacity: 0.7;"></path></g><g class="mark-text role-legend-label" style="pointer-events: none;"><text text-anchor="start" transform="translate(16,9)" style="font-family: sans-serif; font-size: 10px; fill: #000; opacity: 1;">1996</text></g></g><path class="foreground" d="" style="pointer-events: none; display: none; fill: none;"></path></g><g transform="translate(0,104)"><path class="background" d="M0,0h38.24609375v11h-38.24609375Z" style="pointer-events: none; fill: none; opacity: 1;"></path><g><g class="mark-symbol role-legend-symbol" style="pointer-events: none;"><path transform="translate(6,6)" d="M-5,-5h10v10h-10Z" style="fill: rgb(18, 92, 164); stroke-width: 1.5; opacity: 0.7;"></path></g><g class="mark-text role-legend-label" style="pointer-events: none;"><text text-anchor="start" transform="translate(16,9)" style="font-family: sans-serif; font-size: 10px; fill: #000; opacity: 1;">1997</text></g></g><path class="foreground" d="" style="pointer-events: none; display: none; fill: none;"></path></g></g></g><path class="foreground" d="" style="pointer-events: none; display: none; fill: none;"></path></g></g><g class="mark-text role-legend-title" style="pointer-events: none;"><text text-anchor="start" transform="translate(0,9)" style="font-family: sans-serif; font-size: 11px; font-weight: bold; fill: #000; opacity: 1;">Start Year</text></g></g><path class="foreground" d="" style="pointer-events: none; display: none; fill: none;"></path></g></g><g class="mark-group role-title"><g transform="translate(100,-17)"><path class="background" d="M0,0h0v0h0Z" style="pointer-events: none; fill: none;"></path><g><g class="mark-text role-title-text" style="pointer-events: none;"><text text-anchor="middle" transform="translate(0,10)" style="font-family: sans-serif; font-size: 13px; font-weight: bold; fill: #000; opacity: 1;">Order: Siphonostomatoida</text></g></g><path class="foreground" d="" style="pointer-events: none; display: none; fill: none;"></path></g></g><g class="mark-group role-axis"><g transform="translate(0.5,450.5)"><path class="background" d="M0,0h0v0h0Z" style="pointer-events: none; fill: none;"></path><g><g class="mark-rule role-axis-tick" style="pointer-events: none;"><line transform="translate(33,0)" x2="0" y2="5" style="fill: none; stroke: #888; stroke-width: 1; opacity: 1;"></line><line transform="translate(100,0)" x2="0" y2="5" style="fill: none; stroke: #888; stroke-width: 1; opacity: 1;"></line><line transform="translate(167,0)" x2="0" y2="5" style="fill: none; stroke: #888; stroke-width: 1; opacity: 1;"></line></g><g class="mark-text role-axis-label" style="pointer-events: none;"><text text-anchor="end" transform="translate(33.33333333333333,7) rotate(270) translate(0,3)" style="font-family: sans-serif; font-size: 10px; fill: #000; opacity: 1;">Alotipo</text><text text-anchor="end" transform="translate(100,7) rotate(270) translate(0,3)" style="font-family: sans-serif; font-size: 10px; fill: #000; opacity: 1;">Holotipo</text><text text-anchor="end" transform="translate(166.66666666666669,7) rotate(270) translate(0,3)" style="font-family: sans-serif; font-size: 10px; fill: #000; opacity: 1;">Paratipo</text></g><g class="mark-rule role-axis-domain" style="pointer-events: none;"><line transform="translate(0,0)" x2="200" y2="0" style="fill: none; stroke: #888; stroke-width: 1; opacity: 1;"></line></g><g class="mark-text role-axis-title" style="pointer-events: none;"><text text-anchor="middle" transform="translate(100,57.24609375)" style="font-family: sans-serif; font-size: 11px; font-weight: bold; fill: #000; opacity: 1;">Type</text></g></g><path class="foreground" d="" style="pointer-events: none; display: none; fill: none;"></path></g></g><g class="mark-group role-axis"><g transform="translate(0.5,0.5)"><path class="background" d="M0,0h0v0h0Z" style="pointer-events: none; fill: none;"></path><g><g class="mark-rule role-axis-tick" style="pointer-events: none;"><line transform="translate(0,8)" x2="-5" y2="0" style="fill: none; stroke: #888; stroke-width: 1; opacity: 1;"></line><line transform="translate(0,23)" x2="-5" y2="0" style="fill: none; stroke: #888; stroke-width: 1; opacity: 1;"></line><line transform="translate(0,38)" x2="-5" y2="0" style="fill: none; stroke: #888; stroke-width: 1; opacity: 1;"></line><line transform="translate(0,53)" x2="-5" y2="0" style="fill: none; stroke: #888; stroke-width: 1; opacity: 1;"></line><line transform="translate(0,68)" x2="-5" y2="0" style="fill: none; stroke: #888; stroke-width: 1; opacity: 1;"></line><line transform="translate(0,83)" x2="-5" y2="0" style="fill: none; stroke: #888; stroke-width: 1; opacity: 1;"></line><line transform="translate(0,98)" x2="-5" y2="0" style="fill: none; stroke: #888; stroke-width: 1; opacity: 1;"></line><line transform="translate(0,113)" x2="-5" y2="0" style="fill: none; stroke: #888; stroke-width: 1; opacity: 1;"></line><line transform="translate(0,128)" x2="-5" y2="0" style="fill: none; stroke: #888; stroke-width: 1; opacity: 1;"></line><line transform="translate(0,143)" x2="-5" y2="0" style="fill: none; stroke: #888; stroke-width: 1; opacity: 1;"></line><line transform="translate(0,158)" x2="-5" y2="0" style="fill: none; stroke: #888; stroke-width: 1; opacity: 1;"></line><line transform="translate(0,173)" x2="-5" y2="0" style="fill: none; stroke: #888; stroke-width: 1; opacity: 1;"></line><line transform="translate(0,188)" x2="-5" y2="0" style="fill: none; stroke: #888; stroke-width: 1; opacity: 1;"></line><line transform="translate(0,203)" x2="-5" y2="0" style="fill: none; stroke: #888; stroke-width: 1; opacity: 1;"></line><line transform="translate(0,218)" x2="-5" y2="0" style="fill: none; stroke: #888; stroke-width: 1; opacity: 1;"></line><line transform="translate(0,233)" x2="-5" y2="0" style="fill: none; stroke: #888; stroke-width: 1; opacity: 1;"></line><line transform="translate(0,248)" x2="-5" y2="0" style="fill: none; stroke: #888; stroke-width: 1; opacity: 1;"></line><line transform="translate(0,263)" x2="-5" y2="0" style="fill: none; stroke: #888; stroke-width: 1; opacity: 1;"></line><line transform="translate(0,278)" x2="-5" y2="0" style="fill: none; stroke: #888; stroke-width: 1; opacity: 1;"></line><line transform="translate(0,293)" x2="-5" y2="0" style="fill: none; stroke: #888; stroke-width: 1; opacity: 1;"></line><line transform="translate(0,308)" x2="-5" y2="0" style="fill: none; stroke: #888; stroke-width: 1; opacity: 1;"></line><line transform="translate(0,323)" x2="-5" y2="0" style="fill: none; stroke: #888; stroke-width: 1; opacity: 1;"></line><line transform="translate(0,338)" x2="-5" y2="0" style="fill: none; stroke: #888; stroke-width: 1; opacity: 1;"></line><line transform="translate(0,353)" x2="-5" y2="0" style="fill: none; stroke: #888; stroke-width: 1; opacity: 1;"></line><line transform="translate(0,368)" x2="-5" y2="0" style="fill: none; stroke: #888; stroke-width: 1; opacity: 1;"></line><line transform="translate(0,383)" x2="-5" y2="0" style="fill: none; stroke: #888; stroke-width: 1; opacity: 1;"></line><line transform="translate(0,398)" x2="-5" y2="0" style="fill: none; stroke: #888; stroke-width: 1; opacity: 1;"></line><line transform="translate(0,413)" x2="-5" y2="0" style="fill: none; stroke: #888; stroke-width: 1; opacity: 1;"></line><line transform="translate(0,428)" x2="-5" y2="0" style="fill: none; stroke: #888; stroke-width: 1; opacity: 1;"></line><line transform="translate(0,443)" x2="-5" y2="0" style="fill: none; stroke: #888; stroke-width: 1; opacity: 1;"></line></g><g class="mark-text role-axis-label" style="pointer-events: none;"><text text-anchor="end" transform="translate(-7,10.5)" style="font-family: sans-serif; font-size: 10px; fill: #000; opacity: 1;">Acontiophorus monanchorae</text><text text-anchor="end" transform="translate(-7,25.5)" style="font-family: sans-serif; font-size: 10px; fill: #000; opacity: 1;">Ascidiopontius concavus</text><text text-anchor="end" transform="translate(-7,40.5)" style="font-family: sans-serif; font-size: 10px; fill: #000; opacity: 1;">Asterocheres abrolhensis</text><text text-anchor="end" transform="translate(-7,55.5)" style="font-family: sans-serif; font-size: 10px; fill: #000; opacity: 1;">Asterocheres aplysinus</text><text text-anchor="end" transform="translate(-7,70.5)" style="font-family: sans-serif; font-size: 10px; fill: #000; opacity: 1;">Asterocheres crenulatus</text><text text-anchor="end" transform="translate(-7,85.5)" style="font-family: sans-serif; font-size: 10px; fill: #000; opacity: 1;">Asterocheres lunatus</text><text text-anchor="end" transform="translate(-7,100.5)" style="font-family: sans-serif; font-size: 10px; fill: #000; opacity: 1;">Asterocheres neptunei</text><text text-anchor="end" transform="translate(-7,115.5)" style="font-family: sans-serif; font-size: 10px; fill: #000; opacity: 1;">Asterocheres paraboecki</text><text text-anchor="end" transform="translate(-7,130.5)" style="font-family: sans-serif; font-size: 10px; fill: #000; opacity: 1;">Asterocheres picinguabensis</text><text text-anchor="end" transform="translate(-7,145.5)" style="font-family: sans-serif; font-size: 10px; fill: #000; opacity: 1;">Asterocheres tetrasetosus</text><text text-anchor="end" transform="translate(-7,160.5)" style="font-family: sans-serif; font-size: 10px; fill: #000; opacity: 1;">Asterocheres unicus</text><text text-anchor="end" transform="translate(-7,175.5)" style="font-family: sans-serif; font-size: 10px; fill: #000; opacity: 1;">Asteropontius elizabethae</text><text text-anchor="end" transform="translate(-7,190.5)" style="font-family: sans-serif; font-size: 10px; fill: #000; opacity: 1;">Asteropontius latus</text><text text-anchor="end" transform="translate(-7,205.5)" style="font-family: sans-serif; font-size: 10px; fill: #000; opacity: 1;">Asteropontoides elephantinus</text><text text-anchor="end" transform="translate(-7,220.5)" style="font-family: sans-serif; font-size: 10px; fill: #000; opacity: 1;">Caligus itacurussensis</text><text text-anchor="end" transform="translate(-7,235.5)" style="font-family: sans-serif; font-size: 10px; fill: #000; opacity: 1;">Caligus littoralis</text><text text-anchor="end" transform="translate(-7,250.5)" style="font-family: sans-serif; font-size: 10px; fill: #000; opacity: 1;">Caligus sepetibensis</text><text text-anchor="end" transform="translate(-7,265.5)" style="font-family: sans-serif; font-size: 10px; fill: #000; opacity: 1;">Chelacheres longipalpus</text><text text-anchor="end" transform="translate(-7,280.5)" style="font-family: sans-serif; font-size: 10px; fill: #000; opacity: 1;">Cletopontius titanus</text><text text-anchor="end" transform="translate(-7,295.5)" style="font-family: sans-serif; font-size: 10px; fill: #000; opacity: 1;">Cryptopontius madeirensis</text><text text-anchor="end" transform="translate(-7,310.5)" style="font-family: sans-serif; font-size: 10px; fill: #000; opacity: 1;">Dyspontius gerardius</text><text text-anchor="end" transform="translate(-7,325.5)" style="font-family: sans-serif; font-size: 10px; fill: #000; opacity: 1;">Glyptocheres extrusus</text><text text-anchor="end" transform="translate(-7,340.5)" style="font-family: sans-serif; font-size: 10px; fill: #000; opacity: 1;">Gomumucheres angularis</text><text text-anchor="end" transform="translate(-7,355.5)" style="font-family: sans-serif; font-size: 10px; fill: #000; opacity: 1;">Kolocheres angustus</text><text text-anchor="end" transform="translate(-7,370.5)" style="font-family: sans-serif; font-size: 10px; fill: #000; opacity: 1;">Lepeophtheirus rhinobati</text><text text-anchor="end" transform="translate(-7,385.5)" style="font-family: sans-serif; font-size: 10px; fill: #000; opacity: 1;">Monocheres cagarrensis</text><text text-anchor="end" transform="translate(-7,400.5)" style="font-family: sans-serif; font-size: 10px; fill: #000; opacity: 1;">Orecturus bahiensis</text><text text-anchor="end" transform="translate(-7,415.5)" style="font-family: sans-serif; font-size: 10px; fill: #000; opacity: 1;">Parasterocheres cristatus</text><text text-anchor="end" transform="translate(-7,430.5)" style="font-family: sans-serif; font-size: 10px; fill: #000; opacity: 1;">Scottocheres youngi</text><text text-anchor="end" transform="translate(-7,445.5)" style="font-family: sans-serif; font-size: 10px; fill: #000; opacity: 1;">Spongiopsyllus adventicius</text></g><g class="mark-rule role-axis-domain" style="pointer-events: none;"><line transform="translate(0,0)" x2="0" y2="450" style="fill: none; stroke: #888; stroke-width: 1; opacity: 1;"></line></g><g class="mark-text role-axis-title" style="pointer-events: none;"><text text-anchor="middle" transform="translate(-142.7626953125,225) rotate(-90) translate(0,-2)" style="font-family: sans-serif; font-size: 11px; font-weight: bold; fill: #000; opacity: 1;">Species (Total of 30)</text></g></g><path class="foreground" d="" style="pointer-events: none; display: none; fill: none;"></path></g></g></g><path class="foreground" d="" style="display: none; fill: none;"></path></g></g></g></svg>